<svg width="30" height="30" viewBox="0 0 30 30" fill="none" xmlns="http://www.w3.org/2000/svg">
<rect x="1.5" y="1.5" width="27" height="27" rx="13.5" fill="#E08686"/>
<rect x="1.5" y="1.5" width="27" height="27" rx="13.5" stroke="#E77575" stroke-width="3"/>
<g clip-path="url(#clip0_106_1058)">
<path fill-rule="evenodd" clip-rule="evenodd" d="M15.41 9.71284C15.3639 9.64683 15.3026 9.59292 15.2312 9.55569C15.1598 9.51846 15.0805 9.49902 15 9.49902C14.9195 9.49902 14.8402 9.51846 14.7688 9.55569C14.6974 9.59292 14.6361 9.64683 14.59 9.71284L11.432 14.2248L8.854 11.6458C8.78407 11.5757 8.6949 11.528 8.59779 11.5086C8.50068 11.4892 8.40001 11.4991 8.30854 11.5371C8.21706 11.575 8.13891 11.6392 8.08398 11.7216C8.02905 11.804 7.99982 11.9008 8 11.9998V18.4998C8 19.0303 8.21071 19.539 8.58579 19.9141C8.96086 20.2891 9.46957 20.4998 10 20.4998H20C20.5304 20.4998 21.0391 20.2891 21.4142 19.9141C21.7893 19.539 22 19.0303 22 18.4998V11.9998C22.0002 11.9008 21.971 11.804 21.916 11.7216C21.8611 11.6392 21.7829 11.575 21.6915 11.5371C21.6 11.4991 21.4993 11.4892 21.4022 11.5086C21.3051 11.528 21.2159 11.5757 21.146 11.6458L18.568 14.2248L15.41 9.71284Z" fill="white"/>
</g>
<defs>
<clipPath id="clip0_106_1058">
<rect width="14" height="14" fill="white" transform="translate(8 8)"/>
</clipPath>
</defs>
</svg>
