<svg width="390" height="844" viewBox="0 0 390 844" fill="none" xmlns="http://www.w3.org/2000/svg">
<g clip-path="url(#clip0_194_651)">
<rect width="390" height="844" fill="white"/>
<mask id="path-1-inside-1_194_651" fill="white">
<path d="M-3.96777 197.071H38.8094V220.157C38.8094 225.782 34.2494 230.342 28.6243 230.342H-3.96777V197.071Z"/>
</mask>
<path d="M-3.96777 197.071H38.8094H-3.96777ZM44.2414 220.157C44.2414 228.782 37.2494 235.774 28.6243 235.774H-3.96777V224.91H28.6243C31.2493 224.91 33.3773 222.782 33.3773 220.157H44.2414ZM-3.96777 230.342V197.071V230.342ZM44.2414 197.071V220.157C44.2414 228.782 37.2494 235.774 28.6243 235.774V224.91C31.2493 224.91 33.3773 222.782 33.3773 220.157V197.071H44.2414Z" fill="#EEEEEE" mask="url(#path-1-inside-1_194_651)"/>
<mask id="path-3-inside-2_194_651" fill="white">
<path d="M36.0933 201.145H78.8704V210.651C78.8704 216.276 74.3104 220.836 68.6854 220.836H36.0933V201.145Z"/>
</mask>
<path d="M36.0933 201.145H78.8704H36.0933ZM84.3024 210.651C84.3024 219.276 77.3104 226.268 68.6854 226.268H36.0933V215.404H68.6854C71.3104 215.404 73.4384 213.276 73.4384 210.651H84.3024ZM36.0933 220.836V201.145V220.836ZM84.3024 201.145V210.651C84.3024 219.276 77.3104 226.268 68.6854 226.268V215.404C71.3104 215.404 73.4384 213.276 73.4384 210.651V201.145H84.3024Z" fill="#EEEEEE" mask="url(#path-3-inside-2_194_651)"/>
<path d="M35.7534 178.06C45.6909 178.06 53.7473 186.115 53.7476 196.053V196.053C53.7476 196.241 53.5925 196.393 53.4038 196.393H18.104C17.9153 196.393 17.7603 196.241 17.7603 196.053V196.053C17.7605 186.115 25.8162 178.06 35.7534 178.06Z" fill="#EEEEEE"/>
<path d="M76.2676 184.848C84.58 184.848 91.3191 191.586 91.3193 199.898V199.898C91.3193 200.057 91.1886 200.184 91.0302 200.184H61.5059C61.3475 200.184 61.2168 200.057 61.2168 199.898V199.898C61.217 191.586 67.9554 184.848 76.2676 184.848Z" fill="#EEEEEE"/>
<mask id="path-7-inside-3_194_651" fill="white">
<path d="M390 60.441H340.36V98.4647C340.36 105.388 345.972 111 352.896 111H390V60.441Z"/>
</mask>
<path d="M390 60.441H340.36H390ZM333.675 98.4648C333.675 109.08 342.28 117.686 352.896 117.686H390V104.315H352.896C349.665 104.315 347.046 101.696 347.046 98.4648H333.675ZM390 111V60.441V111ZM333.675 60.441V98.4648C333.675 109.08 342.28 117.686 352.896 117.686V104.315C349.665 104.315 347.046 101.696 347.046 98.4648V60.441H333.675Z" fill="#EEEEEE" mask="url(#path-7-inside-3_194_651)"/>
<mask id="path-9-inside-4_194_651" fill="white">
<path d="M343.452 75.5251H290.804V87.2248C290.804 94.1478 296.416 99.76 303.339 99.76H343.452V75.5251Z"/>
</mask>
<path d="M343.452 75.5251H290.804H343.452ZM284.118 87.2248C284.118 97.8401 292.724 106.446 303.339 106.446H343.452V93.0746H303.339C300.108 93.0746 297.489 90.4555 297.489 87.2248H284.118ZM343.452 99.76V75.5251V99.76ZM284.118 75.5251V87.2248C284.118 97.8401 292.724 106.446 303.339 106.446V93.0746C300.108 93.0746 297.489 90.4555 297.489 87.2248V75.5251H284.118Z" fill="#EEEEEE" mask="url(#path-9-inside-4_194_651)"/>
<path d="M343.87 37C331.639 37 321.725 46.9149 321.725 59.1455V59.1455C321.725 59.3776 321.915 59.5635 322.147 59.5635H365.593C365.825 59.5635 366.016 59.3776 366.016 59.1455V59.1455C366.016 46.9149 356.101 37.0001 343.87 37Z" fill="#EEEEEE"/>
<path d="M294.46 57.6829C285.287 57.6829 277.851 65.1192 277.851 74.2922V74.2922C277.851 74.4663 277.994 74.6057 278.168 74.6057H310.752C310.926 74.6057 311.069 74.4663 311.069 74.2922V74.2922C311.069 65.1192 303.633 57.6829 294.46 57.6829Z" fill="#EEEEEE"/>
<path d="M366.535 93C360.717 93 356 97.7168 356 103.535V103.535C356 103.646 356.094 103.734 356.204 103.734H376.866C376.977 103.734 377.07 103.646 377.07 103.535V103.535C377.07 97.7168 372.354 93 366.535 93Z" fill="#EEEEEE"/>
<path d="M195 568C230.346 568 259 596.654 259 632V643C259 620.909 276.909 603 299 603H302C324.091 603 342 620.909 342 643C342 620.909 359.909 603 382 603H387C409.091 603 427 620.909 427 643V823H-37V643C-37 620.909 -19.0914 603 3 603H8C30.0914 603 48 620.909 48 643C48 620.909 65.9086 603 88 603H91C113.091 603 131 620.909 131 643V632C131 596.654 159.654 568 195 568Z" fill="url(#paint0_linear_194_651)"/>
<path d="M48 674C67.8823 674 84 690.118 84 710V823H48V674ZM342 823H306V710C306 690.118 322.118 674 342 674V823Z" fill="white"/>
</g>
<defs>
<linearGradient id="paint0_linear_194_651" x1="195" y1="568" x2="195" y2="823" gradientUnits="userSpaceOnUse">
<stop stop-color="#EEEEEE"/>
<stop offset="1" stop-color="#FEFEFE"/>
</linearGradient>
<clipPath id="clip0_194_651">
<rect width="390" height="844" fill="white"/>
</clipPath>
</defs>
</svg>
