<svg width="50" height="50" viewBox="0 0 50 50" fill="none" xmlns="http://www.w3.org/2000/svg">
<rect width="50" height="50" rx="25" fill="#C8C8C8"/>
<path d="M9.16699 21.0054H10.2702V29.0514H9.16699V21.0054ZM11.9535 24.3388C11.6881 24.3388 11.4493 24.3847 11.237 24.4767C11.0323 24.5686 10.8579 24.6989 10.7138 24.8675C10.5697 25.0361 10.4598 25.2353 10.384 25.4652C10.3081 25.6951 10.2702 25.9441 10.2702 26.2123V29.0514H9.16699V26.2353C9.16699 25.7985 9.23144 25.3962 9.36034 25.0284C9.48924 24.6529 9.67122 24.3311 9.90627 24.0629C10.1489 23.787 10.4408 23.5725 10.782 23.4192C11.1308 23.266 11.5213 23.1893 11.9535 23.1893C12.3857 23.1893 12.761 23.266 13.0795 23.4192C13.4055 23.5725 13.6823 23.787 13.9098 24.0629C14.1372 24.3311 14.3192 24.6529 14.4557 25.0284C14.5922 25.3962 14.6869 25.7985 14.74 26.2353L15.0812 29.0514H13.9666L13.614 26.2123C13.5837 25.9441 13.5268 25.6951 13.4434 25.4652C13.3676 25.2353 13.2615 25.0399 13.125 24.879C12.9961 24.7104 12.8331 24.5801 12.6359 24.4882C12.4464 24.3886 12.2189 24.3388 11.9535 24.3388Z" fill="white"/>
<path d="M16.1229 23.3043H17.2261V29.0514H16.1229V23.3043ZM15.9978 21.5227C15.9978 21.3158 16.0584 21.151 16.1798 21.0284C16.3087 20.8981 16.4755 20.833 16.6802 20.833C16.8773 20.833 17.0366 20.8981 17.1579 21.0284C17.2868 21.151 17.3512 21.3158 17.3512 21.5227C17.3512 21.7296 17.2868 21.8981 17.1579 22.0284C17.0366 22.151 16.8773 22.2123 16.6802 22.2123C16.4755 22.2123 16.3087 22.151 16.1798 22.0284C16.0584 21.8981 15.9978 21.7296 15.9978 21.5227Z" fill="white"/>
<path d="M20.794 25.6146C21.302 25.6146 21.6812 25.5342 21.9314 25.3732C22.1892 25.2123 22.3484 24.9096 22.4091 24.4652L22.5456 23.3043H23.6488L23.5123 24.4422C23.4516 24.9556 23.3379 25.3502 23.1711 25.6261C23.0119 25.8943 22.7806 26.0782 22.4773 26.1778C22.7579 26.2698 22.9853 26.4652 23.1597 26.764C23.3341 27.0629 23.4516 27.446 23.5123 27.9135L23.6488 29.0514H22.5456L22.4091 27.8905C22.356 27.4384 22.2006 27.1319 21.9428 26.9709C21.685 26.81 21.302 26.7296 20.794 26.7296H19.6112V29.0514H18.5079V21.0054H19.6112V25.6146H20.794Z" fill="white"/>
<path d="M28.6105 24.9709C28.4513 24.7717 28.2503 24.6184 28.0077 24.5112C27.7726 24.3962 27.511 24.3388 27.2229 24.3388C26.7528 24.3388 26.3623 24.4729 26.0514 24.7411C25.7406 25.0093 25.5434 25.3617 25.46 25.7985L28.6105 24.9709ZM24.3227 26.2353C24.3227 25.7985 24.3909 25.3962 24.5274 25.0284C24.6715 24.6529 24.8686 24.3311 25.1188 24.0629C25.3766 23.787 25.6837 23.5725 26.0401 23.4192C26.3964 23.266 26.7907 23.1893 27.2229 23.1893C27.5869 23.1893 27.9243 23.2468 28.2352 23.3617C28.546 23.469 28.8228 23.6223 29.0654 23.8215C29.3081 24.0131 29.509 24.2468 29.6682 24.5227C29.835 24.7985 29.9564 25.1012 30.0322 25.4307V25.764L25.5396 26.902C25.661 27.2468 25.8657 27.5188 26.1538 27.7181C26.4495 27.9173 26.8059 28.0169 27.2229 28.0169C27.6172 28.0169 27.9584 27.9173 28.2465 27.7181C28.5347 27.5188 28.7432 27.2545 28.8721 26.925H30.0322C29.9564 27.2545 29.835 27.5571 29.6682 27.833C29.509 28.1089 29.3081 28.3464 29.0654 28.5457C28.8228 28.7372 28.546 28.8905 28.2352 29.0054C27.9243 29.1127 27.5869 29.1663 27.2229 29.1663C26.7907 29.1663 26.3964 29.0935 26.0401 28.9479C25.6837 28.8024 25.3766 28.6031 25.1188 28.3502C24.8686 28.0897 24.6715 27.7794 24.5274 27.4192C24.3909 27.0591 24.3227 26.6644 24.3227 26.2353Z" fill="white"/>
<path d="M33.8845 24.3388C33.3007 24.3388 32.8306 24.5112 32.4742 24.856C32.1254 25.1932 31.951 25.6453 31.951 26.2123V29.0514H30.8478V26.2353C30.8478 25.7985 30.916 25.3962 31.0525 25.0284C31.1966 24.6529 31.3937 24.3311 31.6439 24.0629C31.9017 23.787 32.2088 23.5725 32.5652 23.4192C32.9216 23.266 33.3158 23.1893 33.748 23.1893C34.0741 23.1893 34.3774 23.2353 34.6579 23.3273V24.4537C34.5366 24.4154 34.4077 24.3886 34.2712 24.3732C34.1423 24.3502 34.0134 24.3388 33.8845 24.3388Z" fill="white"/>
<path d="M38.1154 29.1663C37.2055 29.1663 36.4928 28.9748 35.9772 28.5916C35.4691 28.2008 35.1886 27.6453 35.1355 26.925H36.2956C36.3335 27.3004 36.5003 27.5801 36.7961 27.764C37.0993 27.9403 37.5657 28.0284 38.195 28.0284C38.6803 28.0284 39.0556 27.9748 39.321 27.8675C39.5864 27.7525 39.7191 27.584 39.7191 27.3617C39.7191 26.925 39.1276 26.7027 37.9448 26.6951C36.997 26.6874 36.2918 26.5571 35.8293 26.3043C35.3668 26.0514 35.1355 25.6529 35.1355 25.1089C35.1355 24.8177 35.2 24.5533 35.3289 24.3158C35.4653 24.0782 35.6511 23.8752 35.8862 23.7066C36.1288 23.538 36.4207 23.4116 36.7619 23.3273C37.1031 23.2353 37.4823 23.1893 37.8993 23.1893C38.7864 23.1893 39.4802 23.3847 39.9806 23.7755C40.4887 24.1663 40.773 24.7181 40.8337 25.4307H39.6622C39.6243 25.0629 39.4575 24.7909 39.1617 24.6146C38.8736 24.4307 38.4414 24.3388 37.8652 24.3388C37.3571 24.3388 36.9591 24.4077 36.6709 24.5457C36.3828 24.6759 36.2388 24.8637 36.2388 25.1089C36.2388 25.3234 36.3677 25.4767 36.6255 25.5686C36.8833 25.6529 37.3192 25.7027 37.9334 25.7181C38.9646 25.7334 39.7039 25.8637 40.1512 26.1089C40.6062 26.3464 40.8337 26.7334 40.8337 27.2698C40.8337 27.8752 40.591 28.3426 40.1058 28.6721C39.6205 29.0016 38.957 29.1663 38.1154 29.1663Z" fill="white"/>
</svg>
