<svg width="350" height="250" viewBox="0 0 350 250" fill="none" xmlns="http://www.w3.org/2000/svg">
<g clip-path="url(#clip0_587_832)">
<rect width="350" height="250" rx="10" fill="#ABD5CE"/>
<path d="M-4 60.5967C-4 60.5967 262.5 -10.9033 268 85.0965C273.5 181.096 51.1843 56.5968 62.5 164.096C73.8157 271.596 354 173.597 354 173.597" stroke="url(#paint0_linear_587_832)" stroke-width="30"/>
<circle cx="202" cy="210" r="25" fill="url(#paint1_linear_587_832)"/>
<circle cx="97" cy="208" r="25" fill="url(#paint2_linear_587_832)"/>
<circle cx="73" cy="128" r="25" fill="url(#paint3_linear_587_832)"/>
<circle cx="45" cy="49" r="25" fill="url(#paint4_linear_587_832)"/>
<circle cx="154" cy="35" r="25" fill="url(#paint5_linear_587_832)"/>
<circle cx="256" cy="57" r="25" fill="url(#paint6_linear_587_832)"/>
<circle cx="187" cy="122" r="25" fill="url(#paint7_linear_587_832)"/>
<circle cx="298" cy="190" r="25" fill="url(#paint8_linear_587_832)"/>
<path d="M-4 60.5967C-4 60.5967 262.5 -10.9033 268 85.0965C273.5 181.096 51.1843 56.5968 62.5 164.096C73.8157 271.596 354 173.597 354 173.597" stroke="white" stroke-width="20"/>
<circle cx="45" cy="49" r="20" fill="white"/>
<circle cx="154" cy="35" r="20" fill="white"/>
<circle cx="256" cy="57" r="20" fill="white"/>
<circle cx="187" cy="122" r="20" fill="white"/>
<circle cx="73" cy="128" r="20" fill="white"/>
<circle cx="97" cy="208" r="20" fill="white"/>
<circle cx="202" cy="210" r="20" fill="white"/>
<circle cx="298" cy="190" r="20" fill="white"/>
</g>
<defs>
<linearGradient id="paint0_linear_587_832" x1="354" y1="124.734" x2="-4" y2="124.734" gradientUnits="userSpaceOnUse">
<stop stop-color="#A9D4CD"/>
<stop offset="1" stop-color="white"/>
</linearGradient>
<linearGradient id="paint1_linear_587_832" x1="227" y1="210" x2="177" y2="210" gradientUnits="userSpaceOnUse">
<stop stop-color="#C8E4DF"/>
<stop offset="1" stop-color="#D2E9E5"/>
</linearGradient>
<linearGradient id="paint2_linear_587_832" x1="120.5" y1="214.5" x2="77" y2="193.5" gradientUnits="userSpaceOnUse">
<stop stop-color="#E2F0EE"/>
<stop offset="1" stop-color="#EAF4F3"/>
</linearGradient>
<linearGradient id="paint3_linear_587_832" x1="94.5" y1="117.5" x2="61" y2="149" gradientUnits="userSpaceOnUse">
<stop stop-color="#E8F4F2"/>
<stop offset="1" stop-color="#F1F8F7"/>
</linearGradient>
<linearGradient id="paint4_linear_587_832" x1="70" y1="45.5" x2="20" y2="54.5" gradientUnits="userSpaceOnUse">
<stop stop-color="#EEF7F5"/>
<stop offset="1" stop-color="#F9FCFC"/>
</linearGradient>
<linearGradient id="paint5_linear_587_832" x1="179" y1="35" x2="129" y2="35" gradientUnits="userSpaceOnUse">
<stop stop-color="#D4E9E6"/>
<stop offset="1" stop-color="#DFEFEC"/>
</linearGradient>
<linearGradient id="paint6_linear_587_832" x1="267.5" y1="77" x2="236" y2="42.5" gradientUnits="userSpaceOnUse">
<stop stop-color="#C0E0DA"/>
<stop offset="1" stop-color="#C4E1DD"/>
</linearGradient>
<linearGradient id="paint7_linear_587_832" x1="212" y1="122" x2="162" y2="122" gradientUnits="userSpaceOnUse">
<stop stop-color="#CCE5E1"/>
<stop offset="1" stop-color="#D6EBE7"/>
</linearGradient>
<linearGradient id="paint8_linear_587_832" x1="323" y1="190" x2="273" y2="190" gradientUnits="userSpaceOnUse">
<stop stop-color="#B2D8D2"/>
<stop offset="1" stop-color="#BDDED9"/>
</linearGradient>
<clipPath id="clip0_587_832">
<rect width="350" height="250" rx="10" fill="white"/>
</clipPath>
</defs>
</svg>
