<svg width="100" height="100" viewBox="0 0 100 100" fill="none" xmlns="http://www.w3.org/2000/svg">
<rect width="100" height="100" rx="50" fill="white"/>
<path d="M16 41.3724H18.3342V58.7517H16V41.3724ZM21.8957 48.5724C21.3342 48.5724 20.8288 48.6717 20.3796 48.8703C19.9465 49.069 19.5775 49.3503 19.2727 49.7145C18.9679 50.0786 18.7353 50.509 18.5748 51.0055C18.4144 51.5021 18.3342 52.04 18.3342 52.6193V58.7517H16V52.669C16 51.7255 16.1364 50.8566 16.4091 50.0621C16.6818 49.251 17.0668 48.5559 17.5642 47.9766C18.0775 47.3807 18.6952 46.9172 19.4171 46.5862C20.1551 46.2552 20.9812 46.0897 21.8957 46.0897C22.8101 46.0897 23.6042 46.2552 24.278 46.5862C24.9679 46.9172 25.5534 47.3807 26.0347 47.9766C26.516 48.5559 26.901 49.251 27.1898 50.0621C27.4785 50.8566 27.6791 51.7255 27.7914 52.669L28.5133 58.7517H26.155L25.409 52.6193C25.3449 52.04 25.2245 51.5021 25.0481 51.0055C24.8876 50.509 24.663 50.0869 24.3743 49.7393C24.1015 49.3752 23.7566 49.0938 23.3395 48.8952C22.9385 48.68 22.4572 48.5724 21.8957 48.5724Z" fill="#EEEEEE"/>
<path d="M30.7172 46.3379H33.0514V58.7517H30.7172V46.3379ZM30.4525 42.4897C30.4525 42.0428 30.5808 41.6869 30.8375 41.4221C31.1102 41.1407 31.4632 41 31.8963 41C32.3134 41 32.6503 41.1407 32.907 41.4221C33.1798 41.6869 33.3161 42.0428 33.3161 42.4897C33.3161 42.9366 33.1798 43.3007 32.907 43.5821C32.6503 43.8469 32.3134 43.9793 31.8963 43.9793C31.4632 43.9793 31.1102 43.8469 30.8375 43.5821C30.5808 43.3007 30.4525 42.9366 30.4525 42.4897Z" fill="#EEEEEE"/>
<path d="M40.6004 51.3283C41.6752 51.3283 42.4774 51.1545 43.0068 50.8069C43.5522 50.4593 43.8891 49.8055 44.0175 48.8455L44.3062 46.3379H46.6404L46.3517 48.7959C46.2233 49.9048 45.9827 50.7572 45.6297 51.3531C45.2928 51.9324 44.8035 52.3297 44.1618 52.5448C44.7554 52.7434 45.2367 53.1655 45.6057 53.811C45.9747 54.4566 46.2233 55.2841 46.3517 56.2938L46.6404 58.7517H44.3062L44.0175 56.2441C43.9052 55.2676 43.5763 54.6055 43.0308 54.2579C42.4854 53.9103 41.6752 53.7366 40.6004 53.7366H38.0977V58.7517H35.7635V41.3724H38.0977V51.3283H40.6004Z" fill="#EEEEEE"/>
<path d="M57.1383 49.9379C56.8014 49.5076 56.3763 49.1766 55.863 48.9448C55.3656 48.6966 54.8122 48.5724 54.2025 48.5724C53.2079 48.5724 52.3817 48.8621 51.7239 49.4414C51.0662 50.0207 50.6491 50.7821 50.4726 51.7255L57.1383 49.9379ZM48.0662 52.669C48.0662 51.7255 48.2106 50.8566 48.4994 50.0621C48.8042 49.251 49.2213 48.5559 49.7507 47.9766C50.2961 47.3807 50.9459 46.9172 51.6999 46.5862C52.4539 46.2552 53.2881 46.0897 54.2025 46.0897C54.9726 46.0897 55.6865 46.2138 56.3442 46.4621C57.002 46.6938 57.5875 47.0248 58.1009 47.4552C58.6143 47.869 59.0394 48.3738 59.3763 48.9697C59.7292 49.5655 59.9859 50.2193 60.1463 50.931V51.651L50.6411 54.109C50.8977 54.8538 51.3309 55.4414 51.9405 55.8717C52.5662 56.3021 53.3202 56.5172 54.2025 56.5172C55.0368 56.5172 55.7587 56.3021 56.3683 55.8717C56.9779 55.4414 57.4191 54.8703 57.6918 54.1586H60.1463C59.9859 54.8703 59.7292 55.5241 59.3763 56.12C59.0394 56.7159 58.6143 57.229 58.1009 57.6593C57.5875 58.0731 57.002 58.4041 56.3442 58.6524C55.6865 58.8841 54.9726 59 54.2025 59C53.2881 59 52.4539 58.8428 51.6999 58.5283C50.9459 58.2138 50.2961 57.7834 49.7507 57.2372C49.2213 56.6745 48.8042 56.0041 48.4994 55.2262C48.2106 54.4483 48.0662 53.5959 48.0662 52.669Z" fill="#EEEEEE"/>
<path d="M68.2971 48.5724C67.0618 48.5724 66.0672 48.9448 65.3131 49.6897C64.5752 50.4179 64.2062 51.3945 64.2062 52.6193V58.7517H61.872V52.669C61.872 51.7255 62.0164 50.8566 62.3051 50.0621C62.61 49.251 63.0271 48.5559 63.5565 47.9766C64.1019 47.3807 64.7517 46.9172 65.5057 46.5862C66.2597 46.2552 67.0939 46.0897 68.0083 46.0897C68.6982 46.0897 69.3399 46.189 69.9334 46.3876V48.8207C69.6768 48.7379 69.404 48.68 69.1153 48.6469C68.8425 48.5972 68.5698 48.5724 68.2971 48.5724Z" fill="#EEEEEE"/>
<path d="M77.2487 59C75.3236 59 73.8156 58.5862 72.7247 57.7586C71.6498 56.9145 71.0562 55.7145 70.9439 54.1586H73.3985C73.4787 54.9697 73.8316 55.5738 74.4573 55.971C75.099 56.3517 76.0856 56.5421 77.4172 56.5421C78.4439 56.5421 79.238 56.4262 79.7995 56.1945C80.361 55.9462 80.6417 55.5821 80.6417 55.1021C80.6417 54.1586 79.3904 53.6786 76.8877 53.6621C74.8824 53.6455 73.3904 53.3641 72.4118 52.8179C71.4332 52.2717 70.9439 51.411 70.9439 50.2359C70.9439 49.6069 71.0803 49.0359 71.353 48.5228C71.6418 48.0097 72.0348 47.571 72.5322 47.2069C73.0455 46.8428 73.6632 46.5697 74.3851 46.3876C75.107 46.189 75.9091 46.0897 76.7915 46.0897C78.6685 46.0897 80.1364 46.5117 81.1952 47.3559C82.2701 48.2 82.8717 49.3917 83 50.931H80.5214C80.4412 50.1366 80.0882 49.549 79.4626 49.1683C78.853 48.771 77.9385 48.5724 76.7193 48.5724C75.6444 48.5724 74.8022 48.7214 74.1926 49.0193C73.583 49.3007 73.2781 49.7062 73.2781 50.2359C73.2781 50.6993 73.5509 51.0303 74.0963 51.229C74.6418 51.411 75.5642 51.5186 76.8637 51.5517C79.0455 51.5848 80.6096 51.8662 81.5562 52.3959C82.5187 52.909 83 53.7448 83 54.9034C83 56.211 82.4866 57.2207 81.4599 57.9324C80.4332 58.6441 79.0294 59 77.2487 59Z" fill="#EEEEEE"/>
</svg>
