<svg width="390" height="395" viewBox="0 0 390 395" fill="none" xmlns="http://www.w3.org/2000/svg">
<g clip-path="url(#clip0_655_312)">
<path d="M0 0H390V355C390 377.091 372.091 395 350 395H40C17.9086 395 0 377.091 0 355V0Z" fill="#349989"/>
<circle cx="195" cy="371" r="260.5" stroke="white" stroke-opacity="0.1"/>
<circle cx="195" cy="301" r="260.5" stroke="white" stroke-opacity="0.05"/>
<circle cx="195" cy="231" r="260.5" stroke="white" stroke-opacity="0.03"/>
<path d="M134 260.5C134 227.087 161.087 200 194.5 200V200C227.913 200 255 227.087 255 260.5V395H134V260.5Z" fill="url(#paint0_linear_655_312)"/>
<path d="M211.5 209L214.364 220.424L225 223.5L214.364 226.576L211.5 238L208.636 226.576L198 223.5L208.636 220.424L211.5 209Z" fill="white"/>
<path d="M231 231L232.697 237.697L239 239.5L232.697 241.303L231 248L229.303 241.303L223 239.5L229.303 237.697L231 231Z" fill="white"/>
<path d="M20 297C20 265.52 45.5198 240 77 240V240C108.48 240 134 265.52 134 297V395H20V297Z" fill="#8CCAC0"/>
<path d="M255 317.5C255 285.744 280.744 260 312.5 260V260C344.256 260 370 285.744 370 317.5V395H255V317.5Z" fill="#8CC7BE"/>
<path d="M36 279L37.6971 285.697L44 287.5L37.6971 289.303L36 296L34.3029 289.303L28 287.5L34.3029 285.697L36 279Z" fill="white"/>
<path d="M354 352L355.697 358.697L362 360.5L355.697 362.303L354 369L352.303 362.303L346 360.5L352.303 358.697L354 352Z" fill="white"/>
<mask id="path-12-outside-1_655_312" maskUnits="userSpaceOnUse" x="184" y="254" width="20" height="48" fill="black">
<rect fill="white" x="184" y="254" width="20" height="48"/>
<path d="M194.46 299V257H200.34V299H194.46ZM187.8 262.88V257H200.34V262.88H187.8Z"/>
</mask>
<path d="M194.46 299V257H200.34V299H194.46ZM187.8 262.88V257H200.34V262.88H187.8Z" fill="#349989"/>
<path d="M194.46 299H191.46V302H194.46V299ZM194.46 257V254H191.46V257H194.46ZM200.34 257H203.34V254H200.34V257ZM200.34 299V302H203.34V299H200.34ZM187.8 262.88H184.8V265.88H187.8V262.88ZM187.8 257V254H184.8V257H187.8ZM200.34 257H203.34V254H200.34V257ZM200.34 262.88V265.88H203.34V262.88H200.34ZM197.46 299V257H191.46V299H197.46ZM194.46 260H200.34V254H194.46V260ZM197.34 257V299H203.34V257H197.34ZM200.34 296H194.46V302H200.34V296ZM190.8 262.88V257H184.8V262.88H190.8ZM187.8 260H200.34V254H187.8V260ZM197.34 257V262.88H203.34V257H197.34ZM200.34 259.88H187.8V265.88H200.34V259.88Z" fill="#349989" mask="url(#path-12-outside-1_655_312)"/>
<mask id="path-14-outside-2_655_312" maskUnits="userSpaceOnUse" x="59" y="294" width="37" height="47" fill="black">
<rect fill="white" x="59" y="294" width="37" height="47"/>
<path d="M62.4 333.12H92.22V339H62.4V333.12ZM93.12 311.1C93.12 312.98 92.86 314.64 92.34 316.08C91.86 317.48 91.02 318.74 89.82 319.86C88.62 320.98 87.02 322.02 85.02 322.98C83.06 323.9 80.62 324.82 77.7 325.74C75.74 326.34 74.16 326.92 72.96 327.48C71.8 328.04 70.9 328.62 70.26 329.22C69.62 329.78 69.18 330.38 68.94 331.02C68.74 331.66 68.64 332.36 68.64 333.12V339H62.4V333C62.4 330.84 62.84 329.06 63.72 327.66C64.64 326.26 65.8 325.1 67.2 324.18C68.6 323.22 70.18 322.44 71.94 321.84C73.7 321.24 75.44 320.68 77.16 320.16C79.08 319.6 80.68 319.02 81.96 318.42C83.24 317.82 84.26 317.16 85.02 316.44C85.82 315.72 86.38 314.92 86.7 314.04C87.06 313.16 87.24 312.14 87.24 310.98C87.24 308.06 86.42 305.88 84.78 304.44C83.14 302.96 80.76 302.22 77.64 302.22C71.68 302.22 68.42 304.96 67.86 310.44H61.8C62.36 305.92 63.96 302.46 66.6 300.06C69.28 297.62 72.92 296.4 77.52 296.4C79.92 296.4 82.08 296.74 84 297.42C85.92 298.1 87.54 299.08 88.86 300.36C90.22 301.6 91.26 303.14 91.98 304.98C92.74 306.78 93.12 308.82 93.12 311.1Z"/>
</mask>
<path d="M62.4 333.12H92.22V339H62.4V333.12ZM93.12 311.1C93.12 312.98 92.86 314.64 92.34 316.08C91.86 317.48 91.02 318.74 89.82 319.86C88.62 320.98 87.02 322.02 85.02 322.98C83.06 323.9 80.62 324.82 77.7 325.74C75.74 326.34 74.16 326.92 72.96 327.48C71.8 328.04 70.9 328.62 70.26 329.22C69.62 329.78 69.18 330.38 68.94 331.02C68.74 331.66 68.64 332.36 68.64 333.12V339H62.4V333C62.4 330.84 62.84 329.06 63.72 327.66C64.64 326.26 65.8 325.1 67.2 324.18C68.6 323.22 70.18 322.44 71.94 321.84C73.7 321.24 75.44 320.68 77.16 320.16C79.08 319.6 80.68 319.02 81.96 318.42C83.24 317.82 84.26 317.16 85.02 316.44C85.82 315.72 86.38 314.92 86.7 314.04C87.06 313.16 87.24 312.14 87.24 310.98C87.24 308.06 86.42 305.88 84.78 304.44C83.14 302.96 80.76 302.22 77.64 302.22C71.68 302.22 68.42 304.96 67.86 310.44H61.8C62.36 305.92 63.96 302.46 66.6 300.06C69.28 297.62 72.92 296.4 77.52 296.4C79.92 296.4 82.08 296.74 84 297.42C85.92 298.1 87.54 299.08 88.86 300.36C90.22 301.6 91.26 303.14 91.98 304.98C92.74 306.78 93.12 308.82 93.12 311.1Z" fill="#349989"/>
<path d="M62.4 333.12V331.12H60.4V333.12H62.4ZM92.22 333.12H94.22V331.12H92.22V333.12ZM92.22 339V341H94.22V339H92.22ZM62.4 339H60.4V341H62.4V339ZM92.34 316.08L90.4589 315.401L90.4534 315.416L90.4481 315.431L92.34 316.08ZM89.82 319.86L88.4554 318.398L89.82 319.86ZM85.02 322.98L85.8698 324.79L85.8777 324.787L85.8855 324.783L85.02 322.98ZM77.7 325.74L78.2854 327.652L78.2932 327.65L78.301 327.648L77.7 325.74ZM72.96 327.48L72.1142 325.668L72.1023 325.673L72.0905 325.679L72.96 327.48ZM70.26 329.22L71.577 330.725L71.6028 330.703L71.6279 330.679L70.26 329.22ZM68.94 331.02L67.0673 330.318L67.0477 330.37L67.031 330.423L68.94 331.02ZM68.64 339V341H70.64V339H68.64ZM62.4 339H60.4V341H62.4V339ZM63.72 327.66L62.0486 326.562L62.0375 326.579L62.0267 326.596L63.72 327.66ZM67.2 324.18L68.2984 325.851L68.3148 325.841L68.3311 325.829L67.2 324.18ZM71.94 321.84L72.5853 323.733L72.5853 323.733L71.94 321.84ZM77.16 320.16L76.6 318.24L76.5906 318.243L76.5812 318.246L77.16 320.16ZM81.96 318.42L81.1111 316.609L81.1111 316.609L81.96 318.42ZM85.02 316.44L83.6821 314.953L83.6631 314.971L83.6445 314.988L85.02 316.44ZM86.7 314.04L84.8489 313.283L84.8339 313.319L84.8204 313.357L86.7 314.04ZM84.78 304.44L83.4401 305.925L83.4502 305.934L83.4604 305.943L84.78 304.44ZM67.86 310.44V312.44H69.666L69.8496 310.643L67.86 310.44ZM61.8 310.44L59.8152 310.194L59.5369 312.44H61.8V310.44ZM66.6 300.06L67.9453 301.54L67.9464 301.539L66.6 300.06ZM84 297.42L83.3323 299.305L83.3323 299.305L84 297.42ZM88.86 300.36L87.4677 301.796L87.4898 301.817L87.5125 301.838L88.86 300.36ZM91.98 304.98L90.1175 305.709L90.1272 305.734L90.1375 305.758L91.98 304.98ZM62.4 335.12H92.22V331.12H62.4V335.12ZM90.22 333.12V339H94.22V333.12H90.22ZM92.22 337H62.4V341H92.22V337ZM64.4 339V333.12H60.4V339H64.4ZM91.12 311.1C91.12 312.799 90.8846 314.222 90.4589 315.401L94.2211 316.759C94.8354 315.058 95.12 313.161 95.12 311.1H91.12ZM90.4481 315.431C90.0857 316.488 89.4422 317.477 88.4554 318.398L91.1846 321.322C92.5978 320.003 93.6343 318.472 94.2319 316.729L90.4481 315.431ZM88.4554 318.398C87.4452 319.341 86.0316 320.276 84.1545 321.177L85.8855 324.783C88.0084 323.764 89.7948 322.619 91.1846 321.322L88.4554 318.398ZM84.1702 321.17C82.3162 322.04 79.9657 322.929 77.099 323.832L78.301 327.648C81.2743 326.711 83.8038 325.76 85.8698 324.79L84.1702 321.17ZM77.1146 323.828C75.1081 324.442 73.4311 325.053 72.1142 325.668L73.8058 329.292C74.8889 328.787 76.3719 328.238 78.2854 327.652L77.1146 323.828ZM72.0905 325.679C70.8251 326.29 69.7316 326.974 68.8921 327.761L71.6279 330.679C72.0684 330.266 72.7749 329.79 73.8295 329.281L72.0905 325.679ZM68.943 327.715C68.114 328.44 67.4484 329.302 67.0673 330.318L70.8127 331.722C70.9116 331.458 71.126 331.12 71.577 330.725L68.943 327.715ZM67.031 330.423C66.7633 331.28 66.64 332.184 66.64 333.12H70.64C70.64 332.536 70.7167 332.04 70.849 331.617L67.031 330.423ZM66.64 333.12V339H70.64V333.12H66.64ZM68.64 337H62.4V341H68.64V337ZM64.4 339V333H60.4V339H64.4ZM64.4 333C64.4 331.103 64.7864 329.722 65.4133 328.724L62.0267 326.596C60.8936 328.398 60.4 330.577 60.4 333H64.4ZM65.3914 328.758C66.1615 327.586 67.1265 326.622 68.2984 325.851L66.1016 322.509C64.4735 323.578 63.1185 324.934 62.0486 326.562L65.3914 328.758ZM68.3311 325.829C69.5674 324.982 70.9813 324.28 72.5853 323.733L71.2947 319.947C69.3787 320.6 67.6326 321.458 66.0689 322.531L68.3311 325.829ZM72.5853 323.733C74.324 323.14 76.0418 322.587 77.7388 322.074L76.5812 318.246C74.8382 318.773 73.076 319.34 71.2947 319.947L72.5853 323.733ZM77.72 322.08C79.7019 321.502 81.4061 320.888 82.8089 320.231L81.1111 316.609C79.9539 317.152 78.4581 317.698 76.6 318.24L77.72 322.08ZM82.8089 320.231C84.2193 319.57 85.4366 318.8 86.3955 317.892L83.6445 314.988C83.0834 315.52 82.2607 316.07 81.1111 316.609L82.8089 320.231ZM86.3579 317.927C87.3649 317.02 88.1318 315.955 88.5796 314.723L84.8204 313.357C84.6282 313.885 84.2751 314.42 83.6821 314.953L86.3579 317.927ZM88.5511 314.797C89.0285 313.63 89.24 312.344 89.24 310.98H85.24C85.24 311.936 85.0915 312.69 84.8489 313.283L88.5511 314.797ZM89.24 310.98C89.24 307.689 88.3053 304.874 86.0996 302.937L83.4604 305.943C84.5347 306.886 85.24 308.431 85.24 310.98H89.24ZM86.1199 302.955C83.9852 301.029 81.0516 300.22 77.64 300.22V304.22C80.4684 304.22 82.2948 304.891 83.4401 305.925L86.1199 302.955ZM77.64 300.22C74.3754 300.22 71.5492 300.97 69.4382 302.744C67.3035 304.538 66.1871 307.137 65.8704 310.237L69.8496 310.643C70.0929 308.263 70.8865 306.752 72.0118 305.806C73.1608 304.84 74.9446 304.22 77.64 304.22V300.22ZM67.86 308.44H61.8V312.44H67.86V308.44ZM63.7848 310.686C64.3027 306.506 65.748 303.537 67.9453 301.54L65.2547 298.58C62.172 301.383 60.4173 305.334 59.8152 310.194L63.7848 310.686ZM67.9464 301.539C70.1669 299.517 73.2791 298.4 77.52 298.4V294.4C72.5609 294.4 68.3931 295.723 65.2536 298.581L67.9464 301.539ZM77.52 298.4C79.7321 298.4 81.6611 298.713 83.3323 299.305L84.6677 295.535C82.4989 294.767 80.1079 294.4 77.52 294.4V298.4ZM83.3323 299.305C85.0107 299.9 86.3754 300.737 87.4677 301.796L90.2523 298.924C88.7046 297.423 86.8293 296.3 84.6677 295.535L83.3323 299.305ZM87.5125 301.838C88.6292 302.856 89.501 304.133 90.1175 305.709L93.8425 304.251C93.019 302.147 91.8109 300.344 90.2075 298.882L87.5125 301.838ZM90.1375 305.758C90.7777 307.274 91.12 309.043 91.12 311.1H95.12C95.12 308.597 94.7023 306.286 93.8225 304.202L90.1375 305.758Z" fill="#349989" mask="url(#path-14-outside-2_655_312)"/>
<mask id="path-16-outside-3_655_312" maskUnits="userSpaceOnUse" x="294" y="314" width="36" height="48" fill="black">
<rect fill="white" x="294" y="314" width="36" height="48"/>
<path d="M312.64 353.78C315.52 353.78 317.78 353.28 319.42 352.28C321.1 351.28 321.94 349.88 321.94 348.08C321.94 346.48 321.32 345.34 320.08 344.66C318.88 343.94 316.84 343.58 313.96 343.58H311.14V337.76H313.96C319.28 337.76 321.94 335.28 321.94 330.32C321.94 324.96 318.78 322.28 312.46 322.28C309.66 322.28 307.42 322.98 305.74 324.38C304.1 325.78 303.12 327.8 302.8 330.44H296.8C297.36 326.04 299 322.62 301.72 320.18C304.44 317.7 307.98 316.46 312.34 316.46C317.02 316.46 320.68 317.66 323.32 320.06C325.96 322.46 327.28 325.78 327.28 330.02C327.28 332.18 326.92 334.12 326.2 335.84C325.52 337.52 324.54 338.94 323.26 340.1C325.94 341.9 327.28 344.62 327.28 348.26C327.28 351.78 325.96 354.56 323.32 356.6C320.72 358.6 317.14 359.6 312.58 359.6C308.06 359.6 304.44 358.4 301.72 356C299 353.6 297.36 350.12 296.8 345.56H302.8C303.48 351.04 306.76 353.78 312.64 353.78Z"/>
</mask>
<path d="M312.64 353.78C315.52 353.78 317.78 353.28 319.42 352.28C321.1 351.28 321.94 349.88 321.94 348.08C321.94 346.48 321.32 345.34 320.08 344.66C318.88 343.94 316.84 343.58 313.96 343.58H311.14V337.76H313.96C319.28 337.76 321.94 335.28 321.94 330.32C321.94 324.96 318.78 322.28 312.46 322.28C309.66 322.28 307.42 322.98 305.74 324.38C304.1 325.78 303.12 327.8 302.8 330.44H296.8C297.36 326.04 299 322.62 301.72 320.18C304.44 317.7 307.98 316.46 312.34 316.46C317.02 316.46 320.68 317.66 323.32 320.06C325.96 322.46 327.28 325.78 327.28 330.02C327.28 332.18 326.92 334.12 326.2 335.84C325.52 337.52 324.54 338.94 323.26 340.1C325.94 341.9 327.28 344.62 327.28 348.26C327.28 351.78 325.96 354.56 323.32 356.6C320.72 358.6 317.14 359.6 312.58 359.6C308.06 359.6 304.44 358.4 301.72 356C299 353.6 297.36 350.12 296.8 345.56H302.8C303.48 351.04 306.76 353.78 312.64 353.78Z" fill="#349989"/>
<path d="M319.42 352.28L318.397 350.561L318.388 350.567L318.379 350.572L319.42 352.28ZM320.08 344.66L319.051 346.375L319.084 346.395L319.118 346.414L320.08 344.66ZM311.14 343.58H309.14V345.58H311.14V343.58ZM311.14 337.76V335.76H309.14V337.76H311.14ZM305.74 324.38L304.46 322.844L304.451 322.851L304.441 322.859L305.74 324.38ZM302.8 330.44V332.44H304.572L304.785 330.681L302.8 330.44ZM296.8 330.44L294.816 330.187L294.529 332.44H296.8V330.44ZM301.72 320.18L303.056 321.669L303.062 321.663L303.068 321.658L301.72 320.18ZM326.2 335.84L324.355 335.068L324.351 335.079L324.346 335.09L326.2 335.84ZM323.26 340.1L321.917 338.618L320.023 340.335L322.145 341.76L323.26 340.1ZM323.32 356.6L324.539 358.185L324.543 358.183L323.32 356.6ZM301.72 356L300.397 357.5L300.397 357.5L301.72 356ZM296.8 345.56V343.56H294.539L294.815 345.804L296.8 345.56ZM302.8 345.56L304.785 345.314L304.567 343.56H302.8V345.56ZM312.64 355.78C315.717 355.78 318.388 355.252 320.461 353.988L318.379 350.572C317.172 351.308 315.323 351.78 312.64 351.78V355.78ZM320.443 353.999C322.666 352.676 323.94 350.656 323.94 348.08H319.94C319.94 349.104 319.534 349.884 318.397 350.561L320.443 353.999ZM323.94 348.08C323.94 345.866 323.018 343.99 321.042 342.906L319.118 346.414C319.622 346.69 319.94 347.094 319.94 348.08H323.94ZM321.109 342.945C319.411 341.926 316.893 341.58 313.96 341.58V345.58C316.787 345.58 318.349 345.954 319.051 346.375L321.109 342.945ZM313.96 341.58H311.14V345.58H313.96V341.58ZM313.14 343.58V337.76H309.14V343.58H313.14ZM311.14 339.76H313.96V335.76H311.14V339.76ZM313.96 339.76C316.895 339.76 319.468 339.079 321.309 337.363C323.176 335.622 323.94 333.146 323.94 330.32H319.94C319.94 332.454 319.374 333.698 318.581 334.437C317.762 335.201 316.345 335.76 313.96 335.76V339.76ZM323.94 330.32C323.94 327.238 323.016 324.59 320.864 322.765C318.774 320.993 315.855 320.28 312.46 320.28V324.28C315.385 324.28 317.206 324.907 318.276 325.815C319.284 326.67 319.94 328.042 319.94 330.32H323.94ZM312.46 320.28C309.326 320.28 306.59 321.068 304.46 322.844L307.02 325.916C308.25 324.892 309.994 324.28 312.46 324.28V320.28ZM304.441 322.859C302.336 324.656 301.18 327.183 300.815 330.199L304.785 330.681C305.06 328.417 305.864 326.904 307.039 325.901L304.441 322.859ZM302.8 328.44H296.8V332.44H302.8V328.44ZM298.784 330.693C299.297 326.663 300.766 323.723 303.056 321.669L300.384 318.691C297.234 321.517 295.423 325.417 294.816 330.187L298.784 330.693ZM303.068 321.658C305.353 319.574 308.381 318.46 312.34 318.46V314.46C307.579 314.46 303.527 315.826 300.372 318.702L303.068 321.658ZM312.34 318.46C316.681 318.46 319.806 319.568 321.975 321.54L324.665 318.58C321.554 315.752 317.359 314.46 312.34 314.46V318.46ZM321.975 321.54C324.119 323.489 325.28 326.228 325.28 330.02H329.28C329.28 325.332 327.801 321.431 324.665 318.58L321.975 321.54ZM325.28 330.02C325.28 331.956 324.958 333.628 324.355 335.068L328.045 336.612C328.882 334.612 329.28 332.404 329.28 330.02H325.28ZM324.346 335.09C323.773 336.504 322.963 337.67 321.917 338.618L324.603 341.582C326.117 340.21 327.267 338.536 328.054 336.59L324.346 335.09ZM322.145 341.76C324.194 343.137 325.28 345.187 325.28 348.26H329.28C329.28 344.053 327.686 340.663 324.375 338.44L322.145 341.76ZM325.28 348.26C325.28 351.2 324.216 353.38 322.097 355.017L324.543 358.183C327.704 355.74 329.28 352.36 329.28 348.26H325.28ZM322.101 355.015C319.964 356.658 316.868 357.6 312.58 357.6V361.6C317.412 361.6 321.476 360.542 324.539 358.185L322.101 355.015ZM312.58 357.6C308.423 357.6 305.314 356.504 303.043 354.5L300.397 357.5C303.566 360.296 307.697 361.6 312.58 361.6V357.6ZM303.043 354.5C300.78 352.503 299.302 349.524 298.785 345.316L294.815 345.804C295.418 350.716 297.22 354.697 300.397 357.5L303.043 354.5ZM296.8 347.56H302.8V343.56H296.8V347.56ZM300.815 345.806C301.199 348.897 302.355 351.479 304.488 353.26C306.602 355.026 309.407 355.78 312.64 355.78V351.78C309.993 351.78 308.218 351.164 307.052 350.19C305.905 349.231 305.081 347.703 304.785 345.314L300.815 345.806Z" fill="#349989" mask="url(#path-16-outside-3_655_312)"/>
</g>
<defs>
<linearGradient id="paint0_linear_655_312" x1="194.5" y1="200" x2="194.5" y2="395" gradientUnits="userSpaceOnUse">
<stop stop-color="#A9D4CD"/>
<stop offset="1" stop-color="white"/>
</linearGradient>
<clipPath id="clip0_655_312">
<path d="M0 0H390V355C390 377.091 372.091 395 350 395H40C17.9086 395 0 377.091 0 355V0Z" fill="white"/>
</clipPath>
</defs>
</svg>
