<svg width="351" height="179" viewBox="0 0 351 179" fill="none" xmlns="http://www.w3.org/2000/svg">
<g clip-path="url(#clip0_1252_430)">
<rect width="351" height="179" fill="#FFFFFA"/>
<path d="M176 87.4004C222.169 87.4004 259.6 125.051 259.6 171.5C259.6 217.949 222.169 255.6 176 255.6C129.831 255.6 92.4004 217.949 92.4004 171.5C92.4004 125.051 129.831 87.4004 176 87.4004Z" fill="#FFE400" stroke="black" stroke-width="0.8"/>
<path d="M77.3418 124.347L77.3945 124.605L77.6533 124.658L94.0039 128L77.6533 131.342L77.3945 131.395L77.3418 131.653L74 148.004L70.6582 131.653L70.6055 131.395L70.3467 131.342L53.9951 128L70.3467 124.658L70.6055 124.605L70.6582 124.347L74 107.995L77.3418 124.347Z" fill="#83DEFC" stroke="black" stroke-width="0.8"/>
<path d="M238.927 88.7617L238.979 89.0205L239.238 89.0732L256.004 92.5L239.238 95.9268L238.979 95.9795L238.927 96.2383L235.5 113.004L232.073 96.2383L232.021 95.9795L231.762 95.9268L214.995 92.5L231.762 89.0732L232.021 89.0205L232.073 88.7617L235.5 71.9951L238.927 88.7617Z" fill="#F5F5F5" stroke="black" stroke-width="0.8"/>
<path d="M283.814 135.874L283.867 136.133L284.126 136.186L293.003 138L284.126 139.814L283.867 139.867L283.814 140.126L282 149.003L280.186 140.126L280.133 139.867L279.874 139.814L270.996 138L279.874 136.186L280.133 136.133L280.186 135.874L282 126.996L283.814 135.874Z" fill="#FDFE70" stroke="black" stroke-width="0.8"/>
<mask id="path-5-inside-1_1252_430" fill="white">
<path d="M90.3691 150.39C97.5576 150.39 103.946 153.334 107.995 157.896C109.907 157.433 111.924 157.186 114.008 157.186C122.766 157.186 130.336 161.556 133.935 167.897C136.124 167.275 138.465 166.938 140.897 166.938C153.137 166.938 163.059 175.47 163.06 185.996C163.06 196.522 153.137 205.056 140.897 205.056C132.139 205.056 124.568 200.685 120.97 194.343C118.78 194.965 116.44 195.304 114.008 195.304C106.819 195.304 100.431 192.359 96.3818 187.797C94.4697 188.259 92.4532 188.508 90.3691 188.508C89.3416 188.508 88.3302 188.446 87.3398 188.329C86.4929 197.701 78.2515 205.056 68.207 205.056C57.5995 205.056 49.0002 196.853 49 186.735C49 176.617 57.5994 168.415 68.207 168.415C68.2174 168.415 68.2279 168.415 68.2383 168.415C68.8625 158.37 78.5327 150.39 90.3691 150.39Z"/>
</mask>
<path d="M90.3691 150.39C97.5576 150.39 103.946 153.334 107.995 157.896C109.907 157.433 111.924 157.186 114.008 157.186C122.766 157.186 130.336 161.556 133.935 167.897C136.124 167.275 138.465 166.938 140.897 166.938C153.137 166.938 163.059 175.47 163.06 185.996C163.06 196.522 153.137 205.056 140.897 205.056C132.139 205.056 124.568 200.685 120.97 194.343C118.78 194.965 116.44 195.304 114.008 195.304C106.819 195.304 100.431 192.359 96.3818 187.797C94.4697 188.259 92.4532 188.508 90.3691 188.508C89.3416 188.508 88.3302 188.446 87.3398 188.329C86.4929 197.701 78.2515 205.056 68.207 205.056C57.5995 205.056 49.0002 196.853 49 186.735C49 176.617 57.5994 168.415 68.207 168.415C68.2174 168.415 68.2279 168.415 68.2383 168.415C68.8625 158.37 78.5327 150.39 90.3691 150.39Z" fill="#F5F5F5"/>
<path d="M90.3691 150.39L90.3692 149.59H90.3691V150.39ZM107.995 157.896L107.397 158.427L107.716 158.786L108.183 158.673L107.995 157.896ZM114.008 157.186V156.386V157.186ZM133.935 167.897L133.239 168.292L133.549 168.839L134.153 168.667L133.935 167.897ZM140.897 166.938V166.137H140.897L140.897 166.938ZM163.06 185.996H163.86V185.996L163.06 185.996ZM140.897 205.056L140.897 205.856H140.897V205.056ZM120.97 194.343L121.666 193.948L121.355 193.401L120.751 193.573L120.97 194.343ZM114.008 195.304V196.104V195.304ZM96.3818 187.797L96.9802 187.266L96.661 186.906L96.1937 187.019L96.3818 187.797ZM90.3691 188.508V189.308H90.3692L90.3691 188.508ZM87.3398 188.329L87.4332 187.535L86.6171 187.439L86.5431 188.257L87.3398 188.329ZM68.207 205.056V205.856H68.207L68.207 205.056ZM49 186.735H48.2V186.735L49 186.735ZM68.207 168.415L68.207 167.615H68.207V168.415ZM68.2383 168.415L68.2371 169.215L68.99 169.216L69.0367 168.465L68.2383 168.415ZM90.3691 150.39L90.3691 151.19C97.3431 151.19 103.509 154.046 107.397 158.427L107.995 157.896L108.593 157.364C104.383 152.621 97.7721 149.59 90.3692 149.59L90.3691 150.39ZM107.995 157.896L108.183 158.673C110.034 158.226 111.987 157.986 114.008 157.986V157.186V156.386C111.861 156.386 109.781 156.641 107.807 157.118L107.995 157.896ZM114.008 157.186V157.986C122.51 157.986 129.797 162.228 133.239 168.292L133.935 167.897L134.63 167.503C130.874 160.883 123.021 156.386 114.008 156.386V157.186ZM133.935 167.897L134.153 168.667C136.272 168.064 138.539 167.738 140.897 167.737L140.897 166.938L140.897 166.137C138.391 166.138 135.977 166.485 133.716 167.128L133.935 167.897ZM140.897 166.938V167.737C152.813 167.737 162.259 176.021 162.26 185.996L163.06 185.996L163.86 185.996C163.859 174.919 153.461 166.137 140.897 166.137V166.938ZM163.06 185.996H162.26C162.26 195.971 152.813 204.256 140.897 204.256V205.056V205.856C153.461 205.856 163.86 197.073 163.86 185.996H163.06ZM140.897 205.056L140.897 204.256C132.395 204.256 125.107 200.013 121.666 193.948L120.97 194.343L120.274 194.738C124.03 201.357 131.883 205.856 140.897 205.856L140.897 205.056ZM120.97 194.343L120.751 193.573C118.632 194.176 116.366 194.504 114.008 194.504V195.304V196.104C116.514 196.104 118.928 195.755 121.189 195.112L120.97 194.343ZM114.008 195.304V194.504C107.033 194.504 100.868 191.647 96.9802 187.266L96.3818 187.797L95.7835 188.328C99.9936 193.072 106.604 196.104 114.008 196.104V195.304ZM96.3818 187.797L96.1937 187.019C94.343 187.467 92.3895 187.708 90.3691 187.708L90.3691 188.508L90.3692 189.308C92.5168 189.308 94.5965 189.052 96.5699 188.574L96.3818 187.797ZM90.3691 188.508V187.708C89.374 187.708 88.3937 187.647 87.4332 187.535L87.3398 188.329L87.2465 189.124C88.2667 189.244 89.3093 189.308 90.3691 189.308V188.508ZM87.3398 188.329L86.5431 188.257C85.7358 197.19 77.8651 204.256 68.207 204.256L68.207 205.056L68.207 205.856C78.6379 205.856 87.2499 198.212 88.1366 188.401L87.3398 188.329ZM68.207 205.056V204.256C58.0053 204.256 49.8002 196.376 49.8 186.735L49 186.735L48.2 186.735C48.2002 197.33 57.1937 205.856 68.207 205.856V205.056ZM49 186.735H49.8C49.8 177.094 58.0051 169.215 68.207 169.215V168.415V167.615C57.1936 167.615 48.2 176.14 48.2 186.735H49ZM68.207 168.415L68.207 169.215C68.2192 169.215 68.2274 169.215 68.2371 169.215L68.2383 168.415L68.2395 167.615C68.2284 167.615 68.2157 167.615 68.207 167.615L68.207 168.415ZM68.2383 168.415L69.0367 168.465C69.6288 158.938 78.8508 151.19 90.3691 151.19V150.39V149.59C78.2146 149.59 68.0963 157.801 67.4398 168.365L68.2383 168.415Z" fill="black" mask="url(#path-5-inside-1_1252_430)"/>
<path d="M261.653 151.4C273.328 151.401 282.764 159.17 283.372 168.83L283.396 169.206L283.771 169.205H283.803L284.289 169.211C294.467 169.454 302.599 177.303 302.6 186.902C302.6 196.654 294.207 204.6 283.803 204.6C273.954 204.599 265.903 197.476 265.076 188.443L265.039 188.035L264.632 188.083C263.658 188.196 262.664 188.254 261.653 188.254C259.602 188.254 257.618 188.014 255.737 187.564L255.506 187.509L255.347 187.686C251.381 192.102 245.106 194.968 238.026 194.968C235.632 194.968 233.329 194.64 231.176 194.035L230.876 193.95L230.721 194.221C227.203 200.346 219.778 204.6 211.15 204.6C199.075 204.6 189.4 196.291 189.4 186.173C189.4 176.054 199.075 167.746 211.15 167.746C213.544 167.746 215.847 168.074 218 168.679L218.3 168.763L218.455 168.493C221.972 162.368 229.399 158.113 238.026 158.113C240.077 158.113 242.061 158.354 243.941 158.804L244.173 158.858L244.332 158.682C248.298 154.265 254.574 151.4 261.653 151.4Z" fill="#F5F5F5" stroke="black" stroke-width="0.8"/>
<path d="M101.68 25.864V26.776H99.796V32.596H98.764V21.64H99.796V25.864H101.68ZM95.548 26.356C96.232 27.412 97.168 28.468 98.236 29.236L97.468 29.98C96.508 29.248 95.704 28.288 95.008 27.244C94.132 28.528 92.992 29.632 91.756 30.34L91.024 29.644C93.58 28.264 95.236 25.348 95.44 23.44C94.54 23.476 93.664 23.476 92.776 23.476H91.648V22.6H93.46C94.48 22.6 95.536 22.6 96.664 22.576C96.616 23.86 96.208 25.168 95.548 26.356ZM102.467 30.652C102.467 30.22 102.791 29.896 103.307 29.896C103.823 29.896 104.183 30.328 104.183 30.892C104.183 31.888 103.475 32.716 102.623 33.004L102.407 32.548C102.875 32.368 103.199 32.032 103.331 31.612C103.379 31.42 103.367 31.348 103.187 31.348C102.815 31.348 102.467 31.024 102.467 30.652ZM108.197 30.088H112.757V27.904C110.849 27.724 109.661 26.56 109.661 25.036C109.661 23.368 111.077 22.144 113.297 22.144C115.517 22.144 116.933 23.368 116.933 25.036C116.933 26.56 115.745 27.724 113.837 27.904V30.088H118.397V30.964H108.197V30.088ZM115.877 25.036C115.877 23.956 115.025 23.044 113.297 23.044C111.569 23.044 110.717 23.956 110.717 25.036C110.717 26.116 111.569 27.052 113.297 27.052C115.025 27.052 115.877 26.116 115.877 25.036ZM120.505 24.844V21.676H121.561V23.968H127.669V24.844H120.505ZM118.777 25.864H129.217V26.716H118.777V25.864ZM127.825 32.596H120.457V29.788H126.517V28.66H120.457V27.808H127.537V30.604H121.477V31.744H127.825V32.596ZM134.24 27.688H131.312V22.588H138.152V23.488H132.356V26.788H138.26V27.688H135.296V30.088H139.796V30.964H129.596V30.088H134.24V27.688ZM148.295 24.508H142.967V23.596H145.175V21.856H146.207V23.596H148.295V24.508ZM143.387 27.652C143.387 26.236 144.359 25.252 145.691 25.252C147.011 25.252 147.995 26.236 147.995 27.652C147.995 29.104 147.011 30.112 145.691 30.112C144.359 30.112 143.387 29.104 143.387 27.652ZM144.359 27.652C144.359 28.612 144.911 29.2 145.691 29.2C146.471 29.2 147.011 28.612 147.011 27.652C147.011 26.728 146.471 26.152 145.691 26.152C144.911 26.152 144.359 26.728 144.359 27.652ZM152.279 21.64V32.596H151.247V26.992H149.975V32.32H148.967V21.76H149.975V26.104H151.247V21.64H152.279ZM161.25 27.004V25H156.318V27.004H161.25ZM158.238 27.856H155.286V22.252H156.33V24.124H161.238V22.252H162.282V27.856H159.318V30.088H163.878V30.964H153.678V30.088H158.238V27.856ZM174.805 25.828V26.728H172.921V32.596H171.889V21.64H172.921V25.828H174.805ZM164.965 29.788V22.576H170.029V23.452H166.021V28.876H167.221C168.829 28.876 170.245 28.612 171.085 28.432V29.308C170.173 29.56 168.505 29.788 167.077 29.788H164.965ZM183.472 25.396V27.496H178.42V22.216H183.472V24.484H185.848V21.64H186.88V29.536H185.848V25.396H183.472ZM179.464 26.608H182.488V23.092H179.464V26.608ZM187.12 31.48V32.38H180.04V29.02H181.084V31.48H187.12ZM196.547 26.512H194.363V25.612H196.547V21.64H197.579V32.596H196.547V26.512ZM192.995 26.356C193.679 27.412 194.615 28.468 195.683 29.236L194.915 29.98C193.955 29.248 193.151 28.288 192.455 27.244C191.579 28.528 190.439 29.632 189.203 30.34L188.471 29.644C191.027 28.264 192.683 25.348 192.887 23.44C191.987 23.476 191.111 23.476 190.223 23.476H189.095V22.6H190.907C191.927 22.6 192.983 22.6 194.111 22.576C194.063 23.86 193.655 25.168 192.995 26.356ZM203.438 25.588V21.94H210.362V22.84H204.494V24.724H210.434V25.588H203.438ZM201.722 26.752H212.162V27.64H201.722V26.752ZM210.674 30.592C210.674 31.792 209.414 32.692 206.966 32.692C204.506 32.692 203.234 31.792 203.234 30.592C203.234 29.404 204.506 28.564 206.966 28.564C209.414 28.564 210.674 29.404 210.674 30.592ZM209.558 30.592C209.558 29.992 208.934 29.368 206.966 29.368C204.986 29.368 204.362 29.992 204.362 30.592C204.362 31.204 204.986 31.828 206.966 31.828C208.934 31.828 209.558 31.204 209.558 30.592ZM213.813 23.152H212.781V22.264H218.769V23.152H217.761L217.665 26.68C218.349 26.632 219.009 26.548 219.621 26.404V27.244C218.649 27.52 217.317 27.604 216.021 27.604H212.553V26.74H213.897L213.813 23.152ZM222.873 24.616V25.528H221.145V29.68H220.113V21.64H221.145V24.616H222.873ZM221.325 31.48V32.38H214.545V29.116H215.589V31.48H221.325ZM216.669 26.728L216.765 23.152H214.809L214.893 26.74H216.333C216.441 26.74 216.561 26.74 216.669 26.728ZM229.84 23.632H223.204V22.768H225.964V21.484H227.044V22.768H229.84V23.632ZM226.492 27.7C224.704 27.7 223.876 26.8 223.876 25.876C223.876 24.952 224.752 24.088 226.492 24.088C228.232 24.088 229.108 24.952 229.108 25.876C229.108 26.8 228.256 27.7 226.492 27.7ZM226.492 26.908C227.536 26.908 228.052 26.416 228.052 25.9C228.052 25.372 227.56 24.868 226.492 24.868C225.4 24.868 224.932 25.384 224.932 25.9C224.932 26.416 225.448 26.908 226.492 26.908ZM233.572 24.508V25.42H231.844V27.892H230.812V21.64H231.844V24.508H233.572ZM231.844 28.516V32.428H225.076V28.6H226.108V29.62H230.824V28.516H231.844ZM226.096 31.588H230.824V30.448H226.096V31.588ZM242.028 32.596V21.64H243.06V32.596H242.028ZM237.336 29.44H234.648V22.432H235.716V28.516H237.48C239.088 28.516 240.504 28.252 241.344 28.06V28.96C240.432 29.2 238.764 29.44 237.336 29.44ZM255.067 25.828V26.728H253.183V32.596H252.151V21.64H253.183V25.828H255.067ZM245.227 29.788V22.576H250.291V23.452H246.283V28.876H247.483C249.091 28.876 250.507 28.612 251.347 28.432V29.308C250.435 29.56 248.767 29.788 247.339 29.788H245.227ZM256.958 28.864L256.766 22.144H258.05L257.81 28.864H256.958ZM257.402 30.064C257.882 30.064 258.218 30.4 258.218 30.868C258.218 31.336 257.882 31.672 257.402 31.672C256.922 31.672 256.586 31.336 256.586 30.868C256.586 30.4 256.922 30.064 257.402 30.064Z" fill="black"/>
<path d="M76.9883 56.3633V39.2344H80.8945V45.9922H82.6523V49.2734H80.8945V56.3633H76.9883ZM64.8789 43.9414V40.6211H68.4922V38.9414H72.3984V40.6211H75.9922V43.9414H74.4297C75.1719 45.0938 75.3867 46.8711 75.3867 49.332C75.3867 53.4336 74.1562 55.9531 70.4453 55.9531C66.7344 55.9531 65.5039 53.4336 65.5039 49.332C65.5039 46.8711 65.7188 45.0938 66.4609 43.9414H64.8789ZM69.3906 48.5898C69.3906 51.793 69.7812 52.5547 70.4453 52.5547C71.1094 52.5547 71.5 51.793 71.5 48.5898C71.5 45.3867 71.1094 44.6445 70.4453 44.6445C69.7812 44.6445 69.3906 45.3867 69.3906 48.5898ZM96.1289 56.3633V39.2344H100.035V56.3633H96.1289ZM84.2148 51.793V43.5898C84.2148 40.8164 86.0312 39.4297 89.2148 39.4297C92.3984 39.4297 94.2148 40.8164 94.2148 43.5898V51.793C94.2148 54.5859 92.3984 55.9531 89.2148 55.9531C86.0312 55.9531 84.2148 54.5859 84.2148 51.793ZM88.1211 51.0703C88.1211 52.0469 88.5312 52.5352 89.293 52.5352C90.0352 52.5352 90.4648 52.0469 90.4648 51.0703V44.3125C90.4648 43.3359 90.0352 42.8477 89.293 42.8477C88.5312 42.8477 88.1211 43.3359 88.1211 44.3125V51.0703ZM107.008 55.0547C107.652 53.4922 108.141 51.6172 108.414 49.4883H102.574V46.168H108.648V45.6602V42.9453H102.77V39.625H112.555V44.6836V45.0156H114.879V39.2344H118.785V56.3633H114.879V48.2969H112.438C112.242 51.168 111.773 53.6875 110.914 55.875L107.008 55.0547ZM121.129 53.1406H138.121V56.4609H121.129V53.1406ZM121.598 50.3672V46.7734C124.957 46.4414 127.301 45.1328 127.301 42.5547V39.4688H131.402V42.0859C131.402 42.4961 131.363 42.9258 131.305 43.3164C132.242 44.957 135.211 46.3242 137.848 46.7344L137.34 50.2891C133.727 49.7422 131.559 48.6484 129.82 46.793C128.238 48.8242 125.465 50.2109 121.598 50.3672Z" fill="black"/>
<mask id="path-10-outside-2_1252_430" maskUnits="userSpaceOnUse" x="144" y="38" width="82" height="20" fill="black">
<rect fill="white" x="144" y="38" width="82" height="20"/>
<path d="M158.77 56.3633V48.4922H157.578V56.2852H154.453V39.3125H157.578V45.2109H158.77V39.2344H162.285V56.3633H158.77ZM145.43 55.8359V52.0469C146.875 51.9688 148.047 50.6211 148.047 45.875V39.4688H151.562V45.4062C151.562 45.9727 151.543 46.5195 151.504 47.0469C151.914 50.0742 153.066 51.8125 154.375 52.1055L153.594 55.7578C152.051 55.582 150.898 54.5664 150.059 52.5352C149.023 54.4688 147.441 55.6602 145.43 55.8359ZM174.98 48.4141C173.359 48.9609 171.758 49.2539 170.098 49.2539C168.438 49.2539 166.836 48.9609 165.215 48.4141V39.625H169.121V41.2461H171.27V39.625H174.98V48.4141ZM166.172 53.8828V50.5625H181.035V53.2969C181.035 54.5859 180.957 55.6016 180.723 56.5586L176.895 56.3633C177.051 55.6016 177.129 54.8008 177.129 53.8828H166.172ZM169.121 45.9141C169.492 46.0508 169.824 46.1094 170.195 46.1094C170.566 46.1094 170.898 46.0508 171.27 45.9141V44.1758H169.121V45.9141ZM175.391 47.7305V44.8398H177.129V43.2969H175.391V40.4062H177.129V39.2344H181.035V49.5469H177.129V47.7305H175.391ZM188.066 49.4102V46.3242H205.059V49.4102H188.066ZM188.652 43.0039C188.652 42.6328 188.73 42.2617 188.828 41.9883H188.652V39.2344H204.277V41.9883H192.578C192.559 42.0664 192.559 42.1641 192.559 42.2617C192.559 42.7305 193.477 42.8672 197.52 42.8672C199.805 42.8672 202.148 42.7891 204.277 42.6523V45.3086C202.148 45.4453 199.375 45.5234 196.738 45.5234C190.84 45.5234 188.652 44.6641 188.652 43.0039ZM188.691 53.4141C188.691 51.0508 190.352 50.2695 193.184 50.2695H199.941C202.773 50.2695 204.434 51.0508 204.434 53.4141C204.434 55.7773 202.812 56.5586 199.941 56.5586H193.184C190.312 56.5586 188.691 55.7773 188.691 53.4141ZM192.793 53.3945C192.793 53.6875 193.027 53.8047 193.496 53.8047H199.629C200.098 53.8047 200.332 53.6875 200.332 53.3945C200.332 53.1016 200.098 52.9844 199.629 52.9844H193.496C193.027 52.9844 192.793 53.1016 192.793 53.3945ZM215.527 56.5586C209.844 56.5586 207.93 55.3281 207.93 52.9844V49.9375H211.836V52.3789C211.836 53.0234 212.324 53.3359 215.527 53.3359C218.652 53.3359 220.898 53.1016 222.93 52.6719V55.8945C220.996 56.2461 218.242 56.5586 215.527 56.5586ZM206.367 49.7812V46.0898C208.516 45.875 209.863 44.6445 209.863 42.1836V39.4688H213.77V41.6953C213.77 42.0859 213.75 42.4766 213.711 42.8672C214.316 44.6641 216.465 46.168 218.359 46.6172L216.484 49.7031C214.648 49.1562 213.32 48.1797 212.266 46.6953C211.016 48.4727 209.004 49.6445 206.367 49.7812ZM218.926 50.8945V39.2344H222.832V42.4766H224.59V45.7578H222.832V50.8945H218.926Z"/>
</mask>
<path d="M158.77 56.3633V48.4922H157.578V56.2852H154.453V39.3125H157.578V45.2109H158.77V39.2344H162.285V56.3633H158.77ZM145.43 55.8359V52.0469C146.875 51.9688 148.047 50.6211 148.047 45.875V39.4688H151.562V45.4062C151.562 45.9727 151.543 46.5195 151.504 47.0469C151.914 50.0742 153.066 51.8125 154.375 52.1055L153.594 55.7578C152.051 55.582 150.898 54.5664 150.059 52.5352C149.023 54.4688 147.441 55.6602 145.43 55.8359ZM174.98 48.4141C173.359 48.9609 171.758 49.2539 170.098 49.2539C168.438 49.2539 166.836 48.9609 165.215 48.4141V39.625H169.121V41.2461H171.27V39.625H174.98V48.4141ZM166.172 53.8828V50.5625H181.035V53.2969C181.035 54.5859 180.957 55.6016 180.723 56.5586L176.895 56.3633C177.051 55.6016 177.129 54.8008 177.129 53.8828H166.172ZM169.121 45.9141C169.492 46.0508 169.824 46.1094 170.195 46.1094C170.566 46.1094 170.898 46.0508 171.27 45.9141V44.1758H169.121V45.9141ZM175.391 47.7305V44.8398H177.129V43.2969H175.391V40.4062H177.129V39.2344H181.035V49.5469H177.129V47.7305H175.391ZM188.066 49.4102V46.3242H205.059V49.4102H188.066ZM188.652 43.0039C188.652 42.6328 188.73 42.2617 188.828 41.9883H188.652V39.2344H204.277V41.9883H192.578C192.559 42.0664 192.559 42.1641 192.559 42.2617C192.559 42.7305 193.477 42.8672 197.52 42.8672C199.805 42.8672 202.148 42.7891 204.277 42.6523V45.3086C202.148 45.4453 199.375 45.5234 196.738 45.5234C190.84 45.5234 188.652 44.6641 188.652 43.0039ZM188.691 53.4141C188.691 51.0508 190.352 50.2695 193.184 50.2695H199.941C202.773 50.2695 204.434 51.0508 204.434 53.4141C204.434 55.7773 202.812 56.5586 199.941 56.5586H193.184C190.312 56.5586 188.691 55.7773 188.691 53.4141ZM192.793 53.3945C192.793 53.6875 193.027 53.8047 193.496 53.8047H199.629C200.098 53.8047 200.332 53.6875 200.332 53.3945C200.332 53.1016 200.098 52.9844 199.629 52.9844H193.496C193.027 52.9844 192.793 53.1016 192.793 53.3945ZM215.527 56.5586C209.844 56.5586 207.93 55.3281 207.93 52.9844V49.9375H211.836V52.3789C211.836 53.0234 212.324 53.3359 215.527 53.3359C218.652 53.3359 220.898 53.1016 222.93 52.6719V55.8945C220.996 56.2461 218.242 56.5586 215.527 56.5586ZM206.367 49.7812V46.0898C208.516 45.875 209.863 44.6445 209.863 42.1836V39.4688H213.77V41.6953C213.77 42.0859 213.75 42.4766 213.711 42.8672C214.316 44.6641 216.465 46.168 218.359 46.6172L216.484 49.7031C214.648 49.1562 213.32 48.1797 212.266 46.6953C211.016 48.4727 209.004 49.6445 206.367 49.7812ZM218.926 50.8945V39.2344H222.832V42.4766H224.59V45.7578H222.832V50.8945H218.926Z" fill="#FFE400"/>
<path d="M158.77 56.3633H157.97V57.1633H158.77V56.3633ZM158.77 48.4922H159.57V47.6922H158.77V48.4922ZM157.578 48.4922V47.6922H156.778V48.4922H157.578ZM157.578 56.2852V57.0852H158.378V56.2852H157.578ZM154.453 56.2852H153.653V57.0852H154.453V56.2852ZM154.453 39.3125V38.5125H153.653V39.3125H154.453ZM157.578 39.3125H158.378V38.5125H157.578V39.3125ZM157.578 45.2109H156.778V46.0109H157.578V45.2109ZM158.77 45.2109V46.0109H159.57V45.2109H158.77ZM158.77 39.2344V38.4344H157.97V39.2344H158.77ZM162.285 39.2344H163.085V38.4344H162.285V39.2344ZM162.285 56.3633V57.1633H163.085V56.3633H162.285ZM145.43 55.8359H144.63V56.7089L145.499 56.6329L145.43 55.8359ZM145.43 52.0469L145.387 51.248L144.63 51.2889V52.0469H145.43ZM148.047 39.4688V38.6687H147.247V39.4688H148.047ZM151.562 39.4688H152.363V38.6687H151.562V39.4688ZM151.504 47.0469L150.706 46.9878L150.7 47.0713L150.711 47.1543L151.504 47.0469ZM154.375 52.1055L155.157 52.2728L155.323 51.4979L154.55 51.3248L154.375 52.1055ZM153.594 55.7578L153.503 56.5527L154.224 56.6348L154.376 55.9251L153.594 55.7578ZM150.059 52.5352L150.798 52.2295L150.152 50.6664L149.353 52.1576L150.059 52.5352ZM158.77 56.3633H159.57V48.4922H158.77H157.97V56.3633H158.77ZM158.77 48.4922V47.6922H157.578V48.4922V49.2922H158.77V48.4922ZM157.578 48.4922H156.778V56.2852H157.578H158.378V48.4922H157.578ZM157.578 56.2852V55.4852H154.453V56.2852V57.0852H157.578V56.2852ZM154.453 56.2852H155.253V39.3125H154.453H153.653V56.2852H154.453ZM154.453 39.3125V40.1125H157.578V39.3125V38.5125H154.453V39.3125ZM157.578 39.3125H156.778V45.2109H157.578H158.378V39.3125H157.578ZM157.578 45.2109V46.0109H158.77V45.2109V44.4109H157.578V45.2109ZM158.77 45.2109H159.57V39.2344H158.77H157.97V45.2109H158.77ZM158.77 39.2344V40.0344H162.285V39.2344V38.4344H158.77V39.2344ZM162.285 39.2344H161.485V56.3633H162.285H163.085V39.2344H162.285ZM162.285 56.3633V55.5633H158.77V56.3633V57.1633H162.285V56.3633ZM145.43 55.8359H146.23V52.0469H145.43H144.63V55.8359H145.43ZM145.43 52.0469L145.473 52.8457C145.957 52.8195 146.446 52.684 146.896 52.3799C147.344 52.0775 147.709 51.6383 147.995 51.0714C148.553 49.9626 148.847 48.2875 148.847 45.875H148.047H147.247C147.247 48.2086 146.954 49.5804 146.566 50.3514C146.378 50.7245 146.179 50.9334 146.001 51.054C145.825 51.1729 145.625 51.2351 145.387 51.248L145.43 52.0469ZM148.047 45.875H148.847V39.4688H148.047H147.247V45.875H148.047ZM148.047 39.4688V40.2687H151.562V39.4688V38.6687H148.047V39.4688ZM151.562 39.4688H150.762V45.4062H151.562H152.363V39.4688H151.562ZM151.562 45.4062H150.762C150.762 45.9543 150.744 46.4814 150.706 46.9878L151.504 47.0469L152.302 47.106C152.342 46.5576 152.363 45.991 152.363 45.4062H151.562ZM151.504 47.0469L150.711 47.1543C150.926 48.7386 151.341 50.041 151.914 51.0091C152.483 51.9708 153.256 52.6747 154.2 52.8861L154.375 52.1055L154.55 51.3248C154.185 51.2432 153.728 50.9315 153.291 50.194C152.858 49.4629 152.492 48.3825 152.297 46.9395L151.504 47.0469ZM154.375 52.1055L153.593 51.9381L152.811 55.5905L153.594 55.7578L154.376 55.9251L155.157 52.2728L154.375 52.1055ZM153.594 55.7578L153.684 54.963C152.532 54.8316 151.572 54.1012 150.798 52.2295L150.059 52.5352L149.319 52.8408C150.225 55.0316 151.57 56.3324 153.503 56.5527L153.594 55.7578ZM150.059 52.5352L149.353 52.1576C148.42 53.9008 147.053 54.8911 145.36 55.039L145.43 55.8359L145.499 56.6329C147.83 56.4293 149.627 55.0367 150.764 52.9127L150.059 52.5352ZM174.98 48.4141L175.236 49.1721L175.78 48.9885V48.4141H174.98ZM165.215 48.4141H164.415V48.9885L164.959 49.1721L165.215 48.4141ZM165.215 39.625V38.825H164.415V39.625H165.215ZM169.121 39.625H169.921V38.825H169.121V39.625ZM169.121 41.2461H168.321V42.0461H169.121V41.2461ZM171.27 41.2461V42.0461H172.07V41.2461H171.27ZM171.27 39.625V38.825H170.47V39.625H171.27ZM174.98 39.625H175.78V38.825H174.98V39.625ZM166.172 53.8828H165.372V54.6828H166.172V53.8828ZM166.172 50.5625V49.7625H165.372V50.5625H166.172ZM181.035 50.5625H181.835V49.7625H181.035V50.5625ZM180.723 56.5586L180.682 57.3576L181.342 57.3913L181.5 56.7489L180.723 56.5586ZM176.895 56.3633L176.111 56.2025L175.924 57.1148L176.854 57.1622L176.895 56.3633ZM177.129 53.8828H177.929V53.0828H177.129V53.8828ZM169.121 45.9141H168.321V46.4719L168.845 46.6647L169.121 45.9141ZM171.27 45.9141L171.546 46.6647L172.07 46.4719V45.9141H171.27ZM171.27 44.1758H172.07V43.3758H171.27V44.1758ZM169.121 44.1758V43.3758H168.321V44.1758H169.121ZM175.391 47.7305H174.591V48.5305H175.391V47.7305ZM175.391 44.8398V44.0398H174.591V44.8398H175.391ZM177.129 44.8398V45.6398H177.929V44.8398H177.129ZM177.129 43.2969H177.929V42.4969H177.129V43.2969ZM175.391 43.2969H174.591V44.0969H175.391V43.2969ZM175.391 40.4062V39.6062H174.591V40.4062H175.391ZM177.129 40.4062V41.2062H177.929V40.4062H177.129ZM177.129 39.2344V38.4344H176.329V39.2344H177.129ZM181.035 39.2344H181.835V38.4344H181.035V39.2344ZM181.035 49.5469V50.3469H181.835V49.5469H181.035ZM177.129 49.5469H176.329V50.3469H177.129V49.5469ZM177.129 47.7305H177.929V46.9305H177.129V47.7305ZM174.98 48.4141L174.725 47.656C173.175 48.1788 171.66 48.4539 170.098 48.4539V49.2539V50.0539C171.856 50.0539 173.544 49.7431 175.236 49.1721L174.98 48.4141ZM170.098 49.2539V48.4539C168.535 48.4539 167.02 48.1788 165.471 47.656L165.215 48.4141L164.959 49.1721C166.652 49.7431 168.34 50.0539 170.098 50.0539V49.2539ZM165.215 48.4141H166.015V39.625H165.215H164.415V48.4141H165.215ZM165.215 39.625V40.425H169.121V39.625V38.825H165.215V39.625ZM169.121 39.625H168.321V41.2461H169.121H169.921V39.625H169.121ZM169.121 41.2461V42.0461H171.27V41.2461V40.4461H169.121V41.2461ZM171.27 41.2461H172.07V39.625H171.27H170.47V41.2461H171.27ZM171.27 39.625V40.425H174.98V39.625V38.825H171.27V39.625ZM174.98 39.625H174.18V48.4141H174.98H175.78V39.625H174.98ZM166.172 53.8828H166.972V50.5625H166.172H165.372V53.8828H166.172ZM166.172 50.5625V51.3625H181.035V50.5625V49.7625H166.172V50.5625ZM181.035 50.5625H180.235V53.2969H181.035H181.835V50.5625H181.035ZM181.035 53.2969H180.235C180.235 54.5567 180.158 55.5002 179.946 56.3683L180.723 56.5586L181.5 56.7489C181.756 55.7029 181.835 54.6151 181.835 53.2969H181.035ZM180.723 56.5586L180.763 55.7596L176.935 55.5643L176.895 56.3633L176.854 57.1622L180.682 57.3576L180.723 56.5586ZM176.895 56.3633L177.678 56.524C177.847 55.7031 177.929 54.8479 177.929 53.8828H177.129H176.329C176.329 54.7536 176.255 55.5 176.111 56.2025L176.895 56.3633ZM177.129 53.8828V53.0828H166.172V53.8828V54.6828H177.129V53.8828ZM169.121 45.9141L168.845 46.6647C169.302 46.8333 169.728 46.9094 170.195 46.9094V46.1094V45.3094C169.921 45.3094 169.682 45.2683 169.398 45.1634L169.121 45.9141ZM170.195 46.1094V46.9094C170.663 46.9094 171.089 46.8333 171.546 46.6647L171.27 45.9141L170.993 45.1634C170.708 45.2683 170.47 45.3094 170.195 45.3094V46.1094ZM171.27 45.9141H172.07V44.1758H171.27H170.47V45.9141H171.27ZM171.27 44.1758V43.3758H169.121V44.1758V44.9758H171.27V44.1758ZM169.121 44.1758H168.321V45.9141H169.121H169.921V44.1758H169.121ZM175.391 47.7305H176.191V44.8398H175.391H174.591V47.7305H175.391ZM175.391 44.8398V45.6398H177.129V44.8398V44.0398H175.391V44.8398ZM177.129 44.8398H177.929V43.2969H177.129H176.329V44.8398H177.129ZM177.129 43.2969V42.4969H175.391V43.2969V44.0969H177.129V43.2969ZM175.391 43.2969H176.191V40.4062H175.391H174.591V43.2969H175.391ZM175.391 40.4062V41.2062H177.129V40.4062V39.6062H175.391V40.4062ZM177.129 40.4062H177.929V39.2344H177.129H176.329V40.4062H177.129ZM177.129 39.2344V40.0344H181.035V39.2344V38.4344H177.129V39.2344ZM181.035 39.2344H180.235V49.5469H181.035H181.835V39.2344H181.035ZM181.035 49.5469V48.7469H177.129V49.5469V50.3469H181.035V49.5469ZM177.129 49.5469H177.929V47.7305H177.129H176.329V49.5469H177.129ZM177.129 47.7305V46.9305H175.391V47.7305V48.5305H177.129V47.7305ZM188.066 49.4102H187.266V50.2102H188.066V49.4102ZM188.066 46.3242V45.5242H187.266V46.3242H188.066ZM205.059 46.3242H205.859V45.5242H205.059V46.3242ZM205.059 49.4102V50.2102H205.859V49.4102H205.059ZM188.828 41.9883L189.582 42.2574L189.963 41.1883H188.828V41.9883ZM188.652 41.9883H187.852V42.7883H188.652V41.9883ZM188.652 39.2344V38.4344H187.852V39.2344H188.652ZM204.277 39.2344H205.077V38.4344H204.277V39.2344ZM204.277 41.9883V42.7883H205.077V41.9883H204.277ZM192.578 41.9883V41.1883H191.954L191.802 41.7943L192.578 41.9883ZM204.277 42.6523H205.077V41.7993L204.226 41.854L204.277 42.6523ZM204.277 45.3086L204.329 46.1069L205.077 46.0589V45.3086H204.277ZM188.066 49.4102H188.866V46.3242H188.066H187.266V49.4102H188.066ZM188.066 46.3242V47.1242H205.059V46.3242V45.5242H188.066V46.3242ZM205.059 46.3242H204.259V49.4102H205.059H205.859V46.3242H205.059ZM205.059 49.4102V48.6102H188.066V49.4102V50.2102H205.059V49.4102ZM188.652 43.0039H189.452C189.452 42.7346 189.511 42.4545 189.582 42.2574L188.828 41.9883L188.075 41.7192C187.95 42.069 187.852 42.531 187.852 43.0039H188.652ZM188.828 41.9883V41.1883H188.652V41.9883V42.7883H188.828V41.9883ZM188.652 41.9883H189.452V39.2344H188.652H187.852V41.9883H188.652ZM188.652 39.2344V40.0344H204.277V39.2344V38.4344H188.652V39.2344ZM204.277 39.2344H203.477V41.9883H204.277H205.077V39.2344H204.277ZM204.277 41.9883V41.1883H192.578V41.9883V42.7883H204.277V41.9883ZM192.578 41.9883L191.802 41.7943C191.754 41.988 191.759 42.195 191.759 42.2617H192.559H193.359C193.359 42.2364 193.359 42.2171 193.359 42.1989C193.359 42.1811 193.359 42.1687 193.36 42.1597C193.36 42.1507 193.361 42.1483 193.36 42.1508C193.36 42.1532 193.359 42.1646 193.354 42.1823L192.578 41.9883ZM192.559 42.2617H191.759C191.759 42.4604 191.81 42.6747 191.944 42.8717C192.071 43.0589 192.239 43.1808 192.392 43.2616C192.676 43.4116 193.039 43.4855 193.423 43.5339C194.216 43.6341 195.507 43.6672 197.52 43.6672V42.8672V42.0672C195.489 42.0672 194.299 42.0319 193.623 41.9465C193.459 41.9258 193.34 41.9038 193.254 41.8827C193.167 41.861 193.136 41.8453 193.139 41.8465C193.143 41.8486 193.207 41.883 193.268 41.9729C193.336 42.0727 193.359 42.1803 193.359 42.2617H192.559ZM197.52 42.8672V43.6672C199.822 43.6672 202.183 43.5885 204.329 43.4507L204.277 42.6523L204.226 41.854C202.114 41.9896 199.787 42.0672 197.52 42.0672V42.8672ZM204.277 42.6523H203.477V45.3086H204.277H205.077V42.6523H204.277ZM204.277 45.3086L204.226 44.5102C202.118 44.6456 199.362 44.7234 196.738 44.7234V45.5234V46.3234C199.388 46.3234 202.179 46.245 204.329 46.1069L204.277 45.3086ZM196.738 45.5234V44.7234C193.803 44.7234 191.889 44.5065 190.733 44.1263C190.16 43.9378 189.839 43.7299 189.667 43.548C189.515 43.3876 189.452 43.2215 189.452 43.0039H188.652H187.852C187.852 43.6164 188.063 44.1802 188.505 44.6479C188.928 45.0941 189.522 45.4123 190.233 45.6462C191.646 46.1107 193.776 46.3234 196.738 46.3234V45.5234ZM188.691 53.4141H189.491C189.491 52.4506 189.81 51.9464 190.306 51.63C190.877 51.2657 191.808 51.0695 193.184 51.0695V50.2695V49.4695C191.727 49.4695 190.412 49.664 189.445 50.2812C188.403 50.9462 187.891 52.0143 187.891 53.4141H188.691ZM193.184 50.2695V51.0695H199.941V50.2695V49.4695H193.184V50.2695ZM199.941 50.2695V51.0695C201.317 51.0695 202.248 51.2657 202.819 51.63C203.315 51.9464 203.634 52.4506 203.634 53.4141H204.434H205.234C205.234 52.0143 204.722 50.9462 203.68 50.2812C202.713 49.664 201.398 49.4695 199.941 49.4695V50.2695ZM204.434 53.4141H203.634C203.634 54.3844 203.32 54.8861 202.832 55.1994C202.268 55.5617 201.339 55.7586 199.941 55.7586V56.5586V57.3586C201.415 57.3586 202.732 57.1648 203.696 56.5457C204.737 55.8776 205.234 54.807 205.234 53.4141H204.434ZM199.941 56.5586V55.7586H193.184V56.5586V57.3586H199.941V56.5586ZM193.184 56.5586V55.7586C191.786 55.7586 190.857 55.5617 190.293 55.1994C189.805 54.8861 189.491 54.3844 189.491 53.4141H188.691H187.891C187.891 54.807 188.388 55.8776 189.429 56.5457C190.393 57.1648 191.71 57.3586 193.184 57.3586V56.5586ZM192.793 53.3945H191.993C191.993 53.5754 192.03 53.7787 192.139 53.9738C192.25 54.1717 192.409 54.3125 192.577 54.4067C192.879 54.577 193.227 54.6047 193.496 54.6047V53.8047V53.0047C193.409 53.0047 193.356 52.999 193.328 52.9941C193.298 52.9888 193.318 52.9879 193.361 53.0122C193.411 53.0405 193.482 53.0971 193.535 53.1906C193.585 53.2813 193.593 53.3601 193.593 53.3945H192.793ZM193.496 53.8047V54.6047H199.629V53.8047V53.0047H193.496V53.8047ZM199.629 53.8047V54.6047C199.898 54.6047 200.246 54.577 200.548 54.4067C200.716 54.3125 200.875 54.1717 200.986 53.9738C201.095 53.7787 201.132 53.5754 201.132 53.3945H200.332H199.532C199.532 53.3601 199.54 53.2813 199.59 53.1906C199.643 53.0971 199.714 53.0405 199.764 53.0122C199.807 52.9879 199.827 52.9888 199.797 52.9941C199.769 52.999 199.716 53.0047 199.629 53.0047V53.8047ZM200.332 53.3945H201.132C201.132 53.2136 201.095 53.0103 200.986 52.8152C200.875 52.6174 200.716 52.4766 200.548 52.3823C200.246 52.2121 199.898 52.1844 199.629 52.1844V52.9844V53.7844C199.716 53.7844 199.769 53.79 199.797 53.795C199.827 53.8003 199.807 53.8012 199.764 53.7769C199.714 53.7485 199.643 53.692 199.59 53.5985C199.54 53.5077 199.532 53.429 199.532 53.3945H200.332ZM199.629 52.9844V52.1844H193.496V52.9844V53.7844H199.629V52.9844ZM193.496 52.9844V52.1844C193.227 52.1844 192.879 52.2121 192.577 52.3823C192.409 52.4766 192.25 52.6174 192.139 52.8152C192.03 53.0103 191.993 53.2136 191.993 53.3945H192.793H193.593C193.593 53.429 193.585 53.5077 193.535 53.5985C193.482 53.692 193.411 53.7485 193.361 53.7769C193.318 53.8012 193.298 53.8003 193.328 53.795C193.356 53.79 193.409 53.7844 193.496 53.7844V52.9844ZM207.93 49.9375V49.1375H207.13V49.9375H207.93ZM211.836 49.9375H212.636V49.1375H211.836V49.9375ZM222.93 52.6719H223.73V51.6849L222.764 51.8892L222.93 52.6719ZM222.93 55.8945L223.073 56.6816L223.73 56.5622V55.8945H222.93ZM206.367 49.7812H205.567V50.6238L206.409 50.5802L206.367 49.7812ZM206.367 46.0898L206.288 45.2938L205.567 45.3659V46.0898H206.367ZM209.863 39.4688V38.6687H209.063V39.4688H209.863ZM213.77 39.4688H214.57V38.6687H213.77V39.4688ZM213.711 42.8672L212.915 42.7876L212.898 42.9592L212.953 43.1226L213.711 42.8672ZM218.359 46.6172L219.043 47.0326L219.614 46.0925L218.544 45.8388L218.359 46.6172ZM216.484 49.7031L216.256 50.4698L216.848 50.646L217.168 50.1185L216.484 49.7031ZM212.266 46.6953L212.918 46.2319L212.262 45.3094L211.611 46.2351L212.266 46.6953ZM218.926 50.8945H218.126V51.6945H218.926V50.8945ZM218.926 39.2344V38.4344H218.126V39.2344H218.926ZM222.832 39.2344H223.632V38.4344H222.832V39.2344ZM222.832 42.4766H222.032V43.2766H222.832V42.4766ZM224.59 42.4766H225.39V41.6766H224.59V42.4766ZM224.59 45.7578V46.5578H225.39V45.7578H224.59ZM222.832 45.7578V44.9578H222.032V45.7578H222.832ZM222.832 50.8945V51.6945H223.632V50.8945H222.832ZM215.527 56.5586V55.7586C212.709 55.7586 210.97 55.4476 209.958 54.9363C209.47 54.69 209.179 54.4106 209.003 54.1186C208.826 53.8253 208.73 53.4599 208.73 52.9844H207.93H207.13C207.13 53.6807 207.273 54.348 207.632 54.9447C207.993 55.5425 208.535 56.0102 209.236 56.3645C210.602 57.0544 212.662 57.3586 215.527 57.3586V56.5586ZM207.93 52.9844H208.73V49.9375H207.93H207.13V52.9844H207.93ZM207.93 49.9375V50.7375H211.836V49.9375V49.1375H207.93V49.9375ZM211.836 49.9375H211.036V52.3789H211.836H212.636V49.9375H211.836ZM211.836 52.3789H211.036C211.036 52.6416 211.087 52.9861 211.337 53.2997C211.575 53.5971 211.909 53.7617 212.248 53.8646C212.9 54.0626 213.937 54.1359 215.527 54.1359V53.3359V52.5359C213.914 52.5359 213.106 52.453 212.713 52.3337C212.529 52.2778 212.541 52.2435 212.587 52.301C212.646 52.3747 212.636 52.4385 212.636 52.3789H211.836ZM215.527 53.3359V54.1359C218.695 54.1359 220.998 53.8981 223.095 53.4546L222.93 52.6719L222.764 51.8892C220.799 52.305 218.61 52.5359 215.527 52.5359V53.3359ZM222.93 52.6719H222.13V55.8945H222.93H223.73V52.6719H222.93ZM222.93 55.8945L222.787 55.1074C220.894 55.4516 218.188 55.7586 215.527 55.7586V56.5586V57.3586C218.296 57.3586 221.098 57.0406 223.073 56.6816L222.93 55.8945ZM206.367 49.7812H207.167V46.0898H206.367H205.567V49.7812H206.367ZM206.367 46.0898L206.447 46.8859C207.65 46.7655 208.728 46.3499 209.503 45.5278C210.283 44.7006 210.663 43.5614 210.663 42.1836H209.863H209.063C209.063 43.2667 208.77 43.9732 208.339 44.4302C207.903 44.8923 207.232 45.1993 206.288 45.2938L206.367 46.0898ZM209.863 42.1836H210.663V39.4688H209.863H209.063V42.1836H209.863ZM209.863 39.4688V40.2687H213.77V39.4688V38.6687H209.863V39.4688ZM213.77 39.4688H212.97V41.6953H213.77H214.57V39.4688H213.77ZM213.77 41.6953H212.97C212.97 42.0592 212.951 42.4233 212.915 42.7876L213.711 42.8672L214.507 42.9468C214.549 42.5298 214.57 42.1127 214.57 41.6953H213.77ZM213.711 42.8672L212.953 43.1226C213.322 44.2183 214.135 45.1634 215.062 45.8805C215.996 46.6018 217.109 47.1429 218.175 47.3956L218.359 46.6172L218.544 45.8388C217.715 45.6423 216.807 45.2068 216.041 44.6146C215.269 44.0182 214.705 43.3129 214.469 42.6117L213.711 42.8672ZM218.359 46.6172L217.676 46.2018L215.801 49.2877L216.484 49.7031L217.168 50.1185L219.043 47.0326L218.359 46.6172ZM216.484 49.7031L216.713 48.9364C215.05 48.441 213.87 47.5723 212.918 46.2319L212.266 46.6953L211.613 47.1587C212.771 48.7871 214.247 49.8715 216.256 50.4698L216.484 49.7031ZM212.266 46.6953L211.611 46.2351C210.51 47.8008 208.73 48.8576 206.326 48.9823L206.367 49.7812L206.409 50.5802C209.278 50.4314 211.521 49.1445 212.92 47.1555L212.266 46.6953ZM218.926 50.8945H219.726V39.2344H218.926H218.126V50.8945H218.926ZM218.926 39.2344V40.0344H222.832V39.2344V38.4344H218.926V39.2344ZM222.832 39.2344H222.032V42.4766H222.832H223.632V39.2344H222.832ZM222.832 42.4766V43.2766H224.59V42.4766V41.6766H222.832V42.4766ZM224.59 42.4766H223.79V45.7578H224.59H225.39V42.4766H224.59ZM224.59 45.7578V44.9578H222.832V45.7578V46.5578H224.59V45.7578ZM222.832 45.7578H222.032V50.8945H222.832H223.632V45.7578H222.832ZM222.832 50.8945V50.0945H218.926V50.8945V51.6945H222.832V50.8945Z" fill="black" mask="url(#path-10-outside-2_1252_430)"/>
<path d="M244.77 48.4727V45.2109H243.598V48.4727H240.473V39.3125H243.598V42.125H244.77V39.2344H248.285V48.4727H244.77ZM231.43 48.5898V45.1719C232.875 45.1523 234.047 44.6641 234.047 42.8672V42.6133H231.781V39.8789H234.047V38.7461H237.562V39.8789H239.828V42.6133H237.562V42.7305C237.562 43.0039 237.543 43.2773 237.523 43.5312C237.934 44.5273 239.086 45.1133 240.375 45.2305L239.594 48.5117C238.012 48.4336 236.82 47.8867 235.98 46.8125C234.945 47.8477 233.402 48.4922 231.43 48.5898ZM233.188 53.3164V51.7734H244.379V51.1289H233.227V48.9805H248.285V53.8047H237.094V53.9609C237.094 54.293 237.562 54.5273 241.176 54.5273C244.008 54.5273 246.566 54.3906 248.383 54.1367V56.3633C246.508 56.6367 244.105 56.7539 240.883 56.7539C234.027 56.7539 233.188 56.1484 233.188 53.3164ZM259.73 56.5586C254.047 56.5586 252.133 55.3281 252.133 52.9844V50.5234H256.039V52.3789C256.039 53.0234 256.527 53.3359 259.73 53.3359C262.855 53.3359 265.102 53.1016 267.133 52.6719V55.8945C265.199 56.2461 262.445 56.5586 259.73 56.5586ZM250.922 45.875V43.5312H257.016C257.191 43.1992 257.25 42.8867 257.25 42.5547H250.922V39.625H261.215V41.4609C261.215 42.3984 261.078 43.1211 260.863 43.5312H261.254V45.875H255.004C254.945 45.9727 254.906 46.0898 254.906 46.2266C254.906 46.8516 255.746 47.0859 257.699 47.0859C259.008 47.0859 260.336 46.9688 261.664 46.7344L262.113 49.5273C261.195 49.7812 259.613 50.0156 257.387 50.0156C252.797 50.0156 251 48.9414 251 47.3398C251 46.6758 251.156 46.168 251.352 45.875H250.922ZM263.129 50.8945V39.2344H267.035V50.8945H263.129ZM281.879 56.3633V39.2344H285.785V56.3633H281.879ZM269.125 55.8359V52.0469C271.215 51.5781 272.895 49.6445 272.895 45.875V42.9453H269.477V39.625H280.219V42.9453H276.801V45.4062C276.801 45.8555 276.781 46.3047 276.742 46.7344C277.406 49.5273 279.594 51.9102 281.508 52.5938L279.633 55.7578C277.777 54.9961 276.449 53.6484 275.355 51.6367C274.066 54.0391 271.938 55.6406 269.125 55.8359Z" fill="black"/>
</g>
<defs>
<clipPath id="clip0_1252_430">
<rect width="351" height="179" fill="white"/>
</clipPath>
</defs>
</svg>
