<svg width="350" height="438" viewBox="0 0 350 438" fill="none" xmlns="http://www.w3.org/2000/svg">
<g clip-path="url(#clip0_1253_477)">
<rect width="350" height="438" fill="#FFFFFA"/>
<path d="M175.5 324.619C230.211 324.619 274.569 369.237 274.569 424.281C274.569 479.326 230.211 523.943 175.5 523.943C120.788 523.943 76.4302 479.325 76.4302 424.281C76.4302 369.237 120.788 324.619 175.5 324.619Z" fill="#FFE400" stroke="black" stroke-width="0.948032"/>
<path d="M58.5864 368.402L58.6489 368.709L58.9556 368.772L78.3296 372.731L58.9556 376.692L58.6489 376.755L58.5864 377.062L54.6255 396.436L50.6665 377.062L50.603 376.755L50.2964 376.692L30.9214 372.731L50.2964 368.772L50.603 368.709L50.6665 368.402L54.6255 349.027L58.5864 368.402Z" fill="#83DEFC" stroke="black" stroke-width="0.948032"/>
<path d="M250.07 328.233L250.133 328.54L250.44 328.603L270.306 332.663L250.44 336.724L250.133 336.786L250.07 337.094L246.01 356.959L241.949 337.094L241.887 336.786L241.58 336.724L221.713 332.663L241.58 328.603L241.887 328.54L241.949 328.233L246.01 308.366L250.07 328.233Z" fill="#F5F5F5" stroke="black" stroke-width="0.948032"/>
<path d="M303.264 382.062L303.327 382.369L303.633 382.433L314.152 384.582L303.633 386.732L303.327 386.795L303.264 387.102L301.114 397.62L298.964 387.102L298.901 386.795L298.594 386.732L288.075 384.582L298.594 382.433L298.901 382.369L298.964 382.062L301.114 371.543L303.264 382.062Z" fill="#FDFE70" stroke="black" stroke-width="0.948032"/>
<mask id="path-5-inside-1_1253_477" fill="white">
<path d="M74.0234 399.265C82.542 399.265 90.1127 402.753 94.9111 408.159C97.1771 407.611 99.5674 407.318 102.037 407.318C112.416 407.318 121.388 412.497 125.652 420.013C128.247 419.275 131.02 418.874 133.902 418.874C148.407 418.874 160.165 428.986 160.165 441.46C160.165 453.934 148.407 464.046 133.902 464.046C123.523 464.046 114.55 458.867 110.286 451.351C107.692 452.088 104.919 452.489 102.037 452.489C93.5181 452.489 85.9478 449 81.1494 443.594C78.8834 444.142 76.4932 444.437 74.0234 444.437C72.8059 444.437 71.6081 444.363 70.4346 444.225C69.431 455.33 59.664 464.046 47.7607 464.046C35.1904 464.046 25.0001 454.326 25 442.336C25 430.346 35.1903 420.625 47.7607 420.625C47.7734 420.625 47.7862 420.625 47.7988 420.625C48.5389 408.721 59.9972 399.265 74.0234 399.265Z"/>
</mask>
<path d="M74.0234 399.265C82.542 399.265 90.1127 402.753 94.9111 408.159C97.1771 407.611 99.5674 407.318 102.037 407.318C112.416 407.318 121.388 412.497 125.652 420.013C128.247 419.275 131.02 418.874 133.902 418.874C148.407 418.874 160.165 428.986 160.165 441.46C160.165 453.934 148.407 464.046 133.902 464.046C123.523 464.046 114.55 458.867 110.286 451.351C107.692 452.088 104.919 452.489 102.037 452.489C93.5181 452.489 85.9478 449 81.1494 443.594C78.8834 444.142 76.4932 444.437 74.0234 444.437C72.8059 444.437 71.6081 444.363 70.4346 444.225C69.431 455.33 59.664 464.046 47.7607 464.046C35.1904 464.046 25.0001 454.326 25 442.336C25 430.346 35.1903 420.625 47.7607 420.625C47.7734 420.625 47.7862 420.625 47.7988 420.625C48.5389 408.721 59.9972 399.265 74.0234 399.265Z" fill="#F5F5F5"/>
<path d="M74.0234 399.265V398.317H74.0234L74.0234 399.265ZM94.9111 408.159L94.2021 408.789L94.5803 409.215L95.134 409.081L94.9111 408.159ZM102.037 407.318V406.37V407.318ZM125.652 420.013L124.828 420.481L125.195 421.128L125.912 420.925L125.652 420.013ZM133.902 418.874V417.926V418.874ZM160.165 441.46H161.113V441.46L160.165 441.46ZM133.902 464.046V464.994V464.046ZM110.286 451.351L111.111 450.883L110.743 450.235L110.027 450.439L110.286 451.351ZM102.037 452.489V453.437V452.489ZM81.1494 443.594L81.8585 442.964L81.4803 442.538L80.9265 442.672L81.1494 443.594ZM74.0234 444.437L74.0234 445.385H74.0234V444.437ZM70.4346 444.225L70.5452 443.283L69.578 443.169L69.4904 444.139L70.4346 444.225ZM47.7607 464.046L47.7607 464.994H47.7607V464.046ZM25 442.336H24.052V442.336L25 442.336ZM47.7607 420.625V419.677H47.7607L47.7607 420.625ZM47.7988 420.625L47.7974 421.573L48.6897 421.574L48.745 420.684L47.7988 420.625ZM74.0234 399.265V400.213C82.2879 400.213 89.5945 403.598 94.2021 408.789L94.9111 408.159L95.6201 407.53C90.6309 401.909 82.7962 398.317 74.0234 398.317V399.265ZM94.9111 408.159L95.134 409.081C97.3269 408.55 99.6423 408.266 102.037 408.266V407.318V406.37C99.4924 406.37 97.0274 406.672 94.6882 407.238L94.9111 408.159ZM102.037 407.318V408.266C112.113 408.266 120.75 413.293 124.828 420.481L125.652 420.013L126.477 419.545C122.026 411.7 112.719 406.37 102.037 406.37V407.318ZM125.652 420.013L125.912 420.925C128.422 420.211 131.108 419.822 133.902 419.822V418.874V417.926C130.932 417.926 128.072 418.339 125.393 419.101L125.652 420.013ZM133.902 418.874V419.822C148.022 419.822 159.217 429.639 159.217 441.46L160.165 441.46L161.113 441.46C161.113 428.334 148.791 417.926 133.902 417.926V418.874ZM160.165 441.46H159.217C159.217 453.281 148.022 463.098 133.902 463.098V464.046V464.994C148.791 464.994 161.113 454.586 161.113 441.46H160.165ZM133.902 464.046V463.098C123.826 463.098 115.188 458.071 111.111 450.883L110.286 451.351L109.462 451.818C113.912 459.664 123.22 464.994 133.902 464.994V464.046ZM110.286 451.351L110.027 450.439C107.516 451.152 104.831 451.541 102.037 451.541V452.489V453.437C105.007 453.437 107.867 453.024 110.545 452.262L110.286 451.351ZM102.037 452.489V451.541C93.7723 451.541 86.466 448.156 81.8585 442.964L81.1494 443.594L80.4404 444.223C85.4295 449.844 93.2639 453.437 102.037 453.437V452.489ZM81.1494 443.594L80.9265 442.672C78.7331 443.203 76.4178 443.488 74.0234 443.488V444.437V445.385C76.5687 445.385 79.0336 445.081 81.3723 444.515L81.1494 443.594ZM74.0234 444.437L74.0234 443.488C72.8444 443.488 71.6835 443.417 70.5452 443.283L70.4346 444.225L70.3239 445.166C71.5326 445.308 72.7675 445.385 74.0234 445.385L74.0234 444.437ZM70.4346 444.225L69.4904 444.139C68.5339 454.725 59.2062 463.098 47.7607 463.098V464.046V464.994C60.1219 464.994 70.3282 455.936 71.3788 444.31L70.4346 444.225ZM47.7607 464.046L47.7607 463.098C35.6712 463.098 25.9481 453.761 25.948 442.336L25 442.336L24.052 442.336C24.0521 454.891 34.7095 464.994 47.7607 464.994L47.7607 464.046ZM25 442.336H25.948C25.948 430.911 35.6712 421.573 47.7607 421.573L47.7607 420.625L47.7607 419.677C34.7094 419.677 24.052 429.78 24.052 442.336H25ZM47.7607 420.625V421.573C47.7755 421.573 47.7856 421.573 47.7974 421.573L47.7988 420.625L47.8003 419.677C47.7868 419.677 47.7713 419.677 47.7607 419.677V420.625ZM47.7988 420.625L48.745 420.684C49.4469 409.394 60.3742 400.213 74.0234 400.213L74.0234 399.265L74.0234 398.317C59.6202 398.317 47.6309 408.048 46.8526 420.566L47.7988 420.625Z" fill="black" mask="url(#path-5-inside-1_1253_477)"/>
<path d="M277.002 400.462C290.837 400.462 302.019 409.671 302.739 421.118L302.768 421.562H303.251C315.58 421.563 325.525 430.978 325.525 442.534C325.525 454.091 315.58 463.507 303.251 463.507C291.579 463.507 282.039 455.065 281.059 444.36L281.015 443.877L280.532 443.933C279.378 444.067 278.2 444.136 277.002 444.136C274.571 444.136 272.219 443.851 269.991 443.318L269.717 443.253L269.528 443.463C264.828 448.696 257.392 452.092 249.003 452.092C246.166 452.092 243.437 451.703 240.886 450.986L240.53 450.887L240.347 451.207C236.179 458.466 227.378 463.507 217.154 463.507C202.844 463.507 191.379 453.661 191.379 441.67C191.379 429.679 202.844 419.833 217.154 419.833C219.991 419.833 222.72 420.222 225.271 420.938L225.627 421.038L225.811 420.718C229.979 413.459 238.779 408.418 249.003 408.418C251.434 408.418 253.785 408.703 256.014 409.235L256.288 409.302L256.477 409.092C261.176 403.858 268.612 400.462 277.002 400.462Z" fill="#F5F5F5" stroke="black" stroke-width="0.948032"/>
<path d="M104.229 266.34C105.764 266.352 106.854 267.758 106.865 269.973C106.854 272.188 105.764 273.594 104.229 273.594C102.682 273.594 101.604 272.188 101.604 269.973C101.604 267.758 102.682 266.352 104.229 266.34ZM104.229 267.16C103.197 267.172 102.471 268.273 102.471 269.973C102.471 271.672 103.197 272.773 104.229 272.773C105.271 272.773 105.975 271.672 105.975 269.973C105.975 268.273 105.271 267.172 104.229 267.16ZM109.502 265.531V269.691H111.248V270.488H109.502V275.949H108.588V265.531H109.502ZM115.596 267.652C115.596 268.977 116.732 270.148 118.291 270.594L117.857 271.32C116.627 270.951 115.637 270.148 115.162 269.105C114.693 270.248 113.709 271.133 112.467 271.543L112.021 270.828C113.568 270.324 114.682 269.07 114.682 267.652V267.512H112.279V266.773H114.682V265.484H115.607V266.773H117.986V267.512H115.596V267.652ZM120.412 265.543V271.719H119.498V265.543H120.412ZM120.412 272.246V275.809H113.639V272.246H120.412ZM114.541 272.996V275.059H119.51V272.996H114.541ZM134.041 265.543V272.832H133.162V269.234H131.803V271.988H130.924V265.719H131.803V268.473H133.162V265.543H134.041ZM130.479 266.844V267.582H125.135V266.844H127.361V265.625H128.275V266.844H130.479ZM127.818 268.145C129.143 268.145 130.045 268.871 130.057 269.973C130.045 271.086 129.143 271.812 127.818 271.812C126.506 271.812 125.58 271.086 125.592 269.973C125.58 268.871 126.506 268.145 127.818 268.145ZM127.818 268.848C126.986 268.848 126.412 269.293 126.412 269.973C126.412 270.664 126.986 271.109 127.818 271.109C128.65 271.109 129.225 270.664 129.225 269.973C129.225 269.293 128.65 268.848 127.818 268.848ZM131.018 272.68C131.018 273.945 132.799 274.965 134.65 275.199L134.299 275.902C132.711 275.68 131.199 274.959 130.561 273.852C129.916 274.959 128.393 275.68 126.799 275.902L126.482 275.199C128.322 274.965 130.092 273.945 130.104 272.68V272.41H131.018V272.68ZM139.057 266.727C139.057 268.133 140.123 269.352 141.646 269.832L141.154 270.547C139.988 270.143 139.08 269.346 138.635 268.297C138.184 269.498 137.223 270.412 135.975 270.863L135.506 270.125C137.076 269.586 138.154 268.285 138.154 266.727V265.895H139.057V266.727ZM143.709 265.531V267.816H145.279V268.59H143.709V270.98H142.795V265.531H143.709ZM143.709 271.449V273.934H137.99V275.082H144.096V275.832H137.088V273.23H142.795V272.188H137.064V271.449H143.709ZM158.475 270.77V271.531H148.947V270.77H153.236V269.164H154.139V270.77H158.475ZM154.15 266.188C154.15 267.57 156.025 268.73 157.865 268.988L157.49 269.727C155.908 269.451 154.344 268.613 153.693 267.406C153.037 268.619 151.467 269.451 149.873 269.727L149.521 268.988C151.361 268.73 153.225 267.57 153.225 266.188V265.695H154.15V266.188ZM157.268 272.551V275.949H156.342V273.289H150.002V272.551H157.268ZM168.248 265.531V275.949H167.357V265.531H168.248ZM166.15 265.754V275.422H165.271V270.359H163.936C163.836 272.387 162.975 273.652 161.686 273.652C160.326 273.652 159.447 272.246 159.447 270.031C159.447 267.816 160.326 266.41 161.686 266.41C162.951 266.41 163.807 267.635 163.924 269.598H165.271V265.754H166.15ZM161.686 267.277C160.842 267.277 160.303 268.332 160.314 270.031C160.303 271.719 160.842 272.785 161.686 272.773C162.529 272.785 163.068 271.719 163.068 270.031C163.068 268.332 162.529 267.277 161.686 267.277ZM173.357 268.332C173.357 270.219 174.564 272.117 176.076 272.809L175.525 273.559C174.342 272.949 173.363 271.701 172.9 270.219C172.438 271.777 171.459 273.113 170.275 273.746L169.678 273.008C171.201 272.258 172.42 270.254 172.42 268.332V266.434H173.357V268.332ZM178.326 265.531V275.973H177.412V269.844H174.939V269.094H177.412V265.531H178.326ZM186.775 268.332C186.764 270.23 188.064 272.152 189.6 272.844L189.037 273.57C187.854 272.99 186.828 271.766 186.33 270.277C185.844 271.854 184.818 273.166 183.6 273.781L183.014 273.008C184.561 272.293 185.85 270.312 185.861 268.332V266.434H186.775V268.332ZM191.662 265.531V275.973H190.736V265.531H191.662ZM196.971 267.465C196.971 268.848 197.99 270.113 199.537 270.652L199.068 271.367C197.879 270.945 196.971 270.09 196.525 269.012C196.08 270.195 195.125 271.115 193.9 271.566L193.408 270.852C194.967 270.301 196.057 268.953 196.068 267.465V267.02H193.689V266.27H199.314V267.02H196.971V267.465ZM201.588 265.531V268.285H203.158V269.07H201.588V271.812H200.674V265.531H201.588ZM201.588 272.363V275.949H200.674V273.113H194.768V272.363H201.588ZM211.877 265.531V269.832H213.623V270.594H211.877V275.949H210.963V265.531H211.877ZM209.955 267.207V267.969H203.756V267.207H206.439V265.66H207.354V267.207H209.955ZM206.908 268.836C208.385 268.836 209.451 269.82 209.463 271.227C209.451 272.633 208.385 273.617 206.908 273.617C205.42 273.617 204.342 272.633 204.354 271.227C204.342 269.82 205.42 268.836 206.908 268.836ZM206.908 269.609C205.936 269.609 205.221 270.289 205.232 271.227C205.221 272.176 205.936 272.844 206.908 272.832C207.869 272.844 208.572 272.176 208.584 271.227C208.572 270.289 207.869 269.609 206.908 269.609ZM222.611 268.695V269.434H215.475V265.918H216.389V268.695H222.611ZM223.713 270.852V271.602H214.174V270.852H223.713ZM222.67 274.93V275.691H215.416V272.668H216.33V274.93H222.67ZM235.631 265.531V269.832H237.377V270.594H235.631V275.949H234.717V265.531H235.631ZM233.709 267.207V267.969H227.51V267.207H230.193V265.66H231.107V267.207H233.709ZM230.662 268.836C232.139 268.836 233.205 269.82 233.217 271.227C233.205 272.633 232.139 273.617 230.662 273.617C229.174 273.617 228.096 272.633 228.107 271.227C228.096 269.82 229.174 268.836 230.662 268.836ZM230.662 269.609C229.689 269.609 228.975 270.289 228.986 271.227C228.975 272.176 229.689 272.844 230.662 272.832C231.623 272.844 232.326 272.176 232.338 271.227C232.326 270.289 231.623 269.609 230.662 269.609ZM246.307 265.953V268.66H240.025V270.008H246.529V270.77H239.1V267.934H245.369V266.703H239.076V265.953H246.307ZM247.467 271.871V272.609H243.131V275.973H242.217V272.609H237.928V271.871H247.467ZM250.021 274.215L249.107 277.402H248.24L248.885 274.215H250.021ZM126.57 280.531V284.832H128.316V285.594H126.57V290.949H125.656V280.531H126.57ZM124.648 282.207V282.969H118.449V282.207H121.133V280.66H122.047V282.207H124.648ZM121.602 283.836C123.078 283.836 124.145 284.82 124.156 286.227C124.145 287.633 123.078 288.617 121.602 288.617C120.113 288.617 119.035 287.633 119.047 286.227C119.035 284.82 120.113 283.836 121.602 283.836ZM121.602 284.609C120.629 284.609 119.914 285.289 119.926 286.227C119.914 287.176 120.629 287.844 121.602 287.832C122.562 287.844 123.266 287.176 123.277 286.227C123.266 285.289 122.562 284.609 121.602 284.609ZM137.469 280.531V290.973H136.543V280.531H137.469ZM131.926 281.34C133.473 281.352 134.586 282.758 134.586 284.973C134.586 287.188 133.473 288.594 131.926 288.594C130.367 288.594 129.266 287.188 129.266 284.973C129.266 282.758 130.367 281.352 131.926 281.34ZM131.926 282.16C130.883 282.172 130.156 283.273 130.156 284.973C130.156 286.672 130.883 287.773 131.926 287.773C132.969 287.773 133.695 286.672 133.695 284.973C133.695 283.273 132.969 282.172 131.926 282.16ZM144.547 281.621C144.535 284.633 143.469 287.387 139.789 289.227L139.262 288.523C141.178 287.562 142.361 286.361 143.012 284.949L139.461 285.289L139.297 284.492L143.293 284.223C143.48 283.643 143.592 283.027 143.633 282.383H139.824V281.621H144.547ZM147.875 280.531V290.949H146.961V285.488H144.512V284.727H146.961V280.531H147.875ZM154.812 282.066C154.812 283.848 156.852 285.441 158.668 285.781L158.246 286.555C156.676 286.191 155.018 285.072 154.344 283.531C153.67 285.066 152.018 286.186 150.441 286.555L150.02 285.781C151.824 285.43 153.852 283.859 153.852 282.066V281.27H154.812V282.066ZM159.16 288.77V289.531H149.621V288.77H159.16ZM168.055 280.531V284.773H169.742V285.547H168.055V290.949H167.141V280.531H168.055ZM165.359 281.656C165.359 284.609 163.977 287.293 160.578 288.969L160.062 288.242C162.758 286.9 164.223 284.896 164.434 282.43H160.543V281.656H165.359ZM181.52 280.531V283.309H183.09V284.094H181.52V286.812H180.605V280.531H181.52ZM181.52 287.41V290.809H174.945V287.41H181.52ZM175.848 288.148V290.059H180.605V288.148H175.848ZM179.609 281.645V282.406H173.398V281.645H176.047V280.449H176.961V281.645H179.609ZM176.504 282.922C178.004 282.922 179 283.66 179.012 284.773C179 285.91 178.004 286.637 176.504 286.637C174.992 286.637 173.984 285.91 173.996 284.773C173.984 283.66 174.992 282.922 176.504 282.922ZM176.504 283.637C175.52 283.637 174.863 284.094 174.875 284.773C174.863 285.488 175.52 285.922 176.504 285.934C177.477 285.922 178.133 285.488 178.145 284.773C178.133 284.094 177.477 283.637 176.504 283.637ZM186.336 281.797C186.324 283.988 186.02 286.449 184.496 288.465L183.77 288.043C185.076 286.408 185.463 284.48 185.539 282.559H183.98V281.797H186.336ZM188.645 281.797C188.639 282.646 188.621 283.625 188.492 284.633H189.875V280.812H190.754V290.422H189.875V285.395H188.375C188.135 286.695 187.678 288.014 186.828 289.156L186.113 288.723C187.555 286.883 187.795 284.504 187.836 282.559H186.664V281.797H188.645ZM192.711 280.531V290.949H191.82V280.531H192.711ZM205.273 280.496V283.027H206.855V283.789H205.273V286.262H204.359V280.496H205.273ZM205.273 286.801V289.109H199.555V290.129H205.66V290.832H198.652V288.43H204.359V287.492H198.629V286.801H205.273ZM203.363 281.48V282.219H197.152V281.48H199.801V280.426H200.715V281.48H203.363ZM200.258 282.688C201.77 282.688 202.754 283.344 202.766 284.398C202.754 285.453 201.77 286.109 200.258 286.109C198.734 286.109 197.738 285.453 197.75 284.398C197.738 283.344 198.734 282.688 200.258 282.688ZM200.258 283.367C199.273 283.367 198.617 283.777 198.629 284.398C198.617 285.031 199.273 285.418 200.258 285.418C201.242 285.418 201.887 285.031 201.898 284.398C201.887 283.777 201.242 283.367 200.258 283.367ZM216.418 280.531V290.949H215.539V280.531H216.418ZM214.227 280.812V290.422H213.348V285.559H211.145C210.506 286.771 209.504 287.844 208.051 288.699L207.512 288.031C209.779 286.689 210.916 284.809 211.086 282.629H207.957V281.867H212C211.994 282.893 211.83 283.883 211.484 284.809H213.348V280.812H214.227ZM227.41 288.84V289.613H217.871V288.84H220.238V286.027C219.348 285.564 218.809 284.814 218.809 283.871C218.809 282.254 220.391 281.199 222.617 281.188C224.844 281.199 226.426 282.254 226.426 283.871C226.426 284.797 225.904 285.541 225.043 286.004V288.84H227.41ZM222.617 281.949C220.906 281.938 219.699 282.711 219.699 283.871C219.699 285.031 220.906 285.816 222.617 285.816C224.316 285.816 225.535 285.031 225.535 283.871C225.535 282.711 224.316 281.938 222.617 281.949ZM221.141 288.84H224.117V286.355C223.666 286.479 223.162 286.543 222.617 286.543C222.084 286.543 221.586 286.484 221.141 286.367V288.84ZM232.941 281.516L232.859 287.609H231.875L231.793 281.516H232.941ZM232.367 290.07C231.957 290.07 231.605 289.73 231.617 289.309C231.605 288.898 231.957 288.559 232.367 288.559C232.777 288.559 233.117 288.898 233.117 289.309C233.117 289.73 232.777 290.07 232.367 290.07Z" fill="black"/>
<rect x="44.4" y="96.4" width="28.2" height="16.2" rx="2.6" fill="#FFE400" stroke="black" stroke-width="0.8"/>
<rect x="44.4" y="120.4" width="28.2" height="16.2" rx="2.6" fill="#FFE400" stroke="black" stroke-width="0.8"/>
<rect x="44.4" y="144.4" width="28.2" height="16.2" rx="2.6" fill="#FFE400" stroke="black" stroke-width="0.8"/>
<rect x="44.4" y="168.4" width="28.2" height="16.2" rx="2.6" fill="#FFE400" stroke="black" stroke-width="0.8"/>
<rect x="44.4" y="220.4" width="61.2" height="16.2" rx="2.6" fill="#FFE400" stroke="black" stroke-width="0.8"/>
<path d="M51.375 99.918C52.9336 99.9297 54.0703 100.867 54.0703 102.227C54.0703 103.586 52.9336 104.523 51.375 104.523C49.793 104.523 48.668 103.586 48.668 102.227C48.668 100.867 49.793 99.9297 51.375 99.918ZM51.375 100.691C50.332 100.691 49.5586 101.324 49.5703 102.227C49.5586 103.141 50.332 103.773 51.375 103.773C52.4062 103.773 53.1797 103.141 53.1797 102.227C53.1797 101.324 52.4062 100.691 51.375 100.691ZM57.0234 99.5312V104.887H56.1094V99.5312H57.0234ZM57.0234 105.391V107.898H51.1758V109.07H57.3984V109.809H50.2734V107.207H56.1094V106.129H50.25V105.391H57.0234ZM62.4961 102.332C62.4844 104.23 63.7852 106.152 65.3203 106.844L64.7578 107.57C63.5742 106.99 62.5488 105.766 62.0508 104.277C61.5645 105.854 60.5391 107.166 59.3203 107.781L58.7344 107.008C60.2812 106.293 61.5703 104.312 61.582 102.332V100.434H62.4961V102.332ZM67.3828 99.5312V109.973H66.457V99.5312H67.3828Z" fill="black"/>
<path d="M79.7969 109L79.7852 108.227L82.6797 105.18C83.6875 104.113 84.168 103.539 84.168 102.754C84.168 101.887 83.4297 101.312 82.4805 101.312C81.4727 101.312 80.8281 101.957 80.8281 102.906H79.832C79.8203 101.406 80.9805 100.398 82.5156 100.398C84.0508 100.398 85.1523 101.43 85.1523 102.754C85.1523 103.703 84.707 104.441 83.207 105.988L81.2617 107.992V108.062H85.3047V109H79.7969ZM89.6172 109.117C87.7305 109.117 86.6523 107.535 86.6523 104.758C86.6523 102.004 87.7539 100.398 89.6172 100.398C91.4805 100.398 92.582 102.004 92.582 104.758C92.582 107.535 91.4922 109.117 89.6172 109.117ZM89.6172 108.18C90.8359 108.18 91.5508 106.949 91.5508 104.758C91.5508 102.566 90.8359 101.312 89.6172 101.312C88.3984 101.312 87.6719 102.566 87.6719 104.758C87.6719 106.949 88.3867 108.18 89.6172 108.18ZM93.9883 109L93.9766 108.227L96.8711 105.18C97.8789 104.113 98.3594 103.539 98.3594 102.754C98.3594 101.887 97.6211 101.312 96.6719 101.312C95.6641 101.312 95.0195 101.957 95.0195 102.906H94.0234C94.0117 101.406 95.1719 100.398 96.707 100.398C98.2422 100.398 99.3438 101.43 99.3438 102.754C99.3438 103.703 98.8984 104.441 97.3984 105.988L95.4531 107.992V108.062H99.4961V109H93.9883ZM103.797 109.117C102.262 109.117 101.102 108.168 101.043 106.867H102.062C102.145 107.629 102.883 108.191 103.797 108.191C104.898 108.191 105.695 107.383 105.695 106.316C105.695 105.215 104.863 104.406 103.727 104.395C103.012 104.383 102.461 104.605 102.145 105.156H101.125L101.723 100.516H106.316V101.453H102.602L102.285 103.938H102.367C102.742 103.645 103.316 103.445 103.914 103.445C105.531 103.445 106.727 104.641 106.727 106.293C106.727 107.934 105.484 109.117 103.797 109.117ZM108.602 109.07C108.191 109.07 107.84 108.73 107.852 108.309C107.84 107.898 108.191 107.559 108.602 107.559C109.012 107.559 109.352 107.898 109.352 108.309C109.352 108.73 109.012 109.07 108.602 109.07ZM113.395 109.117C111.508 109.117 110.43 107.535 110.43 104.758C110.43 102.004 111.531 100.398 113.395 100.398C115.258 100.398 116.359 102.004 116.359 104.758C116.359 107.535 115.27 109.117 113.395 109.117ZM113.395 108.18C114.613 108.18 115.328 106.949 115.328 104.758C115.328 102.566 114.613 101.312 113.395 101.312C112.176 101.312 111.449 102.566 111.449 104.758C111.449 106.949 112.164 108.18 113.395 108.18ZM120.719 109.117C119.242 109.094 117.625 108.227 117.625 105.086C117.625 102.086 118.855 100.398 120.848 100.398C122.336 100.398 123.379 101.312 123.602 102.648H122.559C122.359 101.898 121.797 101.336 120.848 101.336C119.453 101.336 118.621 102.531 118.621 104.57H118.727C119.219 103.867 119.992 103.445 120.906 103.445C122.418 103.445 123.672 104.617 123.672 106.258C123.672 107.852 122.5 109.129 120.719 109.117ZM120.719 108.191C121.82 108.191 122.641 107.324 122.652 106.27C122.641 105.227 121.855 104.371 120.742 104.371C119.629 104.371 118.773 105.273 118.762 106.281C118.762 107.277 119.582 108.191 120.719 108.191Z" fill="black"/>
<path d="M51.9492 125.512C51.9492 126.871 52.9688 128.09 54.5039 128.594L54.0703 129.32C52.8691 128.928 51.9609 128.096 51.5156 127.047C51.0645 128.242 50.1035 129.174 48.8555 129.625L48.3867 128.887C49.9453 128.359 51.0352 127.012 51.0469 125.512V125.066H48.668V124.305H54.293V125.066H51.9492V125.512ZM56.5664 123.531V126.191H58.1367V126.965H56.5664V129.824H55.6523V123.531H56.5664ZM53.2266 130.105C55.3711 130.105 56.6602 130.809 56.6602 132.004C56.6602 133.223 55.3711 133.926 53.2266 133.926C51.082 133.926 49.7695 133.223 49.7695 132.004C49.7695 130.809 51.082 130.105 53.2266 130.105ZM53.2266 130.844C51.6562 130.844 50.6836 131.277 50.6953 132.004C50.6836 132.754 51.6562 133.188 53.2266 133.188C54.8086 133.188 55.7695 132.754 55.7695 132.004C55.7695 131.277 54.8086 130.844 53.2266 130.844ZM68.332 131.828V132.59H58.793V131.828H63.0586V129.273H63.9609V131.828H68.332ZM63.9844 125.043C63.9844 126.789 66.0469 128.312 67.8633 128.629L67.4531 129.391C65.8652 129.068 64.1895 127.99 63.5156 126.484C62.8301 127.984 61.166 129.068 59.5781 129.391L59.168 128.629C60.9844 128.312 63.0234 126.789 63.0234 125.043V124.246H63.9844V125.043Z" fill="black"/>
<path d="M87.707 124.047V124.797C87.707 125.576 87.707 126.508 87.4492 127.762H88.9609V128.512H84.625V130.434H87.7773V133.949H86.8516V131.195H80.4062V130.434H83.7109V128.512H79.4219V127.762H86.5234C86.793 126.484 86.793 125.576 86.793 124.797H80.6289V124.047H87.707ZM98.6875 123.531V133.949H97.7852V128.559H96.2852V133.41H95.418V123.766H96.2852V127.773H97.7852V123.531H98.6875ZM91.2344 124.809V130.434C92.2715 130.422 93.373 130.352 94.6445 130.094L94.7617 130.914C93.3086 131.172 92.1133 131.254 90.9648 131.254H90.3203V124.809H91.2344ZM106.68 125.5C106.668 126.93 107.758 128.254 109.293 128.793L108.824 129.531C107.641 129.104 106.721 128.219 106.258 127.105C105.818 128.354 104.875 129.314 103.645 129.789L103.141 129.051C104.723 128.488 105.766 127.082 105.777 125.465V124.176H106.68V125.5ZM111.32 123.531V126.73H112.891V127.516H111.32V131.23H110.406V123.531H111.32ZM111.801 132.953V133.727H104.816V130.492H105.754V132.953H111.801ZM119.359 124.34C120.777 124.352 121.797 125.564 121.949 127.516H124.281V123.531H125.195V133.973H124.281V128.277H121.961C121.85 130.316 120.812 131.594 119.359 131.594C117.824 131.594 116.746 130.188 116.746 127.973C116.746 125.758 117.824 124.352 119.359 124.34ZM119.359 125.16C118.328 125.172 117.625 126.273 117.625 127.973C117.625 129.672 118.328 130.773 119.359 130.773C120.379 130.773 121.094 129.672 121.094 127.973C121.094 126.273 120.379 125.172 119.359 125.16ZM135.52 123.531V133.973H134.594V123.531H135.52ZM132.566 124.527V125.301H128.535V130.586C130.562 130.586 131.898 130.521 133.457 130.246L133.551 131.02C131.934 131.312 130.562 131.371 128.453 131.383H127.609V124.527H132.566ZM146.805 128.793V129.543H137.301V128.793H146.805ZM145.715 126.883V127.645H138.508V123.988H145.621V124.738H139.422V126.883H145.715ZM145.797 132.941V133.715H138.531V130.668H139.445V132.941H145.797ZM151.398 126.73C151.398 128.5 152.688 130.293 154.223 130.961L153.707 131.688C152.488 131.131 151.434 129.93 150.953 128.488C150.461 130.018 149.412 131.348 148.223 131.945L147.672 131.219C149.16 130.504 150.461 128.535 150.473 126.73V125.371H148.012V124.609H153.883V125.371H151.398V126.73ZM156.262 123.531V133.949H155.336V123.531H156.262Z" fill="black"/>
<path d="M57.0117 147.531V157.973H56.0859V147.531H57.0117ZM49.9453 148.422V151.176H53.0508V148.422H53.9531V155.453H49.0312V148.422H49.9453ZM49.9453 154.68H53.0508V151.914H49.9453V154.68ZM68.2852 152.688V153.449H58.793V152.688H61.1484V151.223C60.3164 150.9 59.8477 150.367 59.8477 149.664C59.8477 148.434 61.2539 147.73 63.5391 147.73C65.8008 147.73 67.2188 148.434 67.2188 149.664C67.2188 150.361 66.7559 150.895 65.9297 151.211V152.688H68.2852ZM63.5391 154.246C65.7773 154.246 67.1133 154.891 67.125 156.086C67.1133 157.27 65.7773 157.926 63.5391 157.926C61.2773 157.926 59.9414 157.27 59.9414 156.086C59.9414 154.891 61.2773 154.246 63.5391 154.246ZM63.5391 154.949C61.8633 154.961 60.8672 155.371 60.8789 156.086C60.8672 156.789 61.8633 157.211 63.5391 157.211C65.1914 157.211 66.1992 156.789 66.1992 156.086C66.1992 155.371 65.1914 154.961 63.5391 154.949ZM63.5391 148.457C61.8398 148.457 60.7852 148.914 60.7969 149.664C60.7852 150.426 61.8398 150.871 63.5391 150.871C65.2266 150.871 66.2812 150.426 66.2812 149.664C66.2812 148.914 65.2266 148.457 63.5391 148.457ZM62.0625 152.688H65.0156V151.469C64.5762 151.545 64.084 151.586 63.5391 151.586C62.9941 151.586 62.502 151.545 62.0625 151.469V152.688Z" fill="black"/>
<path d="M88.9492 153.59V154.352H84.6016V157.949H83.6992V154.352H79.4102V153.59H88.9492ZM87.707 148.117V152.172H80.6406V148.117H87.707ZM81.543 148.867V151.445H86.793V148.867H81.543ZM99.332 155.887V156.66H89.793V155.887H92.4766V153.906H90.9883V150.695H97.2227V149.066H90.9648V148.305H98.125V151.457H91.9023V153.145H98.3711V153.906H96.7422V155.887H99.332ZM93.3789 155.887H95.8398V153.906H93.3789V155.887Z" fill="black"/>
<path d="M53.2266 178.082C55.3711 178.082 56.6602 178.785 56.6602 180.004C56.6602 181.234 55.3711 181.938 53.2266 181.949C51.082 181.938 49.7695 181.234 49.7695 180.004C49.7695 178.785 51.082 178.082 53.2266 178.082ZM53.2266 178.809C51.6562 178.82 50.6836 179.254 50.6953 180.004C50.6836 180.754 51.6562 181.199 53.2266 181.199C54.8086 181.199 55.7695 180.754 55.7695 180.004C55.7695 179.254 54.8086 178.82 53.2266 178.809ZM56.5664 171.531V174.156H58.1367V174.941H56.5664V177.801H55.6523V171.531H56.5664ZM49.7695 172.188V173.781H52.8047V172.188H53.7188V176.992H48.8672V172.188H49.7695ZM49.7695 176.242H52.8047V174.508H49.7695V176.242ZM60.2344 172.07V173.688H63.1406V172.07H64.043V174.098H66.5039V171.531H67.4297V177.227H66.5039V174.871H64.043V176.84H59.3203V172.07H60.2344ZM60.2344 176.09H63.1406V174.414H60.2344V176.09ZM61.6406 177.73V179.008H66.5039V177.73H67.418V181.809H60.7148V177.73H61.6406ZM61.6406 181.047H66.5039V179.746H61.6406V181.047Z" fill="black"/>
<path d="M87.9531 178.82C87.2969 178.82 86.7578 178.281 86.7578 177.613C86.7578 176.957 87.2969 176.418 87.9531 176.418C88.6211 176.418 89.1602 176.957 89.1602 177.613C89.1602 178.281 88.6211 178.82 87.9531 178.82ZM102.168 172.211C104.383 172.223 105.977 173.301 105.977 174.941C105.977 176.494 104.594 177.525 102.613 177.648V179.84H106.961V180.613H97.4219V179.84H101.711V177.648C99.7363 177.52 98.3594 176.488 98.3594 174.941C98.3594 173.301 99.9531 172.223 102.168 172.211ZM102.168 172.973C100.48 172.973 99.25 173.77 99.25 174.941C99.25 176.148 100.48 176.922 102.168 176.934C103.855 176.922 105.086 176.148 105.086 174.941C105.086 173.77 103.855 172.973 102.168 172.973ZM116.43 171.543V179.184H115.504V175.188H113.359V174.426H115.504V171.543H116.43ZM116.723 180.953V181.727H109.738V178.492H110.664V180.953H116.723ZM111.414 173.688C111.414 175.035 112.457 176.348 113.98 176.863L113.5 177.602C112.322 177.18 111.414 176.301 110.969 175.223C110.518 176.424 109.557 177.385 108.32 177.848L107.84 177.098C109.375 176.559 110.488 175.188 110.488 173.688V173.148H108.133V172.387H113.746V173.148H111.414V173.688ZM124.387 181.117C122.605 181.117 121.363 180.133 121.375 178.75C121.363 177.648 122.125 176.746 123.098 176.594V176.547C122.254 176.348 121.703 175.574 121.703 174.648C121.703 173.348 122.84 172.398 124.387 172.398C125.934 172.398 127.07 173.348 127.082 174.648C127.07 175.574 126.508 176.348 125.676 176.547V176.594C126.637 176.746 127.398 177.648 127.41 178.75C127.398 180.133 126.156 181.117 124.387 181.117ZM124.387 180.191C125.605 180.191 126.355 179.582 126.355 178.691C126.355 177.754 125.523 177.062 124.387 177.062C123.25 177.062 122.406 177.754 122.43 178.691C122.406 179.582 123.168 180.191 124.387 180.191ZM124.387 176.172C125.348 176.172 126.051 175.586 126.051 174.73C126.051 173.887 125.383 173.312 124.387 173.312C123.379 173.312 122.723 173.887 122.723 174.73C122.723 175.586 123.414 176.172 124.387 176.172ZM132.156 174.332C132.145 176.23 133.445 178.152 134.98 178.844L134.418 179.57C133.234 178.99 132.209 177.766 131.711 176.277C131.225 177.854 130.199 179.166 128.98 179.781L128.395 179.008C129.941 178.293 131.23 176.312 131.242 174.332V172.434H132.156V174.332ZM137.043 171.531V181.973H136.117V171.531H137.043ZM150.426 171.531V181.973H149.5V171.531H150.426ZM144.883 172.34C146.43 172.352 147.543 173.758 147.543 175.973C147.543 178.188 146.43 179.594 144.883 179.594C143.324 179.594 142.223 178.188 142.223 175.973C142.223 173.758 143.324 172.352 144.883 172.34ZM144.883 173.16C143.84 173.172 143.113 174.273 143.113 175.973C143.113 177.672 143.84 178.773 144.883 178.773C145.926 178.773 146.652 177.672 146.652 175.973C146.652 174.273 145.926 173.172 144.883 173.16ZM160.844 171.543V179.184H159.918V175.188H157.773V174.426H159.918V171.543H160.844ZM161.137 180.953V181.727H154.152V178.492H155.078V180.953H161.137ZM155.828 173.688C155.828 175.035 156.871 176.348 158.395 176.863L157.914 177.602C156.736 177.18 155.828 176.301 155.383 175.223C154.932 176.424 153.971 177.385 152.734 177.848L152.254 177.098C153.789 176.559 154.902 175.188 154.902 173.688V173.148H152.547V172.387H158.16V173.148H155.828V173.688ZM164.289 180.215L163.375 183.402H162.508L163.152 180.215H164.289ZM176.723 171.531V175.832H178.469V176.594H176.723V181.949H175.809V171.531H176.723ZM174.801 173.207V173.969H168.602V173.207H171.285V171.66H172.199V173.207H174.801ZM171.754 174.836C173.23 174.836 174.297 175.82 174.309 177.227C174.297 178.633 173.23 179.617 171.754 179.617C170.266 179.617 169.188 178.633 169.199 177.227C169.188 175.82 170.266 174.836 171.754 174.836ZM171.754 175.609C170.781 175.609 170.066 176.289 170.078 177.227C170.066 178.176 170.781 178.844 171.754 178.832C172.715 178.844 173.418 178.176 173.43 177.227C173.418 176.289 172.715 175.609 171.754 175.609ZM187.621 171.531V181.973H186.695V171.531H187.621ZM182.078 172.34C183.625 172.352 184.738 173.758 184.738 175.973C184.738 178.188 183.625 179.594 182.078 179.594C180.52 179.594 179.418 178.188 179.418 175.973C179.418 173.758 180.52 172.352 182.078 172.34ZM182.078 173.16C181.035 173.172 180.309 174.273 180.309 175.973C180.309 177.672 181.035 178.773 182.078 178.773C183.121 178.773 183.848 177.672 183.848 175.973C183.848 174.273 183.121 173.172 182.078 173.16ZM194.699 172.621C194.688 175.633 193.621 178.387 189.941 180.227L189.414 179.523C191.33 178.562 192.514 177.361 193.164 175.949L189.613 176.289L189.449 175.492L193.445 175.223C193.633 174.643 193.744 174.027 193.785 173.383H189.977V172.621H194.699ZM198.027 171.531V181.949H197.113V176.488H194.664V175.727H197.113V171.531H198.027ZM204.965 173.066C204.965 174.848 207.004 176.441 208.82 176.781L208.398 177.555C206.828 177.191 205.17 176.072 204.496 174.531C203.822 176.066 202.17 177.186 200.594 177.555L200.172 176.781C201.977 176.43 204.004 174.859 204.004 173.066V172.27H204.965V173.066ZM209.312 179.77V180.531H199.773V179.77H209.312ZM215.652 172.117C217.047 172.105 218.043 173.078 218.043 174.473C218.043 175.867 217.047 176.828 215.652 176.828C214.246 176.828 213.262 175.867 213.273 174.473C213.262 173.078 214.246 172.105 215.652 172.117ZM215.652 172.867C214.762 172.867 214.094 173.535 214.105 174.473C214.094 175.398 214.762 176.066 215.652 176.066C216.543 176.066 217.188 175.398 217.199 174.473C217.188 173.535 216.543 172.867 215.652 172.867ZM222.004 171.543V177.215H221.125V174.707H219.742V177.133H218.875V171.742H219.742V173.934H221.125V171.543H222.004ZM216.051 177.684V178.926H221.102V177.684H222.004V181.809H215.137V177.684H216.051ZM216.051 181.059H221.102V179.688H216.051V181.059ZM228.273 172.211C230.453 172.211 232.082 173.348 232.082 175.07C232.082 176.805 230.453 177.941 228.273 177.93C226.094 177.941 224.465 176.805 224.465 175.07C224.465 173.348 226.094 172.211 228.273 172.211ZM228.273 172.961C226.598 172.949 225.332 173.828 225.344 175.07C225.332 176.336 226.598 177.18 228.273 177.18C229.938 177.18 231.191 176.336 231.191 175.07C231.191 173.828 229.938 172.949 228.273 172.961ZM233.066 179.793V180.566H223.527V179.793H233.066ZM243.438 179.887V180.66H233.898V179.887H238.188V177.918H235.094V174.707H241.328V173.066H235.07V172.305H242.23V175.457H236.008V177.156H242.477V177.918H239.09V179.887H243.438ZM256.785 176.488V177.262H247.281V176.488H256.785ZM255.672 174.742V175.492H248.488V171.953H255.602V172.727H249.391V174.742H255.672ZM252.027 178.176C254.266 178.176 255.602 178.855 255.613 180.051C255.602 181.258 254.266 181.926 252.027 181.926C249.777 181.926 248.43 181.258 248.43 180.051C248.43 178.855 249.777 178.176 252.027 178.176ZM252.027 178.891C250.352 178.902 249.355 179.324 249.367 180.051C249.355 180.789 250.352 181.199 252.027 181.199C253.68 181.199 254.688 180.789 254.688 180.051C254.688 179.324 253.68 178.902 252.027 178.891ZM261.156 173.5C261.145 174.93 262.234 176.254 263.77 176.793L263.301 177.531C262.117 177.104 261.197 176.219 260.734 175.105C260.295 176.354 259.352 177.314 258.121 177.789L257.617 177.051C259.199 176.488 260.242 175.082 260.254 173.465V172.176H261.156V173.5ZM265.797 171.531V174.73H267.367V175.516H265.797V179.23H264.883V171.531H265.797ZM266.277 180.953V181.727H259.293V178.492H260.23V180.953H266.277ZM279.637 171.543V179.16H278.723V171.543H279.637ZM279.965 180.953V181.727H272.91V178.387H273.824V180.953H279.965ZM274.012 172.27C275.57 172.27 276.742 173.324 276.742 174.824C276.742 176.348 275.57 177.391 274.012 177.391C272.453 177.391 271.281 176.348 271.281 174.824C271.281 173.324 272.453 172.27 274.012 172.27ZM274.012 173.078C272.957 173.078 272.172 173.805 272.184 174.824C272.172 175.867 272.957 176.582 274.012 176.582C275.043 176.582 275.84 175.867 275.84 174.824C275.84 173.805 275.043 173.078 274.012 173.078ZM290.898 176.488V177.25H281.406V176.488H290.898ZM286.152 178.164C288.391 178.164 289.727 178.855 289.738 180.051C289.727 181.258 288.391 181.926 286.152 181.926C283.902 181.926 282.555 181.258 282.555 180.051C282.555 178.855 283.902 178.164 286.152 178.164ZM286.152 178.891C284.477 178.902 283.48 179.312 283.492 180.051C283.48 180.777 284.477 181.188 286.152 181.188C287.805 181.188 288.812 180.777 288.812 180.051C288.812 179.312 287.805 178.902 286.152 178.891ZM290.055 172.07V172.832H286.75C286.785 174.016 288.52 174.918 290.371 175.129L290.031 175.867C288.326 175.65 286.727 174.889 286.152 173.723C285.584 174.889 283.99 175.65 282.273 175.867L281.945 175.129C283.762 174.918 285.508 174.016 285.555 172.832H282.273V172.07H290.055ZM296.477 172.516L296.395 178.609H295.41L295.328 172.516H296.477ZM295.902 181.07C295.492 181.07 295.141 180.73 295.152 180.309C295.141 179.898 295.492 179.559 295.902 179.559C296.312 179.559 296.652 179.898 296.652 180.309C296.652 180.73 296.312 181.07 295.902 181.07ZM87.9531 206.82C87.2969 206.82 86.7578 206.281 86.7578 205.613C86.7578 204.957 87.2969 204.418 87.9531 204.418C88.6211 204.418 89.1602 204.957 89.1602 205.613C89.1602 206.281 88.6211 206.82 87.9531 206.82ZM106.012 199.543V205.684H105.086V205.109H102.977V204.5H105.086V199.543H106.012ZM97.3867 203.469C99.4023 203.48 101.98 203.457 104.23 203.211L104.289 203.809C103.27 203.955 102.209 204.043 101.172 204.09V205.719H100.27V204.125C99.2852 204.16 98.3418 204.166 97.4922 204.16L97.3867 203.469ZM106.012 206.059V208.215H99.9297V209.152H106.352V209.832H99.0273V207.57H105.098V206.727H98.9805V206.059H106.012ZM100.785 199.742C102.332 199.742 103.363 200.352 103.375 201.312C103.363 202.285 102.332 202.871 100.785 202.871C99.2148 202.871 98.1953 202.285 98.1953 201.312C98.1953 200.352 99.2148 199.742 100.785 199.742ZM100.785 200.387C99.7305 200.387 99.0508 200.75 99.0625 201.312C99.0508 201.863 99.7305 202.238 100.785 202.238C101.828 202.238 102.508 201.863 102.508 201.312C102.508 200.75 101.828 200.387 100.785 200.387ZM115.938 199.531V202.707H117.508V203.48H115.938V207.16H115.012V199.531H115.938ZM113.125 200.34C113.125 203.023 111.203 205.016 108.203 205.953L107.805 205.215C110.301 204.436 111.93 202.947 112.129 201.113H108.238V200.34H113.125ZM116.418 208.953V209.727H109.41V206.387H110.324V208.953H116.418ZM124.48 209.117C122.793 209.117 121.586 208.215 121.527 206.867H122.594C122.652 207.676 123.461 208.18 124.469 208.18C125.582 208.18 126.402 207.57 126.402 206.691C126.402 205.766 125.664 205.109 124.34 205.109H123.648V204.184H124.34C125.371 204.184 126.086 203.609 126.086 202.73C126.086 201.887 125.465 201.312 124.504 201.312C123.602 201.312 122.77 201.816 122.723 202.648H121.703C121.762 201.301 123.004 200.398 124.516 200.398C126.133 200.398 127.117 201.453 127.105 202.672C127.117 203.633 126.555 204.348 125.664 204.594V204.652C126.766 204.828 127.445 205.613 127.434 206.691C127.445 208.086 126.168 209.117 124.48 209.117ZM137.125 199.531V209.949H136.211V199.531H137.125ZM128.641 207.172C129.531 207.166 130.551 207.16 131.605 207.125V205.988C130.357 205.854 129.543 205.145 129.555 204.102C129.543 202.93 130.551 202.168 132.051 202.168C133.551 202.168 134.57 202.93 134.57 204.102C134.57 205.133 133.762 205.842 132.531 205.977V207.09C133.539 207.049 134.559 206.973 135.52 206.844L135.59 207.547C133.27 207.922 130.715 207.957 128.781 207.957L128.641 207.172ZM135.25 200.82V201.57H128.863V200.82H131.605V199.543H132.531V200.82H135.25ZM132.051 202.883C131.09 202.883 130.41 203.375 130.41 204.102C130.41 204.828 131.09 205.297 132.051 205.285C133.023 205.297 133.691 204.828 133.691 204.102C133.691 203.375 133.023 202.883 132.051 202.883ZM150.555 199.531V209.973H149.629V199.531H150.555ZM145.012 200.34C146.559 200.352 147.672 201.758 147.672 203.973C147.672 206.188 146.559 207.594 145.012 207.594C143.453 207.594 142.352 206.188 142.352 203.973C142.352 201.758 143.453 200.352 145.012 200.34ZM145.012 201.16C143.969 201.172 143.242 202.273 143.242 203.973C143.242 205.672 143.969 206.773 145.012 206.773C146.055 206.773 146.781 205.672 146.781 203.973C146.781 202.273 146.055 201.172 145.012 201.16ZM155.816 201.219C155.816 202.637 156.895 203.938 158.406 204.453L157.902 205.18C156.748 204.758 155.84 203.896 155.383 202.812C154.938 204.037 154.012 205.004 152.793 205.473L152.301 204.734C153.859 204.148 154.902 202.754 154.914 201.148V200.07H155.816V201.219ZM160.48 199.531V202.25H162.051V203.023H160.48V205.871H159.566V199.531H160.48ZM157.141 206.141C159.285 206.141 160.574 206.832 160.574 208.027C160.574 209.246 159.285 209.926 157.141 209.926C154.996 209.926 153.684 209.246 153.684 208.027C153.684 206.832 154.996 206.141 157.141 206.141ZM157.141 206.879C155.57 206.879 154.598 207.312 154.609 208.027C154.598 208.766 155.57 209.188 157.141 209.199C158.723 209.188 159.684 208.766 159.684 208.027C159.684 207.312 158.723 206.879 157.141 206.879ZM170.828 200.141V200.891H167.102V203.633C169.141 203.645 170.371 203.568 171.801 203.281L171.918 204.02C170.43 204.336 169.152 204.395 167.008 204.383H166.199V200.141H170.828ZM173.863 199.531V201.746H175.434V202.508H173.863V204.793H172.949V199.531H173.863ZM173.863 205.309V207.875H168.145V209.059H174.25V209.809H167.242V207.148H172.949V206.059H167.219V205.309H173.863ZM179.676 201.172C179.664 202.66 180.719 203.973 182.254 204.488L181.738 205.203C180.59 204.77 179.688 203.926 179.242 202.824C178.791 204.072 177.836 205.045 176.582 205.52L176.078 204.77C177.684 204.207 178.75 202.824 178.762 201.207V200.129H179.676V201.172ZM184.727 199.531V205.707H183.801V202.531H181.48V201.77H183.801V199.531H184.727ZM181.27 206.012C183.438 206.012 184.762 206.727 184.762 207.98C184.762 209.223 183.438 209.926 181.27 209.926C179.102 209.926 177.777 209.223 177.777 207.98C177.777 206.727 179.102 206.012 181.27 206.012ZM181.27 206.738C179.676 206.738 178.68 207.207 178.691 207.98C178.68 208.73 179.676 209.188 181.27 209.188C182.863 209.188 183.848 208.73 183.848 207.98C183.848 207.207 182.863 206.738 181.27 206.738ZM193.176 202.332C193.164 204.23 194.465 206.152 196 206.844L195.438 207.57C194.254 206.99 193.229 205.766 192.73 204.277C192.244 205.854 191.219 207.166 190 207.781L189.414 207.008C190.961 206.293 192.25 204.312 192.262 202.332V200.434H193.176V202.332ZM198.062 199.531V209.973H197.137V199.531H198.062ZM201.555 208.215L200.641 211.402H199.773L200.418 208.215H201.555ZM209.043 202.473C209.043 204.184 209.875 205.953 211.258 206.703L210.707 207.43C209.699 206.85 208.979 205.789 208.609 204.535C208.217 205.9 207.443 207.066 206.406 207.688L205.809 207.008C207.262 206.176 208.152 204.312 208.152 202.531V200.516H209.043V202.473ZM214.855 199.531V209.949H213.965V204.488H212.535V209.422H211.645V199.754H212.535V203.727H213.965V199.531H214.855ZM217.738 200.152V201.887H220.645V200.152H221.547V201.207H224.008V199.531H224.934V205.73H224.008V204.09H221.547V205.133H216.824V200.152H217.738ZM217.738 204.371H220.645V202.613H217.738V204.371ZM224.934 206.281V209.949H224.008V207.031H217.926V206.281H224.934ZM221.547 203.328H224.008V201.969H221.547V203.328ZM236.172 204.488V205.262H226.668V204.488H236.172ZM235.059 202.742V203.492H227.875V199.953H234.988V200.727H228.777V202.742H235.059ZM231.414 206.176C233.652 206.176 234.988 206.855 235 208.051C234.988 209.258 233.652 209.926 231.414 209.926C229.164 209.926 227.816 209.258 227.816 208.051C227.816 206.855 229.164 206.176 231.414 206.176ZM231.414 206.891C229.738 206.902 228.742 207.324 228.754 208.051C228.742 208.789 229.738 209.199 231.414 209.199C233.066 209.199 234.074 208.789 234.074 208.051C234.074 207.324 233.066 206.902 231.414 206.891ZM240.543 201.5C240.531 202.93 241.621 204.254 243.156 204.793L242.688 205.531C241.504 205.104 240.584 204.219 240.121 203.105C239.682 204.354 238.738 205.314 237.508 205.789L237.004 205.051C238.586 204.488 239.629 203.082 239.641 201.465V200.176H240.543V201.5ZM245.184 199.531V202.73H246.754V203.516H245.184V207.23H244.27V199.531H245.184ZM245.664 208.953V209.727H238.68V206.492H239.617V208.953H245.664ZM255.613 201.066C255.613 202.848 257.652 204.441 259.469 204.781L259.047 205.555C257.477 205.191 255.818 204.072 255.145 202.531C254.471 204.066 252.818 205.186 251.242 205.555L250.82 204.781C252.625 204.43 254.652 202.859 254.652 201.066V200.27H255.613V201.066ZM259.961 207.77V208.531H250.422V207.77H259.961ZM265.305 200.211V200.973H262.141V202.25H265.188V202.988H262.141V204.383C263.658 204.377 264.607 204.336 265.727 204.113L265.82 204.852C264.602 205.098 263.617 205.145 261.918 205.133H261.262V200.211H265.305ZM269.641 199.543V205.695H268.762V202.977H267.297V205.555H266.441V199.742H267.297V202.203H268.762V199.543H269.641ZM269.641 206.211V209.809H262.762V206.211H269.641ZM263.664 206.949V209.059H268.738V206.949H263.664ZM280.703 207.828V208.613H271.164V207.828H280.703ZM279.789 200.586V201.348H278.137V204.992H279.766V205.742H272.031V204.992H273.66V201.348H272.008V200.586H279.789ZM274.574 204.992H277.234V201.348H274.574V204.992ZM288.273 202.73C288.273 204.5 289.562 206.293 291.098 206.961L290.582 207.688C289.363 207.131 288.309 205.93 287.828 204.488C287.336 206.018 286.287 207.348 285.098 207.945L284.547 207.219C286.035 206.504 287.336 204.535 287.348 202.73V201.371H284.887V200.609H290.758V201.371H288.273V202.73ZM293.137 199.531V209.949H292.211V199.531H293.137ZM297.074 205.496V206.879H302.289V205.496H303.203V209.809H296.16V205.496H297.074ZM297.074 209.059H302.289V207.605H297.074V209.059ZM303.203 200.012V200.773C303.203 201.57 303.203 202.496 302.922 203.797H304.457V204.559H294.918V203.797H302.02C302.289 202.502 302.289 201.57 302.289 200.773H296.125V200.012H303.203Z" fill="black"/>
<path d="M57.0234 223.543V231.184H56.1094V223.543H57.0234ZM57.3516 232.953V233.727H50.2969V230.48H51.2109V232.953H57.3516ZM52.1133 225.172C52.1016 226.754 53.1914 228.184 54.7383 228.746L54.2578 229.484C53.0508 229.021 52.1133 228.084 51.6562 226.883C51.1934 228.16 50.2441 229.186 49.0312 229.672L48.5273 228.957C50.1094 228.348 51.1758 226.812 51.1758 225.172V224.129H52.1133V225.172ZM62.3438 225.77C62.3438 227.07 63.4688 228.23 65.0039 228.688L64.5586 229.402C63.3516 229.045 62.3848 228.254 61.9219 227.223C61.4648 228.365 60.5156 229.262 59.2734 229.672L58.8281 228.969C60.3633 228.453 61.4414 227.188 61.4414 225.77V225.547H59.0859V224.809H61.4414V223.484H62.3672V224.809H64.6992V225.547H62.3438V225.77ZM67.4297 223.531V229.848H66.5039V227.281H64.3711V226.52H66.5039V223.531H67.4297ZM63.9727 230.129C66.1406 230.129 67.4648 230.809 67.4648 232.027C67.4648 233.234 66.1406 233.926 63.9727 233.926C61.8047 233.926 60.4805 233.234 60.4805 232.027C60.4805 230.809 61.8047 230.129 63.9727 230.129ZM63.9727 230.844C62.3789 230.855 61.3828 231.289 61.3945 232.027C61.3828 232.754 62.3789 233.199 63.9727 233.199C65.5781 233.199 66.5508 232.754 66.5508 232.027C66.5508 231.289 65.5781 230.855 63.9727 230.844ZM77.4141 224.586V231.301H72.6094V224.586H77.4141ZM73.5 225.324V230.551H76.5V225.324H73.5ZM80.2383 223.531V227.691H81.9844V228.488H80.2383V233.949H79.3242V223.531H80.2383ZM90.6914 223.531V226.086H92.2617V226.848H90.6914V229.449H89.7773V223.531H90.6914ZM87.8438 224.211C87.832 226.836 85.9922 228.711 82.9102 229.555L82.5352 228.816C85.1016 228.125 86.666 226.736 86.8594 224.973H83.0039V224.211H87.8438ZM90.6914 229.93V233.809H84.0938V229.93H90.6914ZM85.0078 230.691V233.059H89.7773V230.691H85.0078ZM95.8711 223.918C97.4297 223.93 98.5664 224.867 98.5664 226.227C98.5664 227.586 97.4297 228.523 95.8711 228.523C94.2891 228.523 93.1641 227.586 93.1641 226.227C93.1641 224.867 94.2891 223.93 95.8711 223.918ZM95.8711 224.691C94.8281 224.691 94.0547 225.324 94.0664 226.227C94.0547 227.141 94.8281 227.773 95.8711 227.773C96.9023 227.773 97.6758 227.141 97.6758 226.227C97.6758 225.324 96.9023 224.691 95.8711 224.691ZM101.52 223.531V228.887H100.605V223.531H101.52ZM101.52 229.391V231.898H95.6719V233.07H101.895V233.809H94.7695V231.207H100.605V230.129H94.7461V229.391H101.52Z" fill="black"/>
<path d="M113.797 233L113.785 232.227L116.68 229.18C117.688 228.113 118.168 227.539 118.168 226.754C118.168 225.887 117.43 225.312 116.48 225.312C115.473 225.312 114.828 225.957 114.828 226.906H113.832C113.82 225.406 114.98 224.398 116.516 224.398C118.051 224.398 119.152 225.43 119.152 226.754C119.152 227.703 118.707 228.441 117.207 229.988L115.262 231.992V232.062H119.305V233H113.797ZM123.617 233.117C121.73 233.117 120.652 231.535 120.652 228.758C120.652 226.004 121.754 224.398 123.617 224.398C125.48 224.398 126.582 226.004 126.582 228.758C126.582 231.535 125.492 233.117 123.617 233.117ZM123.617 232.18C124.836 232.18 125.551 230.949 125.551 228.758C125.551 226.566 124.836 225.312 123.617 225.312C122.398 225.312 121.672 226.566 121.672 228.758C121.672 230.949 122.387 232.18 123.617 232.18ZM127.988 233L127.977 232.227L130.871 229.18C131.879 228.113 132.359 227.539 132.359 226.754C132.359 225.887 131.621 225.312 130.672 225.312C129.664 225.312 129.02 225.957 129.02 226.906H128.023C128.012 225.406 129.172 224.398 130.707 224.398C132.242 224.398 133.344 225.43 133.344 226.754C133.344 227.703 132.898 228.441 131.398 229.988L129.453 231.992V232.062H133.496V233H127.988ZM137.797 233.117C136.262 233.117 135.102 232.168 135.043 230.867H136.062C136.145 231.629 136.883 232.191 137.797 232.191C138.898 232.191 139.695 231.383 139.695 230.316C139.695 229.215 138.863 228.406 137.727 228.395C137.012 228.383 136.461 228.605 136.145 229.156H135.125L135.723 224.516H140.316V225.453H136.602L136.285 227.938H136.367C136.742 227.645 137.316 227.445 137.914 227.445C139.531 227.445 140.727 228.641 140.727 230.293C140.727 231.934 139.484 233.117 137.797 233.117ZM142.602 233.07C142.191 233.07 141.84 232.73 141.852 232.309C141.84 231.898 142.191 231.559 142.602 231.559C143.012 231.559 143.352 231.898 143.352 232.309C143.352 232.73 143.012 233.07 142.602 233.07ZM147.395 233.117C145.508 233.117 144.43 231.535 144.43 228.758C144.43 226.004 145.531 224.398 147.395 224.398C149.258 224.398 150.359 226.004 150.359 228.758C150.359 231.535 149.27 233.117 147.395 233.117ZM147.395 232.18C148.613 232.18 149.328 230.949 149.328 228.758C149.328 226.566 148.613 225.312 147.395 225.312C146.176 225.312 145.449 226.566 145.449 228.758C145.449 230.949 146.164 232.18 147.395 232.18ZM154.531 233.117C152.996 233.117 151.836 232.168 151.777 230.867H152.797C152.879 231.629 153.617 232.191 154.531 232.191C155.633 232.191 156.43 231.383 156.43 230.316C156.43 229.215 155.598 228.406 154.461 228.395C153.746 228.383 153.195 228.605 152.879 229.156H151.859L152.457 224.516H157.051V225.453H153.336L153.02 227.938H153.102C153.477 227.645 154.051 227.445 154.648 227.445C156.266 227.445 157.461 228.641 157.461 230.293C157.461 231.934 156.219 233.117 154.531 233.117ZM159.336 233.07C158.926 233.07 158.574 232.73 158.586 232.309C158.574 231.898 158.926 231.559 159.336 231.559C159.746 231.559 160.086 231.898 160.086 232.309C160.086 232.73 159.746 233.07 159.336 233.07ZM164.129 233.117C162.242 233.117 161.164 231.535 161.164 228.758C161.164 226.004 162.266 224.398 164.129 224.398C165.992 224.398 167.094 226.004 167.094 228.758C167.094 231.535 166.004 233.117 164.129 233.117ZM164.129 232.18C165.348 232.18 166.062 230.949 166.062 228.758C166.062 226.566 165.348 225.312 164.129 225.312C162.91 225.312 162.184 226.566 162.184 228.758C162.184 230.949 162.898 232.18 164.129 232.18ZM171.5 224.516V233H170.434V225.617H170.387L168.324 226.988V225.922L170.434 224.516H171.5Z" fill="black"/>
<path d="M101.68 36.864V37.776H99.796V43.596H98.764V32.64H99.796V36.864H101.68ZM95.548 37.356C96.232 38.412 97.168 39.468 98.236 40.236L97.468 40.98C96.508 40.248 95.704 39.288 95.008 38.244C94.132 39.528 92.992 40.632 91.756 41.34L91.024 40.644C93.58 39.264 95.236 36.348 95.44 34.44C94.54 34.476 93.664 34.476 92.776 34.476H91.648V33.6H93.46C94.48 33.6 95.536 33.6 96.664 33.576C96.616 34.86 96.208 36.168 95.548 37.356ZM102.467 41.652C102.467 41.22 102.791 40.896 103.307 40.896C103.823 40.896 104.183 41.328 104.183 41.892C104.183 42.888 103.475 43.716 102.623 44.004L102.407 43.548C102.875 43.368 103.199 43.032 103.331 42.612C103.379 42.42 103.367 42.348 103.187 42.348C102.815 42.348 102.467 42.024 102.467 41.652ZM108.197 41.088H112.757V38.904C110.849 38.724 109.661 37.56 109.661 36.036C109.661 34.368 111.077 33.144 113.297 33.144C115.517 33.144 116.933 34.368 116.933 36.036C116.933 37.56 115.745 38.724 113.837 38.904V41.088H118.397V41.964H108.197V41.088ZM115.877 36.036C115.877 34.956 115.025 34.044 113.297 34.044C111.569 34.044 110.717 34.956 110.717 36.036C110.717 37.116 111.569 38.052 113.297 38.052C115.025 38.052 115.877 37.116 115.877 36.036ZM120.505 35.844V32.676H121.561V34.968H127.669V35.844H120.505ZM118.777 36.864H129.217V37.716H118.777V36.864ZM127.825 43.596H120.457V40.788H126.517V39.66H120.457V38.808H127.537V41.604H121.477V42.744H127.825V43.596ZM134.24 38.688H131.312V33.588H138.152V34.488H132.356V37.788H138.26V38.688H135.296V41.088H139.796V41.964H129.596V41.088H134.24V38.688ZM148.295 35.508H142.967V34.596H145.175V32.856H146.207V34.596H148.295V35.508ZM143.387 38.652C143.387 37.236 144.359 36.252 145.691 36.252C147.011 36.252 147.995 37.236 147.995 38.652C147.995 40.104 147.011 41.112 145.691 41.112C144.359 41.112 143.387 40.104 143.387 38.652ZM144.359 38.652C144.359 39.612 144.911 40.2 145.691 40.2C146.471 40.2 147.011 39.612 147.011 38.652C147.011 37.728 146.471 37.152 145.691 37.152C144.911 37.152 144.359 37.728 144.359 38.652ZM152.279 32.64V43.596H151.247V37.992H149.975V43.32H148.967V32.76H149.975V37.104H151.247V32.64H152.279ZM161.25 38.004V36H156.318V38.004H161.25ZM158.238 38.856H155.286V33.252H156.33V35.124H161.238V33.252H162.282V38.856H159.318V41.088H163.878V41.964H153.678V41.088H158.238V38.856ZM174.805 36.828V37.728H172.921V43.596H171.889V32.64H172.921V36.828H174.805ZM164.965 40.788V33.576H170.029V34.452H166.021V39.876H167.221C168.829 39.876 170.245 39.612 171.085 39.432V40.308C170.173 40.56 168.505 40.788 167.077 40.788H164.965ZM183.472 36.396V38.496H178.42V33.216H183.472V35.484H185.848V32.64H186.88V40.536H185.848V36.396H183.472ZM179.464 37.608H182.488V34.092H179.464V37.608ZM187.12 42.48V43.38H180.04V40.02H181.084V42.48H187.12ZM196.547 37.512H194.363V36.612H196.547V32.64H197.579V43.596H196.547V37.512ZM192.995 37.356C193.679 38.412 194.615 39.468 195.683 40.236L194.915 40.98C193.955 40.248 193.151 39.288 192.455 38.244C191.579 39.528 190.439 40.632 189.203 41.34L188.471 40.644C191.027 39.264 192.683 36.348 192.887 34.44C191.987 34.476 191.111 34.476 190.223 34.476H189.095V33.6H190.907C191.927 33.6 192.983 33.6 194.111 33.576C194.063 34.86 193.655 36.168 192.995 37.356ZM203.438 36.588V32.94H210.362V33.84H204.494V35.724H210.434V36.588H203.438ZM201.722 37.752H212.162V38.64H201.722V37.752ZM210.674 41.592C210.674 42.792 209.414 43.692 206.966 43.692C204.506 43.692 203.234 42.792 203.234 41.592C203.234 40.404 204.506 39.564 206.966 39.564C209.414 39.564 210.674 40.404 210.674 41.592ZM209.558 41.592C209.558 40.992 208.934 40.368 206.966 40.368C204.986 40.368 204.362 40.992 204.362 41.592C204.362 42.204 204.986 42.828 206.966 42.828C208.934 42.828 209.558 42.204 209.558 41.592ZM213.813 34.152H212.781V33.264H218.769V34.152H217.761L217.665 37.68C218.349 37.632 219.009 37.548 219.621 37.404V38.244C218.649 38.52 217.317 38.604 216.021 38.604H212.553V37.74H213.897L213.813 34.152ZM222.873 35.616V36.528H221.145V40.68H220.113V32.64H221.145V35.616H222.873ZM221.325 42.48V43.38H214.545V40.116H215.589V42.48H221.325ZM216.669 37.728L216.765 34.152H214.809L214.893 37.74H216.333C216.441 37.74 216.561 37.74 216.669 37.728ZM229.84 34.632H223.204V33.768H225.964V32.484H227.044V33.768H229.84V34.632ZM226.492 38.7C224.704 38.7 223.876 37.8 223.876 36.876C223.876 35.952 224.752 35.088 226.492 35.088C228.232 35.088 229.108 35.952 229.108 36.876C229.108 37.8 228.256 38.7 226.492 38.7ZM226.492 37.908C227.536 37.908 228.052 37.416 228.052 36.9C228.052 36.372 227.56 35.868 226.492 35.868C225.4 35.868 224.932 36.384 224.932 36.9C224.932 37.416 225.448 37.908 226.492 37.908ZM233.572 35.508V36.42H231.844V38.892H230.812V32.64H231.844V35.508H233.572ZM231.844 39.516V43.428H225.076V39.6H226.108V40.62H230.824V39.516H231.844ZM226.096 42.588H230.824V41.448H226.096V42.588ZM242.028 43.596V32.64H243.06V43.596H242.028ZM237.336 40.44H234.648V33.432H235.716V39.516H237.48C239.088 39.516 240.504 39.252 241.344 39.06V39.96C240.432 40.2 238.764 40.44 237.336 40.44ZM255.067 36.828V37.728H253.183V43.596H252.151V32.64H253.183V36.828H255.067ZM245.227 40.788V33.576H250.291V34.452H246.283V39.876H247.483C249.091 39.876 250.507 39.612 251.347 39.432V40.308C250.435 40.56 248.767 40.788 247.339 40.788H245.227ZM256.958 39.864L256.766 33.144H258.05L257.81 39.864H256.958ZM257.402 41.064C257.882 41.064 258.218 41.4 258.218 41.868C258.218 42.336 257.882 42.672 257.402 42.672C256.922 42.672 256.586 42.336 256.586 41.868C256.586 41.4 256.922 41.064 257.402 41.064Z" fill="black"/>
<path d="M76.9883 67.3633V50.2344H80.8945V56.9922H82.6523V60.2734H80.8945V67.3633H76.9883ZM64.8789 54.9414V51.6211H68.4922V49.9414H72.3984V51.6211H75.9922V54.9414H74.4297C75.1719 56.0938 75.3867 57.8711 75.3867 60.332C75.3867 64.4336 74.1562 66.9531 70.4453 66.9531C66.7344 66.9531 65.5039 64.4336 65.5039 60.332C65.5039 57.8711 65.7188 56.0938 66.4609 54.9414H64.8789ZM69.3906 59.5898C69.3906 62.793 69.7812 63.5547 70.4453 63.5547C71.1094 63.5547 71.5 62.793 71.5 59.5898C71.5 56.3867 71.1094 55.6445 70.4453 55.6445C69.7812 55.6445 69.3906 56.3867 69.3906 59.5898ZM96.1289 67.3633V50.2344H100.035V67.3633H96.1289ZM84.2148 62.793V54.5898C84.2148 51.8164 86.0312 50.4297 89.2148 50.4297C92.3984 50.4297 94.2148 51.8164 94.2148 54.5898V62.793C94.2148 65.5859 92.3984 66.9531 89.2148 66.9531C86.0312 66.9531 84.2148 65.5859 84.2148 62.793ZM88.1211 62.0703C88.1211 63.0469 88.5312 63.5352 89.293 63.5352C90.0352 63.5352 90.4648 63.0469 90.4648 62.0703V55.3125C90.4648 54.3359 90.0352 53.8477 89.293 53.8477C88.5312 53.8477 88.1211 54.3359 88.1211 55.3125V62.0703ZM107.008 66.0547C107.652 64.4922 108.141 62.6172 108.414 60.4883H102.574V57.168H108.648V56.6602V53.9453H102.77V50.625H112.555V55.6836V56.0156H114.879V50.2344H118.785V67.3633H114.879V59.2969H112.438C112.242 62.168 111.773 64.6875 110.914 66.875L107.008 66.0547ZM121.129 64.1406H138.121V67.4609H121.129V64.1406ZM121.598 61.3672V57.7734C124.957 57.4414 127.301 56.1328 127.301 53.5547V50.4688H131.402V53.0859C131.402 53.4961 131.363 53.9258 131.305 54.3164C132.242 55.957 135.211 57.3242 137.848 57.7344L137.34 61.2891C133.727 60.7422 131.559 59.6484 129.82 57.793C128.238 59.8242 125.465 61.2109 121.598 61.3672Z" fill="black"/>
<mask id="path-26-outside-2_1253_477" maskUnits="userSpaceOnUse" x="144" y="49" width="82" height="20" fill="black">
<rect fill="white" x="144" y="49" width="82" height="20"/>
<path d="M158.77 67.3633V59.4922H157.578V67.2852H154.453V50.3125H157.578V56.2109H158.77V50.2344H162.285V67.3633H158.77ZM145.43 66.8359V63.0469C146.875 62.9688 148.047 61.6211 148.047 56.875V50.4688H151.562V56.4062C151.562 56.9727 151.543 57.5195 151.504 58.0469C151.914 61.0742 153.066 62.8125 154.375 63.1055L153.594 66.7578C152.051 66.582 150.898 65.5664 150.059 63.5352C149.023 65.4688 147.441 66.6602 145.43 66.8359ZM174.98 59.4141C173.359 59.9609 171.758 60.2539 170.098 60.2539C168.438 60.2539 166.836 59.9609 165.215 59.4141V50.625H169.121V52.2461H171.27V50.625H174.98V59.4141ZM166.172 64.8828V61.5625H181.035V64.2969C181.035 65.5859 180.957 66.6016 180.723 67.5586L176.895 67.3633C177.051 66.6016 177.129 65.8008 177.129 64.8828H166.172ZM169.121 56.9141C169.492 57.0508 169.824 57.1094 170.195 57.1094C170.566 57.1094 170.898 57.0508 171.27 56.9141V55.1758H169.121V56.9141ZM175.391 58.7305V55.8398H177.129V54.2969H175.391V51.4062H177.129V50.2344H181.035V60.5469H177.129V58.7305H175.391ZM188.066 60.4102V57.3242H205.059V60.4102H188.066ZM188.652 54.0039C188.652 53.6328 188.73 53.2617 188.828 52.9883H188.652V50.2344H204.277V52.9883H192.578C192.559 53.0664 192.559 53.1641 192.559 53.2617C192.559 53.7305 193.477 53.8672 197.52 53.8672C199.805 53.8672 202.148 53.7891 204.277 53.6523V56.3086C202.148 56.4453 199.375 56.5234 196.738 56.5234C190.84 56.5234 188.652 55.6641 188.652 54.0039ZM188.691 64.4141C188.691 62.0508 190.352 61.2695 193.184 61.2695H199.941C202.773 61.2695 204.434 62.0508 204.434 64.4141C204.434 66.7773 202.812 67.5586 199.941 67.5586H193.184C190.312 67.5586 188.691 66.7773 188.691 64.4141ZM192.793 64.3945C192.793 64.6875 193.027 64.8047 193.496 64.8047H199.629C200.098 64.8047 200.332 64.6875 200.332 64.3945C200.332 64.1016 200.098 63.9844 199.629 63.9844H193.496C193.027 63.9844 192.793 64.1016 192.793 64.3945ZM215.527 67.5586C209.844 67.5586 207.93 66.3281 207.93 63.9844V60.9375H211.836V63.3789C211.836 64.0234 212.324 64.3359 215.527 64.3359C218.652 64.3359 220.898 64.1016 222.93 63.6719V66.8945C220.996 67.2461 218.242 67.5586 215.527 67.5586ZM206.367 60.7812V57.0898C208.516 56.875 209.863 55.6445 209.863 53.1836V50.4688H213.77V52.6953C213.77 53.0859 213.75 53.4766 213.711 53.8672C214.316 55.6641 216.465 57.168 218.359 57.6172L216.484 60.7031C214.648 60.1562 213.32 59.1797 212.266 57.6953C211.016 59.4727 209.004 60.6445 206.367 60.7812ZM218.926 61.8945V50.2344H222.832V53.4766H224.59V56.7578H222.832V61.8945H218.926Z"/>
</mask>
<path d="M158.77 67.3633V59.4922H157.578V67.2852H154.453V50.3125H157.578V56.2109H158.77V50.2344H162.285V67.3633H158.77ZM145.43 66.8359V63.0469C146.875 62.9688 148.047 61.6211 148.047 56.875V50.4688H151.562V56.4062C151.562 56.9727 151.543 57.5195 151.504 58.0469C151.914 61.0742 153.066 62.8125 154.375 63.1055L153.594 66.7578C152.051 66.582 150.898 65.5664 150.059 63.5352C149.023 65.4688 147.441 66.6602 145.43 66.8359ZM174.98 59.4141C173.359 59.9609 171.758 60.2539 170.098 60.2539C168.438 60.2539 166.836 59.9609 165.215 59.4141V50.625H169.121V52.2461H171.27V50.625H174.98V59.4141ZM166.172 64.8828V61.5625H181.035V64.2969C181.035 65.5859 180.957 66.6016 180.723 67.5586L176.895 67.3633C177.051 66.6016 177.129 65.8008 177.129 64.8828H166.172ZM169.121 56.9141C169.492 57.0508 169.824 57.1094 170.195 57.1094C170.566 57.1094 170.898 57.0508 171.27 56.9141V55.1758H169.121V56.9141ZM175.391 58.7305V55.8398H177.129V54.2969H175.391V51.4062H177.129V50.2344H181.035V60.5469H177.129V58.7305H175.391ZM188.066 60.4102V57.3242H205.059V60.4102H188.066ZM188.652 54.0039C188.652 53.6328 188.73 53.2617 188.828 52.9883H188.652V50.2344H204.277V52.9883H192.578C192.559 53.0664 192.559 53.1641 192.559 53.2617C192.559 53.7305 193.477 53.8672 197.52 53.8672C199.805 53.8672 202.148 53.7891 204.277 53.6523V56.3086C202.148 56.4453 199.375 56.5234 196.738 56.5234C190.84 56.5234 188.652 55.6641 188.652 54.0039ZM188.691 64.4141C188.691 62.0508 190.352 61.2695 193.184 61.2695H199.941C202.773 61.2695 204.434 62.0508 204.434 64.4141C204.434 66.7773 202.812 67.5586 199.941 67.5586H193.184C190.312 67.5586 188.691 66.7773 188.691 64.4141ZM192.793 64.3945C192.793 64.6875 193.027 64.8047 193.496 64.8047H199.629C200.098 64.8047 200.332 64.6875 200.332 64.3945C200.332 64.1016 200.098 63.9844 199.629 63.9844H193.496C193.027 63.9844 192.793 64.1016 192.793 64.3945ZM215.527 67.5586C209.844 67.5586 207.93 66.3281 207.93 63.9844V60.9375H211.836V63.3789C211.836 64.0234 212.324 64.3359 215.527 64.3359C218.652 64.3359 220.898 64.1016 222.93 63.6719V66.8945C220.996 67.2461 218.242 67.5586 215.527 67.5586ZM206.367 60.7812V57.0898C208.516 56.875 209.863 55.6445 209.863 53.1836V50.4688H213.77V52.6953C213.77 53.0859 213.75 53.4766 213.711 53.8672C214.316 55.6641 216.465 57.168 218.359 57.6172L216.484 60.7031C214.648 60.1562 213.32 59.1797 212.266 57.6953C211.016 59.4727 209.004 60.6445 206.367 60.7812ZM218.926 61.8945V50.2344H222.832V53.4766H224.59V56.7578H222.832V61.8945H218.926Z" fill="#FFE400"/>
<path d="M158.77 67.3633H157.97V68.1633H158.77V67.3633ZM158.77 59.4922H159.57V58.6922H158.77V59.4922ZM157.578 59.4922V58.6922H156.778V59.4922H157.578ZM157.578 67.2852V68.0852H158.378V67.2852H157.578ZM154.453 67.2852H153.653V68.0852H154.453V67.2852ZM154.453 50.3125V49.5125H153.653V50.3125H154.453ZM157.578 50.3125H158.378V49.5125H157.578V50.3125ZM157.578 56.2109H156.778V57.0109H157.578V56.2109ZM158.77 56.2109V57.0109H159.57V56.2109H158.77ZM158.77 50.2344V49.4344H157.97V50.2344H158.77ZM162.285 50.2344H163.085V49.4344H162.285V50.2344ZM162.285 67.3633V68.1633H163.085V67.3633H162.285ZM145.43 66.8359H144.63V67.7089L145.499 67.6329L145.43 66.8359ZM145.43 63.0469L145.387 62.248L144.63 62.2889V63.0469H145.43ZM148.047 50.4688V49.6687H147.247V50.4688H148.047ZM151.562 50.4688H152.363V49.6687H151.562V50.4688ZM151.504 58.0469L150.706 57.9878L150.7 58.0713L150.711 58.1543L151.504 58.0469ZM154.375 63.1055L155.157 63.2728L155.323 62.4979L154.55 62.3248L154.375 63.1055ZM153.594 66.7578L153.503 67.5527L154.224 67.6348L154.376 66.9251L153.594 66.7578ZM150.059 63.5352L150.798 63.2295L150.152 61.6664L149.353 63.1576L150.059 63.5352ZM158.77 67.3633H159.57V59.4922H158.77H157.97V67.3633H158.77ZM158.77 59.4922V58.6922H157.578V59.4922V60.2922H158.77V59.4922ZM157.578 59.4922H156.778V67.2852H157.578H158.378V59.4922H157.578ZM157.578 67.2852V66.4852H154.453V67.2852V68.0852H157.578V67.2852ZM154.453 67.2852H155.253V50.3125H154.453H153.653V67.2852H154.453ZM154.453 50.3125V51.1125H157.578V50.3125V49.5125H154.453V50.3125ZM157.578 50.3125H156.778V56.2109H157.578H158.378V50.3125H157.578ZM157.578 56.2109V57.0109H158.77V56.2109V55.4109H157.578V56.2109ZM158.77 56.2109H159.57V50.2344H158.77H157.97V56.2109H158.77ZM158.77 50.2344V51.0344H162.285V50.2344V49.4344H158.77V50.2344ZM162.285 50.2344H161.485V67.3633H162.285H163.085V50.2344H162.285ZM162.285 67.3633V66.5633H158.77V67.3633V68.1633H162.285V67.3633ZM145.43 66.8359H146.23V63.0469H145.43H144.63V66.8359H145.43ZM145.43 63.0469L145.473 63.8457C145.957 63.8195 146.446 63.684 146.896 63.3799C147.344 63.0775 147.709 62.6383 147.995 62.0714C148.553 60.9626 148.847 59.2875 148.847 56.875H148.047H147.247C147.247 59.2086 146.954 60.5804 146.566 61.3514C146.378 61.7245 146.179 61.9334 146.001 62.054C145.825 62.1729 145.625 62.2351 145.387 62.248L145.43 63.0469ZM148.047 56.875H148.847V50.4688H148.047H147.247V56.875H148.047ZM148.047 50.4688V51.2687H151.562V50.4688V49.6687H148.047V50.4688ZM151.562 50.4688H150.762V56.4062H151.562H152.363V50.4688H151.562ZM151.562 56.4062H150.762C150.762 56.9543 150.744 57.4814 150.706 57.9878L151.504 58.0469L152.302 58.106C152.342 57.5576 152.363 56.991 152.363 56.4062H151.562ZM151.504 58.0469L150.711 58.1543C150.926 59.7386 151.341 61.041 151.914 62.0091C152.483 62.9708 153.256 63.6747 154.2 63.8861L154.375 63.1055L154.55 62.3248C154.185 62.2432 153.728 61.9315 153.291 61.194C152.858 60.4629 152.492 59.3825 152.297 57.9395L151.504 58.0469ZM154.375 63.1055L153.593 62.9381L152.811 66.5905L153.594 66.7578L154.376 66.9251L155.157 63.2728L154.375 63.1055ZM153.594 66.7578L153.684 65.963C152.532 65.8316 151.572 65.1012 150.798 63.2295L150.059 63.5352L149.319 63.8408C150.225 66.0316 151.57 67.3324 153.503 67.5527L153.594 66.7578ZM150.059 63.5352L149.353 63.1576C148.42 64.9008 147.053 65.8911 145.36 66.039L145.43 66.8359L145.499 67.6329C147.83 67.4293 149.627 66.0367 150.764 63.9127L150.059 63.5352ZM174.98 59.4141L175.236 60.1721L175.78 59.9885V59.4141H174.98ZM165.215 59.4141H164.415V59.9885L164.959 60.1721L165.215 59.4141ZM165.215 50.625V49.825H164.415V50.625H165.215ZM169.121 50.625H169.921V49.825H169.121V50.625ZM169.121 52.2461H168.321V53.0461H169.121V52.2461ZM171.27 52.2461V53.0461H172.07V52.2461H171.27ZM171.27 50.625V49.825H170.47V50.625H171.27ZM174.98 50.625H175.78V49.825H174.98V50.625ZM166.172 64.8828H165.372V65.6828H166.172V64.8828ZM166.172 61.5625V60.7625H165.372V61.5625H166.172ZM181.035 61.5625H181.835V60.7625H181.035V61.5625ZM180.723 67.5586L180.682 68.3576L181.342 68.3913L181.5 67.7489L180.723 67.5586ZM176.895 67.3633L176.111 67.2025L175.924 68.1148L176.854 68.1622L176.895 67.3633ZM177.129 64.8828H177.929V64.0828H177.129V64.8828ZM169.121 56.9141H168.321V57.4719L168.845 57.6647L169.121 56.9141ZM171.27 56.9141L171.546 57.6647L172.07 57.4719V56.9141H171.27ZM171.27 55.1758H172.07V54.3758H171.27V55.1758ZM169.121 55.1758V54.3758H168.321V55.1758H169.121ZM175.391 58.7305H174.591V59.5305H175.391V58.7305ZM175.391 55.8398V55.0398H174.591V55.8398H175.391ZM177.129 55.8398V56.6398H177.929V55.8398H177.129ZM177.129 54.2969H177.929V53.4969H177.129V54.2969ZM175.391 54.2969H174.591V55.0969H175.391V54.2969ZM175.391 51.4062V50.6062H174.591V51.4062H175.391ZM177.129 51.4062V52.2062H177.929V51.4062H177.129ZM177.129 50.2344V49.4344H176.329V50.2344H177.129ZM181.035 50.2344H181.835V49.4344H181.035V50.2344ZM181.035 60.5469V61.3469H181.835V60.5469H181.035ZM177.129 60.5469H176.329V61.3469H177.129V60.5469ZM177.129 58.7305H177.929V57.9305H177.129V58.7305ZM174.98 59.4141L174.725 58.656C173.175 59.1788 171.66 59.4539 170.098 59.4539V60.2539V61.0539C171.856 61.0539 173.544 60.7431 175.236 60.1721L174.98 59.4141ZM170.098 60.2539V59.4539C168.535 59.4539 167.02 59.1788 165.471 58.656L165.215 59.4141L164.959 60.1721C166.652 60.7431 168.34 61.0539 170.098 61.0539V60.2539ZM165.215 59.4141H166.015V50.625H165.215H164.415V59.4141H165.215ZM165.215 50.625V51.425H169.121V50.625V49.825H165.215V50.625ZM169.121 50.625H168.321V52.2461H169.121H169.921V50.625H169.121ZM169.121 52.2461V53.0461H171.27V52.2461V51.4461H169.121V52.2461ZM171.27 52.2461H172.07V50.625H171.27H170.47V52.2461H171.27ZM171.27 50.625V51.425H174.98V50.625V49.825H171.27V50.625ZM174.98 50.625H174.18V59.4141H174.98H175.78V50.625H174.98ZM166.172 64.8828H166.972V61.5625H166.172H165.372V64.8828H166.172ZM166.172 61.5625V62.3625H181.035V61.5625V60.7625H166.172V61.5625ZM181.035 61.5625H180.235V64.2969H181.035H181.835V61.5625H181.035ZM181.035 64.2969H180.235C180.235 65.5567 180.158 66.5002 179.946 67.3683L180.723 67.5586L181.5 67.7489C181.756 66.7029 181.835 65.6151 181.835 64.2969H181.035ZM180.723 67.5586L180.763 66.7596L176.935 66.5643L176.895 67.3633L176.854 68.1622L180.682 68.3576L180.723 67.5586ZM176.895 67.3633L177.678 67.524C177.847 66.7031 177.929 65.8479 177.929 64.8828H177.129H176.329C176.329 65.7536 176.255 66.5 176.111 67.2025L176.895 67.3633ZM177.129 64.8828V64.0828H166.172V64.8828V65.6828H177.129V64.8828ZM169.121 56.9141L168.845 57.6647C169.302 57.8333 169.728 57.9094 170.195 57.9094V57.1094V56.3094C169.921 56.3094 169.682 56.2683 169.398 56.1634L169.121 56.9141ZM170.195 57.1094V57.9094C170.663 57.9094 171.089 57.8333 171.546 57.6647L171.27 56.9141L170.993 56.1634C170.708 56.2683 170.47 56.3094 170.195 56.3094V57.1094ZM171.27 56.9141H172.07V55.1758H171.27H170.47V56.9141H171.27ZM171.27 55.1758V54.3758H169.121V55.1758V55.9758H171.27V55.1758ZM169.121 55.1758H168.321V56.9141H169.121H169.921V55.1758H169.121ZM175.391 58.7305H176.191V55.8398H175.391H174.591V58.7305H175.391ZM175.391 55.8398V56.6398H177.129V55.8398V55.0398H175.391V55.8398ZM177.129 55.8398H177.929V54.2969H177.129H176.329V55.8398H177.129ZM177.129 54.2969V53.4969H175.391V54.2969V55.0969H177.129V54.2969ZM175.391 54.2969H176.191V51.4062H175.391H174.591V54.2969H175.391ZM175.391 51.4062V52.2062H177.129V51.4062V50.6062H175.391V51.4062ZM177.129 51.4062H177.929V50.2344H177.129H176.329V51.4062H177.129ZM177.129 50.2344V51.0344H181.035V50.2344V49.4344H177.129V50.2344ZM181.035 50.2344H180.235V60.5469H181.035H181.835V50.2344H181.035ZM181.035 60.5469V59.7469H177.129V60.5469V61.3469H181.035V60.5469ZM177.129 60.5469H177.929V58.7305H177.129H176.329V60.5469H177.129ZM177.129 58.7305V57.9305H175.391V58.7305V59.5305H177.129V58.7305ZM188.066 60.4102H187.266V61.2102H188.066V60.4102ZM188.066 57.3242V56.5242H187.266V57.3242H188.066ZM205.059 57.3242H205.859V56.5242H205.059V57.3242ZM205.059 60.4102V61.2102H205.859V60.4102H205.059ZM188.828 52.9883L189.582 53.2574L189.963 52.1883H188.828V52.9883ZM188.652 52.9883H187.852V53.7883H188.652V52.9883ZM188.652 50.2344V49.4344H187.852V50.2344H188.652ZM204.277 50.2344H205.077V49.4344H204.277V50.2344ZM204.277 52.9883V53.7883H205.077V52.9883H204.277ZM192.578 52.9883V52.1883H191.954L191.802 52.7943L192.578 52.9883ZM204.277 53.6523H205.077V52.7993L204.226 52.854L204.277 53.6523ZM204.277 56.3086L204.329 57.1069L205.077 57.0589V56.3086H204.277ZM188.066 60.4102H188.866V57.3242H188.066H187.266V60.4102H188.066ZM188.066 57.3242V58.1242H205.059V57.3242V56.5242H188.066V57.3242ZM205.059 57.3242H204.259V60.4102H205.059H205.859V57.3242H205.059ZM205.059 60.4102V59.6102H188.066V60.4102V61.2102H205.059V60.4102ZM188.652 54.0039H189.452C189.452 53.7346 189.511 53.4545 189.582 53.2574L188.828 52.9883L188.075 52.7192C187.95 53.069 187.852 53.531 187.852 54.0039H188.652ZM188.828 52.9883V52.1883H188.652V52.9883V53.7883H188.828V52.9883ZM188.652 52.9883H189.452V50.2344H188.652H187.852V52.9883H188.652ZM188.652 50.2344V51.0344H204.277V50.2344V49.4344H188.652V50.2344ZM204.277 50.2344H203.477V52.9883H204.277H205.077V50.2344H204.277ZM204.277 52.9883V52.1883H192.578V52.9883V53.7883H204.277V52.9883ZM192.578 52.9883L191.802 52.7943C191.754 52.988 191.759 53.195 191.759 53.2617H192.559H193.359C193.359 53.2364 193.359 53.2171 193.359 53.1989C193.359 53.1811 193.359 53.1687 193.36 53.1597C193.36 53.1507 193.361 53.1483 193.36 53.1508C193.36 53.1532 193.359 53.1646 193.354 53.1823L192.578 52.9883ZM192.559 53.2617H191.759C191.759 53.4604 191.81 53.6747 191.944 53.8717C192.071 54.0589 192.239 54.1808 192.392 54.2616C192.676 54.4116 193.039 54.4855 193.423 54.5339C194.216 54.6341 195.507 54.6672 197.52 54.6672V53.8672V53.0672C195.489 53.0672 194.299 53.0319 193.623 52.9465C193.459 52.9258 193.34 52.9038 193.254 52.8827C193.167 52.861 193.136 52.8453 193.139 52.8465C193.143 52.8486 193.207 52.883 193.268 52.9729C193.336 53.0727 193.359 53.1803 193.359 53.2617H192.559ZM197.52 53.8672V54.6672C199.822 54.6672 202.183 54.5885 204.329 54.4507L204.277 53.6523L204.226 52.854C202.114 52.9896 199.787 53.0672 197.52 53.0672V53.8672ZM204.277 53.6523H203.477V56.3086H204.277H205.077V53.6523H204.277ZM204.277 56.3086L204.226 55.5102C202.118 55.6456 199.362 55.7234 196.738 55.7234V56.5234V57.3234C199.388 57.3234 202.179 57.245 204.329 57.1069L204.277 56.3086ZM196.738 56.5234V55.7234C193.803 55.7234 191.889 55.5065 190.733 55.1263C190.16 54.9378 189.839 54.7299 189.667 54.548C189.515 54.3876 189.452 54.2215 189.452 54.0039H188.652H187.852C187.852 54.6164 188.063 55.1802 188.505 55.6479C188.928 56.0941 189.522 56.4123 190.233 56.6462C191.646 57.1107 193.776 57.3234 196.738 57.3234V56.5234ZM188.691 64.4141H189.491C189.491 63.4506 189.81 62.9464 190.306 62.63C190.877 62.2657 191.808 62.0695 193.184 62.0695V61.2695V60.4695C191.727 60.4695 190.412 60.664 189.445 61.2812C188.403 61.9462 187.891 63.0143 187.891 64.4141H188.691ZM193.184 61.2695V62.0695H199.941V61.2695V60.4695H193.184V61.2695ZM199.941 61.2695V62.0695C201.317 62.0695 202.248 62.2657 202.819 62.63C203.315 62.9464 203.634 63.4506 203.634 64.4141H204.434H205.234C205.234 63.0143 204.722 61.9462 203.68 61.2812C202.713 60.664 201.398 60.4695 199.941 60.4695V61.2695ZM204.434 64.4141H203.634C203.634 65.3844 203.32 65.8861 202.832 66.1994C202.268 66.5617 201.339 66.7586 199.941 66.7586V67.5586V68.3586C201.415 68.3586 202.732 68.1648 203.696 67.5457C204.737 66.8776 205.234 65.807 205.234 64.4141H204.434ZM199.941 67.5586V66.7586H193.184V67.5586V68.3586H199.941V67.5586ZM193.184 67.5586V66.7586C191.786 66.7586 190.857 66.5617 190.293 66.1994C189.805 65.8861 189.491 65.3844 189.491 64.4141H188.691H187.891C187.891 65.807 188.388 66.8776 189.429 67.5457C190.393 68.1648 191.71 68.3586 193.184 68.3586V67.5586ZM192.793 64.3945H191.993C191.993 64.5754 192.03 64.7787 192.139 64.9738C192.25 65.1717 192.409 65.3125 192.577 65.4067C192.879 65.577 193.227 65.6047 193.496 65.6047V64.8047V64.0047C193.409 64.0047 193.356 63.999 193.328 63.9941C193.298 63.9888 193.318 63.9879 193.361 64.0122C193.411 64.0405 193.482 64.0971 193.535 64.1906C193.585 64.2813 193.593 64.3601 193.593 64.3945H192.793ZM193.496 64.8047V65.6047H199.629V64.8047V64.0047H193.496V64.8047ZM199.629 64.8047V65.6047C199.898 65.6047 200.246 65.577 200.548 65.4067C200.716 65.3125 200.875 65.1717 200.986 64.9738C201.095 64.7787 201.132 64.5754 201.132 64.3945H200.332H199.532C199.532 64.3601 199.54 64.2813 199.59 64.1906C199.643 64.0971 199.714 64.0405 199.764 64.0122C199.807 63.9879 199.827 63.9888 199.797 63.9941C199.769 63.999 199.716 64.0047 199.629 64.0047V64.8047ZM200.332 64.3945H201.132C201.132 64.2136 201.095 64.0103 200.986 63.8152C200.875 63.6174 200.716 63.4766 200.548 63.3823C200.246 63.2121 199.898 63.1844 199.629 63.1844V63.9844V64.7844C199.716 64.7844 199.769 64.79 199.797 64.795C199.827 64.8003 199.807 64.8012 199.764 64.7769C199.714 64.7485 199.643 64.692 199.59 64.5985C199.54 64.5077 199.532 64.429 199.532 64.3945H200.332ZM199.629 63.9844V63.1844H193.496V63.9844V64.7844H199.629V63.9844ZM193.496 63.9844V63.1844C193.227 63.1844 192.879 63.2121 192.577 63.3823C192.409 63.4766 192.25 63.6174 192.139 63.8152C192.03 64.0103 191.993 64.2136 191.993 64.3945H192.793H193.593C193.593 64.429 193.585 64.5077 193.535 64.5985C193.482 64.692 193.411 64.7485 193.361 64.7769C193.318 64.8012 193.298 64.8003 193.328 64.795C193.356 64.79 193.409 64.7844 193.496 64.7844V63.9844ZM207.93 60.9375V60.1375H207.13V60.9375H207.93ZM211.836 60.9375H212.636V60.1375H211.836V60.9375ZM222.93 63.6719H223.73V62.6849L222.764 62.8892L222.93 63.6719ZM222.93 66.8945L223.073 67.6816L223.73 67.5622V66.8945H222.93ZM206.367 60.7812H205.567V61.6238L206.409 61.5802L206.367 60.7812ZM206.367 57.0898L206.288 56.2938L205.567 56.3659V57.0898H206.367ZM209.863 50.4688V49.6687H209.063V50.4688H209.863ZM213.77 50.4688H214.57V49.6687H213.77V50.4688ZM213.711 53.8672L212.915 53.7876L212.898 53.9592L212.953 54.1226L213.711 53.8672ZM218.359 57.6172L219.043 58.0326L219.614 57.0925L218.544 56.8388L218.359 57.6172ZM216.484 60.7031L216.256 61.4698L216.848 61.646L217.168 61.1185L216.484 60.7031ZM212.266 57.6953L212.918 57.2319L212.262 56.3094L211.611 57.2351L212.266 57.6953ZM218.926 61.8945H218.126V62.6945H218.926V61.8945ZM218.926 50.2344V49.4344H218.126V50.2344H218.926ZM222.832 50.2344H223.632V49.4344H222.832V50.2344ZM222.832 53.4766H222.032V54.2766H222.832V53.4766ZM224.59 53.4766H225.39V52.6766H224.59V53.4766ZM224.59 56.7578V57.5578H225.39V56.7578H224.59ZM222.832 56.7578V55.9578H222.032V56.7578H222.832ZM222.832 61.8945V62.6945H223.632V61.8945H222.832ZM215.527 67.5586V66.7586C212.709 66.7586 210.97 66.4476 209.958 65.9363C209.47 65.69 209.179 65.4106 209.003 65.1186C208.826 64.8253 208.73 64.4599 208.73 63.9844H207.93H207.13C207.13 64.6807 207.273 65.348 207.632 65.9447C207.993 66.5425 208.535 67.0102 209.236 67.3645C210.602 68.0544 212.662 68.3586 215.527 68.3586V67.5586ZM207.93 63.9844H208.73V60.9375H207.93H207.13V63.9844H207.93ZM207.93 60.9375V61.7375H211.836V60.9375V60.1375H207.93V60.9375ZM211.836 60.9375H211.036V63.3789H211.836H212.636V60.9375H211.836ZM211.836 63.3789H211.036C211.036 63.6416 211.087 63.9861 211.337 64.2997C211.575 64.5971 211.909 64.7617 212.248 64.8646C212.9 65.0626 213.937 65.1359 215.527 65.1359V64.3359V63.5359C213.914 63.5359 213.106 63.453 212.713 63.3337C212.529 63.2778 212.541 63.2435 212.587 63.301C212.646 63.3747 212.636 63.4385 212.636 63.3789H211.836ZM215.527 64.3359V65.1359C218.695 65.1359 220.998 64.8981 223.095 64.4546L222.93 63.6719L222.764 62.8892C220.799 63.305 218.61 63.5359 215.527 63.5359V64.3359ZM222.93 63.6719H222.13V66.8945H222.93H223.73V63.6719H222.93ZM222.93 66.8945L222.787 66.1074C220.894 66.4516 218.188 66.7586 215.527 66.7586V67.5586V68.3586C218.296 68.3586 221.098 68.0406 223.073 67.6816L222.93 66.8945ZM206.367 60.7812H207.167V57.0898H206.367H205.567V60.7812H206.367ZM206.367 57.0898L206.447 57.8859C207.65 57.7655 208.728 57.3499 209.503 56.5278C210.283 55.7006 210.663 54.5614 210.663 53.1836H209.863H209.063C209.063 54.2667 208.77 54.9732 208.339 55.4302C207.903 55.8923 207.232 56.1993 206.288 56.2938L206.367 57.0898ZM209.863 53.1836H210.663V50.4688H209.863H209.063V53.1836H209.863ZM209.863 50.4688V51.2687H213.77V50.4688V49.6687H209.863V50.4688ZM213.77 50.4688H212.97V52.6953H213.77H214.57V50.4688H213.77ZM213.77 52.6953H212.97C212.97 53.0592 212.951 53.4233 212.915 53.7876L213.711 53.8672L214.507 53.9468C214.549 53.5298 214.57 53.1127 214.57 52.6953H213.77ZM213.711 53.8672L212.953 54.1226C213.322 55.2183 214.135 56.1634 215.062 56.8805C215.996 57.6018 217.109 58.1429 218.175 58.3956L218.359 57.6172L218.544 56.8388C217.715 56.6423 216.807 56.2068 216.041 55.6146C215.269 55.0182 214.705 54.3129 214.469 53.6117L213.711 53.8672ZM218.359 57.6172L217.676 57.2018L215.801 60.2877L216.484 60.7031L217.168 61.1185L219.043 58.0326L218.359 57.6172ZM216.484 60.7031L216.713 59.9364C215.05 59.441 213.87 58.5723 212.918 57.2319L212.266 57.6953L211.613 58.1587C212.771 59.7871 214.247 60.8715 216.256 61.4698L216.484 60.7031ZM212.266 57.6953L211.611 57.2351C210.51 58.8008 208.73 59.8576 206.326 59.9823L206.367 60.7812L206.409 61.5802C209.278 61.4314 211.521 60.1445 212.92 58.1555L212.266 57.6953ZM218.926 61.8945H219.726V50.2344H218.926H218.126V61.8945H218.926ZM218.926 50.2344V51.0344H222.832V50.2344V49.4344H218.926V50.2344ZM222.832 50.2344H222.032V53.4766H222.832H223.632V50.2344H222.832ZM222.832 53.4766V54.2766H224.59V53.4766V52.6766H222.832V53.4766ZM224.59 53.4766H223.79V56.7578H224.59H225.39V53.4766H224.59ZM224.59 56.7578V55.9578H222.832V56.7578V57.5578H224.59V56.7578ZM222.832 56.7578H222.032V61.8945H222.832H223.632V56.7578H222.832ZM222.832 61.8945V61.0945H218.926V61.8945V62.6945H222.832V61.8945Z" fill="black" mask="url(#path-26-outside-2_1253_477)"/>
<path d="M244.77 59.4727V56.2109H243.598V59.4727H240.473V50.3125H243.598V53.125H244.77V50.2344H248.285V59.4727H244.77ZM231.43 59.5898V56.1719C232.875 56.1523 234.047 55.6641 234.047 53.8672V53.6133H231.781V50.8789H234.047V49.7461H237.562V50.8789H239.828V53.6133H237.562V53.7305C237.562 54.0039 237.543 54.2773 237.523 54.5312C237.934 55.5273 239.086 56.1133 240.375 56.2305L239.594 59.5117C238.012 59.4336 236.82 58.8867 235.98 57.8125C234.945 58.8477 233.402 59.4922 231.43 59.5898ZM233.188 64.3164V62.7734H244.379V62.1289H233.227V59.9805H248.285V64.8047H237.094V64.9609C237.094 65.293 237.562 65.5273 241.176 65.5273C244.008 65.5273 246.566 65.3906 248.383 65.1367V67.3633C246.508 67.6367 244.105 67.7539 240.883 67.7539C234.027 67.7539 233.188 67.1484 233.188 64.3164ZM259.73 67.5586C254.047 67.5586 252.133 66.3281 252.133 63.9844V61.5234H256.039V63.3789C256.039 64.0234 256.527 64.3359 259.73 64.3359C262.855 64.3359 265.102 64.1016 267.133 63.6719V66.8945C265.199 67.2461 262.445 67.5586 259.73 67.5586ZM250.922 56.875V54.5312H257.016C257.191 54.1992 257.25 53.8867 257.25 53.5547H250.922V50.625H261.215V52.4609C261.215 53.3984 261.078 54.1211 260.863 54.5312H261.254V56.875H255.004C254.945 56.9727 254.906 57.0898 254.906 57.2266C254.906 57.8516 255.746 58.0859 257.699 58.0859C259.008 58.0859 260.336 57.9688 261.664 57.7344L262.113 60.5273C261.195 60.7812 259.613 61.0156 257.387 61.0156C252.797 61.0156 251 59.9414 251 58.3398C251 57.6758 251.156 57.168 251.352 56.875H250.922ZM263.129 61.8945V50.2344H267.035V61.8945H263.129ZM281.879 67.3633V50.2344H285.785V67.3633H281.879ZM269.125 66.8359V63.0469C271.215 62.5781 272.895 60.6445 272.895 56.875V53.9453H269.477V50.625H280.219V53.9453H276.801V56.4062C276.801 56.8555 276.781 57.3047 276.742 57.7344C277.406 60.5273 279.594 62.9102 281.508 63.5938L279.633 66.7578C277.777 65.9961 276.449 64.6484 275.355 62.6367C274.066 65.0391 271.938 66.6406 269.125 66.8359Z" fill="black"/>
<g clip-path="url(#clip1_1253_477)">
<path d="M146.894 389.272H148.92V403.898H146.894V389.272ZM152.012 395.331C151.525 395.331 151.086 395.415 150.696 395.582C150.32 395.749 150 395.986 149.735 396.293C149.47 396.599 149.268 396.961 149.129 397.379C148.99 397.797 148.92 398.25 148.92 398.737V403.898H146.894V398.779C146.894 397.985 147.012 397.254 147.249 396.585C147.486 395.903 147.82 395.318 148.252 394.83C148.697 394.329 149.234 393.939 149.86 393.66C150.501 393.381 151.218 393.242 152.012 393.242C152.806 393.242 153.496 393.381 154.081 393.66C154.68 393.939 155.188 394.329 155.606 394.83C156.024 395.318 156.358 395.903 156.609 396.585C156.86 397.254 157.034 397.985 157.131 398.779L157.758 403.898H155.711L155.063 398.737C155.007 398.25 154.903 397.797 154.749 397.379C154.61 396.961 154.415 396.606 154.164 396.313C153.928 396.007 153.628 395.77 153.266 395.603C152.918 395.422 152.5 395.331 152.012 395.331Z" fill="#3B3B3B"/>
<path d="M159.672 393.451H161.698V403.898H159.672V393.451ZM159.442 390.213C159.442 389.837 159.553 389.537 159.776 389.314C160.013 389.077 160.319 388.959 160.695 388.959C161.058 388.959 161.35 389.077 161.573 389.314C161.81 389.537 161.928 389.837 161.928 390.213C161.928 390.589 161.81 390.895 161.573 391.132C161.35 391.355 161.058 391.466 160.695 391.466C160.319 391.466 160.013 391.355 159.776 391.132C159.553 390.895 159.442 390.589 159.442 390.213Z" fill="#3B3B3B"/>
<path d="M168.253 397.651C169.186 397.651 169.882 397.504 170.342 397.212C170.815 396.919 171.108 396.369 171.219 395.561L171.47 393.451H173.497L173.246 395.519C173.135 396.453 172.926 397.17 172.619 397.671C172.327 398.159 171.902 398.493 171.345 398.674C171.86 398.842 172.278 399.197 172.598 399.74C172.919 400.283 173.135 400.98 173.246 401.829L173.497 403.898H171.47L171.219 401.787C171.122 400.966 170.836 400.409 170.363 400.116C169.889 399.824 169.186 399.677 168.253 399.677H166.08V403.898H164.053V389.272H166.08V397.651H168.253Z" fill="#3B3B3B"/>
<path d="M182.611 396.481C182.319 396.118 181.95 395.84 181.504 395.645C181.072 395.436 180.592 395.331 180.063 395.331C179.199 395.331 178.482 395.575 177.91 396.063C177.339 396.55 176.977 397.191 176.824 397.985L182.611 396.481ZM174.735 398.779C174.735 397.985 174.86 397.254 175.111 396.585C175.375 395.903 175.738 395.318 176.197 394.83C176.671 394.329 177.235 393.939 177.89 393.66C178.544 393.381 179.269 393.242 180.063 393.242C180.731 393.242 181.351 393.347 181.922 393.556C182.493 393.751 183.001 394.029 183.447 394.391C183.893 394.739 184.262 395.164 184.555 395.666C184.861 396.167 185.084 396.717 185.223 397.316V397.922L176.97 399.991C177.193 400.617 177.569 401.112 178.099 401.474C178.642 401.836 179.296 402.017 180.063 402.017C180.787 402.017 181.414 401.836 181.943 401.474C182.472 401.112 182.855 400.631 183.092 400.032H185.223C185.084 400.631 184.861 401.182 184.555 401.683C184.262 402.184 183.893 402.616 183.447 402.978C183.001 403.327 182.493 403.605 181.922 403.814C181.351 404.009 180.731 404.107 180.063 404.107C179.269 404.107 178.544 403.974 177.89 403.71C177.235 403.445 176.671 403.083 176.197 402.623C175.738 402.15 175.375 401.586 175.111 400.931C174.86 400.276 174.735 399.559 174.735 398.779Z" fill="#3B3B3B"/>
<path d="M192.3 395.331C191.227 395.331 190.364 395.645 189.709 396.272C189.068 396.885 188.748 397.706 188.748 398.737V403.898H186.721V398.779C186.721 397.985 186.847 397.254 187.098 396.585C187.362 395.903 187.724 395.318 188.184 394.83C188.658 394.329 189.222 393.939 189.876 393.66C190.531 393.381 191.255 393.242 192.049 393.242C192.648 393.242 193.205 393.326 193.721 393.493V395.54C193.498 395.471 193.261 395.422 193.01 395.394C192.774 395.352 192.537 395.331 192.3 395.331Z" fill="#3B3B3B"/>
<path d="M200.072 404.107C198.401 404.107 197.091 403.758 196.144 403.062C195.211 402.352 194.696 401.342 194.598 400.032H196.729C196.799 400.715 197.105 401.223 197.648 401.558C198.206 401.878 199.062 402.038 200.218 402.038C201.11 402.038 201.799 401.941 202.287 401.746C202.774 401.537 203.018 401.23 203.018 400.826C203.018 400.032 201.932 399.629 199.759 399.615C198.018 399.601 196.722 399.364 195.873 398.904C195.023 398.445 194.598 397.72 194.598 396.731C194.598 396.202 194.716 395.721 194.953 395.29C195.204 394.858 195.545 394.489 195.977 394.182C196.423 393.876 196.959 393.646 197.586 393.493C198.213 393.326 198.909 393.242 199.675 393.242C201.305 393.242 202.579 393.597 203.499 394.308C204.432 395.018 204.954 396.021 205.066 397.316H202.914C202.844 396.648 202.537 396.153 201.994 395.833C201.465 395.499 200.671 395.331 199.612 395.331C198.679 395.331 197.948 395.457 197.419 395.708C196.889 395.944 196.625 396.286 196.625 396.731C196.625 397.121 196.861 397.4 197.335 397.567C197.809 397.72 198.61 397.811 199.738 397.839C201.632 397.866 202.99 398.103 203.812 398.549C204.648 398.981 205.066 399.684 205.066 400.659C205.066 401.76 204.62 402.609 203.728 403.208C202.837 403.807 201.618 404.107 200.072 404.107Z" fill="#3B3B3B"/>
</g>
</g>
<defs>
<clipPath id="clip0_1253_477">
<rect width="350" height="438" fill="white"/>
</clipPath>
<clipPath id="clip1_1253_477">
<rect width="61" height="18.9346" fill="white" transform="translate(145 387.065)"/>
</clipPath>
</defs>
</svg>
