<svg width="28" height="26" viewBox="0 0 28 26" fill="none" xmlns="http://www.w3.org/2000/svg">
<path d="M1.3999 21.8004C1.3999 20.103 2.07419 18.4751 3.27442 17.2749C4.47465 16.0747 6.10252 15.4004 7.7999 15.4004H20.5999C22.2973 15.4004 23.9252 16.0747 25.1254 17.2749C26.3256 18.4751 26.9999 20.103 26.9999 21.8004C26.9999 22.6491 26.6628 23.463 26.0626 24.0631C25.4625 24.6632 24.6486 25.0004 23.7999 25.0004H4.5999C3.75121 25.0004 2.93728 24.6632 2.33716 24.0631C1.73704 23.463 1.3999 22.6491 1.3999 21.8004Z" stroke="#A4A4A4" stroke-width="1.5" stroke-linejoin="round"/>
<path d="M14.1999 10.6C16.8509 10.6 18.9999 8.45097 18.9999 5.8C18.9999 3.14903 16.8509 1 14.1999 1C11.5489 1 9.3999 3.14903 9.3999 5.8C9.3999 8.45097 11.5489 10.6 14.1999 10.6Z" stroke="#A4A4A4" stroke-width="1.5"/>
</svg>
