<svg width="25" height="24" viewBox="0 0 25 24" fill="none" xmlns="http://www.w3.org/2000/svg">
<path d="M12.0166 22.5V16.869C10.6376 16.767 9.4381 16.2675 8.4181 15.3705C7.3981 14.4735 6.7591 13.3445 6.5011 11.9835C4.9141 11.7965 3.5616 11.146 2.4436 10.032C1.3256 8.918 0.766602 7.574 0.766602 6V5.4225C0.766602 4.7565 1.0041 4.1865 1.4791 3.7125C1.9541 3.2385 2.5241 3.001 3.1891 3H6.2476V2.4225C6.2476 1.7565 6.4846 1.1865 6.9586 0.7125C7.4336 0.2375 8.0046 0 8.6716 0H16.8646C17.5306 0 18.1006 0.2375 18.5746 0.7125C19.0496 1.1865 19.2871 1.7565 19.2871 2.4225V3H22.3456C23.0116 3 23.5816 3.2375 24.0556 3.7125C24.5296 4.1875 24.7666 4.7575 24.7666 5.4225V6C24.7666 7.573 24.2076 8.917 23.0896 10.032C21.9716 11.147 20.6191 11.797 19.0321 11.982C18.7741 13.344 18.1351 14.4735 17.1151 15.3705C16.0951 16.2675 14.8956 16.7675 13.5166 16.8705V22.5H17.4406C17.6526 22.5 17.8306 22.572 17.9746 22.716C18.1186 22.86 18.1906 23.0385 18.1906 23.2515C18.1906 23.4645 18.1186 23.6425 17.9746 23.7855C17.8306 23.9285 17.6526 24 17.4406 24H8.0941C7.8811 24 7.7026 23.928 7.5586 23.784C7.4146 23.64 7.3431 23.4615 7.3441 23.2485C7.3451 23.0355 7.4166 22.8575 7.5586 22.7145C7.7006 22.5715 7.8791 22.5 8.0941 22.5H12.0166ZM6.2476 10.374V4.5H3.1891C2.9201 4.5 2.6991 4.5865 2.5261 4.7595C2.3531 4.9325 2.2666 5.154 2.2666 5.424V6C2.2666 7.123 2.6476 8.0995 3.4096 8.9295C4.1706 9.7595 5.1166 10.241 6.2476 10.374ZM12.7726 15.4035C14.1526 15.4035 15.3236 14.921 16.2856 13.956C17.2476 12.992 17.7286 11.8205 17.7286 10.4415V2.424C17.7286 2.154 17.6416 1.9325 17.4676 1.7595C17.2956 1.5865 17.0746 1.5 16.8046 1.5H8.7286C8.4586 1.5 8.2376 1.5865 8.0656 1.7595C7.8916 1.9325 7.8046 2.154 7.8046 2.424V10.443C7.8046 11.821 8.2876 12.9925 9.2536 13.9575C10.2206 14.9215 11.3941 15.4035 12.7741 15.4035M19.2856 10.374C20.4166 10.241 21.3631 9.7595 22.1251 8.9295C22.8861 8.0995 23.2666 7.123 23.2666 6V5.4225C23.2666 5.1535 23.1801 4.9325 23.0071 4.7595C22.8341 4.5865 22.6131 4.5 22.3441 4.5H19.2856V10.374Z" fill="#A4A4A4"/>
</svg>
