<svg width="24" height="24" viewBox="0 0 24 24" fill="none" xmlns="http://www.w3.org/2000/svg">
<path d="M19.485 20.1536L13.223 13.8916C12.723 14.3176 12.148 14.6472 11.498 14.8806C10.848 15.1139 10.1947 15.2306 9.53798 15.2306C7.93665 15.2306 6.58132 14.6762 5.47198 13.5676C4.36265 12.4589 3.80798 11.1039 3.80798 9.50256C3.80798 7.90122 4.36198 6.54556 5.46998 5.43556C6.57798 4.32556 7.93265 3.76989 9.53398 3.76856C11.1353 3.76722 12.4913 4.32189 13.602 5.43256C14.7127 6.54322 15.268 7.89889 15.268 9.49956C15.268 10.1942 15.145 10.8666 14.899 11.5166C14.653 12.1666 14.3296 12.7226 13.929 13.1846L20.191 19.4456L19.485 20.1536ZM9.53898 14.2296C10.8656 14.2296 11.9857 13.7729 12.899 12.8596C13.8123 11.9462 14.269 10.8259 14.269 9.49856C14.269 8.17122 13.8123 7.05122 12.899 6.13856C11.9857 5.22589 10.8656 4.76922 9.53898 4.76856C8.21232 4.76789 7.09198 5.22456 6.17798 6.13856C5.26398 7.05256 4.80732 8.17256 4.80798 9.49856C4.80865 10.8246 5.26532 11.9446 6.17798 12.8586C7.09065 13.7726 8.21065 14.2292 9.53798 14.2286" fill="#349989"/>
</svg>
