<svg width="68" height="68" viewBox="0 0 68 68" fill="none" xmlns="http://www.w3.org/2000/svg">
<g filter="url(#filter0_d_31_71)">
<rect x="4" y="4" width="60" height="60" rx="30" fill="white" shape-rendering="crispEdges"/>
<rect x="7.5" y="7.5" width="53" height="53" rx="26.5" fill="white"/>
<rect x="7.5" y="7.5" width="53" height="53" rx="26.5" stroke="#4A6F82" stroke-width="2"/>
<rect x="9.1" y="9.1" width="49.8" height="49.8" rx="24.9" fill="white"/>
<rect x="9.1" y="9.1" width="49.8" height="49.8" rx="24.9" stroke="#4A6F82" stroke-width="0.2"/>
<path d="M11.8 35.2638V34.6818H16V35.2638H11.8ZM13.54 33.7938C13.54 33.9338 13.564 34.0598 13.612 34.1718C13.66 34.2798 13.728 34.3718 13.816 34.4478C13.904 34.5238 14.008 34.5818 14.128 34.6218C14.248 34.6618 14.378 34.6818 14.518 34.6818H16V35.2638H14.53C14.302 35.2638 14.092 35.2298 13.9 35.1618C13.704 35.0938 13.536 34.9978 13.396 34.8738C13.252 34.7458 13.14 34.5918 13.06 34.4118C12.98 34.2278 12.94 34.0218 12.94 33.7938C12.94 33.5658 12.98 33.3678 13.06 33.1998C13.14 33.0278 13.252 32.8818 13.396 32.7618C13.536 32.6418 13.704 32.5458 13.9 32.4738C14.092 32.4018 14.302 32.3518 14.53 32.3238L16 32.1438V32.7318L14.518 32.9178C14.378 32.9338 14.248 32.9638 14.128 33.0078C14.008 33.0478 13.906 33.1038 13.822 33.1758C13.734 33.2438 13.666 33.3298 13.618 33.4338C13.566 33.5338 13.54 33.6538 13.54 33.7938Z" fill="#4A6F82"/>
<path d="M13.4745 29.0343L13.6137 28.4692L16.5266 29.1872L16.3873 29.7523L13.4745 29.0343ZM12.5557 28.8758C12.4508 28.85 12.375 28.7983 12.3282 28.7209C12.2784 28.6386 12.2665 28.545 12.2923 28.4401C12.3172 28.3392 12.3703 28.2657 12.4517 28.2199C12.5301 28.1692 12.6217 28.1567 12.7266 28.1826C12.8314 28.2084 12.9087 28.2625 12.9585 28.3448C13.0053 28.4222 13.0163 28.5115 12.9914 28.6124C12.9655 28.7173 12.9134 28.7951 12.835 28.8458C12.7537 28.8917 12.6606 28.9017 12.5557 28.8758Z" fill="#4A6F82"/>
<path d="M16.3038 24.5709C16.4283 24.3336 16.4841 24.137 16.471 23.9811C16.4599 23.8216 16.359 23.6738 16.1684 23.5377L15.6653 23.1923L15.9358 22.6769L16.4283 23.0167C16.6507 23.1696 16.8052 23.3185 16.8918 23.4633C16.9768 23.6028 17.0051 23.7554 16.9768 23.9212C17.088 23.8125 17.2341 23.7536 17.415 23.7447C17.5959 23.7357 17.8018 23.7738 18.0327 23.8588L18.5922 24.0711L18.3217 24.5864L17.7516 24.3686C17.5297 24.2837 17.3499 24.2819 17.2123 24.3633C17.0747 24.4447 16.9437 24.6041 16.8191 24.8414L16.5291 25.3939L17.6023 25.9571L17.3318 26.4725L13.6129 24.5206L13.8834 24.0053L16.0138 25.1234L16.3038 24.5709Z" fill="#4A6F82"/>
<path d="M19.3553 19.5543C19.2218 19.5482 19.0916 19.5745 18.9648 19.6332C18.8377 19.6862 18.7237 19.7696 18.6229 19.8834C18.4584 20.069 18.3742 20.2697 18.3703 20.4852C18.3663 20.7008 18.4351 20.9007 18.5766 21.0848L19.3553 19.5543ZM18.3493 21.6851C18.1787 21.5339 18.0454 21.3677 17.9494 21.1865C17.8531 20.9997 17.7963 20.8104 17.779 20.6188C17.7614 20.4215 17.785 20.2259 17.8498 20.0322C17.9146 19.8384 18.0226 19.6562 18.1738 19.4855C18.3011 19.3418 18.4416 19.2285 18.5953 19.1455C18.7459 19.0599 18.9026 19.0037 19.0653 18.9768C19.2251 18.9473 19.3867 18.9489 19.5502 18.9815C19.7163 19.0111 19.877 19.068 20.0323 19.1521L20.1625 19.2675L19.0355 21.4353C19.2127 21.5068 19.3906 21.5201 19.5693 21.4753C19.7506 21.4275 19.9141 21.3213 20.06 21.1566C20.198 21.0009 20.2784 20.8317 20.3014 20.649C20.3243 20.4662 20.2939 20.2924 20.2103 20.1274L20.6161 19.6693C20.7183 19.8133 20.7942 19.966 20.8436 20.1274C20.8957 20.2857 20.9182 20.4473 20.9112 20.6121C20.9011 20.7742 20.8642 20.9365 20.8004 21.0991C20.7335 21.259 20.6365 21.4108 20.5091 21.5545C20.3579 21.7251 20.1916 21.8556 20.01 21.946C19.8285 22.0363 19.6432 22.0886 19.4542 22.1028C19.2649 22.1115 19.0747 22.0819 18.8835 22.0141C18.6951 21.9433 18.517 21.8337 18.3493 21.6851Z" fill="#4A6F82"/>
<path d="M22.9291 16.0883C22.6757 16.2633 22.5227 16.4782 22.4702 16.7331C22.4188 16.9825 22.4771 17.229 22.6453 17.4726L23.4871 18.6923L23.0082 19.0229L22.1731 17.8131C22.0436 17.6255 21.9539 17.4322 21.9041 17.2333C21.8553 17.0288 21.8455 16.8314 21.8746 16.6412C21.9047 16.4455 21.9744 16.2613 22.0837 16.0886C22.1929 15.916 22.3414 15.7649 22.529 15.6354C22.6706 15.5377 22.8159 15.4666 22.965 15.422L23.299 15.9059C23.235 15.9258 23.1711 15.9529 23.1073 15.9872C23.0445 16.016 22.9851 16.0497 22.9291 16.0883Z" fill="#4A6F82"/>
<path d="M25.8362 13.0207C25.7908 12.901 25.789 12.7947 25.8308 12.7019C25.8749 12.6039 25.953 12.5336 26.0652 12.491C26.1812 12.4471 26.2863 12.4479 26.3806 12.4934C26.4772 12.5338 26.5481 12.6138 26.5935 12.7335C26.6432 12.8644 26.6526 13.002 26.6218 13.1463L26.5432 13.5483L26.1561 13.6951L26.2381 13.2853C26.1568 13.3077 26.079 13.2944 26.0048 13.2455C25.9293 13.1929 25.873 13.1179 25.8362 13.0207Z" fill="#4A6F82"/>
<path d="M31.9179 15.3078C31.4414 15.3657 31.0561 15.3118 30.762 15.146C30.4714 14.9758 30.2895 14.7057 30.2164 14.3359L30.8239 14.2621C30.8674 14.4543 30.9724 14.5886 31.1388 14.6651C31.3087 14.7371 31.5585 14.7531 31.888 14.7131C32.1422 14.6823 32.3354 14.6306 32.4676 14.5581C32.5993 14.4817 32.6582 14.3859 32.6442 14.2707C32.6168 14.0444 32.293 13.9669 31.6731 14.0381C31.1763 14.0944 30.7988 14.0717 30.5407 13.9701C30.2825 13.8685 30.1363 13.6767 30.1021 13.3948C30.0838 13.2439 30.1009 13.1028 30.1535 12.9715C30.21 12.8397 30.2945 12.7227 30.407 12.6204C30.5235 12.5176 30.6684 12.4335 30.8418 12.3681C31.0147 12.2988 31.2103 12.2509 31.4287 12.2243C31.8933 12.1679 32.2689 12.2251 32.5556 12.3958C32.8462 12.566 33.0298 12.8338 33.1064 13.1992L32.493 13.2737C32.45 13.0855 32.3455 12.9552 32.1795 12.8826C32.0171 12.8057 31.7849 12.7855 31.4832 12.8221C31.2171 12.8544 31.013 12.9155 30.8708 13.0053C30.7281 13.0911 30.6644 13.1976 30.6799 13.3246C30.6934 13.4358 30.7705 13.507 30.9113 13.5383C31.0516 13.5656 31.2831 13.5637 31.6057 13.5325C32.1467 13.4749 32.542 13.4954 32.7917 13.594C33.0449 13.6882 33.1884 13.8743 33.2222 14.1522C33.2603 14.4659 33.1626 14.7236 32.9292 14.9252C32.6958 15.1268 32.3587 15.2543 31.9179 15.3078Z" fill="#4A6F82"/>
<path d="M40.7734 16.2274C40.5602 16.1465 40.3785 16.0391 40.2282 15.9051C40.0794 15.7674 39.9648 15.6127 39.8844 15.4411C39.8092 15.2671 39.7694 15.0787 39.765 14.876C39.7644 14.6747 39.8045 14.4674 39.8853 14.2543C39.9662 14.0411 40.0743 13.8575 40.2097 13.7035C40.3503 13.5472 40.5071 13.427 40.6802 13.3429C40.8584 13.2565 41.0496 13.2092 41.2537 13.2011C41.4579 13.1929 41.6666 13.2293 41.8797 13.3101C42.0929 13.391 42.2732 13.5021 42.4206 13.6436C42.568 13.7851 42.6779 13.9465 42.7503 14.128C42.8278 14.3071 42.8655 14.5011 42.8633 14.7099C42.8663 14.9163 42.8273 15.1262 42.7465 15.3394C42.6656 15.5525 42.5563 15.7335 42.4186 15.8824C42.2846 16.0326 42.1299 16.1472 41.9546 16.2262C41.7843 16.3028 41.5978 16.3433 41.3951 16.3477C41.1938 16.3483 40.9866 16.3082 40.7734 16.2274ZM40.9861 15.6664C41.2517 15.7671 41.4954 15.7675 41.7172 15.6677C41.939 15.5679 42.1002 15.3852 42.201 15.1196C42.2506 14.9887 42.2743 14.8587 42.2719 14.7294C42.2733 14.6016 42.2504 14.4817 42.203 14.3696C42.1594 14.259 42.0919 14.1606 42.0005 14.0746C41.909 13.9886 41.7979 13.9208 41.667 13.8711C41.5361 13.8215 41.4079 13.7985 41.2824 13.8023C41.1569 13.806 41.0393 13.8342 40.9295 13.8867C40.8198 13.9391 40.7212 14.013 40.6338 14.1082C40.5501 14.2048 40.4834 14.3185 40.4338 14.4494C40.3331 14.715 40.3326 14.9586 40.4325 15.1805C40.536 15.4037 40.7206 15.5657 40.9861 15.6664Z" fill="#4A6F82"/>
<path d="M46.1729 16.1588C46.0577 16.0793 45.9404 16.0275 45.8209 16.0033C45.7048 15.9815 45.5904 15.9852 45.4779 16.0144C45.3654 16.0437 45.2585 16.0963 45.1575 16.1724C45.0564 16.2484 44.9661 16.344 44.8865 16.4592L44.0447 17.6789L43.5657 17.3483L44.4007 16.1385C44.5303 15.9509 44.6775 15.7974 44.8426 15.678C45.0099 15.5553 45.1843 15.4716 45.3659 15.4268C45.553 15.381 45.7434 15.3763 45.937 15.4127C46.1338 15.4514 46.3261 15.5355 46.5137 15.665C46.7014 15.7945 46.8416 15.9399 46.9344 16.1012C47.0305 16.2648 47.0871 16.4399 47.104 16.6265C47.1233 16.8099 47.1068 17.0027 47.0547 17.2049C47.0049 17.4038 46.9268 17.6051 46.8203 17.8086L46.1334 19.1207L45.6495 18.7866L46.3383 17.4613C46.4046 17.337 46.4538 17.213 46.4858 17.0892C46.521 16.9677 46.5329 16.852 46.5213 16.742C46.5153 16.6309 46.4832 16.5261 46.4249 16.4275C46.3721 16.3279 46.2881 16.2383 46.1729 16.1588Z" fill="#4A6F82"/>
<path d="M51.5798 25.0258L51.0538 25.3019C50.7337 24.8555 50.6001 24.4761 50.653 24.1638C50.7078 23.855 50.9512 23.5871 51.3833 23.3604L54.045 21.9634L54.3154 22.4787L51.6431 23.8813C51.5227 23.9445 51.4355 24.0151 51.3816 24.0931C51.3277 24.1711 51.3007 24.2575 51.3008 24.3523C51.3009 24.4471 51.3253 24.5495 51.374 24.6595C51.4245 24.773 51.4931 24.8951 51.5798 25.0258ZM53.6368 23.5871L53.0958 22.5564L53.5774 22.2088L54.1574 23.3138L53.6368 23.5871Z" fill="#4A6F82"/>
<path d="M52.3362 28.8811C52.2816 28.6597 52.2668 28.4492 52.2917 28.2494C52.3205 28.0487 52.3827 27.8665 52.4784 27.7028C52.5788 27.5421 52.7112 27.4024 52.8756 27.2836C53.0409 27.1687 53.2342 27.084 53.4556 27.0294C53.677 26.9748 53.8895 26.9595 54.0931 26.9835C54.3016 27.0104 54.4896 27.0712 54.6571 27.1658C54.8295 27.2634 54.977 27.3939 55.0997 27.5573C55.2224 27.7207 55.311 27.9131 55.3655 28.1344C55.4201 28.3558 55.431 28.5673 55.3984 28.769C55.3657 28.9707 55.2952 29.1529 55.187 29.3155C55.0836 29.481 54.9454 29.6222 54.7723 29.739C54.6041 29.8588 54.4093 29.9459 54.1879 30.0005C53.9665 30.0551 53.7555 30.0679 53.5547 30.0391C53.355 30.0142 53.1728 29.952 53.0082 29.8525C52.8484 29.7559 52.7092 29.6255 52.5904 29.4611C52.4755 29.2958 52.3908 29.1025 52.3362 28.8811ZM52.9188 28.7375C52.9867 29.0133 53.1248 29.2141 53.333 29.3399C53.5411 29.4657 53.7831 29.4947 54.0588 29.4267C54.1948 29.3932 54.3152 29.3388 54.4203 29.2635C54.5262 29.192 54.6119 29.105 54.6773 29.0024C54.7435 28.9036 54.7861 28.7922 54.805 28.6681C54.8238 28.544 54.8165 28.414 54.783 28.278C54.7495 28.1421 54.6955 28.0236 54.6212 27.9224C54.5468 27.8213 54.4568 27.7405 54.3513 27.68C54.2458 27.6195 54.129 27.5803 54.001 27.5624C53.8739 27.5484 53.7425 27.5581 53.6065 27.5916C53.3308 27.6596 53.13 27.7977 53.0041 28.0058C52.8793 28.2179 52.8508 28.4618 52.9188 28.7375Z" fill="#4A6F82"/>
<path d="M56.06 33.3998C56.06 33.6278 56.022 33.8358 55.946 34.0238C55.874 34.2118 55.77 34.3718 55.634 34.5038C55.502 34.6398 55.342 34.7438 55.154 34.8158C54.966 34.8918 54.758 34.9298 54.53 34.9298C54.302 34.9298 54.09 34.8918 53.894 34.8158C53.702 34.7438 53.534 34.6398 53.39 34.5038C53.25 34.3718 53.14 34.2118 53.06 34.0238C52.98 33.8358 52.94 33.6278 52.94 33.3998C52.94 33.1718 52.98 32.9638 53.06 32.7758C53.14 32.5878 53.25 32.4258 53.39 32.2898C53.534 32.1578 53.702 32.0538 53.894 31.9778C54.09 31.9058 54.302 31.8698 54.53 31.8698C54.758 31.8698 54.966 31.9058 55.154 31.9778C55.342 32.0538 55.502 32.1578 55.634 32.2898C55.77 32.4258 55.874 32.5878 55.946 32.7758C56.022 32.9638 56.06 33.1718 56.06 33.3998ZM51.8 32.4578V31.8698H56V32.4578H51.8ZM55.46 33.3998C55.46 33.1158 55.374 32.8878 55.202 32.7158C55.03 32.5438 54.802 32.4578 54.518 32.4578C54.378 32.4578 54.248 32.4798 54.128 32.5238C54.008 32.5718 53.904 32.6358 53.816 32.7158C53.732 32.7998 53.664 32.8998 53.612 33.0158C53.564 33.1318 53.54 33.2598 53.54 33.3998C53.54 33.5398 53.564 33.6678 53.612 33.7838C53.664 33.8998 53.732 33.9978 53.816 34.0778C53.904 34.1618 54.008 34.2258 54.128 34.2698C54.248 34.3178 54.378 34.3418 54.518 34.3418C54.802 34.3418 55.03 34.2558 55.202 34.0838C55.374 33.9118 55.46 33.6838 55.46 33.3998Z" fill="#4A6F82"/>
<mask id="path-16-outside-1_31_71" maskUnits="userSpaceOnUse" x="24" y="49" width="20" height="8" fill="black">
<rect fill="white" x="24" y="49" width="20" height="8"/>
<path d="M30.166 50.5V52.696H25.606V50.5H26.596V50.86H29.176V50.5H30.166ZM26.596 51.946H29.176V51.592H26.596V51.946ZM30.478 53.752H28.39V54.046H30.178V55.684H29.152V54.838H25.57V54.046H27.382V53.752H25.294V52.948H30.478V53.752ZM34.5215 50.848V51.64H31.0175V50.848H32.2535V50.41H33.2855V50.848H34.5215ZM35.8775 51.688H36.4775V52.672H35.8775V54.322H34.8635V50.5H35.8775V51.688ZM32.7695 53.896C31.9175 53.896 31.1975 53.536 31.1975 52.84C31.1975 52.144 31.9175 51.784 32.7695 51.784C33.6215 51.784 34.3415 52.144 34.3415 52.84C34.3415 53.536 33.6215 53.896 32.7695 53.896ZM32.7695 52.516C32.4035 52.516 32.1635 52.66 32.1635 52.84C32.1635 53.02 32.4035 53.164 32.7695 53.164C33.1355 53.164 33.3755 53.02 33.3755 52.84C33.3755 52.66 33.1355 52.516 32.7695 52.516ZM32.3855 54.046V54.742H35.9495V55.624H31.3535V54.046H32.3855ZM41.649 51.466H42.249V52.45H41.649V54.292H40.635V50.5H41.649V51.466ZM38.625 52.534C38.199 53.146 37.575 53.56 36.837 53.596V52.654C37.647 52.558 38.181 51.652 38.199 50.524L39.219 50.584C39.219 50.98 39.153 51.37 39.027 51.73L40.485 52.816L39.879 53.524L38.625 52.534ZM38.157 53.83V54.712H41.721V55.624H37.125V53.83H38.157Z"/>
</mask>
<path d="M30.166 50.5V52.696H25.606V50.5H26.596V50.86H29.176V50.5H30.166ZM26.596 51.946H29.176V51.592H26.596V51.946ZM30.478 53.752H28.39V54.046H30.178V55.684H29.152V54.838H25.57V54.046H27.382V53.752H25.294V52.948H30.478V53.752ZM34.5215 50.848V51.64H31.0175V50.848H32.2535V50.41H33.2855V50.848H34.5215ZM35.8775 51.688H36.4775V52.672H35.8775V54.322H34.8635V50.5H35.8775V51.688ZM32.7695 53.896C31.9175 53.896 31.1975 53.536 31.1975 52.84C31.1975 52.144 31.9175 51.784 32.7695 51.784C33.6215 51.784 34.3415 52.144 34.3415 52.84C34.3415 53.536 33.6215 53.896 32.7695 53.896ZM32.7695 52.516C32.4035 52.516 32.1635 52.66 32.1635 52.84C32.1635 53.02 32.4035 53.164 32.7695 53.164C33.1355 53.164 33.3755 53.02 33.3755 52.84C33.3755 52.66 33.1355 52.516 32.7695 52.516ZM32.3855 54.046V54.742H35.9495V55.624H31.3535V54.046H32.3855ZM41.649 51.466H42.249V52.45H41.649V54.292H40.635V50.5H41.649V51.466ZM38.625 52.534C38.199 53.146 37.575 53.56 36.837 53.596V52.654C37.647 52.558 38.181 51.652 38.199 50.524L39.219 50.584C39.219 50.98 39.153 51.37 39.027 51.73L40.485 52.816L39.879 53.524L38.625 52.534ZM38.157 53.83V54.712H41.721V55.624H37.125V53.83H38.157Z" fill="#4A6F82"/>
<path d="M30.166 50.5H31.166V49.5H30.166V50.5ZM30.166 52.696V53.696H31.166V52.696H30.166ZM25.606 52.696H24.606V53.696H25.606V52.696ZM25.606 50.5V49.5H24.606V50.5H25.606ZM26.596 50.5H27.596V49.5H26.596V50.5ZM26.596 50.86H25.596V51.86H26.596V50.86ZM29.176 50.86V51.86H30.176V50.86H29.176ZM29.176 50.5V49.5H28.176V50.5H29.176ZM26.596 51.946H25.596V52.946H26.596V51.946ZM29.176 51.946V52.946H30.176V51.946H29.176ZM29.176 51.592H30.176V50.592H29.176V51.592ZM26.596 51.592V50.592H25.596V51.592H26.596ZM30.478 53.752V54.752H31.478V53.752H30.478ZM28.39 53.752V52.752H27.39V53.752H28.39ZM28.39 54.046H27.39V55.046H28.39V54.046ZM30.178 54.046H31.178V53.046H30.178V54.046ZM30.178 55.684V56.684H31.178V55.684H30.178ZM29.152 55.684H28.152V56.684H29.152V55.684ZM29.152 54.838H30.152V53.838H29.152V54.838ZM25.57 54.838H24.57V55.838H25.57V54.838ZM25.57 54.046V53.046H24.57V54.046H25.57ZM27.382 54.046V55.046H28.382V54.046H27.382ZM27.382 53.752H28.382V52.752H27.382V53.752ZM25.294 53.752H24.294V54.752H25.294V53.752ZM25.294 52.948V51.948H24.294V52.948H25.294ZM30.478 52.948H31.478V51.948H30.478V52.948ZM30.166 50.5H29.166V52.696H30.166H31.166V50.5H30.166ZM30.166 52.696V51.696H25.606V52.696V53.696H30.166V52.696ZM25.606 52.696H26.606V50.5H25.606H24.606V52.696H25.606ZM25.606 50.5V51.5H26.596V50.5V49.5H25.606V50.5ZM26.596 50.5H25.596V50.86H26.596H27.596V50.5H26.596ZM26.596 50.86V51.86H29.176V50.86V49.86H26.596V50.86ZM29.176 50.86H30.176V50.5H29.176H28.176V50.86H29.176ZM29.176 50.5V51.5H30.166V50.5V49.5H29.176V50.5ZM26.596 51.946V52.946H29.176V51.946V50.946H26.596V51.946ZM29.176 51.946H30.176V51.592H29.176H28.176V51.946H29.176ZM29.176 51.592V50.592H26.596V51.592V52.592H29.176V51.592ZM26.596 51.592H25.596V51.946H26.596H27.596V51.592H26.596ZM30.478 53.752V52.752H28.39V53.752V54.752H30.478V53.752ZM28.39 53.752H27.39V54.046H28.39H29.39V53.752H28.39ZM28.39 54.046V55.046H30.178V54.046V53.046H28.39V54.046ZM30.178 54.046H29.178V55.684H30.178H31.178V54.046H30.178ZM30.178 55.684V54.684H29.152V55.684V56.684H30.178V55.684ZM29.152 55.684H30.152V54.838H29.152H28.152V55.684H29.152ZM29.152 54.838V53.838H25.57V54.838V55.838H29.152V54.838ZM25.57 54.838H26.57V54.046H25.57H24.57V54.838H25.57ZM25.57 54.046V55.046H27.382V54.046V53.046H25.57V54.046ZM27.382 54.046H28.382V53.752H27.382H26.382V54.046H27.382ZM27.382 53.752V52.752H25.294V53.752V54.752H27.382V53.752ZM25.294 53.752H26.294V52.948H25.294H24.294V53.752H25.294ZM25.294 52.948V53.948H30.478V52.948V51.948H25.294V52.948ZM30.478 52.948H29.478V53.752H30.478H31.478V52.948H30.478ZM34.5215 50.848H35.5215V49.848H34.5215V50.848ZM34.5215 51.64V52.64H35.5215V51.64H34.5215ZM31.0175 51.64H30.0175V52.64H31.0175V51.64ZM31.0175 50.848V49.848H30.0175V50.848H31.0175ZM32.2535 50.848V51.848H33.2535V50.848H32.2535ZM32.2535 50.41V49.41H31.2535V50.41H32.2535ZM33.2855 50.41H34.2855V49.41H33.2855V50.41ZM33.2855 50.848H32.2855V51.848H33.2855V50.848ZM35.8775 51.688H34.8775V52.688H35.8775V51.688ZM36.4775 51.688H37.4775V50.688H36.4775V51.688ZM36.4775 52.672V53.672H37.4775V52.672H36.4775ZM35.8775 52.672V51.672H34.8775V52.672H35.8775ZM35.8775 54.322V55.322H36.8775V54.322H35.8775ZM34.8635 54.322H33.8635V55.322H34.8635V54.322ZM34.8635 50.5V49.5H33.8635V50.5H34.8635ZM35.8775 50.5H36.8775V49.5H35.8775V50.5ZM32.3855 54.046H33.3855V53.046H32.3855V54.046ZM32.3855 54.742H31.3855V55.742H32.3855V54.742ZM35.9495 54.742H36.9495V53.742H35.9495V54.742ZM35.9495 55.624V56.624H36.9495V55.624H35.9495ZM31.3535 55.624H30.3535V56.624H31.3535V55.624ZM31.3535 54.046V53.046H30.3535V54.046H31.3535ZM34.5215 50.848H33.5215V51.64H34.5215H35.5215V50.848H34.5215ZM34.5215 51.64V50.64H31.0175V51.64V52.64H34.5215V51.64ZM31.0175 51.64H32.0175V50.848H31.0175H30.0175V51.64H31.0175ZM31.0175 50.848V51.848H32.2535V50.848V49.848H31.0175V50.848ZM32.2535 50.848H33.2535V50.41H32.2535H31.2535V50.848H32.2535ZM32.2535 50.41V51.41H33.2855V50.41V49.41H32.2535V50.41ZM33.2855 50.41H32.2855V50.848H33.2855H34.2855V50.41H33.2855ZM33.2855 50.848V51.848H34.5215V50.848V49.848H33.2855V50.848ZM35.8775 51.688V52.688H36.4775V51.688V50.688H35.8775V51.688ZM36.4775 51.688H35.4775V52.672H36.4775H37.4775V51.688H36.4775ZM36.4775 52.672V51.672H35.8775V52.672V53.672H36.4775V52.672ZM35.8775 52.672H34.8775V54.322H35.8775H36.8775V52.672H35.8775ZM35.8775 54.322V53.322H34.8635V54.322V55.322H35.8775V54.322ZM34.8635 54.322H35.8635V50.5H34.8635H33.8635V54.322H34.8635ZM34.8635 50.5V51.5H35.8775V50.5V49.5H34.8635V50.5ZM35.8775 50.5H34.8775V51.688H35.8775H36.8775V50.5H35.8775ZM32.7695 53.896V52.896C32.4653 52.896 32.2715 52.8288 32.1896 52.7783C32.155 52.7569 32.1608 52.7515 32.1755 52.7754C32.1827 52.7872 32.1891 52.8014 32.1932 52.8162C32.1952 52.8232 32.1963 52.8292 32.1969 52.8336C32.1975 52.8381 32.1975 52.8403 32.1975 52.84H31.1975H30.1975C30.1975 53.5962 30.6135 54.1554 31.1384 54.4797C31.6295 54.7832 32.2216 54.896 32.7695 54.896V53.896ZM31.1975 52.84H32.1975C32.1975 52.8397 32.1975 52.8419 32.1969 52.8464C32.1963 52.8508 32.1952 52.8568 32.1932 52.8638C32.1891 52.8786 32.1827 52.8928 32.1755 52.9046C32.1608 52.9285 32.155 52.9231 32.1896 52.9017C32.2715 52.8512 32.4653 52.784 32.7695 52.784V51.784V50.784C32.2216 50.784 31.6295 50.8968 31.1384 51.2003C30.6135 51.5246 30.1975 52.0838 30.1975 52.84H31.1975ZM32.7695 51.784V52.784C33.0736 52.784 33.2675 52.8512 33.3494 52.9017C33.3839 52.9231 33.3782 52.9285 33.3635 52.9046C33.3563 52.8928 33.3499 52.8786 33.3457 52.8638C33.3438 52.8568 33.3427 52.8508 33.3421 52.8464C33.3415 52.8419 33.3415 52.8397 33.3415 52.84H34.3415H35.3415C35.3415 52.0838 34.9255 51.5246 34.4006 51.2003C33.9095 50.8968 33.3173 50.784 32.7695 50.784V51.784ZM34.3415 52.84H33.3415C33.3415 52.8403 33.3415 52.8381 33.3421 52.8336C33.3427 52.8292 33.3438 52.8232 33.3457 52.8162C33.3499 52.8014 33.3563 52.7872 33.3635 52.7754C33.3782 52.7515 33.3839 52.7569 33.3494 52.7783C33.2675 52.8288 33.0736 52.896 32.7695 52.896V53.896V54.896C33.3173 54.896 33.9095 54.7832 34.4006 54.4797C34.9255 54.1554 35.3415 53.5962 35.3415 52.84H34.3415ZM32.7695 52.516V51.516C32.4695 51.516 32.139 51.5729 31.8452 51.7355C31.5613 51.8925 31.1635 52.25 31.1635 52.84H32.1635H33.1635C33.1635 53.25 32.8857 53.4455 32.8133 53.4855C32.731 53.5311 32.7034 53.516 32.7695 53.516V52.516ZM32.1635 52.84H31.1635C31.1635 53.43 31.5613 53.7875 31.8452 53.9445C32.139 54.1071 32.4695 54.164 32.7695 54.164V53.164V52.164C32.7034 52.164 32.731 52.1489 32.8133 52.1945C32.8857 52.2345 33.1635 52.43 33.1635 52.84H32.1635ZM32.7695 53.164V54.164C33.0694 54.164 33.4 54.1071 33.6938 53.9445C33.9777 53.7875 34.3755 53.43 34.3755 52.84H33.3755H32.3755C32.3755 52.43 32.6533 52.2345 32.7257 52.1945C32.808 52.1489 32.8355 52.164 32.7695 52.164V53.164ZM33.3755 52.84H34.3755C34.3755 52.25 33.9777 51.8925 33.6938 51.7355C33.4 51.5729 33.0694 51.516 32.7695 51.516V52.516V53.516C32.8355 53.516 32.808 53.5311 32.7257 53.4855C32.6533 53.4455 32.3755 53.25 32.3755 52.84H33.3755ZM32.3855 54.046H31.3855V54.742H32.3855H33.3855V54.046H32.3855ZM32.3855 54.742V55.742H35.9495V54.742V53.742H32.3855V54.742ZM35.9495 54.742H34.9495V55.624H35.9495H36.9495V54.742H35.9495ZM35.9495 55.624V54.624H31.3535V55.624V56.624H35.9495V55.624ZM31.3535 55.624H32.3535V54.046H31.3535H30.3535V55.624H31.3535ZM31.3535 54.046V55.046H32.3855V54.046V53.046H31.3535V54.046ZM41.649 51.466H40.649V52.466H41.649V51.466ZM42.249 51.466H43.249V50.466H42.249V51.466ZM42.249 52.45V53.45H43.249V52.45H42.249ZM41.649 52.45V51.45H40.649V52.45H41.649ZM41.649 54.292V55.292H42.649V54.292H41.649ZM40.635 54.292H39.635V55.292H40.635V54.292ZM40.635 50.5V49.5H39.635V50.5H40.635ZM41.649 50.5H42.649V49.5H41.649V50.5ZM38.625 52.534L39.2446 51.7491L38.411 51.091L37.8042 51.9627L38.625 52.534ZM36.837 53.596H35.837V54.646L36.8857 54.5948L36.837 53.596ZM36.837 52.654L36.7193 51.6609L35.837 51.7655V52.654H36.837ZM38.199 50.524L38.2577 49.5257L37.2157 49.4644L37.1991 50.508L38.199 50.524ZM39.219 50.584H40.219V49.6411L39.2777 49.5857L39.219 50.584ZM39.027 51.73L38.0831 51.3996L37.8404 52.0931L38.4296 52.532L39.027 51.73ZM40.485 52.816L41.2447 53.4663L41.9405 52.6533L41.0823 52.014L40.485 52.816ZM39.879 53.524L39.2593 54.3089L40.0137 54.9044L40.6387 54.1743L39.879 53.524ZM38.157 53.83H39.157V52.83H38.157V53.83ZM38.157 54.712H37.157V55.712H38.157V54.712ZM41.721 54.712H42.721V53.712H41.721V54.712ZM41.721 55.624V56.624H42.721V55.624H41.721ZM37.125 55.624H36.125V56.624H37.125V55.624ZM37.125 53.83V52.83H36.125V53.83H37.125ZM41.649 51.466V52.466H42.249V51.466V50.466H41.649V51.466ZM42.249 51.466H41.249V52.45H42.249H43.249V51.466H42.249ZM42.249 52.45V51.45H41.649V52.45V53.45H42.249V52.45ZM41.649 52.45H40.649V54.292H41.649H42.649V52.45H41.649ZM41.649 54.292V53.292H40.635V54.292V55.292H41.649V54.292ZM40.635 54.292H41.635V50.5H40.635H39.635V54.292H40.635ZM40.635 50.5V51.5H41.649V50.5V49.5H40.635V50.5ZM41.649 50.5H40.649V51.466H41.649H42.649V50.5H41.649ZM38.625 52.534L37.8042 51.9627C37.5169 52.3755 37.155 52.5793 36.7882 52.5972L36.837 53.596L36.8857 54.5948C37.995 54.5407 38.881 53.9165 39.4457 53.1053L38.625 52.534ZM36.837 53.596H37.837V52.654H36.837H35.837V53.596H36.837ZM36.837 52.654L36.9547 53.647C37.7303 53.5551 38.3066 53.0766 38.6632 52.5057C39.0152 51.9419 39.1876 51.2468 39.1988 50.54L38.199 50.524L37.1991 50.508C37.1924 50.9292 37.0887 51.2511 36.9668 51.4463C36.8493 51.6344 36.7537 51.6569 36.7193 51.6609L36.837 52.654ZM38.199 50.524L38.1402 51.5223L39.1602 51.5823L39.219 50.584L39.2777 49.5857L38.2577 49.5257L38.199 50.524ZM39.219 50.584H38.219C38.219 50.8701 38.1711 51.1483 38.0831 51.3996L39.027 51.73L39.9708 52.0604C40.1348 51.5917 40.219 51.0899 40.219 50.584H39.219ZM39.027 51.73L38.4296 52.532L39.8876 53.618L40.485 52.816L41.0823 52.014L39.6243 50.928L39.027 51.73ZM40.485 52.816L39.7253 52.1657L39.1193 52.8737L39.879 53.524L40.6387 54.1743L41.2447 53.4663L40.485 52.816ZM39.879 53.524L40.4986 52.7391L39.2446 51.7491L38.625 52.534L38.0053 53.3189L39.2593 54.3089L39.879 53.524ZM38.157 53.83H37.157V54.712H38.157H39.157V53.83H38.157ZM38.157 54.712V55.712H41.721V54.712V53.712H38.157V54.712ZM41.721 54.712H40.721V55.624H41.721H42.721V54.712H41.721ZM41.721 55.624V54.624H37.125V55.624V56.624H41.721V55.624ZM37.125 55.624H38.125V53.83H37.125H36.125V55.624H37.125ZM37.125 53.83V54.83H38.157V53.83V52.83H37.125V53.83Z" fill="white" mask="url(#path-16-outside-1_31_71)"/>
<mask id="path-18-outside-2_31_71" maskUnits="userSpaceOnUse" x="16" y="45" width="35" height="6" fill="black">
<rect fill="white" x="16" y="45" width="35" height="6"/>
<path d="M19.124 48.884H20.632V49.252H17.22V48.884H18.72V48.056H17.444V46.124H20.408V46.492H17.848V47.688H20.448V48.056H19.124V48.884ZM23.8597 46H24.2557V49.416H23.8597V46ZM22.5957 46.1C22.5917 46.624 22.5477 47.096 22.4597 47.504L23.5637 48.976L23.2437 49.204L22.3357 47.964C22.0837 48.716 21.6677 49.172 21.1277 49.212V48.812C21.8117 48.704 22.1877 47.52 22.1917 46.084L22.5957 46.1ZM28.4873 47.352V47.732H28.0153V49.416H27.6193V46H28.0153V47.352H28.4873ZM26.2313 48.172V48.84C26.6833 48.84 27.0953 48.8 27.3353 48.696V49.068C27.0913 49.168 26.6873 49.212 26.2193 49.212H24.9153V48.84H25.8393V48.172C25.3393 48.088 24.9993 47.684 24.9993 47.132C24.9993 46.508 25.4313 46.072 26.0353 46.072C26.6353 46.072 27.0793 46.508 27.0793 47.132C27.0793 47.684 26.7313 48.088 26.2313 48.172ZM25.3873 47.132C25.3873 47.528 25.6353 47.832 26.0353 47.832C26.4313 47.832 26.6913 47.528 26.6913 47.132C26.6913 46.732 26.4313 46.428 26.0353 46.428C25.6353 46.428 25.3873 46.732 25.3873 47.132ZM33.4561 47.384V47.764H32.9761V49.416H32.5801V46H32.9761V47.384H33.4561ZM31.2921 46.488C31.2881 46.888 31.2521 47.252 31.1881 47.572L32.2841 48.948L31.9721 49.184L31.0721 48.02C30.8401 48.728 30.4401 49.152 29.9241 49.212V48.82C30.5281 48.708 30.8801 47.756 30.8921 46.488H30.0041V46.124H32.1521V46.488H31.2921ZM35.9757 47.316H36.5557V46.748H35.9757L35.9517 46.396H36.5557V46H36.9477V48.54H36.5557V47.668H35.9517L35.9757 47.316ZM35.8677 47.028C35.8677 47.6 35.4677 48.02 34.8117 48.02C34.1517 48.02 33.7517 47.6 33.7517 47.028C33.7517 46.456 34.1517 46.036 34.8117 46.036C35.4677 46.036 35.8677 46.456 35.8677 47.028ZM34.1477 47.028C34.1477 47.432 34.4077 47.684 34.8117 47.684C35.2117 47.684 35.4717 47.432 35.4717 47.028C35.4717 46.624 35.2117 46.368 34.8117 46.368C34.4077 46.368 34.1477 46.624 34.1477 47.028ZM34.4797 49.016H37.0197V49.372H34.0797V48.256H34.4797V49.016ZM40.3834 49.416V46H40.7794V49.416H40.3834ZM38.7514 48.224C38.1354 48.224 37.6954 47.784 37.6954 47.148C37.6954 46.512 38.1354 46.072 38.7514 46.072C39.3634 46.072 39.8074 46.512 39.8074 47.148C39.8074 47.784 39.3634 48.224 38.7514 48.224ZM38.7514 47.864C39.1554 47.864 39.4194 47.556 39.4194 47.148C39.4194 46.74 39.1554 46.428 38.7514 46.428C38.3434 46.428 38.0834 46.74 38.0834 47.148C38.0834 47.556 38.3434 47.864 38.7514 47.864ZM37.5794 49.212V48.84H38.9754C39.4434 48.84 39.8634 48.788 40.0954 48.68V49.048C39.8674 49.152 39.4434 49.212 38.9514 49.212H37.5794ZM45.3681 47.888V47.516H44.6401V47.168H45.3681V46.716H44.7721V46.368H45.3681V46H45.7641V47.888H45.3681ZM44.6041 46.456C44.6041 47.384 43.8361 47.78 42.6561 47.78V47.436C43.6121 47.432 44.2041 47.136 44.2041 46.524V46.42H42.6561V46.084H44.6041V46.456ZM44.3241 48C45.1401 48 45.8121 48.188 45.8121 48.708C45.8121 49.224 45.1401 49.416 44.3241 49.416C43.5081 49.416 42.8361 49.224 42.8361 48.708C42.8361 48.188 43.5081 48 44.3241 48ZM44.3241 49.088C44.9041 49.088 45.3921 48.976 45.3921 48.708C45.3921 48.44 44.9041 48.328 44.3241 48.328C43.7481 48.328 43.2561 48.44 43.2561 48.708C43.2561 48.976 43.7481 49.088 44.3241 49.088ZM49.3078 46H49.6798V49.416H49.3078V46ZM48.4678 46.856V46.02H48.8398V49.356H48.4678V48.3H47.6598C47.4158 48.872 46.9918 49.2 46.4718 49.204V48.832C47.1078 48.812 47.4998 48.12 47.4998 47.064V46.484H46.4718V46.124H47.8838V46.856H48.4678ZM47.7798 47.932H48.4678V47.224H47.8798C47.8678 47.48 47.8358 47.72 47.7798 47.932Z"/>
</mask>
<path d="M19.124 48.884H20.632V49.252H17.22V48.884H18.72V48.056H17.444V46.124H20.408V46.492H17.848V47.688H20.448V48.056H19.124V48.884ZM23.8597 46H24.2557V49.416H23.8597V46ZM22.5957 46.1C22.5917 46.624 22.5477 47.096 22.4597 47.504L23.5637 48.976L23.2437 49.204L22.3357 47.964C22.0837 48.716 21.6677 49.172 21.1277 49.212V48.812C21.8117 48.704 22.1877 47.52 22.1917 46.084L22.5957 46.1ZM28.4873 47.352V47.732H28.0153V49.416H27.6193V46H28.0153V47.352H28.4873ZM26.2313 48.172V48.84C26.6833 48.84 27.0953 48.8 27.3353 48.696V49.068C27.0913 49.168 26.6873 49.212 26.2193 49.212H24.9153V48.84H25.8393V48.172C25.3393 48.088 24.9993 47.684 24.9993 47.132C24.9993 46.508 25.4313 46.072 26.0353 46.072C26.6353 46.072 27.0793 46.508 27.0793 47.132C27.0793 47.684 26.7313 48.088 26.2313 48.172ZM25.3873 47.132C25.3873 47.528 25.6353 47.832 26.0353 47.832C26.4313 47.832 26.6913 47.528 26.6913 47.132C26.6913 46.732 26.4313 46.428 26.0353 46.428C25.6353 46.428 25.3873 46.732 25.3873 47.132ZM33.4561 47.384V47.764H32.9761V49.416H32.5801V46H32.9761V47.384H33.4561ZM31.2921 46.488C31.2881 46.888 31.2521 47.252 31.1881 47.572L32.2841 48.948L31.9721 49.184L31.0721 48.02C30.8401 48.728 30.4401 49.152 29.9241 49.212V48.82C30.5281 48.708 30.8801 47.756 30.8921 46.488H30.0041V46.124H32.1521V46.488H31.2921ZM35.9757 47.316H36.5557V46.748H35.9757L35.9517 46.396H36.5557V46H36.9477V48.54H36.5557V47.668H35.9517L35.9757 47.316ZM35.8677 47.028C35.8677 47.6 35.4677 48.02 34.8117 48.02C34.1517 48.02 33.7517 47.6 33.7517 47.028C33.7517 46.456 34.1517 46.036 34.8117 46.036C35.4677 46.036 35.8677 46.456 35.8677 47.028ZM34.1477 47.028C34.1477 47.432 34.4077 47.684 34.8117 47.684C35.2117 47.684 35.4717 47.432 35.4717 47.028C35.4717 46.624 35.2117 46.368 34.8117 46.368C34.4077 46.368 34.1477 46.624 34.1477 47.028ZM34.4797 49.016H37.0197V49.372H34.0797V48.256H34.4797V49.016ZM40.3834 49.416V46H40.7794V49.416H40.3834ZM38.7514 48.224C38.1354 48.224 37.6954 47.784 37.6954 47.148C37.6954 46.512 38.1354 46.072 38.7514 46.072C39.3634 46.072 39.8074 46.512 39.8074 47.148C39.8074 47.784 39.3634 48.224 38.7514 48.224ZM38.7514 47.864C39.1554 47.864 39.4194 47.556 39.4194 47.148C39.4194 46.74 39.1554 46.428 38.7514 46.428C38.3434 46.428 38.0834 46.74 38.0834 47.148C38.0834 47.556 38.3434 47.864 38.7514 47.864ZM37.5794 49.212V48.84H38.9754C39.4434 48.84 39.8634 48.788 40.0954 48.68V49.048C39.8674 49.152 39.4434 49.212 38.9514 49.212H37.5794ZM45.3681 47.888V47.516H44.6401V47.168H45.3681V46.716H44.7721V46.368H45.3681V46H45.7641V47.888H45.3681ZM44.6041 46.456C44.6041 47.384 43.8361 47.78 42.6561 47.78V47.436C43.6121 47.432 44.2041 47.136 44.2041 46.524V46.42H42.6561V46.084H44.6041V46.456ZM44.3241 48C45.1401 48 45.8121 48.188 45.8121 48.708C45.8121 49.224 45.1401 49.416 44.3241 49.416C43.5081 49.416 42.8361 49.224 42.8361 48.708C42.8361 48.188 43.5081 48 44.3241 48ZM44.3241 49.088C44.9041 49.088 45.3921 48.976 45.3921 48.708C45.3921 48.44 44.9041 48.328 44.3241 48.328C43.7481 48.328 43.2561 48.44 43.2561 48.708C43.2561 48.976 43.7481 49.088 44.3241 49.088ZM49.3078 46H49.6798V49.416H49.3078V46ZM48.4678 46.856V46.02H48.8398V49.356H48.4678V48.3H47.6598C47.4158 48.872 46.9918 49.2 46.4718 49.204V48.832C47.1078 48.812 47.4998 48.12 47.4998 47.064V46.484H46.4718V46.124H47.8838V46.856H48.4678ZM47.7798 47.932H48.4678V47.224H47.8798C47.8678 47.48 47.8358 47.72 47.7798 47.932Z" fill="#4A6F82"/>
<path d="M19.124 48.884H18.124V49.884H19.124V48.884ZM20.632 48.884H21.632V47.884H20.632V48.884ZM20.632 49.252V50.252H21.632V49.252H20.632ZM17.22 49.252H16.22V50.252H17.22V49.252ZM17.22 48.884V47.884H16.22V48.884H17.22ZM18.72 48.884V49.884H19.72V48.884H18.72ZM18.72 48.056H19.72V47.056H18.72V48.056ZM17.444 48.056H16.444V49.056H17.444V48.056ZM17.444 46.124V45.124H16.444V46.124H17.444ZM20.408 46.124H21.408V45.124H20.408V46.124ZM20.408 46.492V47.492H21.408V46.492H20.408ZM17.848 46.492V45.492H16.848V46.492H17.848ZM17.848 47.688H16.848V48.688H17.848V47.688ZM20.448 47.688H21.448V46.688H20.448V47.688ZM20.448 48.056V49.056H21.448V48.056H20.448ZM19.124 48.056V47.056H18.124V48.056H19.124ZM19.124 48.884V49.884H20.632V48.884V47.884H19.124V48.884ZM20.632 48.884H19.632V49.252H20.632H21.632V48.884H20.632ZM20.632 49.252V48.252H17.22V49.252V50.252H20.632V49.252ZM17.22 49.252H18.22V48.884H17.22H16.22V49.252H17.22ZM17.22 48.884V49.884H18.72V48.884V47.884H17.22V48.884ZM18.72 48.884H19.72V48.056H18.72H17.72V48.884H18.72ZM18.72 48.056V47.056H17.444V48.056V49.056H18.72V48.056ZM17.444 48.056H18.444V46.124H17.444H16.444V48.056H17.444ZM17.444 46.124V47.124H20.408V46.124V45.124H17.444V46.124ZM20.408 46.124H19.408V46.492H20.408H21.408V46.124H20.408ZM20.408 46.492V45.492H17.848V46.492V47.492H20.408V46.492ZM17.848 46.492H16.848V47.688H17.848H18.848V46.492H17.848ZM17.848 47.688V48.688H20.448V47.688V46.688H17.848V47.688ZM20.448 47.688H19.448V48.056H20.448H21.448V47.688H20.448ZM20.448 48.056V47.056H19.124V48.056V49.056H20.448V48.056ZM19.124 48.056H18.124V48.884H19.124H20.124V48.056H19.124ZM23.8597 46V45H22.8597V46H23.8597ZM24.2557 46H25.2557V45H24.2557V46ZM24.2557 49.416V50.416H25.2557V49.416H24.2557ZM23.8597 49.416H22.8597V50.416H23.8597V49.416ZM22.5957 46.1L23.5956 46.1076L23.603 45.1391L22.6352 45.1008L22.5957 46.1ZM22.4597 47.504L21.4821 47.2932L21.386 47.7391L21.6597 48.104L22.4597 47.504ZM23.5637 48.976L24.1439 49.7904L24.9785 49.1958L24.3637 48.376L23.5637 48.976ZM23.2437 49.204L22.4368 49.7948L23.02 50.5912L23.8239 50.0184L23.2437 49.204ZM22.3357 47.964L23.1425 47.3732L22.0012 45.8147L21.3875 47.6463L22.3357 47.964ZM21.1277 49.212H20.1277V50.2888L21.2015 50.2093L21.1277 49.212ZM21.1277 48.812L20.9717 47.8242L20.1277 47.9575V48.812H21.1277ZM22.1917 46.084L22.2312 45.0848L21.1946 45.0437L21.1917 46.0812L22.1917 46.084ZM23.8597 46V47H24.2557V46V45H23.8597V46ZM24.2557 46H23.2557V49.416H24.2557H25.2557V46H24.2557ZM24.2557 49.416V48.416H23.8597V49.416V50.416H24.2557V49.416ZM23.8597 49.416H24.8597V46H23.8597H22.8597V49.416H23.8597ZM22.5957 46.1L21.5957 46.0924C21.592 46.5687 21.552 46.9695 21.4821 47.2932L22.4597 47.504L23.4372 47.7148C23.5434 47.2225 23.5913 46.6793 23.5956 46.1076L22.5957 46.1ZM22.4597 47.504L21.6597 48.104L22.7637 49.576L23.5637 48.976L24.3637 48.376L23.2597 46.904L22.4597 47.504ZM23.5637 48.976L22.9834 48.1616L22.6634 48.3896L23.2437 49.204L23.8239 50.0184L24.1439 49.7904L23.5637 48.976ZM23.2437 49.204L24.0505 48.6132L23.1425 47.3732L22.3357 47.964L21.5288 48.5548L22.4368 49.7948L23.2437 49.204ZM22.3357 47.964L21.3875 47.6463C21.2916 47.9323 21.1872 48.0902 21.1158 48.1651C21.0827 48.1997 21.0622 48.2111 21.0574 48.2135C21.0544 48.2151 21.0552 48.2146 21.0538 48.2147L21.1277 49.212L21.2015 50.2093C22.3533 50.1239 22.9877 49.1655 23.2838 48.2817L22.3357 47.964ZM21.1277 49.212H22.1277V48.812H21.1277H20.1277V49.212H21.1277ZM21.1277 48.812L21.2836 49.7998C22.1926 49.6562 22.644 48.8594 22.8531 48.2914C23.0867 47.6568 23.1895 46.8761 23.1917 46.0868L22.1917 46.084L21.1917 46.0812C21.1899 46.7279 21.1026 47.2572 20.9762 47.6006C20.8253 48.0106 20.7467 47.8598 20.9717 47.8242L21.1277 48.812ZM22.1917 46.084L22.1521 47.0832L22.5561 47.0992L22.5957 46.1L22.6352 45.1008L22.2312 45.0848L22.1917 46.084ZM28.4873 47.352H29.4873V46.352H28.4873V47.352ZM28.4873 47.732V48.732H29.4873V47.732H28.4873ZM28.0153 47.732V46.732H27.0153V47.732H28.0153ZM28.0153 49.416V50.416H29.0153V49.416H28.0153ZM27.6193 49.416H26.6193V50.416H27.6193V49.416ZM27.6193 46V45H26.6193V46H27.6193ZM28.0153 46H29.0153V45H28.0153V46ZM28.0153 47.352H27.0153V48.352H28.0153V47.352ZM26.2313 48.172L26.0656 47.1858L25.2313 47.326V48.172H26.2313ZM26.2313 48.84H25.2313V49.84H26.2313V48.84ZM27.3353 48.696H28.3353V47.1728L26.9377 47.7784L27.3353 48.696ZM27.3353 49.068L27.7145 49.9933L28.3353 49.7389V49.068H27.3353ZM24.9153 49.212H23.9153V50.212H24.9153V49.212ZM24.9153 48.84V47.84H23.9153V48.84H24.9153ZM25.8393 48.84V49.84H26.8393V48.84H25.8393ZM25.8393 48.172H26.8393V47.326L26.005 47.1858L25.8393 48.172ZM28.4873 47.352H27.4873V47.732H28.4873H29.4873V47.352H28.4873ZM28.4873 47.732V46.732H28.0153V47.732V48.732H28.4873V47.732ZM28.0153 47.732H27.0153V49.416H28.0153H29.0153V47.732H28.0153ZM28.0153 49.416V48.416H27.6193V49.416V50.416H28.0153V49.416ZM27.6193 49.416H28.6193V46H27.6193H26.6193V49.416H27.6193ZM27.6193 46V47H28.0153V46V45H27.6193V46ZM28.0153 46H27.0153V47.352H28.0153H29.0153V46H28.0153ZM28.0153 47.352V48.352H28.4873V47.352V46.352H28.0153V47.352ZM26.2313 48.172H25.2313V48.84H26.2313H27.2313V48.172H26.2313ZM26.2313 48.84V49.84C26.6833 49.84 27.2841 49.8081 27.7329 49.6136L27.3353 48.696L26.9377 47.7784C26.9464 47.7747 26.893 47.796 26.7423 47.8143C26.6046 47.831 26.431 47.84 26.2313 47.84V48.84ZM27.3353 48.696H26.3353V49.068H27.3353H28.3353V48.696H27.3353ZM27.3353 49.068L26.9561 48.1427C26.9582 48.1418 26.942 48.1484 26.9008 48.1579C26.8609 48.167 26.8073 48.1766 26.7386 48.1851C26.6 48.2022 26.4247 48.212 26.2193 48.212V49.212V50.212C26.7028 50.212 27.2767 50.1727 27.7145 49.9933L27.3353 49.068ZM26.2193 49.212V48.212H24.9153V49.212V50.212H26.2193V49.212ZM24.9153 49.212H25.9153V48.84H24.9153H23.9153V49.212H24.9153ZM24.9153 48.84V49.84H25.8393V48.84V47.84H24.9153V48.84ZM25.8393 48.84H26.8393V48.172H25.8393H24.8393V48.84H25.8393ZM25.8393 48.172L26.005 47.1858C25.9916 47.1836 25.9889 47.1809 25.9927 47.1832C25.9967 47.1854 26.0019 47.1896 26.0062 47.1947C26.0103 47.1998 26.0095 47.201 26.0071 47.1939C26.0046 47.1866 25.9993 47.167 25.9993 47.132H24.9993H23.9993C23.9993 48.1423 24.663 48.9884 25.6736 49.1582L25.8393 48.172ZM24.9993 47.132H25.9993C25.9993 47.0919 26.0061 47.0711 26.0085 47.065C26.0107 47.0593 26.0105 47.0623 26.0046 47.0684C26.002 47.0711 25.9992 47.0733 25.9966 47.0751C25.994 47.0768 25.9925 47.0773 25.9929 47.0772C25.9933 47.077 25.9964 47.0758 26.0029 47.0746C26.0094 47.0734 26.02 47.072 26.0353 47.072V46.072V45.072C25.4851 45.072 24.9624 45.2749 24.5771 45.6676C24.1927 46.0593 23.9993 46.584 23.9993 47.132H24.9993ZM26.0353 46.072V47.072C26.0635 47.072 26.0767 47.0769 26.0787 47.0778C26.0807 47.0786 26.0776 47.0775 26.0733 47.0732C26.069 47.0689 26.069 47.0668 26.071 47.0717C26.073 47.0768 26.0793 47.0953 26.0793 47.132H27.0793H28.0793C28.0793 45.9608 27.1926 45.072 26.0353 45.072V46.072ZM27.0793 47.132H26.0793C26.0793 47.1645 26.0743 47.1822 26.0721 47.1884C26.07 47.1946 26.0693 47.1937 26.0727 47.1896C26.076 47.1856 26.0798 47.1828 26.0819 47.1816C26.0838 47.1805 26.0796 47.1835 26.0656 47.1858L26.2313 48.172L26.397 49.1582C27.3965 48.9903 28.0793 48.154 28.0793 47.132H27.0793ZM25.3873 47.132H24.3873C24.3873 47.5353 24.5147 47.9596 24.8152 48.2963C25.1263 48.6449 25.5646 48.832 26.0353 48.832V47.832V46.832C26.0636 46.832 26.1103 46.8378 26.1652 46.8618C26.2203 46.8858 26.2693 46.9219 26.3074 46.9647C26.3839 47.0504 26.3873 47.1247 26.3873 47.132H25.3873ZM26.0353 47.832V48.832C26.5045 48.832 26.94 48.6449 27.2506 48.3045C27.5533 47.9726 27.6913 47.5477 27.6913 47.132H26.6913H25.6913C25.6913 47.1123 25.6993 47.0374 25.7731 46.9565C25.8546 46.8671 25.9621 46.832 26.0353 46.832V47.832ZM26.6913 47.132H27.6913C27.6913 46.7167 27.5548 46.2908 27.2519 45.9575C26.941 45.6153 26.5047 45.428 26.0353 45.428V46.428V47.428C25.9619 47.428 25.8537 47.3927 25.7717 47.3025C25.6978 47.2212 25.6913 47.1473 25.6913 47.132H26.6913ZM26.0353 46.428V45.428C25.5644 45.428 25.1253 45.6153 24.8139 45.9656C24.5133 46.3038 24.3873 46.729 24.3873 47.132H25.3873H26.3873C26.3873 47.135 26.3853 47.2082 26.3087 47.2944C26.2705 47.3373 26.2214 47.3738 26.1658 47.398C26.1105 47.4222 26.0636 47.428 26.0353 47.428V46.428ZM33.4561 47.384H34.4561V46.384H33.4561V47.384ZM33.4561 47.764V48.764H34.4561V47.764H33.4561ZM32.9761 47.764V46.764H31.9761V47.764H32.9761ZM32.9761 49.416V50.416H33.9761V49.416H32.9761ZM32.5801 49.416H31.5801V50.416H32.5801V49.416ZM32.5801 46V45H31.5801V46H32.5801ZM32.9761 46H33.9761V45H32.9761V46ZM32.9761 47.384H31.9761V48.384H32.9761V47.384ZM31.2921 46.488V45.488H30.302L30.2921 46.478L31.2921 46.488ZM31.1881 47.572L30.2075 47.3759L30.1163 47.8315L30.4059 48.195L31.1881 47.572ZM32.2841 48.948L32.8873 49.7455L33.7051 49.127L33.0663 48.325L32.2841 48.948ZM31.9721 49.184L31.181 49.7957L31.7862 50.5785L32.5753 49.9815L31.9721 49.184ZM31.0721 48.02L31.8632 47.4083L30.7092 45.9159L30.1218 47.7086L31.0721 48.02ZM29.9241 49.212H28.9241V50.335L30.0396 50.2053L29.9241 49.212ZM29.9241 48.82L29.7417 47.8368L28.9241 47.9884V48.82H29.9241ZM30.8921 46.488L31.892 46.4975L31.9016 45.488H30.8921V46.488ZM30.0041 46.488H29.0041V47.488H30.0041V46.488ZM30.0041 46.124V45.124H29.0041V46.124H30.0041ZM32.1521 46.124H33.1521V45.124H32.1521V46.124ZM32.1521 46.488V47.488H33.1521V46.488H32.1521ZM33.4561 47.384H32.4561V47.764H33.4561H34.4561V47.384H33.4561ZM33.4561 47.764V46.764H32.9761V47.764V48.764H33.4561V47.764ZM32.9761 47.764H31.9761V49.416H32.9761H33.9761V47.764H32.9761ZM32.9761 49.416V48.416H32.5801V49.416V50.416H32.9761V49.416ZM32.5801 49.416H33.5801V46H32.5801H31.5801V49.416H32.5801ZM32.5801 46V47H32.9761V46V45H32.5801V46ZM32.9761 46H31.9761V47.384H32.9761H33.9761V46H32.9761ZM32.9761 47.384V48.384H33.4561V47.384V46.384H32.9761V47.384ZM31.2921 46.488L30.2921 46.478C30.2886 46.8257 30.2574 47.1264 30.2075 47.3759L31.1881 47.572L32.1686 47.7681C32.2467 47.3776 32.2875 46.9503 32.292 46.498L31.2921 46.488ZM31.1881 47.572L30.4059 48.195L31.5019 49.571L32.2841 48.948L33.0663 48.325L31.9703 46.949L31.1881 47.572ZM32.2841 48.948L31.6808 48.1505L31.3688 48.3865L31.9721 49.184L32.5753 49.9815L32.8873 49.7455L32.2841 48.948ZM31.9721 49.184L32.7632 48.5723L31.8632 47.4083L31.0721 48.02L30.281 48.6317L31.181 49.7957L31.9721 49.184ZM31.0721 48.02L30.1218 47.7086C30.038 47.9644 29.9445 48.1025 29.8824 48.1672C29.8307 48.2213 29.8092 48.2186 29.8086 48.2187L29.9241 49.212L30.0396 50.2053C31.116 50.0801 31.7346 49.2096 32.0223 48.3314L31.0721 48.02ZM29.9241 49.212H30.9241V48.82H29.9241H28.9241V49.212H29.9241ZM29.9241 48.82L30.1064 49.8032C30.9125 49.6538 31.3454 48.9892 31.5579 48.4604C31.7848 47.896 31.8853 47.2067 31.892 46.4975L30.8921 46.488L29.8921 46.4785C29.8868 47.0373 29.8053 47.458 29.7022 47.7146C29.5847 48.0068 29.5397 47.8742 29.7417 47.8368L29.9241 48.82ZM30.8921 46.488V45.488H30.0041V46.488V47.488H30.8921V46.488ZM30.0041 46.488H31.0041V46.124H30.0041H29.0041V46.488H30.0041ZM30.0041 46.124V47.124H32.1521V46.124V45.124H30.0041V46.124ZM32.1521 46.124H31.1521V46.488H32.1521H33.1521V46.124H32.1521ZM32.1521 46.488V45.488H31.2921V46.488V47.488H32.1521V46.488ZM35.9757 47.316V46.316H35.0416L34.978 47.248L35.9757 47.316ZM36.5557 47.316V48.316H37.5557V47.316H36.5557ZM36.5557 46.748H37.5557V45.748H36.5557V46.748ZM35.9757 46.748L34.978 46.816L35.0416 47.748H35.9757V46.748ZM35.9517 46.396V45.396H34.8812L34.954 46.464L35.9517 46.396ZM36.5557 46.396V47.396H37.5557V46.396H36.5557ZM36.5557 46V45H35.5557V46H36.5557ZM36.9477 46H37.9477V45H36.9477V46ZM36.9477 48.54V49.54H37.9477V48.54H36.9477ZM36.5557 48.54H35.5557V49.54H36.5557V48.54ZM36.5557 47.668H37.5557V46.668H36.5557V47.668ZM35.9517 47.668L34.954 47.6L34.8812 48.668H35.9517V47.668ZM34.4797 49.016H33.4797V50.016H34.4797V49.016ZM37.0197 49.016H38.0197V48.016H37.0197V49.016ZM37.0197 49.372V50.372H38.0197V49.372H37.0197ZM34.0797 49.372H33.0797V50.372H34.0797V49.372ZM34.0797 48.256V47.256H33.0797V48.256H34.0797ZM34.4797 48.256H35.4797V47.256H34.4797V48.256ZM35.9757 47.316V48.316H36.5557V47.316V46.316H35.9757V47.316ZM36.5557 47.316H37.5557V46.748H36.5557H35.5557V47.316H36.5557ZM36.5557 46.748V45.748H35.9757V46.748V47.748H36.5557V46.748ZM35.9757 46.748L36.9734 46.68L36.9494 46.328L35.9517 46.396L34.954 46.464L34.978 46.816L35.9757 46.748ZM35.9517 46.396V47.396H36.5557V46.396V45.396H35.9517V46.396ZM36.5557 46.396H37.5557V46H36.5557H35.5557V46.396H36.5557ZM36.5557 46V47H36.9477V46V45H36.5557V46ZM36.9477 46H35.9477V48.54H36.9477H37.9477V46H36.9477ZM36.9477 48.54V47.54H36.5557V48.54V49.54H36.9477V48.54ZM36.5557 48.54H37.5557V47.668H36.5557H35.5557V48.54H36.5557ZM36.5557 47.668V46.668H35.9517V47.668V48.668H36.5557V47.668ZM35.9517 47.668L36.9494 47.736L36.9734 47.384L35.9757 47.316L34.978 47.248L34.954 47.6L35.9517 47.668ZM35.8677 47.028H34.8677C34.8677 47.0541 34.8633 47.0609 34.866 47.0541C34.8691 47.0464 34.8766 47.0331 34.8895 47.0206C34.9024 47.0081 34.9107 47.006 34.9045 47.0083C34.8975 47.0109 34.869 47.02 34.8117 47.02V48.02V49.02C35.3571 49.02 35.8848 48.8414 36.2819 48.4564C36.6795 48.0708 36.8677 47.5532 36.8677 47.028H35.8677ZM34.8117 48.02V47.02C34.7528 47.02 34.7231 47.0107 34.7153 47.0078C34.7084 47.0053 34.7165 47.0071 34.7294 47.0197C34.7424 47.0322 34.7501 47.0457 34.7533 47.0537C34.7561 47.0608 34.7517 47.0541 34.7517 47.028H33.7517H32.7517C32.7517 47.5533 32.94 48.0715 33.339 48.4573C33.7372 48.8424 34.266 49.02 34.8117 49.02V48.02ZM33.7517 47.028H34.7517C34.7517 47.0019 34.7561 46.9952 34.7533 47.0023C34.7501 47.0103 34.7424 47.0238 34.7294 47.0363C34.7165 47.0489 34.7084 47.0507 34.7153 47.0482C34.7231 47.0453 34.7528 47.036 34.8117 47.036V46.036V45.036C34.266 45.036 33.7372 45.2136 33.339 45.5987C32.94 45.9845 32.7517 46.5027 32.7517 47.028H33.7517ZM34.8117 46.036V47.036C34.869 47.036 34.8975 47.0451 34.9045 47.0477C34.9107 47.05 34.9024 47.0479 34.8895 47.0354C34.8766 47.0229 34.8691 47.0096 34.866 47.0019C34.8633 46.9951 34.8677 47.0019 34.8677 47.028H35.8677H36.8677C36.8677 46.5028 36.6795 45.9852 36.2819 45.5996C35.8848 45.2146 35.3571 45.036 34.8117 45.036V46.036ZM34.1477 47.028H33.1477C33.1477 47.4493 33.2882 47.8875 33.6273 48.2208C33.9643 48.5519 34.4002 48.684 34.8117 48.684V47.684V46.684C34.8193 46.684 34.9231 46.6901 35.0291 46.7942C35.1373 46.9005 35.1477 47.0107 35.1477 47.028H34.1477ZM34.8117 47.684V48.684C35.2238 48.684 35.6587 48.5503 35.9942 48.2192C36.3314 47.8864 36.4717 47.4492 36.4717 47.028H35.4717H34.4717C34.4717 47.0108 34.4821 46.9016 34.5893 46.7958C34.6947 46.6917 34.7996 46.684 34.8117 46.684V47.684ZM35.4717 47.028H36.4717C36.4717 46.6073 36.3318 46.1709 35.9973 45.8379C35.6634 45.5055 35.2283 45.368 34.8117 45.368V46.368V47.368C34.7952 47.368 34.69 47.3585 34.5862 47.2551C34.4816 47.1511 34.4717 47.0447 34.4717 47.028H35.4717ZM34.8117 46.368V45.368C34.3958 45.368 33.9596 45.5038 33.6242 45.8363C33.2878 46.1699 33.1477 46.6072 33.1477 47.028H34.1477H35.1477C35.1477 47.0448 35.1377 47.1521 35.0322 47.2567C34.9279 47.3602 34.8237 47.368 34.8117 47.368V46.368ZM34.4797 49.016V50.016H37.0197V49.016V48.016H34.4797V49.016ZM37.0197 49.016H36.0197V49.372H37.0197H38.0197V49.016H37.0197ZM37.0197 49.372V48.372H34.0797V49.372V50.372H37.0197V49.372ZM34.0797 49.372H35.0797V48.256H34.0797H33.0797V49.372H34.0797ZM34.0797 48.256V49.256H34.4797V48.256V47.256H34.0797V48.256ZM34.4797 48.256H33.4797V49.016H34.4797H35.4797V48.256H34.4797ZM40.3834 49.416H39.3834V50.416H40.3834V49.416ZM40.3834 46V45H39.3834V46H40.3834ZM40.7794 46H41.7794V45H40.7794V46ZM40.7794 49.416V50.416H41.7794V49.416H40.7794ZM37.5794 49.212H36.5794V50.212H37.5794V49.212ZM37.5794 48.84V47.84H36.5794V48.84H37.5794ZM40.0954 48.68H41.0954V47.1114L39.6733 47.7734L40.0954 48.68ZM40.0954 49.048L40.5104 49.9578L41.0954 49.691V49.048H40.0954ZM40.3834 49.416H41.3834V46H40.3834H39.3834V49.416H40.3834ZM40.3834 46V47H40.7794V46V45H40.3834V46ZM40.7794 46H39.7794V49.416H40.7794H41.7794V46H40.7794ZM40.7794 49.416V48.416H40.3834V49.416V50.416H40.7794V49.416ZM38.7514 48.224V47.224C38.7171 47.224 38.701 47.2181 38.6981 47.2169C38.6956 47.2159 38.6993 47.2171 38.7042 47.2221C38.709 47.227 38.7084 47.2289 38.7056 47.2217C38.7027 47.2141 38.6954 47.1912 38.6954 47.148H37.6954H36.6954C36.6954 47.7022 36.891 48.2321 37.2806 48.6269C37.6707 49.0222 38.1983 49.224 38.7514 49.224V48.224ZM37.6954 47.148H38.6954C38.6954 47.1048 38.7027 47.0819 38.7056 47.0743C38.7084 47.0671 38.709 47.069 38.7042 47.0739C38.6993 47.0789 38.6956 47.0801 38.6981 47.0791C38.701 47.0779 38.7171 47.072 38.7514 47.072V46.072V45.072C38.1983 45.072 37.6707 45.2738 37.2806 45.6691C36.891 46.0639 36.6954 46.5938 36.6954 47.148H37.6954ZM38.7514 46.072V47.072C38.7839 47.072 38.7994 47.0777 38.8025 47.0789C38.8053 47.08 38.8023 47.0792 38.798 47.0748C38.7938 47.0705 38.7945 47.0692 38.7973 47.0763C38.8002 47.0836 38.8074 47.1059 38.8074 47.148H39.8074H40.8074C40.8074 46.5912 40.6091 46.0617 40.2197 45.6682C39.8303 45.2746 39.3037 45.072 38.7514 45.072V46.072ZM39.8074 47.148H38.8074C38.8074 47.1901 38.8002 47.2124 38.7973 47.2197C38.7945 47.2268 38.7938 47.2255 38.798 47.2212C38.8023 47.2168 38.8053 47.216 38.8025 47.2171C38.7994 47.2183 38.7839 47.224 38.7514 47.224V48.224V49.224C39.3037 49.224 39.8303 49.0214 40.2197 48.6278C40.6091 48.2343 40.8074 47.7048 40.8074 47.148H39.8074ZM38.7514 47.864V48.864C39.2228 48.864 39.6624 48.6771 39.9764 48.3321C40.2824 47.9959 40.4194 47.5663 40.4194 47.148H39.4194H38.4194C38.4194 47.1377 38.4243 47.0661 38.4973 46.9859C38.5784 46.8969 38.684 46.864 38.7514 46.864V47.864ZM39.4194 47.148H40.4194C40.4194 46.7301 40.2828 46.3012 39.979 45.9648C39.6668 45.619 39.227 45.428 38.7514 45.428V46.428V47.428C38.722 47.428 38.6772 47.4219 38.6259 47.3995C38.5747 47.3772 38.5297 47.344 38.4947 47.3052C38.4239 47.2268 38.4194 47.1579 38.4194 47.148H39.4194ZM38.7514 46.428V45.428C38.2759 45.428 37.8344 45.6176 37.5208 45.9664C37.2165 46.3047 37.0834 46.7341 37.0834 47.148H38.0834H39.0834C39.0834 47.1539 39.0802 47.2233 39.008 47.3036C38.9721 47.3435 38.9262 47.3773 38.8744 47.3999C38.8226 47.4224 38.7785 47.428 38.7514 47.428V46.428ZM38.0834 47.148H37.0834C37.0834 47.5623 37.2169 47.9923 37.5234 48.3305C37.8388 48.6786 38.2801 48.864 38.7514 48.864V47.864V46.864C38.7767 46.864 38.8196 46.8692 38.8708 46.8912C38.9222 46.9134 38.9686 46.947 39.0054 46.9875C39.0799 47.0697 39.0834 47.1417 39.0834 47.148H38.0834ZM37.5794 49.212H38.5794V48.84H37.5794H36.5794V49.212H37.5794ZM37.5794 48.84V49.84H38.9754V48.84V47.84H37.5794V48.84ZM38.9754 48.84V49.84C39.4584 49.84 40.0714 49.7942 40.5174 49.5866L40.0954 48.68L39.6733 47.7734C39.6889 47.7662 39.6391 47.789 39.4875 47.8098C39.3504 47.8287 39.1753 47.84 38.9754 47.84V48.84ZM40.0954 48.68H39.0954V49.048H40.0954H41.0954V48.68H40.0954ZM40.0954 49.048L39.6804 48.1382C39.6914 48.1331 39.6356 48.157 39.481 48.1791C39.3401 48.1992 39.1593 48.212 38.9514 48.212V49.212V50.212C39.472 50.212 40.0775 50.1553 40.5104 49.9578L40.0954 49.048ZM38.9514 49.212V48.212H37.5794V49.212V50.212H38.9514V49.212ZM45.3681 47.888H44.3681V48.888H45.3681V47.888ZM45.3681 47.516H46.3681V46.516H45.3681V47.516ZM44.6401 47.516H43.6401V48.516H44.6401V47.516ZM44.6401 47.168V46.168H43.6401V47.168H44.6401ZM45.3681 47.168V48.168H46.3681V47.168H45.3681ZM45.3681 46.716H46.3681V45.716H45.3681V46.716ZM44.7721 46.716H43.7721V47.716H44.7721V46.716ZM44.7721 46.368V45.368H43.7721V46.368H44.7721ZM45.3681 46.368V47.368H46.3681V46.368H45.3681ZM45.3681 46V45H44.3681V46H45.3681ZM45.7641 46H46.7641V45H45.7641V46ZM45.7641 47.888V48.888H46.7641V47.888H45.7641ZM42.6561 47.78H41.6561V48.78H42.6561V47.78ZM42.6561 47.436L42.6519 46.436L41.6561 46.4402V47.436H42.6561ZM44.2041 46.42H45.2041V45.42H44.2041V46.42ZM42.6561 46.42H41.6561V47.42H42.6561V46.42ZM42.6561 46.084V45.084H41.6561V46.084H42.6561ZM44.6041 46.084H45.6041V45.084H44.6041V46.084ZM45.3681 47.888H46.3681V47.516H45.3681H44.3681V47.888H45.3681ZM45.3681 47.516V46.516H44.6401V47.516V48.516H45.3681V47.516ZM44.6401 47.516H45.6401V47.168H44.6401H43.6401V47.516H44.6401ZM44.6401 47.168V48.168H45.3681V47.168V46.168H44.6401V47.168ZM45.3681 47.168H46.3681V46.716H45.3681H44.3681V47.168H45.3681ZM45.3681 46.716V45.716H44.7721V46.716V47.716H45.3681V46.716ZM44.7721 46.716H45.7721V46.368H44.7721H43.7721V46.716H44.7721ZM44.7721 46.368V47.368H45.3681V46.368V45.368H44.7721V46.368ZM45.3681 46.368H46.3681V46H45.3681H44.3681V46.368H45.3681ZM45.3681 46V47H45.7641V46V45H45.3681V46ZM45.7641 46H44.7641V47.888H45.7641H46.7641V46H45.7641ZM45.7641 47.888V46.888H45.3681V47.888V48.888H45.7641V47.888ZM44.6041 46.456H43.6041C43.6041 46.5473 43.5862 46.5784 43.5856 46.5796C43.5843 46.582 43.5823 46.5852 43.5773 46.5904C43.572 46.5959 43.5603 46.6068 43.5376 46.6212C43.429 46.6899 43.1631 46.78 42.6561 46.78V47.78V48.78C43.3291 48.78 44.0372 48.6721 44.6076 48.3108C45.2473 47.9057 45.6041 47.2498 45.6041 46.456H44.6041ZM42.6561 47.78H43.6561V47.436H42.6561H41.6561V47.78H42.6561ZM42.6561 47.436L42.6603 48.436C43.2132 48.4337 43.7982 48.3509 44.2802 48.0788C44.8268 47.7703 45.2041 47.2292 45.2041 46.524H44.2041H43.2041C43.2041 46.5089 43.21 46.4567 43.2462 46.3981C43.28 46.3435 43.3121 46.3287 43.2971 46.3372C43.2783 46.3478 43.221 46.3742 43.1058 46.3972C42.9924 46.4198 42.8421 46.4352 42.6519 46.436L42.6561 47.436ZM44.2041 46.524H45.2041V46.42H44.2041H43.2041V46.524H44.2041ZM44.2041 46.42V45.42H42.6561V46.42V47.42H44.2041V46.42ZM42.6561 46.42H43.6561V46.084H42.6561H41.6561V46.42H42.6561ZM42.6561 46.084V47.084H44.6041V46.084V45.084H42.6561V46.084ZM44.6041 46.084H43.6041V46.456H44.6041H45.6041V46.084H44.6041ZM44.3241 48V49C44.4917 49 44.6375 49.0098 44.7575 49.0272C44.8807 49.045 44.955 49.0678 44.991 49.0827C45.0296 49.0987 44.9857 49.0895 44.9267 49.0188C44.8533 48.9309 44.8121 48.8137 44.8121 48.708H45.8121H46.8121C46.8121 47.8866 46.2303 47.4315 45.7573 47.2353C45.3084 47.0491 44.7825 47 44.3241 47V48ZM45.8121 48.708H44.8121C44.8121 48.5994 44.8545 48.4817 44.9273 48.3947C44.9858 48.3249 45.0287 48.3161 44.9895 48.3324C44.9532 48.3476 44.8786 48.3705 44.7558 48.3885C44.6361 48.4061 44.4909 48.416 44.3241 48.416V49.416V50.416C44.7846 50.416 45.3103 50.3654 45.7587 50.1786C46.228 49.983 46.8121 49.5292 46.8121 48.708H45.8121ZM44.3241 49.416V48.416C44.1574 48.416 44.0121 48.4061 43.8924 48.3885C43.7697 48.3705 43.6951 48.3476 43.6587 48.3324C43.6195 48.3161 43.6625 48.3249 43.7209 48.3947C43.7937 48.4817 43.8361 48.5994 43.8361 48.708H42.8361H41.8361C41.8361 49.5292 42.4202 49.983 42.8895 50.1786C43.338 50.3654 43.8636 50.416 44.3241 50.416V49.416ZM42.8361 48.708H43.8361C43.8361 48.8137 43.795 48.9309 43.7216 49.0188C43.6626 49.0895 43.6186 49.0987 43.6573 49.0827C43.6932 49.0678 43.7676 49.045 43.8907 49.0272C44.0108 49.0098 44.1565 49 44.3241 49V48V47C43.8658 47 43.3399 47.0491 42.891 47.2353C42.418 47.4315 41.8361 47.8866 41.8361 48.708H42.8361ZM44.3241 49.088V50.088C44.6584 50.088 45.042 50.0579 45.3771 49.952C45.5423 49.8997 45.767 49.8073 45.9671 49.6315C46.1893 49.4361 46.3921 49.1214 46.3921 48.708H45.3921H44.3921C44.3921 48.5835 44.4219 48.4605 44.4771 48.351C44.5302 48.2457 44.5961 48.1738 44.6466 48.1294C44.737 48.0499 44.8035 48.0358 44.7741 48.045C44.7203 48.0621 44.5699 48.088 44.3241 48.088V49.088ZM45.3921 48.708H46.3921C46.3921 48.2946 46.1893 47.9799 45.9671 47.7845C45.767 47.6087 45.5423 47.5163 45.3771 47.464C45.042 47.3581 44.6584 47.328 44.3241 47.328V48.328V49.328C44.5699 49.328 44.7203 49.3539 44.7741 49.371C44.8035 49.3802 44.737 49.3661 44.6466 49.2866C44.5961 49.2422 44.5302 49.1703 44.4771 49.065C44.4219 48.9555 44.3921 48.8325 44.3921 48.708H45.3921ZM44.3241 48.328V47.328C43.9912 47.328 43.6082 47.3582 43.2733 47.4638C43.1085 47.5158 42.8839 47.6078 42.6839 47.7827C42.4619 47.9767 42.2561 48.2917 42.2561 48.708H43.2561H44.2561C44.2561 48.8339 44.2258 48.9577 44.17 49.0675C44.1165 49.1729 44.0503 49.2446 44.0001 49.2885C43.9103 49.367 43.8448 49.3807 43.8749 49.3712C43.93 49.3538 44.081 49.328 44.3241 49.328V48.328ZM43.2561 48.708H42.2561C42.2561 49.1243 42.4619 49.4393 42.6839 49.6333C42.8839 49.8082 43.1085 49.9002 43.2733 49.9522C43.6082 50.0578 43.9912 50.088 44.3241 50.088V49.088V48.088C44.081 48.088 43.93 48.0622 43.8749 48.0448C43.8448 48.0353 43.9103 48.049 44.0001 48.1275C44.0503 48.1714 44.1165 48.2431 44.17 48.3485C44.2258 48.4583 44.2561 48.5821 44.2561 48.708H43.2561ZM49.3078 46V45H48.3078V46H49.3078ZM49.6798 46H50.6798V45H49.6798V46ZM49.6798 49.416V50.416H50.6798V49.416H49.6798ZM49.3078 49.416H48.3078V50.416H49.3078V49.416ZM48.4678 46.856V47.856H49.4678V46.856H48.4678ZM48.4678 46.02V45.02H47.4678V46.02H48.4678ZM48.8398 46.02H49.8398V45.02H48.8398V46.02ZM48.8398 49.356V50.356H49.8398V49.356H48.8398ZM48.4678 49.356H47.4678V50.356H48.4678V49.356ZM48.4678 48.3H49.4678V47.3H48.4678V48.3ZM47.6598 48.3V47.3H46.9992L46.74 47.9076L47.6598 48.3ZM46.4718 49.204H45.4718V50.2117L46.4795 50.204L46.4718 49.204ZM46.4718 48.832L46.4404 47.8325L45.4718 47.863V48.832H46.4718ZM47.4998 46.484H48.4998V45.484H47.4998V46.484ZM46.4718 46.484H45.4718V47.484H46.4718V46.484ZM46.4718 46.124V45.124H45.4718V46.124H46.4718ZM47.8838 46.124H48.8838V45.124H47.8838V46.124ZM47.8838 46.856H46.8838V47.856H47.8838V46.856ZM47.7798 47.932L46.8129 47.6766L46.4813 48.932H47.7798V47.932ZM48.4678 47.932V48.932H49.4678V47.932H48.4678ZM48.4678 47.224H49.4678V46.224H48.4678V47.224ZM47.8798 47.224V46.224H46.9256L46.8809 47.1772L47.8798 47.224ZM49.3078 46V47H49.6798V46V45H49.3078V46ZM49.6798 46H48.6798V49.416H49.6798H50.6798V46H49.6798ZM49.6798 49.416V48.416H49.3078V49.416V50.416H49.6798V49.416ZM49.3078 49.416H50.3078V46H49.3078H48.3078V49.416H49.3078ZM48.4678 46.856H49.4678V46.02H48.4678H47.4678V46.856H48.4678ZM48.4678 46.02V47.02H48.8398V46.02V45.02H48.4678V46.02ZM48.8398 46.02H47.8398V49.356H48.8398H49.8398V46.02H48.8398ZM48.8398 49.356V48.356H48.4678V49.356V50.356H48.8398V49.356ZM48.4678 49.356H49.4678V48.3H48.4678H47.4678V49.356H48.4678ZM48.4678 48.3V47.3H47.6598V48.3V49.3H48.4678V48.3ZM47.6598 48.3L46.74 47.9076C46.6719 48.0673 46.6009 48.1408 46.5621 48.1705C46.5306 48.1945 46.5044 48.2037 46.4641 48.204L46.4718 49.204L46.4795 50.204C47.4956 50.1962 48.2221 49.5305 48.5796 48.6924L47.6598 48.3ZM46.4718 49.204H47.4718V48.832H46.4718H45.4718V49.204H46.4718ZM46.4718 48.832L46.5032 49.8315C47.2385 49.8084 47.7788 49.3761 48.0903 48.8364C48.385 48.326 48.4998 47.6975 48.4998 47.064H47.4998H46.4998C46.4998 47.4865 46.4186 47.732 46.3582 47.8366C46.3315 47.8828 46.3216 47.88 46.3457 47.864C46.3753 47.8442 46.413 47.8334 46.4404 47.8325L46.4718 48.832ZM47.4998 47.064H48.4998V46.484H47.4998H46.4998V47.064H47.4998ZM47.4998 46.484V45.484H46.4718V46.484V47.484H47.4998V46.484ZM46.4718 46.484H47.4718V46.124H46.4718H45.4718V46.484H46.4718ZM46.4718 46.124V47.124H47.8838V46.124V45.124H46.4718V46.124ZM47.8838 46.124H46.8838V46.856H47.8838H48.8838V46.124H47.8838ZM47.8838 46.856V47.856H48.4678V46.856V45.856H47.8838V46.856ZM47.7798 47.932V48.932H48.4678V47.932V46.932H47.7798V47.932ZM48.4678 47.932H49.4678V47.224H48.4678H47.4678V47.932H48.4678ZM48.4678 47.224V46.224H47.8798V47.224V48.224H48.4678V47.224ZM47.8798 47.224L46.8809 47.1772C46.8712 47.383 46.8464 47.55 46.8129 47.6766L47.7798 47.932L48.7466 48.1874C48.8252 47.89 48.8643 47.577 48.8787 47.2708L47.8798 47.224Z" fill="white" mask="url(#path-18-outside-2_31_71)"/>
<path d="M38.7635 29.8527L38.0351 28.4999C37.9361 28.3161 38.0248 28.0874 38.2219 28.0184L40.8666 27.0928C40.9889 27.05 41.096 27.1864 41.0254 27.295L39.3472 29.8768C39.2066 30.0931 38.8858 30.0798 38.7635 29.8527Z" fill="#4A6F82"/>
<path d="M31.2299 25.7728H32.329C32.4796 25.7728 32.6123 25.6735 32.6548 25.529L33.2902 23.3685C33.3293 23.2355 33.1674 23.1362 33.0666 23.2314L30.9968 25.1863C30.7734 25.3973 30.9227 25.7728 31.2299 25.7728Z" fill="#4A6F82"/>
<path d="M38.7635 29.8527L38.0351 28.4999C37.9361 28.3161 38.0248 28.0874 38.2219 28.0184L40.8666 27.0928C40.9889 27.05 41.096 27.1864 41.0254 27.295L39.3472 29.8768C39.2066 30.0931 38.8858 30.0798 38.7635 29.8527Z" stroke="#4A6F82" stroke-width="0.5"/>
<path d="M31.2299 25.7728H32.329C32.4796 25.7728 32.6123 25.6735 32.6548 25.529L33.2902 23.3685C33.3293 23.2355 33.1674 23.1362 33.0666 23.2314L30.9968 25.1863C30.7734 25.3973 30.9227 25.7728 31.2299 25.7728Z" stroke="#4A6F82" stroke-width="0.5"/>
<path d="M20.667 32.2041L20.71 32.2617L20.7773 32.2881L26.6572 34.5732C27.8296 35.0289 29.0733 35.269 30.3281 35.2822L30.8662 35.2734L36.6543 35.0352L36.1318 36.7354L36.0947 36.8564L36.1699 36.957L36.6621 37.624L35.0342 39.1055H27.7803C26.5399 39.1054 25.3303 38.7602 24.3389 38.0479L24.1436 37.9004C22.892 36.9093 21.2429 35.4754 20.21 34.0801C19.6917 33.38 19.3493 32.7158 19.2686 32.1406C19.2288 31.8573 19.2532 31.6011 19.3467 31.3721C19.4156 31.2031 19.5253 31.0399 19.6875 30.8867L20.667 32.2041ZM33.9941 21.084C34.2675 20.8771 34.6507 21.0593 34.6807 21.3838L34.6816 21.4502L34.4375 25.8545C34.4252 26.0755 34.5371 26.2824 34.7227 26.3936L34.8066 26.4355L36.1787 26.9834C36.2634 27.0173 36.3542 27.0316 36.4443 27.0244L36.5332 27.0098L41.7041 25.7852C42.0096 25.7129 42.2786 25.9803 42.2256 26.2764L42.2109 26.3359L40.2725 32.29C40.2296 32.4218 40.2166 32.561 40.2344 32.6973L40.2627 32.833L41.3496 36.6357C41.4331 36.9282 41.3355 37.2379 41.1104 37.4307L41.0059 37.5059L38.5215 38.9961C38.4021 39.0677 38.2652 39.1055 38.126 39.1055H35.7773L37.166 37.8428L37.333 37.6914L37.1992 37.5098L36.6465 36.7617L37.2363 34.8447L37.3408 34.5068L36.9873 34.5215L30.8457 34.7744C29.649 34.8235 28.4549 34.6552 27.3203 34.2803L26.8379 34.1074L21.0254 31.8477L20.0908 30.5908C20.5488 30.3212 21.1599 30.1207 21.7031 29.9824C22.0145 29.9031 22.2952 29.8465 22.498 29.8096C22.5994 29.7911 22.6814 29.7773 22.7373 29.7686C22.765 29.7642 22.7864 29.7609 22.8008 29.7588C22.808 29.7577 22.8139 29.7573 22.8174 29.7568C22.819 29.7566 22.8205 29.756 22.8213 29.7559H22.8223L22.9326 29.7412L22.9951 29.6484L25.6357 25.7646C25.7392 25.6126 25.8935 25.5031 26.0693 25.4551L26.1455 25.4385L28.5244 25.042C28.6763 25.0167 28.8218 24.9638 28.9541 24.8867L29.0811 24.8018L33.9941 21.084Z" stroke="#4A6F82" stroke-width="0.5"/>
<path d="M38.1861 37.9975C37.9486 39.376 38.2313 40.4183 39.035 41.5631C40.1938 43.2136 43.11 43.4308 44.2985 42.9214C45.6517 42.3415 46.7158 41.7746 47.5245 40.5444C47.7627 40.1819 48.2036 39.3559 48.2036 39.3559C48.2036 39.3559 46.631 39.9631 45.9964 39.6954C45.0018 39.2759 46.5057 36.9788 46.5057 36.9788C46.5057 36.9788 45.0482 37.764 44.2985 37.3184C43.3215 36.7378 44.1287 34.4131 44.1287 34.4131H41.2423C41.2423 34.4131 40.4678 34.6472 40.0538 34.9414C38.9891 35.6978 38.4079 36.7104 38.1861 37.9975Z" fill="#4A6F82"/>
<path d="M47.5245 26.7915C47.5245 26.7915 46.7131 31.2721 44.6381 32.9039C43.4973 33.801 41.2423 34.4131 41.2423 34.4131H44.1287C44.1287 34.4131 43.3215 36.7378 44.2985 37.3184C45.0482 37.764 46.5057 36.9788 46.5057 36.9788C46.5057 36.9788 45.0018 39.2759 45.9964 39.6954C46.631 39.9631 48.2036 39.3559 48.2036 39.3559C48.2036 39.3559 49.5165 36.7809 49.9015 34.9414C50.5807 31.6964 47.5245 26.7915 47.5245 26.7915Z" fill="white"/>
<path d="M41.2423 34.4131C41.2423 34.4131 40.4678 34.6472 40.0538 34.9414C38.9891 35.6978 38.4079 36.7104 38.1861 37.9975C37.9486 39.376 38.2313 40.4183 39.035 41.5631C40.1938 43.2136 43.11 43.4308 44.2985 42.9214C45.6517 42.3415 46.7158 41.7746 47.5245 40.5444C47.7627 40.1819 48.2036 39.3559 48.2036 39.3559M41.2423 34.4131C41.2423 34.4131 43.4973 33.801 44.6381 32.9039C46.7131 31.2721 47.5245 26.7915 47.5245 26.7915C47.5245 26.7915 50.5807 31.6964 49.9015 34.9414C49.5165 36.7809 48.2036 39.3559 48.2036 39.3559M41.2423 34.4131H44.1287C44.1287 34.4131 43.3215 36.7378 44.2985 37.3184C45.0482 37.764 46.5057 36.9788 46.5057 36.9788C46.5057 36.9788 45.0018 39.2759 45.9964 39.6954C46.631 39.9631 48.2036 39.3559 48.2036 39.3559" stroke="#4A6F82" stroke-width="0.5"/>
<ellipse cx="26.1311" cy="31.0362" rx="0.679154" ry="0.848943" transform="rotate(23.4772 26.1311 31.0362)" fill="#4A6F82"/>
<ellipse cx="30.488" cy="32.9344" rx="0.679154" ry="0.848943" transform="rotate(23.4772 30.488 32.9344)" fill="#4A6F82"/>
<ellipse cx="20.8724" cy="31.9332" rx="0.856625" ry="0.648439" transform="rotate(46.0556 20.8724 31.9332)" fill="#4A6F82"/>
</g>
<defs>
<filter id="filter0_d_31_71" x="0" y="0" width="68" height="68" filterUnits="userSpaceOnUse" color-interpolation-filters="sRGB">
<feFlood flood-opacity="0" result="BackgroundImageFix"/>
<feColorMatrix in="SourceAlpha" type="matrix" values="0 0 0 0 0 0 0 0 0 0 0 0 0 0 0 0 0 0 127 0" result="hardAlpha"/>
<feOffset/>
<feGaussianBlur stdDeviation="2"/>
<feComposite in2="hardAlpha" operator="out"/>
<feColorMatrix type="matrix" values="0 0 0 0 0.229671 0 0 0 0 0.229671 0 0 0 0 0.229671 0 0 0 0.2 0"/>
<feBlend mode="normal" in2="BackgroundImageFix" result="effect1_dropShadow_31_71"/>
<feBlend mode="normal" in="SourceGraphic" in2="effect1_dropShadow_31_71" result="shape"/>
</filter>
</defs>
</svg>
