<svg width="68" height="68" viewBox="0 0 68 68" fill="none" xmlns="http://www.w3.org/2000/svg">
<g filter="url(#filter0_d_11_474)">
<rect x="4" y="4" width="60" height="60" rx="30" fill="white" shape-rendering="crispEdges"/>
<rect x="7.5" y="7.5" width="53" height="53" rx="26.5" fill="white"/>
<rect x="7.5" y="7.5" width="53" height="53" rx="26.5" stroke="#F1C933" stroke-width="2"/>
<rect x="9.1" y="9.1" width="49.8" height="49.8" rx="24.9" fill="white"/>
<rect x="9.1" y="9.1" width="49.8" height="49.8" rx="24.9" stroke="#F1C933" stroke-width="0.2"/>
<path d="M11.8 35.2638V34.6818H16V35.2638H11.8ZM13.54 33.7938C13.54 33.9338 13.564 34.0598 13.612 34.1718C13.66 34.2798 13.728 34.3718 13.816 34.4478C13.904 34.5238 14.008 34.5818 14.128 34.6218C14.248 34.6618 14.378 34.6818 14.518 34.6818H16V35.2638H14.53C14.302 35.2638 14.092 35.2298 13.9 35.1618C13.704 35.0938 13.536 34.9978 13.396 34.8738C13.252 34.7458 13.14 34.5918 13.06 34.4118C12.98 34.2278 12.94 34.0218 12.94 33.7938C12.94 33.5658 12.98 33.3678 13.06 33.1998C13.14 33.0278 13.252 32.8818 13.396 32.7618C13.536 32.6418 13.704 32.5458 13.9 32.4738C14.092 32.4018 14.302 32.3518 14.53 32.3238L16 32.1438V32.7318L14.518 32.9178C14.378 32.9338 14.248 32.9638 14.128 33.0078C14.008 33.0478 13.906 33.1038 13.822 33.1758C13.734 33.2438 13.666 33.3298 13.618 33.4338C13.566 33.5338 13.54 33.6538 13.54 33.7938Z" fill="#F1C933"/>
<path d="M13.4745 29.0343L13.6137 28.4692L16.5266 29.1872L16.3873 29.7523L13.4745 29.0343ZM12.5557 28.8758C12.4508 28.85 12.375 28.7983 12.3282 28.7209C12.2784 28.6386 12.2664 28.545 12.2923 28.4401C12.3172 28.3392 12.3703 28.2657 12.4516 28.2199C12.5301 28.1692 12.6217 28.1567 12.7266 28.1826C12.8314 28.2084 12.9087 28.2625 12.9585 28.3448C13.0053 28.4222 13.0163 28.5115 12.9914 28.6124C12.9655 28.7173 12.9134 28.7951 12.835 28.8458C12.7536 28.8917 12.6605 28.9017 12.5557 28.8758Z" fill="#F1C933"/>
<path d="M16.3038 24.5709C16.4283 24.3336 16.4841 24.137 16.471 23.9811C16.4599 23.8216 16.359 23.6738 16.1684 23.5377L15.6653 23.1923L15.9358 22.6769L16.4283 23.0167C16.6507 23.1696 16.8052 23.3185 16.8918 23.4633C16.9768 23.6028 17.0051 23.7554 16.9768 23.9212C17.088 23.8125 17.2341 23.7536 17.415 23.7447C17.5959 23.7357 17.8018 23.7738 18.0327 23.8588L18.5921 24.0711L18.3217 24.5864L17.7516 24.3686C17.5296 24.2837 17.3499 24.2819 17.2123 24.3633C17.0747 24.4447 16.9436 24.6041 16.8191 24.8414L16.5291 25.3939L17.6023 25.9571L17.3318 26.4725L13.6129 24.5206L13.8834 24.0053L16.0138 25.1234L16.3038 24.5709Z" fill="#F1C933"/>
<path d="M19.3553 19.5543C19.2217 19.5482 19.0916 19.5745 18.9648 19.6332C18.8376 19.6862 18.7237 19.7696 18.6229 19.8834C18.4584 20.069 18.3742 20.2697 18.3703 20.4852C18.3663 20.7008 18.4351 20.9007 18.5765 21.0848L19.3553 19.5543ZM18.3493 21.6851C18.1787 21.5339 18.0453 21.3677 17.9494 21.1865C17.8531 20.9997 17.7963 20.8104 17.779 20.6188C17.7614 20.4215 17.785 20.2259 17.8498 20.0322C17.9146 19.8384 18.0226 19.6562 18.1738 19.4855C18.3011 19.3418 18.4416 19.2285 18.5952 19.1455C18.7459 19.0599 18.9026 19.0037 19.0653 18.9768C19.2251 18.9473 19.3867 18.9489 19.5502 18.9815C19.7163 19.0111 19.877 19.068 20.0323 19.1521L20.1625 19.2675L19.0355 21.4353C19.2127 21.5068 19.3906 21.5201 19.5692 21.4753C19.7505 21.4275 19.9141 21.3213 20.06 21.1566C20.1979 21.0009 20.2784 20.8317 20.3013 20.649C20.3243 20.4662 20.2939 20.2924 20.2103 20.1274L20.6161 19.6693C20.7183 19.8133 20.7942 19.966 20.8436 20.1274C20.8957 20.2857 20.9182 20.4473 20.9112 20.6121C20.9011 20.7742 20.8642 20.9365 20.8004 21.0991C20.7335 21.259 20.6364 21.4108 20.5091 21.5545C20.3579 21.7251 20.1916 21.8556 20.01 21.946C19.8285 22.0363 19.6432 22.0886 19.4542 22.1028C19.2649 22.1115 19.0746 22.0819 18.8835 22.0141C18.6951 21.9433 18.517 21.8337 18.3493 21.6851Z" fill="#F1C933"/>
<path d="M22.9292 16.0883C22.6757 16.2633 22.5227 16.4782 22.4702 16.7331C22.4188 16.9825 22.4771 17.229 22.6453 17.4726L23.4871 18.6923L23.0082 19.0229L22.1731 17.8131C22.0436 17.6255 21.9539 17.4322 21.9041 17.2333C21.8553 17.0288 21.8455 16.8314 21.8746 16.6412C21.9047 16.4455 21.9744 16.2613 22.0837 16.0886C22.193 15.916 22.3414 15.7649 22.5291 15.6354C22.6706 15.5377 22.8159 15.4666 22.965 15.422L23.299 15.9059C23.235 15.9258 23.1711 15.9529 23.1073 15.9872C23.0445 16.016 22.9851 16.0497 22.9292 16.0883Z" fill="#F1C933"/>
<path d="M25.8362 13.0207C25.7908 12.901 25.789 12.7947 25.8308 12.7019C25.8749 12.6039 25.953 12.5336 26.0652 12.491C26.1812 12.4471 26.2863 12.4479 26.3805 12.4934C26.4771 12.5338 26.5481 12.6138 26.5935 12.7335C26.6432 12.8644 26.6526 13.002 26.6217 13.1463L26.5432 13.5483L26.1561 13.6951L26.2381 13.2853C26.1567 13.3077 26.079 13.2944 26.0048 13.2455C25.9293 13.1929 25.873 13.1179 25.8362 13.0207Z" fill="#F1C933"/>
<path d="M31.9179 15.3078C31.4414 15.3657 31.0561 15.3118 30.762 15.146C30.4713 14.9758 30.2895 14.7057 30.2164 14.3359L30.8239 14.2621C30.8674 14.4543 30.9723 14.5886 31.1388 14.6651C31.3087 14.7371 31.5584 14.7531 31.888 14.7131C32.1421 14.6823 32.3353 14.6306 32.4676 14.5581C32.5993 14.4817 32.6582 14.3859 32.6442 14.2707C32.6167 14.0444 32.293 13.9669 31.6731 14.0381C31.1762 14.0944 30.7988 14.0717 30.5406 13.9701C30.2825 13.8685 30.1363 13.6767 30.1021 13.3948C30.0838 13.2439 30.1009 13.1028 30.1534 12.9715C30.21 12.8397 30.2945 12.7227 30.407 12.6204C30.5234 12.5176 30.6683 12.4335 30.8417 12.3681C31.0146 12.2988 31.2103 12.2509 31.4287 12.2243C31.8933 12.1679 32.2689 12.2251 32.5556 12.3958C32.8462 12.566 33.0298 12.8338 33.1064 13.1992L32.4929 13.2737C32.4499 13.0855 32.3455 12.9552 32.1795 12.8826C32.017 12.8057 31.7849 12.7855 31.4831 12.8221C31.2171 12.8544 31.013 12.9155 30.8707 13.0053C30.728 13.0911 30.6644 13.1976 30.6798 13.3246C30.6933 13.4358 30.7705 13.507 30.9113 13.5383C31.0516 13.5656 31.2831 13.5637 31.6057 13.5325C32.1467 13.4749 32.542 13.4954 32.7917 13.594C33.0449 13.6882 33.1884 13.8743 33.2221 14.1522C33.2602 14.4659 33.1626 14.7236 32.9292 14.9252C32.6958 15.1268 32.3587 15.2543 31.9179 15.3078Z" fill="#F1C933"/>
<path d="M40.7734 16.2274C40.5602 16.1465 40.3785 16.0391 40.2282 15.9051C40.0794 15.7674 39.9648 15.6127 39.8844 15.4411C39.8093 15.2671 39.7695 15.0787 39.7651 14.876C39.7644 14.6747 39.8045 14.4674 39.8854 14.2543C39.9662 14.0411 40.0743 13.8575 40.2097 13.7035C40.3503 13.5472 40.5071 13.427 40.6802 13.3429C40.8584 13.2565 41.0496 13.2092 41.2537 13.2011C41.4579 13.1929 41.6666 13.2293 41.8798 13.3101C42.0929 13.391 42.2732 13.5021 42.4206 13.6436C42.5681 13.7851 42.6779 13.9465 42.7503 14.128C42.8278 14.3071 42.8655 14.5011 42.8633 14.7099C42.8663 14.9163 42.8274 15.1262 42.7465 15.3394C42.6657 15.5525 42.5564 15.7335 42.4186 15.8824C42.2847 16.0326 42.13 16.1472 41.9546 16.2262C41.7843 16.3028 41.5979 16.3433 41.3951 16.3477C41.1938 16.3483 40.9866 16.3082 40.7734 16.2274ZM40.9861 15.6664C41.2517 15.7671 41.4954 15.7675 41.7172 15.6677C41.939 15.5679 42.1003 15.3852 42.201 15.1196C42.2506 14.9887 42.2743 14.8587 42.2719 14.7294C42.2734 14.6016 42.2504 14.4817 42.2031 14.3696C42.1595 14.259 42.0919 14.1606 42.0005 14.0746C41.9091 13.9886 41.7979 13.9208 41.667 13.8711C41.5361 13.8215 41.4079 13.7985 41.2824 13.8023C41.1569 13.806 41.0393 13.8342 40.9296 13.8867C40.8198 13.9391 40.7212 14.013 40.6338 14.1082C40.5501 14.2048 40.4834 14.3185 40.4338 14.4494C40.3331 14.715 40.3326 14.9586 40.4325 15.1805C40.536 15.4037 40.7206 15.5657 40.9861 15.6664Z" fill="#F1C933"/>
<path d="M46.1729 16.1588C46.0577 16.0793 45.9404 16.0275 45.8209 16.0033C45.7048 15.9815 45.5904 15.9852 45.4779 16.0144C45.3654 16.0437 45.2585 16.0963 45.1575 16.1724C45.0564 16.2484 44.9661 16.344 44.8865 16.4592L44.0447 17.6789L43.5657 17.3483L44.4007 16.1385C44.5303 15.9509 44.6775 15.7974 44.8426 15.678C45.0099 15.5553 45.1843 15.4716 45.3659 15.4268C45.553 15.381 45.7434 15.3763 45.937 15.4127C46.1338 15.4514 46.3261 15.5355 46.5137 15.665C46.7014 15.7945 46.8416 15.9399 46.9344 16.1012C47.0305 16.2648 47.0871 16.4399 47.104 16.6265C47.1233 16.8099 47.1068 17.0027 47.0547 17.2049C47.0049 17.4038 46.9268 17.6051 46.8203 17.8086L46.1334 19.1207L45.6495 18.7866L46.3383 17.4613C46.4046 17.337 46.4538 17.213 46.4858 17.0892C46.521 16.9677 46.5329 16.852 46.5213 16.742C46.5153 16.6309 46.4832 16.5261 46.4249 16.4275C46.3721 16.3279 46.2881 16.2383 46.1729 16.1588Z" fill="#F1C933"/>
<path d="M51.5798 25.0258L51.0538 25.3019C50.7337 24.8555 50.6001 24.4761 50.653 24.1638C50.7078 23.855 50.9512 23.5871 51.3833 23.3604L54.045 21.9634L54.3155 22.4787L51.6431 23.8813C51.5227 23.9445 51.4355 24.0151 51.3816 24.0931C51.3277 24.1711 51.3008 24.2575 51.3008 24.3523C51.3009 24.4471 51.3253 24.5495 51.374 24.6595C51.4245 24.773 51.4931 24.8951 51.5798 25.0258ZM53.6368 23.5871L53.0959 22.5564L53.5775 22.2088L54.1574 23.3138L53.6368 23.5871Z" fill="#F1C933"/>
<path d="M52.3362 28.8811C52.2816 28.6597 52.2668 28.4492 52.2917 28.2494C52.3205 28.0487 52.3827 27.8665 52.4784 27.7028C52.5788 27.5421 52.7112 27.4024 52.8756 27.2836C53.0409 27.1687 53.2342 27.084 53.4556 27.0294C53.677 26.9748 53.8895 26.9595 54.0931 26.9835C54.3016 27.0104 54.4896 27.0712 54.6571 27.1658C54.8295 27.2634 54.977 27.3939 55.0997 27.5573C55.2224 27.7207 55.311 27.9131 55.3655 28.1344C55.4201 28.3558 55.431 28.5673 55.3984 28.769C55.3657 28.9707 55.2952 29.1529 55.187 29.3155C55.0836 29.481 54.9454 29.6222 54.7723 29.739C54.6041 29.8588 54.4093 29.9459 54.1879 30.0005C53.9665 30.0551 53.7555 30.0679 53.5547 30.0391C53.355 30.0142 53.1728 29.952 53.0082 29.8525C52.8484 29.7559 52.7092 29.6255 52.5904 29.4611C52.4755 29.2958 52.3908 29.1025 52.3362 28.8811ZM52.9188 28.7375C52.9867 29.0133 53.1248 29.2141 53.333 29.3399C53.5411 29.4657 53.7831 29.4947 54.0588 29.4267C54.1948 29.3932 54.3152 29.3388 54.4203 29.2635C54.5262 29.192 54.6119 29.105 54.6773 29.0024C54.7435 28.9036 54.7861 28.7922 54.805 28.6681C54.8238 28.544 54.8165 28.414 54.783 28.278C54.7495 28.1421 54.6955 28.0236 54.6212 27.9224C54.5468 27.8213 54.4568 27.7405 54.3513 27.68C54.2458 27.6195 54.129 27.5803 54.001 27.5624C53.8739 27.5484 53.7425 27.5581 53.6065 27.5916C53.3308 27.6596 53.13 27.7977 53.0041 28.0058C52.8793 28.2179 52.8508 28.4618 52.9188 28.7375Z" fill="#F1C933"/>
<path d="M56.06 33.3998C56.06 33.6278 56.022 33.8358 55.946 34.0238C55.874 34.2118 55.77 34.3718 55.634 34.5038C55.502 34.6398 55.342 34.7438 55.154 34.8158C54.966 34.8918 54.758 34.9298 54.53 34.9298C54.302 34.9298 54.09 34.8918 53.894 34.8158C53.702 34.7438 53.534 34.6398 53.39 34.5038C53.25 34.3718 53.14 34.2118 53.06 34.0238C52.98 33.8358 52.94 33.6278 52.94 33.3998C52.94 33.1718 52.98 32.9638 53.06 32.7758C53.14 32.5878 53.25 32.4258 53.39 32.2898C53.534 32.1578 53.702 32.0538 53.894 31.9778C54.09 31.9058 54.302 31.8698 54.53 31.8698C54.758 31.8698 54.966 31.9058 55.154 31.9778C55.342 32.0538 55.502 32.1578 55.634 32.2898C55.77 32.4258 55.874 32.5878 55.946 32.7758C56.022 32.9638 56.06 33.1718 56.06 33.3998ZM51.8 32.4578V31.8698H56V32.4578H51.8ZM55.46 33.3998C55.46 33.1158 55.374 32.8878 55.202 32.7158C55.03 32.5438 54.802 32.4578 54.518 32.4578C54.378 32.4578 54.248 32.4798 54.128 32.5238C54.008 32.5718 53.904 32.6358 53.816 32.7158C53.732 32.7998 53.664 32.8998 53.612 33.0158C53.564 33.1318 53.54 33.2598 53.54 33.3998C53.54 33.5398 53.564 33.6678 53.612 33.7838C53.664 33.8998 53.732 33.9978 53.816 34.0778C53.904 34.1618 54.008 34.2258 54.128 34.2698C54.248 34.3178 54.378 34.3418 54.518 34.3418C54.802 34.3418 55.03 34.2558 55.202 34.0838C55.374 33.9118 55.46 33.6838 55.46 33.3998Z" fill="#F1C933"/>
<mask id="path-16-outside-1_11_474" maskUnits="userSpaceOnUse" x="25" y="49" width="20" height="8" fill="black">
<rect fill="white" x="25" y="49" width="20" height="8"/>
<path d="M28.886 50.416C30.23 50.416 31.214 50.722 31.214 51.46C31.214 52.198 30.23 52.504 28.886 52.504C27.542 52.504 26.558 52.198 26.558 51.46C26.558 50.722 27.542 50.416 28.886 50.416ZM28.886 51.178C28.124 51.178 27.638 51.268 27.638 51.46C27.638 51.658 28.124 51.742 28.886 51.742C29.648 51.742 30.134 51.658 30.134 51.46C30.134 51.268 29.648 51.178 28.886 51.178ZM31.478 52.696V53.476H26.294V52.696H31.478ZM28.886 53.68C30.266 53.68 31.226 53.944 31.226 54.682C31.226 55.42 30.266 55.684 28.886 55.684C27.506 55.684 26.546 55.42 26.546 54.682C26.546 53.944 27.506 53.68 28.886 53.68ZM28.886 54.436C28.142 54.436 27.626 54.502 27.626 54.682C27.626 54.868 28.142 54.928 28.886 54.928C29.63 54.928 30.146 54.868 30.146 54.682C30.146 54.502 29.63 54.436 28.886 54.436ZM35.1615 52.84H37.2495V53.608H32.0655V52.84H34.1535V52.57H32.3775V50.5H33.3675V50.812H35.9475V50.5H36.9375V52.57H35.1615V52.84ZM33.3675 51.532V51.832H35.9475V51.532H33.3675ZM34.6575 53.788C36.0375 53.788 36.9975 54.034 36.9975 54.736C36.9975 55.444 36.0375 55.684 34.6575 55.684C33.2775 55.684 32.3175 55.438 32.3175 54.736C32.3175 54.034 33.2775 53.788 34.6575 53.788ZM34.6575 54.946C35.4075 54.946 35.9235 54.904 35.9235 54.736C35.9235 54.574 35.4075 54.526 34.6575 54.526C33.9075 54.526 33.3915 54.574 33.3915 54.736C33.3915 54.904 33.9075 54.946 34.6575 54.946ZM42.649 51.466H43.249V52.45H42.649V54.292H41.635V50.5H42.649V51.466ZM39.625 52.534C39.199 53.146 38.575 53.56 37.837 53.596V52.654C38.647 52.558 39.181 51.652 39.199 50.524L40.219 50.584C40.219 50.98 40.153 51.37 40.027 51.73L41.485 52.816L40.879 53.524L39.625 52.534ZM39.157 53.83V54.712H42.721V55.624H38.125V53.83H39.157Z"/>
</mask>
<path d="M28.886 50.416C30.23 50.416 31.214 50.722 31.214 51.46C31.214 52.198 30.23 52.504 28.886 52.504C27.542 52.504 26.558 52.198 26.558 51.46C26.558 50.722 27.542 50.416 28.886 50.416ZM28.886 51.178C28.124 51.178 27.638 51.268 27.638 51.46C27.638 51.658 28.124 51.742 28.886 51.742C29.648 51.742 30.134 51.658 30.134 51.46C30.134 51.268 29.648 51.178 28.886 51.178ZM31.478 52.696V53.476H26.294V52.696H31.478ZM28.886 53.68C30.266 53.68 31.226 53.944 31.226 54.682C31.226 55.42 30.266 55.684 28.886 55.684C27.506 55.684 26.546 55.42 26.546 54.682C26.546 53.944 27.506 53.68 28.886 53.68ZM28.886 54.436C28.142 54.436 27.626 54.502 27.626 54.682C27.626 54.868 28.142 54.928 28.886 54.928C29.63 54.928 30.146 54.868 30.146 54.682C30.146 54.502 29.63 54.436 28.886 54.436ZM35.1615 52.84H37.2495V53.608H32.0655V52.84H34.1535V52.57H32.3775V50.5H33.3675V50.812H35.9475V50.5H36.9375V52.57H35.1615V52.84ZM33.3675 51.532V51.832H35.9475V51.532H33.3675ZM34.6575 53.788C36.0375 53.788 36.9975 54.034 36.9975 54.736C36.9975 55.444 36.0375 55.684 34.6575 55.684C33.2775 55.684 32.3175 55.438 32.3175 54.736C32.3175 54.034 33.2775 53.788 34.6575 53.788ZM34.6575 54.946C35.4075 54.946 35.9235 54.904 35.9235 54.736C35.9235 54.574 35.4075 54.526 34.6575 54.526C33.9075 54.526 33.3915 54.574 33.3915 54.736C33.3915 54.904 33.9075 54.946 34.6575 54.946ZM42.649 51.466H43.249V52.45H42.649V54.292H41.635V50.5H42.649V51.466ZM39.625 52.534C39.199 53.146 38.575 53.56 37.837 53.596V52.654C38.647 52.558 39.181 51.652 39.199 50.524L40.219 50.584C40.219 50.98 40.153 51.37 40.027 51.73L41.485 52.816L40.879 53.524L39.625 52.534ZM39.157 53.83V54.712H42.721V55.624H38.125V53.83H39.157Z" fill="#F1C933"/>
<path d="M31.478 52.696H32.478V51.696H31.478V52.696ZM31.478 53.476V54.476H32.478V53.476H31.478ZM26.294 53.476H25.294V54.476H26.294V53.476ZM26.294 52.696V51.696H25.294V52.696H26.294ZM28.886 50.416V51.416C29.5077 51.416 29.9386 51.4903 30.1765 51.5873C30.2895 51.6333 30.3017 51.6617 30.2792 51.6353C30.2414 51.5911 30.214 51.5195 30.214 51.46H31.214H32.214C32.214 50.5153 31.5358 49.9815 30.9315 49.7352C30.3414 49.4947 29.6083 49.416 28.886 49.416V50.416ZM31.214 51.46H30.214C30.214 51.4005 30.2414 51.3289 30.2792 51.2847C30.3017 51.2583 30.2895 51.2867 30.1765 51.3327C29.9386 51.4297 29.5077 51.504 28.886 51.504V52.504V53.504C29.6083 53.504 30.3414 53.4253 30.9315 53.1848C31.5358 52.9385 32.214 52.4047 32.214 51.46H31.214ZM28.886 52.504V51.504C28.2643 51.504 27.8334 51.4297 27.5955 51.3327C27.4825 51.2867 27.4703 51.2583 27.4928 51.2847C27.5306 51.3289 27.558 51.4005 27.558 51.46H26.558H25.558C25.558 52.4047 26.2362 52.9385 26.8405 53.1848C27.4306 53.4253 28.1637 53.504 28.886 53.504V52.504ZM26.558 51.46H27.558C27.558 51.5195 27.5306 51.5911 27.4928 51.6353C27.4703 51.6617 27.4825 51.6333 27.5955 51.5873C27.8334 51.4903 28.2643 51.416 28.886 51.416V50.416V49.416C28.1637 49.416 27.4306 49.4947 26.8405 49.7352C26.2362 49.9815 25.558 50.5153 25.558 51.46H26.558ZM28.886 51.178V50.178C28.482 50.178 28.0868 50.2005 27.7665 50.2692C27.6146 50.3018 27.4009 50.3605 27.201 50.4838C27.0015 50.6067 26.638 50.9167 26.638 51.46H27.638H28.638C28.638 51.6626 28.5695 51.8395 28.4761 51.9713C28.3909 52.0914 28.2981 52.1569 28.2507 52.1861C28.1657 52.2385 28.1212 52.2387 28.186 52.2248C28.2992 52.2005 28.528 52.178 28.886 52.178V51.178ZM27.638 51.46H26.638C26.638 51.9942 26.9885 52.3067 27.198 52.4369C27.4008 52.563 27.6177 52.6216 27.7697 52.6537C28.0902 52.7213 28.4856 52.742 28.886 52.742V51.742V50.742C28.5244 50.742 28.2958 50.7207 28.1828 50.6968C28.118 50.6831 28.1658 50.6836 28.2537 50.7383C28.3032 50.769 28.3966 50.8362 28.4813 50.958C28.574 51.0912 28.638 51.2652 28.638 51.46H27.638ZM28.886 51.742V52.742C29.2864 52.742 29.6818 52.7213 30.0023 52.6537C30.1543 52.6216 30.3712 52.563 30.574 52.4369C30.7835 52.3067 31.134 51.9942 31.134 51.46H30.134H29.134C29.134 51.2652 29.198 51.0912 29.2907 50.958C29.3754 50.8362 29.4688 50.769 29.5183 50.7383C29.6062 50.6836 29.654 50.6831 29.5892 50.6968C29.4762 50.7207 29.2476 50.742 28.886 50.742V51.742ZM30.134 51.46H31.134C31.134 50.9167 30.7705 50.6067 30.571 50.4838C30.3711 50.3605 30.1574 50.3018 30.0055 50.2692C29.6852 50.2005 29.29 50.178 28.886 50.178V51.178V52.178C29.244 52.178 29.4728 52.2005 29.586 52.2248C29.6508 52.2387 29.6063 52.2385 29.5213 52.1861C29.4739 52.1569 29.3811 52.0914 29.2959 51.9713C29.2025 51.8395 29.134 51.6626 29.134 51.46H30.134ZM31.478 52.696H30.478V53.476H31.478H32.478V52.696H31.478ZM31.478 53.476V52.476H26.294V53.476V54.476H31.478V53.476ZM26.294 53.476H27.294V52.696H26.294H25.294V53.476H26.294ZM26.294 52.696V53.696H31.478V52.696V51.696H26.294V52.696ZM28.886 53.68V54.68C29.5411 54.68 29.9774 54.7466 30.2153 54.8379C30.3268 54.8807 30.3299 54.9049 30.2992 54.8696C30.2516 54.8147 30.226 54.7363 30.226 54.682H31.226H32.226C32.226 54.2587 32.0804 53.8706 31.8096 53.5586C31.5559 53.2663 31.2327 53.0861 30.9317 52.9706C30.3446 52.7454 29.6109 52.68 28.886 52.68V53.68ZM31.226 54.682H30.226C30.226 54.6277 30.2516 54.5493 30.2992 54.4944C30.3299 54.4591 30.3268 54.4833 30.2153 54.5261C29.9774 54.6174 29.5411 54.684 28.886 54.684V55.684V56.684C29.6109 56.684 30.3446 56.6186 30.9317 56.3934C31.2327 56.2779 31.5559 56.0977 31.8096 55.8054C32.0804 55.4934 32.226 55.1053 32.226 54.682H31.226ZM28.886 55.684V54.684C28.2309 54.684 27.7946 54.6174 27.5567 54.5261C27.4452 54.4833 27.4421 54.4591 27.4728 54.4944C27.5204 54.5493 27.546 54.6277 27.546 54.682H26.546H25.546C25.546 55.1053 25.6916 55.4934 25.9624 55.8054C26.2161 56.0977 26.5393 56.2779 26.8403 56.3934C27.4274 56.6186 28.1611 56.684 28.886 56.684V55.684ZM26.546 54.682H27.546C27.546 54.7363 27.5204 54.8147 27.4728 54.8696C27.4421 54.9049 27.4452 54.8807 27.5567 54.8379C27.7946 54.7466 28.2309 54.68 28.886 54.68V53.68V52.68C28.1611 52.68 27.4274 52.7454 26.8403 52.9706C26.5393 53.0861 26.2161 53.2663 25.9624 53.5586C25.6916 53.8706 25.546 54.2587 25.546 54.682H26.546ZM28.886 54.436V53.436C28.4998 53.436 28.1143 53.4521 27.804 53.5066C27.6585 53.5321 27.4504 53.5788 27.2534 53.6822C27.0822 53.7721 26.626 54.0711 26.626 54.682H27.626H28.626C28.626 54.9206 28.5339 55.1181 28.4238 55.2528C28.326 55.3724 28.2249 55.4311 28.1831 55.453C28.1061 55.4935 28.0735 55.4899 28.15 55.4764C28.2837 55.4529 28.5282 55.436 28.886 55.436V54.436ZM27.626 54.682H26.626C26.626 55.2826 27.0658 55.5849 27.2502 55.6826C27.4504 55.7887 27.6617 55.8352 27.8072 55.8602C28.1176 55.9137 28.5036 55.928 28.886 55.928V54.928V53.928C28.5244 53.928 28.2804 53.9123 28.1468 53.8893C28.0703 53.8761 28.1061 53.8727 28.1863 53.9152C28.2305 53.9386 28.3327 53.9991 28.4303 54.121C28.5401 54.2582 28.626 54.4528 28.626 54.682H27.626ZM28.886 54.928V55.928C29.2684 55.928 29.6544 55.9137 29.9648 55.8602C30.1103 55.8352 30.3216 55.7887 30.5218 55.6826C30.7062 55.5849 31.146 55.2826 31.146 54.682H30.146H29.146C29.146 54.4528 29.2319 54.2582 29.3417 54.121C29.4393 53.9991 29.5415 53.9386 29.5857 53.9152C29.6659 53.8727 29.7017 53.8761 29.6252 53.8893C29.4916 53.9123 29.2476 53.928 28.886 53.928V54.928ZM30.146 54.682H31.146C31.146 54.0711 30.6898 53.7721 30.5186 53.6822C30.3216 53.5788 30.1135 53.5321 29.968 53.5066C29.6577 53.4521 29.2722 53.436 28.886 53.436V54.436V55.436C29.2438 55.436 29.4883 55.4529 29.622 55.4764C29.6985 55.4899 29.6659 55.4935 29.5889 55.453C29.5471 55.4311 29.446 55.3724 29.3482 55.2528C29.2381 55.1181 29.146 54.9206 29.146 54.682H30.146ZM35.1615 52.84H34.1615V53.84H35.1615V52.84ZM37.2495 52.84H38.2495V51.84H37.2495V52.84ZM37.2495 53.608V54.608H38.2495V53.608H37.2495ZM32.0655 53.608H31.0655V54.608H32.0655V53.608ZM32.0655 52.84V51.84H31.0655V52.84H32.0655ZM34.1535 52.84V53.84H35.1535V52.84H34.1535ZM34.1535 52.57H35.1535V51.57H34.1535V52.57ZM32.3775 52.57H31.3775V53.57H32.3775V52.57ZM32.3775 50.5V49.5H31.3775V50.5H32.3775ZM33.3675 50.5H34.3675V49.5H33.3675V50.5ZM33.3675 50.812H32.3675V51.812H33.3675V50.812ZM35.9475 50.812V51.812H36.9475V50.812H35.9475ZM35.9475 50.5V49.5H34.9475V50.5H35.9475ZM36.9375 50.5H37.9375V49.5H36.9375V50.5ZM36.9375 52.57V53.57H37.9375V52.57H36.9375ZM35.1615 52.57V51.57H34.1615V52.57H35.1615ZM33.3675 51.532V50.532H32.3675V51.532H33.3675ZM33.3675 51.832H32.3675V52.832H33.3675V51.832ZM35.9475 51.832V52.832H36.9475V51.832H35.9475ZM35.9475 51.532H36.9475V50.532H35.9475V51.532ZM35.1615 52.84V53.84H37.2495V52.84V51.84H35.1615V52.84ZM37.2495 52.84H36.2495V53.608H37.2495H38.2495V52.84H37.2495ZM37.2495 53.608V52.608H32.0655V53.608V54.608H37.2495V53.608ZM32.0655 53.608H33.0655V52.84H32.0655H31.0655V53.608H32.0655ZM32.0655 52.84V53.84H34.1535V52.84V51.84H32.0655V52.84ZM34.1535 52.84H35.1535V52.57H34.1535H33.1535V52.84H34.1535ZM34.1535 52.57V51.57H32.3775V52.57V53.57H34.1535V52.57ZM32.3775 52.57H33.3775V50.5H32.3775H31.3775V52.57H32.3775ZM32.3775 50.5V51.5H33.3675V50.5V49.5H32.3775V50.5ZM33.3675 50.5H32.3675V50.812H33.3675H34.3675V50.5H33.3675ZM33.3675 50.812V51.812H35.9475V50.812V49.812H33.3675V50.812ZM35.9475 50.812H36.9475V50.5H35.9475H34.9475V50.812H35.9475ZM35.9475 50.5V51.5H36.9375V50.5V49.5H35.9475V50.5ZM36.9375 50.5H35.9375V52.57H36.9375H37.9375V50.5H36.9375ZM36.9375 52.57V51.57H35.1615V52.57V53.57H36.9375V52.57ZM35.1615 52.57H34.1615V52.84H35.1615H36.1615V52.57H35.1615ZM33.3675 51.532H32.3675V51.832H33.3675H34.3675V51.532H33.3675ZM33.3675 51.832V52.832H35.9475V51.832V50.832H33.3675V51.832ZM35.9475 51.832H36.9475V51.532H35.9475H34.9475V51.832H35.9475ZM35.9475 51.532V50.532H33.3675V51.532V52.532H35.9475V51.532ZM34.6575 53.788V54.788C35.3164 54.788 35.7598 54.8505 36.0048 54.9391C36.1214 54.9813 36.1234 55.0052 36.0886 54.9672C36.0336 54.9072 35.9975 54.8141 35.9975 54.736H36.9975H37.9975C37.9975 54.3069 37.8414 53.9198 37.5633 53.6162C37.3054 53.3347 36.9811 53.1655 36.6852 53.0584C36.1052 52.8485 35.3786 52.788 34.6575 52.788V53.788ZM36.9975 54.736H35.9975C35.9975 54.6617 36.032 54.5692 36.0878 54.5082C36.1233 54.4693 36.1224 54.4928 36.0063 54.5346C35.7615 54.6227 35.3184 54.684 34.6575 54.684V55.684V56.684C35.3765 56.684 36.1034 56.6253 36.6837 56.4164C36.98 56.3097 37.3054 56.1404 37.5641 55.8575C37.843 55.5523 37.9975 55.1643 37.9975 54.736H36.9975ZM34.6575 55.684V54.684C33.9986 54.684 33.5552 54.6215 33.3102 54.5329C33.1936 54.4907 33.1916 54.4668 33.2264 54.5048C33.2814 54.5648 33.3175 54.6579 33.3175 54.736H32.3175H31.3175C31.3175 55.1651 31.4736 55.5522 31.7517 55.8558C32.0096 56.1373 32.3339 56.3065 32.6298 56.4136C33.2098 56.6235 33.9364 56.684 34.6575 56.684V55.684ZM32.3175 54.736H33.3175C33.3175 54.8141 33.2814 54.9072 33.2264 54.9672C33.1916 55.0052 33.1936 54.9813 33.3102 54.9391C33.5552 54.8505 33.9986 54.788 34.6575 54.788V53.788V52.788C33.9364 52.788 33.2098 52.8485 32.6298 53.0584C32.3339 53.1655 32.0096 53.3347 31.7517 53.6162C31.4736 53.9198 31.3175 54.3069 31.3175 54.736H32.3175ZM34.6575 54.946V55.946C35.0352 55.946 35.4133 55.9364 35.7118 55.8941C35.8506 55.8745 36.054 55.8377 36.248 55.7486C36.397 55.6803 36.9235 55.3952 36.9235 54.736H35.9235H34.9235C34.9235 54.4729 35.0335 54.2604 35.1581 54.1226C35.2664 54.0028 35.3752 53.9487 35.4142 53.9307C35.4881 53.8968 35.5156 53.902 35.4317 53.9139C35.2847 53.9346 35.0298 53.946 34.6575 53.946V54.946ZM35.9235 54.736H36.9235C36.9235 54.0649 36.3766 53.7842 36.2445 53.7243C36.054 53.6378 35.854 53.6007 35.715 53.5806C35.4164 53.5373 35.039 53.526 34.6575 53.526V54.526V55.526C35.026 55.526 35.2815 55.5387 35.4284 55.5599C35.5122 55.5721 35.4881 55.5773 35.4178 55.5454C35.3812 55.5288 35.2743 55.4767 35.1662 55.36C35.0421 55.226 34.9235 55.0106 34.9235 54.736H35.9235ZM34.6575 54.526V53.526C34.276 53.526 33.8985 53.5373 33.5999 53.5806C33.461 53.6007 33.261 53.6378 33.0705 53.7243C32.9384 53.7842 32.3915 54.0649 32.3915 54.736H33.3915H34.3915C34.3915 55.0106 34.2729 55.226 34.1488 55.36C34.0407 55.4767 33.9337 55.5288 33.8972 55.5454C33.8268 55.5773 33.8028 55.5721 33.8865 55.5599C34.0334 55.5387 34.289 55.526 34.6575 55.526V54.526ZM33.3915 54.736H32.3915C32.3915 55.3952 32.9179 55.6803 33.0669 55.7486C33.261 55.8377 33.4644 55.8745 33.6032 55.8941C33.9017 55.9364 34.2798 55.946 34.6575 55.946V54.946V53.946C34.2852 53.946 34.0303 53.9346 33.8833 53.9139C33.7994 53.902 33.8268 53.8968 33.9007 53.9307C33.9398 53.9487 34.0486 54.0028 34.1569 54.1226C34.2815 54.2604 34.3915 54.4729 34.3915 54.736H33.3915ZM42.649 51.466H41.649V52.466H42.649V51.466ZM43.249 51.466H44.249V50.466H43.249V51.466ZM43.249 52.45V53.45H44.249V52.45H43.249ZM42.649 52.45V51.45H41.649V52.45H42.649ZM42.649 54.292V55.292H43.649V54.292H42.649ZM41.635 54.292H40.635V55.292H41.635V54.292ZM41.635 50.5V49.5H40.635V50.5H41.635ZM42.649 50.5H43.649V49.5H42.649V50.5ZM39.625 52.534L40.2446 51.7491L39.411 51.091L38.8042 51.9627L39.625 52.534ZM37.837 53.596H36.837V54.646L37.8857 54.5948L37.837 53.596ZM37.837 52.654L37.7193 51.6609L36.837 51.7655V52.654H37.837ZM39.199 50.524L39.2577 49.5257L38.2157 49.4644L38.1991 50.508L39.199 50.524ZM40.219 50.584H41.219V49.6411L40.2777 49.5857L40.219 50.584ZM40.027 51.73L39.0831 51.3996L38.8404 52.0931L39.4296 52.532L40.027 51.73ZM41.485 52.816L42.2447 53.4663L42.9405 52.6533L42.0823 52.014L41.485 52.816ZM40.879 53.524L40.2593 54.3089L41.0137 54.9044L41.6387 54.1743L40.879 53.524ZM39.157 53.83H40.157V52.83H39.157V53.83ZM39.157 54.712H38.157V55.712H39.157V54.712ZM42.721 54.712H43.721V53.712H42.721V54.712ZM42.721 55.624V56.624H43.721V55.624H42.721ZM38.125 55.624H37.125V56.624H38.125V55.624ZM38.125 53.83V52.83H37.125V53.83H38.125ZM42.649 51.466V52.466H43.249V51.466V50.466H42.649V51.466ZM43.249 51.466H42.249V52.45H43.249H44.249V51.466H43.249ZM43.249 52.45V51.45H42.649V52.45V53.45H43.249V52.45ZM42.649 52.45H41.649V54.292H42.649H43.649V52.45H42.649ZM42.649 54.292V53.292H41.635V54.292V55.292H42.649V54.292ZM41.635 54.292H42.635V50.5H41.635H40.635V54.292H41.635ZM41.635 50.5V51.5H42.649V50.5V49.5H41.635V50.5ZM42.649 50.5H41.649V51.466H42.649H43.649V50.5H42.649ZM39.625 52.534L38.8042 51.9627C38.5169 52.3755 38.155 52.5793 37.7882 52.5972L37.837 53.596L37.8857 54.5948C38.995 54.5407 39.881 53.9165 40.4457 53.1053L39.625 52.534ZM37.837 53.596H38.837V52.654H37.837H36.837V53.596H37.837ZM37.837 52.654L37.9547 53.647C38.7303 53.5551 39.3066 53.0766 39.6632 52.5057C40.0152 51.9419 40.1876 51.2468 40.1988 50.54L39.199 50.524L38.1991 50.508C38.1924 50.9292 38.0887 51.2511 37.9668 51.4463C37.8493 51.6344 37.7537 51.6569 37.7193 51.6609L37.837 52.654ZM39.199 50.524L39.1402 51.5223L40.1602 51.5823L40.219 50.584L40.2777 49.5857L39.2577 49.5257L39.199 50.524ZM40.219 50.584H39.219C39.219 50.8701 39.1711 51.1483 39.0831 51.3996L40.027 51.73L40.9708 52.0604C41.1348 51.5917 41.219 51.0899 41.219 50.584H40.219ZM40.027 51.73L39.4296 52.532L40.8876 53.618L41.485 52.816L42.0823 52.014L40.6243 50.928L40.027 51.73ZM41.485 52.816L40.7253 52.1657L40.1193 52.8737L40.879 53.524L41.6387 54.1743L42.2447 53.4663L41.485 52.816ZM40.879 53.524L41.4986 52.7391L40.2446 51.7491L39.625 52.534L39.0053 53.3189L40.2593 54.3089L40.879 53.524ZM39.157 53.83H38.157V54.712H39.157H40.157V53.83H39.157ZM39.157 54.712V55.712H42.721V54.712V53.712H39.157V54.712ZM42.721 54.712H41.721V55.624H42.721H43.721V54.712H42.721ZM42.721 55.624V54.624H38.125V55.624V56.624H42.721V55.624ZM38.125 55.624H39.125V53.83H38.125H37.125V55.624H38.125ZM38.125 53.83V54.83H39.157V53.83V52.83H38.125V53.83Z" fill="white" mask="url(#path-16-outside-1_11_474)"/>
<mask id="path-18-outside-2_11_474" maskUnits="userSpaceOnUse" x="19" y="44" width="30" height="7" fill="black">
<rect fill="white" x="19" y="44" width="30" height="7"/>
<path d="M23.124 46H23.504V49.416H23.124V47.748H22.54V49.356H22.16V46.02H22.54V47.376H23.124V46ZM20.296 46.484V46.124H21.724V47.044C21.724 48.364 21.132 49.196 20.296 49.204V48.832C20.932 48.812 21.34 48.12 21.34 47.064V46.484H20.296ZM27.6397 47.384V47.764H27.1597V49.416H26.7637V46H27.1597V47.384H27.6397ZM24.6317 48.844H25.5837C25.9077 48.844 26.2597 48.784 26.4677 48.688V49.048C26.2597 49.152 25.9037 49.212 25.5757 49.212H24.2277V46.104H24.6317V48.844ZM30.7073 49.416V46H31.1033V49.416H30.7073ZM28.1113 49.212V47.46H29.6393V46.488H28.1033V46.124H30.0353V47.824H28.5073V48.848H29.5073C29.8313 48.848 30.1833 48.784 30.3913 48.684V49.048C30.1833 49.152 29.8273 49.212 29.4953 49.212H28.1113ZM35.335 47.384V47.764H34.855V49.416H34.459V46H34.855V47.384H35.335ZM31.887 46.488V46.124H33.747V46.948C33.747 48.308 33.047 49.204 31.887 49.204V48.828C32.815 48.824 33.343 48.1 33.343 46.956V46.488H31.887ZM39.9237 47.404L38.3477 46.972C37.9917 47.244 37.4117 47.384 36.8677 47.396V47.08C37.4317 47.064 38.1037 46.884 38.2597 46.516H36.9317V46.2H38.2357V45.864H38.6397V46.2H39.9397V46.516H38.6717C38.6557 46.588 38.6237 46.656 38.5837 46.716L40.0157 47.096L39.9237 47.404ZM40.1437 47.944H38.6357V48.3H39.9037V49.376H36.9677V48.3H38.2357V47.944H36.7317V47.628H40.1437V47.944ZM39.5117 49.064V48.608H37.3637V49.064H39.5117ZM42.1914 47.264C41.8714 47.62 41.3394 47.844 40.6874 47.88V47.516C41.4074 47.464 41.9274 47.132 42.0674 46.664H40.7754V46.304H42.0714V45.916H42.4794V46.304H43.7914V46.664H42.4954C42.4754 46.768 42.4394 46.868 42.3954 46.964L43.8834 47.512L43.7474 47.856L42.1914 47.264ZM43.9914 48.208V48.576H42.4834V49.496H42.0794V48.576H40.5794V48.208H43.9914ZM44.671 47.324V46H45.071V46.972H47.627V47.324H44.671ZM44.427 48.052V47.7H47.839V48.052H44.427ZM44.663 49.376V48.356H45.067V49.024H47.663V49.376H44.663Z"/>
</mask>
<path d="M23.124 46H23.504V49.416H23.124V47.748H22.54V49.356H22.16V46.02H22.54V47.376H23.124V46ZM20.296 46.484V46.124H21.724V47.044C21.724 48.364 21.132 49.196 20.296 49.204V48.832C20.932 48.812 21.34 48.12 21.34 47.064V46.484H20.296ZM27.6397 47.384V47.764H27.1597V49.416H26.7637V46H27.1597V47.384H27.6397ZM24.6317 48.844H25.5837C25.9077 48.844 26.2597 48.784 26.4677 48.688V49.048C26.2597 49.152 25.9037 49.212 25.5757 49.212H24.2277V46.104H24.6317V48.844ZM30.7073 49.416V46H31.1033V49.416H30.7073ZM28.1113 49.212V47.46H29.6393V46.488H28.1033V46.124H30.0353V47.824H28.5073V48.848H29.5073C29.8313 48.848 30.1833 48.784 30.3913 48.684V49.048C30.1833 49.152 29.8273 49.212 29.4953 49.212H28.1113ZM35.335 47.384V47.764H34.855V49.416H34.459V46H34.855V47.384H35.335ZM31.887 46.488V46.124H33.747V46.948C33.747 48.308 33.047 49.204 31.887 49.204V48.828C32.815 48.824 33.343 48.1 33.343 46.956V46.488H31.887ZM39.9237 47.404L38.3477 46.972C37.9917 47.244 37.4117 47.384 36.8677 47.396V47.08C37.4317 47.064 38.1037 46.884 38.2597 46.516H36.9317V46.2H38.2357V45.864H38.6397V46.2H39.9397V46.516H38.6717C38.6557 46.588 38.6237 46.656 38.5837 46.716L40.0157 47.096L39.9237 47.404ZM40.1437 47.944H38.6357V48.3H39.9037V49.376H36.9677V48.3H38.2357V47.944H36.7317V47.628H40.1437V47.944ZM39.5117 49.064V48.608H37.3637V49.064H39.5117ZM42.1914 47.264C41.8714 47.62 41.3394 47.844 40.6874 47.88V47.516C41.4074 47.464 41.9274 47.132 42.0674 46.664H40.7754V46.304H42.0714V45.916H42.4794V46.304H43.7914V46.664H42.4954C42.4754 46.768 42.4394 46.868 42.3954 46.964L43.8834 47.512L43.7474 47.856L42.1914 47.264ZM43.9914 48.208V48.576H42.4834V49.496H42.0794V48.576H40.5794V48.208H43.9914ZM44.671 47.324V46H45.071V46.972H47.627V47.324H44.671ZM44.427 48.052V47.7H47.839V48.052H44.427ZM44.663 49.376V48.356H45.067V49.024H47.663V49.376H44.663Z" fill="#F1C933"/>
<path d="M23.124 46V45H22.124V46H23.124ZM23.504 46H24.504V45H23.504V46ZM23.504 49.416V50.416H24.504V49.416H23.504ZM23.124 49.416H22.124V50.416H23.124V49.416ZM23.124 47.748H24.124V46.748H23.124V47.748ZM22.54 47.748V46.748H21.54V47.748H22.54ZM22.54 49.356V50.356H23.54V49.356H22.54ZM22.16 49.356H21.16V50.356H22.16V49.356ZM22.16 46.02V45.02H21.16V46.02H22.16ZM22.54 46.02H23.54V45.02H22.54V46.02ZM22.54 47.376H21.54V48.376H22.54V47.376ZM23.124 47.376V48.376H24.124V47.376H23.124ZM20.296 46.484H19.296V47.484H20.296V46.484ZM20.296 46.124V45.124H19.296V46.124H20.296ZM21.724 46.124H22.724V45.124H21.724V46.124ZM20.296 49.204H19.296V50.2136L20.3056 50.204L20.296 49.204ZM20.296 48.832L20.2646 47.8325L19.296 47.863V48.832H20.296ZM21.34 46.484H22.34V45.484H21.34V46.484ZM23.124 46V47H23.504V46V45H23.124V46ZM23.504 46H22.504V49.416H23.504H24.504V46H23.504ZM23.504 49.416V48.416H23.124V49.416V50.416H23.504V49.416ZM23.124 49.416H24.124V47.748H23.124H22.124V49.416H23.124ZM23.124 47.748V46.748H22.54V47.748V48.748H23.124V47.748ZM22.54 47.748H21.54V49.356H22.54H23.54V47.748H22.54ZM22.54 49.356V48.356H22.16V49.356V50.356H22.54V49.356ZM22.16 49.356H23.16V46.02H22.16H21.16V49.356H22.16ZM22.16 46.02V47.02H22.54V46.02V45.02H22.16V46.02ZM22.54 46.02H21.54V47.376H22.54H23.54V46.02H22.54ZM22.54 47.376V48.376H23.124V47.376V46.376H22.54V47.376ZM23.124 47.376H24.124V46H23.124H22.124V47.376H23.124ZM20.296 46.484H21.296V46.124H20.296H19.296V46.484H20.296ZM20.296 46.124V47.124H21.724V46.124V45.124H20.296V46.124ZM21.724 46.124H20.724V47.044H21.724H22.724V46.124H21.724ZM21.724 47.044H20.724C20.724 47.5681 20.6047 47.8935 20.4947 48.0565C20.4006 48.1959 20.3322 48.2036 20.2864 48.204L20.296 49.204L20.3056 50.204C21.0958 50.1964 21.7414 49.7841 22.1523 49.1755C22.5473 48.5905 22.724 47.8399 22.724 47.044H21.724ZM20.296 49.204H21.296V48.832H20.296H19.296V49.204H20.296ZM20.296 48.832L20.3274 49.8315C21.0582 49.8085 21.6011 49.3812 21.9177 48.8448C22.219 48.3344 22.34 47.7038 22.34 47.064H21.34H20.34C20.34 47.4802 20.257 47.7236 20.1953 47.8282C20.1677 47.875 20.1561 47.8747 20.177 47.8609C20.203 47.8438 20.2378 47.8333 20.2646 47.8325L20.296 48.832ZM21.34 47.064H22.34V46.484H21.34H20.34V47.064H21.34ZM21.34 46.484V45.484H20.296V46.484V47.484H21.34V46.484ZM27.6397 47.384H28.6397V46.384H27.6397V47.384ZM27.6397 47.764V48.764H28.6397V47.764H27.6397ZM27.1597 47.764V46.764H26.1597V47.764H27.1597ZM27.1597 49.416V50.416H28.1597V49.416H27.1597ZM26.7637 49.416H25.7637V50.416H26.7637V49.416ZM26.7637 46V45H25.7637V46H26.7637ZM27.1597 46H28.1597V45H27.1597V46ZM27.1597 47.384H26.1597V48.384H27.1597V47.384ZM24.6317 48.844H23.6317V49.844H24.6317V48.844ZM26.4677 48.688H27.4677V47.1251L26.0486 47.78L26.4677 48.688ZM26.4677 49.048L26.9149 49.9424L27.4677 49.666V49.048H26.4677ZM24.2277 49.212H23.2277V50.212H24.2277V49.212ZM24.2277 46.104V45.104H23.2277V46.104H24.2277ZM24.6317 46.104H25.6317V45.104H24.6317V46.104ZM27.6397 47.384H26.6397V47.764H27.6397H28.6397V47.384H27.6397ZM27.6397 47.764V46.764H27.1597V47.764V48.764H27.6397V47.764ZM27.1597 47.764H26.1597V49.416H27.1597H28.1597V47.764H27.1597ZM27.1597 49.416V48.416H26.7637V49.416V50.416H27.1597V49.416ZM26.7637 49.416H27.7637V46H26.7637H25.7637V49.416H26.7637ZM26.7637 46V47H27.1597V46V45H26.7637V46ZM27.1597 46H26.1597V47.384H27.1597H28.1597V46H27.1597ZM27.1597 47.384V48.384H27.6397V47.384V46.384H27.1597V47.384ZM24.6317 48.844V49.844H25.5837V48.844V47.844H24.6317V48.844ZM25.5837 48.844V49.844C25.9876 49.844 26.4991 49.7749 26.8867 49.596L26.4677 48.688L26.0486 47.78C26.0517 47.7786 26.0039 47.7983 25.897 47.8169C25.7989 47.8341 25.6875 47.844 25.5837 47.844V48.844ZM26.4677 48.688H25.4677V49.048H26.4677H27.4677V48.688H26.4677ZM26.4677 49.048L26.0204 48.1536C26.0344 48.1466 25.9962 48.1657 25.89 48.1847C25.7941 48.2019 25.6823 48.212 25.5757 48.212V49.212V50.212C25.9761 50.212 26.5092 50.1452 26.9149 49.9424L26.4677 49.048ZM25.5757 49.212V48.212H24.2277V49.212V50.212H25.5757V49.212ZM24.2277 49.212H25.2277V46.104H24.2277H23.2277V49.212H24.2277ZM24.2277 46.104V47.104H24.6317V46.104V45.104H24.2277V46.104ZM24.6317 46.104H23.6317V48.844H24.6317H25.6317V46.104H24.6317ZM30.7073 49.416H29.7073V50.416H30.7073V49.416ZM30.7073 46V45H29.7073V46H30.7073ZM31.1033 46H32.1033V45H31.1033V46ZM31.1033 49.416V50.416H32.1033V49.416H31.1033ZM28.1113 49.212H27.1113V50.212H28.1113V49.212ZM28.1113 47.46V46.46H27.1113V47.46H28.1113ZM29.6393 47.46V48.46H30.6393V47.46H29.6393ZM29.6393 46.488H30.6393V45.488H29.6393V46.488ZM28.1033 46.488H27.1033V47.488H28.1033V46.488ZM28.1033 46.124V45.124H27.1033V46.124H28.1033ZM30.0353 46.124H31.0353V45.124H30.0353V46.124ZM30.0353 47.824V48.824H31.0353V47.824H30.0353ZM28.5073 47.824V46.824H27.5073V47.824H28.5073ZM28.5073 48.848H27.5073V49.848H28.5073V48.848ZM30.3913 48.684H31.3913V47.0937L29.958 47.7827L30.3913 48.684ZM30.3913 49.048L30.8385 49.9424L31.3913 49.666V49.048H30.3913ZM30.7073 49.416H31.7073V46H30.7073H29.7073V49.416H30.7073ZM30.7073 46V47H31.1033V46V45H30.7073V46ZM31.1033 46H30.1033V49.416H31.1033H32.1033V46H31.1033ZM31.1033 49.416V48.416H30.7073V49.416V50.416H31.1033V49.416ZM28.1113 49.212H29.1113V47.46H28.1113H27.1113V49.212H28.1113ZM28.1113 47.46V48.46H29.6393V47.46V46.46H28.1113V47.46ZM29.6393 47.46H30.6393V46.488H29.6393H28.6393V47.46H29.6393ZM29.6393 46.488V45.488H28.1033V46.488V47.488H29.6393V46.488ZM28.1033 46.488H29.1033V46.124H28.1033H27.1033V46.488H28.1033ZM28.1033 46.124V47.124H30.0353V46.124V45.124H28.1033V46.124ZM30.0353 46.124H29.0353V47.824H30.0353H31.0353V46.124H30.0353ZM30.0353 47.824V46.824H28.5073V47.824V48.824H30.0353V47.824ZM28.5073 47.824H27.5073V48.848H28.5073H29.5073V47.824H28.5073ZM28.5073 48.848V49.848H29.5073V48.848V47.848H28.5073V48.848ZM29.5073 48.848V49.848C29.9192 49.848 30.4348 49.7727 30.8246 49.5853L30.3913 48.684L29.958 47.7827C29.962 47.7808 29.9158 47.8008 29.8114 47.8201C29.7155 47.8378 29.6072 47.848 29.5073 47.848V48.848ZM30.3913 48.684H29.3913V49.048H30.3913H31.3913V48.684H30.3913ZM30.3913 49.048L29.9441 48.1536C29.9582 48.1465 29.9202 48.1656 29.8137 48.1846C29.7176 48.2018 29.6046 48.212 29.4953 48.212V49.212V50.212C29.8988 50.212 30.4324 50.1455 30.8385 49.9424L30.3913 49.048ZM29.4953 49.212V48.212H28.1113V49.212V50.212H29.4953V49.212ZM35.335 47.384H36.335V46.384H35.335V47.384ZM35.335 47.764V48.764H36.335V47.764H35.335ZM34.855 47.764V46.764H33.855V47.764H34.855ZM34.855 49.416V50.416H35.855V49.416H34.855ZM34.459 49.416H33.459V50.416H34.459V49.416ZM34.459 46V45H33.459V46H34.459ZM34.855 46H35.855V45H34.855V46ZM34.855 47.384H33.855V48.384H34.855V47.384ZM31.887 46.488H30.887V47.488H31.887V46.488ZM31.887 46.124V45.124H30.887V46.124H31.887ZM33.747 46.124H34.747V45.124H33.747V46.124ZM31.887 49.204H30.887V50.204H31.887V49.204ZM31.887 48.828L31.8827 47.828L30.887 47.8323V48.828H31.887ZM33.343 46.488H34.343V45.488H33.343V46.488ZM35.335 47.384H34.335V47.764H35.335H36.335V47.384H35.335ZM35.335 47.764V46.764H34.855V47.764V48.764H35.335V47.764ZM34.855 47.764H33.855V49.416H34.855H35.855V47.764H34.855ZM34.855 49.416V48.416H34.459V49.416V50.416H34.855V49.416ZM34.459 49.416H35.459V46H34.459H33.459V49.416H34.459ZM34.459 46V47H34.855V46V45H34.459V46ZM34.855 46H33.855V47.384H34.855H35.855V46H34.855ZM34.855 47.384V48.384H35.335V47.384V46.384H34.855V47.384ZM31.887 46.488H32.887V46.124H31.887H30.887V46.488H31.887ZM31.887 46.124V47.124H33.747V46.124V45.124H31.887V46.124ZM33.747 46.124H32.747V46.948H33.747H34.747V46.124H33.747ZM33.747 46.948H32.747C32.747 47.4672 32.6129 47.7867 32.4757 47.9556C32.3577 48.1009 32.1854 48.204 31.887 48.204V49.204V50.204C32.7485 50.204 33.5063 49.8591 34.0282 49.2164C34.5311 48.5973 34.747 47.7888 34.747 46.948H33.747ZM31.887 49.204H32.887V48.828H31.887H30.887V49.204H31.887ZM31.887 48.828L31.8913 49.828C32.644 49.8247 33.3086 49.514 33.7575 48.9267C34.1809 48.3727 34.343 47.6662 34.343 46.956H33.343H32.343C32.343 47.3898 32.241 47.6173 32.1684 47.7123C32.1213 47.774 32.0579 47.8273 31.8827 47.828L31.887 48.828ZM33.343 46.956H34.343V46.488H33.343H32.343V46.956H33.343ZM33.343 46.488V45.488H31.887V46.488V47.488H33.343V46.488ZM39.9237 47.404L39.6594 48.3684L40.6021 48.6268L40.8819 47.6902L39.9237 47.404ZM38.3477 46.972L38.6121 46.0076L38.1343 45.8766L37.7406 46.1774L38.3477 46.972ZM36.8677 47.396H35.8677V48.4183L36.8898 48.3958L36.8677 47.396ZM36.8677 47.08L36.8394 46.0804L35.8677 46.108V47.08H36.8677ZM38.2597 46.516L39.1804 46.9063L39.7698 45.516H38.2597V46.516ZM36.9317 46.516H35.9317V47.516H36.9317V46.516ZM36.9317 46.2V45.2H35.9317V46.2H36.9317ZM38.2357 46.2V47.2H39.2357V46.2H38.2357ZM38.2357 45.864V44.864H37.2357V45.864H38.2357ZM38.6397 45.864H39.6397V44.864H38.6397V45.864ZM38.6397 46.2H37.6397V47.2H38.6397V46.2ZM39.9397 46.2H40.9397V45.2H39.9397V46.2ZM39.9397 46.516V47.516H40.9397V46.516H39.9397ZM38.6717 46.516V45.516H37.8695L37.6955 46.2991L38.6717 46.516ZM38.5837 46.716L37.7517 46.1613L36.9765 47.3241L38.3272 47.6825L38.5837 46.716ZM40.0157 47.096L40.9739 47.3822L41.2691 46.394L40.2722 46.1295L40.0157 47.096ZM40.1437 47.944V48.944H41.1437V47.944H40.1437ZM38.6357 47.944V46.944H37.6357V47.944H38.6357ZM38.6357 48.3H37.6357V49.3H38.6357V48.3ZM39.9037 48.3H40.9037V47.3H39.9037V48.3ZM39.9037 49.376V50.376H40.9037V49.376H39.9037ZM36.9677 49.376H35.9677V50.376H36.9677V49.376ZM36.9677 48.3V47.3H35.9677V48.3H36.9677ZM38.2357 48.3V49.3H39.2357V48.3H38.2357ZM38.2357 47.944H39.2357V46.944H38.2357V47.944ZM36.7317 47.944H35.7317V48.944H36.7317V47.944ZM36.7317 47.628V46.628H35.7317V47.628H36.7317ZM40.1437 47.628H41.1437V46.628H40.1437V47.628ZM39.5117 49.064V50.064H40.5117V49.064H39.5117ZM39.5117 48.608H40.5117V47.608H39.5117V48.608ZM37.3637 48.608V47.608H36.3637V48.608H37.3637ZM37.3637 49.064H36.3637V50.064H37.3637V49.064ZM39.9237 47.404L40.1881 46.4396L38.6121 46.0076L38.3477 46.972L38.0834 47.9364L39.6594 48.3684L39.9237 47.404ZM38.3477 46.972L37.7406 46.1774C37.6225 46.2676 37.2864 46.3865 36.8457 46.3962L36.8677 47.396L36.8898 48.3958C37.537 48.3815 38.3609 48.2204 38.9548 47.7666L38.3477 46.972ZM36.8677 47.396H37.8677V47.08H36.8677H35.8677V47.396H36.8677ZM36.8677 47.08L36.8961 48.0796C37.26 48.0693 37.6776 48.0071 38.0558 47.8707C38.382 47.7532 38.9333 47.4892 39.1804 46.9063L38.2597 46.516L37.339 46.1257C37.3898 46.0058 37.4592 45.9545 37.4637 45.9512C37.4688 45.9475 37.4453 45.9649 37.3776 45.9893C37.2398 46.0389 37.0394 46.0747 36.8394 46.0804L36.8677 47.08ZM38.2597 46.516V45.516H36.9317V46.516V47.516H38.2597V46.516ZM36.9317 46.516H37.9317V46.2H36.9317H35.9317V46.516H36.9317ZM36.9317 46.2V47.2H38.2357V46.2V45.2H36.9317V46.2ZM38.2357 46.2H39.2357V45.864H38.2357H37.2357V46.2H38.2357ZM38.2357 45.864V46.864H38.6397V45.864V44.864H38.2357V45.864ZM38.6397 45.864H37.6397V46.2H38.6397H39.6397V45.864H38.6397ZM38.6397 46.2V47.2H39.9397V46.2V45.2H38.6397V46.2ZM39.9397 46.2H38.9397V46.516H39.9397H40.9397V46.2H39.9397ZM39.9397 46.516V45.516H38.6717V46.516V47.516H39.9397V46.516ZM38.6717 46.516L37.6955 46.2991C37.7113 46.2283 37.7371 46.1832 37.7517 46.1613L38.5837 46.716L39.4158 47.2707C39.5103 47.1288 39.6002 46.9477 39.6479 46.7329L38.6717 46.516ZM38.5837 46.716L38.3272 47.6825L39.7592 48.0625L40.0157 47.096L40.2722 46.1295L38.8402 45.7495L38.5837 46.716ZM40.0157 47.096L39.0576 46.8098L38.9656 47.1178L39.9237 47.404L40.8819 47.6902L40.9739 47.3822L40.0157 47.096ZM40.1437 47.944V46.944H38.6357V47.944V48.944H40.1437V47.944ZM38.6357 47.944H37.6357V48.3H38.6357H39.6357V47.944H38.6357ZM38.6357 48.3V49.3H39.9037V48.3V47.3H38.6357V48.3ZM39.9037 48.3H38.9037V49.376H39.9037H40.9037V48.3H39.9037ZM39.9037 49.376V48.376H36.9677V49.376V50.376H39.9037V49.376ZM36.9677 49.376H37.9677V48.3H36.9677H35.9677V49.376H36.9677ZM36.9677 48.3V49.3H38.2357V48.3V47.3H36.9677V48.3ZM38.2357 48.3H39.2357V47.944H38.2357H37.2357V48.3H38.2357ZM38.2357 47.944V46.944H36.7317V47.944V48.944H38.2357V47.944ZM36.7317 47.944H37.7317V47.628H36.7317H35.7317V47.944H36.7317ZM36.7317 47.628V48.628H40.1437V47.628V46.628H36.7317V47.628ZM40.1437 47.628H39.1437V47.944H40.1437H41.1437V47.628H40.1437ZM39.5117 49.064H40.5117V48.608H39.5117H38.5117V49.064H39.5117ZM39.5117 48.608V47.608H37.3637V48.608V49.608H39.5117V48.608ZM37.3637 48.608H36.3637V49.064H37.3637H38.3637V48.608H37.3637ZM37.3637 49.064V50.064H39.5117V49.064V48.064H37.3637V49.064ZM42.1914 47.264L42.547 46.3294L41.9061 46.0855L41.4477 46.5955L42.1914 47.264ZM40.6874 47.88H39.6874V48.9367L40.7425 48.8785L40.6874 47.88ZM40.6874 47.516L40.6153 46.5186L39.6874 46.5856V47.516H40.6874ZM42.0674 46.664L43.0254 46.9506L43.4103 45.664H42.0674V46.664ZM40.7754 46.664H39.7754V47.664H40.7754V46.664ZM40.7754 46.304V45.304H39.7754V46.304H40.7754ZM42.0714 46.304V47.304H43.0714V46.304H42.0714ZM42.0714 45.916V44.916H41.0714V45.916H42.0714ZM42.4794 45.916H43.4794V44.916H42.4794V45.916ZM42.4794 46.304H41.4794V47.304H42.4794V46.304ZM43.7914 46.304H44.7914V45.304H43.7914V46.304ZM43.7914 46.664V47.664H44.7914V46.664H43.7914ZM42.4954 46.664V45.664H41.6694L41.5134 46.4752L42.4954 46.664ZM42.3954 46.964L41.4863 46.5473L41.0363 47.5291L42.0498 47.9024L42.3954 46.964ZM43.8834 47.512L44.8133 47.8797L45.1898 46.9275L44.229 46.5736L43.8834 47.512ZM43.7474 47.856L43.3918 48.7906L44.3144 49.1417L44.6773 48.2237L43.7474 47.856ZM43.9914 48.208H44.9914V47.208H43.9914V48.208ZM43.9914 48.576V49.576H44.9914V48.576H43.9914ZM42.4834 48.576V47.576H41.4834V48.576H42.4834ZM42.4834 49.496V50.496H43.4834V49.496H42.4834ZM42.0794 49.496H41.0794V50.496H42.0794V49.496ZM42.0794 48.576H43.0794V47.576H42.0794V48.576ZM40.5794 48.576H39.5794V49.576H40.5794V48.576ZM40.5794 48.208V47.208H39.5794V48.208H40.5794ZM42.1914 47.264L41.4477 46.5955C41.3545 46.6992 41.1055 46.8554 40.6322 46.8815L40.6874 47.88L40.7425 48.8785C41.5732 48.8326 42.3883 48.5408 42.9351 47.9325L42.1914 47.264ZM40.6874 47.88H41.6874V47.516H40.6874H39.6874V47.88H40.6874ZM40.6874 47.516L40.7594 48.5134C41.6856 48.4465 42.7161 47.9847 43.0254 46.9506L42.0674 46.664L41.1093 46.3774C41.1216 46.3364 41.1369 46.3531 41.066 46.3973C40.9916 46.4436 40.8457 46.502 40.6153 46.5186L40.6874 47.516ZM42.0674 46.664V45.664H40.7754V46.664V47.664H42.0674V46.664ZM40.7754 46.664H41.7754V46.304H40.7754H39.7754V46.664H40.7754ZM40.7754 46.304V47.304H42.0714V46.304V45.304H40.7754V46.304ZM42.0714 46.304H43.0714V45.916H42.0714H41.0714V46.304H42.0714ZM42.0714 45.916V46.916H42.4794V45.916V44.916H42.0714V45.916ZM42.4794 45.916H41.4794V46.304H42.4794H43.4794V45.916H42.4794ZM42.4794 46.304V47.304H43.7914V46.304V45.304H42.4794V46.304ZM43.7914 46.304H42.7914V46.664H43.7914H44.7914V46.304H43.7914ZM43.7914 46.664V45.664H42.4954V46.664V47.664H43.7914V46.664ZM42.4954 46.664L41.5134 46.4752C41.5127 46.4788 41.5077 46.5007 41.4863 46.5473L42.3954 46.964L43.3044 47.3807C43.371 47.2353 43.4381 47.0572 43.4774 46.8528L42.4954 46.664ZM42.3954 46.964L42.0498 47.9024L43.5378 48.4504L43.8834 47.512L44.229 46.5736L42.741 46.0256L42.3954 46.964ZM43.8834 47.512L42.9534 47.1443L42.8174 47.4883L43.7474 47.856L44.6773 48.2237L44.8133 47.8797L43.8834 47.512ZM43.7474 47.856L44.103 46.9214L42.547 46.3294L42.1914 47.264L41.8358 48.1986L43.3918 48.7906L43.7474 47.856ZM43.9914 48.208H42.9914V48.576H43.9914H44.9914V48.208H43.9914ZM43.9914 48.576V47.576H42.4834V48.576V49.576H43.9914V48.576ZM42.4834 48.576H41.4834V49.496H42.4834H43.4834V48.576H42.4834ZM42.4834 49.496V48.496H42.0794V49.496V50.496H42.4834V49.496ZM42.0794 49.496H43.0794V48.576H42.0794H41.0794V49.496H42.0794ZM42.0794 48.576V47.576H40.5794V48.576V49.576H42.0794V48.576ZM40.5794 48.576H41.5794V48.208H40.5794H39.5794V48.576H40.5794ZM40.5794 48.208V49.208H43.9914V48.208V47.208H40.5794V48.208ZM44.671 47.324H43.671V48.324H44.671V47.324ZM44.671 46V45H43.671V46H44.671ZM45.071 46H46.071V45H45.071V46ZM45.071 46.972H44.071V47.972H45.071V46.972ZM47.627 46.972H48.627V45.972H47.627V46.972ZM47.627 47.324V48.324H48.627V47.324H47.627ZM44.427 48.052H43.427V49.052H44.427V48.052ZM44.427 47.7V46.7H43.427V47.7H44.427ZM47.839 47.7H48.839V46.7H47.839V47.7ZM47.839 48.052V49.052H48.839V48.052H47.839ZM44.663 49.376H43.663V50.376H44.663V49.376ZM44.663 48.356V47.356H43.663V48.356H44.663ZM45.067 48.356H46.067V47.356H45.067V48.356ZM45.067 49.024H44.067V50.024H45.067V49.024ZM47.663 49.024H48.663V48.024H47.663V49.024ZM47.663 49.376V50.376H48.663V49.376H47.663ZM44.671 47.324H45.671V46H44.671H43.671V47.324H44.671ZM44.671 46V47H45.071V46V45H44.671V46ZM45.071 46H44.071V46.972H45.071H46.071V46H45.071ZM45.071 46.972V47.972H47.627V46.972V45.972H45.071V46.972ZM47.627 46.972H46.627V47.324H47.627H48.627V46.972H47.627ZM47.627 47.324V46.324H44.671V47.324V48.324H47.627V47.324ZM44.427 48.052H45.427V47.7H44.427H43.427V48.052H44.427ZM44.427 47.7V48.7H47.839V47.7V46.7H44.427V47.7ZM47.839 47.7H46.839V48.052H47.839H48.839V47.7H47.839ZM47.839 48.052V47.052H44.427V48.052V49.052H47.839V48.052ZM44.663 49.376H45.663V48.356H44.663H43.663V49.376H44.663ZM44.663 48.356V49.356H45.067V48.356V47.356H44.663V48.356ZM45.067 48.356H44.067V49.024H45.067H46.067V48.356H45.067ZM45.067 49.024V50.024H47.663V49.024V48.024H45.067V49.024ZM47.663 49.024H46.663V49.376H47.663H48.663V49.024H47.663ZM47.663 49.376V48.376H44.663V49.376V50.376H47.663V49.376Z" fill="white" mask="url(#path-18-outside-2_11_474)"/>
<path d="M32.2174 40.1739C33.8039 38.9031 35.413 36.0652 35.413 36.0652C35.413 36.0652 37.7544 37.8523 39.5217 38.3478C41.5817 38.9254 45 38.3478 45 38.3478C45 38.3478 44.3166 35.3257 43.1739 33.7826C41.9642 32.149 39.0652 30.587 39.0652 30.587C39.0652 30.587 40.8046 27.9396 41.3478 26.0217C41.8845 24.1271 41.8043 21 41.8043 21C41.8043 21 38.4935 21.9736 36.7826 23.2826C35.2775 24.4342 33.587 26.9348 33.587 26.9348C33.587 26.9348 31.0022 24.8286 29.0217 24.1957C27.146 23.5962 24 23.7391 24 23.7391C24 23.7391 25.2756 27.0731 26.7391 28.7609C28.0708 30.2966 30.8478 31.9565 30.8478 31.9565C30.8478 31.9565 27.9571 34.3693 27.1957 36.5217C26.4227 38.7067 27.1957 42.4565 27.1957 42.4565C27.1957 42.4565 30.536 41.5206 32.2174 40.1739Z" stroke="#F1C933" stroke-width="0.456522"/>
<path d="M34.9561 28.9894C36.0906 28.9894 37.0106 29.9087 37.0108 31.0431C37.0108 32.1777 36.0907 33.0978 34.9561 33.0978C33.8217 33.0976 32.9024 32.1775 32.9024 31.0431C32.9026 29.9088 33.8218 28.9896 34.9561 28.9894Z" fill="#F1C933" stroke="#F1C933" stroke-width="0.456522"/>
</g>
<defs>
<filter id="filter0_d_11_474" x="0" y="0" width="68" height="68" filterUnits="userSpaceOnUse" color-interpolation-filters="sRGB">
<feFlood flood-opacity="0" result="BackgroundImageFix"/>
<feColorMatrix in="SourceAlpha" type="matrix" values="0 0 0 0 0 0 0 0 0 0 0 0 0 0 0 0 0 0 127 0" result="hardAlpha"/>
<feOffset/>
<feGaussianBlur stdDeviation="2"/>
<feComposite in2="hardAlpha" operator="out"/>
<feColorMatrix type="matrix" values="0 0 0 0 0.229671 0 0 0 0 0.229671 0 0 0 0 0.229671 0 0 0 0.2 0"/>
<feBlend mode="normal" in2="BackgroundImageFix" result="effect1_dropShadow_11_474"/>
<feBlend mode="normal" in="SourceGraphic" in2="effect1_dropShadow_11_474" result="shape"/>
</filter>
</defs>
</svg>
