<svg width="68" height="68" viewBox="0 0 68 68" fill="none" xmlns="http://www.w3.org/2000/svg">
<g filter="url(#filter0_d_11_598)">
<rect x="4" y="4" width="60" height="60" rx="30" fill="white" shape-rendering="crispEdges"/>
<rect x="7.5" y="7.5" width="53" height="53" rx="26.5" fill="white"/>
<rect x="7.5" y="7.5" width="53" height="53" rx="26.5" stroke="#8A817C" stroke-width="2"/>
<rect x="9.1" y="9.1" width="49.8" height="49.8" rx="24.9" fill="white"/>
<rect x="9.1" y="9.1" width="49.8" height="49.8" rx="24.9" stroke="#8A817C" stroke-width="0.2"/>
<path d="M11.8 35.2638V34.6818H16V35.2638H11.8ZM13.54 33.7938C13.54 33.9338 13.564 34.0598 13.612 34.1718C13.66 34.2798 13.728 34.3718 13.816 34.4478C13.904 34.5238 14.008 34.5818 14.128 34.6218C14.248 34.6618 14.378 34.6818 14.518 34.6818H16V35.2638H14.53C14.302 35.2638 14.092 35.2298 13.9 35.1618C13.704 35.0938 13.536 34.9978 13.396 34.8738C13.252 34.7458 13.14 34.5918 13.06 34.4118C12.98 34.2278 12.94 34.0218 12.94 33.7938C12.94 33.5658 12.98 33.3678 13.06 33.1998C13.14 33.0278 13.252 32.8818 13.396 32.7618C13.536 32.6418 13.704 32.5458 13.9 32.4738C14.092 32.4018 14.302 32.3518 14.53 32.3238L16 32.1438V32.7318L14.518 32.9178C14.378 32.9338 14.248 32.9638 14.128 33.0078C14.008 33.0478 13.906 33.1038 13.822 33.1758C13.734 33.2438 13.666 33.3298 13.618 33.4338C13.566 33.5338 13.54 33.6538 13.54 33.7938Z" fill="#8A817C"/>
<path d="M13.4745 29.0343L13.6137 28.4692L16.5266 29.1872L16.3873 29.7523L13.4745 29.0343ZM12.5557 28.8758C12.4508 28.85 12.375 28.7983 12.3282 28.7209C12.2784 28.6386 12.2664 28.545 12.2923 28.4401C12.3172 28.3392 12.3703 28.2657 12.4516 28.2199C12.5301 28.1692 12.6217 28.1567 12.7266 28.1826C12.8314 28.2084 12.9087 28.2625 12.9585 28.3448C13.0053 28.4222 13.0163 28.5115 12.9914 28.6124C12.9655 28.7173 12.9134 28.7951 12.835 28.8458C12.7536 28.8917 12.6605 28.9017 12.5557 28.8758Z" fill="#8A817C"/>
<path d="M16.3038 24.5709C16.4283 24.3336 16.4841 24.137 16.471 23.9811C16.4599 23.8216 16.359 23.6738 16.1684 23.5377L15.6653 23.1923L15.9358 22.6769L16.4283 23.0167C16.6507 23.1696 16.8052 23.3185 16.8918 23.4633C16.9768 23.6028 17.0051 23.7554 16.9768 23.9212C17.088 23.8125 17.2341 23.7536 17.415 23.7447C17.5959 23.7357 17.8018 23.7738 18.0327 23.8588L18.5921 24.0711L18.3217 24.5864L17.7516 24.3686C17.5296 24.2837 17.3499 24.2819 17.2123 24.3633C17.0747 24.4447 16.9436 24.6041 16.8191 24.8414L16.5291 25.3939L17.6023 25.9571L17.3318 26.4725L13.6129 24.5206L13.8834 24.0053L16.0138 25.1234L16.3038 24.5709Z" fill="#8A817C"/>
<path d="M19.3553 19.5543C19.2217 19.5482 19.0916 19.5745 18.9648 19.6332C18.8376 19.6862 18.7237 19.7696 18.6229 19.8834C18.4584 20.069 18.3742 20.2697 18.3703 20.4852C18.3663 20.7008 18.4351 20.9007 18.5765 21.0848L19.3553 19.5543ZM18.3493 21.6851C18.1787 21.5339 18.0453 21.3677 17.9494 21.1865C17.8531 20.9997 17.7963 20.8104 17.779 20.6188C17.7614 20.4215 17.785 20.2259 17.8498 20.0322C17.9146 19.8384 18.0226 19.6562 18.1738 19.4855C18.3011 19.3418 18.4416 19.2285 18.5952 19.1455C18.7459 19.0599 18.9026 19.0037 19.0653 18.9768C19.2251 18.9473 19.3867 18.9489 19.5502 18.9815C19.7163 19.0111 19.877 19.068 20.0323 19.1521L20.1625 19.2675L19.0355 21.4353C19.2127 21.5068 19.3906 21.5201 19.5692 21.4753C19.7505 21.4275 19.9141 21.3213 20.06 21.1566C20.1979 21.0009 20.2784 20.8317 20.3013 20.649C20.3243 20.4662 20.2939 20.2924 20.2103 20.1274L20.6161 19.6693C20.7183 19.8133 20.7942 19.966 20.8436 20.1274C20.8957 20.2857 20.9182 20.4473 20.9112 20.6121C20.9011 20.7742 20.8642 20.9365 20.8004 21.0991C20.7335 21.259 20.6364 21.4108 20.5091 21.5545C20.3579 21.7251 20.1916 21.8556 20.01 21.946C19.8285 22.0363 19.6432 22.0886 19.4542 22.1028C19.2649 22.1115 19.0746 22.0819 18.8835 22.0141C18.6951 21.9433 18.517 21.8337 18.3493 21.6851Z" fill="#8A817C"/>
<path d="M22.9292 16.0883C22.6757 16.2633 22.5227 16.4782 22.4702 16.7331C22.4188 16.9825 22.4771 17.229 22.6453 17.4726L23.4871 18.6923L23.0082 19.0229L22.1731 17.8131C22.0436 17.6255 21.9539 17.4322 21.9041 17.2333C21.8553 17.0288 21.8455 16.8314 21.8746 16.6412C21.9047 16.4455 21.9744 16.2613 22.0837 16.0886C22.193 15.916 22.3414 15.7649 22.5291 15.6354C22.6706 15.5377 22.8159 15.4666 22.965 15.422L23.299 15.9059C23.235 15.9258 23.1711 15.9529 23.1073 15.9872C23.0445 16.016 22.9851 16.0497 22.9292 16.0883Z" fill="#8A817C"/>
<path d="M25.8362 13.0207C25.7908 12.901 25.789 12.7947 25.8308 12.7019C25.8749 12.6039 25.9531 12.5336 26.0653 12.491C26.1812 12.4471 26.2863 12.4479 26.3806 12.4934C26.4772 12.5338 26.5482 12.6138 26.5935 12.7335C26.6432 12.8644 26.6526 13.002 26.6218 13.1463L26.5432 13.5483L26.1561 13.6951L26.2382 13.2853C26.1568 13.3077 26.079 13.2944 26.0049 13.2455C25.9293 13.1929 25.8731 13.1179 25.8362 13.0207Z" fill="#8A817C"/>
<path d="M31.9179 15.3078C31.4414 15.3657 31.0561 15.3118 30.762 15.146C30.4714 14.9758 30.2895 14.7057 30.2164 14.3359L30.8239 14.2621C30.8674 14.4543 30.9724 14.5886 31.1388 14.6651C31.3087 14.7371 31.5585 14.7531 31.888 14.7131C32.1422 14.6823 32.3354 14.6306 32.4676 14.5581C32.5993 14.4817 32.6582 14.3859 32.6442 14.2707C32.6168 14.0444 32.293 13.9669 31.6731 14.0381C31.1763 14.0944 30.7988 14.0717 30.5407 13.9701C30.2825 13.8685 30.1363 13.6767 30.1021 13.3948C30.0838 13.2439 30.1009 13.1028 30.1535 12.9715C30.21 12.8397 30.2945 12.7227 30.407 12.6204C30.5235 12.5176 30.6684 12.4335 30.8418 12.3681C31.0147 12.2988 31.2103 12.2509 31.4287 12.2243C31.8933 12.1679 32.2689 12.2251 32.5556 12.3958C32.8462 12.566 33.0298 12.8338 33.1064 13.1992L32.493 13.2737C32.45 13.0855 32.3455 12.9552 32.1795 12.8826C32.0171 12.8057 31.7849 12.7855 31.4832 12.8221C31.2171 12.8544 31.013 12.9155 30.8708 13.0053C30.7281 13.0911 30.6644 13.1976 30.6799 13.3246C30.6934 13.4358 30.7705 13.507 30.9113 13.5383C31.0516 13.5656 31.2831 13.5637 31.6057 13.5325C32.1467 13.4749 32.542 13.4954 32.7917 13.594C33.0449 13.6882 33.1884 13.8743 33.2222 14.1522C33.2603 14.4659 33.1626 14.7236 32.9292 14.9252C32.6958 15.1268 32.3587 15.2543 31.9179 15.3078Z" fill="#8A817C"/>
<path d="M40.7734 16.2274C40.5602 16.1465 40.3785 16.0391 40.2282 15.9051C40.0794 15.7674 39.9648 15.6127 39.8844 15.4411C39.8093 15.2671 39.7695 15.0787 39.7651 14.876C39.7644 14.6747 39.8045 14.4674 39.8854 14.2543C39.9662 14.0411 40.0743 13.8575 40.2097 13.7035C40.3503 13.5472 40.5071 13.427 40.6802 13.3429C40.8584 13.2565 41.0496 13.2092 41.2537 13.2011C41.4579 13.1929 41.6666 13.2293 41.8798 13.3101C42.0929 13.391 42.2732 13.5021 42.4206 13.6436C42.5681 13.7851 42.6779 13.9465 42.7503 14.128C42.8278 14.3071 42.8655 14.5011 42.8633 14.7099C42.8663 14.9163 42.8274 15.1262 42.7465 15.3394C42.6657 15.5525 42.5564 15.7335 42.4186 15.8824C42.2847 16.0326 42.13 16.1472 41.9546 16.2262C41.7843 16.3028 41.5979 16.3433 41.3951 16.3477C41.1938 16.3483 40.9866 16.3082 40.7734 16.2274ZM40.9861 15.6664C41.2517 15.7671 41.4954 15.7675 41.7172 15.6677C41.939 15.5679 42.1003 15.3852 42.201 15.1196C42.2506 14.9887 42.2743 14.8587 42.2719 14.7294C42.2734 14.6016 42.2504 14.4817 42.2031 14.3696C42.1595 14.259 42.0919 14.1606 42.0005 14.0746C41.9091 13.9886 41.7979 13.9208 41.667 13.8711C41.5361 13.8215 41.4079 13.7985 41.2824 13.8023C41.1569 13.806 41.0393 13.8342 40.9296 13.8867C40.8198 13.9391 40.7212 14.013 40.6338 14.1082C40.5501 14.2048 40.4834 14.3185 40.4338 14.4494C40.3331 14.715 40.3326 14.9586 40.4325 15.1805C40.536 15.4037 40.7206 15.5657 40.9861 15.6664Z" fill="#8A817C"/>
<path d="M46.1729 16.1588C46.0577 16.0793 45.9404 16.0275 45.8209 16.0033C45.7048 15.9815 45.5904 15.9852 45.4779 16.0144C45.3654 16.0437 45.2585 16.0963 45.1575 16.1724C45.0564 16.2484 44.9661 16.344 44.8865 16.4592L44.0447 17.6789L43.5657 17.3483L44.4007 16.1385C44.5303 15.9509 44.6775 15.7974 44.8426 15.678C45.0099 15.5553 45.1843 15.4716 45.3659 15.4268C45.553 15.381 45.7434 15.3763 45.937 15.4127C46.1338 15.4514 46.3261 15.5355 46.5137 15.665C46.7014 15.7945 46.8416 15.9399 46.9344 16.1012C47.0305 16.2648 47.0871 16.4399 47.104 16.6265C47.1233 16.8099 47.1068 17.0027 47.0547 17.2049C47.0049 17.4038 46.9268 17.6051 46.8203 17.8086L46.1334 19.1207L45.6495 18.7866L46.3383 17.4613C46.4046 17.337 46.4538 17.213 46.4858 17.0892C46.521 16.9677 46.5329 16.852 46.5213 16.742C46.5153 16.6309 46.4832 16.5261 46.4249 16.4275C46.3721 16.3279 46.2881 16.2383 46.1729 16.1588Z" fill="#8A817C"/>
<path d="M51.5798 25.0258L51.0538 25.3019C50.7337 24.8555 50.6001 24.4761 50.653 24.1638C50.7078 23.855 50.9512 23.5871 51.3833 23.3604L54.045 21.9634L54.3155 22.4787L51.6431 23.8813C51.5227 23.9445 51.4355 24.0151 51.3816 24.0931C51.3277 24.1711 51.3008 24.2575 51.3008 24.3523C51.3009 24.4471 51.3253 24.5495 51.374 24.6595C51.4245 24.773 51.4931 24.8951 51.5798 25.0258ZM53.6368 23.5871L53.0959 22.5564L53.5775 22.2088L54.1574 23.3138L53.6368 23.5871Z" fill="#8A817C"/>
<path d="M52.3362 28.8811C52.2816 28.6597 52.2668 28.4492 52.2917 28.2494C52.3205 28.0487 52.3827 27.8665 52.4784 27.7028C52.5788 27.5421 52.7112 27.4024 52.8756 27.2836C53.0409 27.1687 53.2342 27.084 53.4556 27.0294C53.677 26.9748 53.8895 26.9595 54.0931 26.9835C54.3016 27.0104 54.4896 27.0712 54.6571 27.1658C54.8295 27.2634 54.977 27.3939 55.0997 27.5573C55.2224 27.7207 55.311 27.9131 55.3655 28.1344C55.4201 28.3558 55.431 28.5673 55.3984 28.769C55.3657 28.9707 55.2952 29.1529 55.187 29.3155C55.0836 29.481 54.9454 29.6222 54.7723 29.739C54.6041 29.8588 54.4093 29.9459 54.1879 30.0005C53.9665 30.0551 53.7555 30.0679 53.5547 30.0391C53.355 30.0142 53.1728 29.952 53.0082 29.8525C52.8484 29.7559 52.7092 29.6255 52.5904 29.4611C52.4755 29.2958 52.3908 29.1025 52.3362 28.8811ZM52.9188 28.7375C52.9867 29.0133 53.1248 29.2141 53.333 29.3399C53.5411 29.4657 53.7831 29.4947 54.0588 29.4267C54.1948 29.3932 54.3152 29.3388 54.4203 29.2635C54.5262 29.192 54.6119 29.105 54.6773 29.0024C54.7435 28.9036 54.7861 28.7922 54.805 28.6681C54.8238 28.544 54.8165 28.414 54.783 28.278C54.7495 28.1421 54.6955 28.0236 54.6212 27.9224C54.5468 27.8213 54.4568 27.7405 54.3513 27.68C54.2458 27.6195 54.129 27.5803 54.001 27.5624C53.8739 27.5484 53.7425 27.5581 53.6065 27.5916C53.3308 27.6596 53.13 27.7977 53.0041 28.0058C52.8793 28.2179 52.8508 28.4618 52.9188 28.7375Z" fill="#8A817C"/>
<path d="M56.06 33.3998C56.06 33.6278 56.022 33.8358 55.946 34.0238C55.874 34.2118 55.77 34.3718 55.634 34.5038C55.502 34.6398 55.342 34.7438 55.154 34.8158C54.966 34.8918 54.758 34.9298 54.53 34.9298C54.302 34.9298 54.09 34.8918 53.894 34.8158C53.702 34.7438 53.534 34.6398 53.39 34.5038C53.25 34.3718 53.14 34.2118 53.06 34.0238C52.98 33.8358 52.94 33.6278 52.94 33.3998C52.94 33.1718 52.98 32.9638 53.06 32.7758C53.14 32.5878 53.25 32.4258 53.39 32.2898C53.534 32.1578 53.702 32.0538 53.894 31.9778C54.09 31.9058 54.302 31.8698 54.53 31.8698C54.758 31.8698 54.966 31.9058 55.154 31.9778C55.342 32.0538 55.502 32.1578 55.634 32.2898C55.77 32.4258 55.874 32.5878 55.946 32.7758C56.022 32.9638 56.06 33.1718 56.06 33.3998ZM51.8 32.4578V31.8698H56V32.4578H51.8ZM55.46 33.3998C55.46 33.1158 55.374 32.8878 55.202 32.7158C55.03 32.5438 54.802 32.4578 54.518 32.4578C54.378 32.4578 54.248 32.4798 54.128 32.5238C54.008 32.5718 53.904 32.6358 53.816 32.7158C53.732 32.7998 53.664 32.8998 53.612 33.0158C53.564 33.1318 53.54 33.2598 53.54 33.3998C53.54 33.5398 53.564 33.6678 53.612 33.7838C53.664 33.8998 53.732 33.9978 53.816 34.0778C53.904 34.1618 54.008 34.2258 54.128 34.2698C54.248 34.3178 54.378 34.3418 54.518 34.3418C54.802 34.3418 55.03 34.2558 55.202 34.0838C55.374 33.9118 55.46 33.6838 55.46 33.3998Z" fill="#8A817C"/>
<mask id="path-16-outside-1_11_598" maskUnits="userSpaceOnUse" x="24" y="49" width="20" height="8" fill="black">
<rect fill="white" x="24" y="49" width="20" height="8"/>
<path d="M30.118 51.64H30.706V52.594H30.118V54.382H29.104V50.5H30.118V51.64ZM27.49 52.492V51.394H25.486V50.536H28.498V52.492H27.49ZM28.81 53.464C28.492 53.602 27.976 53.65 27.466 53.65H25.294V52.804H26.002V51.856H27.004V52.804H27.484C27.958 52.804 28.492 52.756 28.81 52.618V53.464ZM26.62 54.01V54.76H30.19V55.624H25.594V54.01H26.62ZM36.4775 51.436V52.408H35.8775V53.548H34.8635V50.5H35.8775V51.436H36.4775ZM32.6555 53.446C31.6715 53.446 31.0055 52.84 31.0055 51.976C31.0055 51.118 31.6715 50.506 32.6555 50.506C33.6395 50.506 34.3055 51.118 34.3055 51.976C34.3055 52.84 33.6395 53.446 32.6555 53.446ZM32.6555 51.34C32.2715 51.34 32.0135 51.58 32.0135 51.976C32.0135 52.372 32.2715 52.612 32.6555 52.612C33.0335 52.612 33.2975 52.372 33.2975 51.976C33.2975 51.58 33.0335 51.34 32.6555 51.34ZM31.3895 54.598V53.728H35.8775V55.684H34.8455V54.598H31.3895ZM41.649 51.466H42.249V52.45H41.649V54.292H40.635V50.5H41.649V51.466ZM38.625 52.534C38.199 53.146 37.575 53.56 36.837 53.596V52.654C37.647 52.558 38.181 51.652 38.199 50.524L39.219 50.584C39.219 50.98 39.153 51.37 39.027 51.73L40.485 52.816L39.879 53.524L38.625 52.534ZM38.157 53.83V54.712H41.721V55.624H37.125V53.83H38.157Z"/>
</mask>
<path d="M30.118 51.64H30.706V52.594H30.118V54.382H29.104V50.5H30.118V51.64ZM27.49 52.492V51.394H25.486V50.536H28.498V52.492H27.49ZM28.81 53.464C28.492 53.602 27.976 53.65 27.466 53.65H25.294V52.804H26.002V51.856H27.004V52.804H27.484C27.958 52.804 28.492 52.756 28.81 52.618V53.464ZM26.62 54.01V54.76H30.19V55.624H25.594V54.01H26.62ZM36.4775 51.436V52.408H35.8775V53.548H34.8635V50.5H35.8775V51.436H36.4775ZM32.6555 53.446C31.6715 53.446 31.0055 52.84 31.0055 51.976C31.0055 51.118 31.6715 50.506 32.6555 50.506C33.6395 50.506 34.3055 51.118 34.3055 51.976C34.3055 52.84 33.6395 53.446 32.6555 53.446ZM32.6555 51.34C32.2715 51.34 32.0135 51.58 32.0135 51.976C32.0135 52.372 32.2715 52.612 32.6555 52.612C33.0335 52.612 33.2975 52.372 33.2975 51.976C33.2975 51.58 33.0335 51.34 32.6555 51.34ZM31.3895 54.598V53.728H35.8775V55.684H34.8455V54.598H31.3895ZM41.649 51.466H42.249V52.45H41.649V54.292H40.635V50.5H41.649V51.466ZM38.625 52.534C38.199 53.146 37.575 53.56 36.837 53.596V52.654C37.647 52.558 38.181 51.652 38.199 50.524L39.219 50.584C39.219 50.98 39.153 51.37 39.027 51.73L40.485 52.816L39.879 53.524L38.625 52.534ZM38.157 53.83V54.712H41.721V55.624H37.125V53.83H38.157Z" fill="#8A817C"/>
<path d="M30.118 51.64H29.118V52.64H30.118V51.64ZM30.706 51.64H31.706V50.64H30.706V51.64ZM30.706 52.594V53.594H31.706V52.594H30.706ZM30.118 52.594V51.594H29.118V52.594H30.118ZM30.118 54.382V55.382H31.118V54.382H30.118ZM29.104 54.382H28.104V55.382H29.104V54.382ZM29.104 50.5V49.5H28.104V50.5H29.104ZM30.118 50.5H31.118V49.5H30.118V50.5ZM27.49 52.492H26.49V53.492H27.49V52.492ZM27.49 51.394H28.49V50.394H27.49V51.394ZM25.486 51.394H24.486V52.394H25.486V51.394ZM25.486 50.536V49.536H24.486V50.536H25.486ZM28.498 50.536H29.498V49.536H28.498V50.536ZM28.498 52.492V53.492H29.498V52.492H28.498ZM28.81 53.464L29.2081 54.3813L29.81 54.1201V53.464H28.81ZM25.294 53.65H24.294V54.65H25.294V53.65ZM25.294 52.804V51.804H24.294V52.804H25.294ZM26.002 52.804V53.804H27.002V52.804H26.002ZM26.002 51.856V50.856H25.002V51.856H26.002ZM27.004 51.856H28.004V50.856H27.004V51.856ZM27.004 52.804H26.004V53.804H27.004V52.804ZM28.81 52.618H29.81V51.0939L28.4119 51.7007L28.81 52.618ZM26.62 54.01H27.62V53.01H26.62V54.01ZM26.62 54.76H25.62V55.76H26.62V54.76ZM30.19 54.76H31.19V53.76H30.19V54.76ZM30.19 55.624V56.624H31.19V55.624H30.19ZM25.594 55.624H24.594V56.624H25.594V55.624ZM25.594 54.01V53.01H24.594V54.01H25.594ZM30.118 51.64V52.64H30.706V51.64V50.64H30.118V51.64ZM30.706 51.64H29.706V52.594H30.706H31.706V51.64H30.706ZM30.706 52.594V51.594H30.118V52.594V53.594H30.706V52.594ZM30.118 52.594H29.118V54.382H30.118H31.118V52.594H30.118ZM30.118 54.382V53.382H29.104V54.382V55.382H30.118V54.382ZM29.104 54.382H30.104V50.5H29.104H28.104V54.382H29.104ZM29.104 50.5V51.5H30.118V50.5V49.5H29.104V50.5ZM30.118 50.5H29.118V51.64H30.118H31.118V50.5H30.118ZM27.49 52.492H28.49V51.394H27.49H26.49V52.492H27.49ZM27.49 51.394V50.394H25.486V51.394V52.394H27.49V51.394ZM25.486 51.394H26.486V50.536H25.486H24.486V51.394H25.486ZM25.486 50.536V51.536H28.498V50.536V49.536H25.486V50.536ZM28.498 50.536H27.498V52.492H28.498H29.498V50.536H28.498ZM28.498 52.492V51.492H27.49V52.492V53.492H28.498V52.492ZM28.81 53.464L28.4119 52.5467C28.2998 52.5953 27.968 52.65 27.466 52.65V53.65V54.65C27.984 54.65 28.6842 54.6087 29.2081 54.3813L28.81 53.464ZM27.466 53.65V52.65H25.294V53.65V54.65H27.466V53.65ZM25.294 53.65H26.294V52.804H25.294H24.294V53.65H25.294ZM25.294 52.804V53.804H26.002V52.804V51.804H25.294V52.804ZM26.002 52.804H27.002V51.856H26.002H25.002V52.804H26.002ZM26.002 51.856V52.856H27.004V51.856V50.856H26.002V51.856ZM27.004 51.856H26.004V52.804H27.004H28.004V51.856H27.004ZM27.004 52.804V53.804H27.484V52.804V51.804H27.004V52.804ZM27.484 52.804V53.804C27.966 53.804 28.6842 53.7627 29.2081 53.5353L28.81 52.618L28.4119 51.7007C28.2998 51.7493 27.95 51.804 27.484 51.804V52.804ZM28.81 52.618H27.81V53.464H28.81H29.81V52.618H28.81ZM26.62 54.01H25.62V54.76H26.62H27.62V54.01H26.62ZM26.62 54.76V55.76H30.19V54.76V53.76H26.62V54.76ZM30.19 54.76H29.19V55.624H30.19H31.19V54.76H30.19ZM30.19 55.624V54.624H25.594V55.624V56.624H30.19V55.624ZM25.594 55.624H26.594V54.01H25.594H24.594V55.624H25.594ZM25.594 54.01V55.01H26.62V54.01V53.01H25.594V54.01ZM36.4775 51.436H37.4775V50.436H36.4775V51.436ZM36.4775 52.408V53.408H37.4775V52.408H36.4775ZM35.8775 52.408V51.408H34.8775V52.408H35.8775ZM35.8775 53.548V54.548H36.8775V53.548H35.8775ZM34.8635 53.548H33.8635V54.548H34.8635V53.548ZM34.8635 50.5V49.5H33.8635V50.5H34.8635ZM35.8775 50.5H36.8775V49.5H35.8775V50.5ZM35.8775 51.436H34.8775V52.436H35.8775V51.436ZM31.3895 54.598H30.3895V55.598H31.3895V54.598ZM31.3895 53.728V52.728H30.3895V53.728H31.3895ZM35.8775 53.728H36.8775V52.728H35.8775V53.728ZM35.8775 55.684V56.684H36.8775V55.684H35.8775ZM34.8455 55.684H33.8455V56.684H34.8455V55.684ZM34.8455 54.598H35.8455V53.598H34.8455V54.598ZM36.4775 51.436H35.4775V52.408H36.4775H37.4775V51.436H36.4775ZM36.4775 52.408V51.408H35.8775V52.408V53.408H36.4775V52.408ZM35.8775 52.408H34.8775V53.548H35.8775H36.8775V52.408H35.8775ZM35.8775 53.548V52.548H34.8635V53.548V54.548H35.8775V53.548ZM34.8635 53.548H35.8635V50.5H34.8635H33.8635V53.548H34.8635ZM34.8635 50.5V51.5H35.8775V50.5V49.5H34.8635V50.5ZM35.8775 50.5H34.8775V51.436H35.8775H36.8775V50.5H35.8775ZM35.8775 51.436V52.436H36.4775V51.436V50.436H35.8775V51.436ZM32.6555 53.446V52.446C32.3675 52.446 32.2057 52.3592 32.129 52.2904C32.0602 52.2288 32.0055 52.1364 32.0055 51.976H31.0055H30.0055C30.0055 52.6796 30.2837 53.3222 30.794 53.7796C31.2962 54.2298 31.9595 54.446 32.6555 54.446V53.446ZM31.0055 51.976H32.0055C32.0055 51.8201 32.0593 51.7265 32.13 51.6629C32.2081 51.5928 32.37 51.506 32.6555 51.506V50.506V49.506C31.9569 49.506 31.2939 49.7252 30.7929 50.1756C30.2847 50.6325 30.0055 51.2739 30.0055 51.976H31.0055ZM32.6555 50.506V51.506C32.9409 51.506 33.1029 51.5928 33.1809 51.6629C33.2517 51.7265 33.3055 51.8201 33.3055 51.976H34.3055H35.3055C35.3055 51.2739 35.0263 50.6325 34.518 50.1756C34.0171 49.7252 33.354 49.506 32.6555 49.506V50.506ZM34.3055 51.976H33.3055C33.3055 52.1364 33.2507 52.2288 33.182 52.2904C33.1052 52.3592 32.9435 52.446 32.6555 52.446V53.446V54.446C33.3515 54.446 34.0147 54.2298 34.517 53.7796C35.0272 53.3222 35.3055 52.6796 35.3055 51.976H34.3055ZM32.6555 51.34V50.34C32.2544 50.34 31.8261 50.4687 31.493 50.7929C31.1561 51.1208 31.0135 51.5546 31.0135 51.976H32.0135H33.0135C33.0135 52.0014 32.9998 52.1172 32.888 52.2261C32.7799 52.3313 32.6726 52.34 32.6555 52.34V51.34ZM32.0135 51.976H31.0135C31.0135 52.3974 31.1561 52.8312 31.493 53.1591C31.8261 53.4833 32.2544 53.612 32.6555 53.612V52.612V51.612C32.6726 51.612 32.7799 51.6207 32.888 51.7259C32.9998 51.8348 33.0135 51.9506 33.0135 51.976H32.0135ZM32.6555 52.612V53.612C33.0569 53.612 33.4824 53.4814 33.8133 53.1614C34.1491 52.8368 34.2975 52.404 34.2975 51.976H33.2975H32.2975C32.2975 51.944 32.3139 51.8292 32.4231 51.7236C32.5276 51.6226 32.6321 51.612 32.6555 51.612V52.612ZM33.2975 51.976H34.2975C34.2975 51.548 34.1491 51.1152 33.8133 50.7906C33.4824 50.4706 33.0569 50.34 32.6555 50.34V51.34V52.34C32.6321 52.34 32.5276 52.3294 32.4231 52.2284C32.3139 52.1228 32.2975 52.008 32.2975 51.976H33.2975ZM31.3895 54.598H32.3895V53.728H31.3895H30.3895V54.598H31.3895ZM31.3895 53.728V54.728H35.8775V53.728V52.728H31.3895V53.728ZM35.8775 53.728H34.8775V55.684H35.8775H36.8775V53.728H35.8775ZM35.8775 55.684V54.684H34.8455V55.684V56.684H35.8775V55.684ZM34.8455 55.684H35.8455V54.598H34.8455H33.8455V55.684H34.8455ZM34.8455 54.598V53.598H31.3895V54.598V55.598H34.8455V54.598ZM41.649 51.466H40.649V52.466H41.649V51.466ZM42.249 51.466H43.249V50.466H42.249V51.466ZM42.249 52.45V53.45H43.249V52.45H42.249ZM41.649 52.45V51.45H40.649V52.45H41.649ZM41.649 54.292V55.292H42.649V54.292H41.649ZM40.635 54.292H39.635V55.292H40.635V54.292ZM40.635 50.5V49.5H39.635V50.5H40.635ZM41.649 50.5H42.649V49.5H41.649V50.5ZM38.625 52.534L39.2446 51.7491L38.411 51.091L37.8042 51.9627L38.625 52.534ZM36.837 53.596H35.837V54.646L36.8857 54.5948L36.837 53.596ZM36.837 52.654L36.7193 51.6609L35.837 51.7655V52.654H36.837ZM38.199 50.524L38.2577 49.5257L37.2157 49.4644L37.1991 50.508L38.199 50.524ZM39.219 50.584H40.219V49.6411L39.2777 49.5857L39.219 50.584ZM39.027 51.73L38.0831 51.3996L37.8404 52.0931L38.4296 52.532L39.027 51.73ZM40.485 52.816L41.2447 53.4663L41.9405 52.6533L41.0823 52.014L40.485 52.816ZM39.879 53.524L39.2593 54.3089L40.0137 54.9044L40.6387 54.1743L39.879 53.524ZM38.157 53.83H39.157V52.83H38.157V53.83ZM38.157 54.712H37.157V55.712H38.157V54.712ZM41.721 54.712H42.721V53.712H41.721V54.712ZM41.721 55.624V56.624H42.721V55.624H41.721ZM37.125 55.624H36.125V56.624H37.125V55.624ZM37.125 53.83V52.83H36.125V53.83H37.125ZM41.649 51.466V52.466H42.249V51.466V50.466H41.649V51.466ZM42.249 51.466H41.249V52.45H42.249H43.249V51.466H42.249ZM42.249 52.45V51.45H41.649V52.45V53.45H42.249V52.45ZM41.649 52.45H40.649V54.292H41.649H42.649V52.45H41.649ZM41.649 54.292V53.292H40.635V54.292V55.292H41.649V54.292ZM40.635 54.292H41.635V50.5H40.635H39.635V54.292H40.635ZM40.635 50.5V51.5H41.649V50.5V49.5H40.635V50.5ZM41.649 50.5H40.649V51.466H41.649H42.649V50.5H41.649ZM38.625 52.534L37.8042 51.9627C37.5169 52.3755 37.155 52.5793 36.7882 52.5972L36.837 53.596L36.8857 54.5948C37.995 54.5407 38.881 53.9165 39.4457 53.1053L38.625 52.534ZM36.837 53.596H37.837V52.654H36.837H35.837V53.596H36.837ZM36.837 52.654L36.9547 53.647C37.7303 53.5551 38.3066 53.0766 38.6632 52.5057C39.0152 51.9419 39.1876 51.2468 39.1988 50.54L38.199 50.524L37.1991 50.508C37.1924 50.9292 37.0887 51.2511 36.9668 51.4463C36.8493 51.6344 36.7537 51.6569 36.7193 51.6609L36.837 52.654ZM38.199 50.524L38.1402 51.5223L39.1602 51.5823L39.219 50.584L39.2777 49.5857L38.2577 49.5257L38.199 50.524ZM39.219 50.584H38.219C38.219 50.8701 38.1711 51.1483 38.0831 51.3996L39.027 51.73L39.9708 52.0604C40.1348 51.5917 40.219 51.0899 40.219 50.584H39.219ZM39.027 51.73L38.4296 52.532L39.8876 53.618L40.485 52.816L41.0823 52.014L39.6243 50.928L39.027 51.73ZM40.485 52.816L39.7253 52.1657L39.1193 52.8737L39.879 53.524L40.6387 54.1743L41.2447 53.4663L40.485 52.816ZM39.879 53.524L40.4986 52.7391L39.2446 51.7491L38.625 52.534L38.0053 53.3189L39.2593 54.3089L39.879 53.524ZM38.157 53.83H37.157V54.712H38.157H39.157V53.83H38.157ZM38.157 54.712V55.712H41.721V54.712V53.712H38.157V54.712ZM41.721 54.712H40.721V55.624H41.721H42.721V54.712H41.721ZM41.721 55.624V54.624H37.125V55.624V56.624H41.721V55.624ZM37.125 55.624H38.125V53.83H37.125H36.125V55.624H37.125ZM37.125 53.83V54.83H38.157V53.83V52.83H37.125V53.83Z" fill="white" mask="url(#path-16-outside-1_11_598)"/>
<mask id="path-18-outside-2_11_598" maskUnits="userSpaceOnUse" x="16" y="44" width="35" height="7" fill="black">
<rect fill="white" x="16" y="44" width="35" height="7"/>
<path d="M20.04 46H20.436V49.416H20.04V47.76H19.128C18.9 48.652 18.272 49.204 17.364 49.204V48.828C18.292 48.824 18.82 48.1 18.82 46.956V46.488H17.364V46.124H19.224V46.948C19.224 47.1 19.216 47.248 19.196 47.388H20.04V46ZM23.9757 46H24.3517V49.416H23.9757V47.748H23.4197V49.356H23.0437V46.02H23.4197V47.376H23.9757V46ZM21.5597 48.86H21.9997C22.2917 48.86 22.5877 48.812 22.7957 48.728V49.076C22.5917 49.164 22.2637 49.212 21.9557 49.212H21.1717V46.124H22.6477V46.476H21.5597V48.86ZM27.2233 46.324V46.648H24.9033V46.324H25.8633V45.94H26.2633V46.324H27.2233ZM28.0073 46.936H28.4873V47.316H28.0073V48.56H27.6113V46H28.0073V46.936ZM26.0633 48.24C25.4953 48.24 25.0513 47.988 25.0513 47.54C25.0513 47.092 25.4953 46.84 26.0633 46.84C26.6313 46.84 27.0713 47.092 27.0713 47.54C27.0713 47.988 26.6313 48.24 26.0633 48.24ZM26.0633 47.144C25.6793 47.144 25.4353 47.312 25.4353 47.54C25.4353 47.772 25.6793 47.936 26.0633 47.936C26.4473 47.936 26.6913 47.772 26.6913 47.54C26.6913 47.312 26.4473 47.144 26.0633 47.144ZM25.5513 48.436V49.02H28.0993V49.372H25.1513V48.436H25.5513ZM33.4561 47.384V47.764H32.9761V49.416H32.5801V46H32.9761V47.384H33.4561ZM31.5521 47.276V46.1H31.9441V49.212H30.0441V46.1H30.4361V47.276H31.5521ZM30.4361 48.848H31.5521V47.64H30.4361V48.848ZM36.5357 46H36.9317V49.416H36.5357V46ZM34.9037 47.812C34.3077 47.812 33.8917 47.452 33.8917 46.936C33.8917 46.42 34.3077 46.06 34.9037 46.06C35.4957 46.06 35.9157 46.42 35.9157 46.936C35.9157 47.452 35.4957 47.812 34.9037 47.812ZM34.9037 46.388C34.5197 46.388 34.2717 46.624 34.2717 46.936C34.2717 47.248 34.5197 47.484 34.9037 47.484C35.2837 47.484 35.5317 47.248 35.5317 46.936C35.5317 46.624 35.2837 46.388 34.9037 46.388ZM33.7317 48.132H35.1277C35.5877 48.132 36.0037 48.096 36.2477 48V48.36C36.0037 48.452 35.5997 48.492 35.1317 48.492H35.0997V49.416H34.7037V48.492H33.7317V48.132ZM40.3834 49.416V46H40.7794V49.416H40.3834ZM38.7514 48.224C38.1354 48.224 37.6954 47.784 37.6954 47.148C37.6954 46.512 38.1354 46.072 38.7514 46.072C39.3634 46.072 39.8074 46.512 39.8074 47.148C39.8074 47.784 39.3634 48.224 38.7514 48.224ZM38.7514 47.864C39.1554 47.864 39.4194 47.556 39.4194 47.148C39.4194 46.74 39.1554 46.428 38.7514 46.428C38.3434 46.428 38.0834 46.74 38.0834 47.148C38.0834 47.556 38.3434 47.864 38.7514 47.864ZM37.5794 49.212V48.84H38.9754C39.4434 48.84 39.8634 48.788 40.0954 48.68V49.048C39.8674 49.152 39.4434 49.212 38.9514 49.212H37.5794ZM44.8561 46.288V46.596H42.5361V46.288H43.4961V45.94H43.8961V46.288H44.8561ZM46.1201 46.76H45.6401V47.184H46.1201V47.52H45.6401V48.076H45.2441V46H45.6401V46.42H46.1201V46.76ZM43.6961 48.008C43.1281 48.008 42.6921 47.792 42.6921 47.4C42.6921 46.996 43.1281 46.776 43.6961 46.776C44.2601 46.776 44.6961 46.996 44.6961 47.4C44.6961 47.792 44.2601 48.008 43.6961 48.008ZM43.6961 47.072C43.3121 47.072 43.0721 47.208 43.0721 47.4C43.0721 47.584 43.3121 47.712 43.6961 47.712C44.0761 47.712 44.3201 47.584 44.3201 47.4C44.3201 47.208 44.0761 47.072 43.6961 47.072ZM44.2321 48.176C45.0521 48.176 45.6881 48.336 45.6881 48.796C45.6881 49.252 45.0521 49.416 44.2321 49.416C43.4121 49.416 42.7761 49.252 42.7761 48.796C42.7761 48.336 43.4121 48.176 44.2321 48.176ZM44.2321 49.108C44.8201 49.108 45.2721 49.016 45.2721 48.796C45.2721 48.576 44.8201 48.484 44.2321 48.484C43.6481 48.484 43.1961 48.576 43.1961 48.796C43.1961 49.016 43.6481 49.108 44.2321 49.108ZM48.6398 47.316H49.2198V46.748H48.6398L48.6158 46.396H49.2198V46H49.6118V48.54H49.2198V47.668H48.6158L48.6398 47.316ZM48.5318 47.028C48.5318 47.6 48.1318 48.02 47.4758 48.02C46.8158 48.02 46.4158 47.6 46.4158 47.028C46.4158 46.456 46.8158 46.036 47.4758 46.036C48.1318 46.036 48.5318 46.456 48.5318 47.028ZM46.8118 47.028C46.8118 47.432 47.0718 47.684 47.4758 47.684C47.8758 47.684 48.1358 47.432 48.1358 47.028C48.1358 46.624 47.8758 46.368 47.4758 46.368C47.0718 46.368 46.8118 46.624 46.8118 47.028ZM47.1438 49.016H49.6838V49.372H46.7438V48.256H47.1438V49.016Z"/>
</mask>
<path d="M20.04 46H20.436V49.416H20.04V47.76H19.128C18.9 48.652 18.272 49.204 17.364 49.204V48.828C18.292 48.824 18.82 48.1 18.82 46.956V46.488H17.364V46.124H19.224V46.948C19.224 47.1 19.216 47.248 19.196 47.388H20.04V46ZM23.9757 46H24.3517V49.416H23.9757V47.748H23.4197V49.356H23.0437V46.02H23.4197V47.376H23.9757V46ZM21.5597 48.86H21.9997C22.2917 48.86 22.5877 48.812 22.7957 48.728V49.076C22.5917 49.164 22.2637 49.212 21.9557 49.212H21.1717V46.124H22.6477V46.476H21.5597V48.86ZM27.2233 46.324V46.648H24.9033V46.324H25.8633V45.94H26.2633V46.324H27.2233ZM28.0073 46.936H28.4873V47.316H28.0073V48.56H27.6113V46H28.0073V46.936ZM26.0633 48.24C25.4953 48.24 25.0513 47.988 25.0513 47.54C25.0513 47.092 25.4953 46.84 26.0633 46.84C26.6313 46.84 27.0713 47.092 27.0713 47.54C27.0713 47.988 26.6313 48.24 26.0633 48.24ZM26.0633 47.144C25.6793 47.144 25.4353 47.312 25.4353 47.54C25.4353 47.772 25.6793 47.936 26.0633 47.936C26.4473 47.936 26.6913 47.772 26.6913 47.54C26.6913 47.312 26.4473 47.144 26.0633 47.144ZM25.5513 48.436V49.02H28.0993V49.372H25.1513V48.436H25.5513ZM33.4561 47.384V47.764H32.9761V49.416H32.5801V46H32.9761V47.384H33.4561ZM31.5521 47.276V46.1H31.9441V49.212H30.0441V46.1H30.4361V47.276H31.5521ZM30.4361 48.848H31.5521V47.64H30.4361V48.848ZM36.5357 46H36.9317V49.416H36.5357V46ZM34.9037 47.812C34.3077 47.812 33.8917 47.452 33.8917 46.936C33.8917 46.42 34.3077 46.06 34.9037 46.06C35.4957 46.06 35.9157 46.42 35.9157 46.936C35.9157 47.452 35.4957 47.812 34.9037 47.812ZM34.9037 46.388C34.5197 46.388 34.2717 46.624 34.2717 46.936C34.2717 47.248 34.5197 47.484 34.9037 47.484C35.2837 47.484 35.5317 47.248 35.5317 46.936C35.5317 46.624 35.2837 46.388 34.9037 46.388ZM33.7317 48.132H35.1277C35.5877 48.132 36.0037 48.096 36.2477 48V48.36C36.0037 48.452 35.5997 48.492 35.1317 48.492H35.0997V49.416H34.7037V48.492H33.7317V48.132ZM40.3834 49.416V46H40.7794V49.416H40.3834ZM38.7514 48.224C38.1354 48.224 37.6954 47.784 37.6954 47.148C37.6954 46.512 38.1354 46.072 38.7514 46.072C39.3634 46.072 39.8074 46.512 39.8074 47.148C39.8074 47.784 39.3634 48.224 38.7514 48.224ZM38.7514 47.864C39.1554 47.864 39.4194 47.556 39.4194 47.148C39.4194 46.74 39.1554 46.428 38.7514 46.428C38.3434 46.428 38.0834 46.74 38.0834 47.148C38.0834 47.556 38.3434 47.864 38.7514 47.864ZM37.5794 49.212V48.84H38.9754C39.4434 48.84 39.8634 48.788 40.0954 48.68V49.048C39.8674 49.152 39.4434 49.212 38.9514 49.212H37.5794ZM44.8561 46.288V46.596H42.5361V46.288H43.4961V45.94H43.8961V46.288H44.8561ZM46.1201 46.76H45.6401V47.184H46.1201V47.52H45.6401V48.076H45.2441V46H45.6401V46.42H46.1201V46.76ZM43.6961 48.008C43.1281 48.008 42.6921 47.792 42.6921 47.4C42.6921 46.996 43.1281 46.776 43.6961 46.776C44.2601 46.776 44.6961 46.996 44.6961 47.4C44.6961 47.792 44.2601 48.008 43.6961 48.008ZM43.6961 47.072C43.3121 47.072 43.0721 47.208 43.0721 47.4C43.0721 47.584 43.3121 47.712 43.6961 47.712C44.0761 47.712 44.3201 47.584 44.3201 47.4C44.3201 47.208 44.0761 47.072 43.6961 47.072ZM44.2321 48.176C45.0521 48.176 45.6881 48.336 45.6881 48.796C45.6881 49.252 45.0521 49.416 44.2321 49.416C43.4121 49.416 42.7761 49.252 42.7761 48.796C42.7761 48.336 43.4121 48.176 44.2321 48.176ZM44.2321 49.108C44.8201 49.108 45.2721 49.016 45.2721 48.796C45.2721 48.576 44.8201 48.484 44.2321 48.484C43.6481 48.484 43.1961 48.576 43.1961 48.796C43.1961 49.016 43.6481 49.108 44.2321 49.108ZM48.6398 47.316H49.2198V46.748H48.6398L48.6158 46.396H49.2198V46H49.6118V48.54H49.2198V47.668H48.6158L48.6398 47.316ZM48.5318 47.028C48.5318 47.6 48.1318 48.02 47.4758 48.02C46.8158 48.02 46.4158 47.6 46.4158 47.028C46.4158 46.456 46.8158 46.036 47.4758 46.036C48.1318 46.036 48.5318 46.456 48.5318 47.028ZM46.8118 47.028C46.8118 47.432 47.0718 47.684 47.4758 47.684C47.8758 47.684 48.1358 47.432 48.1358 47.028C48.1358 46.624 47.8758 46.368 47.4758 46.368C47.0718 46.368 46.8118 46.624 46.8118 47.028ZM47.1438 49.016H49.6838V49.372H46.7438V48.256H47.1438V49.016Z" fill="#8A817C"/>
<path d="M20.04 46V45H19.04V46H20.04ZM20.436 46H21.436V45H20.436V46ZM20.436 49.416V50.416H21.436V49.416H20.436ZM20.04 49.416H19.04V50.416H20.04V49.416ZM20.04 47.76H21.04V46.76H20.04V47.76ZM19.128 47.76V46.76H18.3515L18.1591 47.5124L19.128 47.76ZM17.364 49.204H16.364V50.204H17.364V49.204ZM17.364 48.828L17.3597 47.828L16.364 47.8323V48.828H17.364ZM18.82 46.488H19.82V45.488H18.82V46.488ZM17.364 46.488H16.364V47.488H17.364V46.488ZM17.364 46.124V45.124H16.364V46.124H17.364ZM19.224 46.124H20.224V45.124H19.224V46.124ZM19.196 47.388L18.2061 47.2466L18.043 48.388H19.196V47.388ZM20.04 47.388V48.388H21.04V47.388H20.04ZM20.04 46V47H20.436V46V45H20.04V46ZM20.436 46H19.436V49.416H20.436H21.436V46H20.436ZM20.436 49.416V48.416H20.04V49.416V50.416H20.436V49.416ZM20.04 49.416H21.04V47.76H20.04H19.04V49.416H20.04ZM20.04 47.76V46.76H19.128V47.76V48.76H20.04V47.76ZM19.128 47.76L18.1591 47.5124C18.0873 47.7935 17.9698 47.9573 17.8603 48.0487C17.7571 48.1348 17.6056 48.204 17.364 48.204V49.204V50.204C18.0304 50.204 18.6469 49.9972 19.1417 49.5843C19.6302 49.1767 19.9407 48.6185 20.0969 48.0076L19.128 47.76ZM17.364 49.204H18.364V48.828H17.364H16.364V49.204H17.364ZM17.364 48.828L17.3683 49.828C18.121 49.8247 18.7857 49.514 19.2345 48.9267C19.6579 48.3727 19.82 47.6662 19.82 46.956H18.82H17.82C17.82 47.3898 17.7181 47.6173 17.6455 47.7123C17.5983 47.774 17.535 47.8273 17.3597 47.828L17.364 48.828ZM18.82 46.956H19.82V46.488H18.82H17.82V46.956H18.82ZM18.82 46.488V45.488H17.364V46.488V47.488H18.82V46.488ZM17.364 46.488H18.364V46.124H17.364H16.364V46.488H17.364ZM17.364 46.124V47.124H19.224V46.124V45.124H17.364V46.124ZM19.224 46.124H18.224V46.948H19.224H20.224V46.124H19.224ZM19.224 46.948H18.224C18.224 47.0667 18.2176 47.1655 18.2061 47.2466L19.196 47.388L20.1859 47.5294C20.2144 47.3305 20.224 47.1333 20.224 46.948H19.224ZM19.196 47.388V48.388H20.04V47.388V46.388H19.196V47.388ZM20.04 47.388H21.04V46H20.04H19.04V47.388H20.04ZM23.9757 46V45H22.9757V46H23.9757ZM24.3517 46H25.3517V45H24.3517V46ZM24.3517 49.416V50.416H25.3517V49.416H24.3517ZM23.9757 49.416H22.9757V50.416H23.9757V49.416ZM23.9757 47.748H24.9757V46.748H23.9757V47.748ZM23.4197 47.748V46.748H22.4197V47.748H23.4197ZM23.4197 49.356V50.356H24.4197V49.356H23.4197ZM23.0437 49.356H22.0437V50.356H23.0437V49.356ZM23.0437 46.02V45.02H22.0437V46.02H23.0437ZM23.4197 46.02H24.4197V45.02H23.4197V46.02ZM23.4197 47.376H22.4197V48.376H23.4197V47.376ZM23.9757 47.376V48.376H24.9757V47.376H23.9757ZM21.5597 48.86H20.5597V49.86H21.5597V48.86ZM22.7957 48.728H23.7957V47.2457L22.4212 47.8008L22.7957 48.728ZM22.7957 49.076L23.1917 49.9942L23.7957 49.7337V49.076H22.7957ZM21.1717 49.212H20.1717V50.212H21.1717V49.212ZM21.1717 46.124V45.124H20.1717V46.124H21.1717ZM22.6477 46.124H23.6477V45.124H22.6477V46.124ZM22.6477 46.476V47.476H23.6477V46.476H22.6477ZM21.5597 46.476V45.476H20.5597V46.476H21.5597ZM23.9757 46V47H24.3517V46V45H23.9757V46ZM24.3517 46H23.3517V49.416H24.3517H25.3517V46H24.3517ZM24.3517 49.416V48.416H23.9757V49.416V50.416H24.3517V49.416ZM23.9757 49.416H24.9757V47.748H23.9757H22.9757V49.416H23.9757ZM23.9757 47.748V46.748H23.4197V47.748V48.748H23.9757V47.748ZM23.4197 47.748H22.4197V49.356H23.4197H24.4197V47.748H23.4197ZM23.4197 49.356V48.356H23.0437V49.356V50.356H23.4197V49.356ZM23.0437 49.356H24.0437V46.02H23.0437H22.0437V49.356H23.0437ZM23.0437 46.02V47.02H23.4197V46.02V45.02H23.0437V46.02ZM23.4197 46.02H22.4197V47.376H23.4197H24.4197V46.02H23.4197ZM23.4197 47.376V48.376H23.9757V47.376V46.376H23.4197V47.376ZM23.9757 47.376H24.9757V46H23.9757H22.9757V47.376H23.9757ZM21.5597 48.86V49.86H21.9997V48.86V47.86H21.5597V48.86ZM21.9997 48.86V49.86C22.3784 49.86 22.8098 49.8007 23.1701 49.6552L22.7957 48.728L22.4212 47.8008C22.3655 47.8233 22.2049 47.86 21.9997 47.86V48.86ZM22.7957 48.728H21.7957V49.076H22.7957H23.7957V48.728H22.7957ZM22.7957 49.076L22.3996 48.1578C22.4022 48.1567 22.3586 48.1735 22.259 48.1892C22.1674 48.2036 22.0606 48.212 21.9557 48.212V49.212V50.212C22.328 50.212 22.8103 50.1588 23.1917 49.9942L22.7957 49.076ZM21.9557 49.212V48.212H21.1717V49.212V50.212H21.9557V49.212ZM21.1717 49.212H22.1717V46.124H21.1717H20.1717V49.212H21.1717ZM21.1717 46.124V47.124H22.6477V46.124V45.124H21.1717V46.124ZM22.6477 46.124H21.6477V46.476H22.6477H23.6477V46.124H22.6477ZM22.6477 46.476V45.476H21.5597V46.476V47.476H22.6477V46.476ZM21.5597 46.476H20.5597V48.86H21.5597H22.5597V46.476H21.5597ZM27.2233 46.324H28.2233V45.324H27.2233V46.324ZM27.2233 46.648V47.648H28.2233V46.648H27.2233ZM24.9033 46.648H23.9033V47.648H24.9033V46.648ZM24.9033 46.324V45.324H23.9033V46.324H24.9033ZM25.8633 46.324V47.324H26.8633V46.324H25.8633ZM25.8633 45.94V44.94H24.8633V45.94H25.8633ZM26.2633 45.94H27.2633V44.94H26.2633V45.94ZM26.2633 46.324H25.2633V47.324H26.2633V46.324ZM28.0073 46.936H27.0073V47.936H28.0073V46.936ZM28.4873 46.936H29.4873V45.936H28.4873V46.936ZM28.4873 47.316V48.316H29.4873V47.316H28.4873ZM28.0073 47.316V46.316H27.0073V47.316H28.0073ZM28.0073 48.56V49.56H29.0073V48.56H28.0073ZM27.6113 48.56H26.6113V49.56H27.6113V48.56ZM27.6113 46V45H26.6113V46H27.6113ZM28.0073 46H29.0073V45H28.0073V46ZM25.5513 48.436H26.5513V47.436H25.5513V48.436ZM25.5513 49.02H24.5513V50.02H25.5513V49.02ZM28.0993 49.02H29.0993V48.02H28.0993V49.02ZM28.0993 49.372V50.372H29.0993V49.372H28.0993ZM25.1513 49.372H24.1513V50.372H25.1513V49.372ZM25.1513 48.436V47.436H24.1513V48.436H25.1513ZM27.2233 46.324H26.2233V46.648H27.2233H28.2233V46.324H27.2233ZM27.2233 46.648V45.648H24.9033V46.648V47.648H27.2233V46.648ZM24.9033 46.648H25.9033V46.324H24.9033H23.9033V46.648H24.9033ZM24.9033 46.324V47.324H25.8633V46.324V45.324H24.9033V46.324ZM25.8633 46.324H26.8633V45.94H25.8633H24.8633V46.324H25.8633ZM25.8633 45.94V46.94H26.2633V45.94V44.94H25.8633V45.94ZM26.2633 45.94H25.2633V46.324H26.2633H27.2633V45.94H26.2633ZM26.2633 46.324V47.324H27.2233V46.324V45.324H26.2633V46.324ZM28.0073 46.936V47.936H28.4873V46.936V45.936H28.0073V46.936ZM28.4873 46.936H27.4873V47.316H28.4873H29.4873V46.936H28.4873ZM28.4873 47.316V46.316H28.0073V47.316V48.316H28.4873V47.316ZM28.0073 47.316H27.0073V48.56H28.0073H29.0073V47.316H28.0073ZM28.0073 48.56V47.56H27.6113V48.56V49.56H28.0073V48.56ZM27.6113 48.56H28.6113V46H27.6113H26.6113V48.56H27.6113ZM27.6113 46V47H28.0073V46V45H27.6113V46ZM28.0073 46H27.0073V46.936H28.0073H29.0073V46H28.0073ZM26.0633 48.24V47.24C25.9938 47.24 25.9424 47.2321 25.91 47.224C25.8765 47.2155 25.8742 47.2097 25.8916 47.221C25.9106 47.2335 25.9546 47.268 25.9935 47.3347C26.0347 47.4054 26.0513 47.4802 26.0513 47.54H25.0513H24.0513C24.0513 48.1485 24.3743 48.6185 24.7971 48.895C25.1878 49.1505 25.6485 49.24 26.0633 49.24V48.24ZM25.0513 47.54H26.0513C26.0513 47.5998 26.0347 47.6746 25.9935 47.7453C25.9546 47.812 25.9106 47.8465 25.8916 47.859C25.8742 47.8703 25.8765 47.8645 25.91 47.856C25.9424 47.8479 25.9938 47.84 26.0633 47.84V46.84V45.84C25.6485 45.84 25.1878 45.9295 24.7971 46.185C24.3743 46.4615 24.0513 46.9315 24.0513 47.54H25.0513ZM26.0633 46.84V47.84C26.1329 47.84 26.1837 47.8479 26.2153 47.8559C26.2479 47.8641 26.2492 47.8696 26.231 47.8576C26.2109 47.8444 26.1668 47.8093 26.1281 47.7425C26.0874 47.672 26.0713 47.5981 26.0713 47.54H27.0713H28.0713C28.0713 46.9352 27.753 46.4647 27.3297 46.1864C26.939 45.9296 26.4782 45.84 26.0633 45.84V46.84ZM27.0713 47.54H26.0713C26.0713 47.4819 26.0874 47.408 26.1281 47.3375C26.1668 47.2707 26.2109 47.2356 26.231 47.2224C26.2492 47.2104 26.2479 47.2159 26.2153 47.2241C26.1837 47.2321 26.1329 47.24 26.0633 47.24V48.24V49.24C26.4782 49.24 26.939 49.1504 27.3297 48.8936C27.753 48.6153 28.0713 48.1448 28.0713 47.54H27.0713ZM26.0633 47.144V46.144C25.7394 46.144 25.3775 46.2129 25.0622 46.4168C24.728 46.633 24.4353 47.0213 24.4353 47.54H25.4353H26.4353C26.4353 47.6684 26.3991 47.7934 26.3354 47.8989C26.2742 48.0003 26.201 48.0622 26.1484 48.0962C26.0511 48.1591 26.0032 48.144 26.0633 48.144V47.144ZM25.4353 47.54H24.4353C24.4353 48.0572 24.7247 48.4479 25.0649 48.6664C25.3819 48.87 25.744 48.936 26.0633 48.936V47.936V46.936C25.9986 46.936 26.0468 46.92 26.1457 46.9836C26.1997 47.0183 26.2744 47.0813 26.3363 47.1843C26.4008 47.2914 26.4353 47.4157 26.4353 47.54H25.4353ZM26.0633 47.936V48.936C26.3826 48.936 26.7448 48.87 27.0617 48.6664C27.4019 48.4479 27.6913 48.0572 27.6913 47.54H26.6913H25.6913C25.6913 47.4157 25.7259 47.2914 25.7903 47.1843C25.8522 47.0813 25.9269 47.0183 25.9809 46.9836C26.0799 46.92 26.128 46.936 26.0633 46.936V47.936ZM26.6913 47.54H27.6913C27.6913 47.0213 27.3986 46.633 27.0644 46.4168C26.7491 46.2129 26.3872 46.144 26.0633 46.144V47.144V48.144C26.1234 48.144 26.0755 48.1591 25.9782 48.0962C25.9256 48.0622 25.8524 48.0003 25.7912 47.8989C25.7275 47.7934 25.6913 47.6684 25.6913 47.54H26.6913ZM25.5513 48.436H24.5513V49.02H25.5513H26.5513V48.436H25.5513ZM25.5513 49.02V50.02H28.0993V49.02V48.02H25.5513V49.02ZM28.0993 49.02H27.0993V49.372H28.0993H29.0993V49.02H28.0993ZM28.0993 49.372V48.372H25.1513V49.372V50.372H28.0993V49.372ZM25.1513 49.372H26.1513V48.436H25.1513H24.1513V49.372H25.1513ZM25.1513 48.436V49.436H25.5513V48.436V47.436H25.1513V48.436ZM33.4561 47.384H34.4561V46.384H33.4561V47.384ZM33.4561 47.764V48.764H34.4561V47.764H33.4561ZM32.9761 47.764V46.764H31.9761V47.764H32.9761ZM32.9761 49.416V50.416H33.9761V49.416H32.9761ZM32.5801 49.416H31.5801V50.416H32.5801V49.416ZM32.5801 46V45H31.5801V46H32.5801ZM32.9761 46H33.9761V45H32.9761V46ZM32.9761 47.384H31.9761V48.384H32.9761V47.384ZM31.5521 47.276V48.276H32.5521V47.276H31.5521ZM31.5521 46.1V45.1H30.5521V46.1H31.5521ZM31.9441 46.1H32.9441V45.1H31.9441V46.1ZM31.9441 49.212V50.212H32.9441V49.212H31.9441ZM30.0441 49.212H29.0441V50.212H30.0441V49.212ZM30.0441 46.1V45.1H29.0441V46.1H30.0441ZM30.4361 46.1H31.4361V45.1H30.4361V46.1ZM30.4361 47.276H29.4361V48.276H30.4361V47.276ZM30.4361 48.848H29.4361V49.848H30.4361V48.848ZM31.5521 48.848V49.848H32.5521V48.848H31.5521ZM31.5521 47.64H32.5521V46.64H31.5521V47.64ZM30.4361 47.64V46.64H29.4361V47.64H30.4361ZM33.4561 47.384H32.4561V47.764H33.4561H34.4561V47.384H33.4561ZM33.4561 47.764V46.764H32.9761V47.764V48.764H33.4561V47.764ZM32.9761 47.764H31.9761V49.416H32.9761H33.9761V47.764H32.9761ZM32.9761 49.416V48.416H32.5801V49.416V50.416H32.9761V49.416ZM32.5801 49.416H33.5801V46H32.5801H31.5801V49.416H32.5801ZM32.5801 46V47H32.9761V46V45H32.5801V46ZM32.9761 46H31.9761V47.384H32.9761H33.9761V46H32.9761ZM32.9761 47.384V48.384H33.4561V47.384V46.384H32.9761V47.384ZM31.5521 47.276H32.5521V46.1H31.5521H30.5521V47.276H31.5521ZM31.5521 46.1V47.1H31.9441V46.1V45.1H31.5521V46.1ZM31.9441 46.1H30.9441V49.212H31.9441H32.9441V46.1H31.9441ZM31.9441 49.212V48.212H30.0441V49.212V50.212H31.9441V49.212ZM30.0441 49.212H31.0441V46.1H30.0441H29.0441V49.212H30.0441ZM30.0441 46.1V47.1H30.4361V46.1V45.1H30.0441V46.1ZM30.4361 46.1H29.4361V47.276H30.4361H31.4361V46.1H30.4361ZM30.4361 47.276V48.276H31.5521V47.276V46.276H30.4361V47.276ZM30.4361 48.848V49.848H31.5521V48.848V47.848H30.4361V48.848ZM31.5521 48.848H32.5521V47.64H31.5521H30.5521V48.848H31.5521ZM31.5521 47.64V46.64H30.4361V47.64V48.64H31.5521V47.64ZM30.4361 47.64H29.4361V48.848H30.4361H31.4361V47.64H30.4361ZM36.5357 46V45H35.5357V46H36.5357ZM36.9317 46H37.9317V45H36.9317V46ZM36.9317 49.416V50.416H37.9317V49.416H36.9317ZM36.5357 49.416H35.5357V50.416H36.5357V49.416ZM33.7317 48.132V47.132H32.7317V48.132H33.7317ZM36.2477 48H37.2477V46.5319L35.8816 47.0694L36.2477 48ZM36.2477 48.36L36.6005 49.2957L37.2477 49.0517V48.36H36.2477ZM35.0997 48.492V47.492H34.0997V48.492H35.0997ZM35.0997 49.416V50.416H36.0997V49.416H35.0997ZM34.7037 49.416H33.7037V50.416H34.7037V49.416ZM34.7037 48.492H35.7037V47.492H34.7037V48.492ZM33.7317 48.492H32.7317V49.492H33.7317V48.492ZM36.5357 46V47H36.9317V46V45H36.5357V46ZM36.9317 46H35.9317V49.416H36.9317H37.9317V46H36.9317ZM36.9317 49.416V48.416H36.5357V49.416V50.416H36.9317V49.416ZM36.5357 49.416H37.5357V46H36.5357H35.5357V49.416H36.5357ZM34.9037 47.812V46.812C34.8039 46.812 34.7959 46.783 34.8287 46.8114C34.8449 46.8254 34.8632 46.8477 34.8764 46.8768C34.8898 46.9062 34.8917 46.9287 34.8917 46.936H33.8917H32.8917C32.8917 47.4811 33.1195 47.9771 33.5198 48.3236C33.9096 48.661 34.4076 48.812 34.9037 48.812V47.812ZM33.8917 46.936H34.8917C34.8917 46.9433 34.8898 46.9658 34.8764 46.9952C34.8632 47.0243 34.8449 47.0466 34.8287 47.0606C34.7959 47.089 34.8039 47.06 34.9037 47.06V46.06V45.06C34.4076 45.06 33.9096 45.211 33.5198 45.5484C33.1195 45.8949 32.8917 46.3909 32.8917 46.936H33.8917ZM34.9037 46.06V47.06C35.0003 47.06 35.0094 47.0883 34.9783 47.0615C34.9629 47.0482 34.9448 47.0265 34.9315 46.9974C34.918 46.968 34.9157 46.9447 34.9157 46.936H35.9157H36.9157C36.9157 46.3879 36.6846 45.8923 36.2851 45.5475C35.8961 45.2117 35.3992 45.06 34.9037 45.06V46.06ZM35.9157 46.936H34.9157C34.9157 46.9273 34.918 46.904 34.9315 46.8746C34.9448 46.8455 34.9629 46.8238 34.9783 46.8105C35.0094 46.7837 35.0003 46.812 34.9037 46.812V47.812V48.812C35.3992 48.812 35.8961 48.6603 36.2851 48.3245C36.6846 47.9797 36.9157 47.4841 36.9157 46.936H35.9157ZM34.9037 46.388V45.388C34.5073 45.388 34.1 45.5119 33.7785 45.7983C33.4508 46.0903 33.2717 46.5011 33.2717 46.936H34.2717H35.2717C35.2717 47.0589 35.2166 47.1957 35.1089 47.2917C35.0074 47.3821 34.9162 47.388 34.9037 47.388V46.388ZM34.2717 46.936H33.2717C33.2717 47.3709 33.4508 47.7817 33.7785 48.0737C34.1 48.3601 34.5073 48.484 34.9037 48.484V47.484V46.484C34.9162 46.484 35.0074 46.4899 35.1089 46.5803C35.2166 46.6763 35.2717 46.8131 35.2717 46.936H34.2717ZM34.9037 47.484V48.484C35.3007 48.484 35.707 48.3586 36.0271 48.0722C36.3529 47.7806 36.5317 47.3706 36.5317 46.936H35.5317H34.5317C34.5317 46.8134 34.5865 46.6774 34.6933 46.5818C34.7944 46.4914 34.8868 46.484 34.9037 46.484V47.484ZM35.5317 46.936H36.5317C36.5317 46.5014 36.3529 46.0914 36.0271 45.7998C35.707 45.5134 35.3007 45.388 34.9037 45.388V46.388V47.388C34.8868 47.388 34.7944 47.3806 34.6933 47.2902C34.5865 47.1946 34.5317 47.0586 34.5317 46.936H35.5317ZM33.7317 48.132V49.132H35.1277V48.132V47.132H33.7317V48.132ZM35.1277 48.132V49.132C35.5846 49.132 36.1747 49.1033 36.6138 48.9306L36.2477 48L35.8816 47.0694C35.8873 47.0672 35.8726 47.0733 35.8293 47.0824C35.7878 47.0911 35.7318 47.1001 35.66 47.1079C35.5152 47.1238 35.3346 47.132 35.1277 47.132V48.132ZM36.2477 48H35.2477V48.36H36.2477H37.2477V48H36.2477ZM36.2477 48.36L35.8949 47.4243C35.8954 47.4241 35.8905 47.426 35.879 47.4292C35.8676 47.4324 35.8517 47.4364 35.8308 47.4408C35.7882 47.4497 35.7321 47.4588 35.6613 47.4668C35.5186 47.483 35.3398 47.492 35.1317 47.492V48.492V49.492C35.6117 49.492 36.174 49.4565 36.6005 49.2957L36.2477 48.36ZM35.1317 48.492V47.492H35.0997V48.492V49.492H35.1317V48.492ZM35.0997 48.492H34.0997V49.416H35.0997H36.0997V48.492H35.0997ZM35.0997 49.416V48.416H34.7037V49.416V50.416H35.0997V49.416ZM34.7037 49.416H35.7037V48.492H34.7037H33.7037V49.416H34.7037ZM34.7037 48.492V47.492H33.7317V48.492V49.492H34.7037V48.492ZM33.7317 48.492H34.7317V48.132H33.7317H32.7317V48.492H33.7317ZM40.3834 49.416H39.3834V50.416H40.3834V49.416ZM40.3834 46V45H39.3834V46H40.3834ZM40.7794 46H41.7794V45H40.7794V46ZM40.7794 49.416V50.416H41.7794V49.416H40.7794ZM37.5794 49.212H36.5794V50.212H37.5794V49.212ZM37.5794 48.84V47.84H36.5794V48.84H37.5794ZM40.0954 48.68H41.0954V47.1114L39.6733 47.7734L40.0954 48.68ZM40.0954 49.048L40.5104 49.9578L41.0954 49.691V49.048H40.0954ZM40.3834 49.416H41.3834V46H40.3834H39.3834V49.416H40.3834ZM40.3834 46V47H40.7794V46V45H40.3834V46ZM40.7794 46H39.7794V49.416H40.7794H41.7794V46H40.7794ZM40.7794 49.416V48.416H40.3834V49.416V50.416H40.7794V49.416ZM38.7514 48.224V47.224C38.7171 47.224 38.701 47.2181 38.6981 47.2169C38.6956 47.2159 38.6993 47.2171 38.7042 47.2221C38.709 47.227 38.7084 47.2289 38.7056 47.2217C38.7027 47.2141 38.6954 47.1912 38.6954 47.148H37.6954H36.6954C36.6954 47.7022 36.891 48.2321 37.2806 48.6269C37.6707 49.0222 38.1983 49.224 38.7514 49.224V48.224ZM37.6954 47.148H38.6954C38.6954 47.1048 38.7027 47.0819 38.7056 47.0743C38.7084 47.0671 38.709 47.069 38.7042 47.0739C38.6993 47.0789 38.6956 47.0801 38.6981 47.0791C38.701 47.0779 38.7171 47.072 38.7514 47.072V46.072V45.072C38.1983 45.072 37.6707 45.2738 37.2806 45.6691C36.891 46.0639 36.6954 46.5938 36.6954 47.148H37.6954ZM38.7514 46.072V47.072C38.7839 47.072 38.7994 47.0777 38.8025 47.0789C38.8053 47.08 38.8023 47.0792 38.798 47.0748C38.7938 47.0705 38.7945 47.0692 38.7973 47.0763C38.8002 47.0836 38.8074 47.1059 38.8074 47.148H39.8074H40.8074C40.8074 46.5912 40.6091 46.0617 40.2197 45.6682C39.8303 45.2746 39.3037 45.072 38.7514 45.072V46.072ZM39.8074 47.148H38.8074C38.8074 47.1901 38.8002 47.2124 38.7973 47.2197C38.7945 47.2268 38.7938 47.2255 38.798 47.2212C38.8023 47.2168 38.8053 47.216 38.8025 47.2171C38.7994 47.2183 38.7839 47.224 38.7514 47.224V48.224V49.224C39.3037 49.224 39.8303 49.0214 40.2197 48.6278C40.6091 48.2343 40.8074 47.7048 40.8074 47.148H39.8074ZM38.7514 47.864V48.864C39.2228 48.864 39.6624 48.6771 39.9764 48.3321C40.2824 47.9959 40.4194 47.5663 40.4194 47.148H39.4194H38.4194C38.4194 47.1377 38.4243 47.0661 38.4973 46.9859C38.5784 46.8969 38.684 46.864 38.7514 46.864V47.864ZM39.4194 47.148H40.4194C40.4194 46.7301 40.2828 46.3012 39.979 45.9648C39.6668 45.619 39.227 45.428 38.7514 45.428V46.428V47.428C38.722 47.428 38.6772 47.4219 38.6259 47.3995C38.5747 47.3772 38.5297 47.344 38.4947 47.3052C38.4239 47.2268 38.4194 47.1579 38.4194 47.148H39.4194ZM38.7514 46.428V45.428C38.2759 45.428 37.8344 45.6176 37.5208 45.9664C37.2165 46.3047 37.0834 46.7341 37.0834 47.148H38.0834H39.0834C39.0834 47.1539 39.0802 47.2233 39.008 47.3036C38.9721 47.3435 38.9262 47.3773 38.8744 47.3999C38.8226 47.4224 38.7785 47.428 38.7514 47.428V46.428ZM38.0834 47.148H37.0834C37.0834 47.5623 37.2169 47.9923 37.5234 48.3305C37.8388 48.6786 38.2801 48.864 38.7514 48.864V47.864V46.864C38.7767 46.864 38.8196 46.8692 38.8708 46.8912C38.9222 46.9134 38.9686 46.947 39.0054 46.9875C39.0799 47.0697 39.0834 47.1417 39.0834 47.148H38.0834ZM37.5794 49.212H38.5794V48.84H37.5794H36.5794V49.212H37.5794ZM37.5794 48.84V49.84H38.9754V48.84V47.84H37.5794V48.84ZM38.9754 48.84V49.84C39.4584 49.84 40.0714 49.7942 40.5174 49.5866L40.0954 48.68L39.6733 47.7734C39.6889 47.7662 39.6391 47.789 39.4875 47.8098C39.3504 47.8287 39.1753 47.84 38.9754 47.84V48.84ZM40.0954 48.68H39.0954V49.048H40.0954H41.0954V48.68H40.0954ZM40.0954 49.048L39.6804 48.1382C39.6914 48.1331 39.6356 48.157 39.481 48.1791C39.3401 48.1992 39.1593 48.212 38.9514 48.212V49.212V50.212C39.472 50.212 40.0775 50.1553 40.5104 49.9578L40.0954 49.048ZM38.9514 49.212V48.212H37.5794V49.212V50.212H38.9514V49.212ZM44.8561 46.288H45.8561V45.288H44.8561V46.288ZM44.8561 46.596V47.596H45.8561V46.596H44.8561ZM42.5361 46.596H41.5361V47.596H42.5361V46.596ZM42.5361 46.288V45.288H41.5361V46.288H42.5361ZM43.4961 46.288V47.288H44.4961V46.288H43.4961ZM43.4961 45.94V44.94H42.4961V45.94H43.4961ZM43.8961 45.94H44.8961V44.94H43.8961V45.94ZM43.8961 46.288H42.8961V47.288H43.8961V46.288ZM46.1201 46.76V47.76H47.1201V46.76H46.1201ZM45.6401 46.76V45.76H44.6401V46.76H45.6401ZM45.6401 47.184H44.6401V48.184H45.6401V47.184ZM46.1201 47.184H47.1201V46.184H46.1201V47.184ZM46.1201 47.52V48.52H47.1201V47.52H46.1201ZM45.6401 47.52V46.52H44.6401V47.52H45.6401ZM45.6401 48.076V49.076H46.6401V48.076H45.6401ZM45.2441 48.076H44.2441V49.076H45.2441V48.076ZM45.2441 46V45H44.2441V46H45.2441ZM45.6401 46H46.6401V45H45.6401V46ZM45.6401 46.42H44.6401V47.42H45.6401V46.42ZM46.1201 46.42H47.1201V45.42H46.1201V46.42ZM44.8561 46.288H43.8561V46.596H44.8561H45.8561V46.288H44.8561ZM44.8561 46.596V45.596H42.5361V46.596V47.596H44.8561V46.596ZM42.5361 46.596H43.5361V46.288H42.5361H41.5361V46.596H42.5361ZM42.5361 46.288V47.288H43.4961V46.288V45.288H42.5361V46.288ZM43.4961 46.288H44.4961V45.94H43.4961H42.4961V46.288H43.4961ZM43.4961 45.94V46.94H43.8961V45.94V44.94H43.4961V45.94ZM43.8961 45.94H42.8961V46.288H43.8961H44.8961V45.94H43.8961ZM43.8961 46.288V47.288H44.8561V46.288V45.288H43.8961V46.288ZM46.1201 46.76V45.76H45.6401V46.76V47.76H46.1201V46.76ZM45.6401 46.76H44.6401V47.184H45.6401H46.6401V46.76H45.6401ZM45.6401 47.184V48.184H46.1201V47.184V46.184H45.6401V47.184ZM46.1201 47.184H45.1201V47.52H46.1201H47.1201V47.184H46.1201ZM46.1201 47.52V46.52H45.6401V47.52V48.52H46.1201V47.52ZM45.6401 47.52H44.6401V48.076H45.6401H46.6401V47.52H45.6401ZM45.6401 48.076V47.076H45.2441V48.076V49.076H45.6401V48.076ZM45.2441 48.076H46.2441V46H45.2441H44.2441V48.076H45.2441ZM45.2441 46V47H45.6401V46V45H45.2441V46ZM45.6401 46H44.6401V46.42H45.6401H46.6401V46H45.6401ZM45.6401 46.42V47.42H46.1201V46.42V45.42H45.6401V46.42ZM46.1201 46.42H45.1201V46.76H46.1201H47.1201V46.42H46.1201ZM43.6961 48.008V47.008C43.6159 47.008 43.5545 47.0002 43.513 46.9912C43.4698 46.9817 43.4619 46.974 43.4778 46.9831C43.4943 46.9925 43.5503 47.0286 43.6037 47.1095C43.662 47.1978 43.6921 47.3023 43.6921 47.4H42.6921H41.6921C41.6921 48.0393 42.0744 48.4843 42.4845 48.7189C42.8648 48.9366 43.3049 49.008 43.6961 49.008V48.008ZM42.6921 47.4H43.6921C43.6921 47.4882 43.6656 47.5867 43.6105 47.6726C43.5595 47.7519 43.5049 47.7886 43.4868 47.7992C43.4697 47.8092 43.4759 47.8019 43.5174 47.7927C43.5572 47.7838 43.617 47.776 43.6961 47.776V46.776V45.776C43.3026 45.776 42.8586 45.8492 42.4755 46.0738C42.0595 46.3176 41.6921 46.7686 41.6921 47.4H42.6921ZM43.6961 46.776V47.776C43.7737 47.776 43.8325 47.7837 43.8716 47.7925C43.9123 47.8016 43.9181 47.8087 43.9009 47.7986C43.8827 47.7879 43.8283 47.7512 43.7775 47.6721C43.7226 47.5865 43.6961 47.4882 43.6961 47.4H44.6961H45.6961C45.6961 46.769 45.3293 46.3183 44.9143 46.0744C44.5319 45.8496 44.0887 45.776 43.6961 45.776V46.776ZM44.6961 47.4H43.6961C43.6961 47.3024 43.7263 47.198 43.7843 47.11C43.8375 47.0293 43.8933 46.9932 43.9099 46.9837C43.9259 46.9745 43.9184 46.9821 43.876 46.9914C43.8352 47.0003 43.7749 47.008 43.6961 47.008V48.008V49.008C44.0863 49.008 44.5256 48.9362 44.9053 48.7183C45.3143 48.4837 45.6961 48.0389 45.6961 47.4H44.6961ZM43.6961 47.072V46.072C43.4038 46.072 43.0685 46.1211 42.767 46.283C42.456 46.45 42.0721 46.8158 42.0721 47.4H43.0721H44.0721C44.0721 47.5729 44.0145 47.7302 43.9283 47.8504C43.8483 47.9621 43.7605 48.0196 43.7133 48.045C43.6278 48.0909 43.6045 48.072 43.6961 48.072V47.072ZM43.0721 47.4H42.0721C42.0721 48.0052 42.4859 48.3631 42.7863 48.5161C43.0832 48.6673 43.4114 48.712 43.6961 48.712V47.712V46.712C43.5969 46.712 43.6131 46.6927 43.6939 46.7339C43.7387 46.7567 43.8296 46.8121 43.9147 46.9251C44.0072 47.0481 44.0721 47.214 44.0721 47.4H43.0721ZM43.6961 47.712V48.712C43.9805 48.712 44.3072 48.6668 44.6028 48.5169C44.8974 48.3676 45.3201 48.0116 45.3201 47.4H44.3201H43.3201C43.3201 47.2099 43.3875 47.0427 43.4802 46.9209C43.5652 46.8092 43.6553 46.755 43.6985 46.7331C43.777 46.6932 43.7918 46.712 43.6961 46.712V47.712ZM44.3201 47.4H45.3201C45.3201 46.8094 44.9278 46.4455 44.6221 46.2821C44.322 46.1217 43.9882 46.072 43.6961 46.072V47.072V48.072C43.7841 48.072 43.7623 48.0903 43.6792 48.0459C43.6334 48.0214 43.5465 47.9651 43.4664 47.8546C43.38 47.7354 43.3201 47.5768 43.3201 47.4H44.3201ZM44.2321 48.176V49.176C44.4066 49.176 44.5566 49.1846 44.6797 49.2002C44.8063 49.2163 44.882 49.237 44.9183 49.2505C44.9595 49.2659 44.9068 49.2557 44.836 49.1777C44.7974 49.1352 44.7574 49.0767 44.7283 49.0026C44.6991 48.9281 44.6881 48.8563 44.6881 48.796H45.6881H46.6881C46.6881 47.9567 46.0526 47.5389 45.617 47.3765C45.187 47.2162 44.6803 47.176 44.2321 47.176V48.176ZM45.6881 48.796H44.6881C44.6881 48.7341 44.6994 48.6614 44.729 48.5865C44.7584 48.5121 44.7985 48.4537 44.8368 48.4117C44.9069 48.3348 44.9585 48.3249 44.9167 48.3406C44.88 48.3543 44.8041 48.3752 44.678 48.3914C44.5552 48.4072 44.4058 48.416 44.2321 48.416V49.416V50.416C44.6825 50.416 45.1889 50.3744 45.6186 50.2134C46.05 50.0517 46.6881 49.6352 46.6881 48.796H45.6881ZM44.2321 49.416V48.416C44.0585 48.416 43.909 48.4072 43.7863 48.3914C43.6602 48.3752 43.5842 48.3543 43.5476 48.3406C43.5058 48.3249 43.5574 48.3348 43.6275 48.4117C43.6657 48.4537 43.7059 48.5121 43.7352 48.5865C43.7648 48.6614 43.7761 48.7341 43.7761 48.796H42.7761H41.7761C41.7761 49.6352 42.4143 50.0517 42.8457 50.2134C43.2753 50.3744 43.7817 50.416 44.2321 50.416V49.416ZM42.7761 48.796H43.7761C43.7761 48.8563 43.7652 48.9281 43.7359 49.0026C43.7069 49.0767 43.6669 49.1352 43.6283 49.1777C43.5574 49.2557 43.5047 49.2659 43.546 49.2505C43.5823 49.237 43.658 49.2163 43.7845 49.2002C43.9076 49.1846 44.0576 49.176 44.2321 49.176V48.176V47.176C43.7839 47.176 43.2773 47.2162 42.8473 47.3765C42.4117 47.5389 41.7761 47.9567 41.7761 48.796H42.7761ZM44.2321 49.108V50.108C44.5593 50.108 44.9218 50.0843 45.234 49.9997C45.385 49.9589 45.6018 49.8838 45.801 49.7309C46.0213 49.5619 46.2721 49.2485 46.2721 48.796H45.2721H44.2721C44.2721 48.6433 44.3136 48.4981 44.3839 48.3753C44.4505 48.2593 44.5296 48.1856 44.5836 48.1442C44.6797 48.0704 44.7468 48.0596 44.7113 48.0693C44.6504 48.0857 44.4929 48.108 44.2321 48.108V49.108ZM45.2721 48.796H46.2721C46.2721 48.3435 46.0213 48.0301 45.801 47.8611C45.6018 47.7082 45.385 47.6331 45.234 47.5923C44.9218 47.5077 44.5593 47.484 44.2321 47.484V48.484V49.484C44.4929 49.484 44.6504 49.5063 44.7113 49.5227C44.7468 49.5324 44.6797 49.5216 44.5836 49.4478C44.5296 49.4064 44.4505 49.3327 44.3839 49.2167C44.3136 49.0939 44.2721 48.9487 44.2721 48.796H45.2721ZM44.2321 48.484V47.484C43.9065 47.484 43.5449 47.5078 43.2331 47.5924C43.0823 47.6334 42.8657 47.7085 42.6667 47.8614C42.4468 48.0303 42.1961 48.3436 42.1961 48.796H43.1961H44.1961C44.1961 48.9487 44.1547 49.0938 44.0844 49.2164C44.018 49.3324 43.939 49.406 43.8851 49.4475C43.789 49.5212 43.722 49.5321 43.7571 49.5226C43.8173 49.5062 43.9737 49.484 44.2321 49.484V48.484ZM43.1961 48.796H42.1961C42.1961 49.2484 42.4468 49.5617 42.6667 49.7306C42.8657 49.8835 43.0823 49.9586 43.2331 49.9996C43.5449 50.0842 43.9065 50.108 44.2321 50.108V49.108V48.108C43.9737 48.108 43.8173 48.0858 43.7571 48.0694C43.722 48.0599 43.789 48.0708 43.8851 48.1445C43.939 48.186 44.018 48.2596 44.0844 48.3756C44.1547 48.4982 44.1961 48.6433 44.1961 48.796H43.1961ZM48.6398 47.316V46.316H47.7056L47.6421 47.248L48.6398 47.316ZM49.2198 47.316V48.316H50.2198V47.316H49.2198ZM49.2198 46.748H50.2198V45.748H49.2198V46.748ZM48.6398 46.748L47.6421 46.816L47.7056 47.748H48.6398V46.748ZM48.6158 46.396V45.396H47.5453L47.6181 46.464L48.6158 46.396ZM49.2198 46.396V47.396H50.2198V46.396H49.2198ZM49.2198 46V45H48.2198V46H49.2198ZM49.6118 46H50.6118V45H49.6118V46ZM49.6118 48.54V49.54H50.6118V48.54H49.6118ZM49.2198 48.54H48.2198V49.54H49.2198V48.54ZM49.2198 47.668H50.2198V46.668H49.2198V47.668ZM48.6158 47.668L47.6181 47.6L47.5453 48.668H48.6158V47.668ZM47.1438 49.016H46.1438V50.016H47.1438V49.016ZM49.6838 49.016H50.6838V48.016H49.6838V49.016ZM49.6838 49.372V50.372H50.6838V49.372H49.6838ZM46.7438 49.372H45.7438V50.372H46.7438V49.372ZM46.7438 48.256V47.256H45.7438V48.256H46.7438ZM47.1438 48.256H48.1438V47.256H47.1438V48.256ZM48.6398 47.316V48.316H49.2198V47.316V46.316H48.6398V47.316ZM49.2198 47.316H50.2198V46.748H49.2198H48.2198V47.316H49.2198ZM49.2198 46.748V45.748H48.6398V46.748V47.748H49.2198V46.748ZM48.6398 46.748L49.6375 46.68L49.6135 46.328L48.6158 46.396L47.6181 46.464L47.6421 46.816L48.6398 46.748ZM48.6158 46.396V47.396H49.2198V46.396V45.396H48.6158V46.396ZM49.2198 46.396H50.2198V46H49.2198H48.2198V46.396H49.2198ZM49.2198 46V47H49.6118V46V45H49.2198V46ZM49.6118 46H48.6118V48.54H49.6118H50.6118V46H49.6118ZM49.6118 48.54V47.54H49.2198V48.54V49.54H49.6118V48.54ZM49.2198 48.54H50.2198V47.668H49.2198H48.2198V48.54H49.2198ZM49.2198 47.668V46.668H48.6158V47.668V48.668H49.2198V47.668ZM48.6158 47.668L49.6135 47.736L49.6375 47.384L48.6398 47.316L47.6421 47.248L47.6181 47.6L48.6158 47.668ZM48.5318 47.028H47.5318C47.5318 47.0541 47.5274 47.0609 47.5301 47.0541C47.5332 47.0464 47.5407 47.0331 47.5536 47.0206C47.5665 47.0081 47.5747 47.006 47.5686 47.0083C47.5615 47.0109 47.533 47.02 47.4758 47.02V48.02V49.02C48.0211 49.02 48.5489 48.8414 48.946 48.4564C49.3436 48.0708 49.5318 47.5532 49.5318 47.028H48.5318ZM47.4758 48.02V47.02C47.4168 47.02 47.3872 47.0107 47.3793 47.0078C47.3725 47.0053 47.3805 47.0071 47.3935 47.0197C47.4065 47.0322 47.4142 47.0457 47.4174 47.0537C47.4202 47.0608 47.4158 47.0541 47.4158 47.028H46.4158H45.4158C45.4158 47.5533 45.6041 48.0715 46.0031 48.4573C46.4013 48.8424 46.93 49.02 47.4758 49.02V48.02ZM46.4158 47.028H47.4158C47.4158 47.0019 47.4202 46.9952 47.4174 47.0023C47.4142 47.0103 47.4065 47.0238 47.3935 47.0363C47.3805 47.0489 47.3725 47.0507 47.3793 47.0482C47.3872 47.0453 47.4168 47.036 47.4758 47.036V46.036V45.036C46.93 45.036 46.4013 45.2136 46.0031 45.5987C45.6041 45.9845 45.4158 46.5027 45.4158 47.028H46.4158ZM47.4758 46.036V47.036C47.533 47.036 47.5615 47.0451 47.5686 47.0477C47.5747 47.05 47.5665 47.0479 47.5536 47.0354C47.5407 47.0229 47.5332 47.0096 47.5301 47.0019C47.5274 46.9951 47.5318 47.0019 47.5318 47.028H48.5318H49.5318C49.5318 46.5028 49.3436 45.9852 48.946 45.5996C48.5489 45.2146 48.0211 45.036 47.4758 45.036V46.036ZM46.8118 47.028H45.8118C45.8118 47.4493 45.9522 47.8875 46.2914 48.2208C46.6284 48.5519 47.0642 48.684 47.4758 48.684V47.684V46.684C47.4833 46.684 47.5872 46.6901 47.6932 46.7942C47.8013 46.9005 47.8118 47.0107 47.8118 47.028H46.8118ZM47.4758 47.684V48.684C47.8879 48.684 48.3228 48.5503 48.6582 48.2192C48.9954 47.8864 49.1358 47.4492 49.1358 47.028H48.1358H47.1358C47.1358 47.0108 47.1461 46.9016 47.2533 46.7958C47.3588 46.6917 47.4637 46.684 47.4758 46.684V47.684ZM48.1358 47.028H49.1358C49.1358 46.6073 48.9959 46.1709 48.6613 45.8379C48.3275 45.5055 47.8923 45.368 47.4758 45.368V46.368V47.368C47.4592 47.368 47.3541 47.3585 47.2502 47.2551C47.1457 47.1511 47.1358 47.0447 47.1358 47.028H48.1358ZM47.4758 46.368V45.368C47.0598 45.368 46.6236 45.5038 46.2883 45.8363C45.9518 46.1699 45.8118 46.6072 45.8118 47.028H46.8118H47.8118C47.8118 47.0448 47.8017 47.1521 47.6963 47.2567C47.5919 47.3602 47.4877 47.368 47.4758 47.368V46.368ZM47.1438 49.016V50.016H49.6838V49.016V48.016H47.1438V49.016ZM49.6838 49.016H48.6838V49.372H49.6838H50.6838V49.016H49.6838ZM49.6838 49.372V48.372H46.7438V49.372V50.372H49.6838V49.372ZM46.7438 49.372H47.7438V48.256H46.7438H45.7438V49.372H46.7438ZM46.7438 48.256V49.256H47.1438V48.256V47.256H46.7438V48.256ZM47.1438 48.256H46.1438V49.016H47.1438H48.1438V48.256H47.1438Z" fill="white" mask="url(#path-18-outside-2_11_598)"/>
<path d="M29.8902 42L27.9146 33.6667M29.8902 42L21 40.3333V31.3333L22.6463 29.3333M29.8902 42H37.7927M27.9146 33.6667L31.2073 32.6667L36.1463 27.6667M27.9146 33.6667L22.6463 29.3333M27.9146 33.6667L37.7927 34.6667L38.4512 36.6667M36.1463 27.6667L30.2195 23M36.1463 27.6667L39.439 31.6667V35.6667L38.4512 36.6667M36.1463 27.6667L38.7805 24.6667M30.2195 23H26.9268L25.2805 27L22.6463 29.3333M30.2195 23H33.5122L38.7805 24.6667M37.7927 42L38.4512 36.6667M37.7927 42H42.7317M38.4512 36.6667L42.7317 42M42.7317 42L46.0244 38.6667L48 36L45.6951 29.3333L42.7317 27.3333L38.7805 24.6667" stroke="#8A817C" stroke-width="0.5"/>
</g>
<defs>
<filter id="filter0_d_11_598" x="0" y="0" width="68" height="68" filterUnits="userSpaceOnUse" color-interpolation-filters="sRGB">
<feFlood flood-opacity="0" result="BackgroundImageFix"/>
<feColorMatrix in="SourceAlpha" type="matrix" values="0 0 0 0 0 0 0 0 0 0 0 0 0 0 0 0 0 0 127 0" result="hardAlpha"/>
<feOffset/>
<feGaussianBlur stdDeviation="2"/>
<feComposite in2="hardAlpha" operator="out"/>
<feColorMatrix type="matrix" values="0 0 0 0 0.229671 0 0 0 0 0.229671 0 0 0 0 0.229671 0 0 0 0.2 0"/>
<feBlend mode="normal" in2="BackgroundImageFix" result="effect1_dropShadow_11_598"/>
<feBlend mode="normal" in="SourceGraphic" in2="effect1_dropShadow_11_598" result="shape"/>
</filter>
</defs>
</svg>
