<svg width="68" height="68" viewBox="0 0 68 68" fill="none" xmlns="http://www.w3.org/2000/svg">
<g filter="url(#filter0_d_11_629)">
<rect x="4" y="4" width="60" height="60" rx="30" fill="white" shape-rendering="crispEdges"/>
<rect x="7.5" y="7.5" width="53" height="53" rx="26.5" fill="white"/>
<rect x="7.5" y="7.5" width="53" height="53" rx="26.5" stroke="#5DAE8B" stroke-width="2"/>
<g clip-path="url(#clip0_11_629)">
<rect x="9" y="9" width="50" height="50" rx="25" fill="white"/>
<path d="M11.8 35.2638V34.6818H16V35.2638H11.8ZM13.54 33.7938C13.54 33.9338 13.564 34.0598 13.612 34.1718C13.66 34.2798 13.728 34.3718 13.816 34.4478C13.904 34.5238 14.008 34.5818 14.128 34.6218C14.248 34.6618 14.378 34.6818 14.518 34.6818H16V35.2638H14.53C14.302 35.2638 14.092 35.2298 13.9 35.1618C13.704 35.0938 13.536 34.9978 13.396 34.8738C13.252 34.7458 13.14 34.5918 13.06 34.4118C12.98 34.2278 12.94 34.0218 12.94 33.7938C12.94 33.5658 12.98 33.3678 13.06 33.1998C13.14 33.0278 13.252 32.8818 13.396 32.7618C13.536 32.6418 13.704 32.5458 13.9 32.4738C14.092 32.4018 14.302 32.3518 14.53 32.3238L16 32.1438V32.7318L14.518 32.9178C14.378 32.9338 14.248 32.9638 14.128 33.0078C14.008 33.0478 13.906 33.1038 13.822 33.1758C13.734 33.2438 13.666 33.3298 13.618 33.4338C13.566 33.5338 13.54 33.6538 13.54 33.7938Z" fill="#5DAE8B"/>
<path d="M13.4745 29.0343L13.6137 28.4692L16.5266 29.1872L16.3873 29.7523L13.4745 29.0343ZM12.5557 28.8758C12.4508 28.85 12.375 28.7983 12.3282 28.7209C12.2784 28.6386 12.2664 28.545 12.2923 28.4401C12.3172 28.3392 12.3703 28.2657 12.4516 28.2199C12.5301 28.1692 12.6217 28.1567 12.7266 28.1826C12.8314 28.2084 12.9087 28.2625 12.9585 28.3448C13.0053 28.4222 13.0163 28.5115 12.9914 28.6124C12.9655 28.7173 12.9134 28.7951 12.835 28.8458C12.7536 28.8917 12.6605 28.9017 12.5557 28.8758Z" fill="#5DAE8B"/>
<path d="M16.3038 24.5709C16.4283 24.3336 16.4841 24.137 16.471 23.9811C16.4599 23.8216 16.359 23.6738 16.1684 23.5377L15.6653 23.1923L15.9358 22.6769L16.4283 23.0167C16.6507 23.1696 16.8052 23.3185 16.8918 23.4633C16.9768 23.6028 17.0051 23.7554 16.9768 23.9212C17.088 23.8125 17.2341 23.7536 17.415 23.7447C17.5959 23.7357 17.8018 23.7738 18.0327 23.8588L18.5921 24.0711L18.3217 24.5864L17.7516 24.3686C17.5296 24.2837 17.3499 24.2819 17.2123 24.3633C17.0747 24.4447 16.9436 24.6041 16.8191 24.8414L16.5291 25.3939L17.6023 25.9571L17.3318 26.4725L13.6129 24.5206L13.8834 24.0053L16.0138 25.1234L16.3038 24.5709Z" fill="#5DAE8B"/>
<path d="M19.3553 19.5543C19.2217 19.5482 19.0916 19.5745 18.9648 19.6332C18.8376 19.6862 18.7237 19.7696 18.6229 19.8834C18.4584 20.069 18.3742 20.2697 18.3703 20.4852C18.3663 20.7008 18.4351 20.9007 18.5765 21.0848L19.3553 19.5543ZM18.3493 21.6851C18.1787 21.5339 18.0453 21.3677 17.9494 21.1865C17.8531 20.9997 17.7963 20.8104 17.779 20.6188C17.7614 20.4215 17.785 20.2259 17.8498 20.0322C17.9146 19.8384 18.0226 19.6562 18.1738 19.4855C18.3011 19.3418 18.4416 19.2285 18.5952 19.1455C18.7459 19.0599 18.9026 19.0037 19.0653 18.9768C19.2251 18.9473 19.3867 18.9489 19.5502 18.9815C19.7163 19.0111 19.877 19.068 20.0323 19.1521L20.1625 19.2675L19.0355 21.4353C19.2127 21.5068 19.3906 21.5201 19.5692 21.4753C19.7505 21.4275 19.9141 21.3213 20.06 21.1566C20.1979 21.0009 20.2784 20.8317 20.3013 20.649C20.3243 20.4662 20.2939 20.2924 20.2103 20.1274L20.6161 19.6693C20.7183 19.8133 20.7942 19.966 20.8436 20.1274C20.8957 20.2857 20.9182 20.4473 20.9112 20.6121C20.9011 20.7742 20.8642 20.9365 20.8004 21.0991C20.7335 21.259 20.6364 21.4108 20.5091 21.5545C20.3579 21.7251 20.1916 21.8556 20.01 21.946C19.8285 22.0363 19.6432 22.0886 19.4542 22.1028C19.2649 22.1115 19.0746 22.0819 18.8835 22.0141C18.6951 21.9433 18.517 21.8337 18.3493 21.6851Z" fill="#5DAE8B"/>
<path d="M22.9292 16.0883C22.6757 16.2633 22.5227 16.4782 22.4702 16.7331C22.4188 16.9825 22.4771 17.229 22.6453 17.4726L23.4871 18.6923L23.0082 19.0229L22.1731 17.8131C22.0436 17.6255 21.9539 17.4322 21.9041 17.2333C21.8553 17.0288 21.8455 16.8314 21.8746 16.6412C21.9047 16.4455 21.9744 16.2613 22.0837 16.0886C22.193 15.916 22.3414 15.7649 22.5291 15.6354C22.6706 15.5377 22.8159 15.4666 22.965 15.422L23.299 15.9059C23.235 15.9258 23.1711 15.9529 23.1073 15.9872C23.0445 16.016 22.9851 16.0497 22.9292 16.0883Z" fill="#5DAE8B"/>
<path d="M25.8362 13.0207C25.7908 12.901 25.789 12.7947 25.8308 12.7019C25.8749 12.6039 25.9531 12.5336 26.0653 12.491C26.1812 12.4471 26.2863 12.4479 26.3806 12.4934C26.4772 12.5338 26.5482 12.6138 26.5935 12.7335C26.6432 12.8644 26.6526 13.002 26.6218 13.1463L26.5432 13.5483L26.1561 13.6951L26.2382 13.2853C26.1568 13.3077 26.079 13.2944 26.0049 13.2455C25.9293 13.1929 25.8731 13.1179 25.8362 13.0207Z" fill="#5DAE8B"/>
<path d="M31.9179 15.3078C31.4414 15.3657 31.0561 15.3118 30.762 15.146C30.4714 14.9758 30.2895 14.7057 30.2164 14.3359L30.8239 14.2621C30.8674 14.4543 30.9724 14.5886 31.1388 14.6651C31.3087 14.7371 31.5585 14.7531 31.888 14.7131C32.1422 14.6823 32.3354 14.6306 32.4676 14.5581C32.5993 14.4817 32.6582 14.3859 32.6442 14.2707C32.6168 14.0444 32.293 13.9669 31.6731 14.0381C31.1763 14.0944 30.7988 14.0717 30.5407 13.9701C30.2825 13.8685 30.1363 13.6767 30.1021 13.3948C30.0838 13.2439 30.1009 13.1028 30.1535 12.9715C30.21 12.8397 30.2945 12.7227 30.407 12.6204C30.5235 12.5176 30.6684 12.4335 30.8418 12.3681C31.0147 12.2988 31.2103 12.2509 31.4287 12.2243C31.8933 12.1679 32.2689 12.2251 32.5556 12.3958C32.8462 12.566 33.0298 12.8338 33.1064 13.1992L32.493 13.2737C32.45 13.0855 32.3455 12.9552 32.1795 12.8826C32.0171 12.8057 31.7849 12.7855 31.4832 12.8221C31.2171 12.8544 31.013 12.9155 30.8708 13.0053C30.7281 13.0911 30.6644 13.1976 30.6799 13.3246C30.6934 13.4358 30.7705 13.507 30.9113 13.5383C31.0516 13.5656 31.2831 13.5637 31.6057 13.5325C32.1467 13.4749 32.542 13.4954 32.7917 13.594C33.0449 13.6882 33.1884 13.8743 33.2222 14.1522C33.2603 14.4659 33.1626 14.7236 32.9292 14.9252C32.6958 15.1268 32.3587 15.2543 31.9179 15.3078Z" fill="#5DAE8B"/>
<path d="M40.7734 16.2274C40.5602 16.1465 40.3785 16.0391 40.2282 15.9051C40.0794 15.7674 39.9648 15.6127 39.8844 15.4411C39.8093 15.2671 39.7695 15.0787 39.7651 14.876C39.7644 14.6747 39.8045 14.4674 39.8854 14.2543C39.9662 14.0411 40.0743 13.8575 40.2097 13.7035C40.3503 13.5472 40.5071 13.427 40.6802 13.3429C40.8584 13.2565 41.0496 13.2092 41.2537 13.2011C41.4579 13.1929 41.6666 13.2293 41.8798 13.3101C42.0929 13.391 42.2732 13.5021 42.4206 13.6436C42.5681 13.7851 42.6779 13.9465 42.7503 14.128C42.8278 14.3071 42.8655 14.5011 42.8633 14.7099C42.8663 14.9163 42.8274 15.1262 42.7465 15.3394C42.6657 15.5525 42.5564 15.7335 42.4186 15.8824C42.2847 16.0326 42.13 16.1472 41.9546 16.2262C41.7843 16.3028 41.5979 16.3433 41.3951 16.3477C41.1938 16.3483 40.9866 16.3082 40.7734 16.2274ZM40.9861 15.6664C41.2517 15.7671 41.4954 15.7675 41.7172 15.6677C41.939 15.5679 42.1003 15.3852 42.201 15.1196C42.2506 14.9887 42.2743 14.8587 42.2719 14.7294C42.2734 14.6016 42.2504 14.4817 42.2031 14.3696C42.1595 14.259 42.0919 14.1606 42.0005 14.0746C41.9091 13.9886 41.7979 13.9208 41.667 13.8711C41.5361 13.8215 41.4079 13.7985 41.2824 13.8023C41.1569 13.806 41.0393 13.8342 40.9296 13.8867C40.8198 13.9391 40.7212 14.013 40.6338 14.1082C40.5501 14.2048 40.4834 14.3185 40.4338 14.4494C40.3331 14.715 40.3326 14.9586 40.4325 15.1805C40.536 15.4037 40.7206 15.5657 40.9861 15.6664Z" fill="#5DAE8B"/>
<path d="M46.1729 16.1588C46.0577 16.0793 45.9404 16.0275 45.8209 16.0033C45.7048 15.9815 45.5904 15.9852 45.4779 16.0144C45.3654 16.0437 45.2585 16.0963 45.1575 16.1724C45.0564 16.2484 44.9661 16.344 44.8865 16.4592L44.0447 17.6789L43.5657 17.3483L44.4007 16.1385C44.5303 15.9509 44.6775 15.7974 44.8426 15.678C45.0099 15.5553 45.1843 15.4716 45.3659 15.4268C45.553 15.381 45.7434 15.3763 45.937 15.4127C46.1338 15.4514 46.3261 15.5355 46.5137 15.665C46.7014 15.7945 46.8416 15.9399 46.9344 16.1012C47.0305 16.2648 47.0871 16.4399 47.104 16.6265C47.1233 16.8099 47.1068 17.0027 47.0547 17.2049C47.0049 17.4038 46.9268 17.6051 46.8203 17.8086L46.1334 19.1207L45.6495 18.7866L46.3383 17.4613C46.4046 17.337 46.4538 17.213 46.4858 17.0892C46.521 16.9677 46.5329 16.852 46.5213 16.742C46.5153 16.6309 46.4832 16.5261 46.4249 16.4275C46.3721 16.3279 46.2881 16.2383 46.1729 16.1588Z" fill="#5DAE8B"/>
<path d="M51.5798 25.0258L51.0538 25.3019C50.7337 24.8555 50.6001 24.4761 50.653 24.1638C50.7078 23.855 50.9512 23.5871 51.3833 23.3604L54.045 21.9634L54.3155 22.4787L51.6431 23.8813C51.5227 23.9445 51.4355 24.0151 51.3816 24.0931C51.3277 24.1711 51.3008 24.2575 51.3008 24.3523C51.3009 24.4471 51.3253 24.5495 51.374 24.6595C51.4245 24.773 51.4931 24.8951 51.5798 25.0258ZM53.6368 23.5871L53.0959 22.5564L53.5775 22.2088L54.1574 23.3138L53.6368 23.5871Z" fill="#5DAE8B"/>
<path d="M52.3362 28.8811C52.2816 28.6597 52.2668 28.4492 52.2917 28.2494C52.3205 28.0487 52.3827 27.8665 52.4784 27.7028C52.5788 27.5421 52.7112 27.4024 52.8756 27.2836C53.0409 27.1687 53.2342 27.084 53.4556 27.0294C53.677 26.9748 53.8895 26.9595 54.0931 26.9835C54.3016 27.0104 54.4896 27.0712 54.6571 27.1658C54.8295 27.2634 54.977 27.3939 55.0997 27.5573C55.2224 27.7207 55.311 27.9131 55.3655 28.1344C55.4201 28.3558 55.431 28.5673 55.3984 28.769C55.3657 28.9707 55.2952 29.1529 55.187 29.3155C55.0836 29.481 54.9454 29.6222 54.7723 29.739C54.6041 29.8588 54.4093 29.9459 54.1879 30.0005C53.9665 30.0551 53.7555 30.0679 53.5547 30.0391C53.355 30.0142 53.1728 29.952 53.0082 29.8525C52.8484 29.7559 52.7092 29.6255 52.5904 29.4611C52.4755 29.2958 52.3908 29.1025 52.3362 28.8811ZM52.9188 28.7375C52.9867 29.0133 53.1248 29.2141 53.333 29.3399C53.5411 29.4657 53.7831 29.4947 54.0588 29.4267C54.1948 29.3932 54.3152 29.3388 54.4203 29.2635C54.5262 29.192 54.6119 29.105 54.6773 29.0024C54.7435 28.9036 54.7861 28.7922 54.805 28.6681C54.8238 28.544 54.8165 28.414 54.783 28.278C54.7495 28.1421 54.6955 28.0236 54.6212 27.9224C54.5468 27.8213 54.4568 27.7405 54.3513 27.68C54.2458 27.6195 54.129 27.5803 54.001 27.5624C53.8739 27.5484 53.7425 27.5581 53.6065 27.5916C53.3308 27.6596 53.13 27.7977 53.0041 28.0058C52.8793 28.2179 52.8508 28.4618 52.9188 28.7375Z" fill="#5DAE8B"/>
<path d="M56.06 33.3998C56.06 33.6278 56.022 33.8358 55.946 34.0238C55.874 34.2118 55.77 34.3718 55.634 34.5038C55.502 34.6398 55.342 34.7438 55.154 34.8158C54.966 34.8918 54.758 34.9298 54.53 34.9298C54.302 34.9298 54.09 34.8918 53.894 34.8158C53.702 34.7438 53.534 34.6398 53.39 34.5038C53.25 34.3718 53.14 34.2118 53.06 34.0238C52.98 33.8358 52.94 33.6278 52.94 33.3998C52.94 33.1718 52.98 32.9638 53.06 32.7758C53.14 32.5878 53.25 32.4258 53.39 32.2898C53.534 32.1578 53.702 32.0538 53.894 31.9778C54.09 31.9058 54.302 31.8698 54.53 31.8698C54.758 31.8698 54.966 31.9058 55.154 31.9778C55.342 32.0538 55.502 32.1578 55.634 32.2898C55.77 32.4258 55.874 32.5878 55.946 32.7758C56.022 32.9638 56.06 33.1718 56.06 33.3998ZM51.8 32.4578V31.8698H56V32.4578H51.8ZM55.46 33.3998C55.46 33.1158 55.374 32.8878 55.202 32.7158C55.03 32.5438 54.802 32.4578 54.518 32.4578C54.378 32.4578 54.248 32.4798 54.128 32.5238C54.008 32.5718 53.904 32.6358 53.816 32.7158C53.732 32.7998 53.664 32.8998 53.612 33.0158C53.564 33.1318 53.54 33.2598 53.54 33.3998C53.54 33.5398 53.564 33.6678 53.612 33.7838C53.664 33.8998 53.732 33.9978 53.816 34.0778C53.904 34.1618 54.008 34.2258 54.128 34.2698C54.248 34.3178 54.378 34.3418 54.518 34.3418C54.802 34.3418 55.03 34.2558 55.202 34.0838C55.374 33.9118 55.46 33.6838 55.46 33.3998Z" fill="#5DAE8B"/>
<mask id="path-17-outside-1_11_629" maskUnits="userSpaceOnUse" x="24" y="49" width="20" height="8" fill="black">
<rect fill="white" x="24" y="49" width="20" height="8"/>
<path d="M28.75 50.848V51.64H25.246V50.848H26.482V50.41H27.514V50.848H28.75ZM30.106 51.688H30.706V52.672H30.106V54.322H29.092V50.5H30.106V51.688ZM26.998 53.896C26.146 53.896 25.426 53.536 25.426 52.84C25.426 52.144 26.146 51.784 26.998 51.784C27.85 51.784 28.57 52.144 28.57 52.84C28.57 53.536 27.85 53.896 26.998 53.896ZM26.998 52.516C26.632 52.516 26.392 52.66 26.392 52.84C26.392 53.02 26.632 53.164 26.998 53.164C27.364 53.164 27.604 53.02 27.604 52.84C27.604 52.66 27.364 52.516 26.998 52.516ZM26.614 54.046V54.742H30.178V55.624H25.582V54.046H26.614ZM36.4775 52.372V53.356H35.8775V55.624H34.8635V50.5H35.8775V52.372H36.4775ZM32.2475 54.472H33.2975C33.7835 54.472 34.3115 54.382 34.6235 54.238V55.138C34.3115 55.294 33.7595 55.384 33.2675 55.384H31.2395V52.54H33.1475V51.532H31.2275V50.62H34.1555V53.44H32.2475V54.472ZM41.649 51.466H42.249V52.45H41.649V54.292H40.635V50.5H41.649V51.466ZM38.625 52.534C38.199 53.146 37.575 53.56 36.837 53.596V52.654C37.647 52.558 38.181 51.652 38.199 50.524L39.219 50.584C39.219 50.98 39.153 51.37 39.027 51.73L40.485 52.816L39.879 53.524L38.625 52.534ZM38.157 53.83V54.712H41.721V55.624H37.125V53.83H38.157Z"/>
</mask>
<path d="M28.75 50.848V51.64H25.246V50.848H26.482V50.41H27.514V50.848H28.75ZM30.106 51.688H30.706V52.672H30.106V54.322H29.092V50.5H30.106V51.688ZM26.998 53.896C26.146 53.896 25.426 53.536 25.426 52.84C25.426 52.144 26.146 51.784 26.998 51.784C27.85 51.784 28.57 52.144 28.57 52.84C28.57 53.536 27.85 53.896 26.998 53.896ZM26.998 52.516C26.632 52.516 26.392 52.66 26.392 52.84C26.392 53.02 26.632 53.164 26.998 53.164C27.364 53.164 27.604 53.02 27.604 52.84C27.604 52.66 27.364 52.516 26.998 52.516ZM26.614 54.046V54.742H30.178V55.624H25.582V54.046H26.614ZM36.4775 52.372V53.356H35.8775V55.624H34.8635V50.5H35.8775V52.372H36.4775ZM32.2475 54.472H33.2975C33.7835 54.472 34.3115 54.382 34.6235 54.238V55.138C34.3115 55.294 33.7595 55.384 33.2675 55.384H31.2395V52.54H33.1475V51.532H31.2275V50.62H34.1555V53.44H32.2475V54.472ZM41.649 51.466H42.249V52.45H41.649V54.292H40.635V50.5H41.649V51.466ZM38.625 52.534C38.199 53.146 37.575 53.56 36.837 53.596V52.654C37.647 52.558 38.181 51.652 38.199 50.524L39.219 50.584C39.219 50.98 39.153 51.37 39.027 51.73L40.485 52.816L39.879 53.524L38.625 52.534ZM38.157 53.83V54.712H41.721V55.624H37.125V53.83H38.157Z" fill="#5DAE8B"/>
<path d="M28.75 50.848H29.75V49.848H28.75V50.848ZM28.75 51.64V52.64H29.75V51.64H28.75ZM25.246 51.64H24.246V52.64H25.246V51.64ZM25.246 50.848V49.848H24.246V50.848H25.246ZM26.482 50.848V51.848H27.482V50.848H26.482ZM26.482 50.41V49.41H25.482V50.41H26.482ZM27.514 50.41H28.514V49.41H27.514V50.41ZM27.514 50.848H26.514V51.848H27.514V50.848ZM30.106 51.688H29.106V52.688H30.106V51.688ZM30.706 51.688H31.706V50.688H30.706V51.688ZM30.706 52.672V53.672H31.706V52.672H30.706ZM30.106 52.672V51.672H29.106V52.672H30.106ZM30.106 54.322V55.322H31.106V54.322H30.106ZM29.092 54.322H28.092V55.322H29.092V54.322ZM29.092 50.5V49.5H28.092V50.5H29.092ZM30.106 50.5H31.106V49.5H30.106V50.5ZM26.614 54.046H27.614V53.046H26.614V54.046ZM26.614 54.742H25.614V55.742H26.614V54.742ZM30.178 54.742H31.178V53.742H30.178V54.742ZM30.178 55.624V56.624H31.178V55.624H30.178ZM25.582 55.624H24.582V56.624H25.582V55.624ZM25.582 54.046V53.046H24.582V54.046H25.582ZM28.75 50.848H27.75V51.64H28.75H29.75V50.848H28.75ZM28.75 51.64V50.64H25.246V51.64V52.64H28.75V51.64ZM25.246 51.64H26.246V50.848H25.246H24.246V51.64H25.246ZM25.246 50.848V51.848H26.482V50.848V49.848H25.246V50.848ZM26.482 50.848H27.482V50.41H26.482H25.482V50.848H26.482ZM26.482 50.41V51.41H27.514V50.41V49.41H26.482V50.41ZM27.514 50.41H26.514V50.848H27.514H28.514V50.41H27.514ZM27.514 50.848V51.848H28.75V50.848V49.848H27.514V50.848ZM30.106 51.688V52.688H30.706V51.688V50.688H30.106V51.688ZM30.706 51.688H29.706V52.672H30.706H31.706V51.688H30.706ZM30.706 52.672V51.672H30.106V52.672V53.672H30.706V52.672ZM30.106 52.672H29.106V54.322H30.106H31.106V52.672H30.106ZM30.106 54.322V53.322H29.092V54.322V55.322H30.106V54.322ZM29.092 54.322H30.092V50.5H29.092H28.092V54.322H29.092ZM29.092 50.5V51.5H30.106V50.5V49.5H29.092V50.5ZM30.106 50.5H29.106V51.688H30.106H31.106V50.5H30.106ZM26.998 53.896V52.896C26.6938 52.896 26.5 52.8288 26.4181 52.7783C26.3835 52.7569 26.3893 52.7515 26.404 52.7754C26.4112 52.7872 26.4176 52.8014 26.4217 52.8162C26.4237 52.8232 26.4248 52.8292 26.4254 52.8336C26.426 52.8381 26.426 52.8403 26.426 52.84H25.426H24.426C24.426 53.5962 24.842 54.1554 25.3669 54.4797C25.858 54.7832 26.4502 54.896 26.998 54.896V53.896ZM25.426 52.84H26.426C26.426 52.8397 26.426 52.8419 26.4254 52.8464C26.4248 52.8508 26.4237 52.8568 26.4217 52.8638C26.4176 52.8786 26.4112 52.8928 26.404 52.9046C26.3893 52.9285 26.3835 52.9231 26.4181 52.9017C26.5 52.8512 26.6938 52.784 26.998 52.784V51.784V50.784C26.4502 50.784 25.858 50.8968 25.3669 51.2003C24.842 51.5246 24.426 52.0838 24.426 52.84H25.426ZM26.998 51.784V52.784C27.3022 52.784 27.496 52.8512 27.5779 52.9017C27.6125 52.9231 27.6067 52.9285 27.592 52.9046C27.5848 52.8928 27.5784 52.8786 27.5743 52.8638C27.5723 52.8568 27.5712 52.8508 27.5706 52.8464C27.57 52.8419 27.57 52.8397 27.57 52.84H28.57H29.57C29.57 52.0838 29.154 51.5246 28.6291 51.2003C28.138 50.8968 27.5458 50.784 26.998 50.784V51.784ZM28.57 52.84H27.57C27.57 52.8403 27.57 52.8381 27.5706 52.8336C27.5712 52.8292 27.5723 52.8232 27.5743 52.8162C27.5784 52.8014 27.5848 52.7872 27.592 52.7754C27.6067 52.7515 27.6125 52.7569 27.5779 52.7783C27.496 52.8288 27.3022 52.896 26.998 52.896V53.896V54.896C27.5458 54.896 28.138 54.7832 28.6291 54.4797C29.154 54.1554 29.57 53.5962 29.57 52.84H28.57ZM26.998 52.516V51.516C26.698 51.516 26.3675 51.5729 26.0737 51.7355C25.7898 51.8925 25.392 52.25 25.392 52.84H26.392H27.392C27.392 53.25 27.1142 53.4455 27.0418 53.4855C26.9595 53.5311 26.932 53.516 26.998 53.516V52.516ZM26.392 52.84H25.392C25.392 53.43 25.7898 53.7875 26.0737 53.9445C26.3675 54.1071 26.698 54.164 26.998 54.164V53.164V52.164C26.932 52.164 26.9595 52.1489 27.0418 52.1945C27.1142 52.2345 27.392 52.43 27.392 52.84H26.392ZM26.998 53.164V54.164C27.298 54.164 27.6285 54.1071 27.9223 53.9445C28.2062 53.7875 28.604 53.43 28.604 52.84H27.604H26.604C26.604 52.43 26.8818 52.2345 26.9542 52.1945C27.0365 52.1489 27.064 52.164 26.998 52.164V53.164ZM27.604 52.84H28.604C28.604 52.25 28.2062 51.8925 27.9223 51.7355C27.6285 51.5729 27.298 51.516 26.998 51.516V52.516V53.516C27.064 53.516 27.0365 53.5311 26.9542 53.4855C26.8818 53.4455 26.604 53.25 26.604 52.84H27.604ZM26.614 54.046H25.614V54.742H26.614H27.614V54.046H26.614ZM26.614 54.742V55.742H30.178V54.742V53.742H26.614V54.742ZM30.178 54.742H29.178V55.624H30.178H31.178V54.742H30.178ZM30.178 55.624V54.624H25.582V55.624V56.624H30.178V55.624ZM25.582 55.624H26.582V54.046H25.582H24.582V55.624H25.582ZM25.582 54.046V55.046H26.614V54.046V53.046H25.582V54.046ZM36.4775 52.372H37.4775V51.372H36.4775V52.372ZM36.4775 53.356V54.356H37.4775V53.356H36.4775ZM35.8775 53.356V52.356H34.8775V53.356H35.8775ZM35.8775 55.624V56.624H36.8775V55.624H35.8775ZM34.8635 55.624H33.8635V56.624H34.8635V55.624ZM34.8635 50.5V49.5H33.8635V50.5H34.8635ZM35.8775 50.5H36.8775V49.5H35.8775V50.5ZM35.8775 52.372H34.8775V53.372H35.8775V52.372ZM32.2475 54.472H31.2475V55.472H32.2475V54.472ZM34.6235 54.238H35.6235V52.6751L34.2044 53.33L34.6235 54.238ZM34.6235 55.138L35.0707 56.0324L35.6235 55.756V55.138H34.6235ZM31.2395 55.384H30.2395V56.384H31.2395V55.384ZM31.2395 52.54V51.54H30.2395V52.54H31.2395ZM33.1475 52.54V53.54H34.1475V52.54H33.1475ZM33.1475 51.532H34.1475V50.532H33.1475V51.532ZM31.2275 51.532H30.2275V52.532H31.2275V51.532ZM31.2275 50.62V49.62H30.2275V50.62H31.2275ZM34.1555 50.62H35.1555V49.62H34.1555V50.62ZM34.1555 53.44V54.44H35.1555V53.44H34.1555ZM32.2475 53.44V52.44H31.2475V53.44H32.2475ZM36.4775 52.372H35.4775V53.356H36.4775H37.4775V52.372H36.4775ZM36.4775 53.356V52.356H35.8775V53.356V54.356H36.4775V53.356ZM35.8775 53.356H34.8775V55.624H35.8775H36.8775V53.356H35.8775ZM35.8775 55.624V54.624H34.8635V55.624V56.624H35.8775V55.624ZM34.8635 55.624H35.8635V50.5H34.8635H33.8635V55.624H34.8635ZM34.8635 50.5V51.5H35.8775V50.5V49.5H34.8635V50.5ZM35.8775 50.5H34.8775V52.372H35.8775H36.8775V50.5H35.8775ZM35.8775 52.372V53.372H36.4775V52.372V51.372H35.8775V52.372ZM32.2475 54.472V55.472H33.2975V54.472V53.472H32.2475V54.472ZM33.2975 54.472V55.472C33.8634 55.472 34.5509 55.3729 35.0425 55.146L34.6235 54.238L34.2044 53.33C34.0721 53.3911 33.7035 53.472 33.2975 53.472V54.472ZM34.6235 54.238H33.6235V55.138H34.6235H35.6235V54.238H34.6235ZM34.6235 55.138L34.1763 54.2436C34.065 54.2992 33.6926 54.384 33.2675 54.384V55.384V56.384C33.8264 56.384 34.558 56.2888 35.0707 56.0324L34.6235 55.138ZM33.2675 55.384V54.384H31.2395V55.384V56.384H33.2675V55.384ZM31.2395 55.384H32.2395V52.54H31.2395H30.2395V55.384H31.2395ZM31.2395 52.54V53.54H33.1475V52.54V51.54H31.2395V52.54ZM33.1475 52.54H34.1475V51.532H33.1475H32.1475V52.54H33.1475ZM33.1475 51.532V50.532H31.2275V51.532V52.532H33.1475V51.532ZM31.2275 51.532H32.2275V50.62H31.2275H30.2275V51.532H31.2275ZM31.2275 50.62V51.62H34.1555V50.62V49.62H31.2275V50.62ZM34.1555 50.62H33.1555V53.44H34.1555H35.1555V50.62H34.1555ZM34.1555 53.44V52.44H32.2475V53.44V54.44H34.1555V53.44ZM32.2475 53.44H31.2475V54.472H32.2475H33.2475V53.44H32.2475ZM41.649 51.466H40.649V52.466H41.649V51.466ZM42.249 51.466H43.249V50.466H42.249V51.466ZM42.249 52.45V53.45H43.249V52.45H42.249ZM41.649 52.45V51.45H40.649V52.45H41.649ZM41.649 54.292V55.292H42.649V54.292H41.649ZM40.635 54.292H39.635V55.292H40.635V54.292ZM40.635 50.5V49.5H39.635V50.5H40.635ZM41.649 50.5H42.649V49.5H41.649V50.5ZM38.625 52.534L39.2446 51.7491L38.411 51.091L37.8042 51.9627L38.625 52.534ZM36.837 53.596H35.837V54.646L36.8857 54.5948L36.837 53.596ZM36.837 52.654L36.7193 51.6609L35.837 51.7655V52.654H36.837ZM38.199 50.524L38.2577 49.5257L37.2157 49.4644L37.1991 50.508L38.199 50.524ZM39.219 50.584H40.219V49.6411L39.2777 49.5857L39.219 50.584ZM39.027 51.73L38.0831 51.3996L37.8404 52.0931L38.4296 52.532L39.027 51.73ZM40.485 52.816L41.2447 53.4663L41.9405 52.6533L41.0823 52.014L40.485 52.816ZM39.879 53.524L39.2593 54.3089L40.0137 54.9044L40.6387 54.1743L39.879 53.524ZM38.157 53.83H39.157V52.83H38.157V53.83ZM38.157 54.712H37.157V55.712H38.157V54.712ZM41.721 54.712H42.721V53.712H41.721V54.712ZM41.721 55.624V56.624H42.721V55.624H41.721ZM37.125 55.624H36.125V56.624H37.125V55.624ZM37.125 53.83V52.83H36.125V53.83H37.125ZM41.649 51.466V52.466H42.249V51.466V50.466H41.649V51.466ZM42.249 51.466H41.249V52.45H42.249H43.249V51.466H42.249ZM42.249 52.45V51.45H41.649V52.45V53.45H42.249V52.45ZM41.649 52.45H40.649V54.292H41.649H42.649V52.45H41.649ZM41.649 54.292V53.292H40.635V54.292V55.292H41.649V54.292ZM40.635 54.292H41.635V50.5H40.635H39.635V54.292H40.635ZM40.635 50.5V51.5H41.649V50.5V49.5H40.635V50.5ZM41.649 50.5H40.649V51.466H41.649H42.649V50.5H41.649ZM38.625 52.534L37.8042 51.9627C37.5169 52.3755 37.155 52.5793 36.7882 52.5972L36.837 53.596L36.8857 54.5948C37.995 54.5407 38.881 53.9165 39.4457 53.1053L38.625 52.534ZM36.837 53.596H37.837V52.654H36.837H35.837V53.596H36.837ZM36.837 52.654L36.9547 53.647C37.7303 53.5551 38.3066 53.0766 38.6632 52.5057C39.0152 51.9419 39.1876 51.2468 39.1988 50.54L38.199 50.524L37.1991 50.508C37.1924 50.9292 37.0887 51.2511 36.9668 51.4463C36.8493 51.6344 36.7537 51.6569 36.7193 51.6609L36.837 52.654ZM38.199 50.524L38.1402 51.5223L39.1602 51.5823L39.219 50.584L39.2777 49.5857L38.2577 49.5257L38.199 50.524ZM39.219 50.584H38.219C38.219 50.8701 38.1711 51.1483 38.0831 51.3996L39.027 51.73L39.9708 52.0604C40.1348 51.5917 40.219 51.0899 40.219 50.584H39.219ZM39.027 51.73L38.4296 52.532L39.8876 53.618L40.485 52.816L41.0823 52.014L39.6243 50.928L39.027 51.73ZM40.485 52.816L39.7253 52.1657L39.1193 52.8737L39.879 53.524L40.6387 54.1743L41.2447 53.4663L40.485 52.816ZM39.879 53.524L40.4986 52.7391L39.2446 51.7491L38.625 52.534L38.0053 53.3189L39.2593 54.3089L39.879 53.524ZM38.157 53.83H37.157V54.712H38.157H39.157V53.83H38.157ZM38.157 54.712V55.712H41.721V54.712V53.712H38.157V54.712ZM41.721 54.712H40.721V55.624H41.721H42.721V54.712H41.721ZM41.721 55.624V54.624H37.125V55.624V56.624H41.721V55.624ZM37.125 55.624H38.125V53.83H37.125H36.125V55.624H37.125ZM37.125 53.83V54.83H38.157V53.83V52.83H37.125V53.83Z" fill="white" mask="url(#path-17-outside-1_11_629)"/>
<mask id="path-19-outside-2_11_629" maskUnits="userSpaceOnUse" x="16" y="44" width="35" height="7" fill="black">
<rect fill="white" x="16" y="44" width="35" height="7"/>
<path d="M20.128 46H20.504V48.144H20.128V47.168H19.572V48.108H19.196V46.02H19.572V46.8H20.128V46ZM18.804 46.06V47.956H17.324V46.06H17.692V46.656H18.44V46.06H18.804ZM17.692 47.632H18.44V46.976H17.692V47.632ZM17.488 48.672V48.332H20.504V49.416H20.112V48.672H17.488ZM22.9677 47.884H24.4797V48.2H21.0677V47.884H22.5757V47.548H21.3157V46.64H23.8477V46.348H21.3157V46.04H24.2357V46.932H21.7037V47.24H24.2837V47.548H22.9677V47.884ZM21.2757 48.816V48.496H24.2397V49.42H23.8397V48.816H21.2757ZM28.4873 46.7V47.08H28.0073V47.856H27.6113V46H28.0073V46.7H28.4873ZM27.3633 47.54C27.1553 47.632 26.7473 47.692 26.2633 47.692H25.0353V46.084H27.1193V46.42H25.4313V47.356H26.2873C26.7513 47.356 27.1433 47.3 27.3633 47.204V47.54ZM25.1513 49.372V48.044H28.0073V49.372H25.1513ZM25.5473 48.38V49.036H27.6113V48.38H25.5473ZM30.467 47.232C29.643 47.232 28.967 47.064 28.967 46.608C28.967 46.156 29.643 45.988 30.467 45.988C31.291 45.988 31.967 46.156 31.967 46.608C31.967 47.064 31.291 47.232 30.467 47.232ZM30.467 46.928C31.063 46.928 31.559 46.836 31.559 46.608C31.559 46.384 31.063 46.288 30.467 46.288C29.871 46.288 29.375 46.384 29.375 46.608C29.375 46.836 29.871 46.928 30.467 46.928ZM28.763 47.752V47.444H32.175V47.752H28.763ZM28.999 49.376V48.56H31.551V48.32H28.991V48.024H31.939V48.84H29.387V49.08H31.999V49.376H28.999ZM36.0397 46.288V46.596H33.7197V46.288H34.6797V45.94H35.0797V46.288H36.0397ZM37.3037 46.76H36.8237V47.184H37.3037V47.52H36.8237V48.076H36.4277V46H36.8237V46.42H37.3037V46.76ZM34.8797 48.008C34.3117 48.008 33.8757 47.792 33.8757 47.4C33.8757 46.996 34.3117 46.776 34.8797 46.776C35.4437 46.776 35.8797 46.996 35.8797 47.4C35.8797 47.792 35.4437 48.008 34.8797 48.008ZM34.8797 47.072C34.4957 47.072 34.2557 47.208 34.2557 47.4C34.2557 47.584 34.4957 47.712 34.8797 47.712C35.2597 47.712 35.5037 47.584 35.5037 47.4C35.5037 47.208 35.2597 47.072 34.8797 47.072ZM35.4157 48.176C36.2357 48.176 36.8717 48.336 36.8717 48.796C36.8717 49.252 36.2357 49.416 35.4157 49.416C34.5957 49.416 33.9597 49.252 33.9597 48.796C33.9597 48.336 34.5957 48.176 35.4157 48.176ZM35.4157 49.108C36.0037 49.108 36.4557 49.016 36.4557 48.796C36.4557 48.576 36.0037 48.484 35.4157 48.484C34.8317 48.484 34.3797 48.576 34.3797 48.796C34.3797 49.016 34.8317 49.108 35.4157 49.108ZM39.8874 46.324V46.648H37.5674V46.324H38.5274V45.94H38.9274V46.324H39.8874ZM40.6714 46.936H41.1514V47.316H40.6714V48.56H40.2754V46H40.6714V46.936ZM38.7274 48.24C38.1594 48.24 37.7154 47.988 37.7154 47.54C37.7154 47.092 38.1594 46.84 38.7274 46.84C39.2954 46.84 39.7354 47.092 39.7354 47.54C39.7354 47.988 39.2954 48.24 38.7274 48.24ZM38.7274 47.144C38.3434 47.144 38.0994 47.312 38.0994 47.54C38.0994 47.772 38.3434 47.936 38.7274 47.936C39.1114 47.936 39.3554 47.772 39.3554 47.54C39.3554 47.312 39.1114 47.144 38.7274 47.144ZM38.2154 48.436V49.02H40.7634V49.372H37.8154V48.436H38.2154ZM45.3721 46H45.7641V49.416H45.3721V48.464H44.7961L44.8241 48.092H45.3721V47.228H44.8241L44.7961 46.856H45.3721V46ZM43.6881 46.08C44.2841 46.08 44.6961 46.584 44.6961 47.668C44.6961 48.752 44.2841 49.256 43.6881 49.256C43.0881 49.256 42.6761 48.752 42.6761 47.668C42.6761 46.584 43.0881 46.08 43.6881 46.08ZM43.6881 48.892C44.0401 48.892 44.3001 48.536 44.3001 47.668C44.3001 46.804 44.0401 46.444 43.6881 46.444C43.3321 46.444 43.0681 46.804 43.0681 47.668C43.0681 48.536 43.3321 48.892 43.6881 48.892ZM48.5518 46.644H49.2158V46H49.6118V47.92H49.2158V46.988H48.5518V46.644ZM47.5998 47.144C47.3638 47.516 46.9678 47.772 46.4638 47.82V47.464C47.0278 47.388 47.3798 46.984 47.4278 46.428H46.5078V46.088H48.6878V46.428H47.8238C47.8158 46.568 47.7878 46.7 47.7478 46.828L48.7998 47.492L48.6038 47.788L47.5998 47.144ZM48.1638 48.032C48.9918 48.032 49.6398 48.224 49.6398 48.724C49.6398 49.224 48.9918 49.416 48.1638 49.416C47.3358 49.416 46.6878 49.224 46.6878 48.724C46.6878 48.224 47.3358 48.032 48.1638 48.032ZM48.1638 49.092C48.7518 49.092 49.2198 48.976 49.2198 48.724C49.2198 48.472 48.7518 48.356 48.1638 48.356C47.5758 48.356 47.1078 48.472 47.1078 48.724C47.1078 48.976 47.5758 49.092 48.1638 49.092Z"/>
</mask>
<path d="M20.128 46H20.504V48.144H20.128V47.168H19.572V48.108H19.196V46.02H19.572V46.8H20.128V46ZM18.804 46.06V47.956H17.324V46.06H17.692V46.656H18.44V46.06H18.804ZM17.692 47.632H18.44V46.976H17.692V47.632ZM17.488 48.672V48.332H20.504V49.416H20.112V48.672H17.488ZM22.9677 47.884H24.4797V48.2H21.0677V47.884H22.5757V47.548H21.3157V46.64H23.8477V46.348H21.3157V46.04H24.2357V46.932H21.7037V47.24H24.2837V47.548H22.9677V47.884ZM21.2757 48.816V48.496H24.2397V49.42H23.8397V48.816H21.2757ZM28.4873 46.7V47.08H28.0073V47.856H27.6113V46H28.0073V46.7H28.4873ZM27.3633 47.54C27.1553 47.632 26.7473 47.692 26.2633 47.692H25.0353V46.084H27.1193V46.42H25.4313V47.356H26.2873C26.7513 47.356 27.1433 47.3 27.3633 47.204V47.54ZM25.1513 49.372V48.044H28.0073V49.372H25.1513ZM25.5473 48.38V49.036H27.6113V48.38H25.5473ZM30.467 47.232C29.643 47.232 28.967 47.064 28.967 46.608C28.967 46.156 29.643 45.988 30.467 45.988C31.291 45.988 31.967 46.156 31.967 46.608C31.967 47.064 31.291 47.232 30.467 47.232ZM30.467 46.928C31.063 46.928 31.559 46.836 31.559 46.608C31.559 46.384 31.063 46.288 30.467 46.288C29.871 46.288 29.375 46.384 29.375 46.608C29.375 46.836 29.871 46.928 30.467 46.928ZM28.763 47.752V47.444H32.175V47.752H28.763ZM28.999 49.376V48.56H31.551V48.32H28.991V48.024H31.939V48.84H29.387V49.08H31.999V49.376H28.999ZM36.0397 46.288V46.596H33.7197V46.288H34.6797V45.94H35.0797V46.288H36.0397ZM37.3037 46.76H36.8237V47.184H37.3037V47.52H36.8237V48.076H36.4277V46H36.8237V46.42H37.3037V46.76ZM34.8797 48.008C34.3117 48.008 33.8757 47.792 33.8757 47.4C33.8757 46.996 34.3117 46.776 34.8797 46.776C35.4437 46.776 35.8797 46.996 35.8797 47.4C35.8797 47.792 35.4437 48.008 34.8797 48.008ZM34.8797 47.072C34.4957 47.072 34.2557 47.208 34.2557 47.4C34.2557 47.584 34.4957 47.712 34.8797 47.712C35.2597 47.712 35.5037 47.584 35.5037 47.4C35.5037 47.208 35.2597 47.072 34.8797 47.072ZM35.4157 48.176C36.2357 48.176 36.8717 48.336 36.8717 48.796C36.8717 49.252 36.2357 49.416 35.4157 49.416C34.5957 49.416 33.9597 49.252 33.9597 48.796C33.9597 48.336 34.5957 48.176 35.4157 48.176ZM35.4157 49.108C36.0037 49.108 36.4557 49.016 36.4557 48.796C36.4557 48.576 36.0037 48.484 35.4157 48.484C34.8317 48.484 34.3797 48.576 34.3797 48.796C34.3797 49.016 34.8317 49.108 35.4157 49.108ZM39.8874 46.324V46.648H37.5674V46.324H38.5274V45.94H38.9274V46.324H39.8874ZM40.6714 46.936H41.1514V47.316H40.6714V48.56H40.2754V46H40.6714V46.936ZM38.7274 48.24C38.1594 48.24 37.7154 47.988 37.7154 47.54C37.7154 47.092 38.1594 46.84 38.7274 46.84C39.2954 46.84 39.7354 47.092 39.7354 47.54C39.7354 47.988 39.2954 48.24 38.7274 48.24ZM38.7274 47.144C38.3434 47.144 38.0994 47.312 38.0994 47.54C38.0994 47.772 38.3434 47.936 38.7274 47.936C39.1114 47.936 39.3554 47.772 39.3554 47.54C39.3554 47.312 39.1114 47.144 38.7274 47.144ZM38.2154 48.436V49.02H40.7634V49.372H37.8154V48.436H38.2154ZM45.3721 46H45.7641V49.416H45.3721V48.464H44.7961L44.8241 48.092H45.3721V47.228H44.8241L44.7961 46.856H45.3721V46ZM43.6881 46.08C44.2841 46.08 44.6961 46.584 44.6961 47.668C44.6961 48.752 44.2841 49.256 43.6881 49.256C43.0881 49.256 42.6761 48.752 42.6761 47.668C42.6761 46.584 43.0881 46.08 43.6881 46.08ZM43.6881 48.892C44.0401 48.892 44.3001 48.536 44.3001 47.668C44.3001 46.804 44.0401 46.444 43.6881 46.444C43.3321 46.444 43.0681 46.804 43.0681 47.668C43.0681 48.536 43.3321 48.892 43.6881 48.892ZM48.5518 46.644H49.2158V46H49.6118V47.92H49.2158V46.988H48.5518V46.644ZM47.5998 47.144C47.3638 47.516 46.9678 47.772 46.4638 47.82V47.464C47.0278 47.388 47.3798 46.984 47.4278 46.428H46.5078V46.088H48.6878V46.428H47.8238C47.8158 46.568 47.7878 46.7 47.7478 46.828L48.7998 47.492L48.6038 47.788L47.5998 47.144ZM48.1638 48.032C48.9918 48.032 49.6398 48.224 49.6398 48.724C49.6398 49.224 48.9918 49.416 48.1638 49.416C47.3358 49.416 46.6878 49.224 46.6878 48.724C46.6878 48.224 47.3358 48.032 48.1638 48.032ZM48.1638 49.092C48.7518 49.092 49.2198 48.976 49.2198 48.724C49.2198 48.472 48.7518 48.356 48.1638 48.356C47.5758 48.356 47.1078 48.472 47.1078 48.724C47.1078 48.976 47.5758 49.092 48.1638 49.092Z" fill="#5DAE8B"/>
<path d="M20.128 46V45H19.128V46H20.128ZM20.504 46H21.504V45H20.504V46ZM20.504 48.144V49.144H21.504V48.144H20.504ZM20.128 48.144H19.128V49.144H20.128V48.144ZM20.128 47.168H21.128V46.168H20.128V47.168ZM19.572 47.168V46.168H18.572V47.168H19.572ZM19.572 48.108V49.108H20.572V48.108H19.572ZM19.196 48.108H18.196V49.108H19.196V48.108ZM19.196 46.02V45.02H18.196V46.02H19.196ZM19.572 46.02H20.572V45.02H19.572V46.02ZM19.572 46.8H18.572V47.8H19.572V46.8ZM20.128 46.8V47.8H21.128V46.8H20.128ZM18.804 46.06H19.804V45.06H18.804V46.06ZM18.804 47.956V48.956H19.804V47.956H18.804ZM17.324 47.956H16.324V48.956H17.324V47.956ZM17.324 46.06V45.06H16.324V46.06H17.324ZM17.692 46.06H18.692V45.06H17.692V46.06ZM17.692 46.656H16.692V47.656H17.692V46.656ZM18.44 46.656V47.656H19.44V46.656H18.44ZM18.44 46.06V45.06H17.44V46.06H18.44ZM17.692 47.632H16.692V48.632H17.692V47.632ZM18.44 47.632V48.632H19.44V47.632H18.44ZM18.44 46.976H19.44V45.976H18.44V46.976ZM17.692 46.976V45.976H16.692V46.976H17.692ZM17.488 48.672H16.488V49.672H17.488V48.672ZM17.488 48.332V47.332H16.488V48.332H17.488ZM20.504 48.332H21.504V47.332H20.504V48.332ZM20.504 49.416V50.416H21.504V49.416H20.504ZM20.112 49.416H19.112V50.416H20.112V49.416ZM20.112 48.672H21.112V47.672H20.112V48.672ZM20.128 46V47H20.504V46V45H20.128V46ZM20.504 46H19.504V48.144H20.504H21.504V46H20.504ZM20.504 48.144V47.144H20.128V48.144V49.144H20.504V48.144ZM20.128 48.144H21.128V47.168H20.128H19.128V48.144H20.128ZM20.128 47.168V46.168H19.572V47.168V48.168H20.128V47.168ZM19.572 47.168H18.572V48.108H19.572H20.572V47.168H19.572ZM19.572 48.108V47.108H19.196V48.108V49.108H19.572V48.108ZM19.196 48.108H20.196V46.02H19.196H18.196V48.108H19.196ZM19.196 46.02V47.02H19.572V46.02V45.02H19.196V46.02ZM19.572 46.02H18.572V46.8H19.572H20.572V46.02H19.572ZM19.572 46.8V47.8H20.128V46.8V45.8H19.572V46.8ZM20.128 46.8H21.128V46H20.128H19.128V46.8H20.128ZM18.804 46.06H17.804V47.956H18.804H19.804V46.06H18.804ZM18.804 47.956V46.956H17.324V47.956V48.956H18.804V47.956ZM17.324 47.956H18.324V46.06H17.324H16.324V47.956H17.324ZM17.324 46.06V47.06H17.692V46.06V45.06H17.324V46.06ZM17.692 46.06H16.692V46.656H17.692H18.692V46.06H17.692ZM17.692 46.656V47.656H18.44V46.656V45.656H17.692V46.656ZM18.44 46.656H19.44V46.06H18.44H17.44V46.656H18.44ZM18.44 46.06V47.06H18.804V46.06V45.06H18.44V46.06ZM17.692 47.632V48.632H18.44V47.632V46.632H17.692V47.632ZM18.44 47.632H19.44V46.976H18.44H17.44V47.632H18.44ZM18.44 46.976V45.976H17.692V46.976V47.976H18.44V46.976ZM17.692 46.976H16.692V47.632H17.692H18.692V46.976H17.692ZM17.488 48.672H18.488V48.332H17.488H16.488V48.672H17.488ZM17.488 48.332V49.332H20.504V48.332V47.332H17.488V48.332ZM20.504 48.332H19.504V49.416H20.504H21.504V48.332H20.504ZM20.504 49.416V48.416H20.112V49.416V50.416H20.504V49.416ZM20.112 49.416H21.112V48.672H20.112H19.112V49.416H20.112ZM20.112 48.672V47.672H17.488V48.672V49.672H20.112V48.672ZM22.9677 47.884H21.9677V48.884H22.9677V47.884ZM24.4797 47.884H25.4797V46.884H24.4797V47.884ZM24.4797 48.2V49.2H25.4797V48.2H24.4797ZM21.0677 48.2H20.0677V49.2H21.0677V48.2ZM21.0677 47.884V46.884H20.0677V47.884H21.0677ZM22.5757 47.884V48.884H23.5757V47.884H22.5757ZM22.5757 47.548H23.5757V46.548H22.5757V47.548ZM21.3157 47.548H20.3157V48.548H21.3157V47.548ZM21.3157 46.64V45.64H20.3157V46.64H21.3157ZM23.8477 46.64V47.64H24.8477V46.64H23.8477ZM23.8477 46.348H24.8477V45.348H23.8477V46.348ZM21.3157 46.348H20.3157V47.348H21.3157V46.348ZM21.3157 46.04V45.04H20.3157V46.04H21.3157ZM24.2357 46.04H25.2357V45.04H24.2357V46.04ZM24.2357 46.932V47.932H25.2357V46.932H24.2357ZM21.7037 46.932V45.932H20.7037V46.932H21.7037ZM21.7037 47.24H20.7037V48.24H21.7037V47.24ZM24.2837 47.24H25.2837V46.24H24.2837V47.24ZM24.2837 47.548V48.548H25.2837V47.548H24.2837ZM22.9677 47.548V46.548H21.9677V47.548H22.9677ZM21.2757 48.816H20.2757V49.816H21.2757V48.816ZM21.2757 48.496V47.496H20.2757V48.496H21.2757ZM24.2397 48.496H25.2397V47.496H24.2397V48.496ZM24.2397 49.42V50.42H25.2397V49.42H24.2397ZM23.8397 49.42H22.8397V50.42H23.8397V49.42ZM23.8397 48.816H24.8397V47.816H23.8397V48.816ZM22.9677 47.884V48.884H24.4797V47.884V46.884H22.9677V47.884ZM24.4797 47.884H23.4797V48.2H24.4797H25.4797V47.884H24.4797ZM24.4797 48.2V47.2H21.0677V48.2V49.2H24.4797V48.2ZM21.0677 48.2H22.0677V47.884H21.0677H20.0677V48.2H21.0677ZM21.0677 47.884V48.884H22.5757V47.884V46.884H21.0677V47.884ZM22.5757 47.884H23.5757V47.548H22.5757H21.5757V47.884H22.5757ZM22.5757 47.548V46.548H21.3157V47.548V48.548H22.5757V47.548ZM21.3157 47.548H22.3157V46.64H21.3157H20.3157V47.548H21.3157ZM21.3157 46.64V47.64H23.8477V46.64V45.64H21.3157V46.64ZM23.8477 46.64H24.8477V46.348H23.8477H22.8477V46.64H23.8477ZM23.8477 46.348V45.348H21.3157V46.348V47.348H23.8477V46.348ZM21.3157 46.348H22.3157V46.04H21.3157H20.3157V46.348H21.3157ZM21.3157 46.04V47.04H24.2357V46.04V45.04H21.3157V46.04ZM24.2357 46.04H23.2357V46.932H24.2357H25.2357V46.04H24.2357ZM24.2357 46.932V45.932H21.7037V46.932V47.932H24.2357V46.932ZM21.7037 46.932H20.7037V47.24H21.7037H22.7037V46.932H21.7037ZM21.7037 47.24V48.24H24.2837V47.24V46.24H21.7037V47.24ZM24.2837 47.24H23.2837V47.548H24.2837H25.2837V47.24H24.2837ZM24.2837 47.548V46.548H22.9677V47.548V48.548H24.2837V47.548ZM22.9677 47.548H21.9677V47.884H22.9677H23.9677V47.548H22.9677ZM21.2757 48.816H22.2757V48.496H21.2757H20.2757V48.816H21.2757ZM21.2757 48.496V49.496H24.2397V48.496V47.496H21.2757V48.496ZM24.2397 48.496H23.2397V49.42H24.2397H25.2397V48.496H24.2397ZM24.2397 49.42V48.42H23.8397V49.42V50.42H24.2397V49.42ZM23.8397 49.42H24.8397V48.816H23.8397H22.8397V49.42H23.8397ZM23.8397 48.816V47.816H21.2757V48.816V49.816H23.8397V48.816ZM28.4873 46.7H29.4873V45.7H28.4873V46.7ZM28.4873 47.08V48.08H29.4873V47.08H28.4873ZM28.0073 47.08V46.08H27.0073V47.08H28.0073ZM28.0073 47.856V48.856H29.0073V47.856H28.0073ZM27.6113 47.856H26.6113V48.856H27.6113V47.856ZM27.6113 46V45H26.6113V46H27.6113ZM28.0073 46H29.0073V45H28.0073V46ZM28.0073 46.7H27.0073V47.7H28.0073V46.7ZM27.3633 47.54L27.7678 48.4545L28.3633 48.1911V47.54H27.3633ZM25.0353 47.692H24.0353V48.692H25.0353V47.692ZM25.0353 46.084V45.084H24.0353V46.084H25.0353ZM27.1193 46.084H28.1193V45.084H27.1193V46.084ZM27.1193 46.42V47.42H28.1193V46.42H27.1193ZM25.4313 46.42V45.42H24.4313V46.42H25.4313ZM25.4313 47.356H24.4313V48.356H25.4313V47.356ZM27.3633 47.204H28.3633V45.6766L26.9634 46.2875L27.3633 47.204ZM25.1513 49.372H24.1513V50.372H25.1513V49.372ZM25.1513 48.044V47.044H24.1513V48.044H25.1513ZM28.0073 48.044H29.0073V47.044H28.0073V48.044ZM28.0073 49.372V50.372H29.0073V49.372H28.0073ZM25.5473 48.38V47.38H24.5473V48.38H25.5473ZM25.5473 49.036H24.5473V50.036H25.5473V49.036ZM27.6113 49.036V50.036H28.6113V49.036H27.6113ZM27.6113 48.38H28.6113V47.38H27.6113V48.38ZM28.4873 46.7H27.4873V47.08H28.4873H29.4873V46.7H28.4873ZM28.4873 47.08V46.08H28.0073V47.08V48.08H28.4873V47.08ZM28.0073 47.08H27.0073V47.856H28.0073H29.0073V47.08H28.0073ZM28.0073 47.856V46.856H27.6113V47.856V48.856H28.0073V47.856ZM27.6113 47.856H28.6113V46H27.6113H26.6113V47.856H27.6113ZM27.6113 46V47H28.0073V46V45H27.6113V46ZM28.0073 46H27.0073V46.7H28.0073H29.0073V46H28.0073ZM28.0073 46.7V47.7H28.4873V46.7V45.7H28.0073V46.7ZM27.3633 47.54L26.9588 46.6255C26.9776 46.6172 26.9281 46.6391 26.7776 46.6602C26.6422 46.6793 26.4663 46.692 26.2633 46.692V47.692V48.692C26.7781 48.692 27.3609 48.6345 27.7678 48.4545L27.3633 47.54ZM26.2633 47.692V46.692H25.0353V47.692V48.692H26.2633V47.692ZM25.0353 47.692H26.0353V46.084H25.0353H24.0353V47.692H25.0353ZM25.0353 46.084V47.084H27.1193V46.084V45.084H25.0353V46.084ZM27.1193 46.084H26.1193V46.42H27.1193H28.1193V46.084H27.1193ZM27.1193 46.42V45.42H25.4313V46.42V47.42H27.1193V46.42ZM25.4313 46.42H24.4313V47.356H25.4313H26.4313V46.42H25.4313ZM25.4313 47.356V48.356H26.2873V47.356V46.356H25.4313V47.356ZM26.2873 47.356V48.356C26.7867 48.356 27.3487 48.3014 27.7633 48.1205L27.3633 47.204L26.9634 46.2875C26.97 46.2846 26.9164 46.3061 26.7765 46.3259C26.6476 46.3442 26.4814 46.356 26.2873 46.356V47.356ZM27.3633 47.204H26.3633V47.54H27.3633H28.3633V47.204H27.3633ZM25.1513 49.372H26.1513V48.044H25.1513H24.1513V49.372H25.1513ZM25.1513 48.044V49.044H28.0073V48.044V47.044H25.1513V48.044ZM28.0073 48.044H27.0073V49.372H28.0073H29.0073V48.044H28.0073ZM28.0073 49.372V48.372H25.1513V49.372V50.372H28.0073V49.372ZM25.5473 48.38H24.5473V49.036H25.5473H26.5473V48.38H25.5473ZM25.5473 49.036V50.036H27.6113V49.036V48.036H25.5473V49.036ZM27.6113 49.036H28.6113V48.38H27.6113H26.6113V49.036H27.6113ZM27.6113 48.38V47.38H25.5473V48.38V49.38H27.6113V48.38ZM28.763 47.752H27.763V48.752H28.763V47.752ZM28.763 47.444V46.444H27.763V47.444H28.763ZM32.175 47.444H33.175V46.444H32.175V47.444ZM32.175 47.752V48.752H33.175V47.752H32.175ZM28.999 49.376H27.999V50.376H28.999V49.376ZM28.999 48.56V47.56H27.999V48.56H28.999ZM31.551 48.56V49.56H32.551V48.56H31.551ZM31.551 48.32H32.551V47.32H31.551V48.32ZM28.991 48.32H27.991V49.32H28.991V48.32ZM28.991 48.024V47.024H27.991V48.024H28.991ZM31.939 48.024H32.939V47.024H31.939V48.024ZM31.939 48.84V49.84H32.939V48.84H31.939ZM29.387 48.84V47.84H28.387V48.84H29.387ZM29.387 49.08H28.387V50.08H29.387V49.08ZM31.999 49.08H32.999V48.08H31.999V49.08ZM31.999 49.376V50.376H32.999V49.376H31.999ZM30.467 47.232V46.232C30.2932 46.232 30.1398 46.223 30.0116 46.2067C29.88 46.1899 29.7955 46.1679 29.75 46.1513C29.6979 46.1324 29.7418 46.1372 29.8088 46.2074C29.8461 46.2464 29.8886 46.3041 29.9207 46.3812C29.9533 46.4595 29.967 46.5382 29.967 46.608H28.967H27.967C27.967 47.4752 28.6544 47.8809 29.0659 48.0307C29.4999 48.1886 30.0114 48.232 30.467 48.232V47.232ZM28.967 46.608H29.967C29.967 46.6795 29.9529 46.7596 29.9196 46.8388C29.8869 46.9166 29.8438 46.9746 29.8064 47.0135C29.7392 47.0833 29.6957 47.0879 29.7485 47.0687C29.7945 47.0521 29.8795 47.0301 30.0112 47.0133C30.1397 46.997 30.2932 46.988 30.467 46.988V45.988V44.988C30.0112 44.988 29.5006 45.0314 29.0675 45.1883C28.6604 45.3357 27.967 45.7386 27.967 46.608H28.967ZM30.467 45.988V46.988C30.6408 46.988 30.7942 46.997 30.9227 47.0133C31.0544 47.0301 31.1394 47.0521 31.1855 47.0687C31.2382 47.0879 31.1947 47.0833 31.1276 47.0135C31.0902 46.9746 31.047 46.9166 31.0143 46.8388C30.9811 46.7596 30.967 46.6795 30.967 46.608H31.967H32.967C32.967 45.7386 32.2735 45.3357 31.8665 45.1883C31.4334 45.0314 30.9227 44.988 30.467 44.988V45.988ZM31.967 46.608H30.967C30.967 46.5382 30.9806 46.4595 31.0132 46.3812C31.0453 46.3041 31.0879 46.2464 31.1251 46.2074C31.1922 46.1372 31.236 46.1324 31.1839 46.1513C31.1384 46.1679 31.0539 46.1899 30.9224 46.2067C30.7941 46.223 30.6408 46.232 30.467 46.232V47.232V48.232C30.9225 48.232 31.434 48.1886 31.868 48.0307C32.2795 47.8809 32.967 47.4752 32.967 46.608H31.967ZM30.467 46.928V47.928C30.7985 47.928 31.1691 47.9041 31.4876 47.8215C31.6408 47.7817 31.8595 47.7094 32.0612 47.5623C32.2797 47.403 32.559 47.0868 32.559 46.608H31.559H30.559C30.559 46.4448 30.6061 46.2933 30.6809 46.1695C30.751 46.0536 30.8322 45.9832 30.8831 45.9461C30.9732 45.8804 31.0307 45.8738 30.9853 45.8855C30.9069 45.9059 30.7315 45.928 30.467 45.928V46.928ZM31.559 46.608H32.559C32.559 46.1244 32.2734 45.8094 32.0595 45.6541C31.8594 45.509 31.6427 45.4367 31.4899 45.3966C31.1718 45.3133 30.8013 45.288 30.467 45.288V46.288V47.288C30.7286 47.288 30.9042 47.3107 30.9831 47.3314C31.0287 47.3433 30.9733 47.337 30.8848 47.2729C30.8351 47.2368 30.7541 47.1672 30.6836 47.0519C30.608 46.9286 30.559 46.7753 30.559 46.608H31.559ZM30.467 46.288V45.288C30.1326 45.288 29.7622 45.3133 29.4441 45.3966C29.2912 45.4367 29.0745 45.509 28.8745 45.6541C28.6606 45.8094 28.375 46.1244 28.375 46.608H29.375H30.375C30.375 46.7753 30.3259 46.9286 30.2504 47.0519C30.1798 47.1672 30.0988 47.2368 30.0491 47.2729C29.9607 47.337 29.9052 47.3433 29.9509 47.3314C30.0298 47.3107 30.2053 47.288 30.467 47.288V46.288ZM29.375 46.608H28.375C28.375 47.0868 28.6542 47.403 28.8727 47.5623C29.0745 47.7094 29.2932 47.7817 29.4463 47.8215C29.7649 47.9041 30.1355 47.928 30.467 47.928V46.928V45.928C30.2025 45.928 30.0271 45.9059 29.9486 45.8855C29.9033 45.8738 29.9607 45.8804 30.0509 45.9461C30.1017 45.9832 30.1829 46.0536 30.253 46.1695C30.3279 46.2933 30.375 46.4448 30.375 46.608H29.375ZM28.763 47.752H29.763V47.444H28.763H27.763V47.752H28.763ZM28.763 47.444V48.444H32.175V47.444V46.444H28.763V47.444ZM32.175 47.444H31.175V47.752H32.175H33.175V47.444H32.175ZM32.175 47.752V46.752H28.763V47.752V48.752H32.175V47.752ZM28.999 49.376H29.999V48.56H28.999H27.999V49.376H28.999ZM28.999 48.56V49.56H31.551V48.56V47.56H28.999V48.56ZM31.551 48.56H32.551V48.32H31.551H30.551V48.56H31.551ZM31.551 48.32V47.32H28.991V48.32V49.32H31.551V48.32ZM28.991 48.32H29.991V48.024H28.991H27.991V48.32H28.991ZM28.991 48.024V49.024H31.939V48.024V47.024H28.991V48.024ZM31.939 48.024H30.939V48.84H31.939H32.939V48.024H31.939ZM31.939 48.84V47.84H29.387V48.84V49.84H31.939V48.84ZM29.387 48.84H28.387V49.08H29.387H30.387V48.84H29.387ZM29.387 49.08V50.08H31.999V49.08V48.08H29.387V49.08ZM31.999 49.08H30.999V49.376H31.999H32.999V49.08H31.999ZM31.999 49.376V48.376H28.999V49.376V50.376H31.999V49.376ZM36.0397 46.288H37.0397V45.288H36.0397V46.288ZM36.0397 46.596V47.596H37.0397V46.596H36.0397ZM33.7197 46.596H32.7197V47.596H33.7197V46.596ZM33.7197 46.288V45.288H32.7197V46.288H33.7197ZM34.6797 46.288V47.288H35.6797V46.288H34.6797ZM34.6797 45.94V44.94H33.6797V45.94H34.6797ZM35.0797 45.94H36.0797V44.94H35.0797V45.94ZM35.0797 46.288H34.0797V47.288H35.0797V46.288ZM37.3037 46.76V47.76H38.3037V46.76H37.3037ZM36.8237 46.76V45.76H35.8237V46.76H36.8237ZM36.8237 47.184H35.8237V48.184H36.8237V47.184ZM37.3037 47.184H38.3037V46.184H37.3037V47.184ZM37.3037 47.52V48.52H38.3037V47.52H37.3037ZM36.8237 47.52V46.52H35.8237V47.52H36.8237ZM36.8237 48.076V49.076H37.8237V48.076H36.8237ZM36.4277 48.076H35.4277V49.076H36.4277V48.076ZM36.4277 46V45H35.4277V46H36.4277ZM36.8237 46H37.8237V45H36.8237V46ZM36.8237 46.42H35.8237V47.42H36.8237V46.42ZM37.3037 46.42H38.3037V45.42H37.3037V46.42ZM36.0397 46.288H35.0397V46.596H36.0397H37.0397V46.288H36.0397ZM36.0397 46.596V45.596H33.7197V46.596V47.596H36.0397V46.596ZM33.7197 46.596H34.7197V46.288H33.7197H32.7197V46.596H33.7197ZM33.7197 46.288V47.288H34.6797V46.288V45.288H33.7197V46.288ZM34.6797 46.288H35.6797V45.94H34.6797H33.6797V46.288H34.6797ZM34.6797 45.94V46.94H35.0797V45.94V44.94H34.6797V45.94ZM35.0797 45.94H34.0797V46.288H35.0797H36.0797V45.94H35.0797ZM35.0797 46.288V47.288H36.0397V46.288V45.288H35.0797V46.288ZM37.3037 46.76V45.76H36.8237V46.76V47.76H37.3037V46.76ZM36.8237 46.76H35.8237V47.184H36.8237H37.8237V46.76H36.8237ZM36.8237 47.184V48.184H37.3037V47.184V46.184H36.8237V47.184ZM37.3037 47.184H36.3037V47.52H37.3037H38.3037V47.184H37.3037ZM37.3037 47.52V46.52H36.8237V47.52V48.52H37.3037V47.52ZM36.8237 47.52H35.8237V48.076H36.8237H37.8237V47.52H36.8237ZM36.8237 48.076V47.076H36.4277V48.076V49.076H36.8237V48.076ZM36.4277 48.076H37.4277V46H36.4277H35.4277V48.076H36.4277ZM36.4277 46V47H36.8237V46V45H36.4277V46ZM36.8237 46H35.8237V46.42H36.8237H37.8237V46H36.8237ZM36.8237 46.42V47.42H37.3037V46.42V45.42H36.8237V46.42ZM37.3037 46.42H36.3037V46.76H37.3037H38.3037V46.42H37.3037ZM34.8797 48.008V47.008C34.7995 47.008 34.7381 47.0002 34.6966 46.9912C34.6534 46.9817 34.6455 46.974 34.6614 46.9831C34.6779 46.9925 34.7339 47.0286 34.7873 47.1095C34.8456 47.1978 34.8757 47.3023 34.8757 47.4H33.8757H32.8757C32.8757 48.0393 33.258 48.4843 33.6681 48.7189C34.0484 48.9366 34.4885 49.008 34.8797 49.008V48.008ZM33.8757 47.4H34.8757C34.8757 47.4882 34.8492 47.5867 34.7941 47.6726C34.7431 47.7519 34.6885 47.7886 34.6704 47.7992C34.6533 47.8092 34.6595 47.8019 34.701 47.7927C34.7408 47.7838 34.8006 47.776 34.8797 47.776V46.776V45.776C34.4862 45.776 34.0422 45.8492 33.6591 46.0738C33.2431 46.3176 32.8757 46.7686 32.8757 47.4H33.8757ZM34.8797 46.776V47.776C34.9573 47.776 35.0161 47.7837 35.0552 47.7925C35.0959 47.8016 35.1017 47.8087 35.0845 47.7986C35.0663 47.7879 35.0119 47.7512 34.9611 47.6721C34.9062 47.5865 34.8797 47.4882 34.8797 47.4H35.8797H36.8797C36.8797 46.769 36.5129 46.3183 36.0979 46.0744C35.7155 45.8496 35.2723 45.776 34.8797 45.776V46.776ZM35.8797 47.4H34.8797C34.8797 47.3024 34.9099 47.198 34.9679 47.11C35.0211 47.0293 35.0769 46.9932 35.0935 46.9837C35.1095 46.9745 35.102 46.9821 35.0596 46.9914C35.0188 47.0003 34.9585 47.008 34.8797 47.008V48.008V49.008C35.2699 49.008 35.7092 48.9362 36.0889 48.7183C36.4979 48.4837 36.8797 48.0389 36.8797 47.4H35.8797ZM34.8797 47.072V46.072C34.5874 46.072 34.252 46.1211 33.9506 46.283C33.6396 46.45 33.2557 46.8158 33.2557 47.4H34.2557H35.2557C35.2557 47.5729 35.1981 47.7302 35.1119 47.8504C35.0319 47.9621 34.9441 48.0196 34.8968 48.045C34.8114 48.0909 34.7881 48.072 34.8797 48.072V47.072ZM34.2557 47.4H33.2557C33.2557 48.0052 33.6695 48.3631 33.9699 48.5161C34.2668 48.6673 34.595 48.712 34.8797 48.712V47.712V46.712C34.7805 46.712 34.7967 46.6927 34.8775 46.7339C34.9223 46.7567 35.0132 46.8121 35.0983 46.9251C35.1908 47.0481 35.2557 47.214 35.2557 47.4H34.2557ZM34.8797 47.712V48.712C35.1641 48.712 35.4908 48.6668 35.7864 48.5169C36.081 48.3676 36.5037 48.0116 36.5037 47.4H35.5037H34.5037C34.5037 47.2099 34.5711 47.0427 34.6638 46.9209C34.7488 46.8092 34.8389 46.755 34.8821 46.7331C34.9606 46.6932 34.9753 46.712 34.8797 46.712V47.712ZM35.5037 47.4H36.5037C36.5037 46.8094 36.1114 46.4455 35.8057 46.2821C35.5056 46.1217 35.1717 46.072 34.8797 46.072V47.072V48.072C34.9677 48.072 34.9459 48.0903 34.8628 48.0459C34.817 48.0214 34.7301 47.9651 34.65 47.8546C34.5636 47.7354 34.5037 47.5768 34.5037 47.4H35.5037ZM35.4157 48.176V49.176C35.5902 49.176 35.7402 49.1846 35.8633 49.2002C35.9898 49.2163 36.0656 49.237 36.1019 49.2505C36.1431 49.2659 36.0904 49.2557 36.0196 49.1777C35.981 49.1352 35.941 49.0767 35.9119 49.0026C35.8827 48.9281 35.8717 48.8563 35.8717 48.796H36.8717H37.8717C37.8717 47.9567 37.2362 47.5389 36.8006 47.3765C36.3706 47.2162 35.8639 47.176 35.4157 47.176V48.176ZM36.8717 48.796H35.8717C35.8717 48.7341 35.883 48.6614 35.9126 48.5865C35.942 48.5121 35.9821 48.4537 36.0204 48.4117C36.0905 48.3348 36.1421 48.3249 36.1003 48.3406C36.0636 48.3543 35.9877 48.3752 35.8616 48.3914C35.7388 48.4072 35.5893 48.416 35.4157 48.416V49.416V50.416C35.8661 50.416 36.3725 50.3744 36.8021 50.2134C37.2335 50.0517 37.8717 49.6352 37.8717 48.796H36.8717ZM35.4157 49.416V48.416C35.2421 48.416 35.0926 48.4072 34.9698 48.3914C34.8438 48.3752 34.7678 48.3543 34.7311 48.3406C34.6894 48.3249 34.7409 48.3348 34.8111 48.4117C34.8493 48.4537 34.8895 48.5121 34.9188 48.5865C34.9484 48.6614 34.9597 48.7341 34.9597 48.796H33.9597H32.9597C32.9597 49.6352 33.5979 50.0517 34.0293 50.2134C34.4589 50.3744 34.9653 50.416 35.4157 50.416V49.416ZM33.9597 48.796H34.9597C34.9597 48.8563 34.9488 48.9281 34.9195 49.0026C34.8905 49.0767 34.8505 49.1352 34.8119 49.1777C34.741 49.2557 34.6883 49.2659 34.7296 49.2505C34.7659 49.237 34.8416 49.2163 34.9681 49.2002C35.0912 49.1846 35.2412 49.176 35.4157 49.176V48.176V47.176C34.9675 47.176 34.4609 47.2162 34.0309 47.3765C33.5953 47.5389 32.9597 47.9567 32.9597 48.796H33.9597ZM35.4157 49.108V50.108C35.7429 50.108 36.1054 50.0843 36.4176 49.9997C36.5686 49.9589 36.7854 49.8838 36.9846 49.7309C37.2049 49.5619 37.4557 49.2485 37.4557 48.796H36.4557H35.4557C35.4557 48.6433 35.4972 48.4981 35.5675 48.3753C35.634 48.2593 35.7132 48.1856 35.7672 48.1442C35.8633 48.0704 35.9304 48.0596 35.8949 48.0693C35.834 48.0857 35.6765 48.108 35.4157 48.108V49.108ZM36.4557 48.796H37.4557C37.4557 48.3435 37.2049 48.0301 36.9846 47.8611C36.7854 47.7082 36.5686 47.6331 36.4176 47.5923C36.1054 47.5077 35.7429 47.484 35.4157 47.484V48.484V49.484C35.6765 49.484 35.834 49.5063 35.8949 49.5227C35.9304 49.5324 35.8633 49.5216 35.7672 49.4478C35.7132 49.4064 35.634 49.3327 35.5675 49.2167C35.4972 49.0939 35.4557 48.9487 35.4557 48.796H36.4557ZM35.4157 48.484V47.484C35.0901 47.484 34.7285 47.5078 34.4167 47.5924C34.2659 47.6334 34.0493 47.7085 33.8503 47.8614C33.6304 48.0303 33.3797 48.3436 33.3797 48.796H34.3797H35.3797C35.3797 48.9487 35.3383 49.0938 35.268 49.2164C35.2016 49.3324 35.1226 49.406 35.0687 49.4475C34.9726 49.5212 34.9056 49.5321 34.9407 49.5226C35.0009 49.5062 35.1573 49.484 35.4157 49.484V48.484ZM34.3797 48.796H33.3797C33.3797 49.2484 33.6304 49.5617 33.8503 49.7306C34.0493 49.8835 34.2659 49.9586 34.4167 49.9996C34.7285 50.0842 35.0901 50.108 35.4157 50.108V49.108V48.108C35.1573 48.108 35.0009 48.0858 34.9407 48.0694C34.9056 48.0599 34.9726 48.0708 35.0687 48.1445C35.1226 48.186 35.2016 48.2596 35.268 48.3756C35.3383 48.4982 35.3797 48.6433 35.3797 48.796H34.3797ZM39.8874 46.324H40.8874V45.324H39.8874V46.324ZM39.8874 46.648V47.648H40.8874V46.648H39.8874ZM37.5674 46.648H36.5674V47.648H37.5674V46.648ZM37.5674 46.324V45.324H36.5674V46.324H37.5674ZM38.5274 46.324V47.324H39.5274V46.324H38.5274ZM38.5274 45.94V44.94H37.5274V45.94H38.5274ZM38.9274 45.94H39.9274V44.94H38.9274V45.94ZM38.9274 46.324H37.9274V47.324H38.9274V46.324ZM40.6714 46.936H39.6714V47.936H40.6714V46.936ZM41.1514 46.936H42.1514V45.936H41.1514V46.936ZM41.1514 47.316V48.316H42.1514V47.316H41.1514ZM40.6714 47.316V46.316H39.6714V47.316H40.6714ZM40.6714 48.56V49.56H41.6714V48.56H40.6714ZM40.2754 48.56H39.2754V49.56H40.2754V48.56ZM40.2754 46V45H39.2754V46H40.2754ZM40.6714 46H41.6714V45H40.6714V46ZM38.2154 48.436H39.2154V47.436H38.2154V48.436ZM38.2154 49.02H37.2154V50.02H38.2154V49.02ZM40.7634 49.02H41.7634V48.02H40.7634V49.02ZM40.7634 49.372V50.372H41.7634V49.372H40.7634ZM37.8154 49.372H36.8154V50.372H37.8154V49.372ZM37.8154 48.436V47.436H36.8154V48.436H37.8154ZM39.8874 46.324H38.8874V46.648H39.8874H40.8874V46.324H39.8874ZM39.8874 46.648V45.648H37.5674V46.648V47.648H39.8874V46.648ZM37.5674 46.648H38.5674V46.324H37.5674H36.5674V46.648H37.5674ZM37.5674 46.324V47.324H38.5274V46.324V45.324H37.5674V46.324ZM38.5274 46.324H39.5274V45.94H38.5274H37.5274V46.324H38.5274ZM38.5274 45.94V46.94H38.9274V45.94V44.94H38.5274V45.94ZM38.9274 45.94H37.9274V46.324H38.9274H39.9274V45.94H38.9274ZM38.9274 46.324V47.324H39.8874V46.324V45.324H38.9274V46.324ZM40.6714 46.936V47.936H41.1514V46.936V45.936H40.6714V46.936ZM41.1514 46.936H40.1514V47.316H41.1514H42.1514V46.936H41.1514ZM41.1514 47.316V46.316H40.6714V47.316V48.316H41.1514V47.316ZM40.6714 47.316H39.6714V48.56H40.6714H41.6714V47.316H40.6714ZM40.6714 48.56V47.56H40.2754V48.56V49.56H40.6714V48.56ZM40.2754 48.56H41.2754V46H40.2754H39.2754V48.56H40.2754ZM40.2754 46V47H40.6714V46V45H40.2754V46ZM40.6714 46H39.6714V46.936H40.6714H41.6714V46H40.6714ZM38.7274 48.24V47.24C38.6578 47.24 38.6065 47.2321 38.574 47.224C38.5406 47.2155 38.5382 47.2097 38.5556 47.221C38.5747 47.2335 38.6186 47.268 38.6575 47.3347C38.6987 47.4054 38.7154 47.4802 38.7154 47.54H37.7154H36.7154C36.7154 48.1485 37.0384 48.6185 37.4611 48.895C37.8519 49.1505 38.3125 49.24 38.7274 49.24V48.24ZM37.7154 47.54H38.7154C38.7154 47.5998 38.6987 47.6746 38.6575 47.7453C38.6186 47.812 38.5747 47.8465 38.5556 47.859C38.5382 47.8703 38.5406 47.8645 38.574 47.856C38.6065 47.8479 38.6578 47.84 38.7274 47.84V46.84V45.84C38.3125 45.84 37.8519 45.9295 37.4611 46.185C37.0384 46.4615 36.7154 46.9315 36.7154 47.54H37.7154ZM38.7274 46.84V47.84C38.7969 47.84 38.8477 47.8479 38.8794 47.8559C38.912 47.8641 38.9133 47.8696 38.895 47.8576C38.875 47.8444 38.8309 47.8093 38.7922 47.7425C38.7514 47.672 38.7354 47.5981 38.7354 47.54H39.7354H40.7354C40.7354 46.9352 40.417 46.4647 39.9937 46.1864C39.603 45.9296 39.1423 45.84 38.7274 45.84V46.84ZM39.7354 47.54H38.7354C38.7354 47.4819 38.7514 47.408 38.7922 47.3375C38.8309 47.2707 38.875 47.2356 38.895 47.2224C38.9133 47.2104 38.912 47.2159 38.8794 47.2241C38.8477 47.2321 38.7969 47.24 38.7274 47.24V48.24V49.24C39.1423 49.24 39.603 49.1504 39.9937 48.8936C40.417 48.6153 40.7354 48.1448 40.7354 47.54H39.7354ZM38.7274 47.144V46.144C38.4035 46.144 38.0415 46.2129 37.7263 46.4168C37.392 46.633 37.0994 47.0213 37.0994 47.54H38.0994H39.0994C39.0994 47.6684 39.0632 47.7934 38.9995 47.8989C38.9383 48.0003 38.8651 48.0622 38.8125 48.0962C38.7152 48.1591 38.6672 48.144 38.7274 48.144V47.144ZM38.0994 47.54H37.0994C37.0994 48.0572 37.3888 48.4479 37.729 48.6664C38.0459 48.87 38.4081 48.936 38.7274 48.936V47.936V46.936C38.6626 46.936 38.7108 46.92 38.8097 46.9836C38.8637 47.0183 38.9384 47.0813 39.0004 47.1843C39.0648 47.2914 39.0994 47.4157 39.0994 47.54H38.0994ZM38.7274 47.936V48.936C39.0466 48.936 39.4088 48.87 39.7257 48.6664C40.066 48.4479 40.3554 48.0572 40.3554 47.54H39.3554H38.3554C38.3554 47.4157 38.3899 47.2914 38.4543 47.1843C38.5163 47.0813 38.591 47.0183 38.645 46.9836C38.7439 46.92 38.7921 46.936 38.7274 46.936V47.936ZM39.3554 47.54H40.3554C40.3554 47.0213 40.0627 46.633 39.7285 46.4168C39.4132 46.2129 39.0512 46.144 38.7274 46.144V47.144V48.144C38.7875 48.144 38.7395 48.1591 38.6423 48.0962C38.5897 48.0622 38.5165 48.0003 38.4552 47.8989C38.3915 47.7934 38.3554 47.6684 38.3554 47.54H39.3554ZM38.2154 48.436H37.2154V49.02H38.2154H39.2154V48.436H38.2154ZM38.2154 49.02V50.02H40.7634V49.02V48.02H38.2154V49.02ZM40.7634 49.02H39.7634V49.372H40.7634H41.7634V49.02H40.7634ZM40.7634 49.372V48.372H37.8154V49.372V50.372H40.7634V49.372ZM37.8154 49.372H38.8154V48.436H37.8154H36.8154V49.372H37.8154ZM37.8154 48.436V49.436H38.2154V48.436V47.436H37.8154V48.436ZM45.3721 46V45H44.3721V46H45.3721ZM45.7641 46H46.7641V45H45.7641V46ZM45.7641 49.416V50.416H46.7641V49.416H45.7641ZM45.3721 49.416H44.3721V50.416H45.3721V49.416ZM45.3721 48.464H46.3721V47.464H45.3721V48.464ZM44.7961 48.464L43.7989 48.3889L43.718 49.464H44.7961V48.464ZM44.8241 48.092V47.092H43.8966L43.8269 48.0169L44.8241 48.092ZM45.3721 48.092V49.092H46.3721V48.092H45.3721ZM45.3721 47.228H46.3721V46.228H45.3721V47.228ZM44.8241 47.228L43.8269 47.3031L43.8966 48.228H44.8241V47.228ZM44.7961 46.856V45.856H43.718L43.7989 46.9311L44.7961 46.856ZM45.3721 46.856V47.856H46.3721V46.856H45.3721ZM45.3721 46V47H45.7641V46V45H45.3721V46ZM45.7641 46H44.7641V49.416H45.7641H46.7641V46H45.7641ZM45.7641 49.416V48.416H45.3721V49.416V50.416H45.7641V49.416ZM45.3721 49.416H46.3721V48.464H45.3721H44.3721V49.416H45.3721ZM45.3721 48.464V47.464H44.7961V48.464V49.464H45.3721V48.464ZM44.7961 48.464L45.7933 48.5391L45.8213 48.1671L44.8241 48.092L43.8269 48.0169L43.7989 48.3889L44.7961 48.464ZM44.8241 48.092V49.092H45.3721V48.092V47.092H44.8241V48.092ZM45.3721 48.092H46.3721V47.228H45.3721H44.3721V48.092H45.3721ZM45.3721 47.228V46.228H44.8241V47.228V48.228H45.3721V47.228ZM44.8241 47.228L45.8213 47.1529L45.7933 46.7809L44.7961 46.856L43.7989 46.9311L43.8269 47.3031L44.8241 47.228ZM44.7961 46.856V47.856H45.3721V46.856V45.856H44.7961V46.856ZM45.3721 46.856H46.3721V46H45.3721H44.3721V46.856H45.3721ZM43.6881 46.08V47.08C43.6933 47.08 43.6687 47.0802 43.6328 47.0614C43.5962 47.0422 43.5833 47.0218 43.5882 47.0291C43.6093 47.0601 43.6961 47.2302 43.6961 47.668H44.6961H45.6961C45.6961 47.0218 45.577 46.3979 45.243 45.9059C44.8757 45.3647 44.3109 45.08 43.6881 45.08V46.08ZM44.6961 47.668H43.6961C43.6961 48.1058 43.6093 48.2759 43.5882 48.3069C43.5833 48.3142 43.5962 48.2938 43.6328 48.2746C43.6687 48.2558 43.6933 48.256 43.6881 48.256V49.256V50.256C44.3109 50.256 44.8757 49.9713 45.243 49.4301C45.577 48.9381 45.6961 48.3142 45.6961 47.668H44.6961ZM43.6881 49.256V48.256C43.6809 48.256 43.7043 48.2554 43.7395 48.2738C43.7756 48.2926 43.7886 48.3128 43.7838 48.3058C43.763 48.2753 43.6761 48.106 43.6761 47.668H42.6761H41.6761C41.6761 48.314 41.7952 48.9387 42.1305 49.4312C42.4994 49.9732 43.0657 50.256 43.6881 50.256V49.256ZM42.6761 47.668H43.6761C43.6761 47.23 43.763 47.0607 43.7838 47.0302C43.7886 47.0232 43.7756 47.0434 43.7395 47.0622C43.7043 47.0806 43.6809 47.08 43.6881 47.08V46.08V45.08C43.0657 45.08 42.4994 45.3628 42.1305 45.9048C41.7952 46.3973 41.6761 47.022 41.6761 47.668H42.6761ZM43.6881 48.892V49.892C44.2776 49.892 44.7419 49.5594 45.0016 49.0887C45.2287 48.6773 45.3001 48.175 45.3001 47.668H44.3001H43.3001C43.3001 47.8374 43.2872 47.9572 43.272 48.0367C43.2564 48.1179 43.2419 48.1382 43.2506 48.1223C43.2612 48.1032 43.3028 48.038 43.396 47.9788C43.4938 47.9166 43.6001 47.892 43.6881 47.892V48.892ZM44.3001 47.668H45.3001C45.3001 47.1621 45.2284 46.6607 45.0022 46.2497C44.7444 45.7816 44.2816 45.444 43.6881 45.444V46.444V47.444C43.5979 47.444 43.4909 47.4185 43.3934 47.3562C43.3009 47.297 43.26 47.2323 43.2501 47.2143C43.2418 47.1992 43.2564 47.2201 43.272 47.3012C43.2873 47.3806 43.3001 47.4998 43.3001 47.668H44.3001ZM43.6881 46.444V45.444C43.0989 45.444 42.6334 45.7751 42.3714 46.2447C42.1413 46.657 42.0681 47.1604 42.0681 47.668H43.0681H44.0681C44.0681 47.5006 44.0811 47.3823 44.0964 47.3039C44.112 47.2238 44.1265 47.2038 44.1178 47.2193C44.1074 47.238 44.0664 47.3016 43.9751 47.3592C43.8793 47.4197 43.775 47.444 43.6881 47.444V46.444ZM43.0681 47.668H42.0681C42.0681 48.1767 42.141 48.681 42.3719 49.0938C42.636 49.5658 43.1029 49.892 43.6881 49.892V48.892V47.892C43.7729 47.892 43.8764 47.9154 43.9725 47.9757C44.0645 48.0334 44.1063 48.0975 44.1173 48.1172C44.1265 48.1336 44.1121 48.1142 44.0964 48.034C44.0811 47.9556 44.0681 47.8367 44.0681 47.668H43.0681ZM48.5518 46.644V45.644H47.5518V46.644H48.5518ZM49.2158 46.644V47.644H50.2158V46.644H49.2158ZM49.2158 46V45H48.2158V46H49.2158ZM49.6118 46H50.6118V45H49.6118V46ZM49.6118 47.92V48.92H50.6118V47.92H49.6118ZM49.2158 47.92H48.2158V48.92H49.2158V47.92ZM49.2158 46.988H50.2158V45.988H49.2158V46.988ZM48.5518 46.988H47.5518V47.988H48.5518V46.988ZM47.5998 47.144L48.1397 46.3023L47.2938 45.7597L46.7554 46.6083L47.5998 47.144ZM46.4638 47.82H45.4638V48.9198L46.5586 48.8155L46.4638 47.82ZM46.4638 47.464L46.3302 46.473L45.4638 46.5897V47.464H46.4638ZM47.4278 46.428L48.4241 46.514L48.5178 45.428H47.4278V46.428ZM46.5078 46.428H45.5078V47.428H46.5078V46.428ZM46.5078 46.088V45.088H45.5078V46.088H46.5078ZM48.6878 46.088H49.6878V45.088H48.6878V46.088ZM48.6878 46.428V47.428H49.6878V46.428H48.6878ZM47.8238 46.428V45.428H46.8793L46.8254 46.371L47.8238 46.428ZM47.7478 46.828L46.7933 46.5297L46.564 47.2634L47.214 47.6736L47.7478 46.828ZM48.7998 47.492L49.6336 48.0441L50.1979 47.1919L49.3335 46.6464L48.7998 47.492ZM48.6038 47.788L48.0639 48.6297L48.8934 49.1618L49.4376 48.3401L48.6038 47.788ZM48.5518 46.644V47.644H49.2158V46.644V45.644H48.5518V46.644ZM49.2158 46.644H50.2158V46H49.2158H48.2158V46.644H49.2158ZM49.2158 46V47H49.6118V46V45H49.2158V46ZM49.6118 46H48.6118V47.92H49.6118H50.6118V46H49.6118ZM49.6118 47.92V46.92H49.2158V47.92V48.92H49.6118V47.92ZM49.2158 47.92H50.2158V46.988H49.2158H48.2158V47.92H49.2158ZM49.2158 46.988V45.988H48.5518V46.988V47.988H49.2158V46.988ZM48.5518 46.988H49.5518V46.644H48.5518H47.5518V46.988H48.5518ZM47.5998 47.144L46.7554 46.6083C46.6877 46.7149 46.5709 46.8053 46.369 46.8245L46.4638 47.82L46.5586 48.8155C47.3646 48.7387 48.0398 48.3171 48.4442 47.6797L47.5998 47.144ZM46.4638 47.82H47.4638V47.464H46.4638H45.4638V47.82H46.4638ZM46.4638 47.464L46.5973 48.455C47.6605 48.3118 48.3389 47.5002 48.4241 46.514L47.4278 46.428L46.4315 46.342C46.4276 46.387 46.4187 46.4156 46.4123 46.4311C46.4061 46.4461 46.4013 46.4512 46.4011 46.4514C46.4007 46.4518 46.4004 46.4521 46.3998 46.4525C46.3993 46.453 46.3975 46.4543 46.3938 46.4561C46.3872 46.4595 46.368 46.4679 46.3302 46.473L46.4638 47.464ZM47.4278 46.428V45.428H46.5078V46.428V47.428H47.4278V46.428ZM46.5078 46.428H47.5078V46.088H46.5078H45.5078V46.428H46.5078ZM46.5078 46.088V47.088H48.6878V46.088V45.088H46.5078V46.088ZM48.6878 46.088H47.6878V46.428H48.6878H49.6878V46.088H48.6878ZM48.6878 46.428V45.428H47.8238V46.428V47.428H48.6878V46.428ZM47.8238 46.428L46.8254 46.371C46.823 46.4124 46.8143 46.4624 46.7933 46.5297L47.7478 46.828L48.7023 47.1263C48.7612 46.9376 48.8085 46.7236 48.8222 46.485L47.8238 46.428ZM47.7478 46.828L47.214 47.6736L48.266 48.3376L48.7998 47.492L49.3335 46.6464L48.2815 45.9824L47.7478 46.828ZM48.7998 47.492L47.966 46.9399L47.77 47.2359L48.6038 47.788L49.4376 48.3401L49.6336 48.0441L48.7998 47.492ZM48.6038 47.788L49.1437 46.9463L48.1397 46.3023L47.5998 47.144L47.0599 47.9857L48.0639 48.6297L48.6038 47.788ZM48.1638 48.032V49.032C48.3341 49.032 48.4803 49.042 48.5996 49.0594C48.7219 49.0772 48.7943 49.0997 48.828 49.1137C48.8645 49.1289 48.8184 49.1183 48.7578 49.0456C48.6828 48.9558 48.6398 48.8353 48.6398 48.724H49.6398H50.6398C50.6398 47.9125 50.0639 47.4618 49.5965 47.2673C49.152 47.0823 48.6289 47.032 48.1638 47.032V48.032ZM49.6398 48.724H48.6398C48.6398 48.6127 48.6828 48.4922 48.7578 48.4024C48.8184 48.3297 48.8645 48.3191 48.828 48.3343C48.7943 48.3483 48.7219 48.3708 48.5996 48.3886C48.4803 48.406 48.3341 48.416 48.1638 48.416V49.416V50.416C48.6289 50.416 49.152 50.3657 49.5965 50.1807C50.0639 49.9862 50.6398 49.5355 50.6398 48.724H49.6398ZM48.1638 49.416V48.416C47.9934 48.416 47.8472 48.406 47.728 48.3886C47.6057 48.3708 47.5332 48.3483 47.4995 48.3343C47.463 48.3191 47.5091 48.3297 47.5698 48.4024C47.6447 48.4922 47.6878 48.6127 47.6878 48.724H46.6878H45.6878C45.6878 49.5355 46.2637 49.9862 46.731 50.1807C47.1755 50.3657 47.6987 50.416 48.1638 50.416V49.416ZM46.6878 48.724H47.6878C47.6878 48.8353 47.6447 48.9558 47.5698 49.0456C47.5091 49.1183 47.463 49.1289 47.4995 49.1137C47.5332 49.0997 47.6057 49.0772 47.728 49.0594C47.8472 49.042 47.9934 49.032 48.1638 49.032V48.032V47.032C47.6987 47.032 47.1755 47.0823 46.731 47.2673C46.2637 47.4618 45.6878 47.9125 45.6878 48.724H46.6878ZM48.1638 49.092V50.092C48.5042 50.092 48.8844 50.0606 49.215 49.9556C49.3775 49.904 49.5981 49.8131 49.795 49.6412C50.0126 49.4513 50.2198 49.1395 50.2198 48.724H49.2198H48.2198C48.2198 48.5942 48.2514 48.468 48.3081 48.3571C48.3624 48.2507 48.4294 48.1785 48.4799 48.1344C48.5707 48.0552 48.6375 48.0405 48.6096 48.0494C48.5591 48.0654 48.4114 48.092 48.1638 48.092V49.092ZM49.2198 48.724H50.2198C50.2198 48.3085 50.0126 47.9967 49.795 47.8068C49.5981 47.6349 49.3775 47.544 49.215 47.4924C48.8844 47.3874 48.5042 47.356 48.1638 47.356V48.356V49.356C48.4114 49.356 48.5591 49.3826 48.6096 49.3986C48.6375 49.4075 48.5707 49.3928 48.4799 49.3136C48.4294 49.2695 48.3624 49.1973 48.3081 49.0909C48.2514 48.98 48.2198 48.8538 48.2198 48.724H49.2198ZM48.1638 48.356V47.356C47.8234 47.356 47.4431 47.3874 47.1126 47.4924C46.95 47.544 46.7294 47.6349 46.5325 47.8068C46.315 47.9967 46.1078 48.3085 46.1078 48.724H47.1078H48.1078C48.1078 48.8538 48.0762 48.98 48.0195 49.0909C47.9651 49.1973 47.8982 49.2695 47.8477 49.3136C47.7569 49.3928 47.69 49.4075 47.718 49.3986C47.7684 49.3826 47.9162 49.356 48.1638 49.356V48.356ZM47.1078 48.724H46.1078C46.1078 49.1395 46.315 49.4513 46.5325 49.6412C46.7294 49.8131 46.95 49.904 47.1126 49.9556C47.4431 50.0606 47.8234 50.092 48.1638 50.092V49.092V48.092C47.9162 48.092 47.7684 48.0654 47.718 48.0494C47.69 48.0405 47.7569 48.0552 47.8477 48.1344C47.8982 48.1785 47.9651 48.2507 48.0195 48.3571C48.0762 48.468 48.1078 48.5942 48.1078 48.724H47.1078Z" fill="white" mask="url(#path-19-outside-2_11_629)"/>
<path d="M34.985 34.7278C32.9081 34.7282 32.4347 37.6749 30.3581 37.641C28.3337 37.608 25.8855 34.7278 25.8855 34.7278H21.9503C21.51 34.7278 21.0905 34.541 20.796 34.2137V34.2137L26.0397 27.7019L29.4327 27.1878C30.7578 26.987 32.0336 26.335 33.7511 26.1596C35.0706 26.0248 35.8431 25.8806 37.1441 26.1596C38.9955 26.5566 39.6464 27.9956 41.4625 28.5587C41.9711 28.7164 42.6183 28.834 43.1884 28.9166C44.0576 29.0425 44.8747 29.4368 45.4622 30.0896L48.7113 33.6997V33.6997C47.956 34.329 46.9098 34.4588 45.9584 34.2109C44.981 33.9563 43.7332 33.7857 42.8506 34.2137C42.2535 34.5033 42.0479 34.9242 41.4625 35.2419C40.3057 35.87 38.2237 35.9274 38.2237 35.9274C38.2237 35.9274 36.3182 34.7276 34.985 34.7278Z" fill="#5DAE8B"/>
<path d="M20.796 34.2137V34.2137C21.0905 34.541 21.51 34.7278 21.9503 34.7278H25.8855C25.8855 34.7278 28.3337 37.608 30.3581 37.641C32.4347 37.6749 32.9081 34.7282 34.985 34.7278C36.3182 34.7276 38.2237 35.9274 38.2237 35.9274C38.2237 35.9274 40.3057 35.87 41.4625 35.2419C42.0479 34.9242 42.2535 34.5033 42.8506 34.2137C43.7332 33.7857 44.981 33.9563 45.9584 34.2109C46.9098 34.4588 47.956 34.329 48.7113 33.6997V33.6997M20.796 34.2137L26.0397 27.7019M20.796 34.2137L10 48.2656M26.0397 27.7019C27.3648 27.5011 28.1077 27.3886 29.4327 27.1878M26.0397 27.7019L29.4327 27.1878M29.4327 27.1878C30.7578 26.987 32.0336 26.335 33.7511 26.1596C35.0706 26.0248 35.8431 25.8806 37.1441 26.1596C38.9955 26.5566 39.6464 27.9956 41.4625 28.5587C41.9711 28.7164 42.6183 28.834 43.1884 28.9166C44.0576 29.0425 44.8747 29.4368 45.4622 30.0896L48.7113 33.6997M48.7113 33.6997L59.0445 46.552" stroke="#5DAE8B" stroke-width="0.5"/>
<path d="M29.1266 32.9868C31.0238 32.9868 32.1323 33.1808 34 32.9868C35.6136 32.8193 37.8797 32.6219 39.4097 32.4928C40.5087 32.4001 42.2579 33.076 42.5 32C42.6897 31.1568 38.9301 27.866 35.5 28.0001C32.4996 28.1174 24.4225 28.6617 26 31.5C26.7029 32.7647 27.6009 32.9868 29.1266 32.9868Z" fill="white" stroke="#5DAE8B" stroke-width="0.5"/>
</g>
<rect x="9.1" y="9.1" width="49.8" height="49.8" rx="24.9" stroke="#5DAE8B" stroke-width="0.2"/>
</g>
<defs>
<filter id="filter0_d_11_629" x="0" y="0" width="68" height="68" filterUnits="userSpaceOnUse" color-interpolation-filters="sRGB">
<feFlood flood-opacity="0" result="BackgroundImageFix"/>
<feColorMatrix in="SourceAlpha" type="matrix" values="0 0 0 0 0 0 0 0 0 0 0 0 0 0 0 0 0 0 127 0" result="hardAlpha"/>
<feOffset/>
<feGaussianBlur stdDeviation="2"/>
<feComposite in2="hardAlpha" operator="out"/>
<feColorMatrix type="matrix" values="0 0 0 0 0.229671 0 0 0 0 0.229671 0 0 0 0 0.229671 0 0 0 0.2 0"/>
<feBlend mode="normal" in2="BackgroundImageFix" result="effect1_dropShadow_11_629"/>
<feBlend mode="normal" in="SourceGraphic" in2="effect1_dropShadow_11_629" result="shape"/>
</filter>
<clipPath id="clip0_11_629">
<rect x="9" y="9" width="50" height="50" rx="25" fill="white"/>
</clipPath>
</defs>
</svg>
