<svg width="68" height="68" viewBox="0 0 68 68" fill="none" xmlns="http://www.w3.org/2000/svg">
<g filter="url(#filter0_d_11_691)">
<rect x="4" y="4" width="60" height="60" rx="30" fill="white" shape-rendering="crispEdges"/>
<rect x="7.5" y="7.5" width="53" height="53" rx="26.5" fill="white"/>
<rect x="7.5" y="7.5" width="53" height="53" rx="26.5" stroke="#638FB6" stroke-width="2"/>
<rect x="9.1" y="9.1" width="49.8" height="49.8" rx="24.9" fill="white"/>
<rect x="9.1" y="9.1" width="49.8" height="49.8" rx="24.9" stroke="#638FB6" stroke-width="0.2"/>
<path d="M11 47L23 33.1741L25.1775 30.8142L26.0718 28.3599H27.9382L28.2881 29.2095L31.0488 26L33.3818 28.3599H33.6151L34.8982 29.4927L35.2871 31.003L36.0259 30.531L36.3758 31.003L37.1535 30.531L37.8534 31.003L39.4087 29.9646L40.2641 31.003L41.1973 30.1534L41.7417 31.003L43.7247 31.1918L43.9191 30.7198L44.1913 31.1918H44.4246L45.8244 29.1151L46.5243 31.1918H46.7576L46.8743 31.003L47.5 31L57.5 46" stroke="#638FB6" stroke-width="0.5"/>
<path d="M24.6432 31.0831C22.2055 31.564 22.3035 33.33 19.9409 34.1119C17.5783 34.8938 14.395 34.1699 12.9415 35.7062C11.4881 37.2426 11.9011 38.2521 12.9415 39.7008C13.4588 40.421 13.9759 41.24 14.737 41.6761C17.5156 43.2681 18.4133 43.3999 21.705 42.2028C22.8099 41.801 24.5885 41.275 25.7233 40.9737C27.7582 40.4336 29.2644 40.9811 31.3662 40.9737C34.3167 40.9634 35.8549 40.236 38.8044 40.3153C41.3769 40.3845 42.5818 41.8694 45.0029 40.9737C51.8855 38.4278 54.9634 39.613 55.9038 36.8475C56.8443 34.0821 50.6376 32.9509 48.1549 33.0145C45.6722 33.0782 42.0419 34.8143 42.0419 34.8143C42.0419 34.8143 36.3328 35.5964 32.8082 34.8143C29.3968 34.0573 28.0707 30.4069 24.6432 31.0831Z" fill="#EDEDED"/>
<path d="M11.8 35.2638V34.6818H16V35.2638H11.8ZM13.54 33.7938C13.54 33.9338 13.564 34.0598 13.612 34.1718C13.66 34.2798 13.728 34.3718 13.816 34.4478C13.904 34.5238 14.008 34.5818 14.128 34.6218C14.248 34.6618 14.378 34.6818 14.518 34.6818H16V35.2638H14.53C14.302 35.2638 14.092 35.2298 13.9 35.1618C13.704 35.0938 13.536 34.9978 13.396 34.8738C13.252 34.7458 13.14 34.5918 13.06 34.4118C12.98 34.2278 12.94 34.0218 12.94 33.7938C12.94 33.5658 12.98 33.3678 13.06 33.1998C13.14 33.0278 13.252 32.8818 13.396 32.7618C13.536 32.6418 13.704 32.5458 13.9 32.4738C14.092 32.4018 14.302 32.3518 14.53 32.3238L16 32.1438V32.7318L14.518 32.9178C14.378 32.9338 14.248 32.9638 14.128 33.0078C14.008 33.0478 13.906 33.1038 13.822 33.1758C13.734 33.2438 13.666 33.3298 13.618 33.4338C13.566 33.5338 13.54 33.6538 13.54 33.7938Z" fill="#638FB6"/>
<path d="M13.4745 29.0343L13.6137 28.4692L16.5266 29.1872L16.3873 29.7523L13.4745 29.0343ZM12.5557 28.8758C12.4508 28.85 12.375 28.7983 12.3282 28.7209C12.2784 28.6386 12.2664 28.545 12.2923 28.4401C12.3172 28.3392 12.3703 28.2657 12.4516 28.2199C12.5301 28.1692 12.6217 28.1567 12.7266 28.1826C12.8314 28.2084 12.9087 28.2625 12.9585 28.3448C13.0053 28.4222 13.0163 28.5115 12.9914 28.6124C12.9655 28.7173 12.9134 28.7951 12.835 28.8458C12.7536 28.8917 12.6605 28.9017 12.5557 28.8758Z" fill="#638FB6"/>
<path d="M16.3038 24.5709C16.4283 24.3336 16.4841 24.137 16.471 23.9811C16.4599 23.8216 16.359 23.6738 16.1684 23.5377L15.6653 23.1923L15.9358 22.6769L16.4283 23.0167C16.6507 23.1696 16.8052 23.3185 16.8918 23.4633C16.9768 23.6028 17.0051 23.7554 16.9768 23.9212C17.088 23.8125 17.2341 23.7536 17.415 23.7447C17.5959 23.7357 17.8018 23.7738 18.0327 23.8588L18.5921 24.0711L18.3217 24.5864L17.7516 24.3686C17.5296 24.2837 17.3499 24.2819 17.2123 24.3633C17.0747 24.4447 16.9436 24.6041 16.8191 24.8414L16.5291 25.3939L17.6023 25.9571L17.3318 26.4725L13.6129 24.5206L13.8834 24.0053L16.0138 25.1234L16.3038 24.5709Z" fill="#638FB6"/>
<path d="M19.3553 19.5543C19.2217 19.5482 19.0916 19.5745 18.9648 19.6332C18.8376 19.6862 18.7237 19.7696 18.6229 19.8834C18.4584 20.069 18.3742 20.2697 18.3703 20.4852C18.3663 20.7008 18.4351 20.9007 18.5765 21.0848L19.3553 19.5543ZM18.3493 21.6851C18.1787 21.5339 18.0453 21.3677 17.9494 21.1865C17.8531 20.9997 17.7963 20.8104 17.779 20.6188C17.7614 20.4215 17.785 20.2259 17.8498 20.0322C17.9146 19.8384 18.0226 19.6562 18.1738 19.4855C18.3011 19.3418 18.4416 19.2285 18.5952 19.1455C18.7459 19.0599 18.9026 19.0037 19.0653 18.9768C19.2251 18.9473 19.3867 18.9489 19.5502 18.9815C19.7163 19.0111 19.877 19.068 20.0323 19.1521L20.1625 19.2675L19.0355 21.4353C19.2127 21.5068 19.3906 21.5201 19.5692 21.4753C19.7505 21.4275 19.9141 21.3213 20.06 21.1566C20.1979 21.0009 20.2784 20.8317 20.3013 20.649C20.3243 20.4662 20.2939 20.2924 20.2103 20.1274L20.6161 19.6693C20.7183 19.8133 20.7942 19.966 20.8436 20.1274C20.8957 20.2857 20.9182 20.4473 20.9112 20.6121C20.9011 20.7742 20.8642 20.9365 20.8004 21.0991C20.7335 21.259 20.6364 21.4108 20.5091 21.5545C20.3579 21.7251 20.1916 21.8556 20.01 21.946C19.8285 22.0363 19.6432 22.0886 19.4542 22.1028C19.2649 22.1115 19.0746 22.0819 18.8835 22.0141C18.6951 21.9433 18.517 21.8337 18.3493 21.6851Z" fill="#638FB6"/>
<path d="M22.9292 16.0883C22.6757 16.2633 22.5227 16.4782 22.4702 16.7331C22.4188 16.9825 22.4771 17.229 22.6453 17.4726L23.4871 18.6923L23.0082 19.0229L22.1731 17.8131C22.0436 17.6255 21.9539 17.4322 21.9041 17.2333C21.8553 17.0288 21.8455 16.8314 21.8746 16.6412C21.9047 16.4455 21.9744 16.2613 22.0837 16.0886C22.193 15.916 22.3414 15.7649 22.5291 15.6354C22.6706 15.5377 22.8159 15.4666 22.965 15.422L23.299 15.9059C23.235 15.9258 23.1711 15.9529 23.1073 15.9872C23.0445 16.016 22.9851 16.0497 22.9292 16.0883Z" fill="#638FB6"/>
<path d="M25.8362 13.0207C25.7908 12.901 25.789 12.7947 25.8308 12.7019C25.8749 12.6039 25.953 12.5336 26.0652 12.491C26.1812 12.4471 26.2863 12.4479 26.3805 12.4934C26.4771 12.5338 26.5481 12.6138 26.5935 12.7335C26.6432 12.8644 26.6526 13.002 26.6217 13.1463L26.5432 13.5483L26.1561 13.6951L26.2381 13.2853C26.1567 13.3077 26.079 13.2944 26.0048 13.2455C25.9293 13.1929 25.873 13.1179 25.8362 13.0207Z" fill="#638FB6"/>
<path d="M31.9179 15.3078C31.4414 15.3657 31.0561 15.3118 30.762 15.146C30.4713 14.9758 30.2895 14.7057 30.2164 14.3359L30.8239 14.2621C30.8674 14.4543 30.9723 14.5886 31.1388 14.6651C31.3087 14.7371 31.5584 14.7531 31.888 14.7131C32.1421 14.6823 32.3353 14.6306 32.4676 14.5581C32.5993 14.4817 32.6582 14.3859 32.6442 14.2707C32.6167 14.0444 32.293 13.9669 31.6731 14.0381C31.1762 14.0944 30.7988 14.0717 30.5406 13.9701C30.2825 13.8685 30.1363 13.6767 30.1021 13.3948C30.0838 13.2439 30.1009 13.1028 30.1534 12.9715C30.21 12.8397 30.2945 12.7227 30.407 12.6204C30.5234 12.5176 30.6683 12.4335 30.8417 12.3681C31.0146 12.2988 31.2103 12.2509 31.4287 12.2243C31.8933 12.1679 32.2689 12.2251 32.5556 12.3958C32.8462 12.566 33.0298 12.8338 33.1064 13.1992L32.4929 13.2737C32.4499 13.0855 32.3455 12.9552 32.1795 12.8826C32.017 12.8057 31.7849 12.7855 31.4831 12.8221C31.2171 12.8544 31.013 12.9155 30.8707 13.0053C30.728 13.0911 30.6644 13.1976 30.6798 13.3246C30.6933 13.4358 30.7705 13.507 30.9113 13.5383C31.0516 13.5656 31.2831 13.5637 31.6057 13.5325C32.1467 13.4749 32.542 13.4954 32.7917 13.594C33.0449 13.6882 33.1884 13.8743 33.2221 14.1522C33.2602 14.4659 33.1626 14.7236 32.9292 14.9252C32.6958 15.1268 32.3587 15.2543 31.9179 15.3078Z" fill="#638FB6"/>
<path d="M40.7734 16.2274C40.5602 16.1465 40.3785 16.0391 40.2282 15.9051C40.0794 15.7674 39.9648 15.6127 39.8844 15.4411C39.8093 15.2671 39.7695 15.0787 39.7651 14.876C39.7644 14.6747 39.8045 14.4674 39.8854 14.2543C39.9662 14.0411 40.0743 13.8575 40.2097 13.7035C40.3503 13.5472 40.5071 13.427 40.6802 13.3429C40.8584 13.2565 41.0496 13.2092 41.2537 13.2011C41.4579 13.1929 41.6666 13.2293 41.8798 13.3101C42.0929 13.391 42.2732 13.5021 42.4206 13.6436C42.5681 13.7851 42.6779 13.9465 42.7503 14.128C42.8278 14.3071 42.8655 14.5011 42.8633 14.7099C42.8663 14.9163 42.8274 15.1262 42.7465 15.3394C42.6657 15.5525 42.5564 15.7335 42.4186 15.8824C42.2847 16.0326 42.13 16.1472 41.9546 16.2262C41.7843 16.3028 41.5979 16.3433 41.3951 16.3477C41.1938 16.3483 40.9866 16.3082 40.7734 16.2274ZM40.9861 15.6664C41.2517 15.7671 41.4954 15.7675 41.7172 15.6677C41.939 15.5679 42.1003 15.3852 42.201 15.1196C42.2506 14.9887 42.2743 14.8587 42.2719 14.7294C42.2734 14.6016 42.2504 14.4817 42.2031 14.3696C42.1595 14.259 42.0919 14.1606 42.0005 14.0746C41.9091 13.9886 41.7979 13.9208 41.667 13.8711C41.5361 13.8215 41.4079 13.7985 41.2824 13.8023C41.1569 13.806 41.0393 13.8342 40.9296 13.8867C40.8198 13.9391 40.7212 14.013 40.6338 14.1082C40.5501 14.2048 40.4834 14.3185 40.4338 14.4494C40.3331 14.715 40.3326 14.9586 40.4325 15.1805C40.536 15.4037 40.7206 15.5657 40.9861 15.6664Z" fill="#638FB6"/>
<path d="M46.1729 16.1588C46.0577 16.0793 45.9404 16.0275 45.8209 16.0033C45.7048 15.9815 45.5904 15.9852 45.4779 16.0144C45.3654 16.0437 45.2585 16.0963 45.1575 16.1724C45.0564 16.2484 44.9661 16.344 44.8865 16.4592L44.0447 17.6789L43.5657 17.3483L44.4007 16.1385C44.5303 15.9509 44.6775 15.7974 44.8426 15.678C45.0099 15.5553 45.1843 15.4716 45.3659 15.4268C45.553 15.381 45.7434 15.3763 45.937 15.4127C46.1338 15.4514 46.3261 15.5355 46.5137 15.665C46.7014 15.7945 46.8416 15.9399 46.9344 16.1012C47.0305 16.2648 47.0871 16.4399 47.104 16.6265C47.1233 16.8099 47.1068 17.0027 47.0547 17.2049C47.0049 17.4038 46.9268 17.6051 46.8203 17.8086L46.1334 19.1207L45.6495 18.7866L46.3383 17.4613C46.4046 17.337 46.4538 17.213 46.4858 17.0892C46.521 16.9677 46.5329 16.852 46.5213 16.742C46.5153 16.6309 46.4832 16.5261 46.4249 16.4275C46.3721 16.3279 46.2881 16.2383 46.1729 16.1588Z" fill="#638FB6"/>
<path d="M51.5798 25.0258L51.0538 25.3019C50.7337 24.8555 50.6001 24.4761 50.653 24.1638C50.7078 23.855 50.9512 23.5871 51.3833 23.3604L54.045 21.9634L54.3155 22.4787L51.6431 23.8813C51.5227 23.9445 51.4355 24.0151 51.3816 24.0931C51.3277 24.1711 51.3008 24.2575 51.3008 24.3523C51.3009 24.4471 51.3253 24.5495 51.374 24.6595C51.4245 24.773 51.4931 24.8951 51.5798 25.0258ZM53.6368 23.5871L53.0959 22.5564L53.5775 22.2088L54.1574 23.3138L53.6368 23.5871Z" fill="#638FB6"/>
<path d="M52.3362 28.8811C52.2816 28.6597 52.2668 28.4492 52.2917 28.2494C52.3205 28.0487 52.3827 27.8665 52.4784 27.7028C52.5788 27.5421 52.7112 27.4024 52.8756 27.2836C53.0409 27.1687 53.2342 27.084 53.4556 27.0294C53.677 26.9748 53.8895 26.9595 54.0931 26.9835C54.3016 27.0104 54.4896 27.0712 54.6571 27.1658C54.8295 27.2634 54.977 27.3939 55.0997 27.5573C55.2224 27.7207 55.311 27.9131 55.3655 28.1344C55.4201 28.3558 55.431 28.5673 55.3984 28.769C55.3657 28.9707 55.2952 29.1529 55.187 29.3155C55.0836 29.481 54.9454 29.6222 54.7723 29.739C54.6041 29.8588 54.4093 29.9459 54.1879 30.0005C53.9665 30.0551 53.7555 30.0679 53.5547 30.0391C53.355 30.0142 53.1728 29.952 53.0082 29.8525C52.8484 29.7559 52.7092 29.6255 52.5904 29.4611C52.4755 29.2958 52.3908 29.1025 52.3362 28.8811ZM52.9188 28.7375C52.9867 29.0133 53.1248 29.2141 53.333 29.3399C53.5411 29.4657 53.7831 29.4947 54.0588 29.4267C54.1948 29.3932 54.3152 29.3388 54.4203 29.2635C54.5262 29.192 54.6119 29.105 54.6773 29.0024C54.7435 28.9036 54.7861 28.7922 54.805 28.6681C54.8238 28.544 54.8165 28.414 54.783 28.278C54.7495 28.1421 54.6955 28.0236 54.6212 27.9224C54.5468 27.8213 54.4568 27.7405 54.3513 27.68C54.2458 27.6195 54.129 27.5803 54.001 27.5624C53.8739 27.5484 53.7425 27.5581 53.6065 27.5916C53.3308 27.6596 53.13 27.7977 53.0041 28.0058C52.8793 28.2179 52.8508 28.4618 52.9188 28.7375Z" fill="#638FB6"/>
<path d="M56.06 33.3998C56.06 33.6278 56.022 33.8358 55.946 34.0238C55.874 34.2118 55.77 34.3718 55.634 34.5038C55.502 34.6398 55.342 34.7438 55.154 34.8158C54.966 34.8918 54.758 34.9298 54.53 34.9298C54.302 34.9298 54.09 34.8918 53.894 34.8158C53.702 34.7438 53.534 34.6398 53.39 34.5038C53.25 34.3718 53.14 34.2118 53.06 34.0238C52.98 33.8358 52.94 33.6278 52.94 33.3998C52.94 33.1718 52.98 32.9638 53.06 32.7758C53.14 32.5878 53.25 32.4258 53.39 32.2898C53.534 32.1578 53.702 32.0538 53.894 31.9778C54.09 31.9058 54.302 31.8698 54.53 31.8698C54.758 31.8698 54.966 31.9058 55.154 31.9778C55.342 32.0538 55.502 32.1578 55.634 32.2898C55.77 32.4258 55.874 32.5878 55.946 32.7758C56.022 32.9638 56.06 33.1718 56.06 33.3998ZM51.8 32.4578V31.8698H56V32.4578H51.8ZM55.46 33.3998C55.46 33.1158 55.374 32.8878 55.202 32.7158C55.03 32.5438 54.802 32.4578 54.518 32.4578C54.378 32.4578 54.248 32.4798 54.128 32.5238C54.008 32.5718 53.904 32.6358 53.816 32.7158C53.732 32.7998 53.664 32.8998 53.612 33.0158C53.564 33.1318 53.54 33.2598 53.54 33.3998C53.54 33.5398 53.564 33.6678 53.612 33.7838C53.664 33.8998 53.732 33.9978 53.816 34.0778C53.904 34.1618 54.008 34.2258 54.128 34.2698C54.248 34.3178 54.378 34.3418 54.518 34.3418C54.802 34.3418 55.03 34.2558 55.202 34.0838C55.374 33.9118 55.46 33.6838 55.46 33.3998Z" fill="#638FB6"/>
<mask id="path-18-outside-1_11_691" maskUnits="userSpaceOnUse" x="24" y="49" width="20" height="8" fill="black">
<rect fill="white" x="24" y="49" width="20" height="8"/>
<path d="M30.022 53.29L27.832 52.444C27.256 52.966 26.398 53.278 25.486 53.284V52.36C26.272 52.348 27.04 52.018 27.346 51.478H25.576V50.56H30.196V51.478H28.468C28.45 51.55 28.42 51.622 28.39 51.688L30.406 52.45L30.022 53.29ZM30.478 53.656V54.592H28.402V55.744H27.37V54.592H25.294V53.656H30.478ZM36.0575 50.614V51.238H31.2575V50.614H33.1415V50.296H34.1735V50.614H36.0575ZM31.4075 52.048C31.4075 51.52 32.3435 51.352 33.6575 51.352C34.9715 51.352 35.9075 51.52 35.9075 52.048C35.9075 52.576 34.9715 52.744 33.6575 52.744C32.3435 52.744 31.4075 52.576 31.4075 52.048ZM34.9055 52.048C34.9055 51.946 34.3775 51.91 33.6575 51.91C32.9375 51.91 32.4095 51.946 32.4095 52.048C32.4095 52.15 32.9375 52.186 33.6575 52.186C34.3775 52.186 34.9055 52.15 34.9055 52.048ZM31.0655 52.888H36.2495V53.524H31.0655V52.888ZM32.3495 54.904V55.078H36.0035V55.624H31.3715V54.424H34.9715V54.25H31.3595V53.71H35.9495V54.904H32.3495ZM41.649 51.466H42.249V52.45H41.649V54.292H40.635V50.5H41.649V51.466ZM38.625 52.534C38.199 53.146 37.575 53.56 36.837 53.596V52.654C37.647 52.558 38.181 51.652 38.199 50.524L39.219 50.584C39.219 50.98 39.153 51.37 39.027 51.73L40.485 52.816L39.879 53.524L38.625 52.534ZM38.157 53.83V54.712H41.721V55.624H37.125V53.83H38.157Z"/>
</mask>
<path d="M30.022 53.29L27.832 52.444C27.256 52.966 26.398 53.278 25.486 53.284V52.36C26.272 52.348 27.04 52.018 27.346 51.478H25.576V50.56H30.196V51.478H28.468C28.45 51.55 28.42 51.622 28.39 51.688L30.406 52.45L30.022 53.29ZM30.478 53.656V54.592H28.402V55.744H27.37V54.592H25.294V53.656H30.478ZM36.0575 50.614V51.238H31.2575V50.614H33.1415V50.296H34.1735V50.614H36.0575ZM31.4075 52.048C31.4075 51.52 32.3435 51.352 33.6575 51.352C34.9715 51.352 35.9075 51.52 35.9075 52.048C35.9075 52.576 34.9715 52.744 33.6575 52.744C32.3435 52.744 31.4075 52.576 31.4075 52.048ZM34.9055 52.048C34.9055 51.946 34.3775 51.91 33.6575 51.91C32.9375 51.91 32.4095 51.946 32.4095 52.048C32.4095 52.15 32.9375 52.186 33.6575 52.186C34.3775 52.186 34.9055 52.15 34.9055 52.048ZM31.0655 52.888H36.2495V53.524H31.0655V52.888ZM32.3495 54.904V55.078H36.0035V55.624H31.3715V54.424H34.9715V54.25H31.3595V53.71H35.9495V54.904H32.3495ZM41.649 51.466H42.249V52.45H41.649V54.292H40.635V50.5H41.649V51.466ZM38.625 52.534C38.199 53.146 37.575 53.56 36.837 53.596V52.654C37.647 52.558 38.181 51.652 38.199 50.524L39.219 50.584C39.219 50.98 39.153 51.37 39.027 51.73L40.485 52.816L39.879 53.524L38.625 52.534ZM38.157 53.83V54.712H41.721V55.624H37.125V53.83H38.157Z" fill="#638FB6"/>
<path d="M30.022 53.29L29.6617 54.2228L30.54 54.5621L30.9315 53.7058L30.022 53.29ZM27.832 52.444L28.1923 51.5112L27.6173 51.289L27.1605 51.703L27.832 52.444ZM25.486 53.284H24.486V54.2906L25.4926 54.284L25.486 53.284ZM25.486 52.36L25.4707 51.3601L24.486 51.3752V52.36H25.486ZM27.346 51.478L28.216 51.971L29.0621 50.478H27.346V51.478ZM25.576 51.478H24.576V52.478H25.576V51.478ZM25.576 50.56V49.56H24.576V50.56H25.576ZM30.196 50.56H31.196V49.56H30.196V50.56ZM30.196 51.478V52.478H31.196V51.478H30.196ZM28.468 51.478V50.478H27.6872L27.4979 51.2355L28.468 51.478ZM28.39 51.688L27.4796 51.2742L27.0379 52.246L28.0364 52.6234L28.39 51.688ZM30.406 52.45L31.3155 52.8658L31.7602 51.8928L30.7596 51.5146L30.406 52.45ZM30.478 53.656H31.478V52.656H30.478V53.656ZM30.478 54.592V55.592H31.478V54.592H30.478ZM28.402 54.592V53.592H27.402V54.592H28.402ZM28.402 55.744V56.744H29.402V55.744H28.402ZM27.37 55.744H26.37V56.744H27.37V55.744ZM27.37 54.592H28.37V53.592H27.37V54.592ZM25.294 54.592H24.294V55.592H25.294V54.592ZM25.294 53.656V52.656H24.294V53.656H25.294ZM30.022 53.29L30.3823 52.3572L28.1923 51.5112L27.832 52.444L27.4717 53.3768L29.6617 54.2228L30.022 53.29ZM27.832 52.444L27.1605 51.703C26.7935 52.0355 26.1842 52.2794 25.4794 52.284L25.486 53.284L25.4926 54.284C26.6118 54.2766 27.7185 53.8965 28.5035 53.185L27.832 52.444ZM25.486 53.284H26.486V52.36H25.486H24.486V53.284H25.486ZM25.486 52.36L25.5013 53.3599C26.4695 53.3451 27.6642 52.9448 28.216 51.971L27.346 51.478L26.476 50.985C26.4158 51.0912 26.0745 51.3509 25.4707 51.3601L25.486 52.36ZM27.346 51.478V50.478H25.576V51.478V52.478H27.346V51.478ZM25.576 51.478H26.576V50.56H25.576H24.576V51.478H25.576ZM25.576 50.56V51.56H30.196V50.56V49.56H25.576V50.56ZM30.196 50.56H29.196V51.478H30.196H31.196V50.56H30.196ZM30.196 51.478V50.478H28.468V51.478V52.478H30.196V51.478ZM28.468 51.478L27.4979 51.2355C27.5012 51.2221 27.5031 51.2186 27.4996 51.2276C27.4963 51.2364 27.4904 51.2506 27.4796 51.2742L28.39 51.688L29.3004 52.1018C29.3361 52.0231 29.3973 51.8838 29.4381 51.7205L28.468 51.478ZM28.39 51.688L28.0364 52.6234L30.0524 53.3854L30.406 52.45L30.7596 51.5146L28.7436 50.7526L28.39 51.688ZM30.406 52.45L29.4965 52.0342L29.1125 52.8742L30.022 53.29L30.9315 53.7058L31.3155 52.8658L30.406 52.45ZM30.478 53.656H29.478V54.592H30.478H31.478V53.656H30.478ZM30.478 54.592V53.592H28.402V54.592V55.592H30.478V54.592ZM28.402 54.592H27.402V55.744H28.402H29.402V54.592H28.402ZM28.402 55.744V54.744H27.37V55.744V56.744H28.402V55.744ZM27.37 55.744H28.37V54.592H27.37H26.37V55.744H27.37ZM27.37 54.592V53.592H25.294V54.592V55.592H27.37V54.592ZM25.294 54.592H26.294V53.656H25.294H24.294V54.592H25.294ZM25.294 53.656V54.656H30.478V53.656V52.656H25.294V53.656ZM36.0575 50.614H37.0575V49.614H36.0575V50.614ZM36.0575 51.238V52.238H37.0575V51.238H36.0575ZM31.2575 51.238H30.2575V52.238H31.2575V51.238ZM31.2575 50.614V49.614H30.2575V50.614H31.2575ZM33.1415 50.614V51.614H34.1415V50.614H33.1415ZM33.1415 50.296V49.296H32.1415V50.296H33.1415ZM34.1735 50.296H35.1735V49.296H34.1735V50.296ZM34.1735 50.614H33.1735V51.614H34.1735V50.614ZM31.0655 52.888V51.888H30.0655V52.888H31.0655ZM36.2495 52.888H37.2495V51.888H36.2495V52.888ZM36.2495 53.524V54.524H37.2495V53.524H36.2495ZM31.0655 53.524H30.0655V54.524H31.0655V53.524ZM32.3495 54.904V53.904H31.3495V54.904H32.3495ZM32.3495 55.078H31.3495V56.078H32.3495V55.078ZM36.0035 55.078H37.0035V54.078H36.0035V55.078ZM36.0035 55.624V56.624H37.0035V55.624H36.0035ZM31.3715 55.624H30.3715V56.624H31.3715V55.624ZM31.3715 54.424V53.424H30.3715V54.424H31.3715ZM34.9715 54.424V55.424H35.9715V54.424H34.9715ZM34.9715 54.25H35.9715V53.25H34.9715V54.25ZM31.3595 54.25H30.3595V55.25H31.3595V54.25ZM31.3595 53.71V52.71H30.3595V53.71H31.3595ZM35.9495 53.71H36.9495V52.71H35.9495V53.71ZM35.9495 54.904V55.904H36.9495V54.904H35.9495ZM36.0575 50.614H35.0575V51.238H36.0575H37.0575V50.614H36.0575ZM36.0575 51.238V50.238H31.2575V51.238V52.238H36.0575V51.238ZM31.2575 51.238H32.2575V50.614H31.2575H30.2575V51.238H31.2575ZM31.2575 50.614V51.614H33.1415V50.614V49.614H31.2575V50.614ZM33.1415 50.614H34.1415V50.296H33.1415H32.1415V50.614H33.1415ZM33.1415 50.296V51.296H34.1735V50.296V49.296H33.1415V50.296ZM34.1735 50.296H33.1735V50.614H34.1735H35.1735V50.296H34.1735ZM34.1735 50.614V51.614H36.0575V50.614V49.614H34.1735V50.614ZM31.4075 52.048H32.4075C32.4075 52.261 32.2943 52.4183 32.2135 52.4855C32.1647 52.5261 32.1667 52.5037 32.3015 52.4671C32.5662 52.3953 33.0189 52.352 33.6575 52.352V51.352V50.352C32.982 50.352 32.3097 50.3927 31.778 50.5369C31.5145 50.6083 31.2004 50.7269 30.9351 50.9475C30.6376 51.1947 30.4075 51.571 30.4075 52.048H31.4075ZM33.6575 51.352V52.352C34.296 52.352 34.7487 52.3953 35.0135 52.4671C35.1483 52.5037 35.1503 52.5261 35.1015 52.4855C35.0206 52.4183 34.9075 52.261 34.9075 52.048H35.9075H36.9075C36.9075 51.571 36.6773 51.1947 36.3799 50.9475C36.1146 50.7269 35.8005 50.6083 35.537 50.5369C35.0052 50.3927 34.3329 50.352 33.6575 50.352V51.352ZM35.9075 52.048H34.9075C34.9075 51.835 35.0206 51.6777 35.1015 51.6105C35.1503 51.5699 35.1483 51.5923 35.0135 51.6289C34.7487 51.7007 34.296 51.744 33.6575 51.744V52.744V53.744C34.3329 53.744 35.0052 53.7033 35.537 53.5591C35.8005 53.4877 36.1146 53.3691 36.3799 53.1485C36.6773 52.9013 36.9075 52.525 36.9075 52.048H35.9075ZM33.6575 52.744V51.744C33.0189 51.744 32.5662 51.7007 32.3015 51.6289C32.1667 51.5923 32.1647 51.5699 32.2135 51.6105C32.2943 51.6777 32.4075 51.835 32.4075 52.048H31.4075H30.4075C30.4075 52.525 30.6376 52.9013 30.9351 53.1485C31.2004 53.3691 31.5145 53.4877 31.778 53.5591C32.3097 53.7033 32.982 53.744 33.6575 53.744V52.744ZM34.9055 52.048H35.9055C35.9055 51.5482 35.5726 51.2733 35.4427 51.1852C35.3001 51.0885 35.1609 51.0436 35.0917 51.0234C34.9394 50.979 34.7763 50.958 34.649 50.9455C34.3769 50.9189 34.0254 50.91 33.6575 50.91V51.91V52.91C34.0096 52.91 34.2821 52.9191 34.454 52.936C34.5487 52.9453 34.5625 52.9524 34.5317 52.9434C34.5233 52.9409 34.431 52.9156 34.3201 52.8404C34.2219 52.7738 33.9055 52.5223 33.9055 52.048H34.9055ZM33.6575 51.91V50.91C33.2896 50.91 32.9381 50.9189 32.666 50.9455C32.5387 50.958 32.3755 50.979 32.2232 51.0234C32.1541 51.0436 32.0149 51.0885 31.8723 51.1852C31.7424 51.2733 31.4095 51.5482 31.4095 52.048H32.4095H33.4095C33.4095 52.5223 33.0931 52.7738 32.9949 52.8404C32.884 52.9156 32.7917 52.9409 32.7832 52.9434C32.7524 52.9524 32.7663 52.9453 32.861 52.936C33.0329 52.9191 33.3054 52.91 33.6575 52.91V51.91ZM32.4095 52.048H31.4095C31.4095 52.5478 31.7424 52.8227 31.8723 52.9108C32.0149 53.0075 32.1541 53.0524 32.2232 53.0726C32.3755 53.117 32.5387 53.138 32.666 53.1505C32.9381 53.1771 33.2896 53.186 33.6575 53.186V52.186V51.186C33.3054 51.186 33.0329 51.1769 32.861 51.16C32.7663 51.1507 32.7524 51.1436 32.7832 51.1526C32.7917 51.1551 32.884 51.1804 32.9949 51.2556C33.0931 51.3222 33.4095 51.5737 33.4095 52.048H32.4095ZM33.6575 52.186V53.186C34.0254 53.186 34.3769 53.1771 34.649 53.1505C34.7763 53.138 34.9394 53.117 35.0917 53.0726C35.1609 53.0524 35.3001 53.0075 35.4427 52.9108C35.5726 52.8227 35.9055 52.5478 35.9055 52.048H34.9055H33.9055C33.9055 51.5737 34.2219 51.3222 34.3201 51.2556C34.431 51.1804 34.5233 51.1551 34.5317 51.1526C34.5625 51.1436 34.5487 51.1507 34.454 51.16C34.2821 51.1769 34.0096 51.186 33.6575 51.186V52.186ZM31.0655 52.888V53.888H36.2495V52.888V51.888H31.0655V52.888ZM36.2495 52.888H35.2495V53.524H36.2495H37.2495V52.888H36.2495ZM36.2495 53.524V52.524H31.0655V53.524V54.524H36.2495V53.524ZM31.0655 53.524H32.0655V52.888H31.0655H30.0655V53.524H31.0655ZM32.3495 54.904H31.3495V55.078H32.3495H33.3495V54.904H32.3495ZM32.3495 55.078V56.078H36.0035V55.078V54.078H32.3495V55.078ZM36.0035 55.078H35.0035V55.624H36.0035H37.0035V55.078H36.0035ZM36.0035 55.624V54.624H31.3715V55.624V56.624H36.0035V55.624ZM31.3715 55.624H32.3715V54.424H31.3715H30.3715V55.624H31.3715ZM31.3715 54.424V55.424H34.9715V54.424V53.424H31.3715V54.424ZM34.9715 54.424H35.9715V54.25H34.9715H33.9715V54.424H34.9715ZM34.9715 54.25V53.25H31.3595V54.25V55.25H34.9715V54.25ZM31.3595 54.25H32.3595V53.71H31.3595H30.3595V54.25H31.3595ZM31.3595 53.71V54.71H35.9495V53.71V52.71H31.3595V53.71ZM35.9495 53.71H34.9495V54.904H35.9495H36.9495V53.71H35.9495ZM35.9495 54.904V53.904H32.3495V54.904V55.904H35.9495V54.904ZM41.649 51.466H40.649V52.466H41.649V51.466ZM42.249 51.466H43.249V50.466H42.249V51.466ZM42.249 52.45V53.45H43.249V52.45H42.249ZM41.649 52.45V51.45H40.649V52.45H41.649ZM41.649 54.292V55.292H42.649V54.292H41.649ZM40.635 54.292H39.635V55.292H40.635V54.292ZM40.635 50.5V49.5H39.635V50.5H40.635ZM41.649 50.5H42.649V49.5H41.649V50.5ZM38.625 52.534L39.2446 51.7491L38.411 51.091L37.8042 51.9627L38.625 52.534ZM36.837 53.596H35.837V54.646L36.8857 54.5948L36.837 53.596ZM36.837 52.654L36.7193 51.6609L35.837 51.7655V52.654H36.837ZM38.199 50.524L38.2577 49.5257L37.2157 49.4644L37.1991 50.508L38.199 50.524ZM39.219 50.584H40.219V49.6411L39.2777 49.5857L39.219 50.584ZM39.027 51.73L38.0831 51.3996L37.8404 52.0931L38.4296 52.532L39.027 51.73ZM40.485 52.816L41.2447 53.4663L41.9405 52.6533L41.0823 52.014L40.485 52.816ZM39.879 53.524L39.2593 54.3089L40.0137 54.9044L40.6387 54.1743L39.879 53.524ZM38.157 53.83H39.157V52.83H38.157V53.83ZM38.157 54.712H37.157V55.712H38.157V54.712ZM41.721 54.712H42.721V53.712H41.721V54.712ZM41.721 55.624V56.624H42.721V55.624H41.721ZM37.125 55.624H36.125V56.624H37.125V55.624ZM37.125 53.83V52.83H36.125V53.83H37.125ZM41.649 51.466V52.466H42.249V51.466V50.466H41.649V51.466ZM42.249 51.466H41.249V52.45H42.249H43.249V51.466H42.249ZM42.249 52.45V51.45H41.649V52.45V53.45H42.249V52.45ZM41.649 52.45H40.649V54.292H41.649H42.649V52.45H41.649ZM41.649 54.292V53.292H40.635V54.292V55.292H41.649V54.292ZM40.635 54.292H41.635V50.5H40.635H39.635V54.292H40.635ZM40.635 50.5V51.5H41.649V50.5V49.5H40.635V50.5ZM41.649 50.5H40.649V51.466H41.649H42.649V50.5H41.649ZM38.625 52.534L37.8042 51.9627C37.5169 52.3755 37.155 52.5793 36.7882 52.5972L36.837 53.596L36.8857 54.5948C37.995 54.5407 38.881 53.9165 39.4457 53.1053L38.625 52.534ZM36.837 53.596H37.837V52.654H36.837H35.837V53.596H36.837ZM36.837 52.654L36.9547 53.647C37.7303 53.5551 38.3066 53.0766 38.6632 52.5057C39.0152 51.9419 39.1876 51.2468 39.1988 50.54L38.199 50.524L37.1991 50.508C37.1924 50.9292 37.0887 51.2511 36.9668 51.4463C36.8493 51.6344 36.7537 51.6569 36.7193 51.6609L36.837 52.654ZM38.199 50.524L38.1402 51.5223L39.1602 51.5823L39.219 50.584L39.2777 49.5857L38.2577 49.5257L38.199 50.524ZM39.219 50.584H38.219C38.219 50.8701 38.1711 51.1483 38.0831 51.3996L39.027 51.73L39.9708 52.0604C40.1348 51.5917 40.219 51.0899 40.219 50.584H39.219ZM39.027 51.73L38.4296 52.532L39.8876 53.618L40.485 52.816L41.0823 52.014L39.6243 50.928L39.027 51.73ZM40.485 52.816L39.7253 52.1657L39.1193 52.8737L39.879 53.524L40.6387 54.1743L41.2447 53.4663L40.485 52.816ZM39.879 53.524L40.4986 52.7391L39.2446 51.7491L38.625 52.534L38.0053 53.3189L39.2593 54.3089L39.879 53.524ZM38.157 53.83H37.157V54.712H38.157H39.157V53.83H38.157ZM38.157 54.712V55.712H41.721V54.712V53.712H38.157V54.712ZM41.721 54.712H40.721V55.624H41.721H42.721V54.712H41.721ZM41.721 55.624V54.624H37.125V55.624V56.624H41.721V55.624ZM37.125 55.624H38.125V53.83H37.125H36.125V55.624H37.125ZM37.125 53.83V54.83H38.157V53.83V52.83H37.125V53.83Z" fill="white" mask="url(#path-18-outside-1_11_691)"/>
<mask id="path-20-outside-2_11_691" maskUnits="userSpaceOnUse" x="20" y="45" width="28" height="6" fill="black">
<rect fill="white" x="20" y="45" width="28" height="6"/>
<path d="M23.976 47.64V46.452H21.444V46.08H24.388V47.64H23.976ZM24.632 47.924V48.3H23.108V49.496H22.7V48.3H21.22V47.924H24.632ZM25.3157 47.452V46.604H27.8477V46.336H25.3157V46.04H28.2357V46.888H25.7037V47.156H28.2837V47.452H25.3157ZM25.0677 48.048V47.74H28.4797V48.048H25.0677ZM25.3037 49.376V48.336H28.2397V49.376H25.3037ZM25.6957 49.076H27.8477V48.636H25.6957V49.076ZM32.8404 46H33.2364V49.416H32.8404V46ZM31.2084 47.812C30.6124 47.812 30.1964 47.452 30.1964 46.936C30.1964 46.42 30.6124 46.06 31.2084 46.06C31.8004 46.06 32.2204 46.42 32.2204 46.936C32.2204 47.452 31.8004 47.812 31.2084 47.812ZM31.2084 46.388C30.8244 46.388 30.5764 46.624 30.5764 46.936C30.5764 47.248 30.8244 47.484 31.2084 47.484C31.5884 47.484 31.8364 47.248 31.8364 46.936C31.8364 46.624 31.5884 46.388 31.2084 46.388ZM30.0364 48.132H31.4324C31.8924 48.132 32.3084 48.096 32.5524 48V48.36C32.3084 48.452 31.9044 48.492 31.4364 48.492H31.4044V49.416H31.0084V48.492H30.0364V48.132ZM34.1321 47.324V46.552H36.6681V46.32H34.1321V46.04H37.0521V46.816H34.5161V47.044H37.1001V47.324H34.1321ZM33.8841 47.86V47.572H37.2961V47.86H33.8841ZM34.1201 49.376V48.608H36.6761V48.388H34.1121V48.108H37.0601V48.872H34.5041V49.096H37.1201V49.376H34.1201ZM40.7528 47.116C40.4568 47.576 39.8128 47.78 38.9608 47.78V47.436C39.9248 47.432 40.5288 47.14 40.5288 46.524V46.42H38.9608V46.084H40.9288V46.456C40.9288 46.56 40.9168 46.66 40.9008 46.752H41.6728V46H42.0688V47.868H41.6728V47.116H40.7528ZM39.5568 49.036H42.1048V49.372H39.1608V48.064H42.0688V48.4H39.5568V49.036ZM46.2725 47.384V47.764H45.7925V49.416H45.3965V46H45.7925V47.384H46.2725ZM43.2645 48.852H44.2165C44.5405 48.852 44.8925 48.788 45.1005 48.688V49.048C44.8925 49.152 44.5245 49.212 44.1965 49.212H42.8605V46.124H44.8325V46.484H43.2645V48.852Z"/>
</mask>
<path d="M23.976 47.64V46.452H21.444V46.08H24.388V47.64H23.976ZM24.632 47.924V48.3H23.108V49.496H22.7V48.3H21.22V47.924H24.632ZM25.3157 47.452V46.604H27.8477V46.336H25.3157V46.04H28.2357V46.888H25.7037V47.156H28.2837V47.452H25.3157ZM25.0677 48.048V47.74H28.4797V48.048H25.0677ZM25.3037 49.376V48.336H28.2397V49.376H25.3037ZM25.6957 49.076H27.8477V48.636H25.6957V49.076ZM32.8404 46H33.2364V49.416H32.8404V46ZM31.2084 47.812C30.6124 47.812 30.1964 47.452 30.1964 46.936C30.1964 46.42 30.6124 46.06 31.2084 46.06C31.8004 46.06 32.2204 46.42 32.2204 46.936C32.2204 47.452 31.8004 47.812 31.2084 47.812ZM31.2084 46.388C30.8244 46.388 30.5764 46.624 30.5764 46.936C30.5764 47.248 30.8244 47.484 31.2084 47.484C31.5884 47.484 31.8364 47.248 31.8364 46.936C31.8364 46.624 31.5884 46.388 31.2084 46.388ZM30.0364 48.132H31.4324C31.8924 48.132 32.3084 48.096 32.5524 48V48.36C32.3084 48.452 31.9044 48.492 31.4364 48.492H31.4044V49.416H31.0084V48.492H30.0364V48.132ZM34.1321 47.324V46.552H36.6681V46.32H34.1321V46.04H37.0521V46.816H34.5161V47.044H37.1001V47.324H34.1321ZM33.8841 47.86V47.572H37.2961V47.86H33.8841ZM34.1201 49.376V48.608H36.6761V48.388H34.1121V48.108H37.0601V48.872H34.5041V49.096H37.1201V49.376H34.1201ZM40.7528 47.116C40.4568 47.576 39.8128 47.78 38.9608 47.78V47.436C39.9248 47.432 40.5288 47.14 40.5288 46.524V46.42H38.9608V46.084H40.9288V46.456C40.9288 46.56 40.9168 46.66 40.9008 46.752H41.6728V46H42.0688V47.868H41.6728V47.116H40.7528ZM39.5568 49.036H42.1048V49.372H39.1608V48.064H42.0688V48.4H39.5568V49.036ZM46.2725 47.384V47.764H45.7925V49.416H45.3965V46H45.7925V47.384H46.2725ZM43.2645 48.852H44.2165C44.5405 48.852 44.8925 48.788 45.1005 48.688V49.048C44.8925 49.152 44.5245 49.212 44.1965 49.212H42.8605V46.124H44.8325V46.484H43.2645V48.852Z" fill="#638FB6"/>
<path d="M23.976 47.64H22.976V48.64H23.976V47.64ZM23.976 46.452H24.976V45.452H23.976V46.452ZM21.444 46.452H20.444V47.452H21.444V46.452ZM21.444 46.08V45.08H20.444V46.08H21.444ZM24.388 46.08H25.388V45.08H24.388V46.08ZM24.388 47.64V48.64H25.388V47.64H24.388ZM24.632 47.924H25.632V46.924H24.632V47.924ZM24.632 48.3V49.3H25.632V48.3H24.632ZM23.108 48.3V47.3H22.108V48.3H23.108ZM23.108 49.496V50.496H24.108V49.496H23.108ZM22.7 49.496H21.7V50.496H22.7V49.496ZM22.7 48.3H23.7V47.3H22.7V48.3ZM21.22 48.3H20.22V49.3H21.22V48.3ZM21.22 47.924V46.924H20.22V47.924H21.22ZM23.976 47.64H24.976V46.452H23.976H22.976V47.64H23.976ZM23.976 46.452V45.452H21.444V46.452V47.452H23.976V46.452ZM21.444 46.452H22.444V46.08H21.444H20.444V46.452H21.444ZM21.444 46.08V47.08H24.388V46.08V45.08H21.444V46.08ZM24.388 46.08H23.388V47.64H24.388H25.388V46.08H24.388ZM24.388 47.64V46.64H23.976V47.64V48.64H24.388V47.64ZM24.632 47.924H23.632V48.3H24.632H25.632V47.924H24.632ZM24.632 48.3V47.3H23.108V48.3V49.3H24.632V48.3ZM23.108 48.3H22.108V49.496H23.108H24.108V48.3H23.108ZM23.108 49.496V48.496H22.7V49.496V50.496H23.108V49.496ZM22.7 49.496H23.7V48.3H22.7H21.7V49.496H22.7ZM22.7 48.3V47.3H21.22V48.3V49.3H22.7V48.3ZM21.22 48.3H22.22V47.924H21.22H20.22V48.3H21.22ZM21.22 47.924V48.924H24.632V47.924V46.924H21.22V47.924ZM25.3157 47.452H24.3157V48.452H25.3157V47.452ZM25.3157 46.604V45.604H24.3157V46.604H25.3157ZM27.8477 46.604V47.604H28.8477V46.604H27.8477ZM27.8477 46.336H28.8477V45.336H27.8477V46.336ZM25.3157 46.336H24.3157V47.336H25.3157V46.336ZM25.3157 46.04V45.04H24.3157V46.04H25.3157ZM28.2357 46.04H29.2357V45.04H28.2357V46.04ZM28.2357 46.888V47.888H29.2357V46.888H28.2357ZM25.7037 46.888V45.888H24.7037V46.888H25.7037ZM25.7037 47.156H24.7037V48.156H25.7037V47.156ZM28.2837 47.156H29.2837V46.156H28.2837V47.156ZM28.2837 47.452V48.452H29.2837V47.452H28.2837ZM25.0677 48.048H24.0677V49.048H25.0677V48.048ZM25.0677 47.74V46.74H24.0677V47.74H25.0677ZM28.4797 47.74H29.4797V46.74H28.4797V47.74ZM28.4797 48.048V49.048H29.4797V48.048H28.4797ZM25.3037 49.376H24.3037V50.376H25.3037V49.376ZM25.3037 48.336V47.336H24.3037V48.336H25.3037ZM28.2397 48.336H29.2397V47.336H28.2397V48.336ZM28.2397 49.376V50.376H29.2397V49.376H28.2397ZM25.6957 49.076H24.6957V50.076H25.6957V49.076ZM27.8477 49.076V50.076H28.8477V49.076H27.8477ZM27.8477 48.636H28.8477V47.636H27.8477V48.636ZM25.6957 48.636V47.636H24.6957V48.636H25.6957ZM25.3157 47.452H26.3157V46.604H25.3157H24.3157V47.452H25.3157ZM25.3157 46.604V47.604H27.8477V46.604V45.604H25.3157V46.604ZM27.8477 46.604H28.8477V46.336H27.8477H26.8477V46.604H27.8477ZM27.8477 46.336V45.336H25.3157V46.336V47.336H27.8477V46.336ZM25.3157 46.336H26.3157V46.04H25.3157H24.3157V46.336H25.3157ZM25.3157 46.04V47.04H28.2357V46.04V45.04H25.3157V46.04ZM28.2357 46.04H27.2357V46.888H28.2357H29.2357V46.04H28.2357ZM28.2357 46.888V45.888H25.7037V46.888V47.888H28.2357V46.888ZM25.7037 46.888H24.7037V47.156H25.7037H26.7037V46.888H25.7037ZM25.7037 47.156V48.156H28.2837V47.156V46.156H25.7037V47.156ZM28.2837 47.156H27.2837V47.452H28.2837H29.2837V47.156H28.2837ZM28.2837 47.452V46.452H25.3157V47.452V48.452H28.2837V47.452ZM25.0677 48.048H26.0677V47.74H25.0677H24.0677V48.048H25.0677ZM25.0677 47.74V48.74H28.4797V47.74V46.74H25.0677V47.74ZM28.4797 47.74H27.4797V48.048H28.4797H29.4797V47.74H28.4797ZM28.4797 48.048V47.048H25.0677V48.048V49.048H28.4797V48.048ZM25.3037 49.376H26.3037V48.336H25.3037H24.3037V49.376H25.3037ZM25.3037 48.336V49.336H28.2397V48.336V47.336H25.3037V48.336ZM28.2397 48.336H27.2397V49.376H28.2397H29.2397V48.336H28.2397ZM28.2397 49.376V48.376H25.3037V49.376V50.376H28.2397V49.376ZM25.6957 49.076V50.076H27.8477V49.076V48.076H25.6957V49.076ZM27.8477 49.076H28.8477V48.636H27.8477H26.8477V49.076H27.8477ZM27.8477 48.636V47.636H25.6957V48.636V49.636H27.8477V48.636ZM25.6957 48.636H24.6957V49.076H25.6957H26.6957V48.636H25.6957ZM32.8404 46V45H31.8404V46H32.8404ZM33.2364 46H34.2364V45H33.2364V46ZM33.2364 49.416V50.416H34.2364V49.416H33.2364ZM32.8404 49.416H31.8404V50.416H32.8404V49.416ZM30.0364 48.132V47.132H29.0364V48.132H30.0364ZM32.5524 48H33.5524V46.5319L32.1863 47.0694L32.5524 48ZM32.5524 48.36L32.9052 49.2957L33.5524 49.0517V48.36H32.5524ZM31.4044 48.492V47.492H30.4044V48.492H31.4044ZM31.4044 49.416V50.416H32.4044V49.416H31.4044ZM31.0084 49.416H30.0084V50.416H31.0084V49.416ZM31.0084 48.492H32.0084V47.492H31.0084V48.492ZM30.0364 48.492H29.0364V49.492H30.0364V48.492ZM32.8404 46V47H33.2364V46V45H32.8404V46ZM33.2364 46H32.2364V49.416H33.2364H34.2364V46H33.2364ZM33.2364 49.416V48.416H32.8404V49.416V50.416H33.2364V49.416ZM32.8404 49.416H33.8404V46H32.8404H31.8404V49.416H32.8404ZM31.2084 47.812V46.812C31.1086 46.812 31.1005 46.783 31.1334 46.8114C31.1495 46.8254 31.1679 46.8477 31.1811 46.8768C31.1944 46.9062 31.1964 46.9287 31.1964 46.936H30.1964H29.1964C29.1964 47.4811 29.4241 47.9771 29.8245 48.3236C30.2143 48.661 30.7122 48.812 31.2084 48.812V47.812ZM30.1964 46.936H31.1964C31.1964 46.9433 31.1944 46.9658 31.1811 46.9952C31.1679 47.0243 31.1495 47.0466 31.1334 47.0606C31.1005 47.089 31.1086 47.06 31.2084 47.06V46.06V45.06C30.7122 45.06 30.2143 45.211 29.8245 45.5484C29.4241 45.8949 29.1964 46.3909 29.1964 46.936H30.1964ZM31.2084 46.06V47.06C31.3049 47.06 31.314 47.0883 31.283 47.0615C31.2676 47.0482 31.2494 47.0265 31.2361 46.9974C31.2227 46.968 31.2204 46.9447 31.2204 46.936H32.2204H33.2204C33.2204 46.3879 32.9893 45.8923 32.5898 45.5475C32.2008 45.2117 31.7039 45.06 31.2084 45.06V46.06ZM32.2204 46.936H31.2204C31.2204 46.9273 31.2227 46.904 31.2361 46.8746C31.2494 46.8455 31.2676 46.8238 31.283 46.8105C31.314 46.7837 31.3049 46.812 31.2084 46.812V47.812V48.812C31.7039 48.812 32.2008 48.6603 32.5898 48.3245C32.9893 47.9797 33.2204 47.4841 33.2204 46.936H32.2204ZM31.2084 46.388V45.388C30.812 45.388 30.4047 45.5119 30.0832 45.7983C29.7555 46.0903 29.5764 46.5011 29.5764 46.936H30.5764H31.5764C31.5764 47.0589 31.5213 47.1957 31.4136 47.2917C31.3121 47.3821 31.2208 47.388 31.2084 47.388V46.388ZM30.5764 46.936H29.5764C29.5764 47.3709 29.7555 47.7817 30.0832 48.0737C30.4047 48.3601 30.812 48.484 31.2084 48.484V47.484V46.484C31.2208 46.484 31.3121 46.4899 31.4136 46.5803C31.5213 46.6763 31.5764 46.8131 31.5764 46.936H30.5764ZM31.2084 47.484V48.484C31.6054 48.484 32.0117 48.3586 32.3318 48.0722C32.6576 47.7806 32.8364 47.3706 32.8364 46.936H31.8364H30.8364C30.8364 46.8134 30.8912 46.6774 30.998 46.5818C31.0991 46.4914 31.1914 46.484 31.2084 46.484V47.484ZM31.8364 46.936H32.8364C32.8364 46.5014 32.6576 46.0914 32.3318 45.7998C32.0117 45.5134 31.6054 45.388 31.2084 45.388V46.388V47.388C31.1914 47.388 31.0991 47.3806 30.998 47.2902C30.8912 47.1946 30.8364 47.0586 30.8364 46.936H31.8364ZM30.0364 48.132V49.132H31.4324V48.132V47.132H30.0364V48.132ZM31.4324 48.132V49.132C31.8893 49.132 32.4794 49.1033 32.9185 48.9306L32.5524 48L32.1863 47.0694C32.192 47.0672 32.1773 47.0733 32.134 47.0824C32.0925 47.0911 32.0365 47.1001 31.9647 47.1079C31.8199 47.1238 31.6393 47.132 31.4324 47.132V48.132ZM32.5524 48H31.5524V48.36H32.5524H33.5524V48H32.5524ZM32.5524 48.36L32.1996 47.4243C32.2001 47.4241 32.1952 47.426 32.1837 47.4292C32.1723 47.4324 32.1564 47.4364 32.1355 47.4408C32.0929 47.4497 32.0368 47.4588 31.966 47.4668C31.8233 47.483 31.6445 47.492 31.4364 47.492V48.492V49.492C31.9164 49.492 32.4787 49.4565 32.9052 49.2957L32.5524 48.36ZM31.4364 48.492V47.492H31.4044V48.492V49.492H31.4364V48.492ZM31.4044 48.492H30.4044V49.416H31.4044H32.4044V48.492H31.4044ZM31.4044 49.416V48.416H31.0084V49.416V50.416H31.4044V49.416ZM31.0084 49.416H32.0084V48.492H31.0084H30.0084V49.416H31.0084ZM31.0084 48.492V47.492H30.0364V48.492V49.492H31.0084V48.492ZM30.0364 48.492H31.0364V48.132H30.0364H29.0364V48.492H30.0364ZM34.1321 47.324H33.1321V48.324H34.1321V47.324ZM34.1321 46.552V45.552H33.1321V46.552H34.1321ZM36.6681 46.552V47.552H37.6681V46.552H36.6681ZM36.6681 46.32H37.6681V45.32H36.6681V46.32ZM34.1321 46.32H33.1321V47.32H34.1321V46.32ZM34.1321 46.04V45.04H33.1321V46.04H34.1321ZM37.0521 46.04H38.0521V45.04H37.0521V46.04ZM37.0521 46.816V47.816H38.0521V46.816H37.0521ZM34.5161 46.816V45.816H33.5161V46.816H34.5161ZM34.5161 47.044H33.5161V48.044H34.5161V47.044ZM37.1001 47.044H38.1001V46.044H37.1001V47.044ZM37.1001 47.324V48.324H38.1001V47.324H37.1001ZM33.8841 47.86H32.8841V48.86H33.8841V47.86ZM33.8841 47.572V46.572H32.8841V47.572H33.8841ZM37.2961 47.572H38.2961V46.572H37.2961V47.572ZM37.2961 47.86V48.86H38.2961V47.86H37.2961ZM34.1201 49.376H33.1201V50.376H34.1201V49.376ZM34.1201 48.608V47.608H33.1201V48.608H34.1201ZM36.6761 48.608V49.608H37.6761V48.608H36.6761ZM36.6761 48.388H37.6761V47.388H36.6761V48.388ZM34.1121 48.388H33.1121V49.388H34.1121V48.388ZM34.1121 48.108V47.108H33.1121V48.108H34.1121ZM37.0601 48.108H38.0601V47.108H37.0601V48.108ZM37.0601 48.872V49.872H38.0601V48.872H37.0601ZM34.5041 48.872V47.872H33.5041V48.872H34.5041ZM34.5041 49.096H33.5041V50.096H34.5041V49.096ZM37.1201 49.096H38.1201V48.096H37.1201V49.096ZM37.1201 49.376V50.376H38.1201V49.376H37.1201ZM34.1321 47.324H35.1321V46.552H34.1321H33.1321V47.324H34.1321ZM34.1321 46.552V47.552H36.6681V46.552V45.552H34.1321V46.552ZM36.6681 46.552H37.6681V46.32H36.6681H35.6681V46.552H36.6681ZM36.6681 46.32V45.32H34.1321V46.32V47.32H36.6681V46.32ZM34.1321 46.32H35.1321V46.04H34.1321H33.1321V46.32H34.1321ZM34.1321 46.04V47.04H37.0521V46.04V45.04H34.1321V46.04ZM37.0521 46.04H36.0521V46.816H37.0521H38.0521V46.04H37.0521ZM37.0521 46.816V45.816H34.5161V46.816V47.816H37.0521V46.816ZM34.5161 46.816H33.5161V47.044H34.5161H35.5161V46.816H34.5161ZM34.5161 47.044V48.044H37.1001V47.044V46.044H34.5161V47.044ZM37.1001 47.044H36.1001V47.324H37.1001H38.1001V47.044H37.1001ZM37.1001 47.324V46.324H34.1321V47.324V48.324H37.1001V47.324ZM33.8841 47.86H34.8841V47.572H33.8841H32.8841V47.86H33.8841ZM33.8841 47.572V48.572H37.2961V47.572V46.572H33.8841V47.572ZM37.2961 47.572H36.2961V47.86H37.2961H38.2961V47.572H37.2961ZM37.2961 47.86V46.86H33.8841V47.86V48.86H37.2961V47.86ZM34.1201 49.376H35.1201V48.608H34.1201H33.1201V49.376H34.1201ZM34.1201 48.608V49.608H36.6761V48.608V47.608H34.1201V48.608ZM36.6761 48.608H37.6761V48.388H36.6761H35.6761V48.608H36.6761ZM36.6761 48.388V47.388H34.1121V48.388V49.388H36.6761V48.388ZM34.1121 48.388H35.1121V48.108H34.1121H33.1121V48.388H34.1121ZM34.1121 48.108V49.108H37.0601V48.108V47.108H34.1121V48.108ZM37.0601 48.108H36.0601V48.872H37.0601H38.0601V48.108H37.0601ZM37.0601 48.872V47.872H34.5041V48.872V49.872H37.0601V48.872ZM34.5041 48.872H33.5041V49.096H34.5041H35.5041V48.872H34.5041ZM34.5041 49.096V50.096H37.1201V49.096V48.096H34.5041V49.096ZM37.1201 49.096H36.1201V49.376H37.1201H38.1201V49.096H37.1201ZM37.1201 49.376V48.376H34.1201V49.376V50.376H37.1201V49.376ZM40.7528 47.116V46.116H40.2071L39.9119 46.5749L40.7528 47.116ZM38.9608 47.78H37.9608V48.78H38.9608V47.78ZM38.9608 47.436L38.9567 46.436L37.9608 46.4401V47.436H38.9608ZM40.5288 46.42H41.5288V45.42H40.5288V46.42ZM38.9608 46.42H37.9608V47.42H38.9608V46.42ZM38.9608 46.084V45.084H37.9608V46.084H38.9608ZM40.9288 46.084H41.9288V45.084H40.9288V46.084ZM40.9008 46.752L39.9156 46.5807L39.7119 47.752H40.9008V46.752ZM41.6728 46.752V47.752H42.6728V46.752H41.6728ZM41.6728 46V45H40.6728V46H41.6728ZM42.0688 46H43.0688V45H42.0688V46ZM42.0688 47.868V48.868H43.0688V47.868H42.0688ZM41.6728 47.868H40.6728V48.868H41.6728V47.868ZM41.6728 47.116H42.6728V46.116H41.6728V47.116ZM39.5568 49.036H38.5568V50.036H39.5568V49.036ZM42.1048 49.036H43.1048V48.036H42.1048V49.036ZM42.1048 49.372V50.372H43.1048V49.372H42.1048ZM39.1608 49.372H38.1608V50.372H39.1608V49.372ZM39.1608 48.064V47.064H38.1608V48.064H39.1608ZM42.0688 48.064H43.0688V47.064H42.0688V48.064ZM42.0688 48.4V49.4H43.0688V48.4H42.0688ZM39.5568 48.4V47.4H38.5568V48.4H39.5568ZM40.7528 47.116L39.9119 46.5749C39.9105 46.577 39.9037 46.5876 39.8798 46.6049C39.8542 46.6235 39.8076 46.6507 39.7297 46.6785C39.5675 46.7363 39.3161 46.78 38.9608 46.78V47.78V48.78C39.8808 48.78 41.0036 48.5743 41.5938 47.6571L40.7528 47.116ZM38.9608 47.78H39.9608V47.436H38.9608H37.9608V47.78H38.9608ZM38.9608 47.436L38.965 48.436C39.5193 48.4337 40.1068 48.3526 40.5911 48.0841C41.1406 47.7795 41.5288 47.239 41.5288 46.524H40.5288H39.5288C39.5288 46.5072 39.5353 46.4532 39.5727 46.3937C39.6072 46.3388 39.6392 46.3251 39.6215 46.3349C39.6002 46.3467 39.5396 46.3738 39.4207 46.397C39.3037 46.4199 39.15 46.4352 38.9567 46.436L38.9608 47.436ZM40.5288 46.524H41.5288V46.42H40.5288H39.5288V46.524H40.5288ZM40.5288 46.42V45.42H38.9608V46.42V47.42H40.5288V46.42ZM38.9608 46.42H39.9608V46.084H38.9608H37.9608V46.42H38.9608ZM38.9608 46.084V47.084H40.9288V46.084V45.084H38.9608V46.084ZM40.9288 46.084H39.9288V46.456H40.9288H41.9288V46.084H40.9288ZM40.9288 46.456H39.9288C39.9288 46.4847 39.9254 46.5244 39.9156 46.5807L40.9008 46.752L41.886 46.9233C41.9082 46.7956 41.9288 46.6353 41.9288 46.456H40.9288ZM40.9008 46.752V47.752H41.6728V46.752V45.752H40.9008V46.752ZM41.6728 46.752H42.6728V46H41.6728H40.6728V46.752H41.6728ZM41.6728 46V47H42.0688V46V45H41.6728V46ZM42.0688 46H41.0688V47.868H42.0688H43.0688V46H42.0688ZM42.0688 47.868V46.868H41.6728V47.868V48.868H42.0688V47.868ZM41.6728 47.868H42.6728V47.116H41.6728H40.6728V47.868H41.6728ZM41.6728 47.116V46.116H40.7528V47.116V48.116H41.6728V47.116ZM39.5568 49.036V50.036H42.1048V49.036V48.036H39.5568V49.036ZM42.1048 49.036H41.1048V49.372H42.1048H43.1048V49.036H42.1048ZM42.1048 49.372V48.372H39.1608V49.372V50.372H42.1048V49.372ZM39.1608 49.372H40.1608V48.064H39.1608H38.1608V49.372H39.1608ZM39.1608 48.064V49.064H42.0688V48.064V47.064H39.1608V48.064ZM42.0688 48.064H41.0688V48.4H42.0688H43.0688V48.064H42.0688ZM42.0688 48.4V47.4H39.5568V48.4V49.4H42.0688V48.4ZM39.5568 48.4H38.5568V49.036H39.5568H40.5568V48.4H39.5568ZM46.2725 47.384H47.2725V46.384H46.2725V47.384ZM46.2725 47.764V48.764H47.2725V47.764H46.2725ZM45.7925 47.764V46.764H44.7925V47.764H45.7925ZM45.7925 49.416V50.416H46.7925V49.416H45.7925ZM45.3965 49.416H44.3965V50.416H45.3965V49.416ZM45.3965 46V45H44.3965V46H45.3965ZM45.7925 46H46.7925V45H45.7925V46ZM45.7925 47.384H44.7925V48.384H45.7925V47.384ZM43.2645 48.852H42.2645V49.852H43.2645V48.852ZM45.1005 48.688H46.1005V47.0977L44.6672 47.7867L45.1005 48.688ZM45.1005 49.048L45.5477 49.9424L46.1005 49.666V49.048H45.1005ZM42.8605 49.212H41.8605V50.212H42.8605V49.212ZM42.8605 46.124V45.124H41.8605V46.124H42.8605ZM44.8325 46.124H45.8325V45.124H44.8325V46.124ZM44.8325 46.484V47.484H45.8325V46.484H44.8325ZM43.2645 46.484V45.484H42.2645V46.484H43.2645ZM46.2725 47.384H45.2725V47.764H46.2725H47.2725V47.384H46.2725ZM46.2725 47.764V46.764H45.7925V47.764V48.764H46.2725V47.764ZM45.7925 47.764H44.7925V49.416H45.7925H46.7925V47.764H45.7925ZM45.7925 49.416V48.416H45.3965V49.416V50.416H45.7925V49.416ZM45.3965 49.416H46.3965V46H45.3965H44.3965V49.416H45.3965ZM45.3965 46V47H45.7925V46V45H45.3965V46ZM45.7925 46H44.7925V47.384H45.7925H46.7925V46H45.7925ZM45.7925 47.384V48.384H46.2725V47.384V46.384H45.7925V47.384ZM43.2645 48.852V49.852H44.2165V48.852V47.852H43.2645V48.852ZM44.2165 48.852V49.852C44.6283 49.852 45.1439 49.7767 45.5338 49.5893L45.1005 48.688L44.6672 47.7867C44.6712 47.7848 44.625 47.8048 44.5206 47.8241C44.4246 47.8418 44.3163 47.852 44.2165 47.852V48.852ZM45.1005 48.688H44.1005V49.048H45.1005H46.1005V48.688H45.1005ZM45.1005 49.048L44.6533 48.1536C44.6684 48.146 44.6651 48.1494 44.6355 48.1581C44.6082 48.1661 44.5694 48.1755 44.52 48.1842C44.4195 48.2019 44.3036 48.212 44.1965 48.212V49.212V50.212C44.5914 50.212 45.139 50.1468 45.5477 49.9424L45.1005 49.048ZM44.1965 49.212V48.212H42.8605V49.212V50.212H44.1965V49.212ZM42.8605 49.212H43.8605V46.124H42.8605H41.8605V49.212H42.8605ZM42.8605 46.124V47.124H44.8325V46.124V45.124H42.8605V46.124ZM44.8325 46.124H43.8325V46.484H44.8325H45.8325V46.124H44.8325ZM44.8325 46.484V45.484H43.2645V46.484V47.484H44.8325V46.484ZM43.2645 46.484H42.2645V48.852H43.2645H44.2645V46.484H43.2645Z" fill="white" mask="url(#path-20-outside-2_11_691)"/>
</g>
<defs>
<filter id="filter0_d_11_691" x="0" y="0" width="68" height="68" filterUnits="userSpaceOnUse" color-interpolation-filters="sRGB">
<feFlood flood-opacity="0" result="BackgroundImageFix"/>
<feColorMatrix in="SourceAlpha" type="matrix" values="0 0 0 0 0 0 0 0 0 0 0 0 0 0 0 0 0 0 127 0" result="hardAlpha"/>
<feOffset/>
<feGaussianBlur stdDeviation="2"/>
<feComposite in2="hardAlpha" operator="out"/>
<feColorMatrix type="matrix" values="0 0 0 0 0.229671 0 0 0 0 0.229671 0 0 0 0 0.229671 0 0 0 0.2 0"/>
<feBlend mode="normal" in2="BackgroundImageFix" result="effect1_dropShadow_11_691"/>
<feBlend mode="normal" in="SourceGraphic" in2="effect1_dropShadow_11_691" result="shape"/>
</filter>
</defs>
</svg>
