<svg width="68" height="68" viewBox="0 0 68 68" fill="none" xmlns="http://www.w3.org/2000/svg">
<g filter="url(#filter0_d_11_505)">
<rect x="4" y="4" width="60" height="60" rx="30" fill="white" shape-rendering="crispEdges"/>
<rect x="7.5" y="7.5" width="53" height="53" rx="26.5" fill="white"/>
<rect x="7.5" y="7.5" width="53" height="53" rx="26.5" stroke="#4B4B4B" stroke-width="2"/>
<g clip-path="url(#clip0_11_505)">
<rect x="9" y="9" width="50" height="50" rx="25" fill="white"/>
<path d="M11.8 35.2638V34.6818H16V35.2638H11.8ZM13.54 33.7938C13.54 33.9338 13.564 34.0598 13.612 34.1718C13.66 34.2798 13.728 34.3718 13.816 34.4478C13.904 34.5238 14.008 34.5818 14.128 34.6218C14.248 34.6618 14.378 34.6818 14.518 34.6818H16V35.2638H14.53C14.302 35.2638 14.092 35.2298 13.9 35.1618C13.704 35.0938 13.536 34.9978 13.396 34.8738C13.252 34.7458 13.14 34.5918 13.06 34.4118C12.98 34.2278 12.94 34.0218 12.94 33.7938C12.94 33.5658 12.98 33.3678 13.06 33.1998C13.14 33.0278 13.252 32.8818 13.396 32.7618C13.536 32.6418 13.704 32.5458 13.9 32.4738C14.092 32.4018 14.302 32.3518 14.53 32.3238L16 32.1438V32.7318L14.518 32.9178C14.378 32.9338 14.248 32.9638 14.128 33.0078C14.008 33.0478 13.906 33.1038 13.822 33.1758C13.734 33.2438 13.666 33.3298 13.618 33.4338C13.566 33.5338 13.54 33.6538 13.54 33.7938Z" fill="#4B4B4B"/>
<path d="M13.4745 29.0343L13.6137 28.4692L16.5266 29.1872L16.3873 29.7523L13.4745 29.0343ZM12.5557 28.8758C12.4508 28.85 12.375 28.7983 12.3282 28.7209C12.2784 28.6386 12.2664 28.545 12.2923 28.4401C12.3172 28.3392 12.3703 28.2657 12.4516 28.2199C12.5301 28.1692 12.6217 28.1567 12.7266 28.1826C12.8314 28.2084 12.9087 28.2625 12.9585 28.3448C13.0053 28.4222 13.0163 28.5115 12.9914 28.6124C12.9655 28.7173 12.9134 28.7951 12.835 28.8458C12.7536 28.8917 12.6605 28.9017 12.5557 28.8758Z" fill="#4B4B4B"/>
<path d="M16.3038 24.5709C16.4283 24.3336 16.4841 24.137 16.471 23.9811C16.4599 23.8216 16.359 23.6738 16.1684 23.5377L15.6653 23.1923L15.9358 22.6769L16.4283 23.0167C16.6507 23.1696 16.8052 23.3185 16.8918 23.4633C16.9768 23.6028 17.0051 23.7554 16.9768 23.9212C17.088 23.8125 17.2341 23.7536 17.415 23.7447C17.5959 23.7357 17.8018 23.7738 18.0327 23.8588L18.5921 24.0711L18.3217 24.5864L17.7516 24.3686C17.5296 24.2837 17.3499 24.2819 17.2123 24.3633C17.0747 24.4447 16.9436 24.6041 16.8191 24.8414L16.5291 25.3939L17.6023 25.9571L17.3318 26.4725L13.6129 24.5206L13.8834 24.0053L16.0138 25.1234L16.3038 24.5709Z" fill="#4B4B4B"/>
<path d="M19.3553 19.5543C19.2217 19.5482 19.0916 19.5745 18.9648 19.6332C18.8376 19.6862 18.7237 19.7696 18.6229 19.8834C18.4584 20.069 18.3742 20.2697 18.3703 20.4852C18.3663 20.7008 18.4351 20.9007 18.5765 21.0848L19.3553 19.5543ZM18.3493 21.6851C18.1787 21.5339 18.0453 21.3677 17.9494 21.1865C17.8531 20.9997 17.7963 20.8104 17.779 20.6188C17.7614 20.4215 17.785 20.2259 17.8498 20.0322C17.9146 19.8384 18.0226 19.6562 18.1738 19.4855C18.3011 19.3418 18.4416 19.2285 18.5952 19.1455C18.7459 19.0599 18.9026 19.0037 19.0653 18.9768C19.2251 18.9473 19.3867 18.9489 19.5502 18.9815C19.7163 19.0111 19.877 19.068 20.0323 19.1521L20.1625 19.2675L19.0355 21.4353C19.2127 21.5068 19.3906 21.5201 19.5692 21.4753C19.7505 21.4275 19.9141 21.3213 20.06 21.1566C20.1979 21.0009 20.2784 20.8317 20.3013 20.649C20.3243 20.4662 20.2939 20.2924 20.2103 20.1274L20.6161 19.6693C20.7183 19.8133 20.7942 19.966 20.8436 20.1274C20.8957 20.2857 20.9182 20.4473 20.9112 20.6121C20.9011 20.7742 20.8642 20.9365 20.8004 21.0991C20.7335 21.259 20.6364 21.4108 20.5091 21.5545C20.3579 21.7251 20.1916 21.8556 20.01 21.946C19.8285 22.0363 19.6432 22.0886 19.4542 22.1028C19.2649 22.1115 19.0746 22.0819 18.8835 22.0141C18.6951 21.9433 18.517 21.8337 18.3493 21.6851Z" fill="#4B4B4B"/>
<path d="M22.9292 16.0883C22.6757 16.2633 22.5227 16.4782 22.4702 16.7331C22.4188 16.9825 22.4771 17.229 22.6453 17.4726L23.4871 18.6923L23.0082 19.0229L22.1731 17.8131C22.0436 17.6255 21.9539 17.4322 21.9041 17.2333C21.8553 17.0288 21.8455 16.8314 21.8746 16.6412C21.9047 16.4455 21.9744 16.2613 22.0837 16.0886C22.193 15.916 22.3414 15.7649 22.5291 15.6354C22.6706 15.5377 22.8159 15.4666 22.965 15.422L23.299 15.9059C23.235 15.9258 23.1711 15.9529 23.1073 15.9872C23.0445 16.016 22.9851 16.0497 22.9292 16.0883Z" fill="#4B4B4B"/>
<path d="M25.8362 13.0207C25.7908 12.901 25.789 12.7947 25.8308 12.7019C25.8749 12.6039 25.953 12.5336 26.0652 12.491C26.1812 12.4471 26.2863 12.4479 26.3805 12.4934C26.4771 12.5338 26.5481 12.6138 26.5935 12.7335C26.6432 12.8644 26.6526 13.002 26.6217 13.1463L26.5432 13.5483L26.1561 13.6951L26.2381 13.2853C26.1567 13.3077 26.079 13.2944 26.0048 13.2455C25.9293 13.1929 25.873 13.1179 25.8362 13.0207Z" fill="#4B4B4B"/>
<path d="M31.9179 15.3078C31.4414 15.3657 31.0561 15.3118 30.762 15.146C30.4713 14.9758 30.2895 14.7057 30.2164 14.3359L30.8239 14.2621C30.8674 14.4543 30.9723 14.5886 31.1388 14.6651C31.3087 14.7371 31.5584 14.7531 31.888 14.7131C32.1421 14.6823 32.3353 14.6306 32.4676 14.5581C32.5993 14.4817 32.6582 14.3859 32.6442 14.2707C32.6167 14.0444 32.293 13.9669 31.6731 14.0381C31.1762 14.0944 30.7988 14.0717 30.5406 13.9701C30.2825 13.8685 30.1363 13.6767 30.1021 13.3948C30.0838 13.2439 30.1009 13.1028 30.1534 12.9715C30.21 12.8397 30.2945 12.7227 30.407 12.6204C30.5234 12.5176 30.6683 12.4335 30.8417 12.3681C31.0146 12.2988 31.2103 12.2509 31.4287 12.2243C31.8933 12.1679 32.2689 12.2251 32.5556 12.3958C32.8462 12.566 33.0298 12.8338 33.1064 13.1992L32.4929 13.2737C32.4499 13.0855 32.3455 12.9552 32.1795 12.8826C32.017 12.8057 31.7849 12.7855 31.4831 12.8221C31.2171 12.8544 31.013 12.9155 30.8707 13.0053C30.728 13.0911 30.6644 13.1976 30.6798 13.3246C30.6933 13.4358 30.7705 13.507 30.9113 13.5383C31.0516 13.5656 31.2831 13.5637 31.6057 13.5325C32.1467 13.4749 32.542 13.4954 32.7917 13.594C33.0449 13.6882 33.1884 13.8743 33.2221 14.1522C33.2602 14.4659 33.1626 14.7236 32.9292 14.9252C32.6958 15.1268 32.3587 15.2543 31.9179 15.3078Z" fill="#4B4B4B"/>
<path d="M40.7734 16.2274C40.5602 16.1465 40.3785 16.0391 40.2282 15.9051C40.0794 15.7674 39.9648 15.6127 39.8844 15.4411C39.8093 15.2671 39.7695 15.0787 39.7651 14.876C39.7644 14.6747 39.8045 14.4674 39.8854 14.2543C39.9662 14.0411 40.0743 13.8575 40.2097 13.7035C40.3503 13.5472 40.5071 13.427 40.6802 13.3429C40.8584 13.2565 41.0496 13.2092 41.2537 13.2011C41.4579 13.1929 41.6666 13.2293 41.8798 13.3101C42.0929 13.391 42.2732 13.5021 42.4206 13.6436C42.5681 13.7851 42.6779 13.9465 42.7503 14.128C42.8278 14.3071 42.8655 14.5011 42.8633 14.7099C42.8663 14.9163 42.8274 15.1262 42.7465 15.3394C42.6657 15.5525 42.5564 15.7335 42.4186 15.8824C42.2847 16.0326 42.13 16.1472 41.9546 16.2262C41.7843 16.3028 41.5979 16.3433 41.3951 16.3477C41.1938 16.3483 40.9866 16.3082 40.7734 16.2274ZM40.9861 15.6664C41.2517 15.7671 41.4954 15.7675 41.7172 15.6677C41.939 15.5679 42.1003 15.3852 42.201 15.1196C42.2506 14.9887 42.2743 14.8587 42.2719 14.7294C42.2734 14.6016 42.2504 14.4817 42.2031 14.3696C42.1595 14.259 42.0919 14.1606 42.0005 14.0746C41.9091 13.9886 41.7979 13.9208 41.667 13.8711C41.5361 13.8215 41.4079 13.7985 41.2824 13.8023C41.1569 13.806 41.0393 13.8342 40.9296 13.8867C40.8198 13.9391 40.7212 14.013 40.6338 14.1082C40.5501 14.2048 40.4834 14.3185 40.4338 14.4494C40.3331 14.715 40.3326 14.9586 40.4325 15.1805C40.536 15.4037 40.7206 15.5657 40.9861 15.6664Z" fill="#4B4B4B"/>
<path d="M46.1729 16.1588C46.0577 16.0793 45.9404 16.0275 45.8209 16.0033C45.7048 15.9815 45.5904 15.9852 45.4779 16.0144C45.3654 16.0437 45.2585 16.0963 45.1575 16.1724C45.0564 16.2484 44.9661 16.344 44.8865 16.4592L44.0447 17.6789L43.5657 17.3483L44.4007 16.1385C44.5303 15.9509 44.6775 15.7974 44.8426 15.678C45.0099 15.5553 45.1843 15.4716 45.3659 15.4268C45.553 15.381 45.7434 15.3763 45.937 15.4127C46.1338 15.4514 46.3261 15.5355 46.5137 15.665C46.7014 15.7945 46.8416 15.9399 46.9344 16.1012C47.0305 16.2648 47.0871 16.4399 47.104 16.6265C47.1233 16.8099 47.1068 17.0027 47.0547 17.2049C47.0049 17.4038 46.9268 17.6051 46.8203 17.8086L46.1334 19.1207L45.6495 18.7866L46.3383 17.4613C46.4046 17.337 46.4538 17.213 46.4858 17.0892C46.521 16.9677 46.5329 16.852 46.5213 16.742C46.5153 16.6309 46.4832 16.5261 46.4249 16.4275C46.3721 16.3279 46.2881 16.2383 46.1729 16.1588Z" fill="#4B4B4B"/>
<path d="M51.5798 25.0258L51.0538 25.3019C50.7337 24.8555 50.6001 24.4761 50.653 24.1638C50.7078 23.855 50.9512 23.5871 51.3833 23.3604L54.045 21.9634L54.3155 22.4787L51.6431 23.8813C51.5227 23.9445 51.4355 24.0151 51.3816 24.0931C51.3277 24.1711 51.3008 24.2575 51.3008 24.3523C51.3009 24.4471 51.3253 24.5495 51.374 24.6595C51.4245 24.773 51.4931 24.8951 51.5798 25.0258ZM53.6368 23.5871L53.0959 22.5564L53.5775 22.2088L54.1574 23.3138L53.6368 23.5871Z" fill="#4B4B4B"/>
<path d="M52.3362 28.8811C52.2816 28.6597 52.2668 28.4492 52.2917 28.2494C52.3205 28.0487 52.3827 27.8665 52.4784 27.7028C52.5788 27.5421 52.7112 27.4024 52.8756 27.2836C53.0409 27.1687 53.2342 27.084 53.4556 27.0294C53.677 26.9748 53.8895 26.9595 54.0931 26.9835C54.3016 27.0104 54.4896 27.0712 54.6571 27.1658C54.8295 27.2634 54.977 27.3939 55.0997 27.5573C55.2224 27.7207 55.311 27.9131 55.3655 28.1344C55.4201 28.3558 55.431 28.5673 55.3984 28.769C55.3657 28.9707 55.2952 29.1529 55.187 29.3155C55.0836 29.481 54.9454 29.6222 54.7723 29.739C54.6041 29.8588 54.4093 29.9459 54.1879 30.0005C53.9665 30.0551 53.7555 30.0679 53.5547 30.0391C53.355 30.0142 53.1728 29.952 53.0082 29.8525C52.8484 29.7559 52.7092 29.6255 52.5904 29.4611C52.4755 29.2958 52.3908 29.1025 52.3362 28.8811ZM52.9188 28.7375C52.9867 29.0133 53.1248 29.2141 53.333 29.3399C53.5411 29.4657 53.7831 29.4947 54.0588 29.4267C54.1948 29.3932 54.3152 29.3388 54.4203 29.2635C54.5262 29.192 54.6119 29.105 54.6773 29.0024C54.7435 28.9036 54.7861 28.7922 54.805 28.6681C54.8238 28.544 54.8165 28.414 54.783 28.278C54.7495 28.1421 54.6955 28.0236 54.6212 27.9224C54.5468 27.8213 54.4568 27.7405 54.3513 27.68C54.2458 27.6195 54.129 27.5803 54.001 27.5624C53.8739 27.5484 53.7425 27.5581 53.6065 27.5916C53.3308 27.6596 53.13 27.7977 53.0041 28.0058C52.8793 28.2179 52.8508 28.4618 52.9188 28.7375Z" fill="#4B4B4B"/>
<path d="M56.06 33.3998C56.06 33.6278 56.022 33.8358 55.946 34.0238C55.874 34.2118 55.77 34.3718 55.634 34.5038C55.502 34.6398 55.342 34.7438 55.154 34.8158C54.966 34.8918 54.758 34.9298 54.53 34.9298C54.302 34.9298 54.09 34.8918 53.894 34.8158C53.702 34.7438 53.534 34.6398 53.39 34.5038C53.25 34.3718 53.14 34.2118 53.06 34.0238C52.98 33.8358 52.94 33.6278 52.94 33.3998C52.94 33.1718 52.98 32.9638 53.06 32.7758C53.14 32.5878 53.25 32.4258 53.39 32.2898C53.534 32.1578 53.702 32.0538 53.894 31.9778C54.09 31.9058 54.302 31.8698 54.53 31.8698C54.758 31.8698 54.966 31.9058 55.154 31.9778C55.342 32.0538 55.502 32.1578 55.634 32.2898C55.77 32.4258 55.874 32.5878 55.946 32.7758C56.022 32.9638 56.06 33.1718 56.06 33.3998ZM51.8 32.4578V31.8698H56V32.4578H51.8ZM55.46 33.3998C55.46 33.1158 55.374 32.8878 55.202 32.7158C55.03 32.5438 54.802 32.4578 54.518 32.4578C54.378 32.4578 54.248 32.4798 54.128 32.5238C54.008 32.5718 53.904 32.6358 53.816 32.7158C53.732 32.7998 53.664 32.8998 53.612 33.0158C53.564 33.1318 53.54 33.2598 53.54 33.3998C53.54 33.5398 53.564 33.6678 53.612 33.7838C53.664 33.8998 53.732 33.9978 53.816 34.0778C53.904 34.1618 54.008 34.2258 54.128 34.2698C54.248 34.3178 54.378 34.3418 54.518 34.3418C54.802 34.3418 55.03 34.2558 55.202 34.0838C55.374 33.9118 55.46 33.6838 55.46 33.3998Z" fill="#4B4B4B"/>
<mask id="path-17-outside-1_11_505" maskUnits="userSpaceOnUse" x="25" y="48" width="20" height="8" fill="black">
<rect fill="white" x="25" y="48" width="20" height="8"/>
<path d="M31.022 52.29L28.832 51.444C28.256 51.966 27.398 52.278 26.486 52.284V51.36C27.272 51.348 28.04 51.018 28.346 50.478H26.576V49.56H31.196V50.478H29.468C29.45 50.55 29.42 50.622 29.39 50.688L31.406 51.45L31.022 52.29ZM31.478 52.656V53.592H29.402V54.744H28.37V53.592H26.294V52.656H31.478ZM35.5815 52.386C35.2635 52.524 34.7475 52.572 34.2375 52.572H32.0655V51.804H33.2655V51.54C32.5875 51.426 32.1795 51.066 32.1795 50.514C32.1795 49.848 32.7975 49.446 33.7635 49.446C34.7295 49.446 35.3475 49.848 35.3475 50.514C35.3475 51.066 34.9395 51.426 34.2615 51.54V51.804C34.7355 51.804 35.2635 51.756 35.5815 51.618V52.386ZM36.8895 50.472H37.4775V51.414H36.8895V52.674H35.8755V49.5H36.8895V50.472ZM33.1575 50.514C33.1575 50.724 33.3855 50.856 33.7635 50.856C34.1415 50.856 34.3695 50.724 34.3695 50.514C34.3695 50.304 34.1415 50.172 33.7635 50.172C33.3855 50.172 33.1575 50.304 33.1575 50.514ZM34.6455 52.752C36.0795 52.752 36.9375 53.04 36.9375 53.718C36.9375 54.396 36.0795 54.684 34.6455 54.684C33.2055 54.684 32.3475 54.396 32.3475 53.718C32.3475 53.04 33.2055 52.752 34.6455 52.752ZM34.6455 53.958C35.4795 53.958 35.8695 53.886 35.8695 53.718C35.8695 53.55 35.4795 53.478 34.6455 53.478C33.8055 53.478 33.4155 53.55 33.4155 53.718C33.4155 53.886 33.8055 53.958 34.6455 53.958ZM42.649 50.466H43.249V51.45H42.649V53.292H41.635V49.5H42.649V50.466ZM39.625 51.534C39.199 52.146 38.575 52.56 37.837 52.596V51.654C38.647 51.558 39.181 50.652 39.199 49.524L40.219 49.584C40.219 49.98 40.153 50.37 40.027 50.73L41.485 51.816L40.879 52.524L39.625 51.534ZM39.157 52.83V53.712H42.721V54.624H38.125V52.83H39.157Z"/>
</mask>
<path d="M31.022 52.29L28.832 51.444C28.256 51.966 27.398 52.278 26.486 52.284V51.36C27.272 51.348 28.04 51.018 28.346 50.478H26.576V49.56H31.196V50.478H29.468C29.45 50.55 29.42 50.622 29.39 50.688L31.406 51.45L31.022 52.29ZM31.478 52.656V53.592H29.402V54.744H28.37V53.592H26.294V52.656H31.478ZM35.5815 52.386C35.2635 52.524 34.7475 52.572 34.2375 52.572H32.0655V51.804H33.2655V51.54C32.5875 51.426 32.1795 51.066 32.1795 50.514C32.1795 49.848 32.7975 49.446 33.7635 49.446C34.7295 49.446 35.3475 49.848 35.3475 50.514C35.3475 51.066 34.9395 51.426 34.2615 51.54V51.804C34.7355 51.804 35.2635 51.756 35.5815 51.618V52.386ZM36.8895 50.472H37.4775V51.414H36.8895V52.674H35.8755V49.5H36.8895V50.472ZM33.1575 50.514C33.1575 50.724 33.3855 50.856 33.7635 50.856C34.1415 50.856 34.3695 50.724 34.3695 50.514C34.3695 50.304 34.1415 50.172 33.7635 50.172C33.3855 50.172 33.1575 50.304 33.1575 50.514ZM34.6455 52.752C36.0795 52.752 36.9375 53.04 36.9375 53.718C36.9375 54.396 36.0795 54.684 34.6455 54.684C33.2055 54.684 32.3475 54.396 32.3475 53.718C32.3475 53.04 33.2055 52.752 34.6455 52.752ZM34.6455 53.958C35.4795 53.958 35.8695 53.886 35.8695 53.718C35.8695 53.55 35.4795 53.478 34.6455 53.478C33.8055 53.478 33.4155 53.55 33.4155 53.718C33.4155 53.886 33.8055 53.958 34.6455 53.958ZM42.649 50.466H43.249V51.45H42.649V53.292H41.635V49.5H42.649V50.466ZM39.625 51.534C39.199 52.146 38.575 52.56 37.837 52.596V51.654C38.647 51.558 39.181 50.652 39.199 49.524L40.219 49.584C40.219 49.98 40.153 50.37 40.027 50.73L41.485 51.816L40.879 52.524L39.625 51.534ZM39.157 52.83V53.712H42.721V54.624H38.125V52.83H39.157Z" fill="#4B4B4B"/>
<path d="M31.022 52.29L30.6617 53.2228L31.54 53.5621L31.9315 52.7058L31.022 52.29ZM28.832 51.444L29.1923 50.5112L28.6173 50.289L28.1605 50.703L28.832 51.444ZM26.486 52.284H25.486V53.2906L26.4926 53.284L26.486 52.284ZM26.486 51.36L26.4707 50.3601L25.486 50.3752V51.36H26.486ZM28.346 50.478L29.216 50.971L30.0621 49.478H28.346V50.478ZM26.576 50.478H25.576V51.478H26.576V50.478ZM26.576 49.56V48.56H25.576V49.56H26.576ZM31.196 49.56H32.196V48.56H31.196V49.56ZM31.196 50.478V51.478H32.196V50.478H31.196ZM29.468 50.478V49.478H28.6872L28.4979 50.2355L29.468 50.478ZM29.39 50.688L28.4796 50.2742L28.0379 51.246L29.0364 51.6234L29.39 50.688ZM31.406 51.45L32.3155 51.8658L32.7602 50.8928L31.7596 50.5146L31.406 51.45ZM31.478 52.656H32.478V51.656H31.478V52.656ZM31.478 53.592V54.592H32.478V53.592H31.478ZM29.402 53.592V52.592H28.402V53.592H29.402ZM29.402 54.744V55.744H30.402V54.744H29.402ZM28.37 54.744H27.37V55.744H28.37V54.744ZM28.37 53.592H29.37V52.592H28.37V53.592ZM26.294 53.592H25.294V54.592H26.294V53.592ZM26.294 52.656V51.656H25.294V52.656H26.294ZM31.022 52.29L31.3823 51.3572L29.1923 50.5112L28.832 51.444L28.4717 52.3768L30.6617 53.2228L31.022 52.29ZM28.832 51.444L28.1605 50.703C27.7935 51.0355 27.1842 51.2794 26.4794 51.284L26.486 52.284L26.4926 53.284C27.6118 53.2766 28.7185 52.8965 29.5035 52.185L28.832 51.444ZM26.486 52.284H27.486V51.36H26.486H25.486V52.284H26.486ZM26.486 51.36L26.5013 52.3599C27.4695 52.3451 28.6642 51.9448 29.216 50.971L28.346 50.478L27.476 49.985C27.4158 50.0912 27.0745 50.3509 26.4707 50.3601L26.486 51.36ZM28.346 50.478V49.478H26.576V50.478V51.478H28.346V50.478ZM26.576 50.478H27.576V49.56H26.576H25.576V50.478H26.576ZM26.576 49.56V50.56H31.196V49.56V48.56H26.576V49.56ZM31.196 49.56H30.196V50.478H31.196H32.196V49.56H31.196ZM31.196 50.478V49.478H29.468V50.478V51.478H31.196V50.478ZM29.468 50.478L28.4979 50.2355C28.5012 50.2221 28.5031 50.2186 28.4996 50.2276C28.4963 50.2364 28.4904 50.2506 28.4796 50.2742L29.39 50.688L30.3004 51.1018C30.3361 51.0231 30.3973 50.8838 30.4381 50.7205L29.468 50.478ZM29.39 50.688L29.0364 51.6234L31.0524 52.3854L31.406 51.45L31.7596 50.5146L29.7436 49.7526L29.39 50.688ZM31.406 51.45L30.4965 51.0342L30.1125 51.8742L31.022 52.29L31.9315 52.7058L32.3155 51.8658L31.406 51.45ZM31.478 52.656H30.478V53.592H31.478H32.478V52.656H31.478ZM31.478 53.592V52.592H29.402V53.592V54.592H31.478V53.592ZM29.402 53.592H28.402V54.744H29.402H30.402V53.592H29.402ZM29.402 54.744V53.744H28.37V54.744V55.744H29.402V54.744ZM28.37 54.744H29.37V53.592H28.37H27.37V54.744H28.37ZM28.37 53.592V52.592H26.294V53.592V54.592H28.37V53.592ZM26.294 53.592H27.294V52.656H26.294H25.294V53.592H26.294ZM26.294 52.656V53.656H31.478V52.656V51.656H26.294V52.656ZM35.5815 52.386L35.9796 53.3033L36.5815 53.0421V52.386H35.5815ZM32.0655 52.572H31.0655V53.572H32.0655V52.572ZM32.0655 51.804V50.804H31.0655V51.804H32.0655ZM33.2655 51.804V52.804H34.2655V51.804H33.2655ZM33.2655 51.54H34.2655V50.6941L33.4313 50.5538L33.2655 51.54ZM34.2615 51.54L34.0957 50.5538L33.2615 50.6941V51.54H34.2615ZM34.2615 51.804H33.2615V52.804H34.2615V51.804ZM35.5815 51.618H36.5815V50.0939L35.1834 50.7007L35.5815 51.618ZM36.8895 50.472H35.8895V51.472H36.8895V50.472ZM37.4775 50.472H38.4775V49.472H37.4775V50.472ZM37.4775 51.414V52.414H38.4775V51.414H37.4775ZM36.8895 51.414V50.414H35.8895V51.414H36.8895ZM36.8895 52.674V53.674H37.8895V52.674H36.8895ZM35.8755 52.674H34.8755V53.674H35.8755V52.674ZM35.8755 49.5V48.5H34.8755V49.5H35.8755ZM36.8895 49.5H37.8895V48.5H36.8895V49.5ZM35.5815 52.386L35.1834 51.4687C35.0713 51.5173 34.7395 51.572 34.2375 51.572V52.572V53.572C34.7554 53.572 35.4557 53.5307 35.9796 53.3033L35.5815 52.386ZM34.2375 52.572V51.572H32.0655V52.572V53.572H34.2375V52.572ZM32.0655 52.572H33.0655V51.804H32.0655H31.0655V52.572H32.0655ZM32.0655 51.804V52.804H33.2655V51.804V50.804H32.0655V51.804ZM33.2655 51.804H34.2655V51.54H33.2655H32.2655V51.804H33.2655ZM33.2655 51.54L33.4313 50.5538C33.3291 50.5367 33.2573 50.5135 33.2103 50.493C33.1638 50.4726 33.1478 50.4576 33.1483 50.4581C33.1507 50.4604 33.1625 50.473 33.1719 50.4949C33.1813 50.5165 33.1795 50.5266 33.1795 50.514H32.1795H31.1795C31.1795 51.0625 31.3932 51.558 31.7881 51.9244C32.1605 52.2698 32.6348 52.448 33.0997 52.5262L33.2655 51.54ZM32.1795 50.514H33.1795C33.1795 50.5071 33.1797 50.526 33.1651 50.5521C33.1517 50.5763 33.1424 50.5767 33.1645 50.562C33.2212 50.5241 33.401 50.446 33.7635 50.446V49.446V48.446C33.1599 48.446 32.5478 48.5689 32.054 48.8985C31.5218 49.2539 31.1795 49.8225 31.1795 50.514H32.1795ZM33.7635 49.446V50.446C34.1259 50.446 34.3058 50.5241 34.3625 50.562C34.3846 50.5767 34.3753 50.5763 34.3618 50.5521C34.3473 50.526 34.3475 50.5071 34.3475 50.514H35.3475H36.3475C36.3475 49.8225 36.0052 49.2539 35.473 48.8985C34.9792 48.5689 34.367 48.446 33.7635 48.446V49.446ZM35.3475 50.514H34.3475C34.3475 50.5266 34.3457 50.5165 34.355 50.4949C34.3645 50.473 34.3762 50.4604 34.3786 50.4581C34.3792 50.4576 34.3632 50.4726 34.3166 50.493C34.2697 50.5135 34.1978 50.5367 34.0957 50.5538L34.2615 51.54L34.4273 52.5262C34.8922 52.448 35.3665 52.2698 35.7388 51.9244C36.1338 51.558 36.3475 51.0625 36.3475 50.514H35.3475ZM34.2615 51.54H33.2615V51.804H34.2615H35.2615V51.54H34.2615ZM34.2615 51.804V52.804C34.745 52.804 35.4563 52.7624 35.9796 52.5353L35.5815 51.618L35.1834 50.7007C35.0707 50.7496 34.726 50.804 34.2615 50.804V51.804ZM35.5815 51.618H34.5815V52.386H35.5815H36.5815V51.618H35.5815ZM36.8895 50.472V51.472H37.4775V50.472V49.472H36.8895V50.472ZM37.4775 50.472H36.4775V51.414H37.4775H38.4775V50.472H37.4775ZM37.4775 51.414V50.414H36.8895V51.414V52.414H37.4775V51.414ZM36.8895 51.414H35.8895V52.674H36.8895H37.8895V51.414H36.8895ZM36.8895 52.674V51.674H35.8755V52.674V53.674H36.8895V52.674ZM35.8755 52.674H36.8755V49.5H35.8755H34.8755V52.674H35.8755ZM35.8755 49.5V50.5H36.8895V49.5V48.5H35.8755V49.5ZM36.8895 49.5H35.8895V50.472H36.8895H37.8895V49.5H36.8895ZM33.1575 50.514H32.1575C32.1575 51.0526 32.4777 51.436 32.8246 51.6331C33.135 51.8096 33.4789 51.856 33.7635 51.856V50.856V49.856C33.67 49.856 33.7109 49.8364 33.8129 49.8944C33.871 49.9274 33.9609 49.9934 34.0371 50.1104C34.1174 50.2338 34.1575 50.3763 34.1575 50.514H33.1575ZM33.7635 50.856V51.856C34.048 51.856 34.3919 51.8096 34.7024 51.6331C35.0493 51.436 35.3695 51.0526 35.3695 50.514H34.3695H33.3695C33.3695 50.3763 33.4096 50.2338 33.4899 50.1104C33.5661 49.9934 33.6559 49.9274 33.7141 49.8944C33.816 49.8364 33.8569 49.856 33.7635 49.856V50.856ZM34.3695 50.514H35.3695C35.3695 49.9754 35.0493 49.592 34.7024 49.3949C34.3919 49.2184 34.048 49.172 33.7635 49.172V50.172V51.172C33.8569 51.172 33.816 51.1916 33.7141 51.1336C33.6559 51.1006 33.5661 51.0346 33.4899 50.9175C33.4096 50.7942 33.3695 50.6517 33.3695 50.514H34.3695ZM33.7635 50.172V49.172C33.4789 49.172 33.135 49.2184 32.8246 49.3949C32.4777 49.592 32.1575 49.9754 32.1575 50.514H33.1575H34.1575C34.1575 50.6517 34.1174 50.7942 34.0371 50.9175C33.9609 51.0346 33.871 51.1006 33.8129 51.1336C33.7109 51.1916 33.67 51.172 33.7635 51.172V50.172ZM34.6455 52.752V53.752C35.3246 53.752 35.7444 53.8243 35.9594 53.9098C36.0586 53.9493 36.0519 53.9677 36.0155 53.9245C35.9641 53.8633 35.9375 53.7794 35.9375 53.718H36.9375H37.9375C37.9375 53.3176 37.8037 52.9435 37.5465 52.6376C37.3045 52.3497 36.9936 52.1689 36.6991 52.0517C36.1265 51.8237 35.4004 51.752 34.6455 51.752V52.752ZM36.9375 53.718H35.9375C35.9375 53.6566 35.9641 53.5727 36.0155 53.5115C36.0519 53.4683 36.0586 53.4867 35.9594 53.5262C35.7444 53.6117 35.3246 53.684 34.6455 53.684V54.684V55.684C35.4004 55.684 36.1265 55.6123 36.6991 55.3843C36.9936 55.2671 37.3045 55.0863 37.5465 54.7984C37.8037 54.4925 37.9375 54.1184 37.9375 53.718H36.9375ZM34.6455 54.684V53.684C33.9631 53.684 33.5416 53.6117 33.3257 53.5259C33.2261 53.4863 33.2328 53.4679 33.2692 53.5112C33.3209 53.5725 33.3475 53.6565 33.3475 53.718H32.3475H31.3475C31.3475 54.1185 31.4813 54.4927 31.7389 54.7988C31.9811 55.0867 32.2924 55.2674 32.5872 55.3846C33.1604 55.6123 33.8879 55.684 34.6455 55.684V54.684ZM32.3475 53.718H33.3475C33.3475 53.7795 33.3209 53.8635 33.2692 53.9248C33.2328 53.9681 33.2261 53.9497 33.3257 53.9101C33.5416 53.8243 33.9631 53.752 34.6455 53.752V52.752V51.752C33.8879 51.752 33.1604 51.8237 32.5872 52.0514C32.2924 52.1686 31.9811 52.3493 31.7389 52.6372C31.4813 52.9433 31.3475 53.3175 31.3475 53.718H32.3475ZM34.6455 53.958V54.958C35.0715 54.958 35.4585 54.9411 35.76 54.8828C35.9021 54.8554 36.1158 54.8028 36.3178 54.6791C36.5416 54.5421 36.8695 54.2309 36.8695 53.718H35.8695H34.8695C34.8695 53.5313 34.9278 53.3557 35.0246 53.2136C35.1136 53.0829 35.2148 53.0094 35.2732 52.9736C35.376 52.9107 35.4401 52.9076 35.3804 52.9192C35.2785 52.9389 35.0535 52.958 34.6455 52.958V53.958ZM35.8695 53.718H36.8695C36.8695 53.2051 36.5416 52.8939 36.3178 52.7569C36.1158 52.6332 35.9021 52.5806 35.76 52.5532C35.4585 52.4949 35.0715 52.478 34.6455 52.478V53.478V54.478C35.0535 54.478 35.2785 54.4971 35.3804 54.5168C35.4401 54.5284 35.376 54.5253 35.2732 54.4624C35.2148 54.4266 35.1136 54.3531 35.0246 54.2224C34.9278 54.0803 34.8695 53.9047 34.8695 53.718H35.8695ZM34.6455 53.478V52.478C34.2167 52.478 33.8284 52.4949 33.5264 52.553C33.3841 52.5805 33.1701 52.6328 32.968 52.7564C32.7438 52.8935 32.4155 53.2047 32.4155 53.718H33.4155H34.4155C34.4155 53.9047 34.3572 54.0804 34.2601 54.2228C34.1709 54.3536 34.0695 54.4271 34.0111 54.4628C33.9083 54.5257 33.8444 54.5285 33.9046 54.517C34.0075 54.4971 34.2342 54.478 34.6455 54.478V53.478ZM33.4155 53.718H32.4155C32.4155 54.2313 32.7438 54.5425 32.968 54.6796C33.1701 54.8032 33.3841 54.8555 33.5264 54.883C33.8284 54.9411 34.2167 54.958 34.6455 54.958V53.958V52.958C34.2342 52.958 34.0075 52.9389 33.9046 52.919C33.8444 52.9075 33.9083 52.9103 34.0111 52.9732C34.0695 53.0089 34.1709 53.0824 34.2601 53.2132C34.3572 53.3556 34.4155 53.5313 34.4155 53.718H33.4155ZM42.649 50.466H41.649V51.466H42.649V50.466ZM43.249 50.466H44.249V49.466H43.249V50.466ZM43.249 51.45V52.45H44.249V51.45H43.249ZM42.649 51.45V50.45H41.649V51.45H42.649ZM42.649 53.292V54.292H43.649V53.292H42.649ZM41.635 53.292H40.635V54.292H41.635V53.292ZM41.635 49.5V48.5H40.635V49.5H41.635ZM42.649 49.5H43.649V48.5H42.649V49.5ZM39.625 51.534L40.2446 50.7491L39.411 50.091L38.8042 50.9627L39.625 51.534ZM37.837 52.596H36.837V53.646L37.8857 53.5948L37.837 52.596ZM37.837 51.654L37.7193 50.6609L36.837 50.7655V51.654H37.837ZM39.199 49.524L39.2577 48.5257L38.2157 48.4644L38.1991 49.508L39.199 49.524ZM40.219 49.584H41.219V48.6411L40.2777 48.5857L40.219 49.584ZM40.027 50.73L39.0831 50.3996L38.8404 51.0931L39.4296 51.532L40.027 50.73ZM41.485 51.816L42.2447 52.4663L42.9405 51.6533L42.0823 51.014L41.485 51.816ZM40.879 52.524L40.2593 53.3089L41.0137 53.9044L41.6387 53.1743L40.879 52.524ZM39.157 52.83H40.157V51.83H39.157V52.83ZM39.157 53.712H38.157V54.712H39.157V53.712ZM42.721 53.712H43.721V52.712H42.721V53.712ZM42.721 54.624V55.624H43.721V54.624H42.721ZM38.125 54.624H37.125V55.624H38.125V54.624ZM38.125 52.83V51.83H37.125V52.83H38.125ZM42.649 50.466V51.466H43.249V50.466V49.466H42.649V50.466ZM43.249 50.466H42.249V51.45H43.249H44.249V50.466H43.249ZM43.249 51.45V50.45H42.649V51.45V52.45H43.249V51.45ZM42.649 51.45H41.649V53.292H42.649H43.649V51.45H42.649ZM42.649 53.292V52.292H41.635V53.292V54.292H42.649V53.292ZM41.635 53.292H42.635V49.5H41.635H40.635V53.292H41.635ZM41.635 49.5V50.5H42.649V49.5V48.5H41.635V49.5ZM42.649 49.5H41.649V50.466H42.649H43.649V49.5H42.649ZM39.625 51.534L38.8042 50.9627C38.5169 51.3755 38.155 51.5793 37.7882 51.5972L37.837 52.596L37.8857 53.5948C38.995 53.5407 39.881 52.9165 40.4457 52.1053L39.625 51.534ZM37.837 52.596H38.837V51.654H37.837H36.837V52.596H37.837ZM37.837 51.654L37.9547 52.647C38.7303 52.5551 39.3066 52.0766 39.6632 51.5057C40.0152 50.9419 40.1876 50.2468 40.1988 49.54L39.199 49.524L38.1991 49.508C38.1924 49.9292 38.0887 50.2511 37.9668 50.4463C37.8493 50.6344 37.7537 50.6569 37.7193 50.6609L37.837 51.654ZM39.199 49.524L39.1402 50.5223L40.1602 50.5823L40.219 49.584L40.2777 48.5857L39.2577 48.5257L39.199 49.524ZM40.219 49.584H39.219C39.219 49.8701 39.1711 50.1483 39.0831 50.3996L40.027 50.73L40.9708 51.0604C41.1348 50.5917 41.219 50.0899 41.219 49.584H40.219ZM40.027 50.73L39.4296 51.532L40.8876 52.618L41.485 51.816L42.0823 51.014L40.6243 49.928L40.027 50.73ZM41.485 51.816L40.7253 51.1657L40.1193 51.8737L40.879 52.524L41.6387 53.1743L42.2447 52.4663L41.485 51.816ZM40.879 52.524L41.4986 51.7391L40.2446 50.7491L39.625 51.534L39.0053 52.3189L40.2593 53.3089L40.879 52.524ZM39.157 52.83H38.157V53.712H39.157H40.157V52.83H39.157ZM39.157 53.712V54.712H42.721V53.712V52.712H39.157V53.712ZM42.721 53.712H41.721V54.624H42.721H43.721V53.712H42.721ZM42.721 54.624V53.624H38.125V54.624V55.624H42.721V54.624ZM38.125 54.624H39.125V52.83H38.125H37.125V54.624H38.125ZM38.125 52.83V53.83H39.157V52.83V51.83H38.125V52.83Z" fill="white" mask="url(#path-17-outside-1_11_505)"/>
<mask id="path-19-outside-2_11_505" maskUnits="userSpaceOnUse" x="19" y="43" width="30" height="7" fill="black">
<rect fill="white" x="19" y="43" width="30" height="7"/>
<path d="M23.012 48.416V45H23.408V48.416H23.012ZM20.38 48.204V47.828C21.312 47.824 21.872 47.1 21.872 45.956V45.488H20.38V45.124H22.276V45.948C22.276 47.316 21.548 48.204 20.38 48.204ZM27.6397 45.7V46.08H27.1597V46.856H26.7637V45H27.1597V45.7H27.6397ZM26.1877 45.904C26.1877 46.42 25.7797 46.772 25.1357 46.772C24.4877 46.772 24.0797 46.42 24.0797 45.904C24.0797 45.392 24.4877 45.036 25.1357 45.036C25.7797 45.036 26.1877 45.392 26.1877 45.904ZM24.4757 45.904C24.4757 46.244 24.7437 46.444 25.1357 46.444C25.5277 46.444 25.7917 46.244 25.7917 45.904C25.7917 45.564 25.5277 45.364 25.1357 45.364C24.7437 45.364 24.4757 45.564 24.4757 45.904ZM24.3437 48.372V47.044H27.1597V48.372H24.3437ZM24.7397 47.38V48.036H26.7637V47.38H24.7397ZM30.7153 45H31.1113V48.416H30.7153V45ZM29.6513 47.308V45.5H28.0673V45.132H30.0513V47.308H29.6513ZM28.9593 47.84H29.3113C29.7713 47.84 30.1873 47.8 30.4313 47.696V48.068C30.1873 48.168 29.7833 48.212 29.3153 48.212H27.9153V47.84H28.5593V46.416H28.9593V47.84ZM34.579 45H34.975V47.08H34.579V45.984H33.755V45.624H34.579V45ZM32.887 46.204C32.643 46.62 32.255 46.916 31.767 46.98V46.612C32.403 46.496 32.783 45.812 32.791 45.032L33.187 45.056C33.187 45.348 33.139 45.624 33.043 45.876L34.107 46.68L33.871 46.952L32.887 46.204ZM32.039 47.612V47.268H34.975V48.416H34.571V47.612H32.039ZM38.4146 48.416V45H38.8106V48.416H38.4146ZM36.7826 47.224C36.1666 47.224 35.7266 46.784 35.7266 46.148C35.7266 45.512 36.1666 45.072 36.7826 45.072C37.3946 45.072 37.8386 45.512 37.8386 46.148C37.8386 46.784 37.3946 47.224 36.7826 47.224ZM36.7826 46.864C37.1866 46.864 37.4506 46.556 37.4506 46.148C37.4506 45.74 37.1866 45.428 36.7826 45.428C36.3746 45.428 36.1146 45.74 36.1146 46.148C36.1146 46.556 36.3746 46.864 36.7826 46.864ZM35.6106 48.212V47.84H37.0066C37.4746 47.84 37.8946 47.788 38.1266 47.68V48.048C37.8986 48.152 37.4746 48.212 36.9826 48.212H35.6106ZM43.3714 48.416V45H43.7674V48.416H43.3714ZM40.7754 48.212V45.124H42.7114V48.212H40.7754ZM41.1714 47.84H42.3154V45.496H41.1714V47.84ZM46.735 45.312V45.628H44.415V45.312H45.375V44.94H45.775V45.312H46.735ZM47.999 45.872V46.252H47.519V47.18H47.123V45H47.519V45.872H47.999ZM45.575 47.136C45.007 47.136 44.563 46.888 44.563 46.472C44.563 46.06 45.007 45.812 45.575 45.812C46.139 45.812 46.583 46.06 46.583 46.472C46.583 46.888 46.143 47.136 45.575 47.136ZM45.575 46.112C45.191 46.112 44.947 46.264 44.947 46.472C44.947 46.684 45.191 46.836 45.575 46.836C45.955 46.836 46.203 46.684 46.203 46.472C46.203 46.264 45.955 46.112 45.575 46.112ZM44.631 47.704V47.364H47.519V48.416H47.119V47.704H44.631Z"/>
</mask>
<path d="M23.012 48.416V45H23.408V48.416H23.012ZM20.38 48.204V47.828C21.312 47.824 21.872 47.1 21.872 45.956V45.488H20.38V45.124H22.276V45.948C22.276 47.316 21.548 48.204 20.38 48.204ZM27.6397 45.7V46.08H27.1597V46.856H26.7637V45H27.1597V45.7H27.6397ZM26.1877 45.904C26.1877 46.42 25.7797 46.772 25.1357 46.772C24.4877 46.772 24.0797 46.42 24.0797 45.904C24.0797 45.392 24.4877 45.036 25.1357 45.036C25.7797 45.036 26.1877 45.392 26.1877 45.904ZM24.4757 45.904C24.4757 46.244 24.7437 46.444 25.1357 46.444C25.5277 46.444 25.7917 46.244 25.7917 45.904C25.7917 45.564 25.5277 45.364 25.1357 45.364C24.7437 45.364 24.4757 45.564 24.4757 45.904ZM24.3437 48.372V47.044H27.1597V48.372H24.3437ZM24.7397 47.38V48.036H26.7637V47.38H24.7397ZM30.7153 45H31.1113V48.416H30.7153V45ZM29.6513 47.308V45.5H28.0673V45.132H30.0513V47.308H29.6513ZM28.9593 47.84H29.3113C29.7713 47.84 30.1873 47.8 30.4313 47.696V48.068C30.1873 48.168 29.7833 48.212 29.3153 48.212H27.9153V47.84H28.5593V46.416H28.9593V47.84ZM34.579 45H34.975V47.08H34.579V45.984H33.755V45.624H34.579V45ZM32.887 46.204C32.643 46.62 32.255 46.916 31.767 46.98V46.612C32.403 46.496 32.783 45.812 32.791 45.032L33.187 45.056C33.187 45.348 33.139 45.624 33.043 45.876L34.107 46.68L33.871 46.952L32.887 46.204ZM32.039 47.612V47.268H34.975V48.416H34.571V47.612H32.039ZM38.4146 48.416V45H38.8106V48.416H38.4146ZM36.7826 47.224C36.1666 47.224 35.7266 46.784 35.7266 46.148C35.7266 45.512 36.1666 45.072 36.7826 45.072C37.3946 45.072 37.8386 45.512 37.8386 46.148C37.8386 46.784 37.3946 47.224 36.7826 47.224ZM36.7826 46.864C37.1866 46.864 37.4506 46.556 37.4506 46.148C37.4506 45.74 37.1866 45.428 36.7826 45.428C36.3746 45.428 36.1146 45.74 36.1146 46.148C36.1146 46.556 36.3746 46.864 36.7826 46.864ZM35.6106 48.212V47.84H37.0066C37.4746 47.84 37.8946 47.788 38.1266 47.68V48.048C37.8986 48.152 37.4746 48.212 36.9826 48.212H35.6106ZM43.3714 48.416V45H43.7674V48.416H43.3714ZM40.7754 48.212V45.124H42.7114V48.212H40.7754ZM41.1714 47.84H42.3154V45.496H41.1714V47.84ZM46.735 45.312V45.628H44.415V45.312H45.375V44.94H45.775V45.312H46.735ZM47.999 45.872V46.252H47.519V47.18H47.123V45H47.519V45.872H47.999ZM45.575 47.136C45.007 47.136 44.563 46.888 44.563 46.472C44.563 46.06 45.007 45.812 45.575 45.812C46.139 45.812 46.583 46.06 46.583 46.472C46.583 46.888 46.143 47.136 45.575 47.136ZM45.575 46.112C45.191 46.112 44.947 46.264 44.947 46.472C44.947 46.684 45.191 46.836 45.575 46.836C45.955 46.836 46.203 46.684 46.203 46.472C46.203 46.264 45.955 46.112 45.575 46.112ZM44.631 47.704V47.364H47.519V48.416H47.119V47.704H44.631Z" fill="#4B4B4B"/>
<path d="M23.012 48.416H22.012V49.416H23.012V48.416ZM23.012 45V44H22.012V45H23.012ZM23.408 45H24.408V44H23.408V45ZM23.408 48.416V49.416H24.408V48.416H23.408ZM20.38 48.204H19.38V49.204H20.38V48.204ZM20.38 47.828L20.3757 46.828L19.38 46.8323V47.828H20.38ZM21.872 45.488H22.872V44.488H21.872V45.488ZM20.38 45.488H19.38V46.488H20.38V45.488ZM20.38 45.124V44.124H19.38V45.124H20.38ZM22.276 45.124H23.276V44.124H22.276V45.124ZM23.012 48.416H24.012V45H23.012H22.012V48.416H23.012ZM23.012 45V46H23.408V45V44H23.012V45ZM23.408 45H22.408V48.416H23.408H24.408V45H23.408ZM23.408 48.416V47.416H23.012V48.416V49.416H23.408V48.416ZM20.38 48.204H21.38V47.828H20.38H19.38V48.204H20.38ZM20.38 47.828L20.3843 48.828C21.1343 48.8248 21.8025 48.5184 22.26 47.9396C22.6962 47.3878 22.872 46.6785 22.872 45.956H21.872H20.872C20.872 46.3775 20.7678 46.6022 20.691 46.6994C20.6355 46.7696 20.5577 46.8272 20.3757 46.828L20.38 47.828ZM21.872 45.956H22.872V45.488H21.872H20.872V45.956H21.872ZM21.872 45.488V44.488H20.38V45.488V46.488H21.872V45.488ZM20.38 45.488H21.38V45.124H20.38H19.38V45.488H20.38ZM20.38 45.124V46.124H22.276V45.124V44.124H20.38V45.124ZM22.276 45.124H21.276V45.948H22.276H23.276V45.124H22.276ZM22.276 45.948H21.276C21.276 46.4634 21.1389 46.7797 20.9983 46.9482C20.874 47.0971 20.6896 47.204 20.38 47.204V48.204V49.204C21.2384 49.204 22.002 48.8669 22.5337 48.2298C23.0491 47.6123 23.276 46.8006 23.276 45.948H22.276ZM27.6397 45.7H28.6397V44.7H27.6397V45.7ZM27.6397 46.08V47.08H28.6397V46.08H27.6397ZM27.1597 46.08V45.08H26.1597V46.08H27.1597ZM27.1597 46.856V47.856H28.1597V46.856H27.1597ZM26.7637 46.856H25.7637V47.856H26.7637V46.856ZM26.7637 45V44H25.7637V45H26.7637ZM27.1597 45H28.1597V44H27.1597V45ZM27.1597 45.7H26.1597V46.7H27.1597V45.7ZM24.3437 48.372H23.3437V49.372H24.3437V48.372ZM24.3437 47.044V46.044H23.3437V47.044H24.3437ZM27.1597 47.044H28.1597V46.044H27.1597V47.044ZM27.1597 48.372V49.372H28.1597V48.372H27.1597ZM24.7397 47.38V46.38H23.7397V47.38H24.7397ZM24.7397 48.036H23.7397V49.036H24.7397V48.036ZM26.7637 48.036V49.036H27.7637V48.036H26.7637ZM26.7637 47.38H27.7637V46.38H26.7637V47.38ZM27.6397 45.7H26.6397V46.08H27.6397H28.6397V45.7H27.6397ZM27.6397 46.08V45.08H27.1597V46.08V47.08H27.6397V46.08ZM27.1597 46.08H26.1597V46.856H27.1597H28.1597V46.08H27.1597ZM27.1597 46.856V45.856H26.7637V46.856V47.856H27.1597V46.856ZM26.7637 46.856H27.7637V45H26.7637H25.7637V46.856H26.7637ZM26.7637 45V46H27.1597V45V44H26.7637V45ZM27.1597 45H26.1597V45.7H27.1597H28.1597V45H27.1597ZM27.1597 45.7V46.7H27.6397V45.7V44.7H27.1597V45.7ZM26.1877 45.904H25.1877C25.1877 45.8994 25.189 45.875 25.2045 45.8412C25.2202 45.8069 25.2424 45.7804 25.2619 45.7641C25.2999 45.7324 25.2822 45.772 25.1357 45.772V46.772V47.772C25.6331 47.772 26.1414 47.6356 26.5444 47.2989C26.9634 46.9487 27.1877 46.4462 27.1877 45.904H26.1877ZM25.1357 46.772V45.772C24.9857 45.772 24.9669 45.7317 25.0048 45.7633C25.0244 45.7796 25.0468 45.8061 25.0626 45.8407C25.0783 45.8749 25.0797 45.8994 25.0797 45.904H24.0797H23.0797C23.0797 46.4464 23.3041 46.9494 23.7245 47.2997C24.1284 47.6363 24.6376 47.772 25.1357 47.772V46.772ZM24.0797 45.904H25.0797C25.0797 45.9106 25.0778 45.9358 25.0623 45.9696C25.0467 46.0037 25.0248 46.0295 25.0061 46.0452C24.9694 46.0759 24.9884 46.036 25.1357 46.036V45.036V44.036C24.6349 44.036 24.1259 44.1741 23.7232 44.5108C23.3053 44.8602 23.0797 45.3619 23.0797 45.904H24.0797ZM25.1357 45.036V46.036C25.2795 46.036 25.2975 46.0751 25.2607 46.0443C25.242 46.0286 25.2203 46.003 25.2048 45.9691C25.1895 45.9356 25.1877 45.9106 25.1877 45.904H26.1877H27.1877C27.1877 45.3621 26.9622 44.8609 26.5456 44.5117C26.1439 44.1749 25.6358 44.036 25.1357 44.036V45.036ZM24.4757 45.904H23.4757C23.4757 46.3636 23.6699 46.7921 24.0352 47.0834C24.3751 47.3544 24.7812 47.444 25.1357 47.444V46.444V45.444C25.0981 45.444 25.1743 45.4336 25.2821 45.5196C25.3387 45.5647 25.3919 45.6281 25.4289 45.7068C25.4655 45.7849 25.4757 45.8556 25.4757 45.904H24.4757ZM25.1357 46.444V47.444C25.4902 47.444 25.8973 47.3543 26.2374 47.0807C26.6025 46.7871 26.7917 46.3583 26.7917 45.904H25.7917H24.7917C24.7917 45.8578 24.8012 45.7885 24.8371 45.711C24.8735 45.6327 24.9264 45.5685 24.9839 45.5223C25.094 45.4337 25.1731 45.444 25.1357 45.444V46.444ZM25.7917 45.904H26.7917C26.7917 45.4497 26.6025 45.0209 26.2374 44.7273C25.8973 44.4537 25.4902 44.364 25.1357 44.364V45.364V46.364C25.1731 46.364 25.094 46.3743 24.9839 46.2857C24.9264 46.2395 24.8735 46.1753 24.8371 46.097C24.8012 46.0195 24.7917 45.9502 24.7917 45.904H25.7917ZM25.1357 45.364V44.364C24.7812 44.364 24.3751 44.4536 24.0352 44.7246C23.6699 45.0159 23.4757 45.4444 23.4757 45.904H24.4757H25.4757C25.4757 45.9524 25.4655 46.0231 25.4289 46.1012C25.3919 46.1799 25.3387 46.2433 25.2821 46.2884C25.1743 46.3744 25.0981 46.364 25.1357 46.364V45.364ZM24.3437 48.372H25.3437V47.044H24.3437H23.3437V48.372H24.3437ZM24.3437 47.044V48.044H27.1597V47.044V46.044H24.3437V47.044ZM27.1597 47.044H26.1597V48.372H27.1597H28.1597V47.044H27.1597ZM27.1597 48.372V47.372H24.3437V48.372V49.372H27.1597V48.372ZM24.7397 47.38H23.7397V48.036H24.7397H25.7397V47.38H24.7397ZM24.7397 48.036V49.036H26.7637V48.036V47.036H24.7397V48.036ZM26.7637 48.036H27.7637V47.38H26.7637H25.7637V48.036H26.7637ZM26.7637 47.38V46.38H24.7397V47.38V48.38H26.7637V47.38ZM30.7153 45V44H29.7153V45H30.7153ZM31.1113 45H32.1113V44H31.1113V45ZM31.1113 48.416V49.416H32.1113V48.416H31.1113ZM30.7153 48.416H29.7153V49.416H30.7153V48.416ZM29.6513 47.308H28.6513V48.308H29.6513V47.308ZM29.6513 45.5H30.6513V44.5H29.6513V45.5ZM28.0673 45.5H27.0673V46.5H28.0673V45.5ZM28.0673 45.132V44.132H27.0673V45.132H28.0673ZM30.0513 45.132H31.0513V44.132H30.0513V45.132ZM30.0513 47.308V48.308H31.0513V47.308H30.0513ZM28.9593 47.84H27.9593V48.84H28.9593V47.84ZM30.4313 47.696H31.4313V46.1827L30.0392 46.7761L30.4313 47.696ZM30.4313 48.068L30.8105 48.9933L31.4313 48.7389V48.068H30.4313ZM27.9153 48.212H26.9153V49.212H27.9153V48.212ZM27.9153 47.84V46.84H26.9153V47.84H27.9153ZM28.5593 47.84V48.84H29.5593V47.84H28.5593ZM28.5593 46.416V45.416H27.5593V46.416H28.5593ZM28.9593 46.416H29.9593V45.416H28.9593V46.416ZM30.7153 45V46H31.1113V45V44H30.7153V45ZM31.1113 45H30.1113V48.416H31.1113H32.1113V45H31.1113ZM31.1113 48.416V47.416H30.7153V48.416V49.416H31.1113V48.416ZM30.7153 48.416H31.7153V45H30.7153H29.7153V48.416H30.7153ZM29.6513 47.308H30.6513V45.5H29.6513H28.6513V47.308H29.6513ZM29.6513 45.5V44.5H28.0673V45.5V46.5H29.6513V45.5ZM28.0673 45.5H29.0673V45.132H28.0673H27.0673V45.5H28.0673ZM28.0673 45.132V46.132H30.0513V45.132V44.132H28.0673V45.132ZM30.0513 45.132H29.0513V47.308H30.0513H31.0513V45.132H30.0513ZM30.0513 47.308V46.308H29.6513V47.308V48.308H30.0513V47.308ZM28.9593 47.84V48.84H29.3113V47.84V46.84H28.9593V47.84ZM29.3113 47.84V48.84C29.7718 48.84 30.3733 48.8078 30.8234 48.6159L30.4313 47.696L30.0392 46.7761C30.0439 46.7741 29.9866 46.7957 29.8334 46.8141C29.6926 46.831 29.5155 46.84 29.3113 46.84V47.84ZM30.4313 47.696H29.4313V48.068H30.4313H31.4313V47.696H30.4313ZM30.4313 48.068L30.0521 47.1427C30.0542 47.1418 30.038 47.1484 29.9968 47.1579C29.9569 47.167 29.9033 47.1766 29.8346 47.1851C29.696 47.2022 29.5207 47.212 29.3153 47.212V48.212V49.212C29.7988 49.212 30.3727 49.1727 30.8105 48.9933L30.4313 48.068ZM29.3153 48.212V47.212H27.9153V48.212V49.212H29.3153V48.212ZM27.9153 48.212H28.9153V47.84H27.9153H26.9153V48.212H27.9153ZM27.9153 47.84V48.84H28.5593V47.84V46.84H27.9153V47.84ZM28.5593 47.84H29.5593V46.416H28.5593H27.5593V47.84H28.5593ZM28.5593 46.416V47.416H28.9593V46.416V45.416H28.5593V46.416ZM28.9593 46.416H27.9593V47.84H28.9593H29.9593V46.416H28.9593ZM34.579 45V44H33.579V45H34.579ZM34.975 45H35.975V44H34.975V45ZM34.975 47.08V48.08H35.975V47.08H34.975ZM34.579 47.08H33.579V48.08H34.579V47.08ZM34.579 45.984H35.579V44.984H34.579V45.984ZM33.755 45.984H32.755V46.984H33.755V45.984ZM33.755 45.624V44.624H32.755V45.624H33.755ZM34.579 45.624V46.624H35.579V45.624H34.579ZM32.887 46.204L33.4921 45.4079L32.5947 44.7257L32.0244 45.6981L32.887 46.204ZM31.767 46.98H30.767V48.1197L31.897 47.9715L31.767 46.98ZM31.767 46.612L31.5875 45.6282L30.767 45.7779V46.612H31.767ZM32.791 45.032L32.8515 44.0338L31.8018 43.9702L31.791 45.0217L32.791 45.032ZM33.187 45.056H34.187V44.1148L33.2475 44.0578L33.187 45.056ZM33.043 45.876L32.1085 45.52L31.8413 46.2214L32.4401 46.6738L33.043 45.876ZM34.107 46.68L34.8623 47.3354L35.5635 46.5272L34.7098 45.8822L34.107 46.68ZM33.871 46.952L33.2658 47.7481L34.012 48.3153L34.6263 47.6074L33.871 46.952ZM32.039 47.612H31.039V48.612H32.039V47.612ZM32.039 47.268V46.268H31.039V47.268H32.039ZM34.975 47.268H35.975V46.268H34.975V47.268ZM34.975 48.416V49.416H35.975V48.416H34.975ZM34.571 48.416H33.571V49.416H34.571V48.416ZM34.571 47.612H35.571V46.612H34.571V47.612ZM34.579 45V46H34.975V45V44H34.579V45ZM34.975 45H33.975V47.08H34.975H35.975V45H34.975ZM34.975 47.08V46.08H34.579V47.08V48.08H34.975V47.08ZM34.579 47.08H35.579V45.984H34.579H33.579V47.08H34.579ZM34.579 45.984V44.984H33.755V45.984V46.984H34.579V45.984ZM33.755 45.984H34.755V45.624H33.755H32.755V45.984H33.755ZM33.755 45.624V46.624H34.579V45.624V44.624H33.755V45.624ZM34.579 45.624H35.579V45H34.579H33.579V45.624H34.579ZM32.887 46.204L32.0244 45.6981C31.9112 45.891 31.7725 45.9707 31.6369 45.9885L31.767 46.98L31.897 47.9715C32.7374 47.8613 33.3747 47.349 33.7495 46.7099L32.887 46.204ZM31.767 46.98H32.767V46.612H31.767H30.767V46.98H31.767ZM31.767 46.612L31.9464 47.5958C33.2783 47.3528 33.7808 46.0292 33.7909 45.0423L32.791 45.032L31.791 45.0217C31.7886 45.2619 31.7278 45.4421 31.6646 45.544C31.6347 45.5922 31.61 45.6141 31.5994 45.622C31.591 45.6282 31.5889 45.628 31.5875 45.6282L31.767 46.612ZM32.791 45.032L32.7305 46.0302L33.1265 46.0542L33.187 45.056L33.2475 44.0578L32.8515 44.0338L32.791 45.032ZM33.187 45.056H32.187C32.187 45.2382 32.1571 45.3923 32.1085 45.52L33.043 45.876L33.9775 46.232C34.1208 45.8557 34.187 45.4578 34.187 45.056H33.187ZM33.043 45.876L32.4401 46.6738L33.5041 47.4778L34.107 46.68L34.7098 45.8822L33.6458 45.0782L33.043 45.876ZM34.107 46.68L33.3516 46.0246L33.1156 46.2966L33.871 46.952L34.6263 47.6074L34.8623 47.3354L34.107 46.68ZM33.871 46.952L34.4761 46.1559L33.4921 45.4079L32.887 46.204L32.2818 47.0001L33.2658 47.7481L33.871 46.952ZM32.039 47.612H33.039V47.268H32.039H31.039V47.612H32.039ZM32.039 47.268V48.268H34.975V47.268V46.268H32.039V47.268ZM34.975 47.268H33.975V48.416H34.975H35.975V47.268H34.975ZM34.975 48.416V47.416H34.571V48.416V49.416H34.975V48.416ZM34.571 48.416H35.571V47.612H34.571H33.571V48.416H34.571ZM34.571 47.612V46.612H32.039V47.612V48.612H34.571V47.612ZM38.4146 48.416H37.4146V49.416H38.4146V48.416ZM38.4146 45V44H37.4146V45H38.4146ZM38.8106 45H39.8106V44H38.8106V45ZM38.8106 48.416V49.416H39.8106V48.416H38.8106ZM35.6106 48.212H34.6106V49.212H35.6106V48.212ZM35.6106 47.84V46.84H34.6106V47.84H35.6106ZM38.1266 47.68H39.1266V46.1114L37.7046 46.7734L38.1266 47.68ZM38.1266 48.048L38.5416 48.9578L39.1266 48.691V48.048H38.1266ZM38.4146 48.416H39.4146V45H38.4146H37.4146V48.416H38.4146ZM38.4146 45V46H38.8106V45V44H38.4146V45ZM38.8106 45H37.8106V48.416H38.8106H39.8106V45H38.8106ZM38.8106 48.416V47.416H38.4146V48.416V49.416H38.8106V48.416ZM36.7826 47.224V46.224C36.7483 46.224 36.7322 46.2181 36.7294 46.2169C36.7269 46.2159 36.7305 46.2171 36.7354 46.2221C36.7403 46.227 36.7397 46.2289 36.7369 46.2217C36.7339 46.2141 36.7266 46.1912 36.7266 46.148H35.7266H34.7266C34.7266 46.7022 34.9222 47.2321 35.3118 47.6269C35.7019 48.0222 36.2296 48.224 36.7826 48.224V47.224ZM35.7266 46.148H36.7266C36.7266 46.1048 36.7339 46.0819 36.7369 46.0743C36.7397 46.0671 36.7403 46.069 36.7354 46.0739C36.7305 46.0789 36.7269 46.0801 36.7294 46.0791C36.7322 46.0779 36.7483 46.072 36.7826 46.072V45.072V44.072C36.2296 44.072 35.7019 44.2738 35.3118 44.6691C34.9222 45.0639 34.7266 45.5938 34.7266 46.148H35.7266ZM36.7826 45.072V46.072C36.8151 46.072 36.8307 46.0777 36.8337 46.0789C36.8365 46.08 36.8335 46.0792 36.8293 46.0748C36.825 46.0705 36.8258 46.0692 36.8286 46.0763C36.8314 46.0836 36.8386 46.1059 36.8386 46.148H37.8386H38.8386C38.8386 45.5912 38.6403 45.0617 38.251 44.6682C37.8616 44.2746 37.335 44.072 36.7826 44.072V45.072ZM37.8386 46.148H36.8386C36.8386 46.1901 36.8314 46.2124 36.8286 46.2197C36.8258 46.2268 36.825 46.2255 36.8293 46.2212C36.8335 46.2168 36.8365 46.216 36.8337 46.2171C36.8307 46.2183 36.8151 46.224 36.7826 46.224V47.224V48.224C37.335 48.224 37.8616 48.0214 38.251 47.6278C38.6403 47.2343 38.8386 46.7048 38.8386 46.148H37.8386ZM36.7826 46.864V47.864C37.254 47.864 37.6936 47.6771 38.0077 47.3321C38.3137 46.9959 38.4506 46.5663 38.4506 46.148H37.4506H36.4506C36.4506 46.1377 36.4556 46.0661 36.5286 45.9859C36.6096 45.8969 36.7152 45.864 36.7826 45.864V46.864ZM37.4506 46.148H38.4506C38.4506 45.7301 38.3141 45.3012 38.0103 44.9648C37.698 44.619 37.2582 44.428 36.7826 44.428V45.428V46.428C36.7532 46.428 36.7084 46.4219 36.6572 46.3995C36.606 46.3772 36.561 46.344 36.526 46.3052C36.4552 46.2268 36.4506 46.1579 36.4506 46.148H37.4506ZM36.7826 45.428V44.428C36.3071 44.428 35.8657 44.6176 35.552 44.9664C35.2478 45.3047 35.1146 45.7341 35.1146 46.148H36.1146H37.1146C37.1146 46.1539 37.1115 46.2233 37.0392 46.3036C37.0034 46.3435 36.9574 46.3773 36.9056 46.3999C36.8539 46.4224 36.8097 46.428 36.7826 46.428V45.428ZM36.1146 46.148H35.1146C35.1146 46.5623 35.2481 46.9923 35.5546 47.3305C35.87 47.6786 36.3113 47.864 36.7826 47.864V46.864V45.864C36.8079 45.864 36.8509 45.8692 36.9021 45.8912C36.9535 45.9134 36.9999 45.947 37.0366 45.9875C37.1111 46.0697 37.1146 46.1417 37.1146 46.148H36.1146ZM35.6106 48.212H36.6106V47.84H35.6106H34.6106V48.212H35.6106ZM35.6106 47.84V48.84H37.0066V47.84V46.84H35.6106V47.84ZM37.0066 47.84V48.84C37.4896 48.84 38.1026 48.7942 38.5487 48.5866L38.1266 47.68L37.7046 46.7734C37.7201 46.7662 37.6703 46.789 37.5187 46.8098C37.3816 46.8287 37.2066 46.84 37.0066 46.84V47.84ZM38.1266 47.68H37.1266V48.048H38.1266H39.1266V47.68H38.1266ZM38.1266 48.048L37.7116 47.1382C37.7227 47.1331 37.6668 47.157 37.5122 47.1791C37.3714 47.1992 37.1905 47.212 36.9826 47.212V48.212V49.212C37.5033 49.212 38.1088 49.1553 38.5416 48.9578L38.1266 48.048ZM36.9826 48.212V47.212H35.6106V48.212V49.212H36.9826V48.212ZM43.3714 48.416H42.3714V49.416H43.3714V48.416ZM43.3714 45V44H42.3714V45H43.3714ZM43.7674 45H44.7674V44H43.7674V45ZM43.7674 48.416V49.416H44.7674V48.416H43.7674ZM40.7754 48.212H39.7754V49.212H40.7754V48.212ZM40.7754 45.124V44.124H39.7754V45.124H40.7754ZM42.7114 45.124H43.7114V44.124H42.7114V45.124ZM42.7114 48.212V49.212H43.7114V48.212H42.7114ZM41.1714 47.84H40.1714V48.84H41.1714V47.84ZM42.3154 47.84V48.84H43.3154V47.84H42.3154ZM42.3154 45.496H43.3154V44.496H42.3154V45.496ZM41.1714 45.496V44.496H40.1714V45.496H41.1714ZM43.3714 48.416H44.3714V45H43.3714H42.3714V48.416H43.3714ZM43.3714 45V46H43.7674V45V44H43.3714V45ZM43.7674 45H42.7674V48.416H43.7674H44.7674V45H43.7674ZM43.7674 48.416V47.416H43.3714V48.416V49.416H43.7674V48.416ZM40.7754 48.212H41.7754V45.124H40.7754H39.7754V48.212H40.7754ZM40.7754 45.124V46.124H42.7114V45.124V44.124H40.7754V45.124ZM42.7114 45.124H41.7114V48.212H42.7114H43.7114V45.124H42.7114ZM42.7114 48.212V47.212H40.7754V48.212V49.212H42.7114V48.212ZM41.1714 47.84V48.84H42.3154V47.84V46.84H41.1714V47.84ZM42.3154 47.84H43.3154V45.496H42.3154H41.3154V47.84H42.3154ZM42.3154 45.496V44.496H41.1714V45.496V46.496H42.3154V45.496ZM41.1714 45.496H40.1714V47.84H41.1714H42.1714V45.496H41.1714ZM46.735 45.312H47.735V44.312H46.735V45.312ZM46.735 45.628V46.628H47.735V45.628H46.735ZM44.415 45.628H43.415V46.628H44.415V45.628ZM44.415 45.312V44.312H43.415V45.312H44.415ZM45.375 45.312V46.312H46.375V45.312H45.375ZM45.375 44.94V43.94H44.375V44.94H45.375ZM45.775 44.94H46.775V43.94H45.775V44.94ZM45.775 45.312H44.775V46.312H45.775V45.312ZM47.999 45.872H48.999V44.872H47.999V45.872ZM47.999 46.252V47.252H48.999V46.252H47.999ZM47.519 46.252V45.252H46.519V46.252H47.519ZM47.519 47.18V48.18H48.519V47.18H47.519ZM47.123 47.18H46.123V48.18H47.123V47.18ZM47.123 45V44H46.123V45H47.123ZM47.519 45H48.519V44H47.519V45ZM47.519 45.872H46.519V46.872H47.519V45.872ZM44.631 47.704H43.631V48.704H44.631V47.704ZM44.631 47.364V46.364H43.631V47.364H44.631ZM47.519 47.364H48.519V46.364H47.519V47.364ZM47.519 48.416V49.416H48.519V48.416H47.519ZM47.119 48.416H46.119V49.416H47.119V48.416ZM47.119 47.704H48.119V46.704H47.119V47.704ZM46.735 45.312H45.735V45.628H46.735H47.735V45.312H46.735ZM46.735 45.628V44.628H44.415V45.628V46.628H46.735V45.628ZM44.415 45.628H45.415V45.312H44.415H43.415V45.628H44.415ZM44.415 45.312V46.312H45.375V45.312V44.312H44.415V45.312ZM45.375 45.312H46.375V44.94H45.375H44.375V45.312H45.375ZM45.375 44.94V45.94H45.775V44.94V43.94H45.375V44.94ZM45.775 44.94H44.775V45.312H45.775H46.775V44.94H45.775ZM45.775 45.312V46.312H46.735V45.312V44.312H45.775V45.312ZM47.999 45.872H46.999V46.252H47.999H48.999V45.872H47.999ZM47.999 46.252V45.252H47.519V46.252V47.252H47.999V46.252ZM47.519 46.252H46.519V47.18H47.519H48.519V46.252H47.519ZM47.519 47.18V46.18H47.123V47.18V48.18H47.519V47.18ZM47.123 47.18H48.123V45H47.123H46.123V47.18H47.123ZM47.123 45V46H47.519V45V44H47.123V45ZM47.519 45H46.519V45.872H47.519H48.519V45H47.519ZM47.519 45.872V46.872H47.999V45.872V44.872H47.519V45.872ZM45.575 47.136V46.136C45.5044 46.136 45.4507 46.1282 45.4151 46.1194C45.3783 46.1104 45.3723 46.1034 45.3869 46.1125C45.4023 46.1222 45.4486 46.1554 45.492 46.2257C45.5388 46.3014 45.563 46.3898 45.563 46.472H44.563H43.563C43.563 47.0941 43.9156 47.5509 44.3252 47.8075C44.7097 48.0483 45.1621 48.136 45.575 48.136V47.136ZM44.563 46.472H45.563C45.563 46.5571 45.5378 46.6471 45.4904 46.7232C45.4465 46.7938 45.4001 46.8267 45.3852 46.836C45.371 46.8449 45.3775 46.8377 45.4146 46.8286C45.4505 46.8198 45.5044 46.812 45.575 46.812V45.812V44.812C45.162 44.812 44.7105 44.8997 44.3269 45.139C43.9194 45.3931 43.563 45.8483 43.563 46.472H44.563ZM45.575 45.812V46.812C45.6441 46.812 45.6969 46.8197 45.7321 46.8284C45.7684 46.8373 45.7746 46.8443 45.7603 46.8354C45.7454 46.826 45.6991 46.7931 45.6554 46.7228C45.6083 46.6469 45.583 46.5571 45.583 46.472H46.583H47.583C47.583 45.8487 47.2271 45.3937 46.8207 45.1396C46.4378 44.9002 45.9872 44.812 45.575 44.812V45.812ZM46.583 46.472H45.583C45.583 46.3917 45.6065 46.3042 45.6529 46.2285C45.6961 46.158 45.7426 46.1242 45.7591 46.1138C45.7746 46.1041 45.7696 46.1108 45.7336 46.1196C45.6989 46.1282 45.6457 46.136 45.575 46.136V47.136V48.136C45.988 48.136 46.4405 48.0483 46.825 47.8062C47.2354 47.5476 47.583 47.0902 47.583 46.472H46.583ZM45.575 46.112V45.112C45.2669 45.112 44.919 45.1706 44.6107 45.3517C44.2884 45.5409 43.947 45.9178 43.947 46.472H44.947H45.947C45.947 46.6253 45.8994 46.7679 45.8243 46.881C45.7534 46.9879 45.6728 47.0473 45.6234 47.0763C45.5331 47.1294 45.4991 47.112 45.575 47.112V46.112ZM44.947 46.472H43.947C43.947 47.0212 44.2807 47.4006 44.6078 47.5941C44.9177 47.7775 45.2672 47.836 45.575 47.836V46.836V45.836C45.4988 45.836 45.5344 45.8185 45.6263 45.8729C45.6768 45.9028 45.7573 45.963 45.8276 46.0702C45.9018 46.1835 45.947 46.3238 45.947 46.472H44.947ZM45.575 46.836V47.836C45.8826 47.836 46.2306 47.7768 46.5391 47.5951C46.8617 47.4051 47.203 47.0273 47.203 46.472H46.203H45.203C45.203 46.3203 45.2501 46.1787 45.3247 46.0661C45.395 45.9598 45.475 45.9008 45.524 45.8719C45.6135 45.8192 45.6475 45.836 45.575 45.836V46.836ZM46.203 46.472H47.203C47.203 45.9116 46.8539 45.5364 46.5361 45.3507C46.2293 45.1713 45.8829 45.112 45.575 45.112V46.112V47.112C45.6472 47.112 45.6148 47.1287 45.5269 47.0773C45.4789 47.0493 45.399 46.9911 45.3279 46.8852C45.2525 46.7727 45.203 46.6288 45.203 46.472H46.203ZM44.631 47.704H45.631V47.364H44.631H43.631V47.704H44.631ZM44.631 47.364V48.364H47.519V47.364V46.364H44.631V47.364ZM47.519 47.364H46.519V48.416H47.519H48.519V47.364H47.519ZM47.519 48.416V47.416H47.119V48.416V49.416H47.519V48.416ZM47.119 48.416H48.119V47.704H47.119H46.119V48.416H47.119ZM47.119 47.704V46.704H44.631V47.704V48.704H47.119V47.704Z" fill="white" mask="url(#path-19-outside-2_11_505)"/>
<path d="M20 37.4032L21.25 31.5806L22.8125 28.5161L25.625 27.2903M20 37.4032L22.1875 35.871M20 37.4032L11.5 46.5M25.625 27.2903L24.375 29.7419L23.4375 31.8871L22.1875 35.871M25.625 27.2903L26.875 25.4516L28.4375 25.1452L29.375 25.4516L30 26.6774L29.0625 27.9032L28.125 30.6613V32.1935M22.1875 35.871L28.125 32.1935M28.125 32.1935L27.8125 34.9516L33.125 34.0323M30 26.371L30.9375 25.4516H31.875M31.875 25.4516L32.8125 25.7581L33.125 27.9032V29.129V32.5V34.0323M31.875 25.4516L33.75 23.3065L35 23L36.5625 23.3065L37.0312 24.6855M33.125 34.0323L37.8125 33.1129M37.8125 33.1129V29.129L37.5 26.0645L37.0312 24.6855M37.8125 33.1129L43.125 37.7097M37.0312 24.6855L37.8125 24.2258L39.6875 23.9194L42.5 24.2258L43.55 26.5141M45.3125 30.3548L43.75 32.5L43.4375 34.6452L43.125 36.4839V37.7097M45.3125 30.3548L47.1875 31.8871L46.875 33.4194L47.5 36.7903M45.3125 30.3548L43.55 26.5141M43.125 37.7097L45 39.8548H46.5625M46.5625 39.8548L46.875 38.0161L47.5 36.7903M46.5625 39.8548V41.0806L49.0625 42V40.4677L48.75 38.0161L48.125 36.7903M47.5 36.7903H48.125M48.125 36.7903L48.75 36.1774L48.4375 33.1129L47.1875 32.1935M48.125 36.7903L50 38.3226M43.55 26.5141L47.8125 28.2097L48.125 29.4355L49.0625 30.0484L50 34.6452V38.3226M50 38.3226L59 45" stroke="#4B4B4B" stroke-width="0.5"/>
</g>
<rect x="9.1" y="9.1" width="49.8" height="49.8" rx="24.9" stroke="#4B4B4B" stroke-width="0.2"/>
</g>
<defs>
<filter id="filter0_d_11_505" x="0" y="0" width="68" height="68" filterUnits="userSpaceOnUse" color-interpolation-filters="sRGB">
<feFlood flood-opacity="0" result="BackgroundImageFix"/>
<feColorMatrix in="SourceAlpha" type="matrix" values="0 0 0 0 0 0 0 0 0 0 0 0 0 0 0 0 0 0 127 0" result="hardAlpha"/>
<feOffset/>
<feGaussianBlur stdDeviation="2"/>
<feComposite in2="hardAlpha" operator="out"/>
<feColorMatrix type="matrix" values="0 0 0 0 0.229671 0 0 0 0 0.229671 0 0 0 0 0.229671 0 0 0 0.2 0"/>
<feBlend mode="normal" in2="BackgroundImageFix" result="effect1_dropShadow_11_505"/>
<feBlend mode="normal" in="SourceGraphic" in2="effect1_dropShadow_11_505" result="shape"/>
</filter>
<clipPath id="clip0_11_505">
<rect x="9" y="9" width="50" height="50" rx="25" fill="white"/>
</clipPath>
</defs>
</svg>
