<svg width="68" height="68" viewBox="0 0 68 68" fill="none" xmlns="http://www.w3.org/2000/svg">
<g filter="url(#filter0_d_11_443)">
<rect x="4" y="4" width="60" height="60" rx="30" fill="white" shape-rendering="crispEdges"/>
<rect x="7.5" y="7.5" width="53" height="53" rx="26.5" fill="white"/>
<rect x="7.5" y="7.5" width="53" height="53" rx="26.5" stroke="#8A7FB6" stroke-width="2"/>
<rect x="9.1" y="9.1" width="49.8" height="49.8" rx="24.9" fill="white"/>
<rect x="9.1" y="9.1" width="49.8" height="49.8" rx="24.9" stroke="#8A7FB6" stroke-width="0.2"/>
<path d="M11.8 35.2638V34.6818H16V35.2638H11.8ZM13.54 33.7938C13.54 33.9338 13.564 34.0598 13.612 34.1718C13.66 34.2798 13.728 34.3718 13.816 34.4478C13.904 34.5238 14.008 34.5818 14.128 34.6218C14.248 34.6618 14.378 34.6818 14.518 34.6818H16V35.2638H14.53C14.302 35.2638 14.092 35.2298 13.9 35.1618C13.704 35.0938 13.536 34.9978 13.396 34.8738C13.252 34.7458 13.14 34.5918 13.06 34.4118C12.98 34.2278 12.94 34.0218 12.94 33.7938C12.94 33.5658 12.98 33.3678 13.06 33.1998C13.14 33.0278 13.252 32.8818 13.396 32.7618C13.536 32.6418 13.704 32.5458 13.9 32.4738C14.092 32.4018 14.302 32.3518 14.53 32.3238L16 32.1438V32.7318L14.518 32.9178C14.378 32.9338 14.248 32.9638 14.128 33.0078C14.008 33.0478 13.906 33.1038 13.822 33.1758C13.734 33.2438 13.666 33.3298 13.618 33.4338C13.566 33.5338 13.54 33.6538 13.54 33.7938Z" fill="#8A7FB6"/>
<path d="M13.4745 29.0343L13.6137 28.4692L16.5266 29.1872L16.3873 29.7523L13.4745 29.0343ZM12.5557 28.8758C12.4508 28.85 12.375 28.7983 12.3282 28.7209C12.2784 28.6386 12.2664 28.545 12.2923 28.4401C12.3172 28.3392 12.3703 28.2657 12.4516 28.2199C12.5301 28.1692 12.6217 28.1567 12.7266 28.1826C12.8314 28.2084 12.9087 28.2625 12.9585 28.3448C13.0053 28.4222 13.0163 28.5115 12.9914 28.6124C12.9655 28.7173 12.9134 28.7951 12.835 28.8458C12.7536 28.8917 12.6605 28.9017 12.5557 28.8758Z" fill="#8A7FB6"/>
<path d="M16.3038 24.5709C16.4283 24.3336 16.4841 24.137 16.471 23.9811C16.4599 23.8216 16.359 23.6738 16.1684 23.5377L15.6653 23.1923L15.9358 22.6769L16.4283 23.0167C16.6507 23.1696 16.8052 23.3185 16.8918 23.4633C16.9768 23.6028 17.0051 23.7554 16.9768 23.9212C17.088 23.8125 17.2341 23.7536 17.415 23.7447C17.5959 23.7357 17.8018 23.7738 18.0327 23.8588L18.5921 24.0711L18.3217 24.5864L17.7516 24.3686C17.5296 24.2837 17.3499 24.2819 17.2123 24.3633C17.0747 24.4447 16.9436 24.6041 16.8191 24.8414L16.5291 25.3939L17.6023 25.9571L17.3318 26.4725L13.6129 24.5206L13.8834 24.0053L16.0138 25.1234L16.3038 24.5709Z" fill="#8A7FB6"/>
<path d="M19.3553 19.5543C19.2217 19.5482 19.0916 19.5745 18.9648 19.6332C18.8376 19.6862 18.7237 19.7696 18.6229 19.8834C18.4584 20.069 18.3742 20.2697 18.3703 20.4852C18.3663 20.7008 18.4351 20.9007 18.5765 21.0848L19.3553 19.5543ZM18.3493 21.6851C18.1787 21.5339 18.0453 21.3677 17.9494 21.1865C17.8531 20.9997 17.7963 20.8104 17.779 20.6188C17.7614 20.4215 17.785 20.2259 17.8498 20.0322C17.9146 19.8384 18.0226 19.6562 18.1738 19.4855C18.3011 19.3418 18.4416 19.2285 18.5952 19.1455C18.7459 19.0599 18.9026 19.0037 19.0653 18.9768C19.2251 18.9473 19.3867 18.9489 19.5502 18.9815C19.7163 19.0111 19.877 19.068 20.0323 19.1521L20.1625 19.2675L19.0355 21.4353C19.2127 21.5068 19.3906 21.5201 19.5692 21.4753C19.7505 21.4275 19.9141 21.3213 20.06 21.1566C20.1979 21.0009 20.2784 20.8317 20.3013 20.649C20.3243 20.4662 20.2939 20.2924 20.2103 20.1274L20.6161 19.6693C20.7183 19.8133 20.7942 19.966 20.8436 20.1274C20.8957 20.2857 20.9182 20.4473 20.9112 20.6121C20.9011 20.7742 20.8642 20.9365 20.8004 21.0991C20.7335 21.259 20.6364 21.4108 20.5091 21.5545C20.3579 21.7251 20.1916 21.8556 20.01 21.946C19.8285 22.0363 19.6432 22.0886 19.4542 22.1028C19.2649 22.1115 19.0746 22.0819 18.8835 22.0141C18.6951 21.9433 18.517 21.8337 18.3493 21.6851Z" fill="#8A7FB6"/>
<path d="M22.9292 16.0883C22.6757 16.2633 22.5227 16.4782 22.4702 16.7331C22.4188 16.9825 22.4771 17.229 22.6453 17.4726L23.4871 18.6923L23.0082 19.0229L22.1731 17.8131C22.0436 17.6255 21.9539 17.4322 21.9041 17.2333C21.8553 17.0288 21.8455 16.8314 21.8746 16.6412C21.9047 16.4455 21.9744 16.2613 22.0837 16.0886C22.193 15.916 22.3414 15.7649 22.5291 15.6354C22.6706 15.5377 22.8159 15.4666 22.965 15.422L23.299 15.9059C23.235 15.9258 23.1711 15.9529 23.1073 15.9872C23.0445 16.016 22.9851 16.0497 22.9292 16.0883Z" fill="#8A7FB6"/>
<path d="M25.8362 13.0207C25.7908 12.901 25.789 12.7947 25.8308 12.7019C25.8749 12.6039 25.9531 12.5336 26.0653 12.491C26.1812 12.4471 26.2863 12.4479 26.3806 12.4934C26.4772 12.5338 26.5482 12.6138 26.5935 12.7335C26.6432 12.8644 26.6526 13.002 26.6218 13.1463L26.5432 13.5483L26.1561 13.6951L26.2382 13.2853C26.1568 13.3077 26.079 13.2944 26.0049 13.2455C25.9293 13.1929 25.8731 13.1179 25.8362 13.0207Z" fill="#8A7FB6"/>
<path d="M31.9179 15.3078C31.4414 15.3657 31.0561 15.3118 30.762 15.146C30.4714 14.9758 30.2895 14.7057 30.2164 14.3359L30.8239 14.2621C30.8674 14.4543 30.9724 14.5886 31.1388 14.6651C31.3087 14.7371 31.5585 14.7531 31.888 14.7131C32.1422 14.6823 32.3354 14.6306 32.4676 14.5581C32.5993 14.4817 32.6582 14.3859 32.6442 14.2707C32.6168 14.0444 32.293 13.9669 31.6731 14.0381C31.1763 14.0944 30.7988 14.0717 30.5407 13.9701C30.2825 13.8685 30.1363 13.6767 30.1021 13.3948C30.0838 13.2439 30.1009 13.1028 30.1535 12.9715C30.21 12.8397 30.2945 12.7227 30.407 12.6204C30.5235 12.5176 30.6684 12.4335 30.8418 12.3681C31.0147 12.2988 31.2103 12.2509 31.4287 12.2243C31.8933 12.1679 32.2689 12.2251 32.5556 12.3958C32.8462 12.566 33.0298 12.8338 33.1064 13.1992L32.493 13.2737C32.45 13.0855 32.3455 12.9552 32.1795 12.8826C32.0171 12.8057 31.7849 12.7855 31.4832 12.8221C31.2171 12.8544 31.013 12.9155 30.8708 13.0053C30.7281 13.0911 30.6644 13.1976 30.6799 13.3246C30.6934 13.4358 30.7705 13.507 30.9113 13.5383C31.0516 13.5656 31.2831 13.5637 31.6057 13.5325C32.1467 13.4749 32.542 13.4954 32.7917 13.594C33.0449 13.6882 33.1884 13.8743 33.2222 14.1522C33.2603 14.4659 33.1626 14.7236 32.9292 14.9252C32.6958 15.1268 32.3587 15.2543 31.9179 15.3078Z" fill="#8A7FB6"/>
<path d="M40.7734 16.2274C40.5602 16.1465 40.3785 16.0391 40.2282 15.9051C40.0794 15.7674 39.9648 15.6127 39.8844 15.4411C39.8093 15.2671 39.7695 15.0787 39.7651 14.876C39.7644 14.6747 39.8045 14.4674 39.8854 14.2543C39.9662 14.0411 40.0743 13.8575 40.2097 13.7035C40.3503 13.5472 40.5071 13.427 40.6802 13.3429C40.8584 13.2565 41.0496 13.2092 41.2537 13.2011C41.4579 13.1929 41.6666 13.2293 41.8798 13.3101C42.0929 13.391 42.2732 13.5021 42.4206 13.6436C42.5681 13.7851 42.6779 13.9465 42.7503 14.128C42.8278 14.3071 42.8655 14.5011 42.8633 14.7099C42.8663 14.9163 42.8274 15.1262 42.7465 15.3394C42.6657 15.5525 42.5564 15.7335 42.4186 15.8824C42.2847 16.0326 42.13 16.1472 41.9546 16.2262C41.7843 16.3028 41.5979 16.3433 41.3951 16.3477C41.1938 16.3483 40.9866 16.3082 40.7734 16.2274ZM40.9861 15.6664C41.2517 15.7671 41.4954 15.7675 41.7172 15.6677C41.939 15.5679 42.1003 15.3852 42.201 15.1196C42.2506 14.9887 42.2743 14.8587 42.2719 14.7294C42.2734 14.6016 42.2504 14.4817 42.2031 14.3696C42.1595 14.259 42.0919 14.1606 42.0005 14.0746C41.9091 13.9886 41.7979 13.9208 41.667 13.8711C41.5361 13.8215 41.4079 13.7985 41.2824 13.8023C41.1569 13.806 41.0393 13.8342 40.9296 13.8867C40.8198 13.9391 40.7212 14.013 40.6338 14.1082C40.5501 14.2048 40.4834 14.3185 40.4338 14.4494C40.3331 14.715 40.3326 14.9586 40.4325 15.1805C40.536 15.4037 40.7206 15.5657 40.9861 15.6664Z" fill="#8A7FB6"/>
<path d="M46.1729 16.1588C46.0577 16.0793 45.9404 16.0275 45.8209 16.0033C45.7048 15.9815 45.5904 15.9852 45.4779 16.0144C45.3654 16.0437 45.2585 16.0963 45.1575 16.1724C45.0564 16.2484 44.9661 16.344 44.8865 16.4592L44.0447 17.6789L43.5657 17.3483L44.4007 16.1385C44.5303 15.9509 44.6775 15.7974 44.8426 15.678C45.0099 15.5553 45.1843 15.4716 45.3659 15.4268C45.553 15.381 45.7434 15.3763 45.937 15.4127C46.1338 15.4514 46.3261 15.5355 46.5137 15.665C46.7014 15.7945 46.8416 15.9399 46.9344 16.1012C47.0305 16.2648 47.0871 16.4399 47.104 16.6265C47.1233 16.8099 47.1068 17.0027 47.0547 17.2049C47.0049 17.4038 46.9268 17.6051 46.8203 17.8086L46.1334 19.1207L45.6495 18.7866L46.3383 17.4613C46.4046 17.337 46.4538 17.213 46.4858 17.0892C46.521 16.9677 46.5329 16.852 46.5213 16.742C46.5153 16.6309 46.4832 16.5261 46.4249 16.4275C46.3721 16.3279 46.2881 16.2383 46.1729 16.1588Z" fill="#8A7FB6"/>
<path d="M51.5798 25.0258L51.0538 25.3019C50.7337 24.8555 50.6001 24.4761 50.653 24.1638C50.7078 23.855 50.9512 23.5871 51.3833 23.3604L54.045 21.9634L54.3155 22.4787L51.6431 23.8813C51.5227 23.9445 51.4355 24.0151 51.3816 24.0931C51.3277 24.1711 51.3008 24.2575 51.3008 24.3523C51.3009 24.4471 51.3253 24.5495 51.374 24.6595C51.4245 24.773 51.4931 24.8951 51.5798 25.0258ZM53.6368 23.5871L53.0959 22.5564L53.5775 22.2088L54.1574 23.3138L53.6368 23.5871Z" fill="#8A7FB6"/>
<path d="M52.3362 28.8811C52.2816 28.6597 52.2668 28.4492 52.2917 28.2494C52.3205 28.0487 52.3827 27.8665 52.4784 27.7028C52.5788 27.5421 52.7112 27.4024 52.8756 27.2836C53.0409 27.1687 53.2342 27.084 53.4556 27.0294C53.677 26.9748 53.8895 26.9595 54.0931 26.9835C54.3016 27.0104 54.4896 27.0712 54.6571 27.1658C54.8295 27.2634 54.977 27.3939 55.0997 27.5573C55.2224 27.7207 55.311 27.9131 55.3655 28.1344C55.4201 28.3558 55.431 28.5673 55.3984 28.769C55.3657 28.9707 55.2952 29.1529 55.187 29.3155C55.0836 29.481 54.9454 29.6222 54.7723 29.739C54.6041 29.8588 54.4093 29.9459 54.1879 30.0005C53.9665 30.0551 53.7555 30.0679 53.5547 30.0391C53.355 30.0142 53.1728 29.952 53.0082 29.8525C52.8484 29.7559 52.7092 29.6255 52.5904 29.4611C52.4755 29.2958 52.3908 29.1025 52.3362 28.8811ZM52.9188 28.7375C52.9867 29.0133 53.1248 29.2141 53.333 29.3399C53.5411 29.4657 53.7831 29.4947 54.0588 29.4267C54.1948 29.3932 54.3152 29.3388 54.4203 29.2635C54.5262 29.192 54.6119 29.105 54.6773 29.0024C54.7435 28.9036 54.7861 28.7922 54.805 28.6681C54.8238 28.544 54.8165 28.414 54.783 28.278C54.7495 28.1421 54.6955 28.0236 54.6212 27.9224C54.5468 27.8213 54.4568 27.7405 54.3513 27.68C54.2458 27.6195 54.129 27.5803 54.001 27.5624C53.8739 27.5484 53.7425 27.5581 53.6065 27.5916C53.3308 27.6596 53.13 27.7977 53.0041 28.0058C52.8793 28.2179 52.8508 28.4618 52.9188 28.7375Z" fill="#8A7FB6"/>
<path d="M56.06 33.3998C56.06 33.6278 56.022 33.8358 55.946 34.0238C55.874 34.2118 55.77 34.3718 55.634 34.5038C55.502 34.6398 55.342 34.7438 55.154 34.8158C54.966 34.8918 54.758 34.9298 54.53 34.9298C54.302 34.9298 54.09 34.8918 53.894 34.8158C53.702 34.7438 53.534 34.6398 53.39 34.5038C53.25 34.3718 53.14 34.2118 53.06 34.0238C52.98 33.8358 52.94 33.6278 52.94 33.3998C52.94 33.1718 52.98 32.9638 53.06 32.7758C53.14 32.5878 53.25 32.4258 53.39 32.2898C53.534 32.1578 53.702 32.0538 53.894 31.9778C54.09 31.9058 54.302 31.8698 54.53 31.8698C54.758 31.8698 54.966 31.9058 55.154 31.9778C55.342 32.0538 55.502 32.1578 55.634 32.2898C55.77 32.4258 55.874 32.5878 55.946 32.7758C56.022 32.9638 56.06 33.1718 56.06 33.3998ZM51.8 32.4578V31.8698H56V32.4578H51.8ZM55.46 33.3998C55.46 33.1158 55.374 32.8878 55.202 32.7158C55.03 32.5438 54.802 32.4578 54.518 32.4578C54.378 32.4578 54.248 32.4798 54.128 32.5238C54.008 32.5718 53.904 32.6358 53.816 32.7158C53.732 32.7998 53.664 32.8998 53.612 33.0158C53.564 33.1318 53.54 33.2598 53.54 33.3998C53.54 33.5398 53.564 33.6678 53.612 33.7838C53.664 33.8998 53.732 33.9978 53.816 34.0778C53.904 34.1618 54.008 34.2258 54.128 34.2698C54.248 34.3178 54.378 34.3418 54.518 34.3418C54.802 34.3418 55.03 34.2558 55.202 34.0838C55.374 33.9118 55.46 33.6838 55.46 33.3998Z" fill="#8A7FB6"/>
<mask id="path-16-outside-1_11_443" maskUnits="userSpaceOnUse" x="24" y="49" width="20" height="8" fill="black">
<rect fill="white" x="24" y="49" width="20" height="8"/>
<path d="M30.706 52.372V53.356H30.106V55.624H29.092V50.5H30.106V52.372H30.706ZM25.468 55.384V50.62H28.45V55.384H25.468ZM26.482 51.562V54.442H27.436V51.562H26.482ZM36.0215 50.5V55.624H35.0075V50.5H36.0215ZM32.3375 50.59V54.46H33.4115C33.8975 54.46 34.4255 54.364 34.7375 54.214V55.138C34.4255 55.294 33.9035 55.384 33.4115 55.384H31.2935V50.59H32.3375ZM41.649 51.466H42.249V52.45H41.649V54.292H40.635V50.5H41.649V51.466ZM38.625 52.534C38.199 53.146 37.575 53.56 36.837 53.596V52.654C37.647 52.558 38.181 51.652 38.199 50.524L39.219 50.584C39.219 50.98 39.153 51.37 39.027 51.73L40.485 52.816L39.879 53.524L38.625 52.534ZM38.157 53.83V54.712H41.721V55.624H37.125V53.83H38.157Z"/>
</mask>
<path d="M30.706 52.372V53.356H30.106V55.624H29.092V50.5H30.106V52.372H30.706ZM25.468 55.384V50.62H28.45V55.384H25.468ZM26.482 51.562V54.442H27.436V51.562H26.482ZM36.0215 50.5V55.624H35.0075V50.5H36.0215ZM32.3375 50.59V54.46H33.4115C33.8975 54.46 34.4255 54.364 34.7375 54.214V55.138C34.4255 55.294 33.9035 55.384 33.4115 55.384H31.2935V50.59H32.3375ZM41.649 51.466H42.249V52.45H41.649V54.292H40.635V50.5H41.649V51.466ZM38.625 52.534C38.199 53.146 37.575 53.56 36.837 53.596V52.654C37.647 52.558 38.181 51.652 38.199 50.524L39.219 50.584C39.219 50.98 39.153 51.37 39.027 51.73L40.485 52.816L39.879 53.524L38.625 52.534ZM38.157 53.83V54.712H41.721V55.624H37.125V53.83H38.157Z" fill="#8A7FB6"/>
<path d="M30.706 52.372H31.706V51.372H30.706V52.372ZM30.706 53.356V54.356H31.706V53.356H30.706ZM30.106 53.356V52.356H29.106V53.356H30.106ZM30.106 55.624V56.624H31.106V55.624H30.106ZM29.092 55.624H28.092V56.624H29.092V55.624ZM29.092 50.5V49.5H28.092V50.5H29.092ZM30.106 50.5H31.106V49.5H30.106V50.5ZM30.106 52.372H29.106V53.372H30.106V52.372ZM25.468 55.384H24.468V56.384H25.468V55.384ZM25.468 50.62V49.62H24.468V50.62H25.468ZM28.45 50.62H29.45V49.62H28.45V50.62ZM28.45 55.384V56.384H29.45V55.384H28.45ZM26.482 51.562V50.562H25.482V51.562H26.482ZM26.482 54.442H25.482V55.442H26.482V54.442ZM27.436 54.442V55.442H28.436V54.442H27.436ZM27.436 51.562H28.436V50.562H27.436V51.562ZM30.706 52.372H29.706V53.356H30.706H31.706V52.372H30.706ZM30.706 53.356V52.356H30.106V53.356V54.356H30.706V53.356ZM30.106 53.356H29.106V55.624H30.106H31.106V53.356H30.106ZM30.106 55.624V54.624H29.092V55.624V56.624H30.106V55.624ZM29.092 55.624H30.092V50.5H29.092H28.092V55.624H29.092ZM29.092 50.5V51.5H30.106V50.5V49.5H29.092V50.5ZM30.106 50.5H29.106V52.372H30.106H31.106V50.5H30.106ZM30.106 52.372V53.372H30.706V52.372V51.372H30.106V52.372ZM25.468 55.384H26.468V50.62H25.468H24.468V55.384H25.468ZM25.468 50.62V51.62H28.45V50.62V49.62H25.468V50.62ZM28.45 50.62H27.45V55.384H28.45H29.45V50.62H28.45ZM28.45 55.384V54.384H25.468V55.384V56.384H28.45V55.384ZM26.482 51.562H25.482V54.442H26.482H27.482V51.562H26.482ZM26.482 54.442V55.442H27.436V54.442V53.442H26.482V54.442ZM27.436 54.442H28.436V51.562H27.436H26.436V54.442H27.436ZM27.436 51.562V50.562H26.482V51.562V52.562H27.436V51.562ZM36.0215 50.5H37.0215V49.5H36.0215V50.5ZM36.0215 55.624V56.624H37.0215V55.624H36.0215ZM35.0075 55.624H34.0075V56.624H35.0075V55.624ZM35.0075 50.5V49.5H34.0075V50.5H35.0075ZM32.3375 50.59H33.3375V49.59H32.3375V50.59ZM32.3375 54.46H31.3375V55.46H32.3375V54.46ZM34.7375 54.214H35.7375V52.6237L34.3042 53.3127L34.7375 54.214ZM34.7375 55.138L35.1847 56.0324L35.7375 55.756V55.138H34.7375ZM31.2935 55.384H30.2935V56.384H31.2935V55.384ZM31.2935 50.59V49.59H30.2935V50.59H31.2935ZM36.0215 50.5H35.0215V55.624H36.0215H37.0215V50.5H36.0215ZM36.0215 55.624V54.624H35.0075V55.624V56.624H36.0215V55.624ZM35.0075 55.624H36.0075V50.5H35.0075H34.0075V55.624H35.0075ZM35.0075 50.5V51.5H36.0215V50.5V49.5H35.0075V50.5ZM32.3375 50.59H31.3375V54.46H32.3375H33.3375V50.59H32.3375ZM32.3375 54.46V55.46H33.4115V54.46V53.46H32.3375V54.46ZM33.4115 54.46V55.46C33.9853 55.46 34.6769 55.3527 35.1708 55.1153L34.7375 54.214L34.3042 53.3127C34.174 53.3753 33.8096 53.46 33.4115 53.46V54.46ZM34.7375 54.214H33.7375V55.138H34.7375H35.7375V54.214H34.7375ZM34.7375 55.138L34.2903 54.2436C34.1738 54.3018 33.8272 54.384 33.4115 54.384V55.384V56.384C33.9797 56.384 34.6772 56.2862 35.1847 56.0324L34.7375 55.138ZM33.4115 55.384V54.384H31.2935V55.384V56.384H33.4115V55.384ZM31.2935 55.384H32.2935V50.59H31.2935H30.2935V55.384H31.2935ZM31.2935 50.59V51.59H32.3375V50.59V49.59H31.2935V50.59ZM41.649 51.466H40.649V52.466H41.649V51.466ZM42.249 51.466H43.249V50.466H42.249V51.466ZM42.249 52.45V53.45H43.249V52.45H42.249ZM41.649 52.45V51.45H40.649V52.45H41.649ZM41.649 54.292V55.292H42.649V54.292H41.649ZM40.635 54.292H39.635V55.292H40.635V54.292ZM40.635 50.5V49.5H39.635V50.5H40.635ZM41.649 50.5H42.649V49.5H41.649V50.5ZM38.625 52.534L39.2446 51.7491L38.411 51.091L37.8042 51.9627L38.625 52.534ZM36.837 53.596H35.837V54.646L36.8857 54.5948L36.837 53.596ZM36.837 52.654L36.7193 51.6609L35.837 51.7655V52.654H36.837ZM38.199 50.524L38.2577 49.5257L37.2157 49.4644L37.1991 50.508L38.199 50.524ZM39.219 50.584H40.219V49.6411L39.2777 49.5857L39.219 50.584ZM39.027 51.73L38.0831 51.3996L37.8404 52.0931L38.4296 52.532L39.027 51.73ZM40.485 52.816L41.2447 53.4663L41.9405 52.6533L41.0823 52.014L40.485 52.816ZM39.879 53.524L39.2593 54.3089L40.0137 54.9044L40.6387 54.1743L39.879 53.524ZM38.157 53.83H39.157V52.83H38.157V53.83ZM38.157 54.712H37.157V55.712H38.157V54.712ZM41.721 54.712H42.721V53.712H41.721V54.712ZM41.721 55.624V56.624H42.721V55.624H41.721ZM37.125 55.624H36.125V56.624H37.125V55.624ZM37.125 53.83V52.83H36.125V53.83H37.125ZM41.649 51.466V52.466H42.249V51.466V50.466H41.649V51.466ZM42.249 51.466H41.249V52.45H42.249H43.249V51.466H42.249ZM42.249 52.45V51.45H41.649V52.45V53.45H42.249V52.45ZM41.649 52.45H40.649V54.292H41.649H42.649V52.45H41.649ZM41.649 54.292V53.292H40.635V54.292V55.292H41.649V54.292ZM40.635 54.292H41.635V50.5H40.635H39.635V54.292H40.635ZM40.635 50.5V51.5H41.649V50.5V49.5H40.635V50.5ZM41.649 50.5H40.649V51.466H41.649H42.649V50.5H41.649ZM38.625 52.534L37.8042 51.9627C37.5169 52.3755 37.155 52.5793 36.7882 52.5972L36.837 53.596L36.8857 54.5948C37.995 54.5407 38.881 53.9165 39.4457 53.1053L38.625 52.534ZM36.837 53.596H37.837V52.654H36.837H35.837V53.596H36.837ZM36.837 52.654L36.9547 53.647C37.7303 53.5551 38.3066 53.0766 38.6632 52.5057C39.0152 51.9419 39.1876 51.2468 39.1988 50.54L38.199 50.524L37.1991 50.508C37.1924 50.9292 37.0887 51.2511 36.9668 51.4463C36.8493 51.6344 36.7537 51.6569 36.7193 51.6609L36.837 52.654ZM38.199 50.524L38.1402 51.5223L39.1602 51.5823L39.219 50.584L39.2777 49.5857L38.2577 49.5257L38.199 50.524ZM39.219 50.584H38.219C38.219 50.8701 38.1711 51.1483 38.0831 51.3996L39.027 51.73L39.9708 52.0604C40.1348 51.5917 40.219 51.0899 40.219 50.584H39.219ZM39.027 51.73L38.4296 52.532L39.8876 53.618L40.485 52.816L41.0823 52.014L39.6243 50.928L39.027 51.73ZM40.485 52.816L39.7253 52.1657L39.1193 52.8737L39.879 53.524L40.6387 54.1743L41.2447 53.4663L40.485 52.816ZM39.879 53.524L40.4986 52.7391L39.2446 51.7491L38.625 52.534L38.0053 53.3189L39.2593 54.3089L39.879 53.524ZM38.157 53.83H37.157V54.712H38.157H39.157V53.83H38.157ZM38.157 54.712V55.712H41.721V54.712V53.712H38.157V54.712ZM41.721 54.712H40.721V55.624H41.721H42.721V54.712H41.721ZM41.721 55.624V54.624H37.125V55.624V56.624H41.721V55.624ZM37.125 55.624H38.125V53.83H37.125H36.125V55.624H37.125ZM37.125 53.83V54.83H38.157V53.83V52.83H37.125V53.83Z" fill="white" mask="url(#path-16-outside-1_11_443)"/>
<mask id="path-18-outside-2_11_443" maskUnits="userSpaceOnUse" x="23" y="44" width="23" height="7" fill="black">
<rect fill="white" x="23" y="44" width="23" height="7"/>
<path d="M27.408 46V48.536H27.012V46H27.408ZM25.42 47.22C25.164 47.648 24.764 47.956 24.272 48.02V47.648C24.92 47.532 25.32 46.828 25.328 46.032L25.724 46.056C25.724 46.348 25.672 46.632 25.576 46.888L26.672 47.696L26.436 47.984L25.42 47.22ZM24.912 49.02H27.5V49.372H24.512V48.284H24.912V49.02ZM30.3677 46.396V46.744H28.0517V46.396H29.0077V45.964H29.4117V46.396H30.3677ZM31.6397 47.352V47.732H31.1677V49.416H30.7717V46H31.1677V47.352H31.6397ZM29.4077 48.356V48.86C29.8597 48.856 30.2517 48.816 30.4877 48.708V49.068C30.2717 49.164 29.8517 49.212 29.3717 49.212H28.0677V48.86H29.0117V48.352C28.5277 48.3 28.2277 48.044 28.2277 47.66C28.2277 47.224 28.6117 46.952 29.2157 46.952C29.8197 46.952 30.2037 47.224 30.2037 47.66C30.2037 48.048 29.8997 48.304 29.4077 48.356ZM28.6037 47.66C28.6037 47.876 28.8117 48.04 29.2157 48.04C29.6197 48.04 29.8277 47.876 29.8277 47.66C29.8277 47.444 29.6197 47.276 29.2157 47.276C28.8117 47.276 28.6037 47.444 28.6037 47.66ZM35.4873 47.384V47.764H35.0073V49.416H34.6113V46H35.0073V47.384H35.4873ZM32.0393 46.488V46.124H33.8993V46.948C33.8993 48.308 33.1993 49.204 32.0393 49.204V48.828C32.9673 48.824 33.4953 48.1 33.4953 46.956V46.488H32.0393ZM40.0721 46V48.34H39.6761V46H40.0721ZM39.0121 46.54C39.0121 47.528 38.1921 48 37.0081 48V47.644C37.9681 47.64 38.6121 47.288 38.6121 46.592V46.432H37.0081V46.084H39.0121V46.54ZM40.2201 49.064L40.0721 49.412L38.5961 48.76C38.2401 49.148 37.6841 49.368 37.1321 49.372V49C37.7681 48.992 38.4041 48.64 38.5481 48.036L38.9441 48.108C38.9121 48.24 38.8641 48.364 38.8041 48.476L40.2201 49.064ZM40.9757 47.4V46.04H43.8997V46.372H41.3757V47.072H43.9397V47.4H40.9757ZM40.7317 48.104V47.768H44.1437V48.104H40.7317ZM40.9677 49.376V48.376H41.3717V49.036H43.9677V49.376H40.9677Z"/>
</mask>
<path d="M27.408 46V48.536H27.012V46H27.408ZM25.42 47.22C25.164 47.648 24.764 47.956 24.272 48.02V47.648C24.92 47.532 25.32 46.828 25.328 46.032L25.724 46.056C25.724 46.348 25.672 46.632 25.576 46.888L26.672 47.696L26.436 47.984L25.42 47.22ZM24.912 49.02H27.5V49.372H24.512V48.284H24.912V49.02ZM30.3677 46.396V46.744H28.0517V46.396H29.0077V45.964H29.4117V46.396H30.3677ZM31.6397 47.352V47.732H31.1677V49.416H30.7717V46H31.1677V47.352H31.6397ZM29.4077 48.356V48.86C29.8597 48.856 30.2517 48.816 30.4877 48.708V49.068C30.2717 49.164 29.8517 49.212 29.3717 49.212H28.0677V48.86H29.0117V48.352C28.5277 48.3 28.2277 48.044 28.2277 47.66C28.2277 47.224 28.6117 46.952 29.2157 46.952C29.8197 46.952 30.2037 47.224 30.2037 47.66C30.2037 48.048 29.8997 48.304 29.4077 48.356ZM28.6037 47.66C28.6037 47.876 28.8117 48.04 29.2157 48.04C29.6197 48.04 29.8277 47.876 29.8277 47.66C29.8277 47.444 29.6197 47.276 29.2157 47.276C28.8117 47.276 28.6037 47.444 28.6037 47.66ZM35.4873 47.384V47.764H35.0073V49.416H34.6113V46H35.0073V47.384H35.4873ZM32.0393 46.488V46.124H33.8993V46.948C33.8993 48.308 33.1993 49.204 32.0393 49.204V48.828C32.9673 48.824 33.4953 48.1 33.4953 46.956V46.488H32.0393ZM40.0721 46V48.34H39.6761V46H40.0721ZM39.0121 46.54C39.0121 47.528 38.1921 48 37.0081 48V47.644C37.9681 47.64 38.6121 47.288 38.6121 46.592V46.432H37.0081V46.084H39.0121V46.54ZM40.2201 49.064L40.0721 49.412L38.5961 48.76C38.2401 49.148 37.6841 49.368 37.1321 49.372V49C37.7681 48.992 38.4041 48.64 38.5481 48.036L38.9441 48.108C38.9121 48.24 38.8641 48.364 38.8041 48.476L40.2201 49.064ZM40.9757 47.4V46.04H43.8997V46.372H41.3757V47.072H43.9397V47.4H40.9757ZM40.7317 48.104V47.768H44.1437V48.104H40.7317ZM40.9677 49.376V48.376H41.3717V49.036H43.9677V49.376H40.9677Z" fill="#8A7FB6"/>
<path d="M27.408 46H28.408V45H27.408V46ZM27.408 48.536V49.536H28.408V48.536H27.408ZM27.012 48.536H26.012V49.536H27.012V48.536ZM27.012 46V45H26.012V46H27.012ZM25.42 47.22L26.021 46.4208L25.1325 45.7526L24.5618 46.7067L25.42 47.22ZM24.272 48.02H23.272V49.1585L24.401 49.0116L24.272 48.02ZM24.272 47.648L24.0958 46.6636L23.272 46.8111V47.648H24.272ZM25.328 46.032L25.3885 45.0338L24.3386 44.9702L24.3281 46.022L25.328 46.032ZM25.724 46.056H26.724V45.1148L25.7845 45.0578L25.724 46.056ZM25.576 46.888L24.6397 46.5369L24.3743 47.2445L24.9826 47.6929L25.576 46.888ZM26.672 47.696L27.4455 48.3298L28.1126 47.5157L27.2654 46.8911L26.672 47.696ZM26.436 47.984L25.835 48.7832L26.6016 49.3597L27.2095 48.6178L26.436 47.984ZM24.912 49.02H23.912V50.02H24.912V49.02ZM27.5 49.02H28.5V48.02H27.5V49.02ZM27.5 49.372V50.372H28.5V49.372H27.5ZM24.512 49.372H23.512V50.372H24.512V49.372ZM24.512 48.284V47.284H23.512V48.284H24.512ZM24.912 48.284H25.912V47.284H24.912V48.284ZM27.408 46H26.408V48.536H27.408H28.408V46H27.408ZM27.408 48.536V47.536H27.012V48.536V49.536H27.408V48.536ZM27.012 48.536H28.012V46H27.012H26.012V48.536H27.012ZM27.012 46V47H27.408V46V45H27.012V46ZM25.42 47.22L24.5618 46.7067C24.4307 46.9259 24.2743 47.0113 24.143 47.0284L24.272 48.02L24.401 49.0116C25.2537 48.9007 25.8973 48.3701 26.2782 47.7333L25.42 47.22ZM24.272 48.02H25.272V47.648H24.272H23.272V48.02H24.272ZM24.272 47.648L24.4482 48.6324C25.7889 48.3924 26.3178 47.0537 26.3279 46.042L25.328 46.032L24.3281 46.022C24.3256 46.2646 24.2624 46.4529 24.193 46.5634C24.1599 46.6162 24.1314 46.6421 24.1165 46.6531C24.1039 46.6624 24.0985 46.6632 24.0958 46.6636L24.272 47.648ZM25.328 46.032L25.2675 47.0302L25.6635 47.0542L25.724 46.056L25.7845 45.0578L25.3885 45.0338L25.328 46.032ZM25.724 46.056H24.724C24.724 46.2309 24.6926 46.3957 24.6397 46.5369L25.576 46.888L26.5123 47.2391C26.6514 46.8683 26.724 46.4651 26.724 46.056H25.724ZM25.576 46.888L24.9826 47.6929L26.0786 48.5009L26.672 47.696L27.2654 46.8911L26.1694 46.0831L25.576 46.888ZM26.672 47.696L25.8985 47.0622L25.6625 47.3502L26.436 47.984L27.2095 48.6178L27.4455 48.3298L26.672 47.696ZM26.436 47.984L27.037 47.1848L26.021 46.4208L25.42 47.22L24.819 48.0192L25.835 48.7832L26.436 47.984ZM24.912 49.02V50.02H27.5V49.02V48.02H24.912V49.02ZM27.5 49.02H26.5V49.372H27.5H28.5V49.02H27.5ZM27.5 49.372V48.372H24.512V49.372V50.372H27.5V49.372ZM24.512 49.372H25.512V48.284H24.512H23.512V49.372H24.512ZM24.512 48.284V49.284H24.912V48.284V47.284H24.512V48.284ZM24.912 48.284H23.912V49.02H24.912H25.912V48.284H24.912ZM30.3677 46.396H31.3677V45.396H30.3677V46.396ZM30.3677 46.744V47.744H31.3677V46.744H30.3677ZM28.0517 46.744H27.0517V47.744H28.0517V46.744ZM28.0517 46.396V45.396H27.0517V46.396H28.0517ZM29.0077 46.396V47.396H30.0077V46.396H29.0077ZM29.0077 45.964V44.964H28.0077V45.964H29.0077ZM29.4117 45.964H30.4117V44.964H29.4117V45.964ZM29.4117 46.396H28.4117V47.396H29.4117V46.396ZM31.6397 47.352H32.6397V46.352H31.6397V47.352ZM31.6397 47.732V48.732H32.6397V47.732H31.6397ZM31.1677 47.732V46.732H30.1677V47.732H31.1677ZM31.1677 49.416V50.416H32.1677V49.416H31.1677ZM30.7717 49.416H29.7717V50.416H30.7717V49.416ZM30.7717 46V45H29.7717V46H30.7717ZM31.1677 46H32.1677V45H31.1677V46ZM31.1677 47.352H30.1677V48.352H31.1677V47.352ZM29.4077 48.356L29.3026 47.3615L28.4077 47.4561V48.356H29.4077ZM29.4077 48.86H28.4077V49.8689L29.4165 49.86L29.4077 48.86ZM30.4877 48.708H31.4877V47.1506L30.0715 47.7987L30.4877 48.708ZM30.4877 49.068L30.8938 49.9818L31.4877 49.7179V49.068H30.4877ZM28.0677 49.212H27.0677V50.212H28.0677V49.212ZM28.0677 48.86V47.86H27.0677V48.86H28.0677ZM29.0117 48.86V49.86H30.0117V48.86H29.0117ZM29.0117 48.352H30.0117V47.4537L29.1185 47.3577L29.0117 48.352ZM30.3677 46.396H29.3677V46.744H30.3677H31.3677V46.396H30.3677ZM30.3677 46.744V45.744H28.0517V46.744V47.744H30.3677V46.744ZM28.0517 46.744H29.0517V46.396H28.0517H27.0517V46.744H28.0517ZM28.0517 46.396V47.396H29.0077V46.396V45.396H28.0517V46.396ZM29.0077 46.396H30.0077V45.964H29.0077H28.0077V46.396H29.0077ZM29.0077 45.964V46.964H29.4117V45.964V44.964H29.0077V45.964ZM29.4117 45.964H28.4117V46.396H29.4117H30.4117V45.964H29.4117ZM29.4117 46.396V47.396H30.3677V46.396V45.396H29.4117V46.396ZM31.6397 47.352H30.6397V47.732H31.6397H32.6397V47.352H31.6397ZM31.6397 47.732V46.732H31.1677V47.732V48.732H31.6397V47.732ZM31.1677 47.732H30.1677V49.416H31.1677H32.1677V47.732H31.1677ZM31.1677 49.416V48.416H30.7717V49.416V50.416H31.1677V49.416ZM30.7717 49.416H31.7717V46H30.7717H29.7717V49.416H30.7717ZM30.7717 46V47H31.1677V46V45H30.7717V46ZM31.1677 46H30.1677V47.352H31.1677H32.1677V46H31.1677ZM31.1677 47.352V48.352H31.6397V47.352V46.352H31.1677V47.352ZM29.4077 48.356H28.4077V48.86H29.4077H30.4077V48.356H29.4077ZM29.4077 48.86L29.4165 49.86C29.8621 49.856 30.4525 49.8238 30.9038 49.6173L30.4877 48.708L30.0715 47.7987C30.0847 47.7926 30.0405 47.813 29.8993 47.8314C29.7692 47.8484 29.6016 47.8582 29.3988 47.86L29.4077 48.86ZM30.4877 48.708H29.4877V49.068H30.4877H31.4877V48.708H30.4877ZM30.4877 49.068L30.0815 48.1542C30.1079 48.1425 30.064 48.1638 29.9046 48.1837C29.7635 48.2014 29.5813 48.212 29.3717 48.212V49.212V50.212C29.642 50.212 29.9098 50.1986 30.1527 50.1683C30.3773 50.1402 30.6514 50.0895 30.8938 49.9818L30.4877 49.068ZM29.3717 49.212V48.212H28.0677V49.212V50.212H29.3717V49.212ZM28.0677 49.212H29.0677V48.86H28.0677H27.0677V49.212H28.0677ZM28.0677 48.86V49.86H29.0117V48.86V47.86H28.0677V48.86ZM29.0117 48.86H30.0117V48.352H29.0117H28.0117V48.86H29.0117ZM29.0117 48.352L29.1185 47.3577C29.0173 47.3469 29.0354 47.3243 29.0965 47.3778C29.1296 47.4067 29.1662 47.4511 29.1931 47.5103C29.2199 47.5696 29.2277 47.6233 29.2277 47.66H28.2277H27.2277C27.2277 48.1391 27.4262 48.574 27.7798 48.8832C28.1119 49.1737 28.522 49.3051 28.9048 49.3463L29.0117 48.352ZM28.2277 47.66H29.2277C29.2277 47.7016 29.2175 47.7635 29.1831 47.8292C29.1491 47.894 29.1061 47.935 29.0764 47.9562C29.0491 47.9757 29.0398 47.974 29.0646 47.9674C29.0891 47.9609 29.1382 47.952 29.2157 47.952V46.952V45.952C28.7791 45.952 28.3066 46.0483 27.9139 46.3288C27.4881 46.6329 27.2277 47.1087 27.2277 47.66H28.2277ZM29.2157 46.952V47.952C29.2931 47.952 29.3422 47.9609 29.3667 47.9674C29.3915 47.974 29.3822 47.9757 29.3549 47.9562C29.3252 47.935 29.2822 47.894 29.2482 47.8292C29.2139 47.7635 29.2037 47.7016 29.2037 47.66H30.2037H31.2037C31.2037 47.1087 30.9432 46.6329 30.5174 46.3288C30.1247 46.0483 29.6522 45.952 29.2157 45.952V46.952ZM30.2037 47.66H29.2037C29.2037 47.6239 29.2114 47.57 29.2386 47.5103C29.2658 47.4507 29.3028 47.4064 29.3357 47.3779C29.3959 47.3258 29.4107 47.3501 29.3026 47.3615L29.4077 48.356L29.5128 49.3505C29.8966 49.3099 30.3094 49.1802 30.6446 48.8901C31.0026 48.5803 31.2037 48.1429 31.2037 47.66H30.2037ZM28.6037 47.66H27.6037C27.6037 48.1345 27.8508 48.5291 28.2053 48.7643C28.5268 48.9775 28.8955 49.04 29.2157 49.04V48.04V47.04C29.1318 47.04 29.1945 47.0205 29.311 47.0977C29.3747 47.14 29.4525 47.2111 29.5134 47.3191C29.5755 47.4291 29.6037 47.5486 29.6037 47.66H28.6037ZM29.2157 48.04V49.04C29.5358 49.04 29.9045 48.9775 30.226 48.7643C30.5806 48.5291 30.8277 48.1345 30.8277 47.66H29.8277H28.8277C28.8277 47.5486 28.8558 47.4291 28.9179 47.3191C28.9788 47.2111 29.0566 47.14 29.1203 47.0977C29.2368 47.0205 29.2995 47.04 29.2157 47.04V48.04ZM29.8277 47.66H30.8277C30.8277 47.1881 30.5832 46.7942 30.2316 46.5574C29.9103 46.3412 29.5401 46.276 29.2157 46.276V47.276V48.276C29.2952 48.276 29.231 48.2948 29.1147 48.2166C29.0516 48.1741 28.9756 48.1035 28.9162 47.9972C28.8557 47.8892 28.8277 47.7712 28.8277 47.66H29.8277ZM29.2157 47.276V46.276C28.8912 46.276 28.521 46.3412 28.1997 46.5574C27.8481 46.7942 27.6037 47.1881 27.6037 47.66H28.6037H29.6037C29.6037 47.7712 29.5756 47.8892 29.5151 47.9972C29.4557 48.1035 29.3797 48.1741 29.3166 48.2166C29.2003 48.2948 29.1361 48.276 29.2157 48.276V47.276ZM35.4873 47.384H36.4873V46.384H35.4873V47.384ZM35.4873 47.764V48.764H36.4873V47.764H35.4873ZM35.0073 47.764V46.764H34.0073V47.764H35.0073ZM35.0073 49.416V50.416H36.0073V49.416H35.0073ZM34.6113 49.416H33.6113V50.416H34.6113V49.416ZM34.6113 46V45H33.6113V46H34.6113ZM35.0073 46H36.0073V45H35.0073V46ZM35.0073 47.384H34.0073V48.384H35.0073V47.384ZM32.0393 46.488H31.0393V47.488H32.0393V46.488ZM32.0393 46.124V45.124H31.0393V46.124H32.0393ZM33.8993 46.124H34.8993V45.124H33.8993V46.124ZM32.0393 49.204H31.0393V50.204H32.0393V49.204ZM32.0393 48.828L32.035 47.828L31.0393 47.8323V48.828H32.0393ZM33.4953 46.488H34.4953V45.488H33.4953V46.488ZM35.4873 47.384H34.4873V47.764H35.4873H36.4873V47.384H35.4873ZM35.4873 47.764V46.764H35.0073V47.764V48.764H35.4873V47.764ZM35.0073 47.764H34.0073V49.416H35.0073H36.0073V47.764H35.0073ZM35.0073 49.416V48.416H34.6113V49.416V50.416H35.0073V49.416ZM34.6113 49.416H35.6113V46H34.6113H33.6113V49.416H34.6113ZM34.6113 46V47H35.0073V46V45H34.6113V46ZM35.0073 46H34.0073V47.384H35.0073H36.0073V46H35.0073ZM35.0073 47.384V48.384H35.4873V47.384V46.384H35.0073V47.384ZM32.0393 46.488H33.0393V46.124H32.0393H31.0393V46.488H32.0393ZM32.0393 46.124V47.124H33.8993V46.124V45.124H32.0393V46.124ZM33.8993 46.124H32.8993V46.948H33.8993H34.8993V46.124H33.8993ZM33.8993 46.948H32.8993C32.8993 47.4672 32.7652 47.7867 32.6281 47.9556C32.51 48.1009 32.3377 48.204 32.0393 48.204V49.204V50.204C32.9009 50.204 33.6586 49.8591 34.1805 49.2164C34.6834 48.5973 34.8993 47.7888 34.8993 46.948H33.8993ZM32.0393 49.204H33.0393V48.828H32.0393H31.0393V49.204H32.0393ZM32.0393 48.828L32.0436 49.828C32.7964 49.8247 33.461 49.514 33.9098 48.9267C34.3332 48.3727 34.4953 47.6662 34.4953 46.956H33.4953H32.4953C32.4953 47.3898 32.3934 47.6173 32.3208 47.7123C32.2736 47.774 32.2103 47.8273 32.035 47.828L32.0393 48.828ZM33.4953 46.956H34.4953V46.488H33.4953H32.4953V46.956H33.4953ZM33.4953 46.488V45.488H32.0393V46.488V47.488H33.4953V46.488ZM40.0721 46H41.0721V45H40.0721V46ZM40.0721 48.34V49.34H41.0721V48.34H40.0721ZM39.6761 48.34H38.6761V49.34H39.6761V48.34ZM39.6761 46V45H38.6761V46H39.6761ZM37.0081 48H36.0081V49H37.0081V48ZM37.0081 47.644L37.0039 46.644L36.0081 46.6482V47.644H37.0081ZM38.6121 46.432H39.6121V45.432H38.6121V46.432ZM37.0081 46.432H36.0081V47.432H37.0081V46.432ZM37.0081 46.084V45.084H36.0081V46.084H37.0081ZM39.0121 46.084H40.0121V45.084H39.0121V46.084ZM40.2201 49.064L41.1403 49.4554L41.535 48.5272L40.6036 48.1405L40.2201 49.064ZM40.0721 49.412L39.668 50.3267L40.5955 50.7364L40.9923 49.8034L40.0721 49.412ZM38.5961 48.76L39.0001 47.8453L38.3441 47.5555L37.8592 48.0839L38.5961 48.76ZM37.1321 49.372H36.1321V50.3793L37.1393 50.372L37.1321 49.372ZM37.1321 49L37.1195 48.0001L36.1321 48.0125V49H37.1321ZM38.5481 48.036L38.7269 47.0521L37.795 46.8827L37.5753 47.8041L38.5481 48.036ZM38.9441 48.108L39.9159 48.3436L40.1656 47.3137L39.1229 47.1241L38.9441 48.108ZM38.8041 48.476L37.9226 48.0038L37.4015 48.9764L38.4206 49.3995L38.8041 48.476ZM40.0721 46H39.0721V48.34H40.0721H41.0721V46H40.0721ZM40.0721 48.34V47.34H39.6761V48.34V49.34H40.0721V48.34ZM39.6761 48.34H40.6761V46H39.6761H38.6761V48.34H39.6761ZM39.6761 46V47H40.0721V46V45H39.6761V46ZM39.0121 46.54H38.0121C38.0121 46.6457 37.9911 46.6989 37.9785 46.7231C37.9661 46.7469 37.9434 46.7782 37.8894 46.8152C37.7646 46.9005 37.4895 47 37.0081 47V48V49C37.7106 49 38.4375 48.8635 39.0187 48.4658C39.6508 48.0334 40.0121 47.356 40.0121 46.54H39.0121ZM37.0081 48H38.0081V47.644H37.0081H36.0081V48H37.0081ZM37.0081 47.644L37.0122 48.644C37.5903 48.6416 38.2003 48.5376 38.6998 48.2257C39.2522 47.8806 39.6121 47.309 39.6121 46.592H38.6121H37.6121C37.6121 46.6063 37.6104 46.5842 37.6298 46.5505C37.6478 46.5192 37.6625 46.5155 37.6403 46.5293C37.5778 46.5684 37.3859 46.6424 37.0039 46.644L37.0081 47.644ZM38.6121 46.592H39.6121V46.432H38.6121H37.6121V46.592H38.6121ZM38.6121 46.432V45.432H37.0081V46.432V47.432H38.6121V46.432ZM37.0081 46.432H38.0081V46.084H37.0081H36.0081V46.432H37.0081ZM37.0081 46.084V47.084H39.0121V46.084V45.084H37.0081V46.084ZM39.0121 46.084H38.0121V46.54H39.0121H40.0121V46.084H39.0121ZM40.2201 49.064L39.2998 48.6726L39.1518 49.0206L40.0721 49.412L40.9923 49.8034L41.1403 49.4554L40.2201 49.064ZM40.0721 49.412L40.4761 48.4973L39.0001 47.8453L38.5961 48.76L38.192 49.6747L39.668 50.3267L40.0721 49.412ZM38.5961 48.76L37.8592 48.0839C37.7167 48.2392 37.4398 48.3697 37.1248 48.372L37.1321 49.372L37.1393 50.372C37.9283 50.3663 38.7634 50.0568 39.3329 49.4361L38.5961 48.76ZM37.1321 49.372H38.1321V49H37.1321H36.1321V49.372H37.1321ZM37.1321 49L37.1446 49.9999C38.0509 49.9885 39.2324 49.4776 39.5208 48.2679L38.5481 48.036L37.5753 47.8041C37.5739 47.8102 37.5651 47.8482 37.4847 47.8997C37.3984 47.9551 37.2661 47.9982 37.1195 48.0001L37.1321 49ZM38.5481 48.036L38.3692 49.0199L38.7652 49.0919L38.9441 48.108L39.1229 47.1241L38.7269 47.0521L38.5481 48.036ZM38.9441 48.108L37.9722 47.8724C37.9602 47.9218 37.9427 47.9663 37.9226 48.0038L38.8041 48.476L39.6855 48.9482C39.7855 48.7617 39.8639 48.5582 39.9159 48.3436L38.9441 48.108ZM38.8041 48.476L38.4206 49.3995L39.8366 49.9875L40.2201 49.064L40.6036 48.1405L39.1876 47.5525L38.8041 48.476ZM40.9757 47.4H39.9757V48.4H40.9757V47.4ZM40.9757 46.04V45.04H39.9757V46.04H40.9757ZM43.8997 46.04H44.8997V45.04H43.8997V46.04ZM43.8997 46.372V47.372H44.8997V46.372H43.8997ZM41.3757 46.372V45.372H40.3757V46.372H41.3757ZM41.3757 47.072H40.3757V48.072H41.3757V47.072ZM43.9397 47.072H44.9397V46.072H43.9397V47.072ZM43.9397 47.4V48.4H44.9397V47.4H43.9397ZM40.7317 48.104H39.7317V49.104H40.7317V48.104ZM40.7317 47.768V46.768H39.7317V47.768H40.7317ZM44.1437 47.768H45.1437V46.768H44.1437V47.768ZM44.1437 48.104V49.104H45.1437V48.104H44.1437ZM40.9677 49.376H39.9677V50.376H40.9677V49.376ZM40.9677 48.376V47.376H39.9677V48.376H40.9677ZM41.3717 48.376H42.3717V47.376H41.3717V48.376ZM41.3717 49.036H40.3717V50.036H41.3717V49.036ZM43.9677 49.036H44.9677V48.036H43.9677V49.036ZM43.9677 49.376V50.376H44.9677V49.376H43.9677ZM40.9757 47.4H41.9757V46.04H40.9757H39.9757V47.4H40.9757ZM40.9757 46.04V47.04H43.8997V46.04V45.04H40.9757V46.04ZM43.8997 46.04H42.8997V46.372H43.8997H44.8997V46.04H43.8997ZM43.8997 46.372V45.372H41.3757V46.372V47.372H43.8997V46.372ZM41.3757 46.372H40.3757V47.072H41.3757H42.3757V46.372H41.3757ZM41.3757 47.072V48.072H43.9397V47.072V46.072H41.3757V47.072ZM43.9397 47.072H42.9397V47.4H43.9397H44.9397V47.072H43.9397ZM43.9397 47.4V46.4H40.9757V47.4V48.4H43.9397V47.4ZM40.7317 48.104H41.7317V47.768H40.7317H39.7317V48.104H40.7317ZM40.7317 47.768V48.768H44.1437V47.768V46.768H40.7317V47.768ZM44.1437 47.768H43.1437V48.104H44.1437H45.1437V47.768H44.1437ZM44.1437 48.104V47.104H40.7317V48.104V49.104H44.1437V48.104ZM40.9677 49.376H41.9677V48.376H40.9677H39.9677V49.376H40.9677ZM40.9677 48.376V49.376H41.3717V48.376V47.376H40.9677V48.376ZM41.3717 48.376H40.3717V49.036H41.3717H42.3717V48.376H41.3717ZM41.3717 49.036V50.036H43.9677V49.036V48.036H41.3717V49.036ZM43.9677 49.036H42.9677V49.376H43.9677H44.9677V49.036H43.9677ZM43.9677 49.376V48.376H40.9677V49.376V50.376H43.9677V49.376Z" fill="white" mask="url(#path-18-outside-2_11_443)"/>
<mask id="path-20-outside-3_11_443" maskUnits="userSpaceOnUse" x="22.683" y="18.2266" width="23.6515" height="23.6515" fill="black">
<rect fill="white" x="22.683" y="18.2266" width="23.6515" height="23.6515"/>
<path d="M40.2565 22.0547C42.9602 22.6166 44.6964 25.2639 44.1344 27.9675C43.6316 30.3869 41.459 32.0295 39.0704 31.9461C39.0623 32.4592 39.0059 32.986 38.8954 33.5175C38.1648 37.0323 35.3809 39.426 32.6772 38.864C29.9736 38.3021 28.3741 34.9973 29.1046 31.4825C29.2151 30.9511 29.3723 30.4451 29.5693 29.9713C27.3458 29.0957 26.0083 26.7235 26.5111 24.3046C27.073 21.6009 29.7203 19.8647 32.4239 20.4267C34.0255 20.7596 35.2872 21.8243 35.9332 23.1988C37.0735 22.1955 38.655 21.7218 40.2565 22.0547Z"/>
</mask>
<path d="M40.2565 22.0547C42.9602 22.6166 44.6964 25.2639 44.1344 27.9675C43.6316 30.3869 41.459 32.0295 39.0704 31.9461C39.0623 32.4592 39.0059 32.986 38.8954 33.5175C38.1648 37.0323 35.3809 39.426 32.6772 38.864C29.9736 38.3021 28.3741 34.9973 29.1046 31.4825C29.2151 30.9511 29.3723 30.4451 29.5693 29.9713C27.3458 29.0957 26.0083 26.7235 26.5111 24.3046C27.073 21.6009 29.7203 19.8647 32.4239 20.4267C34.0255 20.7596 35.2872 21.8243 35.9332 23.1988C37.0735 22.1955 38.655 21.7218 40.2565 22.0547Z" fill="white"/>
<path d="M39.0704 31.9461L39.0879 31.4464L38.5785 31.4286L38.5705 31.9381L39.0704 31.9461ZM29.5693 29.9713L30.031 30.1632L30.2266 29.6927L29.7525 29.506L29.5693 29.9713ZM35.9332 23.1988L35.4807 23.4115L35.7638 24.0139L36.2635 23.5742L35.9332 23.1988ZM40.2565 22.0547L40.1548 22.5442C42.5881 23.05 44.1506 25.4325 43.6449 27.8658L44.1344 27.9675L44.624 28.0693C45.2421 25.0953 43.3323 22.1833 40.3583 21.5651L40.2565 22.0547ZM44.1344 27.9675L43.6449 27.8658C43.1925 30.0424 41.2375 31.5215 39.0879 31.4464L39.0704 31.9461L39.0529 32.4457C41.6805 32.5376 44.0707 30.7313 44.624 28.0693L44.1344 27.9675ZM39.0704 31.9461L38.5705 31.9381C38.5628 32.4201 38.5098 32.9155 38.4058 33.4158L38.8954 33.5175L39.3849 33.6193C39.5019 33.0565 39.5617 32.4983 39.5703 31.954L39.0704 31.9461ZM38.8954 33.5175L38.4058 33.4158C38.0611 35.0745 37.2349 36.4508 36.2002 37.3404C35.1661 38.2296 33.9475 38.6174 32.779 38.3745L32.6772 38.864L32.5755 39.3536C34.1107 39.6726 35.6359 39.1445 36.8522 38.0987C38.068 37.0533 38.9991 35.4753 39.3849 33.6193L38.8954 33.5175ZM32.6772 38.864L32.779 38.3745C31.6105 38.1316 30.6474 37.2904 30.0532 36.0628C29.4587 34.8345 29.2494 33.243 29.5942 31.5843L29.1046 31.4825L28.6151 31.3808C28.2293 33.2368 28.4545 35.0551 29.1531 36.4984C29.8519 37.9423 31.0403 39.0345 32.5755 39.3536L32.6772 38.864ZM29.1046 31.4825L29.5942 31.5843C29.6983 31.0834 29.8462 30.6077 30.031 30.1632L29.5693 29.9713L29.1077 29.7793C28.8985 30.2825 28.7319 30.8187 28.6151 31.3808L29.1046 31.4825ZM29.5693 29.9713L29.7525 29.506C27.7515 28.7181 26.5483 26.5826 27.0006 24.4063L26.5111 24.3046L26.0215 24.2028C25.4683 26.8644 26.9402 29.4734 29.3862 30.4365L29.5693 29.9713ZM26.5111 24.3046L27.0006 24.4063C27.5064 21.973 29.8889 20.4105 32.3222 20.9162L32.4239 20.4267L32.5257 19.9371C29.5517 19.319 26.6397 21.2288 26.0215 24.2028L26.5111 24.3046ZM32.4239 20.4267L32.3222 20.9162C33.7632 21.2157 34.8987 22.173 35.4807 23.4115L35.9332 23.1988L36.3858 22.9862C35.6758 21.4755 34.2877 20.3034 32.5257 19.9371L32.4239 20.4267ZM35.9332 23.1988L36.2635 23.5742C37.2909 22.6703 38.7138 22.2447 40.1548 22.5442L40.2565 22.0547L40.3583 21.5651C38.5963 21.1989 36.8561 21.7208 35.6029 22.8235L35.9332 23.1988Z" fill="#8A7FB6" mask="url(#path-20-outside-3_11_443)"/>
<line x1="35.9313" y1="23.4537" x2="31.7596" y2="43.5248" stroke="#8A7FB6" stroke-width="0.5" stroke-linecap="round"/>
</g>
<defs>
<filter id="filter0_d_11_443" x="0" y="0" width="68" height="68" filterUnits="userSpaceOnUse" color-interpolation-filters="sRGB">
<feFlood flood-opacity="0" result="BackgroundImageFix"/>
<feColorMatrix in="SourceAlpha" type="matrix" values="0 0 0 0 0 0 0 0 0 0 0 0 0 0 0 0 0 0 127 0" result="hardAlpha"/>
<feOffset/>
<feGaussianBlur stdDeviation="2"/>
<feComposite in2="hardAlpha" operator="out"/>
<feColorMatrix type="matrix" values="0 0 0 0 0.229671 0 0 0 0 0.229671 0 0 0 0 0.229671 0 0 0 0.2 0"/>
<feBlend mode="normal" in2="BackgroundImageFix" result="effect1_dropShadow_11_443"/>
<feBlend mode="normal" in="SourceGraphic" in2="effect1_dropShadow_11_443" result="shape"/>
</filter>
</defs>
</svg>
