<svg width="68" height="68" viewBox="0 0 68 68" fill="none" xmlns="http://www.w3.org/2000/svg">
<g filter="url(#filter0_d_11_412)">
<rect x="4" y="4" width="60" height="60" rx="30" fill="white" shape-rendering="crispEdges"/>
<rect x="7.5" y="7.5" width="53" height="53" rx="26.5" fill="white"/>
<rect x="7.5" y="7.5" width="53" height="53" rx="26.5" stroke="#E35522" stroke-width="2"/>
<rect x="9.1" y="9.1" width="49.8" height="49.8" rx="24.9" fill="white"/>
<rect x="9.1" y="9.1" width="49.8" height="49.8" rx="24.9" stroke="#E35522" stroke-width="0.2"/>
<path d="M11.8 35.2638V34.6818H16V35.2638H11.8ZM13.54 33.7938C13.54 33.9338 13.564 34.0598 13.612 34.1718C13.66 34.2798 13.728 34.3718 13.816 34.4478C13.904 34.5238 14.008 34.5818 14.128 34.6218C14.248 34.6618 14.378 34.6818 14.518 34.6818H16V35.2638H14.53C14.302 35.2638 14.092 35.2298 13.9 35.1618C13.704 35.0938 13.536 34.9978 13.396 34.8738C13.252 34.7458 13.14 34.5918 13.06 34.4118C12.98 34.2278 12.94 34.0218 12.94 33.7938C12.94 33.5658 12.98 33.3678 13.06 33.1998C13.14 33.0278 13.252 32.8818 13.396 32.7618C13.536 32.6418 13.704 32.5458 13.9 32.4738C14.092 32.4018 14.302 32.3518 14.53 32.3238L16 32.1438V32.7318L14.518 32.9178C14.378 32.9338 14.248 32.9638 14.128 33.0078C14.008 33.0478 13.906 33.1038 13.822 33.1758C13.734 33.2438 13.666 33.3298 13.618 33.4338C13.566 33.5338 13.54 33.6538 13.54 33.7938Z" fill="#E35522"/>
<path d="M13.4745 29.0343L13.6137 28.4692L16.5266 29.1872L16.3873 29.7523L13.4745 29.0343ZM12.5557 28.8758C12.4508 28.85 12.375 28.7983 12.3282 28.7209C12.2784 28.6386 12.2664 28.545 12.2923 28.4401C12.3172 28.3392 12.3703 28.2657 12.4516 28.2199C12.5301 28.1692 12.6217 28.1567 12.7266 28.1826C12.8314 28.2084 12.9087 28.2625 12.9585 28.3448C13.0053 28.4222 13.0163 28.5115 12.9914 28.6124C12.9655 28.7173 12.9134 28.7951 12.835 28.8458C12.7536 28.8917 12.6605 28.9017 12.5557 28.8758Z" fill="#E35522"/>
<path d="M16.3038 24.5709C16.4283 24.3336 16.4841 24.137 16.471 23.9811C16.4599 23.8216 16.359 23.6738 16.1684 23.5377L15.6653 23.1923L15.9358 22.6769L16.4283 23.0167C16.6507 23.1696 16.8052 23.3185 16.8918 23.4633C16.9768 23.6028 17.0051 23.7554 16.9768 23.9212C17.088 23.8125 17.2341 23.7536 17.415 23.7447C17.5959 23.7357 17.8018 23.7738 18.0327 23.8588L18.5921 24.0711L18.3217 24.5864L17.7516 24.3686C17.5296 24.2837 17.3499 24.2819 17.2123 24.3633C17.0747 24.4447 16.9436 24.6041 16.8191 24.8414L16.5291 25.3939L17.6023 25.9571L17.3318 26.4725L13.6129 24.5206L13.8834 24.0053L16.0138 25.1234L16.3038 24.5709Z" fill="#E35522"/>
<path d="M19.3553 19.5543C19.2217 19.5482 19.0916 19.5745 18.9648 19.6332C18.8376 19.6862 18.7237 19.7696 18.6229 19.8834C18.4584 20.069 18.3742 20.2697 18.3703 20.4852C18.3663 20.7008 18.4351 20.9007 18.5765 21.0848L19.3553 19.5543ZM18.3493 21.6851C18.1787 21.5339 18.0453 21.3677 17.9494 21.1865C17.8531 20.9997 17.7963 20.8104 17.779 20.6188C17.7614 20.4215 17.785 20.2259 17.8498 20.0322C17.9146 19.8384 18.0226 19.6562 18.1738 19.4855C18.3011 19.3418 18.4416 19.2285 18.5952 19.1455C18.7459 19.0599 18.9026 19.0037 19.0653 18.9768C19.2251 18.9473 19.3867 18.9489 19.5502 18.9815C19.7163 19.0111 19.877 19.068 20.0323 19.1521L20.1625 19.2675L19.0355 21.4353C19.2127 21.5068 19.3906 21.5201 19.5692 21.4753C19.7505 21.4275 19.9141 21.3213 20.06 21.1566C20.1979 21.0009 20.2784 20.8317 20.3013 20.649C20.3243 20.4662 20.2939 20.2924 20.2103 20.1274L20.6161 19.6693C20.7183 19.8133 20.7942 19.966 20.8436 20.1274C20.8957 20.2857 20.9182 20.4473 20.9112 20.6121C20.9011 20.7742 20.8642 20.9365 20.8004 21.0991C20.7335 21.259 20.6364 21.4108 20.5091 21.5545C20.3579 21.7251 20.1916 21.8556 20.01 21.946C19.8285 22.0363 19.6432 22.0886 19.4542 22.1028C19.2649 22.1115 19.0746 22.0819 18.8835 22.0141C18.6951 21.9433 18.517 21.8337 18.3493 21.6851Z" fill="#E35522"/>
<path d="M22.9292 16.0883C22.6757 16.2633 22.5227 16.4782 22.4702 16.7331C22.4188 16.9825 22.4771 17.229 22.6453 17.4726L23.4871 18.6923L23.0082 19.0229L22.1731 17.8131C22.0436 17.6255 21.9539 17.4322 21.9041 17.2333C21.8553 17.0288 21.8455 16.8314 21.8746 16.6412C21.9047 16.4455 21.9744 16.2613 22.0837 16.0886C22.193 15.916 22.3414 15.7649 22.5291 15.6354C22.6706 15.5377 22.8159 15.4666 22.965 15.422L23.299 15.9059C23.235 15.9258 23.1711 15.9529 23.1073 15.9872C23.0445 16.016 22.9851 16.0497 22.9292 16.0883Z" fill="#E35522"/>
<path d="M25.8362 13.0207C25.7908 12.901 25.789 12.7947 25.8308 12.7019C25.8749 12.6039 25.9531 12.5336 26.0653 12.491C26.1812 12.4471 26.2863 12.4479 26.3806 12.4934C26.4772 12.5338 26.5482 12.6138 26.5935 12.7335C26.6432 12.8644 26.6526 13.002 26.6218 13.1463L26.5432 13.5483L26.1561 13.6951L26.2382 13.2853C26.1568 13.3077 26.079 13.2944 26.0049 13.2455C25.9293 13.1929 25.8731 13.1179 25.8362 13.0207Z" fill="#E35522"/>
<path d="M31.9179 15.3078C31.4414 15.3657 31.0561 15.3118 30.762 15.146C30.4714 14.9758 30.2895 14.7057 30.2164 14.3359L30.8239 14.2621C30.8674 14.4543 30.9724 14.5886 31.1388 14.6651C31.3087 14.7371 31.5585 14.7531 31.888 14.7131C32.1422 14.6823 32.3354 14.6306 32.4676 14.5581C32.5993 14.4817 32.6582 14.3859 32.6442 14.2707C32.6168 14.0444 32.293 13.9669 31.6731 14.0381C31.1763 14.0944 30.7988 14.0717 30.5407 13.9701C30.2825 13.8685 30.1363 13.6767 30.1021 13.3948C30.0838 13.2439 30.1009 13.1028 30.1535 12.9715C30.21 12.8397 30.2945 12.7227 30.407 12.6204C30.5235 12.5176 30.6684 12.4335 30.8418 12.3681C31.0147 12.2988 31.2103 12.2509 31.4287 12.2243C31.8933 12.1679 32.2689 12.2251 32.5556 12.3958C32.8462 12.566 33.0298 12.8338 33.1064 13.1992L32.493 13.2737C32.45 13.0855 32.3455 12.9552 32.1795 12.8826C32.0171 12.8057 31.7849 12.7855 31.4832 12.8221C31.2171 12.8544 31.013 12.9155 30.8708 13.0053C30.7281 13.0911 30.6644 13.1976 30.6799 13.3246C30.6934 13.4358 30.7705 13.507 30.9113 13.5383C31.0516 13.5656 31.2831 13.5637 31.6057 13.5325C32.1467 13.4749 32.542 13.4954 32.7917 13.594C33.0449 13.6882 33.1884 13.8743 33.2222 14.1522C33.2603 14.4659 33.1626 14.7236 32.9292 14.9252C32.6958 15.1268 32.3587 15.2543 31.9179 15.3078Z" fill="#E35522"/>
<path d="M40.7734 16.2274C40.5602 16.1465 40.3785 16.0391 40.2282 15.9051C40.0794 15.7674 39.9648 15.6127 39.8844 15.4411C39.8093 15.2671 39.7695 15.0787 39.7651 14.876C39.7644 14.6747 39.8045 14.4674 39.8854 14.2543C39.9662 14.0411 40.0743 13.8575 40.2097 13.7035C40.3503 13.5472 40.5071 13.427 40.6802 13.3429C40.8584 13.2565 41.0496 13.2092 41.2537 13.2011C41.4579 13.1929 41.6666 13.2293 41.8798 13.3101C42.0929 13.391 42.2732 13.5021 42.4206 13.6436C42.5681 13.7851 42.6779 13.9465 42.7503 14.128C42.8278 14.3071 42.8655 14.5011 42.8633 14.7099C42.8663 14.9163 42.8274 15.1262 42.7465 15.3394C42.6657 15.5525 42.5564 15.7335 42.4186 15.8824C42.2847 16.0326 42.13 16.1472 41.9546 16.2262C41.7843 16.3028 41.5979 16.3433 41.3951 16.3477C41.1938 16.3483 40.9866 16.3082 40.7734 16.2274ZM40.9861 15.6664C41.2517 15.7671 41.4954 15.7675 41.7172 15.6677C41.939 15.5679 42.1003 15.3852 42.201 15.1196C42.2506 14.9887 42.2743 14.8587 42.2719 14.7294C42.2734 14.6016 42.2504 14.4817 42.2031 14.3696C42.1595 14.259 42.0919 14.1606 42.0005 14.0746C41.9091 13.9886 41.7979 13.9208 41.667 13.8711C41.5361 13.8215 41.4079 13.7985 41.2824 13.8023C41.1569 13.806 41.0393 13.8342 40.9296 13.8867C40.8198 13.9391 40.7212 14.013 40.6338 14.1082C40.5501 14.2048 40.4834 14.3185 40.4338 14.4494C40.3331 14.715 40.3326 14.9586 40.4325 15.1805C40.536 15.4037 40.7206 15.5657 40.9861 15.6664Z" fill="#E35522"/>
<path d="M46.1729 16.1588C46.0577 16.0793 45.9404 16.0275 45.8209 16.0033C45.7048 15.9815 45.5904 15.9852 45.4779 16.0144C45.3654 16.0437 45.2585 16.0963 45.1575 16.1724C45.0564 16.2484 44.9661 16.344 44.8865 16.4592L44.0447 17.6789L43.5657 17.3483L44.4007 16.1385C44.5303 15.9509 44.6775 15.7974 44.8426 15.678C45.0099 15.5553 45.1843 15.4716 45.3659 15.4268C45.553 15.381 45.7434 15.3763 45.937 15.4127C46.1338 15.4514 46.3261 15.5355 46.5137 15.665C46.7014 15.7945 46.8416 15.9399 46.9344 16.1012C47.0305 16.2648 47.0871 16.4399 47.104 16.6265C47.1233 16.8099 47.1068 17.0027 47.0547 17.2049C47.0049 17.4038 46.9268 17.6051 46.8203 17.8086L46.1334 19.1207L45.6495 18.7866L46.3383 17.4613C46.4046 17.337 46.4538 17.213 46.4858 17.0892C46.521 16.9677 46.5329 16.852 46.5213 16.742C46.5153 16.6309 46.4832 16.5261 46.4249 16.4275C46.3721 16.3279 46.2881 16.2383 46.1729 16.1588Z" fill="#E35522"/>
<path d="M51.5798 25.0258L51.0538 25.3019C50.7337 24.8555 50.6001 24.4761 50.653 24.1638C50.7078 23.855 50.9512 23.5871 51.3833 23.3604L54.045 21.9634L54.3155 22.4787L51.6431 23.8813C51.5227 23.9445 51.4355 24.0151 51.3816 24.0931C51.3277 24.1711 51.3008 24.2575 51.3008 24.3523C51.3009 24.4471 51.3253 24.5495 51.374 24.6595C51.4245 24.773 51.4931 24.8951 51.5798 25.0258ZM53.6368 23.5871L53.0959 22.5564L53.5775 22.2088L54.1574 23.3138L53.6368 23.5871Z" fill="#E35522"/>
<path d="M52.3362 28.8811C52.2816 28.6597 52.2668 28.4492 52.2917 28.2494C52.3205 28.0487 52.3827 27.8665 52.4784 27.7028C52.5788 27.5421 52.7112 27.4024 52.8756 27.2836C53.0409 27.1687 53.2342 27.084 53.4556 27.0294C53.677 26.9748 53.8895 26.9595 54.0931 26.9835C54.3016 27.0104 54.4896 27.0712 54.6571 27.1658C54.8295 27.2634 54.977 27.3939 55.0997 27.5573C55.2224 27.7207 55.311 27.9131 55.3655 28.1344C55.4201 28.3558 55.431 28.5673 55.3984 28.769C55.3657 28.9707 55.2952 29.1529 55.187 29.3155C55.0836 29.481 54.9454 29.6222 54.7723 29.739C54.6041 29.8588 54.4093 29.9459 54.1879 30.0005C53.9665 30.0551 53.7555 30.0679 53.5547 30.0391C53.355 30.0142 53.1728 29.952 53.0082 29.8525C52.8484 29.7559 52.7092 29.6255 52.5904 29.4611C52.4755 29.2958 52.3908 29.1025 52.3362 28.8811ZM52.9188 28.7375C52.9867 29.0133 53.1248 29.2141 53.333 29.3399C53.5411 29.4657 53.7831 29.4947 54.0588 29.4267C54.1948 29.3932 54.3152 29.3388 54.4203 29.2635C54.5262 29.192 54.6119 29.105 54.6773 29.0024C54.7435 28.9036 54.7861 28.7922 54.805 28.6681C54.8238 28.544 54.8165 28.414 54.783 28.278C54.7495 28.1421 54.6955 28.0236 54.6212 27.9224C54.5468 27.8213 54.4568 27.7405 54.3513 27.68C54.2458 27.6195 54.129 27.5803 54.001 27.5624C53.8739 27.5484 53.7425 27.5581 53.6065 27.5916C53.3308 27.6596 53.13 27.7977 53.0041 28.0058C52.8793 28.2179 52.8508 28.4618 52.9188 28.7375Z" fill="#E35522"/>
<path d="M56.06 33.3998C56.06 33.6278 56.022 33.8358 55.946 34.0238C55.874 34.2118 55.77 34.3718 55.634 34.5038C55.502 34.6398 55.342 34.7438 55.154 34.8158C54.966 34.8918 54.758 34.9298 54.53 34.9298C54.302 34.9298 54.09 34.8918 53.894 34.8158C53.702 34.7438 53.534 34.6398 53.39 34.5038C53.25 34.3718 53.14 34.2118 53.06 34.0238C52.98 33.8358 52.94 33.6278 52.94 33.3998C52.94 33.1718 52.98 32.9638 53.06 32.7758C53.14 32.5878 53.25 32.4258 53.39 32.2898C53.534 32.1578 53.702 32.0538 53.894 31.9778C54.09 31.9058 54.302 31.8698 54.53 31.8698C54.758 31.8698 54.966 31.9058 55.154 31.9778C55.342 32.0538 55.502 32.1578 55.634 32.2898C55.77 32.4258 55.874 32.5878 55.946 32.7758C56.022 32.9638 56.06 33.1718 56.06 33.3998ZM51.8 32.4578V31.8698H56V32.4578H51.8ZM55.46 33.3998C55.46 33.1158 55.374 32.8878 55.202 32.7158C55.03 32.5438 54.802 32.4578 54.518 32.4578C54.378 32.4578 54.248 32.4798 54.128 32.5238C54.008 32.5718 53.904 32.6358 53.816 32.7158C53.732 32.7998 53.664 32.8998 53.612 33.0158C53.564 33.1318 53.54 33.2598 53.54 33.3998C53.54 33.5398 53.564 33.6678 53.612 33.7838C53.664 33.8998 53.732 33.9978 53.816 34.0778C53.904 34.1618 54.008 34.2258 54.128 34.2698C54.248 34.3178 54.378 34.3418 54.518 34.3418C54.802 34.3418 55.03 34.2558 55.202 34.0838C55.374 33.9118 55.46 33.6838 55.46 33.3998Z" fill="#E35522"/>
<mask id="path-16-outside-1_11_412" maskUnits="userSpaceOnUse" x="25" y="49" width="20" height="8" fill="black">
<rect fill="white" x="25" y="49" width="20" height="8"/>
<path d="M30.446 50.5H31.394V55.624H30.446V53.344H30.02V55.534H29.084V50.524H30.02V52.384H30.446V50.5ZM27.374 54.49H27.65C28.052 54.49 28.532 54.43 28.844 54.316V55.204C28.538 55.33 27.992 55.384 27.56 55.384H26.384V50.608H27.374V54.49ZM36.8775 51.286H37.4775V52.252H36.8775V53.32H35.8635V50.5H36.8775V51.286ZM33.8895 52.444C33.4935 52.918 32.8695 53.272 32.1255 53.29V52.402C32.7855 52.366 33.2235 51.886 33.3255 51.4H32.1975V50.56H35.4615V51.4H34.3515C34.3455 51.496 34.3215 51.592 34.2975 51.688L35.6415 52.432L35.1675 53.182L33.8895 52.444ZM34.6155 53.392C35.9055 53.392 36.9255 53.686 36.9255 54.538C36.9255 55.39 35.9055 55.684 34.6155 55.684C33.3255 55.684 32.3055 55.39 32.3055 54.538C32.3055 53.686 33.3255 53.392 34.6155 53.392ZM34.6155 54.874C35.2935 54.874 35.8335 54.784 35.8335 54.538C35.8335 54.298 35.2935 54.202 34.6155 54.202C33.9375 54.202 33.3975 54.298 33.3975 54.538C33.3975 54.784 33.9375 54.874 34.6155 54.874ZM42.649 51.466H43.249V52.45H42.649V54.292H41.635V50.5H42.649V51.466ZM39.625 52.534C39.199 53.146 38.575 53.56 37.837 53.596V52.654C38.647 52.558 39.181 51.652 39.199 50.524L40.219 50.584C40.219 50.98 40.153 51.37 40.027 51.73L41.485 52.816L40.879 53.524L39.625 52.534ZM39.157 53.83V54.712H42.721V55.624H38.125V53.83H39.157Z"/>
</mask>
<path d="M30.446 50.5H31.394V55.624H30.446V53.344H30.02V55.534H29.084V50.524H30.02V52.384H30.446V50.5ZM27.374 54.49H27.65C28.052 54.49 28.532 54.43 28.844 54.316V55.204C28.538 55.33 27.992 55.384 27.56 55.384H26.384V50.608H27.374V54.49ZM36.8775 51.286H37.4775V52.252H36.8775V53.32H35.8635V50.5H36.8775V51.286ZM33.8895 52.444C33.4935 52.918 32.8695 53.272 32.1255 53.29V52.402C32.7855 52.366 33.2235 51.886 33.3255 51.4H32.1975V50.56H35.4615V51.4H34.3515C34.3455 51.496 34.3215 51.592 34.2975 51.688L35.6415 52.432L35.1675 53.182L33.8895 52.444ZM34.6155 53.392C35.9055 53.392 36.9255 53.686 36.9255 54.538C36.9255 55.39 35.9055 55.684 34.6155 55.684C33.3255 55.684 32.3055 55.39 32.3055 54.538C32.3055 53.686 33.3255 53.392 34.6155 53.392ZM34.6155 54.874C35.2935 54.874 35.8335 54.784 35.8335 54.538C35.8335 54.298 35.2935 54.202 34.6155 54.202C33.9375 54.202 33.3975 54.298 33.3975 54.538C33.3975 54.784 33.9375 54.874 34.6155 54.874ZM42.649 51.466H43.249V52.45H42.649V54.292H41.635V50.5H42.649V51.466ZM39.625 52.534C39.199 53.146 38.575 53.56 37.837 53.596V52.654C38.647 52.558 39.181 51.652 39.199 50.524L40.219 50.584C40.219 50.98 40.153 51.37 40.027 51.73L41.485 52.816L40.879 53.524L39.625 52.534ZM39.157 53.83V54.712H42.721V55.624H38.125V53.83H39.157Z" fill="#E35522"/>
<path d="M30.446 50.5V49.5H29.446V50.5H30.446ZM31.394 50.5H32.394V49.5H31.394V50.5ZM31.394 55.624V56.624H32.394V55.624H31.394ZM30.446 55.624H29.446V56.624H30.446V55.624ZM30.446 53.344H31.446V52.344H30.446V53.344ZM30.02 53.344V52.344H29.02V53.344H30.02ZM30.02 55.534V56.534H31.02V55.534H30.02ZM29.084 55.534H28.084V56.534H29.084V55.534ZM29.084 50.524V49.524H28.084V50.524H29.084ZM30.02 50.524H31.02V49.524H30.02V50.524ZM30.02 52.384H29.02V53.384H30.02V52.384ZM30.446 52.384V53.384H31.446V52.384H30.446ZM27.374 54.49H26.374V55.49H27.374V54.49ZM28.844 54.316H29.844V52.886L28.5008 53.3767L28.844 54.316ZM28.844 55.204L29.2247 56.1287L29.844 55.8737V55.204H28.844ZM26.384 55.384H25.384V56.384H26.384V55.384ZM26.384 50.608V49.608H25.384V50.608H26.384ZM27.374 50.608H28.374V49.608H27.374V50.608ZM30.446 50.5V51.5H31.394V50.5V49.5H30.446V50.5ZM31.394 50.5H30.394V55.624H31.394H32.394V50.5H31.394ZM31.394 55.624V54.624H30.446V55.624V56.624H31.394V55.624ZM30.446 55.624H31.446V53.344H30.446H29.446V55.624H30.446ZM30.446 53.344V52.344H30.02V53.344V54.344H30.446V53.344ZM30.02 53.344H29.02V55.534H30.02H31.02V53.344H30.02ZM30.02 55.534V54.534H29.084V55.534V56.534H30.02V55.534ZM29.084 55.534H30.084V50.524H29.084H28.084V55.534H29.084ZM29.084 50.524V51.524H30.02V50.524V49.524H29.084V50.524ZM30.02 50.524H29.02V52.384H30.02H31.02V50.524H30.02ZM30.02 52.384V53.384H30.446V52.384V51.384H30.02V52.384ZM30.446 52.384H31.446V50.5H30.446H29.446V52.384H30.446ZM27.374 54.49V55.49H27.65V54.49V53.49H27.374V54.49ZM27.65 54.49V55.49C28.1149 55.49 28.7238 55.4246 29.1872 55.2553L28.844 54.316L28.5008 53.3767C28.3402 53.4354 27.9891 53.49 27.65 53.49V54.49ZM28.844 54.316H27.844V55.204H28.844H29.844V54.316H28.844ZM28.844 55.204L28.4633 54.2793C28.3488 54.3264 27.9698 54.384 27.56 54.384V55.384V56.384C28.0142 56.384 28.7272 56.3336 29.2247 56.1287L28.844 55.204ZM27.56 55.384V54.384H26.384V55.384V56.384H27.56V55.384ZM26.384 55.384H27.384V50.608H26.384H25.384V55.384H26.384ZM26.384 50.608V51.608H27.374V50.608V49.608H26.384V50.608ZM27.374 50.608H26.374V54.49H27.374H28.374V50.608H27.374ZM36.8775 51.286H35.8775V52.286H36.8775V51.286ZM37.4775 51.286H38.4775V50.286H37.4775V51.286ZM37.4775 52.252V53.252H38.4775V52.252H37.4775ZM36.8775 52.252V51.252H35.8775V52.252H36.8775ZM36.8775 53.32V54.32H37.8775V53.32H36.8775ZM35.8635 53.32H34.8635V54.32H35.8635V53.32ZM35.8635 50.5V49.5H34.8635V50.5H35.8635ZM36.8775 50.5H37.8775V49.5H36.8775V50.5ZM33.8895 52.444L34.3896 51.578L33.6613 51.1575L33.1221 51.8029L33.8895 52.444ZM32.1255 53.29H31.1255V54.3145L32.1497 54.2897L32.1255 53.29ZM32.1255 52.402L32.071 51.4035L31.1255 51.4551V52.402H32.1255ZM33.3255 51.4L34.3042 51.6054L34.5571 50.4H33.3255V51.4ZM32.1975 51.4H31.1975V52.4H32.1975V51.4ZM32.1975 50.56V49.56H31.1975V50.56H32.1975ZM35.4615 50.56H36.4615V49.56H35.4615V50.56ZM35.4615 51.4V52.4H36.4615V51.4H35.4615ZM34.3515 51.4V50.4H33.412L33.3534 51.3376L34.3515 51.4ZM34.2975 51.688L33.3273 51.4455L33.141 52.1908L33.8132 52.5629L34.2975 51.688ZM35.6415 52.432L36.4868 52.9662L37.053 52.0704L36.1258 51.5571L35.6415 52.432ZM35.1675 53.182L34.6674 54.048L35.4995 54.5285L36.0128 53.7162L35.1675 53.182ZM36.8775 51.286V52.286H37.4775V51.286V50.286H36.8775V51.286ZM37.4775 51.286H36.4775V52.252H37.4775H38.4775V51.286H37.4775ZM37.4775 52.252V51.252H36.8775V52.252V53.252H37.4775V52.252ZM36.8775 52.252H35.8775V53.32H36.8775H37.8775V52.252H36.8775ZM36.8775 53.32V52.32H35.8635V53.32V54.32H36.8775V53.32ZM35.8635 53.32H36.8635V50.5H35.8635H34.8635V53.32H35.8635ZM35.8635 50.5V51.5H36.8775V50.5V49.5H35.8635V50.5ZM36.8775 50.5H35.8775V51.286H36.8775H37.8775V50.5H36.8775ZM33.8895 52.444L33.1221 51.8029C32.8952 52.0744 32.5343 52.2798 32.1013 52.2903L32.1255 53.29L32.1497 54.2897C33.2047 54.2642 34.0918 53.7616 34.6569 53.0851L33.8895 52.444ZM32.1255 53.29H33.1255V52.402H32.1255H31.1255V53.29H32.1255ZM32.1255 52.402L32.1799 53.4005C33.3353 53.3375 34.1184 52.4906 34.3042 51.6054L33.3255 51.4L32.3468 51.1946C32.3398 51.2279 32.3142 51.2826 32.2638 51.3282C32.2212 51.3668 32.1618 51.3985 32.071 51.4035L32.1255 52.402ZM33.3255 51.4V50.4H32.1975V51.4V52.4H33.3255V51.4ZM32.1975 51.4H33.1975V50.56H32.1975H31.1975V51.4H32.1975ZM32.1975 50.56V51.56H35.4615V50.56V49.56H32.1975V50.56ZM35.4615 50.56H34.4615V51.4H35.4615H36.4615V50.56H35.4615ZM35.4615 51.4V50.4H34.3515V51.4V52.4H35.4615V51.4ZM34.3515 51.4L33.3534 51.3376C33.3542 51.3249 33.3553 51.3248 33.3512 51.3449C33.3467 51.3674 33.3403 51.3937 33.3273 51.4455L34.2975 51.688L35.2676 51.9305C35.2874 51.8516 35.3368 51.6656 35.3495 51.4624L34.3515 51.4ZM34.2975 51.688L33.8132 52.5629L35.1572 53.3069L35.6415 52.432L36.1258 51.5571L34.7818 50.8131L34.2975 51.688ZM35.6415 52.432L34.7962 51.8978L34.3222 52.6478L35.1675 53.182L36.0128 53.7162L36.4868 52.9662L35.6415 52.432ZM35.1675 53.182L35.6676 52.316L34.3896 51.578L33.8895 52.444L33.3894 53.31L34.6674 54.048L35.1675 53.182ZM34.6155 53.392V54.392C35.2132 54.392 35.6283 54.4643 35.8573 54.5634C35.9624 54.6088 35.9756 54.6376 35.9596 54.6173C35.9504 54.6056 35.9396 54.5874 35.9322 54.5656C35.925 54.5442 35.9255 54.5327 35.9255 54.538H36.9255H37.9255C37.9255 54.109 37.7914 53.7115 37.5323 53.3817C37.2848 53.0666 36.9623 52.8622 36.6511 52.7276C36.0477 52.4667 35.3077 52.392 34.6155 52.392V53.392ZM36.9255 54.538H35.9255C35.9255 54.5433 35.925 54.5318 35.9322 54.5104C35.9396 54.4886 35.9504 54.4704 35.9596 54.4587C35.9756 54.4384 35.9624 54.4672 35.8573 54.5126C35.6283 54.6117 35.2132 54.684 34.6155 54.684V55.684V56.684C35.3077 56.684 36.0477 56.6093 36.6511 56.3484C36.9623 56.2138 37.2848 56.0094 37.5323 55.6943C37.7914 55.3645 37.9255 54.967 37.9255 54.538H36.9255ZM34.6155 55.684V54.684C34.0177 54.684 33.6027 54.6117 33.3736 54.5126C33.2686 54.4672 33.2554 54.4384 33.2714 54.4587C33.2806 54.4704 33.2914 54.4886 33.2988 54.5104C33.306 54.5318 33.3055 54.5433 33.3055 54.538H32.3055H31.3055C31.3055 54.967 31.4396 55.3645 31.6987 55.6943C31.9462 56.0094 32.2687 56.2138 32.5798 56.3484C33.1833 56.6093 33.9232 56.684 34.6155 56.684V55.684ZM32.3055 54.538H33.3055C33.3055 54.5327 33.306 54.5442 33.2988 54.5656C33.2914 54.5874 33.2806 54.6056 33.2714 54.6173C33.2554 54.6376 33.2686 54.6088 33.3736 54.5634C33.6027 54.4643 34.0177 54.392 34.6155 54.392V53.392V52.392C33.9232 52.392 33.1833 52.4667 32.5798 52.7276C32.2687 52.8622 31.9462 53.0666 31.6987 53.3817C31.4396 53.7115 31.3055 54.109 31.3055 54.538H32.3055ZM34.6155 54.874V55.874C34.9801 55.874 35.3785 55.8515 35.7142 55.7701C35.8756 55.731 36.1037 55.6599 36.3136 55.5124C36.5424 55.3516 36.8335 55.0296 36.8335 54.538H35.8335H34.8335C34.8335 54.3748 34.8812 54.2219 34.9586 54.0969C35.0307 53.9804 35.1136 53.9112 35.1635 53.8762C35.2509 53.8147 35.3017 53.8122 35.2432 53.8264C35.1395 53.8515 34.9289 53.874 34.6155 53.874V54.874ZM35.8335 54.538H36.8335C36.8335 54.0395 36.5332 53.7195 36.3111 53.5644C36.1037 53.4196 35.8783 53.3484 35.7174 53.3089C35.382 53.2265 34.9839 53.202 34.6155 53.202V54.202V55.202C34.925 55.202 35.1359 55.2255 35.2401 55.2511C35.2989 55.2656 35.2509 55.2634 35.166 55.2041C35.1178 55.1705 35.0351 55.1026 34.9624 54.9869C34.8841 54.8624 34.8335 54.707 34.8335 54.538H35.8335ZM34.6155 54.202V53.202C34.247 53.202 33.8489 53.2265 33.5136 53.3089C33.3527 53.3484 33.1273 53.4196 32.9199 53.5644C32.6978 53.7195 32.3975 54.0395 32.3975 54.538H33.3975H34.3975C34.3975 54.707 34.3469 54.8624 34.2686 54.9869C34.1959 55.1026 34.1132 55.1705 34.065 55.2041C33.9801 55.2634 33.932 55.2656 33.9909 55.2511C34.095 55.2255 34.3059 55.202 34.6155 55.202V54.202ZM33.3975 54.538H32.3975C32.3975 55.0296 32.6886 55.3516 32.9174 55.5124C33.1272 55.6599 33.3554 55.731 33.5167 55.7701C33.8525 55.8515 34.2509 55.874 34.6155 55.874V54.874V53.874C34.3021 53.874 34.0915 53.8515 33.9877 53.8264C33.9293 53.8122 33.9801 53.8147 34.0675 53.8762C34.1174 53.9112 34.2003 53.9804 34.2724 54.0969C34.3498 54.2219 34.3975 54.3748 34.3975 54.538H33.3975ZM42.649 51.466H41.649V52.466H42.649V51.466ZM43.249 51.466H44.249V50.466H43.249V51.466ZM43.249 52.45V53.45H44.249V52.45H43.249ZM42.649 52.45V51.45H41.649V52.45H42.649ZM42.649 54.292V55.292H43.649V54.292H42.649ZM41.635 54.292H40.635V55.292H41.635V54.292ZM41.635 50.5V49.5H40.635V50.5H41.635ZM42.649 50.5H43.649V49.5H42.649V50.5ZM39.625 52.534L40.2446 51.7491L39.411 51.091L38.8042 51.9627L39.625 52.534ZM37.837 53.596H36.837V54.646L37.8857 54.5948L37.837 53.596ZM37.837 52.654L37.7193 51.6609L36.837 51.7655V52.654H37.837ZM39.199 50.524L39.2577 49.5257L38.2157 49.4644L38.1991 50.508L39.199 50.524ZM40.219 50.584H41.219V49.6411L40.2777 49.5857L40.219 50.584ZM40.027 51.73L39.0831 51.3996L38.8404 52.0931L39.4296 52.532L40.027 51.73ZM41.485 52.816L42.2447 53.4663L42.9405 52.6533L42.0823 52.014L41.485 52.816ZM40.879 53.524L40.2593 54.3089L41.0137 54.9044L41.6387 54.1743L40.879 53.524ZM39.157 53.83H40.157V52.83H39.157V53.83ZM39.157 54.712H38.157V55.712H39.157V54.712ZM42.721 54.712H43.721V53.712H42.721V54.712ZM42.721 55.624V56.624H43.721V55.624H42.721ZM38.125 55.624H37.125V56.624H38.125V55.624ZM38.125 53.83V52.83H37.125V53.83H38.125ZM42.649 51.466V52.466H43.249V51.466V50.466H42.649V51.466ZM43.249 51.466H42.249V52.45H43.249H44.249V51.466H43.249ZM43.249 52.45V51.45H42.649V52.45V53.45H43.249V52.45ZM42.649 52.45H41.649V54.292H42.649H43.649V52.45H42.649ZM42.649 54.292V53.292H41.635V54.292V55.292H42.649V54.292ZM41.635 54.292H42.635V50.5H41.635H40.635V54.292H41.635ZM41.635 50.5V51.5H42.649V50.5V49.5H41.635V50.5ZM42.649 50.5H41.649V51.466H42.649H43.649V50.5H42.649ZM39.625 52.534L38.8042 51.9627C38.5169 52.3755 38.155 52.5793 37.7882 52.5972L37.837 53.596L37.8857 54.5948C38.995 54.5407 39.881 53.9165 40.4457 53.1053L39.625 52.534ZM37.837 53.596H38.837V52.654H37.837H36.837V53.596H37.837ZM37.837 52.654L37.9547 53.647C38.7303 53.5551 39.3066 53.0766 39.6632 52.5057C40.0152 51.9419 40.1876 51.2468 40.1988 50.54L39.199 50.524L38.1991 50.508C38.1924 50.9292 38.0887 51.2511 37.9668 51.4463C37.8493 51.6344 37.7537 51.6569 37.7193 51.6609L37.837 52.654ZM39.199 50.524L39.1402 51.5223L40.1602 51.5823L40.219 50.584L40.2777 49.5857L39.2577 49.5257L39.199 50.524ZM40.219 50.584H39.219C39.219 50.8701 39.1711 51.1483 39.0831 51.3996L40.027 51.73L40.9708 52.0604C41.1348 51.5917 41.219 51.0899 41.219 50.584H40.219ZM40.027 51.73L39.4296 52.532L40.8876 53.618L41.485 52.816L42.0823 52.014L40.6243 50.928L40.027 51.73ZM41.485 52.816L40.7253 52.1657L40.1193 52.8737L40.879 53.524L41.6387 54.1743L42.2447 53.4663L41.485 52.816ZM40.879 53.524L41.4986 52.7391L40.2446 51.7491L39.625 52.534L39.0053 53.3189L40.2593 54.3089L40.879 53.524ZM39.157 53.83H38.157V54.712H39.157H40.157V53.83H39.157ZM39.157 54.712V55.712H42.721V54.712V53.712H39.157V54.712ZM42.721 54.712H41.721V55.624H42.721H43.721V54.712H42.721ZM42.721 55.624V54.624H38.125V55.624V56.624H42.721V55.624ZM38.125 55.624H39.125V53.83H38.125H37.125V55.624H38.125ZM38.125 53.83V54.83H39.157V53.83V52.83H38.125V53.83Z" fill="white" mask="url(#path-16-outside-1_11_412)"/>
<mask id="path-18-outside-2_11_412" maskUnits="userSpaceOnUse" x="23" y="45" width="22" height="6" fill="black">
<rect fill="white" x="23" y="45" width="22" height="6"/>
<path d="M27.312 46.812H27.792V47.192H27.312V48.536H26.916V46H27.312V46.812ZM26.668 47.78C26.46 47.872 26.052 47.932 25.568 47.932H24.34V46.084H26.424V46.428H24.74V47.588H25.592C26.056 47.588 26.448 47.536 26.668 47.44V47.78ZM24.856 48.264V49.012H27.404V49.372H24.456V48.264H24.856ZM31.2797 47.008V47.32H28.2637V47.008H28.8677V46.352H28.2997V46.04H31.2437V46.352H30.6757V47.008H31.2797ZM29.2637 46.352V47.008H30.2797V46.352H29.2637ZM31.4797 47.936H29.9677V48.248C30.6957 48.268 31.2797 48.424 31.2797 48.832C31.2797 49.28 30.5877 49.424 29.7717 49.424C28.9557 49.424 28.2637 49.276 28.2637 48.832C28.2637 48.424 28.8477 48.268 29.5757 48.248V47.936H28.0677V47.62H31.4797V47.936ZM30.8637 48.832C30.8637 48.616 30.3277 48.552 29.7717 48.552C29.2157 48.552 28.6797 48.616 28.6797 48.832C28.6797 49.052 29.2157 49.116 29.7717 49.116C30.3277 49.116 30.8637 49.052 30.8637 48.832ZM34.7193 49.416V46H35.1153V49.416H34.7193ZM33.0873 48.224C32.4713 48.224 32.0313 47.784 32.0313 47.148C32.0313 46.512 32.4713 46.072 33.0873 46.072C33.6993 46.072 34.1433 46.512 34.1433 47.148C34.1433 47.784 33.6993 48.224 33.0873 48.224ZM33.0873 47.864C33.4913 47.864 33.7553 47.556 33.7553 47.148C33.7553 46.74 33.4913 46.428 33.0873 46.428C32.6793 46.428 32.4193 46.74 32.4193 47.148C32.4193 47.556 32.6793 47.864 33.0873 47.864ZM31.9153 49.212V48.84H33.3113C33.7793 48.84 34.1993 48.788 34.4313 48.68V49.048C34.2033 49.152 33.7793 49.212 33.2873 49.212H31.9153ZM39.0401 46.628H39.7041V46H40.1001V47.704H39.7041V46.964H39.0401V46.628ZM38.0641 47.064C37.8281 47.392 37.4361 47.62 36.9521 47.676V47.348C37.5041 47.272 37.8561 46.912 37.9121 46.416H36.9961V46.088H39.1761V46.416H38.3081C38.2961 46.544 38.2681 46.664 38.2201 46.776L39.2961 47.36L39.1161 47.644L38.0641 47.064ZM37.5841 49.064H40.1841V49.372H37.1921V48.484H39.7081V48.2H37.1841V47.892H40.1001V48.776H37.5841V49.064ZM42.8877 46.644H43.5517V46H43.9477V47.92H43.5517V46.988H42.8877V46.644ZM41.9357 47.144C41.6997 47.516 41.3037 47.772 40.7997 47.82V47.464C41.3637 47.388 41.7157 46.984 41.7637 46.428H40.8437V46.088H43.0237V46.428H42.1597C42.1517 46.568 42.1237 46.7 42.0837 46.828L43.1357 47.492L42.9397 47.788L41.9357 47.144ZM42.4997 48.032C43.3277 48.032 43.9757 48.224 43.9757 48.724C43.9757 49.224 43.3277 49.416 42.4997 49.416C41.6717 49.416 41.0237 49.224 41.0237 48.724C41.0237 48.224 41.6717 48.032 42.4997 48.032ZM42.4997 49.092C43.0877 49.092 43.5557 48.976 43.5557 48.724C43.5557 48.472 43.0877 48.356 42.4997 48.356C41.9117 48.356 41.4437 48.472 41.4437 48.724C41.4437 48.976 41.9117 49.092 42.4997 49.092Z"/>
</mask>
<path d="M27.312 46.812H27.792V47.192H27.312V48.536H26.916V46H27.312V46.812ZM26.668 47.78C26.46 47.872 26.052 47.932 25.568 47.932H24.34V46.084H26.424V46.428H24.74V47.588H25.592C26.056 47.588 26.448 47.536 26.668 47.44V47.78ZM24.856 48.264V49.012H27.404V49.372H24.456V48.264H24.856ZM31.2797 47.008V47.32H28.2637V47.008H28.8677V46.352H28.2997V46.04H31.2437V46.352H30.6757V47.008H31.2797ZM29.2637 46.352V47.008H30.2797V46.352H29.2637ZM31.4797 47.936H29.9677V48.248C30.6957 48.268 31.2797 48.424 31.2797 48.832C31.2797 49.28 30.5877 49.424 29.7717 49.424C28.9557 49.424 28.2637 49.276 28.2637 48.832C28.2637 48.424 28.8477 48.268 29.5757 48.248V47.936H28.0677V47.62H31.4797V47.936ZM30.8637 48.832C30.8637 48.616 30.3277 48.552 29.7717 48.552C29.2157 48.552 28.6797 48.616 28.6797 48.832C28.6797 49.052 29.2157 49.116 29.7717 49.116C30.3277 49.116 30.8637 49.052 30.8637 48.832ZM34.7193 49.416V46H35.1153V49.416H34.7193ZM33.0873 48.224C32.4713 48.224 32.0313 47.784 32.0313 47.148C32.0313 46.512 32.4713 46.072 33.0873 46.072C33.6993 46.072 34.1433 46.512 34.1433 47.148C34.1433 47.784 33.6993 48.224 33.0873 48.224ZM33.0873 47.864C33.4913 47.864 33.7553 47.556 33.7553 47.148C33.7553 46.74 33.4913 46.428 33.0873 46.428C32.6793 46.428 32.4193 46.74 32.4193 47.148C32.4193 47.556 32.6793 47.864 33.0873 47.864ZM31.9153 49.212V48.84H33.3113C33.7793 48.84 34.1993 48.788 34.4313 48.68V49.048C34.2033 49.152 33.7793 49.212 33.2873 49.212H31.9153ZM39.0401 46.628H39.7041V46H40.1001V47.704H39.7041V46.964H39.0401V46.628ZM38.0641 47.064C37.8281 47.392 37.4361 47.62 36.9521 47.676V47.348C37.5041 47.272 37.8561 46.912 37.9121 46.416H36.9961V46.088H39.1761V46.416H38.3081C38.2961 46.544 38.2681 46.664 38.2201 46.776L39.2961 47.36L39.1161 47.644L38.0641 47.064ZM37.5841 49.064H40.1841V49.372H37.1921V48.484H39.7081V48.2H37.1841V47.892H40.1001V48.776H37.5841V49.064ZM42.8877 46.644H43.5517V46H43.9477V47.92H43.5517V46.988H42.8877V46.644ZM41.9357 47.144C41.6997 47.516 41.3037 47.772 40.7997 47.82V47.464C41.3637 47.388 41.7157 46.984 41.7637 46.428H40.8437V46.088H43.0237V46.428H42.1597C42.1517 46.568 42.1237 46.7 42.0837 46.828L43.1357 47.492L42.9397 47.788L41.9357 47.144ZM42.4997 48.032C43.3277 48.032 43.9757 48.224 43.9757 48.724C43.9757 49.224 43.3277 49.416 42.4997 49.416C41.6717 49.416 41.0237 49.224 41.0237 48.724C41.0237 48.224 41.6717 48.032 42.4997 48.032ZM42.4997 49.092C43.0877 49.092 43.5557 48.976 43.5557 48.724C43.5557 48.472 43.0877 48.356 42.4997 48.356C41.9117 48.356 41.4437 48.472 41.4437 48.724C41.4437 48.976 41.9117 49.092 42.4997 49.092Z" fill="#E35522"/>
<path d="M27.312 46.812H26.312V47.812H27.312V46.812ZM27.792 46.812H28.792V45.812H27.792V46.812ZM27.792 47.192V48.192H28.792V47.192H27.792ZM27.312 47.192V46.192H26.312V47.192H27.312ZM27.312 48.536V49.536H28.312V48.536H27.312ZM26.916 48.536H25.916V49.536H26.916V48.536ZM26.916 46V45H25.916V46H26.916ZM27.312 46H28.312V45H27.312V46ZM26.668 47.78L27.0725 48.6945L27.668 48.4311V47.78H26.668ZM24.34 47.932H23.34V48.932H24.34V47.932ZM24.34 46.084V45.084H23.34V46.084H24.34ZM26.424 46.084H27.424V45.084H26.424V46.084ZM26.424 46.428V47.428H27.424V46.428H26.424ZM24.74 46.428V45.428H23.74V46.428H24.74ZM24.74 47.588H23.74V48.588H24.74V47.588ZM26.668 47.44H27.668V45.9126L26.2681 46.5235L26.668 47.44ZM24.856 48.264H25.856V47.264H24.856V48.264ZM24.856 49.012H23.856V50.012H24.856V49.012ZM27.404 49.012H28.404V48.012H27.404V49.012ZM27.404 49.372V50.372H28.404V49.372H27.404ZM24.456 49.372H23.456V50.372H24.456V49.372ZM24.456 48.264V47.264H23.456V48.264H24.456ZM27.312 46.812V47.812H27.792V46.812V45.812H27.312V46.812ZM27.792 46.812H26.792V47.192H27.792H28.792V46.812H27.792ZM27.792 47.192V46.192H27.312V47.192V48.192H27.792V47.192ZM27.312 47.192H26.312V48.536H27.312H28.312V47.192H27.312ZM27.312 48.536V47.536H26.916V48.536V49.536H27.312V48.536ZM26.916 48.536H27.916V46H26.916H25.916V48.536H26.916ZM26.916 46V47H27.312V46V45H26.916V46ZM27.312 46H26.312V46.812H27.312H28.312V46H27.312ZM26.668 47.78L26.2635 46.8655C26.2822 46.8572 26.2328 46.8791 26.0823 46.9002C25.9469 46.9193 25.771 46.932 25.568 46.932V47.932V48.932C26.0828 48.932 26.6656 48.8745 27.0725 48.6945L26.668 47.78ZM25.568 47.932V46.932H24.34V47.932V48.932H25.568V47.932ZM24.34 47.932H25.34V46.084H24.34H23.34V47.932H24.34ZM24.34 46.084V47.084H26.424V46.084V45.084H24.34V46.084ZM26.424 46.084H25.424V46.428H26.424H27.424V46.084H26.424ZM26.424 46.428V45.428H24.74V46.428V47.428H26.424V46.428ZM24.74 46.428H23.74V47.588H24.74H25.74V46.428H24.74ZM24.74 47.588V48.588H25.592V47.588V46.588H24.74V47.588ZM25.592 47.588V48.588C26.0818 48.588 26.6489 48.5394 27.0679 48.3565L26.668 47.44L26.2681 46.5235C26.2784 46.519 26.2279 46.5399 26.0865 46.5592C25.9569 46.5768 25.7891 46.588 25.592 46.588V47.588ZM26.668 47.44H25.668V47.78H26.668H27.668V47.44H26.668ZM24.856 48.264H23.856V49.012H24.856H25.856V48.264H24.856ZM24.856 49.012V50.012H27.404V49.012V48.012H24.856V49.012ZM27.404 49.012H26.404V49.372H27.404H28.404V49.012H27.404ZM27.404 49.372V48.372H24.456V49.372V50.372H27.404V49.372ZM24.456 49.372H25.456V48.264H24.456H23.456V49.372H24.456ZM24.456 48.264V49.264H24.856V48.264V47.264H24.456V48.264ZM31.2797 47.008H32.2797V46.008H31.2797V47.008ZM31.2797 47.32V48.32H32.2797V47.32H31.2797ZM28.2637 47.32H27.2637V48.32H28.2637V47.32ZM28.2637 47.008V46.008H27.2637V47.008H28.2637ZM28.8677 47.008V48.008H29.8677V47.008H28.8677ZM28.8677 46.352H29.8677V45.352H28.8677V46.352ZM28.2997 46.352H27.2997V47.352H28.2997V46.352ZM28.2997 46.04V45.04H27.2997V46.04H28.2997ZM31.2437 46.04H32.2437V45.04H31.2437V46.04ZM31.2437 46.352V47.352H32.2437V46.352H31.2437ZM30.6757 46.352V45.352H29.6757V46.352H30.6757ZM30.6757 47.008H29.6757V48.008H30.6757V47.008ZM29.2637 46.352V45.352H28.2637V46.352H29.2637ZM29.2637 47.008H28.2637V48.008H29.2637V47.008ZM30.2797 47.008V48.008H31.2797V47.008H30.2797ZM30.2797 46.352H31.2797V45.352H30.2797V46.352ZM31.4797 47.936V48.936H32.4797V47.936H31.4797ZM29.9677 47.936V46.936H28.9677V47.936H29.9677ZM29.9677 48.248H28.9677V49.2209L29.9402 49.2476L29.9677 48.248ZM29.5757 48.248L29.6031 49.2476L30.5757 49.2209V48.248H29.5757ZM29.5757 47.936H30.5757V46.936H29.5757V47.936ZM28.0677 47.936H27.0677V48.936H28.0677V47.936ZM28.0677 47.62V46.62H27.0677V47.62H28.0677ZM31.4797 47.62H32.4797V46.62H31.4797V47.62ZM31.2797 47.008H30.2797V47.32H31.2797H32.2797V47.008H31.2797ZM31.2797 47.32V46.32H28.2637V47.32V48.32H31.2797V47.32ZM28.2637 47.32H29.2637V47.008H28.2637H27.2637V47.32H28.2637ZM28.2637 47.008V48.008H28.8677V47.008V46.008H28.2637V47.008ZM28.8677 47.008H29.8677V46.352H28.8677H27.8677V47.008H28.8677ZM28.8677 46.352V45.352H28.2997V46.352V47.352H28.8677V46.352ZM28.2997 46.352H29.2997V46.04H28.2997H27.2997V46.352H28.2997ZM28.2997 46.04V47.04H31.2437V46.04V45.04H28.2997V46.04ZM31.2437 46.04H30.2437V46.352H31.2437H32.2437V46.04H31.2437ZM31.2437 46.352V45.352H30.6757V46.352V47.352H31.2437V46.352ZM30.6757 46.352H29.6757V47.008H30.6757H31.6757V46.352H30.6757ZM30.6757 47.008V48.008H31.2797V47.008V46.008H30.6757V47.008ZM29.2637 46.352H28.2637V47.008H29.2637H30.2637V46.352H29.2637ZM29.2637 47.008V48.008H30.2797V47.008V46.008H29.2637V47.008ZM30.2797 47.008H31.2797V46.352H30.2797H29.2797V47.008H30.2797ZM30.2797 46.352V45.352H29.2637V46.352V47.352H30.2797V46.352ZM31.4797 47.936V46.936H29.9677V47.936V48.936H31.4797V47.936ZM29.9677 47.936H28.9677V48.248H29.9677H30.9677V47.936H29.9677ZM29.9677 48.248L29.9402 49.2476C30.0921 49.2518 30.2228 49.2628 30.3299 49.279C30.4402 49.2957 30.5045 49.3149 30.5331 49.3261C30.5672 49.3394 30.5117 49.3257 30.4391 49.2463C30.3994 49.2029 30.3567 49.1418 30.325 49.0629C30.293 48.9831 30.2797 48.9033 30.2797 48.832H31.2797H32.2797C32.2797 48.0121 31.6471 47.6139 31.2602 47.4629C30.8626 47.3077 30.398 47.2594 29.9951 47.2484L29.9677 48.248ZM31.2797 48.832H30.2797C30.2797 48.7554 30.2953 48.6694 30.3324 48.5847C30.3689 48.5015 30.4166 48.4409 30.4569 48.4013C30.5281 48.331 30.5728 48.3281 30.5144 48.3477C30.4641 48.3645 30.3745 48.3854 30.2381 48.4009C30.1052 48.4161 29.9481 48.424 29.7717 48.424V49.424V50.424C30.2135 50.424 30.7194 50.388 31.1489 50.2443C31.5394 50.1137 32.2797 49.7295 32.2797 48.832H31.2797ZM29.7717 49.424V48.424C29.5961 48.424 29.4395 48.4159 29.3069 48.4006C29.1709 48.3848 29.0812 48.3637 29.0305 48.3467C28.9716 48.3269 29.0152 48.3295 29.0856 48.3987C29.1254 48.4379 29.1733 48.4982 29.21 48.5815C29.2475 48.6667 29.2637 48.7537 29.2637 48.832H28.2637H27.2637C27.2637 49.7292 28.0068 50.1125 28.3928 50.2423C28.822 50.3867 29.3277 50.424 29.7717 50.424V49.424ZM28.2637 48.832H29.2637C29.2637 48.9033 29.2503 48.9831 29.2183 49.0629C29.1866 49.1418 29.144 49.2029 29.1043 49.2463C29.0316 49.3257 28.9761 49.3394 29.0102 49.3261C29.0388 49.3149 29.1031 49.2957 29.2134 49.279C29.3205 49.2628 29.4512 49.2518 29.6031 49.2476L29.5757 48.248L29.5482 47.2484C29.1453 47.2594 28.6808 47.3077 28.2831 47.4629C27.8963 47.6139 27.2637 48.0121 27.2637 48.832H28.2637ZM29.5757 48.248H30.5757V47.936H29.5757H28.5757V48.248H29.5757ZM29.5757 47.936V46.936H28.0677V47.936V48.936H29.5757V47.936ZM28.0677 47.936H29.0677V47.62H28.0677H27.0677V47.936H28.0677ZM28.0677 47.62V48.62H31.4797V47.62V46.62H28.0677V47.62ZM31.4797 47.62H30.4797V47.936H31.4797H32.4797V47.62H31.4797ZM30.8637 48.832H31.8637C31.8637 48.2885 31.5042 47.9744 31.2964 47.8461C31.0931 47.7207 30.8777 47.6632 30.7329 47.6326C30.4266 47.5679 30.071 47.552 29.7717 47.552V48.552V49.552C30.0283 49.552 30.2188 49.5681 30.3194 49.5894C30.3781 49.6018 30.3314 49.6008 30.246 49.5481C30.198 49.5185 30.1055 49.4527 30.0211 49.3326C29.9286 49.2007 29.8637 49.0272 29.8637 48.832H30.8637ZM29.7717 48.552V47.552C29.4723 47.552 29.1168 47.5679 28.8104 47.6326C28.6656 47.6632 28.4502 47.7207 28.2469 47.8461C28.0391 47.9744 27.6797 48.2885 27.6797 48.832H28.6797H29.6797C29.6797 49.0272 29.6148 49.2007 29.5222 49.3326C29.4379 49.4527 29.3453 49.5185 29.2973 49.5481C29.2119 49.6008 29.1652 49.6018 29.2239 49.5894C29.3246 49.5681 29.515 49.552 29.7717 49.552V48.552ZM28.6797 48.832H27.6797C27.6797 49.3681 28.0289 49.6836 28.241 49.8165C28.4454 49.9446 28.6624 50.0033 28.8081 50.0344C29.1159 50.1002 29.4727 50.116 29.7717 50.116V49.116V48.116C29.5146 48.116 29.3254 48.0998 29.2262 48.0786C29.1684 48.0662 29.2166 48.0676 29.3031 48.1218C29.3519 48.1524 29.4437 48.219 29.5267 48.3393C29.6176 48.4708 29.6797 48.6417 29.6797 48.832H28.6797ZM29.7717 49.116V50.116C30.0706 50.116 30.4274 50.1002 30.7352 50.0344C30.8809 50.0033 31.0979 49.9446 31.3023 49.8165C31.5144 49.6836 31.8637 49.3681 31.8637 48.832H30.8637H29.8637C29.8637 48.6417 29.9258 48.4708 30.0166 48.3393C30.0996 48.219 30.1914 48.1524 30.2402 48.1218C30.3267 48.0676 30.3749 48.0662 30.3171 48.0786C30.2179 48.0998 30.0287 48.116 29.7717 48.116V49.116ZM34.7193 49.416H33.7193V50.416H34.7193V49.416ZM34.7193 46V45H33.7193V46H34.7193ZM35.1153 46H36.1153V45H35.1153V46ZM35.1153 49.416V50.416H36.1153V49.416H35.1153ZM31.9153 49.212H30.9153V50.212H31.9153V49.212ZM31.9153 48.84V47.84H30.9153V48.84H31.9153ZM34.4313 48.68H35.4313V47.1114L34.0093 47.7734L34.4313 48.68ZM34.4313 49.048L34.8463 49.9578L35.4313 49.691V49.048H34.4313ZM34.7193 49.416H35.7193V46H34.7193H33.7193V49.416H34.7193ZM34.7193 46V47H35.1153V46V45H34.7193V46ZM35.1153 46H34.1153V49.416H35.1153H36.1153V46H35.1153ZM35.1153 49.416V48.416H34.7193V49.416V50.416H35.1153V49.416ZM33.0873 48.224V47.224C33.053 47.224 33.0369 47.2181 33.0341 47.2169C33.0316 47.2159 33.0352 47.2171 33.0401 47.2221C33.045 47.227 33.0444 47.2289 33.0416 47.2217C33.0386 47.2141 33.0313 47.1912 33.0313 47.148H32.0313H31.0313C31.0313 47.7022 31.2269 48.2321 31.6165 48.6269C32.0066 49.0222 32.5342 49.224 33.0873 49.224V48.224ZM32.0313 47.148H33.0313C33.0313 47.1048 33.0386 47.0819 33.0416 47.0743C33.0444 47.0671 33.045 47.069 33.0401 47.0739C33.0352 47.0789 33.0316 47.0801 33.0341 47.0791C33.0369 47.0779 33.053 47.072 33.0873 47.072V46.072V45.072C32.5342 45.072 32.0066 45.2738 31.6165 45.6691C31.2269 46.0639 31.0313 46.5938 31.0313 47.148H32.0313ZM33.0873 46.072V47.072C33.1198 47.072 33.1354 47.0777 33.1384 47.0789C33.1412 47.08 33.1382 47.0792 33.134 47.0748C33.1297 47.0705 33.1305 47.0692 33.1333 47.0763C33.1361 47.0836 33.1433 47.1059 33.1433 47.148H34.1433H35.1433C35.1433 46.5912 34.945 46.0617 34.5557 45.6682C34.1663 45.2746 33.6397 45.072 33.0873 45.072V46.072ZM34.1433 47.148H33.1433C33.1433 47.1901 33.1361 47.2124 33.1333 47.2197C33.1305 47.2268 33.1297 47.2255 33.134 47.2212C33.1382 47.2168 33.1412 47.216 33.1384 47.2171C33.1354 47.2183 33.1198 47.224 33.0873 47.224V48.224V49.224C33.6397 49.224 34.1663 49.0214 34.5557 48.6278C34.945 48.2343 35.1433 47.7048 35.1433 47.148H34.1433ZM33.0873 47.864V48.864C33.5587 48.864 33.9983 48.6771 34.3124 48.3321C34.6184 47.9959 34.7553 47.5663 34.7553 47.148H33.7553H32.7553C32.7553 47.1377 32.7602 47.0661 32.8333 46.9859C32.9143 46.8969 33.0199 46.864 33.0873 46.864V47.864ZM33.7553 47.148H34.7553C34.7553 46.7301 34.6188 46.3012 34.315 45.9648C34.0027 45.619 33.5629 45.428 33.0873 45.428V46.428V47.428C33.0579 47.428 33.0131 47.4219 32.9619 47.3995C32.9107 47.3772 32.8657 47.344 32.8307 47.3052C32.7599 47.2268 32.7553 47.1579 32.7553 47.148H33.7553ZM33.0873 46.428V45.428C32.6118 45.428 32.1704 45.6176 31.8567 45.9664C31.5525 46.3047 31.4193 46.7341 31.4193 47.148H32.4193H33.4193C33.4193 47.1539 33.4161 47.2233 33.3439 47.3036C33.3081 47.3435 33.2621 47.3773 33.2103 47.3999C33.1586 47.4224 33.1144 47.428 33.0873 47.428V46.428ZM32.4193 47.148H31.4193C31.4193 47.5623 31.5528 47.9923 31.8593 48.3305C32.1747 48.6786 32.616 48.864 33.0873 48.864V47.864V46.864C33.1126 46.864 33.1556 46.8692 33.2068 46.8912C33.2582 46.9134 33.3046 46.947 33.3413 46.9875C33.4158 47.0697 33.4193 47.1417 33.4193 47.148H32.4193ZM31.9153 49.212H32.9153V48.84H31.9153H30.9153V49.212H31.9153ZM31.9153 48.84V49.84H33.3113V48.84V47.84H31.9153V48.84ZM33.3113 48.84V49.84C33.7943 49.84 34.4073 49.7942 34.8533 49.5866L34.4313 48.68L34.0093 47.7734C34.0248 47.7662 33.975 47.789 33.8234 47.8098C33.6863 47.8287 33.5113 47.84 33.3113 47.84V48.84ZM34.4313 48.68H33.4313V49.048H34.4313H35.4313V48.68H34.4313ZM34.4313 49.048L34.0163 48.1382C34.0274 48.1331 33.9715 48.157 33.8169 48.1791C33.6761 48.1992 33.4952 48.212 33.2873 48.212V49.212V50.212C33.8079 50.212 34.4135 50.1553 34.8463 49.9578L34.4313 49.048ZM33.2873 49.212V48.212H31.9153V49.212V50.212H33.2873V49.212ZM39.0401 46.628V45.628H38.0401V46.628H39.0401ZM39.7041 46.628V47.628H40.7041V46.628H39.7041ZM39.7041 46V45H38.7041V46H39.7041ZM40.1001 46H41.1001V45H40.1001V46ZM40.1001 47.704V48.704H41.1001V47.704H40.1001ZM39.7041 47.704H38.7041V48.704H39.7041V47.704ZM39.7041 46.964H40.7041V45.964H39.7041V46.964ZM39.0401 46.964H38.0401V47.964H39.0401V46.964ZM38.0641 47.064L38.5469 46.1883L37.7703 45.7601L37.2523 46.48L38.0641 47.064ZM36.9521 47.676H35.9521V48.7984L37.067 48.6694L36.9521 47.676ZM36.9521 47.348L36.8157 46.3573L35.9521 46.4762V47.348H36.9521ZM37.9121 46.416L38.9057 46.5282L39.0313 45.416H37.9121V46.416ZM36.9961 46.416H35.9961V47.416H36.9961V46.416ZM36.9961 46.088V45.088H35.9961V46.088H36.9961ZM39.1761 46.088H40.1761V45.088H39.1761V46.088ZM39.1761 46.416V47.416H40.1761V46.416H39.1761ZM38.3081 46.416V45.416H37.3974L37.3124 46.3227L38.3081 46.416ZM38.2201 46.776L37.3009 46.3821L36.9418 47.22L37.743 47.6549L38.2201 46.776ZM39.2961 47.36L40.1407 47.8953L40.7135 46.9915L39.7731 46.4811L39.2961 47.36ZM39.1161 47.644L38.6332 48.5197L39.4571 48.9739L39.9607 48.1793L39.1161 47.644ZM37.5841 49.064H36.5841V50.064H37.5841V49.064ZM40.1841 49.064H41.1841V48.064H40.1841V49.064ZM40.1841 49.372V50.372H41.1841V49.372H40.1841ZM37.1921 49.372H36.1921V50.372H37.1921V49.372ZM37.1921 48.484V47.484H36.1921V48.484H37.1921ZM39.7081 48.484V49.484H40.7081V48.484H39.7081ZM39.7081 48.2H40.7081V47.2H39.7081V48.2ZM37.1841 48.2H36.1841V49.2H37.1841V48.2ZM37.1841 47.892V46.892H36.1841V47.892H37.1841ZM40.1001 47.892H41.1001V46.892H40.1001V47.892ZM40.1001 48.776V49.776H41.1001V48.776H40.1001ZM37.5841 48.776V47.776H36.5841V48.776H37.5841ZM39.0401 46.628V47.628H39.7041V46.628V45.628H39.0401V46.628ZM39.7041 46.628H40.7041V46H39.7041H38.7041V46.628H39.7041ZM39.7041 46V47H40.1001V46V45H39.7041V46ZM40.1001 46H39.1001V47.704H40.1001H41.1001V46H40.1001ZM40.1001 47.704V46.704H39.7041V47.704V48.704H40.1001V47.704ZM39.7041 47.704H40.7041V46.964H39.7041H38.7041V47.704H39.7041ZM39.7041 46.964V45.964H39.0401V46.964V47.964H39.7041V46.964ZM39.0401 46.964H40.0401V46.628H39.0401H38.0401V46.964H39.0401ZM38.0641 47.064L37.2523 46.48C37.1988 46.5544 37.0739 46.6552 36.8371 46.6826L36.9521 47.676L37.067 48.6694C37.7982 48.5848 38.4574 48.2296 38.8758 47.648L38.0641 47.064ZM36.9521 47.676H37.9521V47.348H36.9521H35.9521V47.676H36.9521ZM36.9521 47.348L37.0885 48.3387C38.0598 48.2049 38.7947 47.5115 38.9057 46.5282L37.9121 46.416L36.9184 46.3038C36.9172 46.3144 36.9155 46.3217 36.9143 46.3261C36.9131 46.3305 36.9121 46.3325 36.912 46.3327C36.9119 46.3329 36.9123 46.332 36.9134 46.3306C36.9144 46.3291 36.9155 46.3278 36.9164 46.327C36.9187 46.3247 36.9162 46.3283 36.9031 46.3344C36.8897 46.3406 36.8621 46.351 36.8157 46.3573L36.9521 47.348ZM37.9121 46.416V45.416H36.9961V46.416V47.416H37.9121V46.416ZM36.9961 46.416H37.9961V46.088H36.9961H35.9961V46.416H36.9961ZM36.9961 46.088V47.088H39.1761V46.088V45.088H36.9961V46.088ZM39.1761 46.088H38.1761V46.416H39.1761H40.1761V46.088H39.1761ZM39.1761 46.416V45.416H38.3081V46.416V47.416H39.1761V46.416ZM38.3081 46.416L37.3124 46.3227C37.3086 46.3639 37.3018 46.3801 37.3009 46.3821L38.2201 46.776L39.1392 47.1699C39.2343 46.9479 39.2836 46.7241 39.3037 46.5093L38.3081 46.416ZM38.2201 46.776L37.743 47.6549L38.819 48.2389L39.2961 47.36L39.7731 46.4811L38.6971 45.8971L38.2201 46.776ZM39.2961 47.36L38.4514 46.8247L38.2714 47.1087L39.1161 47.644L39.9607 48.1793L40.1407 47.8953L39.2961 47.36ZM39.1161 47.644L39.5989 46.7683L38.5469 46.1883L38.0641 47.064L37.5812 47.9397L38.6332 48.5197L39.1161 47.644ZM37.5841 49.064V50.064H40.1841V49.064V48.064H37.5841V49.064ZM40.1841 49.064H39.1841V49.372H40.1841H41.1841V49.064H40.1841ZM40.1841 49.372V48.372H37.1921V49.372V50.372H40.1841V49.372ZM37.1921 49.372H38.1921V48.484H37.1921H36.1921V49.372H37.1921ZM37.1921 48.484V49.484H39.7081V48.484V47.484H37.1921V48.484ZM39.7081 48.484H40.7081V48.2H39.7081H38.7081V48.484H39.7081ZM39.7081 48.2V47.2H37.1841V48.2V49.2H39.7081V48.2ZM37.1841 48.2H38.1841V47.892H37.1841H36.1841V48.2H37.1841ZM37.1841 47.892V48.892H40.1001V47.892V46.892H37.1841V47.892ZM40.1001 47.892H39.1001V48.776H40.1001H41.1001V47.892H40.1001ZM40.1001 48.776V47.776H37.5841V48.776V49.776H40.1001V48.776ZM37.5841 48.776H36.5841V49.064H37.5841H38.5841V48.776H37.5841ZM42.8877 46.644V45.644H41.8877V46.644H42.8877ZM43.5517 46.644V47.644H44.5517V46.644H43.5517ZM43.5517 46V45H42.5517V46H43.5517ZM43.9477 46H44.9477V45H43.9477V46ZM43.9477 47.92V48.92H44.9477V47.92H43.9477ZM43.5517 47.92H42.5517V48.92H43.5517V47.92ZM43.5517 46.988H44.5517V45.988H43.5517V46.988ZM42.8877 46.988H41.8877V47.988H42.8877V46.988ZM41.9357 47.144L42.4756 46.3023L41.6297 45.7597L41.0913 46.6083L41.9357 47.144ZM40.7997 47.82H39.7997V48.9198L40.8945 48.8155L40.7997 47.82ZM40.7997 47.464L40.6662 46.473L39.7997 46.5897V47.464H40.7997ZM41.7637 46.428L42.76 46.514L42.8538 45.428H41.7637V46.428ZM40.8437 46.428H39.8437V47.428H40.8437V46.428ZM40.8437 46.088V45.088H39.8437V46.088H40.8437ZM43.0237 46.088H44.0237V45.088H43.0237V46.088ZM43.0237 46.428V47.428H44.0237V46.428H43.0237ZM42.1597 46.428V45.428H41.2152L41.1613 46.371L42.1597 46.428ZM42.0837 46.828L41.1292 46.5297L40.9 47.2634L41.55 47.6736L42.0837 46.828ZM43.1357 47.492L43.9695 48.0441L44.5338 47.1919L43.6695 46.6464L43.1357 47.492ZM42.9397 47.788L42.3998 48.6297L43.2294 49.1618L43.7735 48.3401L42.9397 47.788ZM42.8877 46.644V47.644H43.5517V46.644V45.644H42.8877V46.644ZM43.5517 46.644H44.5517V46H43.5517H42.5517V46.644H43.5517ZM43.5517 46V47H43.9477V46V45H43.5517V46ZM43.9477 46H42.9477V47.92H43.9477H44.9477V46H43.9477ZM43.9477 47.92V46.92H43.5517V47.92V48.92H43.9477V47.92ZM43.5517 47.92H44.5517V46.988H43.5517H42.5517V47.92H43.5517ZM43.5517 46.988V45.988H42.8877V46.988V47.988H43.5517V46.988ZM42.8877 46.988H43.8877V46.644H42.8877H41.8877V46.988H42.8877ZM41.9357 47.144L41.0913 46.6083C41.0237 46.7149 40.9069 46.8053 40.7049 46.8245L40.7997 47.82L40.8945 48.8155C41.7006 48.7387 42.3758 48.3171 42.7801 47.6797L41.9357 47.144ZM40.7997 47.82H41.7997V47.464H40.7997H39.7997V47.82H40.7997ZM40.7997 47.464L40.9333 48.455C41.9964 48.3118 42.6749 47.5002 42.76 46.514L41.7637 46.428L40.7674 46.342C40.7635 46.387 40.7547 46.4156 40.7483 46.4311C40.7421 46.4461 40.7373 46.4512 40.737 46.4514C40.7367 46.4518 40.7363 46.4521 40.7358 46.4525C40.7352 46.453 40.7334 46.4543 40.7298 46.4561C40.7232 46.4595 40.7039 46.4679 40.6662 46.473L40.7997 47.464ZM41.7637 46.428V45.428H40.8437V46.428V47.428H41.7637V46.428ZM40.8437 46.428H41.8437V46.088H40.8437H39.8437V46.428H40.8437ZM40.8437 46.088V47.088H43.0237V46.088V45.088H40.8437V46.088ZM43.0237 46.088H42.0237V46.428H43.0237H44.0237V46.088H43.0237ZM43.0237 46.428V45.428H42.1597V46.428V47.428H43.0237V46.428ZM42.1597 46.428L41.1613 46.371C41.159 46.4124 41.1503 46.4624 41.1292 46.5297L42.0837 46.828L43.0382 47.1263C43.0972 46.9376 43.1445 46.7236 43.1581 46.485L42.1597 46.428ZM42.0837 46.828L41.55 47.6736L42.602 48.3376L43.1357 47.492L43.6695 46.6464L42.6175 45.9824L42.0837 46.828ZM43.1357 47.492L42.3019 46.9399L42.1059 47.2359L42.9397 47.788L43.7735 48.3401L43.9695 48.0441L43.1357 47.492ZM42.9397 47.788L43.4796 46.9463L42.4756 46.3023L41.9357 47.144L41.3958 47.9857L42.3998 48.6297L42.9397 47.788ZM42.4997 48.032V49.032C42.6701 49.032 42.8163 49.042 42.9355 49.0594C43.0578 49.0772 43.1303 49.0997 43.164 49.1137C43.2005 49.1289 43.1544 49.1183 43.0937 49.0456C43.0188 48.9558 42.9757 48.8353 42.9757 48.724H43.9757H44.9757C44.9757 47.9125 44.3998 47.4618 43.9325 47.2673C43.488 47.0823 42.9648 47.032 42.4997 47.032V48.032ZM43.9757 48.724H42.9757C42.9757 48.6127 43.0188 48.4922 43.0937 48.4024C43.1544 48.3297 43.2005 48.3191 43.164 48.3343C43.1303 48.3483 43.0578 48.3708 42.9355 48.3886C42.8163 48.406 42.6701 48.416 42.4997 48.416V49.416V50.416C42.9648 50.416 43.488 50.3657 43.9325 50.1807C44.3998 49.9862 44.9757 49.5355 44.9757 48.724H43.9757ZM42.4997 49.416V48.416C42.3294 48.416 42.1832 48.406 42.0639 48.3886C41.9416 48.3708 41.8692 48.3483 41.8355 48.3343C41.799 48.3191 41.8451 48.3297 41.9057 48.4024C41.9807 48.4922 42.0237 48.6127 42.0237 48.724H41.0237H40.0237C40.0237 49.5355 40.5996 49.9862 41.067 50.1807C41.5115 50.3657 42.0346 50.416 42.4997 50.416V49.416ZM41.0237 48.724H42.0237C42.0237 48.8353 41.9807 48.9558 41.9057 49.0456C41.8451 49.1183 41.799 49.1289 41.8355 49.1137C41.8692 49.0997 41.9416 49.0772 42.0639 49.0594C42.1832 49.042 42.3294 49.032 42.4997 49.032V48.032V47.032C42.0346 47.032 41.5115 47.0823 41.067 47.2673C40.5996 47.4618 40.0237 47.9125 40.0237 48.724H41.0237ZM42.4997 49.092V50.092C42.8401 50.092 43.2204 50.0606 43.5509 49.9556C43.7135 49.904 43.9341 49.8131 44.131 49.6412C44.3485 49.4513 44.5557 49.1395 44.5557 48.724H43.5557H42.5557C42.5557 48.5942 42.5873 48.468 42.644 48.3571C42.6984 48.2507 42.7653 48.1785 42.8158 48.1344C42.9066 48.0552 42.9735 48.0405 42.9455 48.0494C42.8951 48.0654 42.7473 48.092 42.4997 48.092V49.092ZM43.5557 48.724H44.5557C44.5557 48.3085 44.3485 47.9967 44.131 47.8068C43.9341 47.6349 43.7135 47.544 43.5509 47.4924C43.2204 47.3874 42.8401 47.356 42.4997 47.356V48.356V49.356C42.7473 49.356 42.8951 49.3826 42.9455 49.3986C42.9735 49.4075 42.9066 49.3928 42.8158 49.3136C42.7653 49.2695 42.6984 49.1973 42.644 49.0909C42.5873 48.98 42.5557 48.8538 42.5557 48.724H43.5557ZM42.4997 48.356V47.356C42.1593 47.356 41.7791 47.3874 41.4485 47.4924C41.286 47.544 41.0654 47.6349 40.8685 47.8068C40.6509 47.9967 40.4437 48.3085 40.4437 48.724H41.4437H42.4437C42.4437 48.8538 42.4121 48.98 42.3554 49.0909C42.3011 49.1973 42.2341 49.2695 42.1836 49.3136C42.0928 49.3928 42.026 49.4075 42.0539 49.3986C42.1044 49.3826 42.2521 49.356 42.4997 49.356V48.356ZM41.4437 48.724H40.4437C40.4437 49.1395 40.6509 49.4513 40.8685 49.6412C41.0654 49.8131 41.286 49.904 41.4485 49.9556C41.7791 50.0606 42.1593 50.092 42.4997 50.092V49.092V48.092C42.2521 48.092 42.1044 48.0654 42.0539 48.0494C42.026 48.0405 42.0928 48.0552 42.1836 48.1344C42.2341 48.1785 42.3011 48.2507 42.3554 48.3571C42.4121 48.468 42.4437 48.5942 42.4437 48.724H41.4437Z" fill="white" mask="url(#path-18-outside-2_11_412)"/>
<path d="M41.1395 41.5L35.6977 40.593H32.9767L27.0814 41.5L28.4419 38.7791L23 34.6977L25.7209 32.8837L24.3605 29.2558L30.7093 31.0698L29.8023 24.7209L32.0698 26.5349L34.7907 22L36.6047 26.0814L39.3256 24.7209L38.4186 31.0698L44.7674 29.7093L43.407 33.3372L45.6744 34.6977L40.2326 38.7791L41.1395 41.5Z" stroke="#E35522" stroke-width="0.5"/>
</g>
<defs>
<filter id="filter0_d_11_412" x="0" y="0" width="68" height="68" filterUnits="userSpaceOnUse" color-interpolation-filters="sRGB">
<feFlood flood-opacity="0" result="BackgroundImageFix"/>
<feColorMatrix in="SourceAlpha" type="matrix" values="0 0 0 0 0 0 0 0 0 0 0 0 0 0 0 0 0 0 127 0" result="hardAlpha"/>
<feOffset/>
<feGaussianBlur stdDeviation="2"/>
<feComposite in2="hardAlpha" operator="out"/>
<feColorMatrix type="matrix" values="0 0 0 0 0.229671 0 0 0 0 0.229671 0 0 0 0 0.229671 0 0 0 0.2 0"/>
<feBlend mode="normal" in2="BackgroundImageFix" result="effect1_dropShadow_11_412"/>
<feBlend mode="normal" in="SourceGraphic" in2="effect1_dropShadow_11_412" result="shape"/>
</filter>
</defs>
</svg>
