<svg width="68" height="68" viewBox="0 0 68 68" fill="none" xmlns="http://www.w3.org/2000/svg">
<g filter="url(#filter0_d_11_381)">
<rect x="4" y="4" width="60" height="60" rx="30" fill="white" shape-rendering="crispEdges"/>
<rect x="7.5" y="7.5" width="53" height="53" rx="26.5" fill="white"/>
<rect x="7.5" y="7.5" width="53" height="53" rx="26.5" stroke="#76C7E2" stroke-width="2"/>
<g clip-path="url(#clip0_11_381)">
<rect x="9" y="9" width="50" height="50" rx="25" fill="white"/>
<path d="M11.8 35.2638V34.6818H16V35.2638H11.8ZM13.54 33.7938C13.54 33.9338 13.564 34.0598 13.612 34.1718C13.66 34.2798 13.728 34.3718 13.816 34.4478C13.904 34.5238 14.008 34.5818 14.128 34.6218C14.248 34.6618 14.378 34.6818 14.518 34.6818H16V35.2638H14.53C14.302 35.2638 14.092 35.2298 13.9 35.1618C13.704 35.0938 13.536 34.9978 13.396 34.8738C13.252 34.7458 13.14 34.5918 13.06 34.4118C12.98 34.2278 12.94 34.0218 12.94 33.7938C12.94 33.5658 12.98 33.3678 13.06 33.1998C13.14 33.0278 13.252 32.8818 13.396 32.7618C13.536 32.6418 13.704 32.5458 13.9 32.4738C14.092 32.4018 14.302 32.3518 14.53 32.3238L16 32.1438V32.7318L14.518 32.9178C14.378 32.9338 14.248 32.9638 14.128 33.0078C14.008 33.0478 13.906 33.1038 13.822 33.1758C13.734 33.2438 13.666 33.3298 13.618 33.4338C13.566 33.5338 13.54 33.6538 13.54 33.7938Z" fill="#76C7E2"/>
<path d="M13.4745 29.0343L13.6137 28.4692L16.5266 29.1872L16.3873 29.7523L13.4745 29.0343ZM12.5557 28.8758C12.4508 28.85 12.375 28.7983 12.3282 28.7209C12.2784 28.6386 12.2665 28.545 12.2923 28.4401C12.3172 28.3392 12.3703 28.2657 12.4517 28.2199C12.5301 28.1692 12.6217 28.1567 12.7266 28.1826C12.8314 28.2084 12.9087 28.2625 12.9585 28.3448C13.0053 28.4222 13.0163 28.5115 12.9914 28.6124C12.9655 28.7173 12.9134 28.7951 12.835 28.8458C12.7537 28.8917 12.6606 28.9017 12.5557 28.8758Z" fill="#76C7E2"/>
<path d="M16.3038 24.5709C16.4283 24.3336 16.4841 24.137 16.471 23.9811C16.4599 23.8216 16.359 23.6738 16.1684 23.5377L15.6653 23.1923L15.9358 22.6769L16.4283 23.0167C16.6507 23.1696 16.8052 23.3185 16.8918 23.4633C16.9768 23.6028 17.0051 23.7554 16.9768 23.9212C17.088 23.8125 17.2341 23.7536 17.415 23.7447C17.5959 23.7357 17.8018 23.7738 18.0327 23.8588L18.5921 24.0711L18.3217 24.5864L17.7516 24.3686C17.5296 24.2837 17.3499 24.2819 17.2123 24.3633C17.0747 24.4447 16.9436 24.6041 16.8191 24.8414L16.5291 25.3939L17.6023 25.9571L17.3318 26.4725L13.6129 24.5206L13.8834 24.0053L16.0138 25.1234L16.3038 24.5709Z" fill="#76C7E2"/>
<path d="M19.3553 19.5543C19.2218 19.5482 19.0916 19.5745 18.9648 19.6332C18.8377 19.6862 18.7237 19.7696 18.6229 19.8834C18.4584 20.069 18.3742 20.2697 18.3703 20.4852C18.3663 20.7008 18.4351 20.9007 18.5766 21.0848L19.3553 19.5543ZM18.3493 21.6851C18.1787 21.5339 18.0454 21.3677 17.9494 21.1865C17.8531 20.9997 17.7963 20.8104 17.779 20.6188C17.7614 20.4215 17.785 20.2259 17.8498 20.0322C17.9146 19.8384 18.0226 19.6562 18.1738 19.4855C18.3011 19.3418 18.4416 19.2285 18.5953 19.1455C18.7459 19.0599 18.9026 19.0037 19.0653 18.9768C19.2251 18.9473 19.3867 18.9489 19.5502 18.9815C19.7163 19.0111 19.877 19.068 20.0323 19.1521L20.1625 19.2675L19.0355 21.4353C19.2127 21.5068 19.3906 21.5201 19.5693 21.4753C19.7506 21.4275 19.9141 21.3213 20.06 21.1566C20.198 21.0009 20.2784 20.8317 20.3014 20.649C20.3243 20.4662 20.2939 20.2924 20.2103 20.1274L20.6161 19.6693C20.7183 19.8133 20.7942 19.966 20.8436 20.1274C20.8957 20.2857 20.9182 20.4473 20.9112 20.6121C20.9011 20.7742 20.8642 20.9365 20.8004 21.0991C20.7335 21.259 20.6365 21.4108 20.5091 21.5545C20.3579 21.7251 20.1916 21.8556 20.01 21.946C19.8285 22.0363 19.6432 22.0886 19.4542 22.1028C19.2649 22.1115 19.0747 22.0819 18.8835 22.0141C18.6951 21.9433 18.517 21.8337 18.3493 21.6851Z" fill="#76C7E2"/>
<path d="M22.9291 16.0883C22.6757 16.2633 22.5227 16.4782 22.4702 16.7331C22.4188 16.9825 22.4771 17.229 22.6453 17.4726L23.4871 18.6923L23.0082 19.0229L22.1731 17.8131C22.0436 17.6255 21.9539 17.4322 21.9041 17.2333C21.8553 17.0288 21.8455 16.8314 21.8746 16.6412C21.9047 16.4455 21.9744 16.2613 22.0837 16.0886C22.1929 15.916 22.3414 15.7649 22.529 15.6354C22.6706 15.5377 22.8159 15.4666 22.965 15.422L23.299 15.9059C23.235 15.9258 23.1711 15.9529 23.1073 15.9872C23.0445 16.016 22.9851 16.0497 22.9291 16.0883Z" fill="#76C7E2"/>
<path d="M25.8362 13.0207C25.7908 12.901 25.789 12.7947 25.8308 12.7019C25.8749 12.6039 25.953 12.5336 26.0652 12.491C26.1812 12.4471 26.2863 12.4479 26.3806 12.4934C26.4772 12.5338 26.5481 12.6138 26.5935 12.7335C26.6432 12.8644 26.6526 13.002 26.6218 13.1463L26.5432 13.5483L26.1561 13.6951L26.2381 13.2853C26.1568 13.3077 26.079 13.2944 26.0048 13.2455C25.9293 13.1929 25.873 13.1179 25.8362 13.0207Z" fill="#76C7E2"/>
<path d="M31.9179 15.3078C31.4414 15.3657 31.0561 15.3118 30.762 15.146C30.4714 14.9758 30.2895 14.7057 30.2164 14.3359L30.8239 14.2621C30.8674 14.4543 30.9724 14.5886 31.1388 14.6651C31.3087 14.7371 31.5585 14.7531 31.888 14.7131C32.1422 14.6823 32.3354 14.6306 32.4676 14.5581C32.5993 14.4817 32.6582 14.3859 32.6442 14.2707C32.6168 14.0444 32.293 13.9669 31.6731 14.0381C31.1763 14.0944 30.7988 14.0717 30.5407 13.9701C30.2825 13.8685 30.1363 13.6767 30.1021 13.3948C30.0838 13.2439 30.1009 13.1028 30.1535 12.9715C30.21 12.8397 30.2945 12.7227 30.407 12.6204C30.5235 12.5176 30.6684 12.4335 30.8418 12.3681C31.0147 12.2988 31.2103 12.2509 31.4287 12.2243C31.8933 12.1679 32.2689 12.2251 32.5556 12.3958C32.8462 12.566 33.0298 12.8338 33.1064 13.1992L32.493 13.2737C32.45 13.0855 32.3455 12.9552 32.1795 12.8826C32.0171 12.8057 31.7849 12.7855 31.4832 12.8221C31.2171 12.8544 31.013 12.9155 30.8708 13.0053C30.7281 13.0911 30.6644 13.1976 30.6799 13.3246C30.6934 13.4358 30.7705 13.507 30.9113 13.5383C31.0516 13.5656 31.2831 13.5637 31.6057 13.5325C32.1467 13.4749 32.542 13.4954 32.7917 13.594C33.0449 13.6882 33.1884 13.8743 33.2222 14.1522C33.2603 14.4659 33.1626 14.7236 32.9292 14.9252C32.6958 15.1268 32.3587 15.2543 31.9179 15.3078Z" fill="#76C7E2"/>
<path d="M40.7734 16.2274C40.5602 16.1465 40.3785 16.0391 40.2282 15.9051C40.0794 15.7674 39.9648 15.6127 39.8844 15.4411C39.8092 15.2671 39.7694 15.0787 39.765 14.876C39.7644 14.6747 39.8045 14.4674 39.8853 14.2543C39.9662 14.0411 40.0743 13.8575 40.2097 13.7035C40.3503 13.5472 40.5071 13.427 40.6802 13.3429C40.8584 13.2565 41.0496 13.2092 41.2537 13.2011C41.4579 13.1929 41.6666 13.2293 41.8797 13.3101C42.0929 13.391 42.2732 13.5021 42.4206 13.6436C42.568 13.7851 42.6779 13.9465 42.7503 14.128C42.8278 14.3071 42.8655 14.5011 42.8633 14.7099C42.8663 14.9163 42.8273 15.1262 42.7465 15.3394C42.6656 15.5525 42.5563 15.7335 42.4186 15.8824C42.2846 16.0326 42.1299 16.1472 41.9546 16.2262C41.7843 16.3028 41.5978 16.3433 41.3951 16.3477C41.1938 16.3483 40.9866 16.3082 40.7734 16.2274ZM40.9861 15.6664C41.2517 15.7671 41.4954 15.7675 41.7172 15.6677C41.939 15.5679 42.1002 15.3852 42.201 15.1196C42.2506 14.9887 42.2743 14.8587 42.2719 14.7294C42.2733 14.6016 42.2504 14.4817 42.203 14.3696C42.1594 14.259 42.0919 14.1606 42.0005 14.0746C41.909 13.9886 41.7979 13.9208 41.667 13.8711C41.5361 13.8215 41.4079 13.7985 41.2824 13.8023C41.1569 13.806 41.0393 13.8342 40.9295 13.8867C40.8198 13.9391 40.7212 14.013 40.6338 14.1082C40.5501 14.2048 40.4834 14.3185 40.4338 14.4494C40.3331 14.715 40.3326 14.9586 40.4325 15.1805C40.536 15.4037 40.7206 15.5657 40.9861 15.6664Z" fill="#76C7E2"/>
<path d="M46.1729 16.1588C46.0577 16.0793 45.9404 16.0275 45.8209 16.0033C45.7048 15.9815 45.5904 15.9852 45.4779 16.0144C45.3654 16.0437 45.2585 16.0963 45.1575 16.1724C45.0564 16.2484 44.9661 16.344 44.8865 16.4592L44.0447 17.6789L43.5657 17.3483L44.4007 16.1385C44.5303 15.9509 44.6775 15.7974 44.8426 15.678C45.0099 15.5553 45.1843 15.4716 45.3659 15.4268C45.553 15.381 45.7434 15.3763 45.937 15.4127C46.1338 15.4514 46.3261 15.5355 46.5137 15.665C46.7014 15.7945 46.8416 15.9399 46.9344 16.1012C47.0305 16.2648 47.0871 16.4399 47.104 16.6265C47.1233 16.8099 47.1068 17.0027 47.0547 17.2049C47.0049 17.4038 46.9268 17.6051 46.8203 17.8086L46.1334 19.1207L45.6495 18.7866L46.3383 17.4613C46.4046 17.337 46.4538 17.213 46.4858 17.0892C46.521 16.9677 46.5329 16.852 46.5213 16.742C46.5153 16.6309 46.4832 16.5261 46.4249 16.4275C46.3721 16.3279 46.2881 16.2383 46.1729 16.1588Z" fill="#76C7E2"/>
<path d="M51.5798 25.0258L51.0538 25.3019C50.7337 24.8555 50.6001 24.4761 50.653 24.1638C50.7078 23.855 50.9512 23.5871 51.3833 23.3604L54.045 21.9634L54.3154 22.4787L51.6431 23.8813C51.5227 23.9445 51.4355 24.0151 51.3816 24.0931C51.3277 24.1711 51.3007 24.2575 51.3008 24.3523C51.3009 24.4471 51.3253 24.5495 51.374 24.6595C51.4245 24.773 51.4931 24.8951 51.5798 25.0258ZM53.6368 23.5871L53.0958 22.5564L53.5774 22.2088L54.1574 23.3138L53.6368 23.5871Z" fill="#76C7E2"/>
<path d="M52.3362 28.8811C52.2816 28.6597 52.2668 28.4492 52.2917 28.2494C52.3205 28.0487 52.3827 27.8665 52.4784 27.7028C52.5788 27.5421 52.7112 27.4024 52.8756 27.2836C53.0409 27.1687 53.2342 27.084 53.4556 27.0294C53.677 26.9748 53.8895 26.9595 54.0931 26.9835C54.3016 27.0104 54.4896 27.0712 54.6571 27.1658C54.8295 27.2634 54.977 27.3939 55.0997 27.5573C55.2224 27.7207 55.311 27.9131 55.3655 28.1344C55.4201 28.3558 55.431 28.5673 55.3984 28.769C55.3657 28.9707 55.2952 29.1529 55.187 29.3155C55.0836 29.481 54.9454 29.6222 54.7723 29.739C54.6041 29.8588 54.4093 29.9459 54.1879 30.0005C53.9665 30.0551 53.7555 30.0679 53.5547 30.0391C53.355 30.0142 53.1728 29.952 53.0082 29.8525C52.8484 29.7559 52.7092 29.6255 52.5904 29.4611C52.4755 29.2958 52.3908 29.1025 52.3362 28.8811ZM52.9188 28.7375C52.9867 29.0133 53.1248 29.2141 53.333 29.3399C53.5411 29.4657 53.7831 29.4947 54.0588 29.4267C54.1948 29.3932 54.3152 29.3388 54.4203 29.2635C54.5262 29.192 54.6119 29.105 54.6773 29.0024C54.7435 28.9036 54.7861 28.7922 54.805 28.6681C54.8238 28.544 54.8165 28.414 54.783 28.278C54.7495 28.1421 54.6955 28.0236 54.6212 27.9224C54.5468 27.8213 54.4568 27.7405 54.3513 27.68C54.2458 27.6195 54.129 27.5803 54.001 27.5624C53.8739 27.5484 53.7425 27.5581 53.6065 27.5916C53.3308 27.6596 53.13 27.7977 53.0041 28.0058C52.8793 28.2179 52.8508 28.4618 52.9188 28.7375Z" fill="#76C7E2"/>
<path d="M56.06 33.3998C56.06 33.6278 56.022 33.8358 55.946 34.0238C55.874 34.2118 55.77 34.3718 55.634 34.5038C55.502 34.6398 55.342 34.7438 55.154 34.8158C54.966 34.8918 54.758 34.9298 54.53 34.9298C54.302 34.9298 54.09 34.8918 53.894 34.8158C53.702 34.7438 53.534 34.6398 53.39 34.5038C53.25 34.3718 53.14 34.2118 53.06 34.0238C52.98 33.8358 52.94 33.6278 52.94 33.3998C52.94 33.1718 52.98 32.9638 53.06 32.7758C53.14 32.5878 53.25 32.4258 53.39 32.2898C53.534 32.1578 53.702 32.0538 53.894 31.9778C54.09 31.9058 54.302 31.8698 54.53 31.8698C54.758 31.8698 54.966 31.9058 55.154 31.9778C55.342 32.0538 55.502 32.1578 55.634 32.2898C55.77 32.4258 55.874 32.5878 55.946 32.7758C56.022 32.9638 56.06 33.1718 56.06 33.3998ZM51.8 32.4578V31.8698H56V32.4578H51.8ZM55.46 33.3998C55.46 33.1158 55.374 32.8878 55.202 32.7158C55.03 32.5438 54.802 32.4578 54.518 32.4578C54.378 32.4578 54.248 32.4798 54.128 32.5238C54.008 32.5718 53.904 32.6358 53.816 32.7158C53.732 32.7998 53.664 32.8998 53.612 33.0158C53.564 33.1318 53.54 33.2598 53.54 33.3998C53.54 33.5398 53.564 33.6678 53.612 33.7838C53.664 33.8998 53.732 33.9978 53.816 34.0778C53.904 34.1618 54.008 34.2258 54.128 34.2698C54.248 34.3178 54.378 34.3418 54.518 34.3418C54.802 34.3418 55.03 34.2558 55.202 34.0838C55.374 33.9118 55.46 33.6838 55.46 33.3998Z" fill="#76C7E2"/>
<path d="M25 27.25C27.6234 27.25 29.75 29.3766 29.75 32V60.75H20.25V32C20.25 29.3766 22.3766 27.25 25 27.25Z" stroke="#D9D9D9" stroke-width="0.5"/>
<path d="M43 23.25C45.6234 23.25 47.75 25.3766 47.75 28V60.75H38.25V28C38.25 25.3766 40.3766 23.25 43 23.25Z" stroke="#D9D9D9" stroke-width="0.5"/>
<path d="M30 30.25H36C36.9665 30.25 37.75 31.0335 37.75 32V67.75H28.25V32C28.25 31.0335 29.0335 30.25 30 30.25Z" fill="white" stroke="#76C7E2" stroke-width="0.5"/>
<mask id="path-20-outside-1_11_381" maskUnits="userSpaceOnUse" x="25" y="49" width="20" height="8" fill="black">
<rect fill="white" x="25" y="49" width="20" height="8"/>
<path d="M30.446 50.5H31.394V55.624H30.446V53.344H30.02V55.534H29.084V50.524H30.02V52.384H30.446V50.5ZM27.374 54.49H27.65C28.052 54.49 28.532 54.43 28.844 54.316V55.204C28.538 55.33 27.992 55.384 27.56 55.384H26.384V50.608H27.374V54.49ZM35.4855 52.276H36.0495V51.79H35.4855L35.4255 50.896H36.0495V50.5H37.0455V54.298H36.0495V53.17H35.4255L35.4855 52.276ZM35.3295 52.042C35.3295 52.972 34.6635 53.578 33.6795 53.578C32.6955 53.578 32.0295 52.972 32.0295 52.042C32.0295 51.118 32.6955 50.506 33.6795 50.506C34.6635 50.506 35.3295 51.118 35.3295 52.042ZM33.0315 52.042C33.0315 52.486 33.2955 52.732 33.6795 52.732C34.0635 52.732 34.3275 52.486 34.3275 52.042C34.3275 51.598 34.0635 51.352 33.6795 51.352C33.2955 51.352 33.0315 51.598 33.0315 52.042ZM33.5535 54.718H37.1175V55.624H32.5215V53.83H33.5535V54.718ZM42.649 51.466H43.249V52.45H42.649V54.292H41.635V50.5H42.649V51.466ZM39.625 52.534C39.199 53.146 38.575 53.56 37.837 53.596V52.654C38.647 52.558 39.181 51.652 39.199 50.524L40.219 50.584C40.219 50.98 40.153 51.37 40.027 51.73L41.485 52.816L40.879 53.524L39.625 52.534ZM39.157 53.83V54.712H42.721V55.624H38.125V53.83H39.157Z"/>
</mask>
<path d="M30.446 50.5H31.394V55.624H30.446V53.344H30.02V55.534H29.084V50.524H30.02V52.384H30.446V50.5ZM27.374 54.49H27.65C28.052 54.49 28.532 54.43 28.844 54.316V55.204C28.538 55.33 27.992 55.384 27.56 55.384H26.384V50.608H27.374V54.49ZM35.4855 52.276H36.0495V51.79H35.4855L35.4255 50.896H36.0495V50.5H37.0455V54.298H36.0495V53.17H35.4255L35.4855 52.276ZM35.3295 52.042C35.3295 52.972 34.6635 53.578 33.6795 53.578C32.6955 53.578 32.0295 52.972 32.0295 52.042C32.0295 51.118 32.6955 50.506 33.6795 50.506C34.6635 50.506 35.3295 51.118 35.3295 52.042ZM33.0315 52.042C33.0315 52.486 33.2955 52.732 33.6795 52.732C34.0635 52.732 34.3275 52.486 34.3275 52.042C34.3275 51.598 34.0635 51.352 33.6795 51.352C33.2955 51.352 33.0315 51.598 33.0315 52.042ZM33.5535 54.718H37.1175V55.624H32.5215V53.83H33.5535V54.718ZM42.649 51.466H43.249V52.45H42.649V54.292H41.635V50.5H42.649V51.466ZM39.625 52.534C39.199 53.146 38.575 53.56 37.837 53.596V52.654C38.647 52.558 39.181 51.652 39.199 50.524L40.219 50.584C40.219 50.98 40.153 51.37 40.027 51.73L41.485 52.816L40.879 53.524L39.625 52.534ZM39.157 53.83V54.712H42.721V55.624H38.125V53.83H39.157Z" fill="#76C7E2"/>
<path d="M30.446 50.5V49.5H29.446V50.5H30.446ZM31.394 50.5H32.394V49.5H31.394V50.5ZM31.394 55.624V56.624H32.394V55.624H31.394ZM30.446 55.624H29.446V56.624H30.446V55.624ZM30.446 53.344H31.446V52.344H30.446V53.344ZM30.02 53.344V52.344H29.02V53.344H30.02ZM30.02 55.534V56.534H31.02V55.534H30.02ZM29.084 55.534H28.084V56.534H29.084V55.534ZM29.084 50.524V49.524H28.084V50.524H29.084ZM30.02 50.524H31.02V49.524H30.02V50.524ZM30.02 52.384H29.02V53.384H30.02V52.384ZM30.446 52.384V53.384H31.446V52.384H30.446ZM27.374 54.49H26.374V55.49H27.374V54.49ZM28.844 54.316H29.844V52.886L28.5008 53.3767L28.844 54.316ZM28.844 55.204L29.2247 56.1287L29.844 55.8737V55.204H28.844ZM26.384 55.384H25.384V56.384H26.384V55.384ZM26.384 50.608V49.608H25.384V50.608H26.384ZM27.374 50.608H28.374V49.608H27.374V50.608ZM30.446 50.5V51.5H31.394V50.5V49.5H30.446V50.5ZM31.394 50.5H30.394V55.624H31.394H32.394V50.5H31.394ZM31.394 55.624V54.624H30.446V55.624V56.624H31.394V55.624ZM30.446 55.624H31.446V53.344H30.446H29.446V55.624H30.446ZM30.446 53.344V52.344H30.02V53.344V54.344H30.446V53.344ZM30.02 53.344H29.02V55.534H30.02H31.02V53.344H30.02ZM30.02 55.534V54.534H29.084V55.534V56.534H30.02V55.534ZM29.084 55.534H30.084V50.524H29.084H28.084V55.534H29.084ZM29.084 50.524V51.524H30.02V50.524V49.524H29.084V50.524ZM30.02 50.524H29.02V52.384H30.02H31.02V50.524H30.02ZM30.02 52.384V53.384H30.446V52.384V51.384H30.02V52.384ZM30.446 52.384H31.446V50.5H30.446H29.446V52.384H30.446ZM27.374 54.49V55.49H27.65V54.49V53.49H27.374V54.49ZM27.65 54.49V55.49C28.1149 55.49 28.7238 55.4246 29.1872 55.2553L28.844 54.316L28.5008 53.3767C28.3402 53.4354 27.9891 53.49 27.65 53.49V54.49ZM28.844 54.316H27.844V55.204H28.844H29.844V54.316H28.844ZM28.844 55.204L28.4633 54.2793C28.3488 54.3264 27.9698 54.384 27.56 54.384V55.384V56.384C28.0142 56.384 28.7272 56.3336 29.2247 56.1287L28.844 55.204ZM27.56 55.384V54.384H26.384V55.384V56.384H27.56V55.384ZM26.384 55.384H27.384V50.608H26.384H25.384V55.384H26.384ZM26.384 50.608V51.608H27.374V50.608V49.608H26.384V50.608ZM27.374 50.608H26.374V54.49H27.374H28.374V50.608H27.374ZM35.4855 52.276V51.276H34.5503L34.4877 52.209L35.4855 52.276ZM36.0495 52.276V53.276H37.0495V52.276H36.0495ZM36.0495 51.79H37.0495V50.79H36.0495V51.79ZM35.4855 51.79L34.4877 51.857L34.5503 52.79H35.4855V51.79ZM35.4255 50.896V49.896H34.3561L34.4277 50.963L35.4255 50.896ZM36.0495 50.896V51.896H37.0495V50.896H36.0495ZM36.0495 50.5V49.5H35.0495V50.5H36.0495ZM37.0455 50.5H38.0455V49.5H37.0455V50.5ZM37.0455 54.298V55.298H38.0455V54.298H37.0455ZM36.0495 54.298H35.0495V55.298H36.0495V54.298ZM36.0495 53.17H37.0495V52.17H36.0495V53.17ZM35.4255 53.17L34.4277 53.103L34.3561 54.17H35.4255V53.17ZM33.5535 54.718H32.5535V55.718H33.5535V54.718ZM37.1175 54.718H38.1175V53.718H37.1175V54.718ZM37.1175 55.624V56.624H38.1175V55.624H37.1175ZM32.5215 55.624H31.5215V56.624H32.5215V55.624ZM32.5215 53.83V52.83H31.5215V53.83H32.5215ZM33.5535 53.83H34.5535V52.83H33.5535V53.83ZM35.4855 52.276V53.276H36.0495V52.276V51.276H35.4855V52.276ZM36.0495 52.276H37.0495V51.79H36.0495H35.0495V52.276H36.0495ZM36.0495 51.79V50.79H35.4855V51.79V52.79H36.0495V51.79ZM35.4855 51.79L36.4832 51.723L36.4232 50.829L35.4255 50.896L34.4277 50.963L34.4877 51.857L35.4855 51.79ZM35.4255 50.896V51.896H36.0495V50.896V49.896H35.4255V50.896ZM36.0495 50.896H37.0495V50.5H36.0495H35.0495V50.896H36.0495ZM36.0495 50.5V51.5H37.0455V50.5V49.5H36.0495V50.5ZM37.0455 50.5H36.0455V54.298H37.0455H38.0455V50.5H37.0455ZM37.0455 54.298V53.298H36.0495V54.298V55.298H37.0455V54.298ZM36.0495 54.298H37.0495V53.17H36.0495H35.0495V54.298H36.0495ZM36.0495 53.17V52.17H35.4255V53.17V54.17H36.0495V53.17ZM35.4255 53.17L36.4232 53.237L36.4832 52.343L35.4855 52.276L34.4877 52.209L34.4277 53.103L35.4255 53.17ZM35.3295 52.042H34.3295C34.3295 52.2565 34.2595 52.3645 34.1945 52.4246C34.1219 52.4918 33.9672 52.578 33.6795 52.578V53.578V54.578C34.3758 54.578 35.0461 54.3612 35.5525 53.8929C36.0665 53.4175 36.3295 52.7575 36.3295 52.042H35.3295ZM33.6795 53.578V52.578C33.3918 52.578 33.2371 52.4918 33.1645 52.4246C33.0995 52.3645 33.0295 52.2565 33.0295 52.042H32.0295H31.0295C31.0295 52.7575 31.2925 53.4175 31.8065 53.8929C32.3129 54.3612 32.9832 54.578 33.6795 54.578V53.578ZM32.0295 52.042H33.0295C33.0295 51.8319 33.0986 51.7227 33.1655 51.6607C33.2393 51.5922 33.3944 51.506 33.6795 51.506V50.506V49.506C32.9806 49.506 32.3106 49.7258 31.8055 50.1943C31.2934 50.6693 31.0295 51.3281 31.0295 52.042H32.0295ZM33.6795 50.506V51.506C33.9646 51.506 34.1196 51.5922 34.1935 51.6607C34.2604 51.7227 34.3295 51.8319 34.3295 52.042H35.3295H36.3295C36.3295 51.3281 36.0656 50.6693 35.5535 50.1943C35.0483 49.7258 34.3784 49.506 33.6795 49.506V50.506ZM33.0315 52.042H32.0315C32.0315 52.4628 32.1602 52.9075 32.4953 53.2514C32.8316 53.5965 33.2708 53.732 33.6795 53.732V52.732V51.732C33.7041 51.732 33.8194 51.7445 33.9277 51.8556C34.0347 51.9655 34.0315 52.0652 34.0315 52.042H33.0315ZM33.6795 52.732V53.732C34.0881 53.732 34.5274 53.5965 34.8637 53.2514C35.1987 52.9075 35.3275 52.4628 35.3275 52.042H34.3275H33.3275C33.3275 52.0652 33.3242 51.9655 33.4313 51.8556C33.5396 51.7445 33.6548 51.732 33.6795 51.732V52.732ZM34.3275 52.042H35.3275C35.3275 51.6212 35.1987 51.1765 34.8637 50.8326C34.5274 50.4875 34.0881 50.352 33.6795 50.352V51.352V52.352C33.6548 52.352 33.5396 52.3395 33.4313 52.2284C33.3242 52.1185 33.3275 52.0188 33.3275 52.042H34.3275ZM33.6795 51.352V50.352C33.2708 50.352 32.8316 50.4875 32.4953 50.8326C32.1602 51.1765 32.0315 51.6212 32.0315 52.042H33.0315H34.0315C34.0315 52.0188 34.0347 52.1185 33.9277 52.2284C33.8194 52.3395 33.7041 52.352 33.6795 52.352V51.352ZM33.5535 54.718V55.718H37.1175V54.718V53.718H33.5535V54.718ZM37.1175 54.718H36.1175V55.624H37.1175H38.1175V54.718H37.1175ZM37.1175 55.624V54.624H32.5215V55.624V56.624H37.1175V55.624ZM32.5215 55.624H33.5215V53.83H32.5215H31.5215V55.624H32.5215ZM32.5215 53.83V54.83H33.5535V53.83V52.83H32.5215V53.83ZM33.5535 53.83H32.5535V54.718H33.5535H34.5535V53.83H33.5535ZM42.649 51.466H41.649V52.466H42.649V51.466ZM43.249 51.466H44.249V50.466H43.249V51.466ZM43.249 52.45V53.45H44.249V52.45H43.249ZM42.649 52.45V51.45H41.649V52.45H42.649ZM42.649 54.292V55.292H43.649V54.292H42.649ZM41.635 54.292H40.635V55.292H41.635V54.292ZM41.635 50.5V49.5H40.635V50.5H41.635ZM42.649 50.5H43.649V49.5H42.649V50.5ZM39.625 52.534L40.2446 51.7491L39.411 51.091L38.8042 51.9627L39.625 52.534ZM37.837 53.596H36.837V54.646L37.8857 54.5948L37.837 53.596ZM37.837 52.654L37.7193 51.6609L36.837 51.7655V52.654H37.837ZM39.199 50.524L39.2577 49.5257L38.2157 49.4644L38.1991 50.508L39.199 50.524ZM40.219 50.584H41.219V49.6411L40.2777 49.5857L40.219 50.584ZM40.027 51.73L39.0831 51.3996L38.8404 52.0931L39.4296 52.532L40.027 51.73ZM41.485 52.816L42.2447 53.4663L42.9405 52.6533L42.0823 52.014L41.485 52.816ZM40.879 53.524L40.2593 54.3089L41.0137 54.9044L41.6387 54.1743L40.879 53.524ZM39.157 53.83H40.157V52.83H39.157V53.83ZM39.157 54.712H38.157V55.712H39.157V54.712ZM42.721 54.712H43.721V53.712H42.721V54.712ZM42.721 55.624V56.624H43.721V55.624H42.721ZM38.125 55.624H37.125V56.624H38.125V55.624ZM38.125 53.83V52.83H37.125V53.83H38.125ZM42.649 51.466V52.466H43.249V51.466V50.466H42.649V51.466ZM43.249 51.466H42.249V52.45H43.249H44.249V51.466H43.249ZM43.249 52.45V51.45H42.649V52.45V53.45H43.249V52.45ZM42.649 52.45H41.649V54.292H42.649H43.649V52.45H42.649ZM42.649 54.292V53.292H41.635V54.292V55.292H42.649V54.292ZM41.635 54.292H42.635V50.5H41.635H40.635V54.292H41.635ZM41.635 50.5V51.5H42.649V50.5V49.5H41.635V50.5ZM42.649 50.5H41.649V51.466H42.649H43.649V50.5H42.649ZM39.625 52.534L38.8042 51.9627C38.5169 52.3755 38.155 52.5793 37.7882 52.5972L37.837 53.596L37.8857 54.5948C38.995 54.5407 39.881 53.9165 40.4457 53.1053L39.625 52.534ZM37.837 53.596H38.837V52.654H37.837H36.837V53.596H37.837ZM37.837 52.654L37.9547 53.647C38.7303 53.5551 39.3066 53.0766 39.6632 52.5057C40.0152 51.9419 40.1876 51.2468 40.1988 50.54L39.199 50.524L38.1991 50.508C38.1924 50.9292 38.0887 51.2511 37.9668 51.4463C37.8493 51.6344 37.7537 51.6569 37.7193 51.6609L37.837 52.654ZM39.199 50.524L39.1402 51.5223L40.1602 51.5823L40.219 50.584L40.2777 49.5857L39.2577 49.5257L39.199 50.524ZM40.219 50.584H39.219C39.219 50.8701 39.1711 51.1483 39.0831 51.3996L40.027 51.73L40.9708 52.0604C41.1348 51.5917 41.219 51.0899 41.219 50.584H40.219ZM40.027 51.73L39.4296 52.532L40.8876 53.618L41.485 52.816L42.0823 52.014L40.6243 50.928L40.027 51.73ZM41.485 52.816L40.7253 52.1657L40.1193 52.8737L40.879 53.524L41.6387 54.1743L42.2447 53.4663L41.485 52.816ZM40.879 53.524L41.4986 52.7391L40.2446 51.7491L39.625 52.534L39.0053 53.3189L40.2593 54.3089L40.879 53.524ZM39.157 53.83H38.157V54.712H39.157H40.157V53.83H39.157ZM39.157 54.712V55.712H42.721V54.712V53.712H39.157V54.712ZM42.721 54.712H41.721V55.624H42.721H43.721V54.712H42.721ZM42.721 55.624V54.624H38.125V55.624V56.624H42.721V55.624ZM38.125 55.624H39.125V53.83H38.125H37.125V55.624H38.125ZM38.125 53.83V54.83H39.157V53.83V52.83H38.125V53.83Z" fill="white" mask="url(#path-20-outside-1_11_381)"/>
<mask id="path-22-outside-2_11_381" maskUnits="userSpaceOnUse" x="21" y="45" width="27" height="6" fill="black">
<rect fill="white" x="21" y="45" width="27" height="6"/>
<path d="M25.7805 46.04V47.148H22.8605V46.04H25.7805ZM25.3885 46.844V46.344H23.2565V46.844H25.3885ZM26.0285 47.716H24.5165V48.024H25.7925V48.84H23.2405V49.08H25.8525V49.376H22.8525V48.56H25.4045V48.32H22.8445V48.024H24.1245V47.716H22.6165V47.408H26.0285V47.716ZM29.2561 47.672V46H29.6521V47.672H29.2561ZM26.5881 47.62V47.288C27.5561 47.284 28.1961 47.048 28.1961 46.496V46.416H26.5881V46.084H28.5921V46.432C28.5921 47.268 27.7721 47.62 26.5881 47.62ZM26.7601 49.372V48.468H29.2601V48.172H26.7521V47.86H29.6521V48.764H27.1561V49.06H29.7361V49.372H26.7601ZM33.8838 47.384V47.764H33.4278V49.416H33.0398V46H33.4278V47.384H33.8838ZM30.8198 48.852H30.9838C31.1358 48.852 31.3358 48.832 31.4718 48.776V49.128C31.3118 49.184 31.0678 49.212 30.8678 49.212H30.4318V46.124H31.4558V46.484H30.8198V48.852ZM32.0078 48.852H32.1918C32.3798 48.852 32.5918 48.82 32.7518 48.74V49.1C32.5798 49.176 32.3518 49.212 32.1158 49.212H31.6198V46.124H32.6638V46.484H32.0078V48.852ZM37.7315 47.384V47.764H37.2515V49.416H36.8555V46H37.2515V47.384H37.7315ZM34.7115 48.848H35.6755C35.9995 48.848 36.3515 48.788 36.5595 48.688V49.048C36.3515 49.152 35.9955 49.212 35.6675 49.212H34.3195V47.46H35.8115V46.488H34.3115V46.124H36.2075V47.824H34.7115V48.848ZM41.0282 47.116C40.7322 47.576 40.0882 47.78 39.2362 47.78V47.436C40.2002 47.432 40.8042 47.14 40.8042 46.524V46.42H39.2362V46.084H41.2042V46.456C41.2042 46.56 41.1922 46.66 41.1762 46.752H41.9482V46H42.3442V47.868H41.9482V47.116H41.0282ZM39.8322 49.036H42.3802V49.372H39.4362V48.064H42.3442V48.4H39.8322V49.036ZM43.2199 47.324V46H43.6199V46.972H46.1759V47.324H43.2199ZM42.9759 48.052V47.7H46.3879V48.052H42.9759ZM43.2119 49.376V48.356H43.6159V49.024H46.2119V49.376H43.2119Z"/>
</mask>
<path d="M25.7805 46.04V47.148H22.8605V46.04H25.7805ZM25.3885 46.844V46.344H23.2565V46.844H25.3885ZM26.0285 47.716H24.5165V48.024H25.7925V48.84H23.2405V49.08H25.8525V49.376H22.8525V48.56H25.4045V48.32H22.8445V48.024H24.1245V47.716H22.6165V47.408H26.0285V47.716ZM29.2561 47.672V46H29.6521V47.672H29.2561ZM26.5881 47.62V47.288C27.5561 47.284 28.1961 47.048 28.1961 46.496V46.416H26.5881V46.084H28.5921V46.432C28.5921 47.268 27.7721 47.62 26.5881 47.62ZM26.7601 49.372V48.468H29.2601V48.172H26.7521V47.86H29.6521V48.764H27.1561V49.06H29.7361V49.372H26.7601ZM33.8838 47.384V47.764H33.4278V49.416H33.0398V46H33.4278V47.384H33.8838ZM30.8198 48.852H30.9838C31.1358 48.852 31.3358 48.832 31.4718 48.776V49.128C31.3118 49.184 31.0678 49.212 30.8678 49.212H30.4318V46.124H31.4558V46.484H30.8198V48.852ZM32.0078 48.852H32.1918C32.3798 48.852 32.5918 48.82 32.7518 48.74V49.1C32.5798 49.176 32.3518 49.212 32.1158 49.212H31.6198V46.124H32.6638V46.484H32.0078V48.852ZM37.7315 47.384V47.764H37.2515V49.416H36.8555V46H37.2515V47.384H37.7315ZM34.7115 48.848H35.6755C35.9995 48.848 36.3515 48.788 36.5595 48.688V49.048C36.3515 49.152 35.9955 49.212 35.6675 49.212H34.3195V47.46H35.8115V46.488H34.3115V46.124H36.2075V47.824H34.7115V48.848ZM41.0282 47.116C40.7322 47.576 40.0882 47.78 39.2362 47.78V47.436C40.2002 47.432 40.8042 47.14 40.8042 46.524V46.42H39.2362V46.084H41.2042V46.456C41.2042 46.56 41.1922 46.66 41.1762 46.752H41.9482V46H42.3442V47.868H41.9482V47.116H41.0282ZM39.8322 49.036H42.3802V49.372H39.4362V48.064H42.3442V48.4H39.8322V49.036ZM43.2199 47.324V46H43.6199V46.972H46.1759V47.324H43.2199ZM42.9759 48.052V47.7H46.3879V48.052H42.9759ZM43.2119 49.376V48.356H43.6159V49.024H46.2119V49.376H43.2119Z" fill="#76C7E2"/>
<path d="M25.7805 46.04H26.7805V45.04H25.7805V46.04ZM25.7805 47.148V48.148H26.7805V47.148H25.7805ZM22.8605 47.148H21.8605V48.148H22.8605V47.148ZM22.8605 46.04V45.04H21.8605V46.04H22.8605ZM25.3885 46.844V47.844H26.3885V46.844H25.3885ZM25.3885 46.344H26.3885V45.344H25.3885V46.344ZM23.2565 46.344V45.344H22.2565V46.344H23.2565ZM23.2565 46.844H22.2565V47.844H23.2565V46.844ZM26.0285 47.716V48.716H27.0285V47.716H26.0285ZM24.5165 47.716V46.716H23.5165V47.716H24.5165ZM24.5165 48.024H23.5165V49.024H24.5165V48.024ZM25.7925 48.024H26.7925V47.024H25.7925V48.024ZM25.7925 48.84V49.84H26.7925V48.84H25.7925ZM23.2405 48.84V47.84H22.2405V48.84H23.2405ZM23.2405 49.08H22.2405V50.08H23.2405V49.08ZM25.8525 49.08H26.8525V48.08H25.8525V49.08ZM25.8525 49.376V50.376H26.8525V49.376H25.8525ZM22.8525 49.376H21.8525V50.376H22.8525V49.376ZM22.8525 48.56V47.56H21.8525V48.56H22.8525ZM25.4045 48.56V49.56H26.4045V48.56H25.4045ZM25.4045 48.32H26.4045V47.32H25.4045V48.32ZM22.8445 48.32H21.8445V49.32H22.8445V48.32ZM22.8445 48.024V47.024H21.8445V48.024H22.8445ZM24.1245 48.024V49.024H25.1245V48.024H24.1245ZM24.1245 47.716H25.1245V46.716H24.1245V47.716ZM22.6165 47.716H21.6165V48.716H22.6165V47.716ZM22.6165 47.408V46.408H21.6165V47.408H22.6165ZM26.0285 47.408H27.0285V46.408H26.0285V47.408ZM25.7805 46.04H24.7805V47.148H25.7805H26.7805V46.04H25.7805ZM25.7805 47.148V46.148H22.8605V47.148V48.148H25.7805V47.148ZM22.8605 47.148H23.8605V46.04H22.8605H21.8605V47.148H22.8605ZM22.8605 46.04V47.04H25.7805V46.04V45.04H22.8605V46.04ZM25.3885 46.844H26.3885V46.344H25.3885H24.3885V46.844H25.3885ZM25.3885 46.344V45.344H23.2565V46.344V47.344H25.3885V46.344ZM23.2565 46.344H22.2565V46.844H23.2565H24.2565V46.344H23.2565ZM23.2565 46.844V47.844H25.3885V46.844V45.844H23.2565V46.844ZM26.0285 47.716V46.716H24.5165V47.716V48.716H26.0285V47.716ZM24.5165 47.716H23.5165V48.024H24.5165H25.5165V47.716H24.5165ZM24.5165 48.024V49.024H25.7925V48.024V47.024H24.5165V48.024ZM25.7925 48.024H24.7925V48.84H25.7925H26.7925V48.024H25.7925ZM25.7925 48.84V47.84H23.2405V48.84V49.84H25.7925V48.84ZM23.2405 48.84H22.2405V49.08H23.2405H24.2405V48.84H23.2405ZM23.2405 49.08V50.08H25.8525V49.08V48.08H23.2405V49.08ZM25.8525 49.08H24.8525V49.376H25.8525H26.8525V49.08H25.8525ZM25.8525 49.376V48.376H22.8525V49.376V50.376H25.8525V49.376ZM22.8525 49.376H23.8525V48.56H22.8525H21.8525V49.376H22.8525ZM22.8525 48.56V49.56H25.4045V48.56V47.56H22.8525V48.56ZM25.4045 48.56H26.4045V48.32H25.4045H24.4045V48.56H25.4045ZM25.4045 48.32V47.32H22.8445V48.32V49.32H25.4045V48.32ZM22.8445 48.32H23.8445V48.024H22.8445H21.8445V48.32H22.8445ZM22.8445 48.024V49.024H24.1245V48.024V47.024H22.8445V48.024ZM24.1245 48.024H25.1245V47.716H24.1245H23.1245V48.024H24.1245ZM24.1245 47.716V46.716H22.6165V47.716V48.716H24.1245V47.716ZM22.6165 47.716H23.6165V47.408H22.6165H21.6165V47.716H22.6165ZM22.6165 47.408V48.408H26.0285V47.408V46.408H22.6165V47.408ZM26.0285 47.408H25.0285V47.716H26.0285H27.0285V47.408H26.0285ZM29.2561 47.672H28.2561V48.672H29.2561V47.672ZM29.2561 46V45H28.2561V46H29.2561ZM29.6521 46H30.6521V45H29.6521V46ZM29.6521 47.672V48.672H30.6521V47.672H29.6521ZM26.5881 47.62H25.5881V48.62H26.5881V47.62ZM26.5881 47.288L26.584 46.288L25.5881 46.2921V47.288H26.5881ZM28.1961 46.416H29.1961V45.416H28.1961V46.416ZM26.5881 46.416H25.5881V47.416H26.5881V46.416ZM26.5881 46.084V45.084H25.5881V46.084H26.5881ZM28.5921 46.084H29.5921V45.084H28.5921V46.084ZM26.7601 49.372H25.7601V50.372H26.7601V49.372ZM26.7601 48.468V47.468H25.7601V48.468H26.7601ZM29.2601 48.468V49.468H30.2601V48.468H29.2601ZM29.2601 48.172H30.2601V47.172H29.2601V48.172ZM26.7521 48.172H25.7521V49.172H26.7521V48.172ZM26.7521 47.86V46.86H25.7521V47.86H26.7521ZM29.6521 47.86H30.6521V46.86H29.6521V47.86ZM29.6521 48.764V49.764H30.6521V48.764H29.6521ZM27.1561 48.764V47.764H26.1561V48.764H27.1561ZM27.1561 49.06H26.1561V50.06H27.1561V49.06ZM29.7361 49.06H30.7361V48.06H29.7361V49.06ZM29.7361 49.372V50.372H30.7361V49.372H29.7361ZM29.2561 47.672H30.2561V46H29.2561H28.2561V47.672H29.2561ZM29.2561 46V47H29.6521V46V45H29.2561V46ZM29.6521 46H28.6521V47.672H29.6521H30.6521V46H29.6521ZM29.6521 47.672V46.672H29.2561V47.672V48.672H29.6521V47.672ZM26.5881 47.62H27.5881V47.288H26.5881H25.5881V47.62H26.5881ZM26.5881 47.288L26.5923 48.288C27.1284 48.2858 27.6984 48.2231 28.171 48.0069C28.4173 47.8943 28.6784 47.7212 28.88 47.4534C29.091 47.173 29.1961 46.8417 29.1961 46.496H28.1961H27.1961C27.1961 46.4263 27.2212 46.3315 27.282 46.2507C27.3333 46.1825 27.374 46.1722 27.3393 46.1881C27.3043 46.2041 27.2266 46.2309 27.0901 46.2527C26.9565 46.274 26.7881 46.2872 26.584 46.288L26.5881 47.288ZM28.1961 46.496H29.1961V46.416H28.1961H27.1961V46.496H28.1961ZM28.1961 46.416V45.416H26.5881V46.416V47.416H28.1961V46.416ZM26.5881 46.416H27.5881V46.084H26.5881H25.5881V46.416H26.5881ZM26.5881 46.084V47.084H28.5921V46.084V45.084H26.5881V46.084ZM28.5921 46.084H27.5921V46.432H28.5921H29.5921V46.084H28.5921ZM28.5921 46.432H27.5921C27.5921 46.4701 27.5852 46.4597 27.6007 46.4352C27.6132 46.4155 27.6133 46.43 27.5554 46.4616C27.4155 46.5378 27.1095 46.62 26.5881 46.62V47.62V48.62C27.2508 48.62 27.9468 48.5262 28.5129 48.2174C29.1469 47.8717 29.5921 47.2597 29.5921 46.432H28.5921ZM26.7601 49.372H27.7601V48.468H26.7601H25.7601V49.372H26.7601ZM26.7601 48.468V49.468H29.2601V48.468V47.468H26.7601V48.468ZM29.2601 48.468H30.2601V48.172H29.2601H28.2601V48.468H29.2601ZM29.2601 48.172V47.172H26.7521V48.172V49.172H29.2601V48.172ZM26.7521 48.172H27.7521V47.86H26.7521H25.7521V48.172H26.7521ZM26.7521 47.86V48.86H29.6521V47.86V46.86H26.7521V47.86ZM29.6521 47.86H28.6521V48.764H29.6521H30.6521V47.86H29.6521ZM29.6521 48.764V47.764H27.1561V48.764V49.764H29.6521V48.764ZM27.1561 48.764H26.1561V49.06H27.1561H28.1561V48.764H27.1561ZM27.1561 49.06V50.06H29.7361V49.06V48.06H27.1561V49.06ZM29.7361 49.06H28.7361V49.372H29.7361H30.7361V49.06H29.7361ZM29.7361 49.372V48.372H26.7601V49.372V50.372H29.7361V49.372ZM33.8838 47.384H34.8838V46.384H33.8838V47.384ZM33.8838 47.764V48.764H34.8838V47.764H33.8838ZM33.4278 47.764V46.764H32.4278V47.764H33.4278ZM33.4278 49.416V50.416H34.4278V49.416H33.4278ZM33.0398 49.416H32.0398V50.416H33.0398V49.416ZM33.0398 46V45H32.0398V46H33.0398ZM33.4278 46H34.4278V45H33.4278V46ZM33.4278 47.384H32.4278V48.384H33.4278V47.384ZM30.8198 48.852H29.8198V49.852H30.8198V48.852ZM31.4718 48.776H32.4718V47.2828L31.091 47.8513L31.4718 48.776ZM31.4718 49.128L31.8021 50.0719L32.4718 49.8375V49.128H31.4718ZM30.4318 49.212H29.4318V50.212H30.4318V49.212ZM30.4318 46.124V45.124H29.4318V46.124H30.4318ZM31.4558 46.124H32.4558V45.124H31.4558V46.124ZM31.4558 46.484V47.484H32.4558V46.484H31.4558ZM30.8198 46.484V45.484H29.8198V46.484H30.8198ZM32.0078 48.852H31.0078V49.852H32.0078V48.852ZM32.7518 48.74H33.7518V47.122L32.3046 47.8456L32.7518 48.74ZM32.7518 49.1L33.156 50.0147L33.7518 49.7514V49.1H32.7518ZM31.6198 49.212H30.6198V50.212H31.6198V49.212ZM31.6198 46.124V45.124H30.6198V46.124H31.6198ZM32.6638 46.124H33.6638V45.124H32.6638V46.124ZM32.6638 46.484V47.484H33.6638V46.484H32.6638ZM32.0078 46.484V45.484H31.0078V46.484H32.0078ZM33.8838 47.384H32.8838V47.764H33.8838H34.8838V47.384H33.8838ZM33.8838 47.764V46.764H33.4278V47.764V48.764H33.8838V47.764ZM33.4278 47.764H32.4278V49.416H33.4278H34.4278V47.764H33.4278ZM33.4278 49.416V48.416H33.0398V49.416V50.416H33.4278V49.416ZM33.0398 49.416H34.0398V46H33.0398H32.0398V49.416H33.0398ZM33.0398 46V47H33.4278V46V45H33.0398V46ZM33.4278 46H32.4278V47.384H33.4278H34.4278V46H33.4278ZM33.4278 47.384V48.384H33.8838V47.384V46.384H33.4278V47.384ZM30.8198 48.852V49.852H30.9838V48.852V47.852H30.8198V48.852ZM30.9838 48.852V49.852C31.1784 49.852 31.5348 49.8315 31.8525 49.7007L31.4718 48.776L31.091 47.8513C31.1152 47.8414 31.1278 47.8387 31.1241 47.8396C31.1215 47.8402 31.1121 47.8423 31.0956 47.8446C31.0609 47.8494 31.0195 47.852 30.9838 47.852V48.852ZM31.4718 48.776H30.4718V49.128H31.4718H32.4718V48.776H31.4718ZM31.4718 49.128L31.1414 48.1841C31.1495 48.1813 31.1455 48.1833 31.1265 48.1874C31.1086 48.1913 31.0841 48.1956 31.0539 48.1996C30.9917 48.2078 30.9245 48.212 30.8678 48.212V49.212V50.212C31.1248 50.212 31.4939 50.1798 31.8021 50.0719L31.4718 49.128ZM30.8678 49.212V48.212H30.4318V49.212V50.212H30.8678V49.212ZM30.4318 49.212H31.4318V46.124H30.4318H29.4318V49.212H30.4318ZM30.4318 46.124V47.124H31.4558V46.124V45.124H30.4318V46.124ZM31.4558 46.124H30.4558V46.484H31.4558H32.4558V46.124H31.4558ZM31.4558 46.484V45.484H30.8198V46.484V47.484H31.4558V46.484ZM30.8198 46.484H29.8198V48.852H30.8198H31.8198V46.484H30.8198ZM32.0078 48.852V49.852H32.1918V48.852V47.852H32.0078V48.852ZM32.1918 48.852V49.852C32.4636 49.852 32.8479 49.81 33.199 49.6344L32.7518 48.74L32.3046 47.8456C32.319 47.8384 32.326 47.8364 32.3232 47.8373C32.3208 47.8381 32.3128 47.8404 32.2989 47.843C32.2697 47.8484 32.2317 47.852 32.1918 47.852V48.852ZM32.7518 48.74H31.7518V49.1H32.7518H33.7518V48.74H32.7518ZM32.7518 49.1L32.3476 48.1853C32.3539 48.1826 32.3366 48.1907 32.289 48.1989C32.2435 48.2066 32.1845 48.212 32.1158 48.212V49.212V50.212C32.4339 50.212 32.8132 50.1662 33.156 50.0147L32.7518 49.1ZM32.1158 49.212V48.212H31.6198V49.212V50.212H32.1158V49.212ZM31.6198 49.212H32.6198V46.124H31.6198H30.6198V49.212H31.6198ZM31.6198 46.124V47.124H32.6638V46.124V45.124H31.6198V46.124ZM32.6638 46.124H31.6638V46.484H32.6638H33.6638V46.124H32.6638ZM32.6638 46.484V45.484H32.0078V46.484V47.484H32.6638V46.484ZM32.0078 46.484H31.0078V48.852H32.0078H33.0078V46.484H32.0078ZM37.7315 47.384H38.7315V46.384H37.7315V47.384ZM37.7315 47.764V48.764H38.7315V47.764H37.7315ZM37.2515 47.764V46.764H36.2515V47.764H37.2515ZM37.2515 49.416V50.416H38.2515V49.416H37.2515ZM36.8555 49.416H35.8555V50.416H36.8555V49.416ZM36.8555 46V45H35.8555V46H36.8555ZM37.2515 46H38.2515V45H37.2515V46ZM37.2515 47.384H36.2515V48.384H37.2515V47.384ZM34.7115 48.848H33.7115V49.848H34.7115V48.848ZM36.5595 48.688H37.5595V47.0977L36.1262 47.7867L36.5595 48.688ZM36.5595 49.048L37.0067 49.9424L37.5595 49.666V49.048H36.5595ZM34.3195 49.212H33.3195V50.212H34.3195V49.212ZM34.3195 47.46V46.46H33.3195V47.46H34.3195ZM35.8115 47.46V48.46H36.8115V47.46H35.8115ZM35.8115 46.488H36.8115V45.488H35.8115V46.488ZM34.3115 46.488H33.3115V47.488H34.3115V46.488ZM34.3115 46.124V45.124H33.3115V46.124H34.3115ZM36.2075 46.124H37.2075V45.124H36.2075V46.124ZM36.2075 47.824V48.824H37.2075V47.824H36.2075ZM34.7115 47.824V46.824H33.7115V47.824H34.7115ZM37.7315 47.384H36.7315V47.764H37.7315H38.7315V47.384H37.7315ZM37.7315 47.764V46.764H37.2515V47.764V48.764H37.7315V47.764ZM37.2515 47.764H36.2515V49.416H37.2515H38.2515V47.764H37.2515ZM37.2515 49.416V48.416H36.8555V49.416V50.416H37.2515V49.416ZM36.8555 49.416H37.8555V46H36.8555H35.8555V49.416H36.8555ZM36.8555 46V47H37.2515V46V45H36.8555V46ZM37.2515 46H36.2515V47.384H37.2515H38.2515V46H37.2515ZM37.2515 47.384V48.384H37.7315V47.384V46.384H37.2515V47.384ZM34.7115 48.848V49.848H35.6755V48.848V47.848H34.7115V48.848ZM35.6755 48.848V49.848C36.0771 49.848 36.5967 49.7797 36.9927 49.5893L36.5595 48.688L36.1262 47.7867C36.1341 47.7829 36.0911 47.8022 35.9857 47.821C35.8896 47.8381 35.7793 47.848 35.6755 47.848V48.848ZM36.5595 48.688H35.5595V49.048H36.5595H37.5595V48.688H36.5595ZM36.5595 49.048L36.1122 48.1536C36.1262 48.1466 36.088 48.1657 35.9818 48.1847C35.8859 48.2019 35.7741 48.212 35.6675 48.212V49.212V50.212C36.0679 50.212 36.601 50.1452 37.0067 49.9424L36.5595 49.048ZM35.6675 49.212V48.212H34.3195V49.212V50.212H35.6675V49.212ZM34.3195 49.212H35.3195V47.46H34.3195H33.3195V49.212H34.3195ZM34.3195 47.46V48.46H35.8115V47.46V46.46H34.3195V47.46ZM35.8115 47.46H36.8115V46.488H35.8115H34.8115V47.46H35.8115ZM35.8115 46.488V45.488H34.3115V46.488V47.488H35.8115V46.488ZM34.3115 46.488H35.3115V46.124H34.3115H33.3115V46.488H34.3115ZM34.3115 46.124V47.124H36.2075V46.124V45.124H34.3115V46.124ZM36.2075 46.124H35.2075V47.824H36.2075H37.2075V46.124H36.2075ZM36.2075 47.824V46.824H34.7115V47.824V48.824H36.2075V47.824ZM34.7115 47.824H33.7115V48.848H34.7115H35.7115V47.824H34.7115ZM41.0282 47.116V46.116H40.4825L40.1873 46.5749L41.0282 47.116ZM39.2362 47.78H38.2362V48.78H39.2362V47.78ZM39.2362 47.436L39.2321 46.436L38.2362 46.4401V47.436H39.2362ZM40.8042 46.42H41.8042V45.42H40.8042V46.42ZM39.2362 46.42H38.2362V47.42H39.2362V46.42ZM39.2362 46.084V45.084H38.2362V46.084H39.2362ZM41.2042 46.084H42.2042V45.084H41.2042V46.084ZM41.1762 46.752L40.191 46.5807L39.9873 47.752H41.1762V46.752ZM41.9482 46.752V47.752H42.9482V46.752H41.9482ZM41.9482 46V45H40.9482V46H41.9482ZM42.3442 46H43.3442V45H42.3442V46ZM42.3442 47.868V48.868H43.3442V47.868H42.3442ZM41.9482 47.868H40.9482V48.868H41.9482V47.868ZM41.9482 47.116H42.9482V46.116H41.9482V47.116ZM39.8322 49.036H38.8322V50.036H39.8322V49.036ZM42.3802 49.036H43.3802V48.036H42.3802V49.036ZM42.3802 49.372V50.372H43.3802V49.372H42.3802ZM39.4362 49.372H38.4362V50.372H39.4362V49.372ZM39.4362 48.064V47.064H38.4362V48.064H39.4362ZM42.3442 48.064H43.3442V47.064H42.3442V48.064ZM42.3442 48.4V49.4H43.3442V48.4H42.3442ZM39.8322 48.4V47.4H38.8322V48.4H39.8322ZM41.0282 47.116L40.1873 46.5749C40.1859 46.577 40.1791 46.5876 40.1552 46.6049C40.1296 46.6235 40.083 46.6507 40.0051 46.6785C39.8429 46.7363 39.5915 46.78 39.2362 46.78V47.78V48.78C40.1562 48.78 41.279 48.5743 41.8691 47.6571L41.0282 47.116ZM39.2362 47.78H40.2362V47.436H39.2362H38.2362V47.78H39.2362ZM39.2362 47.436L39.2404 48.436C39.7947 48.4337 40.3822 48.3526 40.8665 48.0841C41.416 47.7795 41.8042 47.239 41.8042 46.524H40.8042H39.8042C39.8042 46.5072 39.8107 46.4532 39.8481 46.3937C39.8826 46.3388 39.9146 46.3251 39.8969 46.3349C39.8756 46.3467 39.815 46.3738 39.6961 46.397C39.5791 46.4199 39.4254 46.4352 39.2321 46.436L39.2362 47.436ZM40.8042 46.524H41.8042V46.42H40.8042H39.8042V46.524H40.8042ZM40.8042 46.42V45.42H39.2362V46.42V47.42H40.8042V46.42ZM39.2362 46.42H40.2362V46.084H39.2362H38.2362V46.42H39.2362ZM39.2362 46.084V47.084H41.2042V46.084V45.084H39.2362V46.084ZM41.2042 46.084H40.2042V46.456H41.2042H42.2042V46.084H41.2042ZM41.2042 46.456H40.2042C40.2042 46.4847 40.2008 46.5244 40.191 46.5807L41.1762 46.752L42.1614 46.9233C42.1836 46.7956 42.2042 46.6353 42.2042 46.456H41.2042ZM41.1762 46.752V47.752H41.9482V46.752V45.752H41.1762V46.752ZM41.9482 46.752H42.9482V46H41.9482H40.9482V46.752H41.9482ZM41.9482 46V47H42.3442V46V45H41.9482V46ZM42.3442 46H41.3442V47.868H42.3442H43.3442V46H42.3442ZM42.3442 47.868V46.868H41.9482V47.868V48.868H42.3442V47.868ZM41.9482 47.868H42.9482V47.116H41.9482H40.9482V47.868H41.9482ZM41.9482 47.116V46.116H41.0282V47.116V48.116H41.9482V47.116ZM39.8322 49.036V50.036H42.3802V49.036V48.036H39.8322V49.036ZM42.3802 49.036H41.3802V49.372H42.3802H43.3802V49.036H42.3802ZM42.3802 49.372V48.372H39.4362V49.372V50.372H42.3802V49.372ZM39.4362 49.372H40.4362V48.064H39.4362H38.4362V49.372H39.4362ZM39.4362 48.064V49.064H42.3442V48.064V47.064H39.4362V48.064ZM42.3442 48.064H41.3442V48.4H42.3442H43.3442V48.064H42.3442ZM42.3442 48.4V47.4H39.8322V48.4V49.4H42.3442V48.4ZM39.8322 48.4H38.8322V49.036H39.8322H40.8322V48.4H39.8322ZM43.2199 47.324H42.2199V48.324H43.2199V47.324ZM43.2199 46V45H42.2199V46H43.2199ZM43.6199 46H44.6199V45H43.6199V46ZM43.6199 46.972H42.6199V47.972H43.6199V46.972ZM46.1759 46.972H47.1759V45.972H46.1759V46.972ZM46.1759 47.324V48.324H47.1759V47.324H46.1759ZM42.9759 48.052H41.9759V49.052H42.9759V48.052ZM42.9759 47.7V46.7H41.9759V47.7H42.9759ZM46.3879 47.7H47.3879V46.7H46.3879V47.7ZM46.3879 48.052V49.052H47.3879V48.052H46.3879ZM43.2119 49.376H42.2119V50.376H43.2119V49.376ZM43.2119 48.356V47.356H42.2119V48.356H43.2119ZM43.6159 48.356H44.6159V47.356H43.6159V48.356ZM43.6159 49.024H42.6159V50.024H43.6159V49.024ZM46.2119 49.024H47.2119V48.024H46.2119V49.024ZM46.2119 49.376V50.376H47.2119V49.376H46.2119ZM43.2199 47.324H44.2199V46H43.2199H42.2199V47.324H43.2199ZM43.2199 46V47H43.6199V46V45H43.2199V46ZM43.6199 46H42.6199V46.972H43.6199H44.6199V46H43.6199ZM43.6199 46.972V47.972H46.1759V46.972V45.972H43.6199V46.972ZM46.1759 46.972H45.1759V47.324H46.1759H47.1759V46.972H46.1759ZM46.1759 47.324V46.324H43.2199V47.324V48.324H46.1759V47.324ZM42.9759 48.052H43.9759V47.7H42.9759H41.9759V48.052H42.9759ZM42.9759 47.7V48.7H46.3879V47.7V46.7H42.9759V47.7ZM46.3879 47.7H45.3879V48.052H46.3879H47.3879V47.7H46.3879ZM46.3879 48.052V47.052H42.9759V48.052V49.052H46.3879V48.052ZM43.2119 49.376H44.2119V48.356H43.2119H42.2119V49.376H43.2119ZM43.2119 48.356V49.356H43.6159V48.356V47.356H43.2119V48.356ZM43.6159 48.356H42.6159V49.024H43.6159H44.6159V48.356H43.6159ZM43.6159 49.024V50.024H46.2119V49.024V48.024H43.6159V49.024ZM46.2119 49.024H45.2119V49.376H46.2119H47.2119V49.024H46.2119ZM46.2119 49.376V48.376H43.2119V49.376V50.376H46.2119V49.376Z" fill="white" mask="url(#path-22-outside-2_11_381)"/>
<line x1="30.25" y1="32.25" x2="30.25" y2="36.75" stroke="#76C7E2" stroke-width="0.5" stroke-linecap="round"/>
<line x1="34.25" y1="33.25" x2="34.25" y2="37.75" stroke="#76C7E2" stroke-width="0.5" stroke-linecap="round"/>
<line x1="32.25" y1="36.25" x2="32.25" y2="42.75" stroke="#76C7E2" stroke-width="0.5" stroke-linecap="round"/>
</g>
<rect x="9.1" y="9.1" width="49.8" height="49.8" rx="24.9" stroke="#76C7E2" stroke-width="0.2"/>
</g>
<defs>
<filter id="filter0_d_11_381" x="0" y="0" width="68" height="68" filterUnits="userSpaceOnUse" color-interpolation-filters="sRGB">
<feFlood flood-opacity="0" result="BackgroundImageFix"/>
<feColorMatrix in="SourceAlpha" type="matrix" values="0 0 0 0 0 0 0 0 0 0 0 0 0 0 0 0 0 0 127 0" result="hardAlpha"/>
<feOffset/>
<feGaussianBlur stdDeviation="2"/>
<feComposite in2="hardAlpha" operator="out"/>
<feColorMatrix type="matrix" values="0 0 0 0 0.229671 0 0 0 0 0.229671 0 0 0 0 0.229671 0 0 0 0.2 0"/>
<feBlend mode="normal" in2="BackgroundImageFix" result="effect1_dropShadow_11_381"/>
<feBlend mode="normal" in="SourceGraphic" in2="effect1_dropShadow_11_381" result="shape"/>
</filter>
<clipPath id="clip0_11_381">
<rect x="9" y="9" width="50" height="50" rx="25" fill="white"/>
</clipPath>
</defs>
</svg>
