<svg width="68" height="68" viewBox="0 0 68 68" fill="none" xmlns="http://www.w3.org/2000/svg">
<g filter="url(#filter0_d_1_2)">
<rect x="4" y="4" width="60" height="60" rx="30" fill="white" shape-rendering="crispEdges"/>
<rect x="7.5" y="7.5" width="53" height="53" rx="26.5" fill="white"/>
<rect x="7.5" y="7.5" width="53" height="53" rx="26.5" stroke="#1D2068" stroke-width="2"/>
<g clip-path="url(#clip0_1_2)">
<rect x="9" y="9" width="50" height="50" rx="25" fill="white"/>
<path d="M11.8 35.2638V34.6818H16V35.2638H11.8ZM13.54 33.7938C13.54 33.9338 13.564 34.0598 13.612 34.1718C13.66 34.2798 13.728 34.3718 13.816 34.4478C13.904 34.5238 14.008 34.5818 14.128 34.6218C14.248 34.6618 14.378 34.6818 14.518 34.6818H16V35.2638H14.53C14.302 35.2638 14.092 35.2298 13.9 35.1618C13.704 35.0938 13.536 34.9978 13.396 34.8738C13.252 34.7458 13.14 34.5918 13.06 34.4118C12.98 34.2278 12.94 34.0218 12.94 33.7938C12.94 33.5658 12.98 33.3678 13.06 33.1998C13.14 33.0278 13.252 32.8818 13.396 32.7618C13.536 32.6418 13.704 32.5458 13.9 32.4738C14.092 32.4018 14.302 32.3518 14.53 32.3238L16 32.1438V32.7318L14.518 32.9178C14.378 32.9338 14.248 32.9638 14.128 33.0078C14.008 33.0478 13.906 33.1038 13.822 33.1758C13.734 33.2438 13.666 33.3298 13.618 33.4338C13.566 33.5338 13.54 33.6538 13.54 33.7938Z" fill="#1D2068"/>
<path d="M13.4745 29.0343L13.6137 28.4692L16.5266 29.1872L16.3873 29.7523L13.4745 29.0343ZM12.5557 28.8758C12.4508 28.85 12.375 28.7983 12.3282 28.7209C12.2784 28.6386 12.2665 28.545 12.2923 28.4401C12.3172 28.3392 12.3703 28.2657 12.4517 28.2199C12.5301 28.1692 12.6217 28.1567 12.7266 28.1826C12.8314 28.2084 12.9087 28.2625 12.9585 28.3448C13.0053 28.4222 13.0163 28.5115 12.9914 28.6124C12.9655 28.7173 12.9134 28.7951 12.835 28.8458C12.7537 28.8917 12.6606 28.9017 12.5557 28.8758Z" fill="#1D2068"/>
<path d="M16.3038 24.5709C16.4283 24.3336 16.4841 24.137 16.471 23.9811C16.4599 23.8216 16.359 23.6738 16.1684 23.5377L15.6653 23.1923L15.9358 22.6769L16.4283 23.0167C16.6507 23.1696 16.8052 23.3185 16.8918 23.4633C16.9768 23.6028 17.0051 23.7554 16.9768 23.9212C17.088 23.8125 17.2341 23.7536 17.415 23.7447C17.5959 23.7357 17.8018 23.7738 18.0327 23.8588L18.5922 24.0711L18.3217 24.5864L17.7516 24.3686C17.5297 24.2837 17.3499 24.2819 17.2123 24.3633C17.0747 24.4447 16.9437 24.6041 16.8191 24.8414L16.5291 25.3939L17.6023 25.9571L17.3318 26.4725L13.6129 24.5206L13.8834 24.0053L16.0138 25.1234L16.3038 24.5709Z" fill="#1D2068"/>
<path d="M19.3553 19.5543C19.2218 19.5482 19.0916 19.5745 18.9648 19.6332C18.8377 19.6862 18.7237 19.7696 18.6229 19.8834C18.4584 20.069 18.3742 20.2697 18.3703 20.4852C18.3663 20.7008 18.4351 20.9007 18.5766 21.0848L19.3553 19.5543ZM18.3493 21.6851C18.1787 21.5339 18.0454 21.3677 17.9494 21.1865C17.8531 20.9997 17.7963 20.8104 17.779 20.6188C17.7614 20.4215 17.785 20.2259 17.8498 20.0322C17.9146 19.8384 18.0226 19.6562 18.1738 19.4855C18.3011 19.3418 18.4416 19.2285 18.5953 19.1455C18.7459 19.0599 18.9026 19.0037 19.0653 18.9768C19.2251 18.9473 19.3867 18.9489 19.5502 18.9815C19.7163 19.0111 19.877 19.068 20.0323 19.1521L20.1625 19.2675L19.0355 21.4353C19.2127 21.5068 19.3906 21.5201 19.5693 21.4753C19.7506 21.4275 19.9141 21.3213 20.06 21.1566C20.198 21.0009 20.2784 20.8317 20.3014 20.649C20.3243 20.4662 20.2939 20.2924 20.2103 20.1274L20.6161 19.6693C20.7183 19.8133 20.7942 19.966 20.8436 20.1274C20.8957 20.2857 20.9182 20.4473 20.9112 20.6121C20.9011 20.7742 20.8642 20.9365 20.8004 21.0991C20.7335 21.259 20.6365 21.4108 20.5091 21.5545C20.3579 21.7251 20.1916 21.8556 20.01 21.946C19.8285 22.0363 19.6432 22.0886 19.4542 22.1028C19.2649 22.1115 19.0747 22.0819 18.8835 22.0141C18.6951 21.9433 18.517 21.8337 18.3493 21.6851Z" fill="#1D2068"/>
<path d="M22.9291 16.0883C22.6757 16.2633 22.5227 16.4782 22.4702 16.7331C22.4188 16.9825 22.4771 17.229 22.6453 17.4726L23.4871 18.6923L23.0082 19.0229L22.1731 17.8131C22.0436 17.6255 21.9539 17.4322 21.9041 17.2333C21.8553 17.0288 21.8455 16.8314 21.8746 16.6412C21.9047 16.4455 21.9744 16.2613 22.0837 16.0886C22.1929 15.916 22.3414 15.7649 22.529 15.6354C22.6706 15.5377 22.8159 15.4666 22.965 15.422L23.299 15.9059C23.235 15.9258 23.1711 15.9529 23.1073 15.9872C23.0445 16.016 22.9851 16.0497 22.9291 16.0883Z" fill="#1D2068"/>
<path d="M25.8362 13.0207C25.7908 12.901 25.789 12.7947 25.8308 12.7019C25.8749 12.6039 25.953 12.5336 26.0652 12.491C26.1812 12.4471 26.2863 12.4479 26.3806 12.4934C26.4772 12.5338 26.5481 12.6138 26.5935 12.7335C26.6432 12.8644 26.6526 13.002 26.6218 13.1463L26.5432 13.5483L26.1561 13.6951L26.2381 13.2853C26.1568 13.3077 26.079 13.2944 26.0048 13.2455C25.9293 13.1929 25.873 13.1179 25.8362 13.0207Z" fill="#1D2068"/>
<path d="M31.9179 15.3078C31.4414 15.3657 31.0561 15.3118 30.762 15.146C30.4714 14.9758 30.2895 14.7057 30.2164 14.3359L30.8239 14.2621C30.8674 14.4543 30.9724 14.5886 31.1388 14.6651C31.3087 14.7371 31.5585 14.7531 31.888 14.7131C32.1422 14.6823 32.3354 14.6306 32.4676 14.5581C32.5993 14.4817 32.6582 14.3859 32.6442 14.2707C32.6168 14.0444 32.293 13.9669 31.6731 14.0381C31.1763 14.0944 30.7988 14.0717 30.5407 13.9701C30.2825 13.8685 30.1363 13.6767 30.1021 13.3948C30.0838 13.2439 30.1009 13.1028 30.1535 12.9715C30.21 12.8397 30.2945 12.7227 30.407 12.6204C30.5235 12.5176 30.6684 12.4335 30.8418 12.3681C31.0147 12.2988 31.2103 12.2509 31.4287 12.2243C31.8933 12.1679 32.2689 12.2251 32.5556 12.3958C32.8462 12.566 33.0298 12.8338 33.1064 13.1992L32.493 13.2737C32.45 13.0855 32.3455 12.9552 32.1795 12.8826C32.0171 12.8057 31.7849 12.7855 31.4832 12.8221C31.2171 12.8544 31.013 12.9155 30.8708 13.0053C30.7281 13.0911 30.6644 13.1976 30.6799 13.3246C30.6934 13.4358 30.7705 13.507 30.9113 13.5383C31.0516 13.5656 31.2831 13.5637 31.6057 13.5325C32.1467 13.4749 32.542 13.4954 32.7917 13.594C33.0449 13.6882 33.1884 13.8743 33.2222 14.1522C33.2603 14.4659 33.1626 14.7236 32.9292 14.9252C32.6958 15.1268 32.3587 15.2543 31.9179 15.3078Z" fill="#1D2068"/>
<path d="M40.7734 16.2274C40.5602 16.1465 40.3785 16.0391 40.2282 15.9051C40.0794 15.7674 39.9648 15.6127 39.8844 15.4411C39.8092 15.2671 39.7694 15.0787 39.765 14.876C39.7644 14.6747 39.8045 14.4674 39.8853 14.2543C39.9662 14.0411 40.0743 13.8575 40.2097 13.7035C40.3503 13.5472 40.5071 13.427 40.6802 13.3429C40.8584 13.2565 41.0496 13.2092 41.2537 13.2011C41.4579 13.1929 41.6666 13.2293 41.8797 13.3101C42.0929 13.391 42.2732 13.5021 42.4206 13.6436C42.568 13.7851 42.6779 13.9465 42.7503 14.128C42.8278 14.3071 42.8655 14.5011 42.8633 14.7099C42.8663 14.9163 42.8273 15.1262 42.7465 15.3394C42.6656 15.5525 42.5563 15.7335 42.4186 15.8824C42.2846 16.0326 42.1299 16.1472 41.9546 16.2262C41.7843 16.3028 41.5978 16.3433 41.3951 16.3477C41.1938 16.3483 40.9866 16.3082 40.7734 16.2274ZM40.9861 15.6664C41.2517 15.7671 41.4954 15.7675 41.7172 15.6677C41.939 15.5679 42.1002 15.3852 42.201 15.1196C42.2506 14.9887 42.2743 14.8587 42.2719 14.7294C42.2733 14.6016 42.2504 14.4817 42.203 14.3696C42.1594 14.259 42.0919 14.1606 42.0005 14.0746C41.909 13.9886 41.7979 13.9208 41.667 13.8711C41.5361 13.8215 41.4079 13.7985 41.2824 13.8023C41.1569 13.806 41.0393 13.8342 40.9295 13.8867C40.8198 13.9391 40.7212 14.013 40.6338 14.1082C40.5501 14.2048 40.4834 14.3185 40.4338 14.4494C40.3331 14.715 40.3326 14.9586 40.4325 15.1805C40.536 15.4037 40.7206 15.5657 40.9861 15.6664Z" fill="#1D2068"/>
<path d="M46.1729 16.1588C46.0577 16.0793 45.9404 16.0275 45.8209 16.0033C45.7048 15.9815 45.5904 15.9852 45.4779 16.0144C45.3654 16.0437 45.2585 16.0963 45.1575 16.1724C45.0564 16.2484 44.9661 16.344 44.8865 16.4592L44.0447 17.6789L43.5657 17.3483L44.4007 16.1385C44.5303 15.9509 44.6775 15.7974 44.8426 15.678C45.0099 15.5553 45.1843 15.4716 45.3659 15.4268C45.553 15.381 45.7434 15.3763 45.937 15.4127C46.1338 15.4514 46.3261 15.5355 46.5137 15.665C46.7014 15.7945 46.8416 15.9399 46.9344 16.1012C47.0305 16.2648 47.0871 16.4399 47.104 16.6265C47.1233 16.8099 47.1068 17.0027 47.0547 17.2049C47.0049 17.4038 46.9268 17.6051 46.8203 17.8086L46.1334 19.1207L45.6495 18.7866L46.3383 17.4613C46.4046 17.337 46.4538 17.213 46.4858 17.0892C46.521 16.9677 46.5329 16.852 46.5213 16.742C46.5153 16.6309 46.4832 16.5261 46.4249 16.4275C46.3721 16.3279 46.2881 16.2383 46.1729 16.1588Z" fill="#1D2068"/>
<path d="M51.5798 25.0258L51.0538 25.3019C50.7337 24.8555 50.6001 24.4761 50.653 24.1638C50.7078 23.855 50.9512 23.5871 51.3833 23.3604L54.045 21.9634L54.3154 22.4787L51.6431 23.8813C51.5227 23.9445 51.4355 24.0151 51.3816 24.0931C51.3277 24.1711 51.3007 24.2575 51.3008 24.3523C51.3009 24.4471 51.3253 24.5495 51.374 24.6595C51.4245 24.773 51.4931 24.8951 51.5798 25.0258ZM53.6368 23.5871L53.0958 22.5564L53.5774 22.2088L54.1574 23.3138L53.6368 23.5871Z" fill="#1D2068"/>
<path d="M52.3362 28.8811C52.2816 28.6597 52.2668 28.4492 52.2917 28.2494C52.3205 28.0487 52.3827 27.8665 52.4784 27.7028C52.5788 27.5421 52.7112 27.4024 52.8756 27.2836C53.0409 27.1687 53.2342 27.084 53.4556 27.0294C53.677 26.9748 53.8895 26.9595 54.0931 26.9835C54.3016 27.0104 54.4896 27.0712 54.6571 27.1658C54.8295 27.2634 54.977 27.3939 55.0997 27.5573C55.2224 27.7207 55.311 27.9131 55.3655 28.1344C55.4201 28.3558 55.431 28.5673 55.3984 28.769C55.3657 28.9707 55.2952 29.1529 55.187 29.3155C55.0836 29.481 54.9454 29.6222 54.7723 29.739C54.6041 29.8588 54.4093 29.9459 54.1879 30.0005C53.9665 30.0551 53.7555 30.0679 53.5547 30.0391C53.355 30.0142 53.1728 29.952 53.0082 29.8525C52.8484 29.7559 52.7092 29.6255 52.5904 29.4611C52.4755 29.2958 52.3908 29.1025 52.3362 28.8811ZM52.9188 28.7375C52.9867 29.0133 53.1248 29.2141 53.333 29.3399C53.5411 29.4657 53.7831 29.4947 54.0588 29.4267C54.1948 29.3932 54.3152 29.3388 54.4203 29.2635C54.5262 29.192 54.6119 29.105 54.6773 29.0024C54.7435 28.9036 54.7861 28.7922 54.805 28.6681C54.8238 28.544 54.8165 28.414 54.783 28.278C54.7495 28.1421 54.6955 28.0236 54.6212 27.9224C54.5468 27.8213 54.4568 27.7405 54.3513 27.68C54.2458 27.6195 54.129 27.5803 54.001 27.5624C53.8739 27.5484 53.7425 27.5581 53.6065 27.5916C53.3308 27.6596 53.13 27.7977 53.0041 28.0058C52.8793 28.2179 52.8508 28.4618 52.9188 28.7375Z" fill="#1D2068"/>
<path d="M56.06 33.3998C56.06 33.6278 56.022 33.8358 55.946 34.0238C55.874 34.2118 55.77 34.3718 55.634 34.5038C55.502 34.6398 55.342 34.7438 55.154 34.8158C54.966 34.8918 54.758 34.9298 54.53 34.9298C54.302 34.9298 54.09 34.8918 53.894 34.8158C53.702 34.7438 53.534 34.6398 53.39 34.5038C53.25 34.3718 53.14 34.2118 53.06 34.0238C52.98 33.8358 52.94 33.6278 52.94 33.3998C52.94 33.1718 52.98 32.9638 53.06 32.7758C53.14 32.5878 53.25 32.4258 53.39 32.2898C53.534 32.1578 53.702 32.0538 53.894 31.9778C54.09 31.9058 54.302 31.8698 54.53 31.8698C54.758 31.8698 54.966 31.9058 55.154 31.9778C55.342 32.0538 55.502 32.1578 55.634 32.2898C55.77 32.4258 55.874 32.5878 55.946 32.7758C56.022 32.9638 56.06 33.1718 56.06 33.3998ZM51.8 32.4578V31.8698H56V32.4578H51.8ZM55.46 33.3998C55.46 33.1158 55.374 32.8878 55.202 32.7158C55.03 32.5438 54.802 32.4578 54.518 32.4578C54.378 32.4578 54.248 32.4798 54.128 32.5238C54.008 32.5718 53.904 32.6358 53.816 32.7158C53.732 32.7998 53.664 32.8998 53.612 33.0158C53.564 33.1318 53.54 33.2598 53.54 33.3998C53.54 33.5398 53.564 33.6678 53.612 33.7838C53.664 33.8998 53.732 33.9978 53.816 34.0778C53.904 34.1618 54.008 34.2258 54.128 34.2698C54.248 34.3178 54.378 34.3418 54.518 34.3418C54.802 34.3418 55.03 34.2558 55.202 34.0838C55.374 33.9118 55.46 33.6838 55.46 33.3998Z" fill="#1D2068"/>
<line x1="33.75" y1="18" x2="33.75" y2="27" stroke="#1D2068" stroke-width="0.5"/>
<path d="M34.7881 27.25L35.7041 32.75H31.7959L32.7119 27.25H34.7881Z" stroke="#1D2068" stroke-width="0.5"/>
<rect x="31.25" y="32.75" width="5" height="1.5" stroke="#1D2068" stroke-width="0.5"/>
<rect x="30.25" y="34.25" width="7" height="1.5" stroke="#1D2068" stroke-width="0.5"/>
<rect x="30.25" y="35.75" width="7" height="1.5" stroke="#1D2068" stroke-width="0.5"/>
<rect x="29.25" y="37.25" width="9" height="4.5" stroke="#1D2068" stroke-width="0.5"/>
<path d="M35.2588 41.75L35.9902 61.25H31.5098L32.2412 41.75H35.2588Z" stroke="#1D2068" stroke-width="0.5"/>
<mask id="path-24-outside-1_1_2" maskUnits="userSpaceOnUse" x="27" y="49" width="14" height="8" fill="black">
<rect fill="white" x="27" y="49" width="14" height="8"/>
<path d="M33.706 51.202V52.186H33.106V53.212H32.092V50.5H33.106V51.202H33.706ZM31.852 52.876C31.588 52.99 31.108 53.056 30.628 53.056H28.408V50.53H29.434V52.21H30.67C31.132 52.21 31.582 52.15 31.852 52.042V52.876ZM28.582 55.624V53.392H33.106V55.624H28.582ZM29.596 54.232V54.784H32.092V54.232H29.596ZM38.8775 51.466H39.4775V52.45H38.8775V54.292H37.8635V50.5H38.8775V51.466ZM35.8535 52.534C35.4275 53.146 34.8035 53.56 34.0655 53.596V52.654C34.8755 52.558 35.4095 51.652 35.4275 50.524L36.4475 50.584C36.4475 50.98 36.3815 51.37 36.2555 51.73L37.7135 52.816L37.1075 53.524L35.8535 52.534ZM35.3855 53.83V54.712H38.9495V55.624H34.3535V53.83H35.3855Z"/>
</mask>
<path d="M33.706 51.202V52.186H33.106V53.212H32.092V50.5H33.106V51.202H33.706ZM31.852 52.876C31.588 52.99 31.108 53.056 30.628 53.056H28.408V50.53H29.434V52.21H30.67C31.132 52.21 31.582 52.15 31.852 52.042V52.876ZM28.582 55.624V53.392H33.106V55.624H28.582ZM29.596 54.232V54.784H32.092V54.232H29.596ZM38.8775 51.466H39.4775V52.45H38.8775V54.292H37.8635V50.5H38.8775V51.466ZM35.8535 52.534C35.4275 53.146 34.8035 53.56 34.0655 53.596V52.654C34.8755 52.558 35.4095 51.652 35.4275 50.524L36.4475 50.584C36.4475 50.98 36.3815 51.37 36.2555 51.73L37.7135 52.816L37.1075 53.524L35.8535 52.534ZM35.3855 53.83V54.712H38.9495V55.624H34.3535V53.83H35.3855Z" fill="#1D2068"/>
<path d="M33.706 51.202H34.706V50.202H33.706V51.202ZM33.706 52.186V53.186H34.706V52.186H33.706ZM33.106 52.186V51.186H32.106V52.186H33.106ZM33.106 53.212V54.212H34.106V53.212H33.106ZM32.092 53.212H31.092V54.212H32.092V53.212ZM32.092 50.5V49.5H31.092V50.5H32.092ZM33.106 50.5H34.106V49.5H33.106V50.5ZM33.106 51.202H32.106V52.202H33.106V51.202ZM31.852 52.876L32.2484 53.7941L32.852 53.5334V52.876H31.852ZM28.408 53.056H27.408V54.056H28.408V53.056ZM28.408 50.53V49.53H27.408V50.53H28.408ZM29.434 50.53H30.434V49.53H29.434V50.53ZM29.434 52.21H28.434V53.21H29.434V52.21ZM31.852 52.042H32.852V50.565L31.4806 51.1135L31.852 52.042ZM28.582 55.624H27.582V56.624H28.582V55.624ZM28.582 53.392V52.392H27.582V53.392H28.582ZM33.106 53.392H34.106V52.392H33.106V53.392ZM33.106 55.624V56.624H34.106V55.624H33.106ZM29.596 54.232V53.232H28.596V54.232H29.596ZM29.596 54.784H28.596V55.784H29.596V54.784ZM32.092 54.784V55.784H33.092V54.784H32.092ZM32.092 54.232H33.092V53.232H32.092V54.232ZM33.706 51.202H32.706V52.186H33.706H34.706V51.202H33.706ZM33.706 52.186V51.186H33.106V52.186V53.186H33.706V52.186ZM33.106 52.186H32.106V53.212H33.106H34.106V52.186H33.106ZM33.106 53.212V52.212H32.092V53.212V54.212H33.106V53.212ZM32.092 53.212H33.092V50.5H32.092H31.092V53.212H32.092ZM32.092 50.5V51.5H33.106V50.5V49.5H32.092V50.5ZM33.106 50.5H32.106V51.202H33.106H34.106V50.5H33.106ZM33.106 51.202V52.202H33.706V51.202V50.202H33.106V51.202ZM31.852 52.876L31.4556 51.9579C31.4564 51.9576 31.4502 51.9602 31.4357 51.965C31.4214 51.9696 31.4017 51.9753 31.3763 51.9816C31.3247 51.9944 31.2582 52.0074 31.1781 52.019C31.0169 52.0423 30.8249 52.056 30.628 52.056V53.056V54.056C31.1501 54.056 31.7948 53.99 32.2484 53.7941L31.852 52.876ZM30.628 53.056V52.056H28.408V53.056V54.056H30.628V53.056ZM28.408 53.056H29.408V50.53H28.408H27.408V53.056H28.408ZM28.408 50.53V51.53H29.434V50.53V49.53H28.408V50.53ZM29.434 50.53H28.434V52.21H29.434H30.434V50.53H29.434ZM29.434 52.21V53.21H30.67V52.21V51.21H29.434V52.21ZM30.67 52.21V53.21C31.1801 53.21 31.7791 53.1482 32.2234 52.9705L31.852 52.042L31.4806 51.1135C31.3849 51.1518 31.0839 51.21 30.67 51.21V52.21ZM31.852 52.042H30.852V52.876H31.852H32.852V52.042H31.852ZM28.582 55.624H29.582V53.392H28.582H27.582V55.624H28.582ZM28.582 53.392V54.392H33.106V53.392V52.392H28.582V53.392ZM33.106 53.392H32.106V55.624H33.106H34.106V53.392H33.106ZM33.106 55.624V54.624H28.582V55.624V56.624H33.106V55.624ZM29.596 54.232H28.596V54.784H29.596H30.596V54.232H29.596ZM29.596 54.784V55.784H32.092V54.784V53.784H29.596V54.784ZM32.092 54.784H33.092V54.232H32.092H31.092V54.784H32.092ZM32.092 54.232V53.232H29.596V54.232V55.232H32.092V54.232ZM38.8775 51.466H37.8775V52.466H38.8775V51.466ZM39.4775 51.466H40.4775V50.466H39.4775V51.466ZM39.4775 52.45V53.45H40.4775V52.45H39.4775ZM38.8775 52.45V51.45H37.8775V52.45H38.8775ZM38.8775 54.292V55.292H39.8775V54.292H38.8775ZM37.8635 54.292H36.8635V55.292H37.8635V54.292ZM37.8635 50.5V49.5H36.8635V50.5H37.8635ZM38.8775 50.5H39.8775V49.5H38.8775V50.5ZM35.8535 52.534L36.4731 51.7491L35.6395 51.091L35.0327 51.9627L35.8535 52.534ZM34.0655 53.596H33.0655V54.646L34.1142 54.5948L34.0655 53.596ZM34.0655 52.654L33.9478 51.6609L33.0655 51.7655V52.654H34.0655ZM35.4275 50.524L35.4862 49.5257L34.4443 49.4644L34.4276 50.508L35.4275 50.524ZM36.4475 50.584H37.4475V49.6411L36.5062 49.5857L36.4475 50.584ZM36.2555 51.73L35.3116 51.3996L35.0689 52.0931L35.6581 52.532L36.2555 51.73ZM37.7135 52.816L38.4732 53.4663L39.1691 52.6533L38.3108 52.014L37.7135 52.816ZM37.1075 53.524L36.4878 54.3089L37.2422 54.9044L37.8672 54.1743L37.1075 53.524ZM35.3855 53.83H36.3855V52.83H35.3855V53.83ZM35.3855 54.712H34.3855V55.712H35.3855V54.712ZM38.9495 54.712H39.9495V53.712H38.9495V54.712ZM38.9495 55.624V56.624H39.9495V55.624H38.9495ZM34.3535 55.624H33.3535V56.624H34.3535V55.624ZM34.3535 53.83V52.83H33.3535V53.83H34.3535ZM38.8775 51.466V52.466H39.4775V51.466V50.466H38.8775V51.466ZM39.4775 51.466H38.4775V52.45H39.4775H40.4775V51.466H39.4775ZM39.4775 52.45V51.45H38.8775V52.45V53.45H39.4775V52.45ZM38.8775 52.45H37.8775V54.292H38.8775H39.8775V52.45H38.8775ZM38.8775 54.292V53.292H37.8635V54.292V55.292H38.8775V54.292ZM37.8635 54.292H38.8635V50.5H37.8635H36.8635V54.292H37.8635ZM37.8635 50.5V51.5H38.8775V50.5V49.5H37.8635V50.5ZM38.8775 50.5H37.8775V51.466H38.8775H39.8775V50.5H38.8775ZM35.8535 52.534L35.0327 51.9627C34.7454 52.3755 34.3835 52.5793 34.0168 52.5972L34.0655 53.596L34.1142 54.5948C35.2235 54.5407 36.1096 53.9165 36.6742 53.1053L35.8535 52.534ZM34.0655 53.596H35.0655V52.654H34.0655H33.0655V53.596H34.0655ZM34.0655 52.654L34.1832 53.647C34.9588 53.5551 35.5351 53.0766 35.8917 52.5057C36.2438 51.9419 36.4161 51.2468 36.4274 50.54L35.4275 50.524L34.4276 50.508C34.4209 50.9292 34.3172 51.2511 34.1953 51.4463C34.0778 51.6344 33.9822 51.6569 33.9478 51.6609L34.0655 52.654ZM35.4275 50.524L35.3688 51.5223L36.3888 51.5823L36.4475 50.584L36.5062 49.5857L35.4862 49.5257L35.4275 50.524ZM36.4475 50.584H35.4475C35.4475 50.8701 35.3996 51.1483 35.3116 51.3996L36.2555 51.73L37.1993 52.0604C37.3634 51.5917 37.4475 51.0899 37.4475 50.584H36.4475ZM36.2555 51.73L35.6581 52.532L37.1161 53.618L37.7135 52.816L38.3108 52.014L36.8528 50.928L36.2555 51.73ZM37.7135 52.816L36.9538 52.1657L36.3478 52.8737L37.1075 53.524L37.8672 54.1743L38.4732 53.4663L37.7135 52.816ZM37.1075 53.524L37.7271 52.7391L36.4731 51.7491L35.8535 52.534L35.2338 53.3189L36.4878 54.3089L37.1075 53.524ZM35.3855 53.83H34.3855V54.712H35.3855H36.3855V53.83H35.3855ZM35.3855 54.712V55.712H38.9495V54.712V53.712H35.3855V54.712ZM38.9495 54.712H37.9495V55.624H38.9495H39.9495V54.712H38.9495ZM38.9495 55.624V54.624H34.3535V55.624V56.624H38.9495V55.624ZM34.3535 55.624H35.3535V53.83H34.3535H33.3535V55.624H34.3535ZM34.3535 53.83V54.83H35.3855V53.83V52.83H34.3535V53.83Z" fill="white" mask="url(#path-24-outside-1_1_2)"/>
<mask id="path-26-outside-2_1_2" maskUnits="userSpaceOnUse" x="23" y="44" width="23" height="7" fill="black">
<rect fill="white" x="23" y="44" width="23" height="7"/>
<path d="M27.04 46H27.436V49.416H27.04V47.608H26.16V47.236H27.04V46ZM25.648 46.1C25.648 46.568 25.612 46.992 25.548 47.372L26.616 49.004L26.284 49.22L25.432 47.876C25.2 48.684 24.788 49.168 24.248 49.212V48.808C24.904 48.7 25.24 47.52 25.244 46.084L25.648 46.1ZM29.7717 47.232C28.9477 47.232 28.2717 47.064 28.2717 46.608C28.2717 46.156 28.9477 45.988 29.7717 45.988C30.5957 45.988 31.2717 46.156 31.2717 46.608C31.2717 47.064 30.5957 47.232 29.7717 47.232ZM29.7717 46.288C29.1757 46.288 28.6797 46.384 28.6797 46.608C28.6797 46.836 29.1757 46.928 29.7717 46.928C30.3677 46.928 30.8637 46.836 30.8637 46.608C30.8637 46.384 30.3677 46.288 29.7717 46.288ZM31.4797 47.716H29.9677V48.024H31.2437V48.84H28.6917V49.08H31.3037V49.376H28.3037V48.56H30.8557V48.32H28.2957V48.024H29.5757V47.716H28.0677V47.408H31.4797V47.716ZM33.6193 47.232C32.7953 47.232 32.1193 47.064 32.1193 46.608C32.1193 46.156 32.7953 45.988 33.6193 45.988C34.4433 45.988 35.1193 46.156 35.1193 46.608C35.1193 47.064 34.4433 47.232 33.6193 47.232ZM33.6193 46.928C34.2153 46.928 34.7113 46.836 34.7113 46.608C34.7113 46.384 34.2153 46.288 33.6193 46.288C33.0233 46.288 32.5273 46.384 32.5273 46.608C32.5273 46.836 33.0233 46.928 33.6193 46.928ZM31.9153 47.752V47.444H35.3273V47.752H31.9153ZM32.1513 49.376V48.56H34.7033V48.32H32.1433V48.024H35.0913V48.84H32.5393V49.08H35.1513V49.376H32.1513ZM40.0961 47.008V47.32H37.0801V47.008H37.6841V46.352H37.1161V46.04H40.0601V46.352H39.4921V47.008H40.0961ZM38.0801 46.352V47.008H39.0961V46.352H38.0801ZM40.2961 47.936H38.7841V48.292H40.0561V49.376H37.1201V48.292H38.3921V47.936H36.8841V47.62H40.2961V47.936ZM39.6641 49.068V48.596H37.5161V49.068H39.6641ZM42.4357 47.472C41.6077 47.472 40.9197 47.232 40.9197 46.724C40.9197 46.22 41.6077 45.98 42.4357 45.98C43.2637 45.98 43.9517 46.22 43.9517 46.724C43.9517 47.232 43.2637 47.472 42.4357 47.472ZM42.4357 47.152C43.0317 47.152 43.5317 47.004 43.5317 46.724C43.5317 46.448 43.0317 46.3 42.4357 46.3C41.8397 46.3 41.3397 46.448 41.3397 46.724C41.3397 47.004 41.8397 47.152 42.4357 47.152ZM40.7317 48.112V47.776H44.1437V48.112H40.7317ZM40.9677 49.376V48.404H41.3717V49.036H43.9677V49.376H40.9677Z"/>
</mask>
<path d="M27.04 46H27.436V49.416H27.04V47.608H26.16V47.236H27.04V46ZM25.648 46.1C25.648 46.568 25.612 46.992 25.548 47.372L26.616 49.004L26.284 49.22L25.432 47.876C25.2 48.684 24.788 49.168 24.248 49.212V48.808C24.904 48.7 25.24 47.52 25.244 46.084L25.648 46.1ZM29.7717 47.232C28.9477 47.232 28.2717 47.064 28.2717 46.608C28.2717 46.156 28.9477 45.988 29.7717 45.988C30.5957 45.988 31.2717 46.156 31.2717 46.608C31.2717 47.064 30.5957 47.232 29.7717 47.232ZM29.7717 46.288C29.1757 46.288 28.6797 46.384 28.6797 46.608C28.6797 46.836 29.1757 46.928 29.7717 46.928C30.3677 46.928 30.8637 46.836 30.8637 46.608C30.8637 46.384 30.3677 46.288 29.7717 46.288ZM31.4797 47.716H29.9677V48.024H31.2437V48.84H28.6917V49.08H31.3037V49.376H28.3037V48.56H30.8557V48.32H28.2957V48.024H29.5757V47.716H28.0677V47.408H31.4797V47.716ZM33.6193 47.232C32.7953 47.232 32.1193 47.064 32.1193 46.608C32.1193 46.156 32.7953 45.988 33.6193 45.988C34.4433 45.988 35.1193 46.156 35.1193 46.608C35.1193 47.064 34.4433 47.232 33.6193 47.232ZM33.6193 46.928C34.2153 46.928 34.7113 46.836 34.7113 46.608C34.7113 46.384 34.2153 46.288 33.6193 46.288C33.0233 46.288 32.5273 46.384 32.5273 46.608C32.5273 46.836 33.0233 46.928 33.6193 46.928ZM31.9153 47.752V47.444H35.3273V47.752H31.9153ZM32.1513 49.376V48.56H34.7033V48.32H32.1433V48.024H35.0913V48.84H32.5393V49.08H35.1513V49.376H32.1513ZM40.0961 47.008V47.32H37.0801V47.008H37.6841V46.352H37.1161V46.04H40.0601V46.352H39.4921V47.008H40.0961ZM38.0801 46.352V47.008H39.0961V46.352H38.0801ZM40.2961 47.936H38.7841V48.292H40.0561V49.376H37.1201V48.292H38.3921V47.936H36.8841V47.62H40.2961V47.936ZM39.6641 49.068V48.596H37.5161V49.068H39.6641ZM42.4357 47.472C41.6077 47.472 40.9197 47.232 40.9197 46.724C40.9197 46.22 41.6077 45.98 42.4357 45.98C43.2637 45.98 43.9517 46.22 43.9517 46.724C43.9517 47.232 43.2637 47.472 42.4357 47.472ZM42.4357 47.152C43.0317 47.152 43.5317 47.004 43.5317 46.724C43.5317 46.448 43.0317 46.3 42.4357 46.3C41.8397 46.3 41.3397 46.448 41.3397 46.724C41.3397 47.004 41.8397 47.152 42.4357 47.152ZM40.7317 48.112V47.776H44.1437V48.112H40.7317ZM40.9677 49.376V48.404H41.3717V49.036H43.9677V49.376H40.9677Z" fill="#1D2068"/>
<path d="M27.04 46V45H26.04V46H27.04ZM27.436 46H28.436V45H27.436V46ZM27.436 49.416V50.416H28.436V49.416H27.436ZM27.04 49.416H26.04V50.416H27.04V49.416ZM27.04 47.608H28.04V46.608H27.04V47.608ZM26.16 47.608H25.16V48.608H26.16V47.608ZM26.16 47.236V46.236H25.16V47.236H26.16ZM27.04 47.236V48.236H28.04V47.236H27.04ZM25.648 46.1H26.648V45.1388L25.6876 45.1008L25.648 46.1ZM25.548 47.372L24.5619 47.2059L24.4969 47.592L24.7112 47.9196L25.548 47.372ZM26.616 49.004L27.1613 49.8422L28.0018 49.2954L27.4528 48.4564L26.616 49.004ZM26.284 49.22L25.4394 49.7554L25.9812 50.61L26.8293 50.0582L26.284 49.22ZM25.432 47.876L26.2766 47.3406L25.085 45.4609L24.4708 47.6L25.432 47.876ZM24.248 49.212H23.248V50.2968L24.3292 50.2087L24.248 49.212ZM24.248 48.808L24.0856 47.8213L23.248 47.9592V48.808H24.248ZM25.244 46.084L25.2836 45.0848L24.2469 45.0437L24.244 46.0812L25.244 46.084ZM27.04 46V47H27.436V46V45H27.04V46ZM27.436 46H26.436V49.416H27.436H28.436V46H27.436ZM27.436 49.416V48.416H27.04V49.416V50.416H27.436V49.416ZM27.04 49.416H28.04V47.608H27.04H26.04V49.416H27.04ZM27.04 47.608V46.608H26.16V47.608V48.608H27.04V47.608ZM26.16 47.608H27.16V47.236H26.16H25.16V47.608H26.16ZM26.16 47.236V48.236H27.04V47.236V46.236H26.16V47.236ZM27.04 47.236H28.04V46H27.04H26.04V47.236H27.04ZM25.648 46.1H24.648C24.648 46.517 24.6159 46.8852 24.5619 47.2059L25.548 47.372L26.5341 47.5381C26.6081 47.0988 26.648 46.619 26.648 46.1H25.648ZM25.548 47.372L24.7112 47.9196L25.7792 49.5516L26.616 49.004L27.4528 48.4564L26.3848 46.8244L25.548 47.372ZM26.616 49.004L26.0707 48.1658L25.7387 48.3818L26.284 49.22L26.8293 50.0582L27.1613 49.8422L26.616 49.004ZM26.284 49.22L27.1286 48.6846L26.2766 47.3406L25.432 47.876L24.5874 48.4114L25.4394 49.7554L26.284 49.22ZM25.432 47.876L24.4708 47.6C24.3804 47.9148 24.2755 48.0892 24.2036 48.1712C24.1444 48.2387 24.1346 48.2179 24.1668 48.2153L24.248 49.212L24.3292 50.2087C25.5171 50.1119 26.1284 49.0741 26.3932 48.152L25.432 47.876ZM24.248 49.212H25.248V48.808H24.248H23.248V49.212H24.248ZM24.248 48.808L24.4104 49.7947C25.3272 49.6438 25.7499 48.815 25.9369 48.2669C26.1512 47.6389 26.2418 46.8663 26.244 46.0868L25.244 46.084L24.244 46.0812C24.2422 46.7377 24.1628 47.2731 24.0441 47.6211C23.8981 48.049 23.8248 47.8642 24.0856 47.8213L24.248 48.808ZM25.244 46.084L25.2044 47.0832L25.6084 47.0992L25.648 46.1L25.6876 45.1008L25.2836 45.0848L25.244 46.084ZM31.4797 47.716V48.716H32.4797V47.716H31.4797ZM29.9677 47.716V46.716H28.9677V47.716H29.9677ZM29.9677 48.024H28.9677V49.024H29.9677V48.024ZM31.2437 48.024H32.2437V47.024H31.2437V48.024ZM31.2437 48.84V49.84H32.2437V48.84H31.2437ZM28.6917 48.84V47.84H27.6917V48.84H28.6917ZM28.6917 49.08H27.6917V50.08H28.6917V49.08ZM31.3037 49.08H32.3037V48.08H31.3037V49.08ZM31.3037 49.376V50.376H32.3037V49.376H31.3037ZM28.3037 49.376H27.3037V50.376H28.3037V49.376ZM28.3037 48.56V47.56H27.3037V48.56H28.3037ZM30.8557 48.56V49.56H31.8557V48.56H30.8557ZM30.8557 48.32H31.8557V47.32H30.8557V48.32ZM28.2957 48.32H27.2957V49.32H28.2957V48.32ZM28.2957 48.024V47.024H27.2957V48.024H28.2957ZM29.5757 48.024V49.024H30.5757V48.024H29.5757ZM29.5757 47.716H30.5757V46.716H29.5757V47.716ZM28.0677 47.716H27.0677V48.716H28.0677V47.716ZM28.0677 47.408V46.408H27.0677V47.408H28.0677ZM31.4797 47.408H32.4797V46.408H31.4797V47.408ZM29.7717 47.232V46.232C29.5978 46.232 29.4445 46.223 29.3162 46.2067C29.1847 46.1899 29.1002 46.1679 29.0547 46.1513C29.0026 46.1324 29.0465 46.1372 29.1135 46.2074C29.1508 46.2464 29.1933 46.3041 29.2254 46.3812C29.258 46.4595 29.2717 46.5382 29.2717 46.608H28.2717H27.2717C27.2717 47.4752 27.9591 47.8809 28.3706 48.0307C28.8046 48.1886 29.3161 48.232 29.7717 48.232V47.232ZM28.2717 46.608H29.2717C29.2717 46.6795 29.2576 46.7596 29.2243 46.8388C29.1916 46.9166 29.1485 46.9746 29.111 47.0135C29.0439 47.0833 29.0004 47.0879 29.0531 47.0687C29.0992 47.0521 29.1842 47.0301 29.3159 47.0133C29.4444 46.997 29.5979 46.988 29.7717 46.988V45.988V44.988C29.3159 44.988 28.8052 45.0314 28.3722 45.1883C27.9651 45.3357 27.2717 45.7386 27.2717 46.608H28.2717ZM29.7717 45.988V46.988C29.9455 46.988 30.0989 46.997 30.2274 47.0133C30.3591 47.0301 30.4441 47.0521 30.4902 47.0687C30.5429 47.0879 30.4994 47.0833 30.4323 47.0135C30.3948 46.9746 30.3517 46.9166 30.319 46.8388C30.2857 46.7596 30.2717 46.6795 30.2717 46.608H31.2717H32.2717C32.2717 45.7386 31.5782 45.3357 31.1712 45.1883C30.7381 45.0314 30.2274 44.988 29.7717 44.988V45.988ZM31.2717 46.608H30.2717C30.2717 46.5382 30.2853 46.4595 30.3179 46.3812C30.35 46.3041 30.3925 46.2464 30.4298 46.2074C30.4968 46.1372 30.5407 46.1324 30.4886 46.1513C30.4431 46.1679 30.3586 46.1899 30.2271 46.2067C30.0988 46.223 29.9455 46.232 29.7717 46.232V47.232V48.232C30.2272 48.232 30.7387 48.1886 31.1727 48.0307C31.5842 47.8809 32.2717 47.4752 32.2717 46.608H31.2717ZM29.7717 46.288V45.288C29.4373 45.288 29.0669 45.3133 28.7487 45.3966C28.5959 45.4367 28.3792 45.509 28.1792 45.6541C27.9653 45.8094 27.6797 46.1244 27.6797 46.608H28.6797H29.6797C29.6797 46.7753 29.6306 46.9286 29.5551 47.0519C29.4845 47.1672 29.4035 47.2368 29.3538 47.2729C29.2654 47.337 29.2099 47.3433 29.2556 47.3314C29.3344 47.3107 29.51 47.288 29.7717 47.288V46.288ZM28.6797 46.608H27.6797C27.6797 47.0868 27.9589 47.403 28.1774 47.5623C28.3792 47.7094 28.5979 47.7817 28.751 47.8215C29.0696 47.9041 29.4401 47.928 29.7717 47.928V46.928V45.928C29.5072 45.928 29.3318 45.9059 29.2533 45.8855C29.2079 45.8738 29.2654 45.8804 29.3556 45.9461C29.4064 45.9832 29.4876 46.0536 29.5577 46.1695C29.6326 46.2933 29.6797 46.4448 29.6797 46.608H28.6797ZM29.7717 46.928V47.928C30.1032 47.928 30.4738 47.9041 30.7923 47.8215C30.9455 47.7817 31.1641 47.7094 31.3659 47.5623C31.5844 47.403 31.8637 47.0868 31.8637 46.608H30.8637H29.8637C29.8637 46.4448 29.9107 46.2933 29.9856 46.1695C30.0557 46.0536 30.1369 45.9832 30.1878 45.9461C30.2779 45.8804 30.3354 45.8738 30.29 45.8855C30.2116 45.9059 30.0361 45.928 29.7717 45.928V46.928ZM30.8637 46.608H31.8637C31.8637 46.1244 31.5781 45.8094 31.3642 45.6541C31.1641 45.509 30.9474 45.4367 30.7946 45.3966C30.4764 45.3133 30.106 45.288 29.7717 45.288V46.288V47.288C30.0333 47.288 30.2089 47.3107 30.2877 47.3314C30.3334 47.3433 30.278 47.337 30.1895 47.2729C30.1398 47.2368 30.0588 47.1672 29.9882 47.0519C29.9127 46.9286 29.8637 46.7753 29.8637 46.608H30.8637ZM31.4797 47.716V46.716H29.9677V47.716V48.716H31.4797V47.716ZM29.9677 47.716H28.9677V48.024H29.9677H30.9677V47.716H29.9677ZM29.9677 48.024V49.024H31.2437V48.024V47.024H29.9677V48.024ZM31.2437 48.024H30.2437V48.84H31.2437H32.2437V48.024H31.2437ZM31.2437 48.84V47.84H28.6917V48.84V49.84H31.2437V48.84ZM28.6917 48.84H27.6917V49.08H28.6917H29.6917V48.84H28.6917ZM28.6917 49.08V50.08H31.3037V49.08V48.08H28.6917V49.08ZM31.3037 49.08H30.3037V49.376H31.3037H32.3037V49.08H31.3037ZM31.3037 49.376V48.376H28.3037V49.376V50.376H31.3037V49.376ZM28.3037 49.376H29.3037V48.56H28.3037H27.3037V49.376H28.3037ZM28.3037 48.56V49.56H30.8557V48.56V47.56H28.3037V48.56ZM30.8557 48.56H31.8557V48.32H30.8557H29.8557V48.56H30.8557ZM30.8557 48.32V47.32H28.2957V48.32V49.32H30.8557V48.32ZM28.2957 48.32H29.2957V48.024H28.2957H27.2957V48.32H28.2957ZM28.2957 48.024V49.024H29.5757V48.024V47.024H28.2957V48.024ZM29.5757 48.024H30.5757V47.716H29.5757H28.5757V48.024H29.5757ZM29.5757 47.716V46.716H28.0677V47.716V48.716H29.5757V47.716ZM28.0677 47.716H29.0677V47.408H28.0677H27.0677V47.716H28.0677ZM28.0677 47.408V48.408H31.4797V47.408V46.408H28.0677V47.408ZM31.4797 47.408H30.4797V47.716H31.4797H32.4797V47.408H31.4797ZM31.9153 47.752H30.9153V48.752H31.9153V47.752ZM31.9153 47.444V46.444H30.9153V47.444H31.9153ZM35.3273 47.444H36.3273V46.444H35.3273V47.444ZM35.3273 47.752V48.752H36.3273V47.752H35.3273ZM32.1513 49.376H31.1513V50.376H32.1513V49.376ZM32.1513 48.56V47.56H31.1513V48.56H32.1513ZM34.7033 48.56V49.56H35.7033V48.56H34.7033ZM34.7033 48.32H35.7033V47.32H34.7033V48.32ZM32.1433 48.32H31.1433V49.32H32.1433V48.32ZM32.1433 48.024V47.024H31.1433V48.024H32.1433ZM35.0913 48.024H36.0913V47.024H35.0913V48.024ZM35.0913 48.84V49.84H36.0913V48.84H35.0913ZM32.5393 48.84V47.84H31.5393V48.84H32.5393ZM32.5393 49.08H31.5393V50.08H32.5393V49.08ZM35.1513 49.08H36.1513V48.08H35.1513V49.08ZM35.1513 49.376V50.376H36.1513V49.376H35.1513ZM33.6193 47.232V46.232C33.4455 46.232 33.2922 46.223 33.1639 46.2067C33.0324 46.1899 32.9479 46.1679 32.9023 46.1513C32.8503 46.1324 32.8941 46.1372 32.9611 46.2074C32.9984 46.2464 33.041 46.3041 33.0731 46.3812C33.1057 46.4595 33.1193 46.5382 33.1193 46.608H32.1193H31.1193C31.1193 47.4752 31.8068 47.8809 32.2183 48.0307C32.6523 48.1886 33.1638 48.232 33.6193 48.232V47.232ZM32.1193 46.608H33.1193C33.1193 46.6795 33.1052 46.7596 33.072 46.8388C33.0393 46.9166 32.9961 46.9746 32.9587 47.0135C32.8916 47.0833 32.8481 47.0879 32.9008 47.0687C32.9469 47.0521 33.0318 47.0301 33.1636 47.0133C33.2921 46.997 33.4455 46.988 33.6193 46.988V45.988V44.988C33.1636 44.988 32.6529 45.0314 32.2198 45.1883C31.8128 45.3357 31.1193 45.7386 31.1193 46.608H32.1193ZM33.6193 45.988V46.988C33.7931 46.988 33.9466 46.997 34.0751 47.0133C34.2068 47.0301 34.2918 47.0521 34.3378 47.0687C34.3906 47.0879 34.3471 47.0833 34.2799 47.0135C34.2425 46.9746 34.1994 46.9166 34.1666 46.8388C34.1334 46.7596 34.1193 46.6795 34.1193 46.608H35.1193H36.1193C36.1193 45.7386 35.4258 45.3357 35.0188 45.1883C34.5857 45.0314 34.0751 44.988 33.6193 44.988V45.988ZM35.1193 46.608H34.1193C34.1193 46.5382 34.1329 46.4595 34.1656 46.3812C34.1977 46.3041 34.2402 46.2464 34.2775 46.2074C34.3445 46.1372 34.3883 46.1324 34.3363 46.1513C34.2907 46.1679 34.2062 46.1899 34.0747 46.2067C33.9464 46.223 33.7931 46.232 33.6193 46.232V47.232V48.232C34.0748 48.232 34.5863 48.1886 35.0203 48.0307C35.4319 47.8809 36.1193 47.4752 36.1193 46.608H35.1193ZM33.6193 46.928V47.928C33.9508 47.928 34.3214 47.9041 34.6399 47.8215C34.7931 47.7817 35.0118 47.7094 35.2136 47.5623C35.4321 47.403 35.7113 47.0868 35.7113 46.608H34.7113H33.7113C33.7113 46.4448 33.7584 46.2933 33.8333 46.1695C33.9034 46.0536 33.9846 45.9832 34.0354 45.9461C34.1256 45.8804 34.183 45.8738 34.1377 45.8855C34.0592 45.9059 33.8838 45.928 33.6193 45.928V46.928ZM34.7113 46.608H35.7113C35.7113 46.1244 35.4257 45.8094 35.2118 45.6541C35.0118 45.509 34.795 45.4367 34.6422 45.3966C34.3241 45.3133 33.9537 45.288 33.6193 45.288V46.288V47.288C33.8809 47.288 34.0565 47.3107 34.1354 47.3314C34.1811 47.3433 34.1256 47.337 34.0372 47.2729C33.9875 47.2368 33.9064 47.1672 33.8359 47.0519C33.7604 46.9286 33.7113 46.7753 33.7113 46.608H34.7113ZM33.6193 46.288V45.288C33.2849 45.288 32.9145 45.3133 32.5964 45.3966C32.4436 45.4367 32.2269 45.509 32.0268 45.6541C31.8129 45.8094 31.5273 46.1244 31.5273 46.608H32.5273H33.5273C33.5273 46.7753 33.4782 46.9286 33.4027 47.0519C33.3322 47.1672 33.2511 47.2368 33.2014 47.2729C33.113 47.337 33.0575 47.3433 33.1032 47.3314C33.1821 47.3107 33.3577 47.288 33.6193 47.288V46.288ZM32.5273 46.608H31.5273C31.5273 47.0868 31.8065 47.403 32.025 47.5623C32.2268 47.7094 32.4455 47.7817 32.5987 47.8215C32.9172 47.9041 33.2878 47.928 33.6193 47.928V46.928V45.928C33.3548 45.928 33.1794 45.9059 33.1009 45.8855C33.0556 45.8738 33.1131 45.8804 33.2032 45.9461C33.254 45.9832 33.3352 46.0536 33.4053 46.1695C33.4802 46.2933 33.5273 46.4448 33.5273 46.608H32.5273ZM31.9153 47.752H32.9153V47.444H31.9153H30.9153V47.752H31.9153ZM31.9153 47.444V48.444H35.3273V47.444V46.444H31.9153V47.444ZM35.3273 47.444H34.3273V47.752H35.3273H36.3273V47.444H35.3273ZM35.3273 47.752V46.752H31.9153V47.752V48.752H35.3273V47.752ZM32.1513 49.376H33.1513V48.56H32.1513H31.1513V49.376H32.1513ZM32.1513 48.56V49.56H34.7033V48.56V47.56H32.1513V48.56ZM34.7033 48.56H35.7033V48.32H34.7033H33.7033V48.56H34.7033ZM34.7033 48.32V47.32H32.1433V48.32V49.32H34.7033V48.32ZM32.1433 48.32H33.1433V48.024H32.1433H31.1433V48.32H32.1433ZM32.1433 48.024V49.024H35.0913V48.024V47.024H32.1433V48.024ZM35.0913 48.024H34.0913V48.84H35.0913H36.0913V48.024H35.0913ZM35.0913 48.84V47.84H32.5393V48.84V49.84H35.0913V48.84ZM32.5393 48.84H31.5393V49.08H32.5393H33.5393V48.84H32.5393ZM32.5393 49.08V50.08H35.1513V49.08V48.08H32.5393V49.08ZM35.1513 49.08H34.1513V49.376H35.1513H36.1513V49.08H35.1513ZM35.1513 49.376V48.376H32.1513V49.376V50.376H35.1513V49.376ZM40.0961 47.008H41.0961V46.008H40.0961V47.008ZM40.0961 47.32V48.32H41.0961V47.32H40.0961ZM37.0801 47.32H36.0801V48.32H37.0801V47.32ZM37.0801 47.008V46.008H36.0801V47.008H37.0801ZM37.6841 47.008V48.008H38.6841V47.008H37.6841ZM37.6841 46.352H38.6841V45.352H37.6841V46.352ZM37.1161 46.352H36.1161V47.352H37.1161V46.352ZM37.1161 46.04V45.04H36.1161V46.04H37.1161ZM40.0601 46.04H41.0601V45.04H40.0601V46.04ZM40.0601 46.352V47.352H41.0601V46.352H40.0601ZM39.4921 46.352V45.352H38.4921V46.352H39.4921ZM39.4921 47.008H38.4921V48.008H39.4921V47.008ZM38.0801 46.352V45.352H37.0801V46.352H38.0801ZM38.0801 47.008H37.0801V48.008H38.0801V47.008ZM39.0961 47.008V48.008H40.0961V47.008H39.0961ZM39.0961 46.352H40.0961V45.352H39.0961V46.352ZM40.2961 47.936V48.936H41.2961V47.936H40.2961ZM38.7841 47.936V46.936H37.7841V47.936H38.7841ZM38.7841 48.292H37.7841V49.292H38.7841V48.292ZM40.0561 48.292H41.0561V47.292H40.0561V48.292ZM40.0561 49.376V50.376H41.0561V49.376H40.0561ZM37.1201 49.376H36.1201V50.376H37.1201V49.376ZM37.1201 48.292V47.292H36.1201V48.292H37.1201ZM38.3921 48.292V49.292H39.3921V48.292H38.3921ZM38.3921 47.936H39.3921V46.936H38.3921V47.936ZM36.8841 47.936H35.8841V48.936H36.8841V47.936ZM36.8841 47.62V46.62H35.8841V47.62H36.8841ZM40.2961 47.62H41.2961V46.62H40.2961V47.62ZM39.6641 49.068V50.068H40.6641V49.068H39.6641ZM39.6641 48.596H40.6641V47.596H39.6641V48.596ZM37.5161 48.596V47.596H36.5161V48.596H37.5161ZM37.5161 49.068H36.5161V50.068H37.5161V49.068ZM40.0961 47.008H39.0961V47.32H40.0961H41.0961V47.008H40.0961ZM40.0961 47.32V46.32H37.0801V47.32V48.32H40.0961V47.32ZM37.0801 47.32H38.0801V47.008H37.0801H36.0801V47.32H37.0801ZM37.0801 47.008V48.008H37.6841V47.008V46.008H37.0801V47.008ZM37.6841 47.008H38.6841V46.352H37.6841H36.6841V47.008H37.6841ZM37.6841 46.352V45.352H37.1161V46.352V47.352H37.6841V46.352ZM37.1161 46.352H38.1161V46.04H37.1161H36.1161V46.352H37.1161ZM37.1161 46.04V47.04H40.0601V46.04V45.04H37.1161V46.04ZM40.0601 46.04H39.0601V46.352H40.0601H41.0601V46.04H40.0601ZM40.0601 46.352V45.352H39.4921V46.352V47.352H40.0601V46.352ZM39.4921 46.352H38.4921V47.008H39.4921H40.4921V46.352H39.4921ZM39.4921 47.008V48.008H40.0961V47.008V46.008H39.4921V47.008ZM38.0801 46.352H37.0801V47.008H38.0801H39.0801V46.352H38.0801ZM38.0801 47.008V48.008H39.0961V47.008V46.008H38.0801V47.008ZM39.0961 47.008H40.0961V46.352H39.0961H38.0961V47.008H39.0961ZM39.0961 46.352V45.352H38.0801V46.352V47.352H39.0961V46.352ZM40.2961 47.936V46.936H38.7841V47.936V48.936H40.2961V47.936ZM38.7841 47.936H37.7841V48.292H38.7841H39.7841V47.936H38.7841ZM38.7841 48.292V49.292H40.0561V48.292V47.292H38.7841V48.292ZM40.0561 48.292H39.0561V49.376H40.0561H41.0561V48.292H40.0561ZM40.0561 49.376V48.376H37.1201V49.376V50.376H40.0561V49.376ZM37.1201 49.376H38.1201V48.292H37.1201H36.1201V49.376H37.1201ZM37.1201 48.292V49.292H38.3921V48.292V47.292H37.1201V48.292ZM38.3921 48.292H39.3921V47.936H38.3921H37.3921V48.292H38.3921ZM38.3921 47.936V46.936H36.8841V47.936V48.936H38.3921V47.936ZM36.8841 47.936H37.8841V47.62H36.8841H35.8841V47.936H36.8841ZM36.8841 47.62V48.62H40.2961V47.62V46.62H36.8841V47.62ZM40.2961 47.62H39.2961V47.936H40.2961H41.2961V47.62H40.2961ZM39.6641 49.068H40.6641V48.596H39.6641H38.6641V49.068H39.6641ZM39.6641 48.596V47.596H37.5161V48.596V49.596H39.6641V48.596ZM37.5161 48.596H36.5161V49.068H37.5161H38.5161V48.596H37.5161ZM37.5161 49.068V50.068H39.6641V49.068V48.068H37.5161V49.068ZM40.7317 48.112H39.7317V49.112H40.7317V48.112ZM40.7317 47.776V46.776H39.7317V47.776H40.7317ZM44.1437 47.776H45.1437V46.776H44.1437V47.776ZM44.1437 48.112V49.112H45.1437V48.112H44.1437ZM40.9677 49.376H39.9677V50.376H40.9677V49.376ZM40.9677 48.404V47.404H39.9677V48.404H40.9677ZM41.3717 48.404H42.3717V47.404H41.3717V48.404ZM41.3717 49.036H40.3717V50.036H41.3717V49.036ZM43.9677 49.036H44.9677V48.036H43.9677V49.036ZM43.9677 49.376V50.376H44.9677V49.376H43.9677ZM42.4357 47.472V46.472C42.2754 46.472 42.1334 46.4603 42.0154 46.4404C41.8949 46.4201 41.8174 46.3944 41.7763 46.376C41.732 46.3561 41.763 46.3599 41.8118 46.4191C41.8729 46.4933 41.9197 46.6051 41.9197 46.724H40.9197H39.9197C39.9197 47.5377 40.5038 47.9973 40.9582 48.201C41.4115 48.4042 41.9469 48.472 42.4357 48.472V47.472ZM40.9197 46.724H41.9197C41.9197 46.846 41.8715 46.9592 41.8099 47.0335C41.7609 47.0926 41.73 47.0962 41.7749 47.0761C41.8164 47.0576 41.8943 47.0318 42.0151 47.0116C42.1333 46.9917 42.2754 46.98 42.4357 46.98V45.98V44.98C41.9468 44.98 41.4121 45.0478 40.9595 45.2499C40.5083 45.4513 39.9197 45.9088 39.9197 46.724H40.9197ZM42.4357 45.98V46.98C42.5961 46.98 42.7382 46.9917 42.8563 47.0116C42.9771 47.0318 43.055 47.0576 43.0965 47.0761C43.1414 47.0962 43.1105 47.0926 43.0615 47.0335C43 46.9592 42.9517 46.846 42.9517 46.724H43.9517H44.9517C44.9517 45.9088 44.3631 45.4513 43.9119 45.2499C43.4594 45.0478 42.9247 44.98 42.4357 44.98V45.98ZM43.9517 46.724H42.9517C42.9517 46.6051 42.9985 46.4933 43.0597 46.4191C43.1084 46.3599 43.1395 46.3561 43.0952 46.376C43.0541 46.3944 42.9766 46.4201 42.856 46.4404C42.7381 46.4603 42.5961 46.472 42.4357 46.472V47.472V48.472C42.9245 48.472 43.46 48.4042 43.9133 48.201C44.3677 47.9973 44.9517 47.5377 44.9517 46.724H43.9517ZM42.4357 47.152V48.152C42.7983 48.152 43.1988 48.1092 43.5467 47.9836C43.7946 47.8942 44.5317 47.5628 44.5317 46.724H43.5317H42.5317C42.5317 46.6047 42.5595 46.4899 42.6079 46.3893C42.6545 46.2923 42.7122 46.2251 42.7564 46.1832C42.8365 46.1072 42.8949 46.0926 42.8677 46.1024C42.8166 46.1208 42.6692 46.152 42.4357 46.152V47.152ZM43.5317 46.724H44.5317C44.5317 46.3174 44.3366 46.0071 44.1283 45.8119C43.9359 45.6314 43.7161 45.5286 43.5446 45.4671C43.198 45.3429 42.7986 45.3 42.4357 45.3V46.3V47.3C42.6689 47.3 42.8174 47.3311 42.8698 47.3499C42.8979 47.3599 42.8403 47.3458 42.7603 47.2708C42.7161 47.2293 42.6576 47.1621 42.61 47.0644C42.5606 46.9629 42.5317 46.8461 42.5317 46.724H43.5317ZM42.4357 46.3V45.3C42.0729 45.3 41.6734 45.3429 41.3268 45.4671C41.1554 45.5286 40.9355 45.6314 40.7431 45.8119C40.5349 46.0071 40.3397 46.3174 40.3397 46.724H41.3397H42.3397C42.3397 46.8461 42.3108 46.9629 42.2614 47.0644C42.2138 47.1621 42.1554 47.2293 42.1112 47.2708C42.0312 47.3458 41.9736 47.3599 42.0016 47.3499C42.054 47.3311 42.2026 47.3 42.4357 47.3V46.3ZM41.3397 46.724H40.3397C40.3397 47.5628 41.0769 47.8942 41.3247 47.9836C41.6726 48.1092 42.0732 48.152 42.4357 48.152V47.152V46.152C42.2023 46.152 42.0548 46.1208 42.0037 46.1024C41.9766 46.0926 42.0349 46.1072 42.115 46.1832C42.1593 46.2251 42.2169 46.2923 42.2635 46.3893C42.3119 46.4899 42.3397 46.6047 42.3397 46.724H41.3397ZM40.7317 48.112H41.7317V47.776H40.7317H39.7317V48.112H40.7317ZM40.7317 47.776V48.776H44.1437V47.776V46.776H40.7317V47.776ZM44.1437 47.776H43.1437V48.112H44.1437H45.1437V47.776H44.1437ZM44.1437 48.112V47.112H40.7317V48.112V49.112H44.1437V48.112ZM40.9677 49.376H41.9677V48.404H40.9677H39.9677V49.376H40.9677ZM40.9677 48.404V49.404H41.3717V48.404V47.404H40.9677V48.404ZM41.3717 48.404H40.3717V49.036H41.3717H42.3717V48.404H41.3717ZM41.3717 49.036V50.036H43.9677V49.036V48.036H41.3717V49.036ZM43.9677 49.036H42.9677V49.376H43.9677H44.9677V49.036H43.9677ZM43.9677 49.376V48.376H40.9677V49.376V50.376H43.9677V49.376Z" fill="white" mask="url(#path-26-outside-2_1_2)"/>
</g>
<rect x="9.1" y="9.1" width="49.8" height="49.8" rx="24.9" stroke="#1D2068" stroke-width="0.2"/>
</g>
<defs>
<filter id="filter0_d_1_2" x="0" y="0" width="68" height="68" filterUnits="userSpaceOnUse" color-interpolation-filters="sRGB">
<feFlood flood-opacity="0" result="BackgroundImageFix"/>
<feColorMatrix in="SourceAlpha" type="matrix" values="0 0 0 0 0 0 0 0 0 0 0 0 0 0 0 0 0 0 127 0" result="hardAlpha"/>
<feOffset/>
<feGaussianBlur stdDeviation="2"/>
<feComposite in2="hardAlpha" operator="out"/>
<feColorMatrix type="matrix" values="0 0 0 0 0.229671 0 0 0 0 0.229671 0 0 0 0 0.229671 0 0 0 0.2 0"/>
<feBlend mode="normal" in2="BackgroundImageFix" result="effect1_dropShadow_1_2"/>
<feBlend mode="normal" in="SourceGraphic" in2="effect1_dropShadow_1_2" result="shape"/>
</filter>
<clipPath id="clip0_1_2">
<rect x="9" y="9" width="50" height="50" rx="25" fill="white"/>
</clipPath>
</defs>
</svg>
