<svg width="68" height="68" viewBox="0 0 68 68" fill="none" xmlns="http://www.w3.org/2000/svg">
<g filter="url(#filter0_d_11_660)">
<rect x="4" y="4" width="60" height="60" rx="30" fill="white" shape-rendering="crispEdges"/>
<rect x="7.5" y="7.5" width="53" height="53" rx="26.5" fill="white"/>
<rect x="7.5" y="7.5" width="53" height="53" rx="26.5" stroke="#2E5E4E" stroke-width="2"/>
<rect x="9.1" y="9.1" width="49.8" height="49.8" rx="24.9" fill="white"/>
<rect x="9.1" y="9.1" width="49.8" height="49.8" rx="24.9" stroke="#2E5E4E" stroke-width="0.2"/>
<path d="M11.8 35.2638V34.6818H16V35.2638H11.8ZM13.54 33.7938C13.54 33.9338 13.564 34.0598 13.612 34.1718C13.66 34.2798 13.728 34.3718 13.816 34.4478C13.904 34.5238 14.008 34.5818 14.128 34.6218C14.248 34.6618 14.378 34.6818 14.518 34.6818H16V35.2638H14.53C14.302 35.2638 14.092 35.2298 13.9 35.1618C13.704 35.0938 13.536 34.9978 13.396 34.8738C13.252 34.7458 13.14 34.5918 13.06 34.4118C12.98 34.2278 12.94 34.0218 12.94 33.7938C12.94 33.5658 12.98 33.3678 13.06 33.1998C13.14 33.0278 13.252 32.8818 13.396 32.7618C13.536 32.6418 13.704 32.5458 13.9 32.4738C14.092 32.4018 14.302 32.3518 14.53 32.3238L16 32.1438V32.7318L14.518 32.9178C14.378 32.9338 14.248 32.9638 14.128 33.0078C14.008 33.0478 13.906 33.1038 13.822 33.1758C13.734 33.2438 13.666 33.3298 13.618 33.4338C13.566 33.5338 13.54 33.6538 13.54 33.7938Z" fill="#2E5E4E"/>
<path d="M13.4745 29.0343L13.6137 28.4692L16.5266 29.1872L16.3873 29.7523L13.4745 29.0343ZM12.5557 28.8758C12.4508 28.85 12.375 28.7983 12.3282 28.7209C12.2784 28.6386 12.2664 28.545 12.2923 28.4401C12.3172 28.3392 12.3703 28.2657 12.4516 28.2199C12.5301 28.1692 12.6217 28.1567 12.7266 28.1826C12.8314 28.2084 12.9087 28.2625 12.9585 28.3448C13.0053 28.4222 13.0163 28.5115 12.9914 28.6124C12.9655 28.7173 12.9134 28.7951 12.835 28.8458C12.7536 28.8917 12.6605 28.9017 12.5557 28.8758Z" fill="#2E5E4E"/>
<path d="M16.3038 24.5709C16.4283 24.3336 16.4841 24.137 16.471 23.9811C16.4599 23.8216 16.359 23.6738 16.1684 23.5377L15.6653 23.1923L15.9358 22.6769L16.4283 23.0167C16.6507 23.1696 16.8052 23.3185 16.8918 23.4633C16.9768 23.6028 17.0051 23.7554 16.9768 23.9212C17.088 23.8125 17.2341 23.7536 17.415 23.7447C17.5959 23.7357 17.8018 23.7738 18.0327 23.8588L18.5921 24.0711L18.3217 24.5864L17.7516 24.3686C17.5296 24.2837 17.3499 24.2819 17.2123 24.3633C17.0747 24.4447 16.9436 24.6041 16.8191 24.8414L16.5291 25.3939L17.6023 25.9571L17.3318 26.4725L13.6129 24.5206L13.8834 24.0053L16.0138 25.1234L16.3038 24.5709Z" fill="#2E5E4E"/>
<path d="M19.3553 19.5543C19.2217 19.5482 19.0916 19.5745 18.9648 19.6332C18.8376 19.6862 18.7237 19.7696 18.6229 19.8834C18.4584 20.069 18.3742 20.2697 18.3703 20.4852C18.3663 20.7008 18.4351 20.9007 18.5765 21.0848L19.3553 19.5543ZM18.3493 21.6851C18.1787 21.5339 18.0453 21.3677 17.9494 21.1865C17.8531 20.9997 17.7963 20.8104 17.779 20.6188C17.7614 20.4215 17.785 20.2259 17.8498 20.0322C17.9146 19.8384 18.0226 19.6562 18.1738 19.4855C18.3011 19.3418 18.4416 19.2285 18.5952 19.1455C18.7459 19.0599 18.9026 19.0037 19.0653 18.9768C19.2251 18.9473 19.3867 18.9489 19.5502 18.9815C19.7163 19.0111 19.877 19.068 20.0323 19.1521L20.1625 19.2675L19.0355 21.4353C19.2127 21.5068 19.3906 21.5201 19.5692 21.4753C19.7505 21.4275 19.9141 21.3213 20.06 21.1566C20.1979 21.0009 20.2784 20.8317 20.3013 20.649C20.3243 20.4662 20.2939 20.2924 20.2103 20.1274L20.6161 19.6693C20.7183 19.8133 20.7942 19.966 20.8436 20.1274C20.8957 20.2857 20.9182 20.4473 20.9112 20.6121C20.9011 20.7742 20.8642 20.9365 20.8004 21.0991C20.7335 21.259 20.6364 21.4108 20.5091 21.5545C20.3579 21.7251 20.1916 21.8556 20.01 21.946C19.8285 22.0363 19.6432 22.0886 19.4542 22.1028C19.2649 22.1115 19.0746 22.0819 18.8835 22.0141C18.6951 21.9433 18.517 21.8337 18.3493 21.6851Z" fill="#2E5E4E"/>
<path d="M22.9292 16.0883C22.6757 16.2633 22.5227 16.4782 22.4702 16.7331C22.4188 16.9825 22.4771 17.229 22.6453 17.4726L23.4871 18.6923L23.0082 19.0229L22.1731 17.8131C22.0436 17.6255 21.9539 17.4322 21.9041 17.2333C21.8553 17.0288 21.8455 16.8314 21.8746 16.6412C21.9047 16.4455 21.9744 16.2613 22.0837 16.0886C22.193 15.916 22.3414 15.7649 22.5291 15.6354C22.6706 15.5377 22.8159 15.4666 22.965 15.422L23.299 15.9059C23.235 15.9258 23.1711 15.9529 23.1073 15.9872C23.0445 16.016 22.9851 16.0497 22.9292 16.0883Z" fill="#2E5E4E"/>
<path d="M25.8362 13.0207C25.7908 12.901 25.789 12.7947 25.8308 12.7019C25.8749 12.6039 25.953 12.5336 26.0652 12.491C26.1812 12.4471 26.2863 12.4479 26.3805 12.4934C26.4771 12.5338 26.5481 12.6138 26.5935 12.7335C26.6432 12.8644 26.6526 13.002 26.6217 13.1463L26.5432 13.5483L26.1561 13.6951L26.2381 13.2853C26.1567 13.3077 26.079 13.2944 26.0048 13.2455C25.9293 13.1929 25.873 13.1179 25.8362 13.0207Z" fill="#2E5E4E"/>
<path d="M31.9179 15.3078C31.4414 15.3657 31.0561 15.3118 30.762 15.146C30.4713 14.9758 30.2895 14.7057 30.2164 14.3359L30.8239 14.2621C30.8674 14.4543 30.9723 14.5886 31.1388 14.6651C31.3087 14.7371 31.5584 14.7531 31.888 14.7131C32.1421 14.6823 32.3353 14.6306 32.4676 14.5581C32.5993 14.4817 32.6582 14.3859 32.6442 14.2707C32.6167 14.0444 32.293 13.9669 31.6731 14.0381C31.1762 14.0944 30.7988 14.0717 30.5406 13.9701C30.2825 13.8685 30.1363 13.6767 30.1021 13.3948C30.0838 13.2439 30.1009 13.1028 30.1534 12.9715C30.21 12.8397 30.2945 12.7227 30.407 12.6204C30.5234 12.5176 30.6683 12.4335 30.8417 12.3681C31.0146 12.2988 31.2103 12.2509 31.4287 12.2243C31.8933 12.1679 32.2689 12.2251 32.5556 12.3958C32.8462 12.566 33.0298 12.8338 33.1064 13.1992L32.4929 13.2737C32.4499 13.0855 32.3455 12.9552 32.1795 12.8826C32.017 12.8057 31.7849 12.7855 31.4831 12.8221C31.2171 12.8544 31.013 12.9155 30.8707 13.0053C30.728 13.0911 30.6644 13.1976 30.6798 13.3246C30.6933 13.4358 30.7705 13.507 30.9113 13.5383C31.0516 13.5656 31.2831 13.5637 31.6057 13.5325C32.1467 13.4749 32.542 13.4954 32.7917 13.594C33.0449 13.6882 33.1884 13.8743 33.2221 14.1522C33.2602 14.4659 33.1626 14.7236 32.9292 14.9252C32.6958 15.1268 32.3587 15.2543 31.9179 15.3078Z" fill="#2E5E4E"/>
<path d="M40.7734 16.2274C40.5602 16.1465 40.3785 16.0391 40.2282 15.9051C40.0794 15.7674 39.9648 15.6127 39.8844 15.4411C39.8093 15.2671 39.7695 15.0787 39.7651 14.876C39.7644 14.6747 39.8045 14.4674 39.8854 14.2543C39.9662 14.0411 40.0743 13.8575 40.2097 13.7035C40.3503 13.5472 40.5071 13.427 40.6802 13.3429C40.8584 13.2565 41.0496 13.2092 41.2537 13.2011C41.4579 13.1929 41.6666 13.2293 41.8798 13.3101C42.0929 13.391 42.2732 13.5021 42.4206 13.6436C42.5681 13.7851 42.6779 13.9465 42.7503 14.128C42.8278 14.3071 42.8655 14.5011 42.8633 14.7099C42.8663 14.9163 42.8274 15.1262 42.7465 15.3394C42.6657 15.5525 42.5564 15.7335 42.4186 15.8824C42.2847 16.0326 42.13 16.1472 41.9546 16.2262C41.7843 16.3028 41.5979 16.3433 41.3951 16.3477C41.1938 16.3483 40.9866 16.3082 40.7734 16.2274ZM40.9861 15.6664C41.2517 15.7671 41.4954 15.7675 41.7172 15.6677C41.939 15.5679 42.1003 15.3852 42.201 15.1196C42.2506 14.9887 42.2743 14.8587 42.2719 14.7294C42.2734 14.6016 42.2504 14.4817 42.2031 14.3696C42.1595 14.259 42.0919 14.1606 42.0005 14.0746C41.9091 13.9886 41.7979 13.9208 41.667 13.8711C41.5361 13.8215 41.4079 13.7985 41.2824 13.8023C41.1569 13.806 41.0393 13.8342 40.9296 13.8867C40.8198 13.9391 40.7212 14.013 40.6338 14.1082C40.5501 14.2048 40.4834 14.3185 40.4338 14.4494C40.3331 14.715 40.3326 14.9586 40.4325 15.1805C40.536 15.4037 40.7206 15.5657 40.9861 15.6664Z" fill="#2E5E4E"/>
<path d="M46.1729 16.1588C46.0577 16.0793 45.9404 16.0275 45.8209 16.0033C45.7048 15.9815 45.5904 15.9852 45.4779 16.0144C45.3654 16.0437 45.2585 16.0963 45.1575 16.1724C45.0564 16.2484 44.9661 16.344 44.8865 16.4592L44.0447 17.6789L43.5657 17.3483L44.4007 16.1385C44.5303 15.9509 44.6775 15.7974 44.8426 15.678C45.0099 15.5553 45.1843 15.4716 45.3659 15.4268C45.553 15.381 45.7434 15.3763 45.937 15.4127C46.1338 15.4514 46.3261 15.5355 46.5137 15.665C46.7014 15.7945 46.8416 15.9399 46.9344 16.1012C47.0305 16.2648 47.0871 16.4399 47.104 16.6265C47.1233 16.8099 47.1068 17.0027 47.0547 17.2049C47.0049 17.4038 46.9268 17.6051 46.8203 17.8086L46.1334 19.1207L45.6495 18.7866L46.3383 17.4613C46.4046 17.337 46.4538 17.213 46.4858 17.0892C46.521 16.9677 46.5329 16.852 46.5213 16.742C46.5153 16.6309 46.4832 16.5261 46.4249 16.4275C46.3721 16.3279 46.2881 16.2383 46.1729 16.1588Z" fill="#2E5E4E"/>
<path d="M51.5798 25.0258L51.0538 25.3019C50.7337 24.8555 50.6001 24.4761 50.653 24.1638C50.7078 23.855 50.9512 23.5871 51.3833 23.3604L54.045 21.9634L54.3155 22.4787L51.6431 23.8813C51.5227 23.9445 51.4355 24.0151 51.3816 24.0931C51.3277 24.1711 51.3008 24.2575 51.3008 24.3523C51.3009 24.4471 51.3253 24.5495 51.374 24.6595C51.4245 24.773 51.4931 24.8951 51.5798 25.0258ZM53.6368 23.5871L53.0959 22.5564L53.5775 22.2088L54.1574 23.3138L53.6368 23.5871Z" fill="#2E5E4E"/>
<path d="M52.3362 28.8811C52.2816 28.6597 52.2668 28.4492 52.2917 28.2494C52.3205 28.0487 52.3827 27.8665 52.4784 27.7028C52.5788 27.5421 52.7112 27.4024 52.8756 27.2836C53.0409 27.1687 53.2342 27.084 53.4556 27.0294C53.677 26.9748 53.8895 26.9595 54.0931 26.9835C54.3016 27.0104 54.4896 27.0712 54.6571 27.1658C54.8295 27.2634 54.977 27.3939 55.0997 27.5573C55.2224 27.7207 55.311 27.9131 55.3655 28.1344C55.4201 28.3558 55.431 28.5673 55.3984 28.769C55.3657 28.9707 55.2952 29.1529 55.187 29.3155C55.0836 29.481 54.9454 29.6222 54.7723 29.739C54.6041 29.8588 54.4093 29.9459 54.1879 30.0005C53.9665 30.0551 53.7555 30.0679 53.5547 30.0391C53.355 30.0142 53.1728 29.952 53.0082 29.8525C52.8484 29.7559 52.7092 29.6255 52.5904 29.4611C52.4755 29.2958 52.3908 29.1025 52.3362 28.8811ZM52.9188 28.7375C52.9867 29.0133 53.1248 29.2141 53.333 29.3399C53.5411 29.4657 53.7831 29.4947 54.0588 29.4267C54.1948 29.3932 54.3152 29.3388 54.4203 29.2635C54.5262 29.192 54.6119 29.105 54.6773 29.0024C54.7435 28.9036 54.7861 28.7922 54.805 28.6681C54.8238 28.544 54.8165 28.414 54.783 28.278C54.7495 28.1421 54.6955 28.0236 54.6212 27.9224C54.5468 27.8213 54.4568 27.7405 54.3513 27.68C54.2458 27.6195 54.129 27.5803 54.001 27.5624C53.8739 27.5484 53.7425 27.5581 53.6065 27.5916C53.3308 27.6596 53.13 27.7977 53.0041 28.0058C52.8793 28.2179 52.8508 28.4618 52.9188 28.7375Z" fill="#2E5E4E"/>
<path d="M56.06 33.3998C56.06 33.6278 56.022 33.8358 55.946 34.0238C55.874 34.2118 55.77 34.3718 55.634 34.5038C55.502 34.6398 55.342 34.7438 55.154 34.8158C54.966 34.8918 54.758 34.9298 54.53 34.9298C54.302 34.9298 54.09 34.8918 53.894 34.8158C53.702 34.7438 53.534 34.6398 53.39 34.5038C53.25 34.3718 53.14 34.2118 53.06 34.0238C52.98 33.8358 52.94 33.6278 52.94 33.3998C52.94 33.1718 52.98 32.9638 53.06 32.7758C53.14 32.5878 53.25 32.4258 53.39 32.2898C53.534 32.1578 53.702 32.0538 53.894 31.9778C54.09 31.9058 54.302 31.8698 54.53 31.8698C54.758 31.8698 54.966 31.9058 55.154 31.9778C55.342 32.0538 55.502 32.1578 55.634 32.2898C55.77 32.4258 55.874 32.5878 55.946 32.7758C56.022 32.9638 56.06 33.1718 56.06 33.3998ZM51.8 32.4578V31.8698H56V32.4578H51.8ZM55.46 33.3998C55.46 33.1158 55.374 32.8878 55.202 32.7158C55.03 32.5438 54.802 32.4578 54.518 32.4578C54.378 32.4578 54.248 32.4798 54.128 32.5238C54.008 32.5718 53.904 32.6358 53.816 32.7158C53.732 32.7998 53.664 32.8998 53.612 33.0158C53.564 33.1318 53.54 33.2598 53.54 33.3998C53.54 33.5398 53.564 33.6678 53.612 33.7838C53.664 33.8998 53.732 33.9978 53.816 34.0778C53.904 34.1618 54.008 34.2258 54.128 34.2698C54.248 34.3178 54.378 34.3418 54.518 34.3418C54.802 34.3418 55.03 34.2558 55.202 34.0838C55.374 33.9118 55.46 33.6838 55.46 33.3998Z" fill="#2E5E4E"/>
<mask id="path-16-outside-1_11_660" maskUnits="userSpaceOnUse" x="24" y="49" width="20" height="8" fill="black">
<rect fill="white" x="24" y="49" width="20" height="8"/>
<path d="M30.106 51.232H30.706V52.156H30.106V53.068H29.092V50.5H30.106V51.232ZM28.852 52.78C28.588 52.894 28.036 52.96 27.55 52.96H25.3V52.192H25.762V51.334H25.336V50.56H28.69V51.334H28.264V52.156C28.498 52.132 28.702 52.084 28.852 52.024V52.78ZM26.716 51.334V52.192H27.31V51.334H26.716ZM26.59 54.736V54.934H30.16V55.624H25.588V54.136H29.104V53.938H25.576V53.248H30.106V54.736H26.59ZM34.9055 52.222V51.322H31.3655V50.5H35.9255V52.222H34.9055ZM33.7775 52.462H36.2495V53.272H31.0655V52.462H32.7575V51.7H33.7775V52.462ZM33.6575 53.536C35.0375 53.536 35.9975 53.836 35.9975 54.61C35.9975 55.384 35.0375 55.684 33.6575 55.684C32.2775 55.684 31.3175 55.384 31.3175 54.61C31.3175 53.836 32.2775 53.536 33.6575 53.536ZM33.6575 54.916C34.4015 54.916 34.9175 54.82 34.9175 54.61C34.9175 54.406 34.4015 54.304 33.6575 54.304C32.9135 54.304 32.3975 54.406 32.3975 54.61C32.3975 54.82 32.9135 54.916 33.6575 54.916ZM41.649 51.466H42.249V52.45H41.649V54.292H40.635V50.5H41.649V51.466ZM38.625 52.534C38.199 53.146 37.575 53.56 36.837 53.596V52.654C37.647 52.558 38.181 51.652 38.199 50.524L39.219 50.584C39.219 50.98 39.153 51.37 39.027 51.73L40.485 52.816L39.879 53.524L38.625 52.534ZM38.157 53.83V54.712H41.721V55.624H37.125V53.83H38.157Z"/>
</mask>
<path d="M30.106 51.232H30.706V52.156H30.106V53.068H29.092V50.5H30.106V51.232ZM28.852 52.78C28.588 52.894 28.036 52.96 27.55 52.96H25.3V52.192H25.762V51.334H25.336V50.56H28.69V51.334H28.264V52.156C28.498 52.132 28.702 52.084 28.852 52.024V52.78ZM26.716 51.334V52.192H27.31V51.334H26.716ZM26.59 54.736V54.934H30.16V55.624H25.588V54.136H29.104V53.938H25.576V53.248H30.106V54.736H26.59ZM34.9055 52.222V51.322H31.3655V50.5H35.9255V52.222H34.9055ZM33.7775 52.462H36.2495V53.272H31.0655V52.462H32.7575V51.7H33.7775V52.462ZM33.6575 53.536C35.0375 53.536 35.9975 53.836 35.9975 54.61C35.9975 55.384 35.0375 55.684 33.6575 55.684C32.2775 55.684 31.3175 55.384 31.3175 54.61C31.3175 53.836 32.2775 53.536 33.6575 53.536ZM33.6575 54.916C34.4015 54.916 34.9175 54.82 34.9175 54.61C34.9175 54.406 34.4015 54.304 33.6575 54.304C32.9135 54.304 32.3975 54.406 32.3975 54.61C32.3975 54.82 32.9135 54.916 33.6575 54.916ZM41.649 51.466H42.249V52.45H41.649V54.292H40.635V50.5H41.649V51.466ZM38.625 52.534C38.199 53.146 37.575 53.56 36.837 53.596V52.654C37.647 52.558 38.181 51.652 38.199 50.524L39.219 50.584C39.219 50.98 39.153 51.37 39.027 51.73L40.485 52.816L39.879 53.524L38.625 52.534ZM38.157 53.83V54.712H41.721V55.624H37.125V53.83H38.157Z" fill="#2E5E4E"/>
<path d="M30.106 51.232H29.106V52.232H30.106V51.232ZM30.706 51.232H31.706V50.232H30.706V51.232ZM30.706 52.156V53.156H31.706V52.156H30.706ZM30.106 52.156V51.156H29.106V52.156H30.106ZM30.106 53.068V54.068H31.106V53.068H30.106ZM29.092 53.068H28.092V54.068H29.092V53.068ZM29.092 50.5V49.5H28.092V50.5H29.092ZM30.106 50.5H31.106V49.5H30.106V50.5ZM28.852 52.78L29.2484 53.6981L29.852 53.4374V52.78H28.852ZM25.3 52.96H24.3V53.96H25.3V52.96ZM25.3 52.192V51.192H24.3V52.192H25.3ZM25.762 52.192V53.192H26.762V52.192H25.762ZM25.762 51.334H26.762V50.334H25.762V51.334ZM25.336 51.334H24.336V52.334H25.336V51.334ZM25.336 50.56V49.56H24.336V50.56H25.336ZM28.69 50.56H29.69V49.56H28.69V50.56ZM28.69 51.334V52.334H29.69V51.334H28.69ZM28.264 51.334V50.334H27.264V51.334H28.264ZM28.264 52.156H27.264V53.2638L28.366 53.1508L28.264 52.156ZM28.852 52.024H29.852V50.547L28.4806 51.0955L28.852 52.024ZM26.716 51.334V50.334H25.716V51.334H26.716ZM26.716 52.192H25.716V53.192H26.716V52.192ZM27.31 52.192V53.192H28.31V52.192H27.31ZM27.31 51.334H28.31V50.334H27.31V51.334ZM26.59 54.736V53.736H25.59V54.736H26.59ZM26.59 54.934H25.59V55.934H26.59V54.934ZM30.16 54.934H31.16V53.934H30.16V54.934ZM30.16 55.624V56.624H31.16V55.624H30.16ZM25.588 55.624H24.588V56.624H25.588V55.624ZM25.588 54.136V53.136H24.588V54.136H25.588ZM29.104 54.136V55.136H30.104V54.136H29.104ZM29.104 53.938H30.104V52.938H29.104V53.938ZM25.576 53.938H24.576V54.938H25.576V53.938ZM25.576 53.248V52.248H24.576V53.248H25.576ZM30.106 53.248H31.106V52.248H30.106V53.248ZM30.106 54.736V55.736H31.106V54.736H30.106ZM30.106 51.232V52.232H30.706V51.232V50.232H30.106V51.232ZM30.706 51.232H29.706V52.156H30.706H31.706V51.232H30.706ZM30.706 52.156V51.156H30.106V52.156V53.156H30.706V52.156ZM30.106 52.156H29.106V53.068H30.106H31.106V52.156H30.106ZM30.106 53.068V52.068H29.092V53.068V54.068H30.106V53.068ZM29.092 53.068H30.092V50.5H29.092H28.092V53.068H29.092ZM29.092 50.5V51.5H30.106V50.5V49.5H29.092V50.5ZM30.106 50.5H29.106V51.232H30.106H31.106V50.5H30.106ZM28.852 52.78L28.4556 51.8619C28.4654 51.8577 28.4451 51.867 28.3811 51.8817C28.322 51.8953 28.2451 51.9092 28.1527 51.9214C27.967 51.9461 27.7516 51.96 27.55 51.96V52.96V53.96C27.8344 53.96 28.138 53.9409 28.4158 53.9041C28.6718 53.8701 28.9867 53.8111 29.2484 53.6981L28.852 52.78ZM27.55 52.96V51.96H25.3V52.96V53.96H27.55V52.96ZM25.3 52.96H26.3V52.192H25.3H24.3V52.96H25.3ZM25.3 52.192V53.192H25.762V52.192V51.192H25.3V52.192ZM25.762 52.192H26.762V51.334H25.762H24.762V52.192H25.762ZM25.762 51.334V50.334H25.336V51.334V52.334H25.762V51.334ZM25.336 51.334H26.336V50.56H25.336H24.336V51.334H25.336ZM25.336 50.56V51.56H28.69V50.56V49.56H25.336V50.56ZM28.69 50.56H27.69V51.334H28.69H29.69V50.56H28.69ZM28.69 51.334V50.334H28.264V51.334V52.334H28.69V51.334ZM28.264 51.334H27.264V52.156H28.264H29.264V51.334H28.264ZM28.264 52.156L28.366 53.1508C28.667 53.1199 28.9662 53.0554 29.2234 52.9525L28.852 52.024L28.4806 51.0955C28.4378 51.1126 28.329 51.1441 28.162 51.1612L28.264 52.156ZM28.852 52.024H27.852V52.78H28.852H29.852V52.024H28.852ZM26.716 51.334H25.716V52.192H26.716H27.716V51.334H26.716ZM26.716 52.192V53.192H27.31V52.192V51.192H26.716V52.192ZM27.31 52.192H28.31V51.334H27.31H26.31V52.192H27.31ZM27.31 51.334V50.334H26.716V51.334V52.334H27.31V51.334ZM26.59 54.736H25.59V54.934H26.59H27.59V54.736H26.59ZM26.59 54.934V55.934H30.16V54.934V53.934H26.59V54.934ZM30.16 54.934H29.16V55.624H30.16H31.16V54.934H30.16ZM30.16 55.624V54.624H25.588V55.624V56.624H30.16V55.624ZM25.588 55.624H26.588V54.136H25.588H24.588V55.624H25.588ZM25.588 54.136V55.136H29.104V54.136V53.136H25.588V54.136ZM29.104 54.136H30.104V53.938H29.104H28.104V54.136H29.104ZM29.104 53.938V52.938H25.576V53.938V54.938H29.104V53.938ZM25.576 53.938H26.576V53.248H25.576H24.576V53.938H25.576ZM25.576 53.248V54.248H30.106V53.248V52.248H25.576V53.248ZM30.106 53.248H29.106V54.736H30.106H31.106V53.248H30.106ZM30.106 54.736V53.736H26.59V54.736V55.736H30.106V54.736ZM34.9055 52.222H33.9055V53.222H34.9055V52.222ZM34.9055 51.322H35.9055V50.322H34.9055V51.322ZM31.3655 51.322H30.3655V52.322H31.3655V51.322ZM31.3655 50.5V49.5H30.3655V50.5H31.3655ZM35.9255 50.5H36.9255V49.5H35.9255V50.5ZM35.9255 52.222V53.222H36.9255V52.222H35.9255ZM33.7775 52.462H32.7775V53.462H33.7775V52.462ZM36.2495 52.462H37.2495V51.462H36.2495V52.462ZM36.2495 53.272V54.272H37.2495V53.272H36.2495ZM31.0655 53.272H30.0655V54.272H31.0655V53.272ZM31.0655 52.462V51.462H30.0655V52.462H31.0655ZM32.7575 52.462V53.462H33.7575V52.462H32.7575ZM32.7575 51.7V50.7H31.7575V51.7H32.7575ZM33.7775 51.7H34.7775V50.7H33.7775V51.7ZM34.9055 52.222H35.9055V51.322H34.9055H33.9055V52.222H34.9055ZM34.9055 51.322V50.322H31.3655V51.322V52.322H34.9055V51.322ZM31.3655 51.322H32.3655V50.5H31.3655H30.3655V51.322H31.3655ZM31.3655 50.5V51.5H35.9255V50.5V49.5H31.3655V50.5ZM35.9255 50.5H34.9255V52.222H35.9255H36.9255V50.5H35.9255ZM35.9255 52.222V51.222H34.9055V52.222V53.222H35.9255V52.222ZM33.7775 52.462V53.462H36.2495V52.462V51.462H33.7775V52.462ZM36.2495 52.462H35.2495V53.272H36.2495H37.2495V52.462H36.2495ZM36.2495 53.272V52.272H31.0655V53.272V54.272H36.2495V53.272ZM31.0655 53.272H32.0655V52.462H31.0655H30.0655V53.272H31.0655ZM31.0655 52.462V53.462H32.7575V52.462V51.462H31.0655V52.462ZM32.7575 52.462H33.7575V51.7H32.7575H31.7575V52.462H32.7575ZM32.7575 51.7V52.7H33.7775V51.7V50.7H32.7575V51.7ZM33.7775 51.7H32.7775V52.462H33.7775H34.7775V51.7H33.7775ZM33.6575 53.536V54.536C34.3034 54.536 34.7309 54.6103 34.9606 54.7059C35.0669 54.7502 35.0741 54.776 35.0506 54.7472C35.0137 54.702 34.9975 54.6416 34.9975 54.61H35.9975H36.9975C36.9975 54.1914 36.8612 53.8033 36.6013 53.4841C36.3546 53.1813 36.0355 52.987 35.7294 52.8596C35.1341 52.6117 34.3916 52.536 33.6575 52.536V53.536ZM35.9975 54.61H34.9975C34.9975 54.5784 35.0137 54.518 35.0506 54.4728C35.0741 54.444 35.0669 54.4698 34.9606 54.5141C34.7309 54.6097 34.3034 54.684 33.6575 54.684V55.684V56.684C34.3916 56.684 35.1341 56.6083 35.7294 56.3604C36.0355 56.233 36.3546 56.0387 36.6013 55.7359C36.8612 55.4167 36.9975 55.0286 36.9975 54.61H35.9975ZM33.6575 55.684V54.684C33.0116 54.684 32.5841 54.6097 32.3544 54.5141C32.248 54.4698 32.2409 54.444 32.2644 54.4728C32.3012 54.518 32.3175 54.5784 32.3175 54.61H31.3175H30.3175C30.3175 55.0286 30.4537 55.4167 30.7137 55.7359C30.9603 56.0387 31.2794 56.233 31.5856 56.3604C32.1809 56.6083 32.9234 56.684 33.6575 56.684V55.684ZM31.3175 54.61H32.3175C32.3175 54.6416 32.3012 54.702 32.2644 54.7472C32.2409 54.776 32.248 54.7502 32.3544 54.7059C32.5841 54.6103 33.0116 54.536 33.6575 54.536V53.536V52.536C32.9234 52.536 32.1809 52.6117 31.5856 52.8596C31.2794 52.987 30.9603 53.1813 30.7137 53.4841C30.4537 53.8033 30.3175 54.1914 30.3175 54.61H31.3175ZM33.6575 54.916V55.916C34.0561 55.916 34.4577 55.8917 34.7873 55.8171C34.9442 55.7815 35.1627 55.7181 35.3656 55.5878C35.5719 55.4554 35.9175 55.1414 35.9175 54.61H34.9175H33.9175C33.9175 54.4171 33.9807 54.2471 34.0688 54.1184C34.1496 54.0004 34.2384 53.9348 34.2849 53.905C34.3678 53.8517 34.4108 53.8517 34.3457 53.8664C34.2313 53.8923 34.0029 53.916 33.6575 53.916V54.916ZM34.9175 54.61H35.9175C35.9175 54.0704 35.5599 53.7586 35.3628 53.6329C35.1626 53.5053 34.9471 53.4419 34.7904 53.4059C34.4611 53.3302 34.0597 53.304 33.6575 53.304V54.304V55.304C33.9993 55.304 34.2278 55.3288 34.3426 55.3551C34.4078 55.3701 34.3678 55.3704 34.2877 55.3194C34.2431 55.2909 34.1549 55.2268 34.0737 55.1104C33.9848 54.983 33.9175 54.8102 33.9175 54.61H34.9175ZM33.6575 54.304V53.304C33.2553 53.304 32.8538 53.3302 32.5246 53.4059C32.3678 53.4419 32.1523 53.5053 31.9522 53.6329C31.755 53.7586 31.3975 54.0704 31.3975 54.61H32.3975H33.3975C33.3975 54.8102 33.3301 54.983 33.2413 55.1104C33.1601 55.2268 33.0719 55.2909 33.0273 55.3194C32.9471 55.3704 32.9071 55.3701 32.9724 55.3551C33.0871 55.3288 33.3157 55.304 33.6575 55.304V54.304ZM32.3975 54.61H31.3975C31.3975 55.1414 31.7431 55.4554 31.9494 55.5878C32.1523 55.7181 32.3708 55.7815 32.5277 55.8171C32.8573 55.8917 33.2589 55.916 33.6575 55.916V54.916V53.916C33.3121 53.916 33.0837 53.8923 32.9693 53.8664C32.9042 53.8517 32.9472 53.8517 33.0301 53.905C33.0766 53.9348 33.1654 54.0004 33.2462 54.1184C33.3343 54.2471 33.3975 54.4171 33.3975 54.61H32.3975ZM41.649 51.466H40.649V52.466H41.649V51.466ZM42.249 51.466H43.249V50.466H42.249V51.466ZM42.249 52.45V53.45H43.249V52.45H42.249ZM41.649 52.45V51.45H40.649V52.45H41.649ZM41.649 54.292V55.292H42.649V54.292H41.649ZM40.635 54.292H39.635V55.292H40.635V54.292ZM40.635 50.5V49.5H39.635V50.5H40.635ZM41.649 50.5H42.649V49.5H41.649V50.5ZM38.625 52.534L39.2446 51.7491L38.411 51.091L37.8042 51.9627L38.625 52.534ZM36.837 53.596H35.837V54.646L36.8857 54.5948L36.837 53.596ZM36.837 52.654L36.7193 51.6609L35.837 51.7655V52.654H36.837ZM38.199 50.524L38.2577 49.5257L37.2157 49.4644L37.1991 50.508L38.199 50.524ZM39.219 50.584H40.219V49.6411L39.2777 49.5857L39.219 50.584ZM39.027 51.73L38.0831 51.3996L37.8404 52.0931L38.4296 52.532L39.027 51.73ZM40.485 52.816L41.2447 53.4663L41.9405 52.6533L41.0823 52.014L40.485 52.816ZM39.879 53.524L39.2593 54.3089L40.0137 54.9044L40.6387 54.1743L39.879 53.524ZM38.157 53.83H39.157V52.83H38.157V53.83ZM38.157 54.712H37.157V55.712H38.157V54.712ZM41.721 54.712H42.721V53.712H41.721V54.712ZM41.721 55.624V56.624H42.721V55.624H41.721ZM37.125 55.624H36.125V56.624H37.125V55.624ZM37.125 53.83V52.83H36.125V53.83H37.125ZM41.649 51.466V52.466H42.249V51.466V50.466H41.649V51.466ZM42.249 51.466H41.249V52.45H42.249H43.249V51.466H42.249ZM42.249 52.45V51.45H41.649V52.45V53.45H42.249V52.45ZM41.649 52.45H40.649V54.292H41.649H42.649V52.45H41.649ZM41.649 54.292V53.292H40.635V54.292V55.292H41.649V54.292ZM40.635 54.292H41.635V50.5H40.635H39.635V54.292H40.635ZM40.635 50.5V51.5H41.649V50.5V49.5H40.635V50.5ZM41.649 50.5H40.649V51.466H41.649H42.649V50.5H41.649ZM38.625 52.534L37.8042 51.9627C37.5169 52.3755 37.155 52.5793 36.7882 52.5972L36.837 53.596L36.8857 54.5948C37.995 54.5407 38.881 53.9165 39.4457 53.1053L38.625 52.534ZM36.837 53.596H37.837V52.654H36.837H35.837V53.596H36.837ZM36.837 52.654L36.9547 53.647C37.7303 53.5551 38.3066 53.0766 38.6632 52.5057C39.0152 51.9419 39.1876 51.2468 39.1988 50.54L38.199 50.524L37.1991 50.508C37.1924 50.9292 37.0887 51.2511 36.9668 51.4463C36.8493 51.6344 36.7537 51.6569 36.7193 51.6609L36.837 52.654ZM38.199 50.524L38.1402 51.5223L39.1602 51.5823L39.219 50.584L39.2777 49.5857L38.2577 49.5257L38.199 50.524ZM39.219 50.584H38.219C38.219 50.8701 38.1711 51.1483 38.0831 51.3996L39.027 51.73L39.9708 52.0604C40.1348 51.5917 40.219 51.0899 40.219 50.584H39.219ZM39.027 51.73L38.4296 52.532L39.8876 53.618L40.485 52.816L41.0823 52.014L39.6243 50.928L39.027 51.73ZM40.485 52.816L39.7253 52.1657L39.1193 52.8737L39.879 53.524L40.6387 54.1743L41.2447 53.4663L40.485 52.816ZM39.879 53.524L40.4986 52.7391L39.2446 51.7491L38.625 52.534L38.0053 53.3189L39.2593 54.3089L39.879 53.524ZM38.157 53.83H37.157V54.712H38.157H39.157V53.83H38.157ZM38.157 54.712V55.712H41.721V54.712V53.712H38.157V54.712ZM41.721 54.712H40.721V55.624H41.721H42.721V54.712H41.721ZM41.721 55.624V54.624H37.125V55.624V56.624H41.721V55.624ZM37.125 55.624H38.125V53.83H37.125H36.125V55.624H37.125ZM37.125 53.83V54.83H38.157V53.83V52.83H37.125V53.83Z" fill="white" mask="url(#path-16-outside-1_11_660)"/>
<mask id="path-18-outside-2_11_660" maskUnits="userSpaceOnUse" x="16" y="44" width="35" height="7" fill="black">
<rect fill="white" x="16" y="44" width="35" height="7"/>
<path d="M20.792 47.384V47.764H20.312V49.416H19.916V46H20.312V47.384H20.792ZM18.628 46.488C18.624 46.888 18.588 47.252 18.524 47.572L19.62 48.948L19.308 49.184L18.408 48.02C18.176 48.728 17.776 49.152 17.26 49.212V48.82C17.864 48.708 18.216 47.756 18.228 46.488H17.34V46.124H19.488V46.488H18.628ZM23.3117 47.316H23.8917V46.748H23.3117L23.2877 46.396H23.8917V46H24.2837V48.54H23.8917V47.668H23.2877L23.3117 47.316ZM23.2037 47.028C23.2037 47.6 22.8037 48.02 22.1477 48.02C21.4877 48.02 21.0877 47.6 21.0877 47.028C21.0877 46.456 21.4877 46.036 22.1477 46.036C22.8037 46.036 23.2037 46.456 23.2037 47.028ZM21.4837 47.028C21.4837 47.432 21.7437 47.684 22.1477 47.684C22.5477 47.684 22.8077 47.432 22.8077 47.028C22.8077 46.624 22.5477 46.368 22.1477 46.368C21.7437 46.368 21.4837 46.624 21.4837 47.028ZM21.8157 49.016H24.3557V49.372H21.4157V48.256H21.8157V49.016ZM28.4873 47.352V47.732H28.0153V49.416H27.6193V46H28.0153V47.352H28.4873ZM26.5953 48.308V46.5H25.0393V46.132H26.9953V48.308H26.5953ZM25.9113 48.84H26.2153C26.6753 48.84 27.0913 48.8 27.3353 48.696V49.068C27.0913 49.168 26.6873 49.212 26.2193 49.212H24.9153V48.84H25.5113V47.392H25.9113V48.84ZM33.0721 46V48.536H32.6761V46H33.0721ZM31.0841 47.22C30.8281 47.648 30.4281 47.956 29.9361 48.02V47.648C30.5841 47.532 30.9841 46.828 30.9921 46.032L31.3881 46.056C31.3881 46.348 31.3361 46.632 31.2401 46.888L32.3361 47.696L32.1001 47.984L31.0841 47.22ZM30.5761 49.02H33.1641V49.372H30.1761V48.284H30.5761V49.02ZM36.5517 47.92V46.908H35.7277V46.556H36.5517V46H36.9477V47.92H36.5517ZM34.8757 47.112C34.6317 47.508 34.2397 47.784 33.7397 47.852V47.492C34.3797 47.372 34.7557 46.76 34.7637 46.032L35.1597 46.056C35.1597 46.32 35.1157 46.568 35.0317 46.792L36.0717 47.504L35.8517 47.784L34.8757 47.112ZM35.4997 48.032C36.3277 48.032 36.9757 48.224 36.9757 48.724C36.9757 49.224 36.3277 49.416 35.4997 49.416C34.6717 49.416 34.0237 49.224 34.0237 48.724C34.0237 48.224 34.6717 48.032 35.4997 48.032ZM35.4997 49.092C36.0877 49.092 36.5557 48.976 36.5557 48.724C36.5557 48.472 36.0877 48.356 35.4997 48.356C34.9117 48.356 34.4437 48.472 34.4437 48.724C34.4437 48.976 34.9117 49.092 35.4997 49.092ZM40.3834 49.416V46H40.7794V49.416H40.3834ZM38.7514 48.224C38.1354 48.224 37.6954 47.784 37.6954 47.148C37.6954 46.512 38.1354 46.072 38.7514 46.072C39.3634 46.072 39.8074 46.512 39.8074 47.148C39.8074 47.784 39.3634 48.224 38.7514 48.224ZM38.7514 47.864C39.1554 47.864 39.4194 47.556 39.4194 47.148C39.4194 46.74 39.1554 46.428 38.7514 46.428C38.3434 46.428 38.0834 46.74 38.0834 47.148C38.0834 47.556 38.3434 47.864 38.7514 47.864ZM37.5794 49.212V48.84H38.9754C39.4434 48.84 39.8634 48.788 40.0954 48.68V49.048C39.8674 49.152 39.4434 49.212 38.9514 49.212H37.5794ZM45.3681 47.888V47.516H44.6401V47.168H45.3681V46.716H44.7721V46.368H45.3681V46H45.7641V47.888H45.3681ZM44.6041 46.456C44.6041 47.384 43.8361 47.78 42.6561 47.78V47.436C43.6121 47.432 44.2041 47.136 44.2041 46.524V46.42H42.6561V46.084H44.6041V46.456ZM44.3241 48C45.1401 48 45.8121 48.188 45.8121 48.708C45.8121 49.224 45.1401 49.416 44.3241 49.416C43.5081 49.416 42.8361 49.224 42.8361 48.708C42.8361 48.188 43.5081 48 44.3241 48ZM44.3241 49.088C44.9041 49.088 45.3921 48.976 45.3921 48.708C45.3921 48.44 44.9041 48.328 44.3241 48.328C43.7481 48.328 43.2561 48.44 43.2561 48.708C43.2561 48.976 43.7481 49.088 44.3241 49.088ZM49.3078 46H49.6798V49.416H49.3078V46ZM48.4678 46.856V46.02H48.8398V49.356H48.4678V48.3H47.6598C47.4158 48.872 46.9918 49.2 46.4718 49.204V48.832C47.1078 48.812 47.4998 48.12 47.4998 47.064V46.484H46.4718V46.124H47.8838V46.856H48.4678ZM47.7798 47.932H48.4678V47.224H47.8798C47.8678 47.48 47.8358 47.72 47.7798 47.932Z"/>
</mask>
<path d="M20.792 47.384V47.764H20.312V49.416H19.916V46H20.312V47.384H20.792ZM18.628 46.488C18.624 46.888 18.588 47.252 18.524 47.572L19.62 48.948L19.308 49.184L18.408 48.02C18.176 48.728 17.776 49.152 17.26 49.212V48.82C17.864 48.708 18.216 47.756 18.228 46.488H17.34V46.124H19.488V46.488H18.628ZM23.3117 47.316H23.8917V46.748H23.3117L23.2877 46.396H23.8917V46H24.2837V48.54H23.8917V47.668H23.2877L23.3117 47.316ZM23.2037 47.028C23.2037 47.6 22.8037 48.02 22.1477 48.02C21.4877 48.02 21.0877 47.6 21.0877 47.028C21.0877 46.456 21.4877 46.036 22.1477 46.036C22.8037 46.036 23.2037 46.456 23.2037 47.028ZM21.4837 47.028C21.4837 47.432 21.7437 47.684 22.1477 47.684C22.5477 47.684 22.8077 47.432 22.8077 47.028C22.8077 46.624 22.5477 46.368 22.1477 46.368C21.7437 46.368 21.4837 46.624 21.4837 47.028ZM21.8157 49.016H24.3557V49.372H21.4157V48.256H21.8157V49.016ZM28.4873 47.352V47.732H28.0153V49.416H27.6193V46H28.0153V47.352H28.4873ZM26.5953 48.308V46.5H25.0393V46.132H26.9953V48.308H26.5953ZM25.9113 48.84H26.2153C26.6753 48.84 27.0913 48.8 27.3353 48.696V49.068C27.0913 49.168 26.6873 49.212 26.2193 49.212H24.9153V48.84H25.5113V47.392H25.9113V48.84ZM33.0721 46V48.536H32.6761V46H33.0721ZM31.0841 47.22C30.8281 47.648 30.4281 47.956 29.9361 48.02V47.648C30.5841 47.532 30.9841 46.828 30.9921 46.032L31.3881 46.056C31.3881 46.348 31.3361 46.632 31.2401 46.888L32.3361 47.696L32.1001 47.984L31.0841 47.22ZM30.5761 49.02H33.1641V49.372H30.1761V48.284H30.5761V49.02ZM36.5517 47.92V46.908H35.7277V46.556H36.5517V46H36.9477V47.92H36.5517ZM34.8757 47.112C34.6317 47.508 34.2397 47.784 33.7397 47.852V47.492C34.3797 47.372 34.7557 46.76 34.7637 46.032L35.1597 46.056C35.1597 46.32 35.1157 46.568 35.0317 46.792L36.0717 47.504L35.8517 47.784L34.8757 47.112ZM35.4997 48.032C36.3277 48.032 36.9757 48.224 36.9757 48.724C36.9757 49.224 36.3277 49.416 35.4997 49.416C34.6717 49.416 34.0237 49.224 34.0237 48.724C34.0237 48.224 34.6717 48.032 35.4997 48.032ZM35.4997 49.092C36.0877 49.092 36.5557 48.976 36.5557 48.724C36.5557 48.472 36.0877 48.356 35.4997 48.356C34.9117 48.356 34.4437 48.472 34.4437 48.724C34.4437 48.976 34.9117 49.092 35.4997 49.092ZM40.3834 49.416V46H40.7794V49.416H40.3834ZM38.7514 48.224C38.1354 48.224 37.6954 47.784 37.6954 47.148C37.6954 46.512 38.1354 46.072 38.7514 46.072C39.3634 46.072 39.8074 46.512 39.8074 47.148C39.8074 47.784 39.3634 48.224 38.7514 48.224ZM38.7514 47.864C39.1554 47.864 39.4194 47.556 39.4194 47.148C39.4194 46.74 39.1554 46.428 38.7514 46.428C38.3434 46.428 38.0834 46.74 38.0834 47.148C38.0834 47.556 38.3434 47.864 38.7514 47.864ZM37.5794 49.212V48.84H38.9754C39.4434 48.84 39.8634 48.788 40.0954 48.68V49.048C39.8674 49.152 39.4434 49.212 38.9514 49.212H37.5794ZM45.3681 47.888V47.516H44.6401V47.168H45.3681V46.716H44.7721V46.368H45.3681V46H45.7641V47.888H45.3681ZM44.6041 46.456C44.6041 47.384 43.8361 47.78 42.6561 47.78V47.436C43.6121 47.432 44.2041 47.136 44.2041 46.524V46.42H42.6561V46.084H44.6041V46.456ZM44.3241 48C45.1401 48 45.8121 48.188 45.8121 48.708C45.8121 49.224 45.1401 49.416 44.3241 49.416C43.5081 49.416 42.8361 49.224 42.8361 48.708C42.8361 48.188 43.5081 48 44.3241 48ZM44.3241 49.088C44.9041 49.088 45.3921 48.976 45.3921 48.708C45.3921 48.44 44.9041 48.328 44.3241 48.328C43.7481 48.328 43.2561 48.44 43.2561 48.708C43.2561 48.976 43.7481 49.088 44.3241 49.088ZM49.3078 46H49.6798V49.416H49.3078V46ZM48.4678 46.856V46.02H48.8398V49.356H48.4678V48.3H47.6598C47.4158 48.872 46.9918 49.2 46.4718 49.204V48.832C47.1078 48.812 47.4998 48.12 47.4998 47.064V46.484H46.4718V46.124H47.8838V46.856H48.4678ZM47.7798 47.932H48.4678V47.224H47.8798C47.8678 47.48 47.8358 47.72 47.7798 47.932Z" fill="#2E5E4E"/>
<path d="M20.792 47.384H21.792V46.384H20.792V47.384ZM20.792 47.764V48.764H21.792V47.764H20.792ZM20.312 47.764V46.764H19.312V47.764H20.312ZM20.312 49.416V50.416H21.312V49.416H20.312ZM19.916 49.416H18.916V50.416H19.916V49.416ZM19.916 46V45H18.916V46H19.916ZM20.312 46H21.312V45H20.312V46ZM20.312 47.384H19.312V48.384H20.312V47.384ZM18.628 46.488V45.488H17.6379L17.6281 46.478L18.628 46.488ZM18.524 47.572L17.5434 47.3759L17.4523 47.8315L17.7418 48.195L18.524 47.572ZM19.62 48.948L20.2233 49.7455L21.041 49.127L20.4022 48.325L19.62 48.948ZM19.308 49.184L18.5169 49.7957L19.1221 50.5785L19.9113 49.9815L19.308 49.184ZM18.408 48.02L19.1991 47.4083L18.0452 45.9159L17.4577 47.7086L18.408 48.02ZM17.26 49.212H16.26V50.335L17.3755 50.2053L17.26 49.212ZM17.26 48.82L17.0777 47.8368L16.26 47.9884V48.82H17.26ZM18.228 46.488L19.228 46.4975L19.2375 45.488H18.228V46.488ZM17.34 46.488H16.34V47.488H17.34V46.488ZM17.34 46.124V45.124H16.34V46.124H17.34ZM19.488 46.124H20.488V45.124H19.488V46.124ZM19.488 46.488V47.488H20.488V46.488H19.488ZM20.792 47.384H19.792V47.764H20.792H21.792V47.384H20.792ZM20.792 47.764V46.764H20.312V47.764V48.764H20.792V47.764ZM20.312 47.764H19.312V49.416H20.312H21.312V47.764H20.312ZM20.312 49.416V48.416H19.916V49.416V50.416H20.312V49.416ZM19.916 49.416H20.916V46H19.916H18.916V49.416H19.916ZM19.916 46V47H20.312V46V45H19.916V46ZM20.312 46H19.312V47.384H20.312H21.312V46H20.312ZM20.312 47.384V48.384H20.792V47.384V46.384H20.312V47.384ZM18.628 46.488L17.6281 46.478C17.6246 46.8257 17.5933 47.1264 17.5434 47.3759L18.524 47.572L19.5046 47.7681C19.5827 47.3776 19.6234 46.9503 19.628 46.498L18.628 46.488ZM18.524 47.572L17.7418 48.195L18.8378 49.571L19.62 48.948L20.4022 48.325L19.3062 46.949L18.524 47.572ZM19.62 48.948L19.0167 48.1505L18.7047 48.3865L19.308 49.184L19.9113 49.9815L20.2233 49.7455L19.62 48.948ZM19.308 49.184L20.0991 48.5723L19.1991 47.4083L18.408 48.02L17.6169 48.6317L18.5169 49.7957L19.308 49.184ZM18.408 48.02L17.4577 47.7086C17.3739 47.9644 17.2804 48.1025 17.2184 48.1672C17.1666 48.2213 17.1452 48.2186 17.1445 48.2187L17.26 49.212L17.3755 50.2053C18.4519 50.0801 19.0705 49.2096 19.3583 48.3314L18.408 48.02ZM17.26 49.212H18.26V48.82H17.26H16.26V49.212H17.26ZM17.26 48.82L17.4423 49.8032C18.2484 49.6538 18.6813 48.9892 18.8939 48.4604C19.1207 47.896 19.2212 47.2067 19.228 46.4975L18.228 46.488L17.228 46.4785C17.2228 47.0373 17.1413 47.458 17.0381 47.7146C16.9207 48.0068 16.8756 47.8742 17.0777 47.8368L17.26 48.82ZM18.228 46.488V45.488H17.34V46.488V47.488H18.228V46.488ZM17.34 46.488H18.34V46.124H17.34H16.34V46.488H17.34ZM17.34 46.124V47.124H19.488V46.124V45.124H17.34V46.124ZM19.488 46.124H18.488V46.488H19.488H20.488V46.124H19.488ZM19.488 46.488V45.488H18.628V46.488V47.488H19.488V46.488ZM23.3117 47.316V46.316H22.3775L22.314 47.248L23.3117 47.316ZM23.8917 47.316V48.316H24.8917V47.316H23.8917ZM23.8917 46.748H24.8917V45.748H23.8917V46.748ZM23.3117 46.748L22.314 46.816L22.3775 47.748H23.3117V46.748ZM23.2877 46.396V45.396H22.2172L22.29 46.464L23.2877 46.396ZM23.8917 46.396V47.396H24.8917V46.396H23.8917ZM23.8917 46V45H22.8917V46H23.8917ZM24.2837 46H25.2837V45H24.2837V46ZM24.2837 48.54V49.54H25.2837V48.54H24.2837ZM23.8917 48.54H22.8917V49.54H23.8917V48.54ZM23.8917 47.668H24.8917V46.668H23.8917V47.668ZM23.2877 47.668L22.29 47.6L22.2172 48.668H23.2877V47.668ZM21.8157 49.016H20.8157V50.016H21.8157V49.016ZM24.3557 49.016H25.3557V48.016H24.3557V49.016ZM24.3557 49.372V50.372H25.3557V49.372H24.3557ZM21.4157 49.372H20.4157V50.372H21.4157V49.372ZM21.4157 48.256V47.256H20.4157V48.256H21.4157ZM21.8157 48.256H22.8157V47.256H21.8157V48.256ZM23.3117 47.316V48.316H23.8917V47.316V46.316H23.3117V47.316ZM23.8917 47.316H24.8917V46.748H23.8917H22.8917V47.316H23.8917ZM23.8917 46.748V45.748H23.3117V46.748V47.748H23.8917V46.748ZM23.3117 46.748L24.3093 46.68L24.2853 46.328L23.2877 46.396L22.29 46.464L22.314 46.816L23.3117 46.748ZM23.2877 46.396V47.396H23.8917V46.396V45.396H23.2877V46.396ZM23.8917 46.396H24.8917V46H23.8917H22.8917V46.396H23.8917ZM23.8917 46V47H24.2837V46V45H23.8917V46ZM24.2837 46H23.2837V48.54H24.2837H25.2837V46H24.2837ZM24.2837 48.54V47.54H23.8917V48.54V49.54H24.2837V48.54ZM23.8917 48.54H24.8917V47.668H23.8917H22.8917V48.54H23.8917ZM23.8917 47.668V46.668H23.2877V47.668V48.668H23.8917V47.668ZM23.2877 47.668L24.2853 47.736L24.3093 47.384L23.3117 47.316L22.314 47.248L22.29 47.6L23.2877 47.668ZM23.2037 47.028H22.2037C22.2037 47.0541 22.1992 47.0609 22.202 47.0541C22.205 47.0464 22.2126 47.0331 22.2255 47.0206C22.2384 47.0081 22.2466 47.006 22.2405 47.0083C22.2334 47.0109 22.2049 47.02 22.1477 47.02V48.02V49.02C22.693 49.02 23.2208 48.8414 23.6178 48.4564C24.0154 48.0708 24.2037 47.5532 24.2037 47.028H23.2037ZM22.1477 48.02V47.02C22.0887 47.02 22.059 47.0107 22.0512 47.0078C22.0443 47.0053 22.0524 47.0071 22.0653 47.0197C22.0783 47.0322 22.0861 47.0457 22.0892 47.0537C22.0921 47.0608 22.0877 47.0541 22.0877 47.028H21.0877H20.0877C20.0877 47.5533 20.276 48.0715 20.675 48.4573C21.0731 48.8424 21.6019 49.02 22.1477 49.02V48.02ZM21.0877 47.028H22.0877C22.0877 47.0019 22.0921 46.9952 22.0892 47.0023C22.0861 47.0103 22.0783 47.0238 22.0653 47.0363C22.0524 47.0489 22.0443 47.0507 22.0512 47.0482C22.059 47.0453 22.0887 47.036 22.1477 47.036V46.036V45.036C21.6019 45.036 21.0731 45.2136 20.675 45.5987C20.276 45.9845 20.0877 46.5027 20.0877 47.028H21.0877ZM22.1477 46.036V47.036C22.2049 47.036 22.2334 47.0451 22.2405 47.0477C22.2466 47.05 22.2384 47.0479 22.2255 47.0354C22.2126 47.0229 22.205 47.0096 22.202 47.0019C22.1992 46.9951 22.2037 47.0019 22.2037 47.028H23.2037H24.2037C24.2037 46.5028 24.0154 45.9852 23.6178 45.5996C23.2208 45.2146 22.693 45.036 22.1477 45.036V46.036ZM21.4837 47.028H20.4837C20.4837 47.4493 20.6241 47.8875 20.9633 48.2208C21.3002 48.5519 21.7361 48.684 22.1477 48.684V47.684V46.684C22.1552 46.684 22.2591 46.6901 22.3651 46.7942C22.4732 46.9005 22.4837 47.0107 22.4837 47.028H21.4837ZM22.1477 47.684V48.684C22.5598 48.684 22.9947 48.5503 23.3301 48.2192C23.6673 47.8864 23.8077 47.4492 23.8077 47.028H22.8077H21.8077C21.8077 47.0108 21.818 46.9016 21.9252 46.7958C22.0307 46.6917 22.1355 46.684 22.1477 46.684V47.684ZM22.8077 47.028H23.8077C23.8077 46.6073 23.6677 46.1709 23.3332 45.8379C22.9994 45.5055 22.5642 45.368 22.1477 45.368V46.368V47.368C22.1311 47.368 22.0259 47.3585 21.9221 47.2551C21.8176 47.1511 21.8077 47.0447 21.8077 47.028H22.8077ZM22.1477 46.368V45.368C21.7317 45.368 21.2955 45.5038 20.9601 45.8363C20.6237 46.1699 20.4837 46.6072 20.4837 47.028H21.4837H22.4837C22.4837 47.0448 22.4736 47.1521 22.3682 47.2567C22.2638 47.3602 22.1596 47.368 22.1477 47.368V46.368ZM21.8157 49.016V50.016H24.3557V49.016V48.016H21.8157V49.016ZM24.3557 49.016H23.3557V49.372H24.3557H25.3557V49.016H24.3557ZM24.3557 49.372V48.372H21.4157V49.372V50.372H24.3557V49.372ZM21.4157 49.372H22.4157V48.256H21.4157H20.4157V49.372H21.4157ZM21.4157 48.256V49.256H21.8157V48.256V47.256H21.4157V48.256ZM21.8157 48.256H20.8157V49.016H21.8157H22.8157V48.256H21.8157ZM28.4873 47.352H29.4873V46.352H28.4873V47.352ZM28.4873 47.732V48.732H29.4873V47.732H28.4873ZM28.0153 47.732V46.732H27.0153V47.732H28.0153ZM28.0153 49.416V50.416H29.0153V49.416H28.0153ZM27.6193 49.416H26.6193V50.416H27.6193V49.416ZM27.6193 46V45H26.6193V46H27.6193ZM28.0153 46H29.0153V45H28.0153V46ZM28.0153 47.352H27.0153V48.352H28.0153V47.352ZM26.5953 48.308H25.5953V49.308H26.5953V48.308ZM26.5953 46.5H27.5953V45.5H26.5953V46.5ZM25.0393 46.5H24.0393V47.5H25.0393V46.5ZM25.0393 46.132V45.132H24.0393V46.132H25.0393ZM26.9953 46.132H27.9953V45.132H26.9953V46.132ZM26.9953 48.308V49.308H27.9953V48.308H26.9953ZM25.9113 48.84H24.9113V49.84H25.9113V48.84ZM27.3353 48.696H28.3353V47.1827L26.9432 47.7761L27.3353 48.696ZM27.3353 49.068L27.7145 49.9933L28.3353 49.7389V49.068H27.3353ZM24.9153 49.212H23.9153V50.212H24.9153V49.212ZM24.9153 48.84V47.84H23.9153V48.84H24.9153ZM25.5113 48.84V49.84H26.5113V48.84H25.5113ZM25.5113 47.392V46.392H24.5113V47.392H25.5113ZM25.9113 47.392H26.9113V46.392H25.9113V47.392ZM28.4873 47.352H27.4873V47.732H28.4873H29.4873V47.352H28.4873ZM28.4873 47.732V46.732H28.0153V47.732V48.732H28.4873V47.732ZM28.0153 47.732H27.0153V49.416H28.0153H29.0153V47.732H28.0153ZM28.0153 49.416V48.416H27.6193V49.416V50.416H28.0153V49.416ZM27.6193 49.416H28.6193V46H27.6193H26.6193V49.416H27.6193ZM27.6193 46V47H28.0153V46V45H27.6193V46ZM28.0153 46H27.0153V47.352H28.0153H29.0153V46H28.0153ZM28.0153 47.352V48.352H28.4873V47.352V46.352H28.0153V47.352ZM26.5953 48.308H27.5953V46.5H26.5953H25.5953V48.308H26.5953ZM26.5953 46.5V45.5H25.0393V46.5V47.5H26.5953V46.5ZM25.0393 46.5H26.0393V46.132H25.0393H24.0393V46.5H25.0393ZM25.0393 46.132V47.132H26.9953V46.132V45.132H25.0393V46.132ZM26.9953 46.132H25.9953V48.308H26.9953H27.9953V46.132H26.9953ZM26.9953 48.308V47.308H26.5953V48.308V49.308H26.9953V48.308ZM25.9113 48.84V49.84H26.2153V48.84V47.84H25.9113V48.84ZM26.2153 48.84V49.84C26.6758 49.84 27.2773 49.8078 27.7274 49.6159L27.3353 48.696L26.9432 47.7761C26.9479 47.7741 26.8906 47.7957 26.7374 47.8141C26.5966 47.831 26.4195 47.84 26.2153 47.84V48.84ZM27.3353 48.696H26.3353V49.068H27.3353H28.3353V48.696H27.3353ZM27.3353 49.068L26.9561 48.1427C26.9582 48.1418 26.942 48.1484 26.9008 48.1579C26.8609 48.167 26.8073 48.1766 26.7386 48.1851C26.6 48.2022 26.4247 48.212 26.2193 48.212V49.212V50.212C26.7028 50.212 27.2767 50.1727 27.7145 49.9933L27.3353 49.068ZM26.2193 49.212V48.212H24.9153V49.212V50.212H26.2193V49.212ZM24.9153 49.212H25.9153V48.84H24.9153H23.9153V49.212H24.9153ZM24.9153 48.84V49.84H25.5113V48.84V47.84H24.9153V48.84ZM25.5113 48.84H26.5113V47.392H25.5113H24.5113V48.84H25.5113ZM25.5113 47.392V48.392H25.9113V47.392V46.392H25.5113V47.392ZM25.9113 47.392H24.9113V48.84H25.9113H26.9113V47.392H25.9113ZM33.0721 46H34.0721V45H33.0721V46ZM33.0721 48.536V49.536H34.0721V48.536H33.0721ZM32.6761 48.536H31.6761V49.536H32.6761V48.536ZM32.6761 46V45H31.6761V46H32.6761ZM31.0841 47.22L31.6851 46.4208L30.7965 45.7526L30.2259 46.7067L31.0841 47.22ZM29.9361 48.02H28.9361V49.1585L30.0651 49.0116L29.9361 48.02ZM29.9361 47.648L29.7599 46.6636L28.9361 46.8111V47.648H29.9361ZM30.9921 46.032L31.0526 45.0338L30.0027 44.9702L29.9921 46.022L30.9921 46.032ZM31.3881 46.056H32.3881V45.1148L31.4486 45.0578L31.3881 46.056ZM31.2401 46.888L30.3037 46.5369L30.0384 47.2445L30.6467 47.6929L31.2401 46.888ZM32.3361 47.696L33.1095 48.3298L33.7767 47.5157L32.9295 46.8911L32.3361 47.696ZM32.1001 47.984L31.4991 48.7832L32.2656 49.3597L32.8735 48.6178L32.1001 47.984ZM30.5761 49.02H29.5761V50.02H30.5761V49.02ZM33.1641 49.02H34.1641V48.02H33.1641V49.02ZM33.1641 49.372V50.372H34.1641V49.372H33.1641ZM30.1761 49.372H29.1761V50.372H30.1761V49.372ZM30.1761 48.284V47.284H29.1761V48.284H30.1761ZM30.5761 48.284H31.5761V47.284H30.5761V48.284ZM33.0721 46H32.0721V48.536H33.0721H34.0721V46H33.0721ZM33.0721 48.536V47.536H32.6761V48.536V49.536H33.0721V48.536ZM32.6761 48.536H33.6761V46H32.6761H31.6761V48.536H32.6761ZM32.6761 46V47H33.0721V46V45H32.6761V46ZM31.0841 47.22L30.2259 46.7067C30.0947 46.9259 29.9384 47.0113 29.8071 47.0284L29.9361 48.02L30.0651 49.0116C30.9177 48.9007 31.5614 48.3701 31.9423 47.7333L31.0841 47.22ZM29.9361 48.02H30.9361V47.648H29.9361H28.9361V48.02H29.9361ZM29.9361 47.648L30.1123 48.6324C31.4529 48.3924 31.9818 47.0537 31.992 46.042L30.9921 46.032L29.9921 46.022C29.9897 46.2646 29.9264 46.4529 29.8571 46.5634C29.824 46.6162 29.7955 46.6421 29.7806 46.6531C29.768 46.6624 29.7626 46.6632 29.7599 46.6636L29.9361 47.648ZM30.9921 46.032L30.9316 47.0302L31.3276 47.0542L31.3881 46.056L31.4486 45.0578L31.0526 45.0338L30.9921 46.032ZM31.3881 46.056H30.3881C30.3881 46.2309 30.3567 46.3957 30.3037 46.5369L31.2401 46.888L32.1764 47.2391C32.3155 46.8683 32.3881 46.4651 32.3881 46.056H31.3881ZM31.2401 46.888L30.6467 47.6929L31.7427 48.5009L32.3361 47.696L32.9295 46.8911L31.8335 46.0831L31.2401 46.888ZM32.3361 47.696L31.5626 47.0622L31.3266 47.3502L32.1001 47.984L32.8735 48.6178L33.1095 48.3298L32.3361 47.696ZM32.1001 47.984L32.7011 47.1848L31.6851 46.4208L31.0841 47.22L30.4831 48.0192L31.4991 48.7832L32.1001 47.984ZM30.5761 49.02V50.02H33.1641V49.02V48.02H30.5761V49.02ZM33.1641 49.02H32.1641V49.372H33.1641H34.1641V49.02H33.1641ZM33.1641 49.372V48.372H30.1761V49.372V50.372H33.1641V49.372ZM30.1761 49.372H31.1761V48.284H30.1761H29.1761V49.372H30.1761ZM30.1761 48.284V49.284H30.5761V48.284V47.284H30.1761V48.284ZM30.5761 48.284H29.5761V49.02H30.5761H31.5761V48.284H30.5761ZM36.5517 47.92H35.5517V48.92H36.5517V47.92ZM36.5517 46.908H37.5517V45.908H36.5517V46.908ZM35.7277 46.908H34.7277V47.908H35.7277V46.908ZM35.7277 46.556V45.556H34.7277V46.556H35.7277ZM36.5517 46.556V47.556H37.5517V46.556H36.5517ZM36.5517 46V45H35.5517V46H36.5517ZM36.9477 46H37.9477V45H36.9477V46ZM36.9477 47.92V48.92H37.9477V47.92H36.9477ZM34.8757 47.112L35.4428 46.2884L34.5763 45.6917L34.0244 46.5874L34.8757 47.112ZM33.7397 47.852H32.7397V48.9972L33.8745 48.8429L33.7397 47.852ZM33.7397 47.492L33.5554 46.5091L32.7397 46.6621V47.492H33.7397ZM34.7637 46.032L34.8242 45.0338L33.7753 44.9703L33.7638 46.021L34.7637 46.032ZM35.1597 46.056H36.1597V45.1148L35.2202 45.0578L35.1597 46.056ZM35.0317 46.792L34.0954 46.4409L33.8203 47.1745L34.4668 47.6172L35.0317 46.792ZM36.0717 47.504L36.858 48.1218L37.5178 47.2821L36.6366 46.6788L36.0717 47.504ZM35.8517 47.784L35.2846 48.6076L36.058 49.1401L36.638 48.4018L35.8517 47.784ZM36.5517 47.92H37.5517V46.908H36.5517H35.5517V47.92H36.5517ZM36.5517 46.908V45.908H35.7277V46.908V47.908H36.5517V46.908ZM35.7277 46.908H36.7277V46.556H35.7277H34.7277V46.908H35.7277ZM35.7277 46.556V47.556H36.5517V46.556V45.556H35.7277V46.556ZM36.5517 46.556H37.5517V46H36.5517H35.5517V46.556H36.5517ZM36.5517 46V47H36.9477V46V45H36.5517V46ZM36.9477 46H35.9477V47.92H36.9477H37.9477V46H36.9477ZM36.9477 47.92V46.92H36.5517V47.92V48.92H36.9477V47.92ZM34.8757 47.112L34.0244 46.5874C33.9296 46.7412 33.794 46.8354 33.605 46.8611L33.7397 47.852L33.8745 48.8429C34.6854 48.7326 35.3338 48.2748 35.7271 47.6366L34.8757 47.112ZM33.7397 47.852H34.7397V47.492H33.7397H32.7397V47.852H33.7397ZM33.7397 47.492L33.924 48.4749C35.1978 48.236 35.7525 47.0576 35.7637 46.043L34.7637 46.032L33.7638 46.021C33.7616 46.2227 33.7081 46.3591 33.6601 46.4301C33.6197 46.49 33.5874 46.5031 33.5554 46.5091L33.7397 47.492ZM34.7637 46.032L34.7032 47.0302L35.0992 47.0542L35.1597 46.056L35.2202 45.0578L34.8242 45.0338L34.7637 46.032ZM35.1597 46.056H34.1597C34.1597 46.2088 34.1343 46.3371 34.0954 46.4409L35.0317 46.792L35.968 47.1431C36.0971 46.7989 36.1597 46.4312 36.1597 46.056H35.1597ZM35.0317 46.792L34.4668 47.6172L35.5068 48.3292L36.0717 47.504L36.6366 46.6788L35.5966 45.9668L35.0317 46.792ZM36.0717 47.504L35.2854 46.8862L35.0654 47.1662L35.8517 47.784L36.638 48.4018L36.858 48.1218L36.0717 47.504ZM35.8517 47.784L36.4188 46.9604L35.4428 46.2884L34.8757 47.112L34.3086 47.9356L35.2846 48.6076L35.8517 47.784ZM35.4997 48.032V49.032C35.6701 49.032 35.8163 49.042 35.9355 49.0594C36.0578 49.0772 36.1303 49.0997 36.164 49.1137C36.2005 49.1289 36.1544 49.1183 36.0937 49.0456C36.0188 48.9558 35.9757 48.8353 35.9757 48.724H36.9757H37.9757C37.9757 47.9125 37.3998 47.4618 36.9325 47.2673C36.488 47.0823 35.9648 47.032 35.4997 47.032V48.032ZM36.9757 48.724H35.9757C35.9757 48.6127 36.0188 48.4922 36.0937 48.4024C36.1544 48.3297 36.2005 48.3191 36.164 48.3343C36.1303 48.3483 36.0578 48.3708 35.9355 48.3886C35.8163 48.406 35.6701 48.416 35.4997 48.416V49.416V50.416C35.9648 50.416 36.488 50.3657 36.9325 50.1807C37.3998 49.9862 37.9757 49.5355 37.9757 48.724H36.9757ZM35.4997 49.416V48.416C35.3294 48.416 35.1832 48.406 35.0639 48.3886C34.9416 48.3708 34.8692 48.3483 34.8355 48.3343C34.799 48.3191 34.8451 48.3297 34.9057 48.4024C34.9807 48.4922 35.0237 48.6127 35.0237 48.724H34.0237H33.0237C33.0237 49.5355 33.5996 49.9862 34.067 50.1807C34.5115 50.3657 35.0346 50.416 35.4997 50.416V49.416ZM34.0237 48.724H35.0237C35.0237 48.8353 34.9807 48.9558 34.9057 49.0456C34.8451 49.1183 34.799 49.1289 34.8355 49.1137C34.8692 49.0997 34.9416 49.0772 35.0639 49.0594C35.1832 49.042 35.3294 49.032 35.4997 49.032V48.032V47.032C35.0346 47.032 34.5115 47.0823 34.067 47.2673C33.5996 47.4618 33.0237 47.9125 33.0237 48.724H34.0237ZM35.4997 49.092V50.092C35.8401 50.092 36.2204 50.0606 36.5509 49.9556C36.7135 49.904 36.9341 49.8131 37.131 49.6412C37.3485 49.4513 37.5557 49.1395 37.5557 48.724H36.5557H35.5557C35.5557 48.5942 35.5873 48.468 35.644 48.3571C35.6984 48.2507 35.7653 48.1785 35.8158 48.1344C35.9066 48.0552 35.9735 48.0405 35.9455 48.0494C35.8951 48.0654 35.7473 48.092 35.4997 48.092V49.092ZM36.5557 48.724H37.5557C37.5557 48.3085 37.3485 47.9967 37.131 47.8068C36.9341 47.6349 36.7135 47.544 36.5509 47.4924C36.2204 47.3874 35.8401 47.356 35.4997 47.356V48.356V49.356C35.7473 49.356 35.8951 49.3826 35.9455 49.3986C35.9735 49.4075 35.9066 49.3928 35.8158 49.3136C35.7653 49.2695 35.6984 49.1973 35.644 49.0909C35.5873 48.98 35.5557 48.8538 35.5557 48.724H36.5557ZM35.4997 48.356V47.356C35.1593 47.356 34.7791 47.3874 34.4485 47.4924C34.286 47.544 34.0654 47.6349 33.8685 47.8068C33.6509 47.9967 33.4437 48.3085 33.4437 48.724H34.4437H35.4437C35.4437 48.8538 35.4121 48.98 35.3554 49.0909C35.3011 49.1973 35.2341 49.2695 35.1836 49.3136C35.0928 49.3928 35.026 49.4075 35.0539 49.3986C35.1044 49.3826 35.2521 49.356 35.4997 49.356V48.356ZM34.4437 48.724H33.4437C33.4437 49.1395 33.6509 49.4513 33.8685 49.6412C34.0654 49.8131 34.286 49.904 34.4485 49.9556C34.7791 50.0606 35.1593 50.092 35.4997 50.092V49.092V48.092C35.2521 48.092 35.1044 48.0654 35.0539 48.0494C35.026 48.0405 35.0928 48.0552 35.1836 48.1344C35.2341 48.1785 35.3011 48.2507 35.3554 48.3571C35.4121 48.468 35.4437 48.5942 35.4437 48.724H34.4437ZM40.3834 49.416H39.3834V50.416H40.3834V49.416ZM40.3834 46V45H39.3834V46H40.3834ZM40.7794 46H41.7794V45H40.7794V46ZM40.7794 49.416V50.416H41.7794V49.416H40.7794ZM37.5794 49.212H36.5794V50.212H37.5794V49.212ZM37.5794 48.84V47.84H36.5794V48.84H37.5794ZM40.0954 48.68H41.0954V47.1114L39.6733 47.7734L40.0954 48.68ZM40.0954 49.048L40.5104 49.9578L41.0954 49.691V49.048H40.0954ZM40.3834 49.416H41.3834V46H40.3834H39.3834V49.416H40.3834ZM40.3834 46V47H40.7794V46V45H40.3834V46ZM40.7794 46H39.7794V49.416H40.7794H41.7794V46H40.7794ZM40.7794 49.416V48.416H40.3834V49.416V50.416H40.7794V49.416ZM38.7514 48.224V47.224C38.7171 47.224 38.701 47.2181 38.6981 47.2169C38.6956 47.2159 38.6993 47.2171 38.7042 47.2221C38.709 47.227 38.7084 47.2289 38.7056 47.2217C38.7027 47.2141 38.6954 47.1912 38.6954 47.148H37.6954H36.6954C36.6954 47.7022 36.891 48.2321 37.2806 48.6269C37.6707 49.0222 38.1983 49.224 38.7514 49.224V48.224ZM37.6954 47.148H38.6954C38.6954 47.1048 38.7027 47.0819 38.7056 47.0743C38.7084 47.0671 38.709 47.069 38.7042 47.0739C38.6993 47.0789 38.6956 47.0801 38.6981 47.0791C38.701 47.0779 38.7171 47.072 38.7514 47.072V46.072V45.072C38.1983 45.072 37.6707 45.2738 37.2806 45.6691C36.891 46.0639 36.6954 46.5938 36.6954 47.148H37.6954ZM38.7514 46.072V47.072C38.7839 47.072 38.7994 47.0777 38.8025 47.0789C38.8053 47.08 38.8023 47.0792 38.798 47.0748C38.7938 47.0705 38.7945 47.0692 38.7973 47.0763C38.8002 47.0836 38.8074 47.1059 38.8074 47.148H39.8074H40.8074C40.8074 46.5912 40.6091 46.0617 40.2197 45.6682C39.8303 45.2746 39.3037 45.072 38.7514 45.072V46.072ZM39.8074 47.148H38.8074C38.8074 47.1901 38.8002 47.2124 38.7973 47.2197C38.7945 47.2268 38.7938 47.2255 38.798 47.2212C38.8023 47.2168 38.8053 47.216 38.8025 47.2171C38.7994 47.2183 38.7839 47.224 38.7514 47.224V48.224V49.224C39.3037 49.224 39.8303 49.0214 40.2197 48.6278C40.6091 48.2343 40.8074 47.7048 40.8074 47.148H39.8074ZM38.7514 47.864V48.864C39.2228 48.864 39.6624 48.6771 39.9764 48.3321C40.2824 47.9959 40.4194 47.5663 40.4194 47.148H39.4194H38.4194C38.4194 47.1377 38.4243 47.0661 38.4973 46.9859C38.5784 46.8969 38.684 46.864 38.7514 46.864V47.864ZM39.4194 47.148H40.4194C40.4194 46.7301 40.2828 46.3012 39.979 45.9648C39.6668 45.619 39.227 45.428 38.7514 45.428V46.428V47.428C38.722 47.428 38.6772 47.4219 38.6259 47.3995C38.5747 47.3772 38.5297 47.344 38.4947 47.3052C38.4239 47.2268 38.4194 47.1579 38.4194 47.148H39.4194ZM38.7514 46.428V45.428C38.2759 45.428 37.8344 45.6176 37.5208 45.9664C37.2165 46.3047 37.0834 46.7341 37.0834 47.148H38.0834H39.0834C39.0834 47.1539 39.0802 47.2233 39.008 47.3036C38.9721 47.3435 38.9262 47.3773 38.8744 47.3999C38.8226 47.4224 38.7785 47.428 38.7514 47.428V46.428ZM38.0834 47.148H37.0834C37.0834 47.5623 37.2169 47.9923 37.5234 48.3305C37.8388 48.6786 38.2801 48.864 38.7514 48.864V47.864V46.864C38.7767 46.864 38.8196 46.8692 38.8708 46.8912C38.9222 46.9134 38.9686 46.947 39.0054 46.9875C39.0799 47.0697 39.0834 47.1417 39.0834 47.148H38.0834ZM37.5794 49.212H38.5794V48.84H37.5794H36.5794V49.212H37.5794ZM37.5794 48.84V49.84H38.9754V48.84V47.84H37.5794V48.84ZM38.9754 48.84V49.84C39.4584 49.84 40.0714 49.7942 40.5174 49.5866L40.0954 48.68L39.6733 47.7734C39.6889 47.7662 39.6391 47.789 39.4875 47.8098C39.3504 47.8287 39.1753 47.84 38.9754 47.84V48.84ZM40.0954 48.68H39.0954V49.048H40.0954H41.0954V48.68H40.0954ZM40.0954 49.048L39.6804 48.1382C39.6914 48.1331 39.6356 48.157 39.481 48.1791C39.3401 48.1992 39.1593 48.212 38.9514 48.212V49.212V50.212C39.472 50.212 40.0775 50.1553 40.5104 49.9578L40.0954 49.048ZM38.9514 49.212V48.212H37.5794V49.212V50.212H38.9514V49.212ZM45.3681 47.888H44.3681V48.888H45.3681V47.888ZM45.3681 47.516H46.3681V46.516H45.3681V47.516ZM44.6401 47.516H43.6401V48.516H44.6401V47.516ZM44.6401 47.168V46.168H43.6401V47.168H44.6401ZM45.3681 47.168V48.168H46.3681V47.168H45.3681ZM45.3681 46.716H46.3681V45.716H45.3681V46.716ZM44.7721 46.716H43.7721V47.716H44.7721V46.716ZM44.7721 46.368V45.368H43.7721V46.368H44.7721ZM45.3681 46.368V47.368H46.3681V46.368H45.3681ZM45.3681 46V45H44.3681V46H45.3681ZM45.7641 46H46.7641V45H45.7641V46ZM45.7641 47.888V48.888H46.7641V47.888H45.7641ZM42.6561 47.78H41.6561V48.78H42.6561V47.78ZM42.6561 47.436L42.6519 46.436L41.6561 46.4402V47.436H42.6561ZM44.2041 46.42H45.2041V45.42H44.2041V46.42ZM42.6561 46.42H41.6561V47.42H42.6561V46.42ZM42.6561 46.084V45.084H41.6561V46.084H42.6561ZM44.6041 46.084H45.6041V45.084H44.6041V46.084ZM45.3681 47.888H46.3681V47.516H45.3681H44.3681V47.888H45.3681ZM45.3681 47.516V46.516H44.6401V47.516V48.516H45.3681V47.516ZM44.6401 47.516H45.6401V47.168H44.6401H43.6401V47.516H44.6401ZM44.6401 47.168V48.168H45.3681V47.168V46.168H44.6401V47.168ZM45.3681 47.168H46.3681V46.716H45.3681H44.3681V47.168H45.3681ZM45.3681 46.716V45.716H44.7721V46.716V47.716H45.3681V46.716ZM44.7721 46.716H45.7721V46.368H44.7721H43.7721V46.716H44.7721ZM44.7721 46.368V47.368H45.3681V46.368V45.368H44.7721V46.368ZM45.3681 46.368H46.3681V46H45.3681H44.3681V46.368H45.3681ZM45.3681 46V47H45.7641V46V45H45.3681V46ZM45.7641 46H44.7641V47.888H45.7641H46.7641V46H45.7641ZM45.7641 47.888V46.888H45.3681V47.888V48.888H45.7641V47.888ZM44.6041 46.456H43.6041C43.6041 46.5473 43.5862 46.5784 43.5856 46.5796C43.5843 46.582 43.5823 46.5852 43.5773 46.5904C43.572 46.5959 43.5603 46.6068 43.5376 46.6212C43.429 46.6899 43.1631 46.78 42.6561 46.78V47.78V48.78C43.3291 48.78 44.0372 48.6721 44.6076 48.3108C45.2473 47.9057 45.6041 47.2498 45.6041 46.456H44.6041ZM42.6561 47.78H43.6561V47.436H42.6561H41.6561V47.78H42.6561ZM42.6561 47.436L42.6603 48.436C43.2132 48.4337 43.7982 48.3509 44.2802 48.0788C44.8268 47.7703 45.2041 47.2292 45.2041 46.524H44.2041H43.2041C43.2041 46.5089 43.21 46.4567 43.2462 46.3981C43.28 46.3435 43.3121 46.3287 43.2971 46.3372C43.2783 46.3478 43.221 46.3742 43.1058 46.3972C42.9924 46.4198 42.8421 46.4352 42.6519 46.436L42.6561 47.436ZM44.2041 46.524H45.2041V46.42H44.2041H43.2041V46.524H44.2041ZM44.2041 46.42V45.42H42.6561V46.42V47.42H44.2041V46.42ZM42.6561 46.42H43.6561V46.084H42.6561H41.6561V46.42H42.6561ZM42.6561 46.084V47.084H44.6041V46.084V45.084H42.6561V46.084ZM44.6041 46.084H43.6041V46.456H44.6041H45.6041V46.084H44.6041ZM44.3241 48V49C44.4917 49 44.6375 49.0098 44.7575 49.0272C44.8807 49.045 44.955 49.0678 44.991 49.0827C45.0296 49.0987 44.9857 49.0895 44.9267 49.0188C44.8533 48.9309 44.8121 48.8137 44.8121 48.708H45.8121H46.8121C46.8121 47.8866 46.2303 47.4315 45.7573 47.2353C45.3084 47.0491 44.7825 47 44.3241 47V48ZM45.8121 48.708H44.8121C44.8121 48.5994 44.8545 48.4817 44.9273 48.3947C44.9858 48.3249 45.0287 48.3161 44.9895 48.3324C44.9532 48.3476 44.8786 48.3705 44.7558 48.3885C44.6361 48.4061 44.4909 48.416 44.3241 48.416V49.416V50.416C44.7846 50.416 45.3103 50.3654 45.7587 50.1786C46.228 49.983 46.8121 49.5292 46.8121 48.708H45.8121ZM44.3241 49.416V48.416C44.1574 48.416 44.0121 48.4061 43.8924 48.3885C43.7697 48.3705 43.6951 48.3476 43.6587 48.3324C43.6195 48.3161 43.6625 48.3249 43.7209 48.3947C43.7937 48.4817 43.8361 48.5994 43.8361 48.708H42.8361H41.8361C41.8361 49.5292 42.4202 49.983 42.8895 50.1786C43.338 50.3654 43.8636 50.416 44.3241 50.416V49.416ZM42.8361 48.708H43.8361C43.8361 48.8137 43.795 48.9309 43.7216 49.0188C43.6626 49.0895 43.6186 49.0987 43.6573 49.0827C43.6932 49.0678 43.7676 49.045 43.8907 49.0272C44.0108 49.0098 44.1565 49 44.3241 49V48V47C43.8658 47 43.3399 47.0491 42.891 47.2353C42.418 47.4315 41.8361 47.8866 41.8361 48.708H42.8361ZM44.3241 49.088V50.088C44.6584 50.088 45.042 50.0579 45.3771 49.952C45.5423 49.8997 45.767 49.8073 45.9671 49.6315C46.1893 49.4361 46.3921 49.1214 46.3921 48.708H45.3921H44.3921C44.3921 48.5835 44.4219 48.4605 44.4771 48.351C44.5302 48.2457 44.5961 48.1738 44.6466 48.1294C44.737 48.0499 44.8035 48.0358 44.7741 48.045C44.7203 48.0621 44.5699 48.088 44.3241 48.088V49.088ZM45.3921 48.708H46.3921C46.3921 48.2946 46.1893 47.9799 45.9671 47.7845C45.767 47.6087 45.5423 47.5163 45.3771 47.464C45.042 47.3581 44.6584 47.328 44.3241 47.328V48.328V49.328C44.5699 49.328 44.7203 49.3539 44.7741 49.371C44.8035 49.3802 44.737 49.3661 44.6466 49.2866C44.5961 49.2422 44.5302 49.1703 44.4771 49.065C44.4219 48.9555 44.3921 48.8325 44.3921 48.708H45.3921ZM44.3241 48.328V47.328C43.9912 47.328 43.6082 47.3582 43.2733 47.4638C43.1085 47.5158 42.8839 47.6078 42.6839 47.7827C42.4619 47.9767 42.2561 48.2917 42.2561 48.708H43.2561H44.2561C44.2561 48.8339 44.2258 48.9577 44.17 49.0675C44.1165 49.1729 44.0503 49.2446 44.0001 49.2885C43.9103 49.367 43.8448 49.3807 43.8749 49.3712C43.93 49.3538 44.081 49.328 44.3241 49.328V48.328ZM43.2561 48.708H42.2561C42.2561 49.1243 42.4619 49.4393 42.6839 49.6333C42.8839 49.8082 43.1085 49.9002 43.2733 49.9522C43.6082 50.0578 43.9912 50.088 44.3241 50.088V49.088V48.088C44.081 48.088 43.93 48.0622 43.8749 48.0448C43.8448 48.0353 43.9103 48.049 44.0001 48.1275C44.0503 48.1714 44.1165 48.2431 44.17 48.3485C44.2258 48.4583 44.2561 48.5821 44.2561 48.708H43.2561ZM49.3078 46V45H48.3078V46H49.3078ZM49.6798 46H50.6798V45H49.6798V46ZM49.6798 49.416V50.416H50.6798V49.416H49.6798ZM49.3078 49.416H48.3078V50.416H49.3078V49.416ZM48.4678 46.856V47.856H49.4678V46.856H48.4678ZM48.4678 46.02V45.02H47.4678V46.02H48.4678ZM48.8398 46.02H49.8398V45.02H48.8398V46.02ZM48.8398 49.356V50.356H49.8398V49.356H48.8398ZM48.4678 49.356H47.4678V50.356H48.4678V49.356ZM48.4678 48.3H49.4678V47.3H48.4678V48.3ZM47.6598 48.3V47.3H46.9992L46.74 47.9076L47.6598 48.3ZM46.4718 49.204H45.4718V50.2117L46.4795 50.204L46.4718 49.204ZM46.4718 48.832L46.4404 47.8325L45.4718 47.863V48.832H46.4718ZM47.4998 46.484H48.4998V45.484H47.4998V46.484ZM46.4718 46.484H45.4718V47.484H46.4718V46.484ZM46.4718 46.124V45.124H45.4718V46.124H46.4718ZM47.8838 46.124H48.8838V45.124H47.8838V46.124ZM47.8838 46.856H46.8838V47.856H47.8838V46.856ZM47.7798 47.932L46.8129 47.6766L46.4813 48.932H47.7798V47.932ZM48.4678 47.932V48.932H49.4678V47.932H48.4678ZM48.4678 47.224H49.4678V46.224H48.4678V47.224ZM47.8798 47.224V46.224H46.9256L46.8809 47.1772L47.8798 47.224ZM49.3078 46V47H49.6798V46V45H49.3078V46ZM49.6798 46H48.6798V49.416H49.6798H50.6798V46H49.6798ZM49.6798 49.416V48.416H49.3078V49.416V50.416H49.6798V49.416ZM49.3078 49.416H50.3078V46H49.3078H48.3078V49.416H49.3078ZM48.4678 46.856H49.4678V46.02H48.4678H47.4678V46.856H48.4678ZM48.4678 46.02V47.02H48.8398V46.02V45.02H48.4678V46.02ZM48.8398 46.02H47.8398V49.356H48.8398H49.8398V46.02H48.8398ZM48.8398 49.356V48.356H48.4678V49.356V50.356H48.8398V49.356ZM48.4678 49.356H49.4678V48.3H48.4678H47.4678V49.356H48.4678ZM48.4678 48.3V47.3H47.6598V48.3V49.3H48.4678V48.3ZM47.6598 48.3L46.74 47.9076C46.6719 48.0673 46.6009 48.1408 46.5621 48.1705C46.5306 48.1945 46.5044 48.2037 46.4641 48.204L46.4718 49.204L46.4795 50.204C47.4956 50.1962 48.2221 49.5305 48.5796 48.6924L47.6598 48.3ZM46.4718 49.204H47.4718V48.832H46.4718H45.4718V49.204H46.4718ZM46.4718 48.832L46.5032 49.8315C47.2385 49.8084 47.7788 49.3761 48.0903 48.8364C48.385 48.326 48.4998 47.6975 48.4998 47.064H47.4998H46.4998C46.4998 47.4865 46.4186 47.732 46.3582 47.8366C46.3315 47.8828 46.3216 47.88 46.3457 47.864C46.3753 47.8442 46.413 47.8334 46.4404 47.8325L46.4718 48.832ZM47.4998 47.064H48.4998V46.484H47.4998H46.4998V47.064H47.4998ZM47.4998 46.484V45.484H46.4718V46.484V47.484H47.4998V46.484ZM46.4718 46.484H47.4718V46.124H46.4718H45.4718V46.484H46.4718ZM46.4718 46.124V47.124H47.8838V46.124V45.124H46.4718V46.124ZM47.8838 46.124H46.8838V46.856H47.8838H48.8838V46.124H47.8838ZM47.8838 46.856V47.856H48.4678V46.856V45.856H47.8838V46.856ZM47.7798 47.932V48.932H48.4678V47.932V46.932H47.7798V47.932ZM48.4678 47.932H49.4678V47.224H48.4678H47.4678V47.932H48.4678ZM48.4678 47.224V46.224H47.8798V47.224V48.224H48.4678V47.224ZM47.8798 47.224L46.8809 47.1772C46.8712 47.383 46.8464 47.55 46.8129 47.6766L47.7798 47.932L48.7466 48.1874C48.8252 47.89 48.8643 47.577 48.8787 47.2708L47.8798 47.224Z" fill="white" mask="url(#path-18-outside-2_11_660)"/>
<path d="M33.2681 35.9485L33.5155 38.9176H34.7526" stroke="#2E5E4E" stroke-width="0.5"/>
<path d="M33.2681 40.4021H35.1237" stroke="#2E5E4E" stroke-width="0.5"/>
<path d="M35.4948 36.0723H37.1122C37.2696 36.0723 37.4256 36.0422 37.5717 35.9838L37.969 35.8248" stroke="#2E5E4E" stroke-width="0.5"/>
<path d="M32.897 34.3403L32.4978 34.1692C32.1898 34.0372 31.8582 33.9691 31.5231 33.9691H30.4227" stroke="#2E5E4E" stroke-width="0.5"/>
<path d="M35.3711 34.3403L35.7703 34.1692C36.0783 34.0372 36.4099 33.9691 36.7449 33.9691H37.8453" stroke="#2E5E4E" stroke-width="0.5"/>
<path d="M32.7733 36.0723H31.1558C30.9984 36.0723 30.8425 36.0422 30.6964 35.9838L30.299 35.8248" stroke="#2E5E4E" stroke-width="0.5"/>
<path d="M29.0619 40.6495C29.0619 40.6495 27.8814 37.6807 27.9485 35.701C27.9771 34.8555 28.2483 33.6101 28.4546 32.7699C28.5866 32.2326 29.0725 31.866 29.6258 31.866H38.8477C39.4205 31.866 39.9184 32.2588 40.0331 32.8199C40.2051 33.6607 40.424 34.8767 40.4433 35.701C40.4894 37.6713 39.4536 40.6495 39.4536 40.6495M29.0619 40.6495C29.0619 40.6495 28.6518 41.9598 27.9485 42.2577C26.6341 42.8145 26.4639 38.9175 26.4639 38.9175L27.1964 31.4883C27.2721 30.7198 27.9185 30.134 28.6907 30.134V30.134M29.0619 40.6495C29.0619 40.6495 32.0306 43 34.2577 43C36.4848 43 39.4536 40.6495 39.4536 40.6495M39.4536 40.6495C39.4536 40.6495 39.936 42.0162 40.6907 42.2577C42.0156 42.6817 41.9278 38.9175 41.9278 38.9175L40.6082 31.1099C40.513 30.5464 40.025 30.134 39.4536 30.134V30.134M28.6907 30.134L30.5464 27.1649M28.6907 30.134H39.4536M30.5464 27.1649H37.3505M30.5464 27.1649H27.533C27.0766 27.1649 26.6291 27.0387 26.24 26.8003L23.9619 25.404C23.7356 25.2653 23.8611 24.8638 24.1264 24.8562C25.0501 24.8299 26.2406 24.6341 26.4639 23.8247C26.5579 23.4839 26.4592 23.1115 26.2756 22.7578C25.8503 21.9382 25.9809 20.7871 26.8263 20.4159L28.7893 19.5542C29.6151 19.1916 30.5242 19.0617 31.4185 19.1783L34.0733 19.5246C35.1555 19.6657 36.1607 20.1607 36.9324 20.9324L37.9128 21.9128C38.1095 22.1095 38.3668 22.2342 38.643 22.2667L41.5042 22.6033C42.1073 22.6742 42.6838 22.8921 43.1831 23.2378L43.5329 23.4799C43.8448 23.6959 44.0309 24.0511 44.0309 24.4305V24.4305C44.0309 24.9499 43.6846 25.4055 43.1842 25.5445L37.3505 27.1649M37.3505 27.1649L39.4536 30.134" stroke="#2E5E4E" stroke-width="0.5"/>
</g>
<defs>
<filter id="filter0_d_11_660" x="0" y="0" width="68" height="68" filterUnits="userSpaceOnUse" color-interpolation-filters="sRGB">
<feFlood flood-opacity="0" result="BackgroundImageFix"/>
<feColorMatrix in="SourceAlpha" type="matrix" values="0 0 0 0 0 0 0 0 0 0 0 0 0 0 0 0 0 0 127 0" result="hardAlpha"/>
<feOffset/>
<feGaussianBlur stdDeviation="2"/>
<feComposite in2="hardAlpha" operator="out"/>
<feColorMatrix type="matrix" values="0 0 0 0 0.229671 0 0 0 0 0.229671 0 0 0 0 0.229671 0 0 0 0.2 0"/>
<feBlend mode="normal" in2="BackgroundImageFix" result="effect1_dropShadow_11_660"/>
<feBlend mode="normal" in="SourceGraphic" in2="effect1_dropShadow_11_660" result="shape"/>
</filter>
</defs>
</svg>
