<svg width="68" height="68" viewBox="0 0 68 68" fill="none" xmlns="http://www.w3.org/2000/svg">
<g filter="url(#filter0_d_11_567)">
<rect x="4" y="4" width="60" height="60" rx="30" fill="white" shape-rendering="crispEdges"/>
<rect x="7.5" y="7.5" width="53" height="53" rx="26.5" fill="white"/>
<rect x="7.5" y="7.5" width="53" height="53" rx="26.5" stroke="#6E4B2A" stroke-width="2"/>
<rect x="9.1" y="9.1" width="49.8" height="49.8" rx="24.9" fill="white"/>
<rect x="9.1" y="9.1" width="49.8" height="49.8" rx="24.9" stroke="#6E4B2A" stroke-width="0.2"/>
<path d="M11.8 35.2638V34.6818H16V35.2638H11.8ZM13.54 33.7938C13.54 33.9338 13.564 34.0598 13.612 34.1718C13.66 34.2798 13.728 34.3718 13.816 34.4478C13.904 34.5238 14.008 34.5818 14.128 34.6218C14.248 34.6618 14.378 34.6818 14.518 34.6818H16V35.2638H14.53C14.302 35.2638 14.092 35.2298 13.9 35.1618C13.704 35.0938 13.536 34.9978 13.396 34.8738C13.252 34.7458 13.14 34.5918 13.06 34.4118C12.98 34.2278 12.94 34.0218 12.94 33.7938C12.94 33.5658 12.98 33.3678 13.06 33.1998C13.14 33.0278 13.252 32.8818 13.396 32.7618C13.536 32.6418 13.704 32.5458 13.9 32.4738C14.092 32.4018 14.302 32.3518 14.53 32.3238L16 32.1438V32.7318L14.518 32.9178C14.378 32.9338 14.248 32.9638 14.128 33.0078C14.008 33.0478 13.906 33.1038 13.822 33.1758C13.734 33.2438 13.666 33.3298 13.618 33.4338C13.566 33.5338 13.54 33.6538 13.54 33.7938Z" fill="#6E4B2A"/>
<path d="M13.4745 29.0343L13.6137 28.4692L16.5266 29.1872L16.3873 29.7523L13.4745 29.0343ZM12.5557 28.8758C12.4508 28.85 12.375 28.7983 12.3282 28.7209C12.2784 28.6386 12.2665 28.545 12.2923 28.4401C12.3172 28.3392 12.3703 28.2657 12.4517 28.2199C12.5301 28.1692 12.6217 28.1567 12.7266 28.1826C12.8314 28.2084 12.9087 28.2625 12.9585 28.3448C13.0053 28.4222 13.0163 28.5115 12.9914 28.6124C12.9655 28.7173 12.9134 28.7951 12.835 28.8458C12.7537 28.8917 12.6606 28.9017 12.5557 28.8758Z" fill="#6E4B2A"/>
<path d="M16.3038 24.5709C16.4283 24.3336 16.4841 24.137 16.471 23.9811C16.4599 23.8216 16.359 23.6738 16.1684 23.5377L15.6653 23.1923L15.9358 22.6769L16.4283 23.0167C16.6507 23.1696 16.8052 23.3185 16.8918 23.4633C16.9768 23.6028 17.0051 23.7554 16.9768 23.9212C17.088 23.8125 17.2341 23.7536 17.415 23.7447C17.5959 23.7357 17.8018 23.7738 18.0327 23.8588L18.5921 24.0711L18.3217 24.5864L17.7516 24.3686C17.5296 24.2837 17.3499 24.2819 17.2123 24.3633C17.0747 24.4447 16.9436 24.6041 16.8191 24.8414L16.5291 25.3939L17.6023 25.9571L17.3318 26.4725L13.6129 24.5206L13.8834 24.0053L16.0138 25.1234L16.3038 24.5709Z" fill="#6E4B2A"/>
<path d="M19.3553 19.5543C19.2218 19.5482 19.0916 19.5745 18.9648 19.6332C18.8377 19.6862 18.7237 19.7696 18.6229 19.8834C18.4584 20.069 18.3742 20.2697 18.3703 20.4852C18.3663 20.7008 18.4351 20.9007 18.5766 21.0848L19.3553 19.5543ZM18.3493 21.6851C18.1787 21.5339 18.0454 21.3677 17.9494 21.1865C17.8531 20.9997 17.7963 20.8104 17.779 20.6188C17.7614 20.4215 17.785 20.2259 17.8498 20.0322C17.9146 19.8384 18.0226 19.6562 18.1738 19.4855C18.3011 19.3418 18.4416 19.2285 18.5953 19.1455C18.7459 19.0599 18.9026 19.0037 19.0653 18.9768C19.2251 18.9473 19.3867 18.9489 19.5502 18.9815C19.7163 19.0111 19.877 19.068 20.0323 19.1521L20.1625 19.2675L19.0355 21.4353C19.2127 21.5068 19.3906 21.5201 19.5693 21.4753C19.7506 21.4275 19.9141 21.3213 20.06 21.1566C20.198 21.0009 20.2784 20.8317 20.3014 20.649C20.3243 20.4662 20.2939 20.2924 20.2103 20.1274L20.6161 19.6693C20.7183 19.8133 20.7942 19.966 20.8436 20.1274C20.8957 20.2857 20.9182 20.4473 20.9112 20.6121C20.9011 20.7742 20.8642 20.9365 20.8004 21.0991C20.7335 21.259 20.6365 21.4108 20.5091 21.5545C20.3579 21.7251 20.1916 21.8556 20.01 21.946C19.8285 22.0363 19.6432 22.0886 19.4542 22.1028C19.2649 22.1115 19.0747 22.0819 18.8835 22.0141C18.6951 21.9433 18.517 21.8337 18.3493 21.6851Z" fill="#6E4B2A"/>
<path d="M22.9291 16.0883C22.6757 16.2633 22.5227 16.4782 22.4702 16.7331C22.4188 16.9825 22.4771 17.229 22.6453 17.4726L23.4871 18.6923L23.0082 19.0229L22.1731 17.8131C22.0436 17.6255 21.9539 17.4322 21.9041 17.2333C21.8553 17.0288 21.8455 16.8314 21.8746 16.6412C21.9047 16.4455 21.9744 16.2613 22.0837 16.0886C22.1929 15.916 22.3414 15.7649 22.529 15.6354C22.6706 15.5377 22.8159 15.4666 22.965 15.422L23.299 15.9059C23.235 15.9258 23.1711 15.9529 23.1073 15.9872C23.0445 16.016 22.9851 16.0497 22.9291 16.0883Z" fill="#6E4B2A"/>
<path d="M25.8362 13.0207C25.7908 12.901 25.789 12.7947 25.8308 12.7019C25.8749 12.6039 25.953 12.5336 26.0652 12.491C26.1812 12.4471 26.2863 12.4479 26.3806 12.4934C26.4772 12.5338 26.5481 12.6138 26.5935 12.7335C26.6432 12.8644 26.6526 13.002 26.6218 13.1463L26.5432 13.5483L26.1561 13.6951L26.2381 13.2853C26.1568 13.3077 26.079 13.2944 26.0048 13.2455C25.9293 13.1929 25.873 13.1179 25.8362 13.0207Z" fill="#6E4B2A"/>
<path d="M31.9179 15.3078C31.4414 15.3657 31.0561 15.3118 30.762 15.146C30.4714 14.9758 30.2895 14.7057 30.2164 14.3359L30.8239 14.2621C30.8674 14.4543 30.9724 14.5886 31.1388 14.6651C31.3087 14.7371 31.5585 14.7531 31.888 14.7131C32.1422 14.6823 32.3354 14.6306 32.4676 14.5581C32.5993 14.4817 32.6582 14.3859 32.6442 14.2707C32.6168 14.0444 32.293 13.9669 31.6731 14.0381C31.1763 14.0944 30.7988 14.0717 30.5407 13.9701C30.2825 13.8685 30.1363 13.6767 30.1021 13.3948C30.0838 13.2439 30.1009 13.1028 30.1535 12.9715C30.21 12.8397 30.2945 12.7227 30.407 12.6204C30.5235 12.5176 30.6684 12.4335 30.8418 12.3681C31.0147 12.2988 31.2103 12.2509 31.4287 12.2243C31.8933 12.1679 32.2689 12.2251 32.5556 12.3958C32.8462 12.566 33.0298 12.8338 33.1064 13.1992L32.493 13.2737C32.45 13.0855 32.3455 12.9552 32.1795 12.8826C32.0171 12.8057 31.7849 12.7855 31.4832 12.8221C31.2171 12.8544 31.013 12.9155 30.8708 13.0053C30.7281 13.0911 30.6644 13.1976 30.6799 13.3246C30.6934 13.4358 30.7705 13.507 30.9113 13.5383C31.0516 13.5656 31.2831 13.5637 31.6057 13.5325C32.1467 13.4749 32.542 13.4954 32.7917 13.594C33.0449 13.6882 33.1884 13.8743 33.2222 14.1522C33.2603 14.4659 33.1626 14.7236 32.9292 14.9252C32.6958 15.1268 32.3587 15.2543 31.9179 15.3078Z" fill="#6E4B2A"/>
<path d="M40.7734 16.2274C40.5602 16.1465 40.3785 16.0391 40.2282 15.9051C40.0794 15.7674 39.9648 15.6127 39.8844 15.4411C39.8092 15.2671 39.7694 15.0787 39.765 14.876C39.7644 14.6747 39.8045 14.4674 39.8853 14.2543C39.9662 14.0411 40.0743 13.8575 40.2097 13.7035C40.3503 13.5472 40.5071 13.427 40.6802 13.3429C40.8584 13.2565 41.0496 13.2092 41.2537 13.2011C41.4579 13.1929 41.6666 13.2293 41.8797 13.3101C42.0929 13.391 42.2732 13.5021 42.4206 13.6436C42.568 13.7851 42.6779 13.9465 42.7503 14.128C42.8278 14.3071 42.8655 14.5011 42.8633 14.7099C42.8663 14.9163 42.8273 15.1262 42.7465 15.3394C42.6656 15.5525 42.5563 15.7335 42.4186 15.8824C42.2846 16.0326 42.1299 16.1472 41.9546 16.2262C41.7843 16.3028 41.5978 16.3433 41.3951 16.3477C41.1938 16.3483 40.9866 16.3082 40.7734 16.2274ZM40.9861 15.6664C41.2517 15.7671 41.4954 15.7675 41.7172 15.6677C41.939 15.5679 42.1002 15.3852 42.201 15.1196C42.2506 14.9887 42.2743 14.8587 42.2719 14.7294C42.2733 14.6016 42.2504 14.4817 42.203 14.3696C42.1594 14.259 42.0919 14.1606 42.0005 14.0746C41.909 13.9886 41.7979 13.9208 41.667 13.8711C41.5361 13.8215 41.4079 13.7985 41.2824 13.8023C41.1569 13.806 41.0393 13.8342 40.9295 13.8867C40.8198 13.9391 40.7212 14.013 40.6338 14.1082C40.5501 14.2048 40.4834 14.3185 40.4338 14.4494C40.3331 14.715 40.3326 14.9586 40.4325 15.1805C40.536 15.4037 40.7206 15.5657 40.9861 15.6664Z" fill="#6E4B2A"/>
<path d="M46.1729 16.1588C46.0577 16.0793 45.9404 16.0275 45.8209 16.0033C45.7048 15.9815 45.5904 15.9852 45.4779 16.0144C45.3654 16.0437 45.2585 16.0963 45.1575 16.1724C45.0564 16.2484 44.9661 16.344 44.8865 16.4592L44.0447 17.6789L43.5657 17.3483L44.4007 16.1385C44.5303 15.9509 44.6775 15.7974 44.8426 15.678C45.0099 15.5553 45.1843 15.4716 45.3659 15.4268C45.553 15.381 45.7434 15.3763 45.937 15.4127C46.1338 15.4514 46.3261 15.5355 46.5137 15.665C46.7014 15.7945 46.8416 15.9399 46.9344 16.1012C47.0305 16.2648 47.0871 16.4399 47.104 16.6265C47.1233 16.8099 47.1068 17.0027 47.0547 17.2049C47.0049 17.4038 46.9268 17.6051 46.8203 17.8086L46.1334 19.1207L45.6495 18.7866L46.3383 17.4613C46.4046 17.337 46.4538 17.213 46.4858 17.0892C46.521 16.9677 46.5329 16.852 46.5213 16.742C46.5153 16.6309 46.4832 16.5261 46.4249 16.4275C46.3721 16.3279 46.2881 16.2383 46.1729 16.1588Z" fill="#6E4B2A"/>
<path d="M51.5798 25.0258L51.0538 25.3019C50.7337 24.8555 50.6001 24.4761 50.653 24.1638C50.7078 23.855 50.9512 23.5871 51.3833 23.3604L54.045 21.9634L54.3154 22.4787L51.6431 23.8813C51.5227 23.9445 51.4355 24.0151 51.3816 24.0931C51.3277 24.1711 51.3007 24.2575 51.3008 24.3523C51.3009 24.4471 51.3253 24.5495 51.374 24.6595C51.4245 24.773 51.4931 24.8951 51.5798 25.0258ZM53.6368 23.5871L53.0958 22.5564L53.5774 22.2088L54.1574 23.3138L53.6368 23.5871Z" fill="#6E4B2A"/>
<path d="M52.3362 28.8811C52.2816 28.6597 52.2668 28.4492 52.2917 28.2494C52.3205 28.0487 52.3827 27.8665 52.4784 27.7028C52.5788 27.5421 52.7112 27.4024 52.8756 27.2836C53.0409 27.1687 53.2342 27.084 53.4556 27.0294C53.677 26.9748 53.8895 26.9595 54.0931 26.9835C54.3016 27.0104 54.4896 27.0712 54.6571 27.1658C54.8295 27.2634 54.977 27.3939 55.0997 27.5573C55.2224 27.7207 55.311 27.9131 55.3655 28.1344C55.4201 28.3558 55.431 28.5673 55.3984 28.769C55.3657 28.9707 55.2952 29.1529 55.187 29.3155C55.0836 29.481 54.9454 29.6222 54.7723 29.739C54.6041 29.8588 54.4093 29.9459 54.1879 30.0005C53.9665 30.0551 53.7555 30.0679 53.5547 30.0391C53.355 30.0142 53.1728 29.952 53.0082 29.8525C52.8484 29.7559 52.7092 29.6255 52.5904 29.4611C52.4755 29.2958 52.3908 29.1025 52.3362 28.8811ZM52.9188 28.7375C52.9867 29.0133 53.1248 29.2141 53.333 29.3399C53.5411 29.4657 53.7831 29.4947 54.0588 29.4267C54.1948 29.3932 54.3152 29.3388 54.4203 29.2635C54.5262 29.192 54.6119 29.105 54.6773 29.0024C54.7435 28.9036 54.7861 28.7922 54.805 28.6681C54.8238 28.544 54.8165 28.414 54.783 28.278C54.7495 28.1421 54.6955 28.0236 54.6212 27.9224C54.5468 27.8213 54.4568 27.7405 54.3513 27.68C54.2458 27.6195 54.129 27.5803 54.001 27.5624C53.8739 27.5484 53.7425 27.5581 53.6065 27.5916C53.3308 27.6596 53.13 27.7977 53.0041 28.0058C52.8793 28.2179 52.8508 28.4618 52.9188 28.7375Z" fill="#6E4B2A"/>
<path d="M56.06 33.3998C56.06 33.6278 56.022 33.8358 55.946 34.0238C55.874 34.2118 55.77 34.3718 55.634 34.5038C55.502 34.6398 55.342 34.7438 55.154 34.8158C54.966 34.8918 54.758 34.9298 54.53 34.9298C54.302 34.9298 54.09 34.8918 53.894 34.8158C53.702 34.7438 53.534 34.6398 53.39 34.5038C53.25 34.3718 53.14 34.2118 53.06 34.0238C52.98 33.8358 52.94 33.6278 52.94 33.3998C52.94 33.1718 52.98 32.9638 53.06 32.7758C53.14 32.5878 53.25 32.4258 53.39 32.2898C53.534 32.1578 53.702 32.0538 53.894 31.9778C54.09 31.9058 54.302 31.8698 54.53 31.8698C54.758 31.8698 54.966 31.9058 55.154 31.9778C55.342 32.0538 55.502 32.1578 55.634 32.2898C55.77 32.4258 55.874 32.5878 55.946 32.7758C56.022 32.9638 56.06 33.1718 56.06 33.3998ZM51.8 32.4578V31.8698H56V32.4578H51.8ZM55.46 33.3998C55.46 33.1158 55.374 32.8878 55.202 32.7158C55.03 32.5438 54.802 32.4578 54.518 32.4578C54.378 32.4578 54.248 32.4798 54.128 32.5238C54.008 32.5718 53.904 32.6358 53.816 32.7158C53.732 32.7998 53.664 32.8998 53.612 33.0158C53.564 33.1318 53.54 33.2598 53.54 33.3998C53.54 33.5398 53.564 33.6678 53.612 33.7838C53.664 33.8998 53.732 33.9978 53.816 34.0778C53.904 34.1618 54.008 34.2258 54.128 34.2698C54.248 34.3178 54.378 34.3418 54.518 34.3418C54.802 34.3418 55.03 34.2558 55.202 34.0838C55.374 33.9118 55.46 33.6838 55.46 33.3998Z" fill="#6E4B2A"/>
<mask id="path-16-outside-1_11_567" maskUnits="userSpaceOnUse" x="24" y="49" width="20" height="8" fill="black">
<rect fill="white" x="24" y="49" width="20" height="8"/>
<path d="M29.26 53.044V51.808H28.336V50.92H29.26V50.5H30.274V53.044H29.26ZM27.058 52.21C26.638 52.708 26.02 53.038 25.282 53.08V52.192C26.08 52.096 26.62 51.412 26.638 50.524L27.658 50.584C27.658 50.902 27.598 51.208 27.49 51.49L28.84 52.324L28.324 53.014L27.058 52.21ZM26.698 54.928H30.328V55.624H25.696V54.118H29.272V53.92H25.684V53.224H30.274V54.73H26.698V54.928ZM36.4775 51.436V52.408H35.8775V53.548H34.8635V50.5H35.8775V51.436H36.4775ZM32.6555 53.446C31.6715 53.446 31.0055 52.84 31.0055 51.976C31.0055 51.118 31.6715 50.506 32.6555 50.506C33.6395 50.506 34.3055 51.118 34.3055 51.976C34.3055 52.84 33.6395 53.446 32.6555 53.446ZM32.6555 51.34C32.2715 51.34 32.0135 51.58 32.0135 51.976C32.0135 52.372 32.2715 52.612 32.6555 52.612C33.0335 52.612 33.2975 52.372 33.2975 51.976C33.2975 51.58 33.0335 51.34 32.6555 51.34ZM31.3895 54.598V53.728H35.8775V55.684H34.8455V54.598H31.3895ZM41.649 51.466H42.249V52.45H41.649V54.292H40.635V50.5H41.649V51.466ZM38.625 52.534C38.199 53.146 37.575 53.56 36.837 53.596V52.654C37.647 52.558 38.181 51.652 38.199 50.524L39.219 50.584C39.219 50.98 39.153 51.37 39.027 51.73L40.485 52.816L39.879 53.524L38.625 52.534ZM38.157 53.83V54.712H41.721V55.624H37.125V53.83H38.157Z"/>
</mask>
<path d="M29.26 53.044V51.808H28.336V50.92H29.26V50.5H30.274V53.044H29.26ZM27.058 52.21C26.638 52.708 26.02 53.038 25.282 53.08V52.192C26.08 52.096 26.62 51.412 26.638 50.524L27.658 50.584C27.658 50.902 27.598 51.208 27.49 51.49L28.84 52.324L28.324 53.014L27.058 52.21ZM26.698 54.928H30.328V55.624H25.696V54.118H29.272V53.92H25.684V53.224H30.274V54.73H26.698V54.928ZM36.4775 51.436V52.408H35.8775V53.548H34.8635V50.5H35.8775V51.436H36.4775ZM32.6555 53.446C31.6715 53.446 31.0055 52.84 31.0055 51.976C31.0055 51.118 31.6715 50.506 32.6555 50.506C33.6395 50.506 34.3055 51.118 34.3055 51.976C34.3055 52.84 33.6395 53.446 32.6555 53.446ZM32.6555 51.34C32.2715 51.34 32.0135 51.58 32.0135 51.976C32.0135 52.372 32.2715 52.612 32.6555 52.612C33.0335 52.612 33.2975 52.372 33.2975 51.976C33.2975 51.58 33.0335 51.34 32.6555 51.34ZM31.3895 54.598V53.728H35.8775V55.684H34.8455V54.598H31.3895ZM41.649 51.466H42.249V52.45H41.649V54.292H40.635V50.5H41.649V51.466ZM38.625 52.534C38.199 53.146 37.575 53.56 36.837 53.596V52.654C37.647 52.558 38.181 51.652 38.199 50.524L39.219 50.584C39.219 50.98 39.153 51.37 39.027 51.73L40.485 52.816L39.879 53.524L38.625 52.534ZM38.157 53.83V54.712H41.721V55.624H37.125V53.83H38.157Z" fill="#6E4B2A"/>
<path d="M29.26 53.044H28.26V54.044H29.26V53.044ZM29.26 51.808H30.26V50.808H29.26V51.808ZM28.336 51.808H27.336V52.808H28.336V51.808ZM28.336 50.92V49.92H27.336V50.92H28.336ZM29.26 50.92V51.92H30.26V50.92H29.26ZM29.26 50.5V49.5H28.26V50.5H29.26ZM30.274 50.5H31.274V49.5H30.274V50.5ZM30.274 53.044V54.044H31.274V53.044H30.274ZM27.058 52.21L27.5941 51.3658L26.8567 50.8976L26.2936 51.5653L27.058 52.21ZM25.282 53.08H24.282V54.1385L25.3388 54.0784L25.282 53.08ZM25.282 52.192L25.1626 51.1992L24.282 51.3051V52.192H25.282ZM26.638 50.524L26.6967 49.5257L25.6593 49.4647L25.6382 50.5037L26.638 50.524ZM27.658 50.584H28.658V49.6411L27.7167 49.5857L27.658 50.584ZM27.49 51.49L26.5561 51.1324L26.26 51.9056L26.9644 52.3407L27.49 51.49ZM28.84 52.324L29.6408 52.9229L30.2954 52.0477L29.3656 51.4733L28.84 52.324ZM28.324 53.014L27.7879 53.8582L28.57 54.3548L29.1248 53.6129L28.324 53.014ZM26.698 54.928H25.698V55.928H26.698V54.928ZM30.328 54.928H31.328V53.928H30.328V54.928ZM30.328 55.624V56.624H31.328V55.624H30.328ZM25.696 55.624H24.696V56.624H25.696V55.624ZM25.696 54.118V53.118H24.696V54.118H25.696ZM29.272 54.118V55.118H30.272V54.118H29.272ZM29.272 53.92H30.272V52.92H29.272V53.92ZM25.684 53.92H24.684V54.92H25.684V53.92ZM25.684 53.224V52.224H24.684V53.224H25.684ZM30.274 53.224H31.274V52.224H30.274V53.224ZM30.274 54.73V55.73H31.274V54.73H30.274ZM26.698 54.73V53.73H25.698V54.73H26.698ZM29.26 53.044H30.26V51.808H29.26H28.26V53.044H29.26ZM29.26 51.808V50.808H28.336V51.808V52.808H29.26V51.808ZM28.336 51.808H29.336V50.92H28.336H27.336V51.808H28.336ZM28.336 50.92V51.92H29.26V50.92V49.92H28.336V50.92ZM29.26 50.92H30.26V50.5H29.26H28.26V50.92H29.26ZM29.26 50.5V51.5H30.274V50.5V49.5H29.26V50.5ZM30.274 50.5H29.274V53.044H30.274H31.274V50.5H30.274ZM30.274 53.044V52.044H29.26V53.044V54.044H30.274V53.044ZM27.058 52.21L26.2936 51.5653C26.0497 51.8544 25.6871 52.0553 25.2252 52.0816L25.282 53.08L25.3388 54.0784C26.3529 54.0207 27.2263 53.5616 27.8224 52.8547L27.058 52.21ZM25.282 53.08H26.282V52.192H25.282H24.282V53.08H25.282ZM25.282 52.192L25.4014 53.1848C26.7912 53.0177 27.6118 51.8262 27.6378 50.5443L26.638 50.524L25.6382 50.5037C25.6282 50.9978 25.3688 51.1743 25.1626 51.1992L25.282 52.192ZM26.638 50.524L26.5793 51.5223L27.5993 51.5823L27.658 50.584L27.7167 49.5857L26.6967 49.5257L26.638 50.524ZM27.658 50.584H26.658C26.658 50.7756 26.6219 50.9606 26.5561 51.1324L27.49 51.49L28.4239 51.8476C28.5741 51.4554 28.658 51.0284 28.658 50.584H27.658ZM27.49 51.49L26.9644 52.3407L28.3144 53.1747L28.84 52.324L29.3656 51.4733L28.0156 50.6393L27.49 51.49ZM28.84 52.324L28.0392 51.7251L27.5232 52.4151L28.324 53.014L29.1248 53.6129L29.6408 52.9229L28.84 52.324ZM28.324 53.014L28.8601 52.1698L27.5941 51.3658L27.058 52.21L26.5219 53.0542L27.7879 53.8582L28.324 53.014ZM26.698 54.928V55.928H30.328V54.928V53.928H26.698V54.928ZM30.328 54.928H29.328V55.624H30.328H31.328V54.928H30.328ZM30.328 55.624V54.624H25.696V55.624V56.624H30.328V55.624ZM25.696 55.624H26.696V54.118H25.696H24.696V55.624H25.696ZM25.696 54.118V55.118H29.272V54.118V53.118H25.696V54.118ZM29.272 54.118H30.272V53.92H29.272H28.272V54.118H29.272ZM29.272 53.92V52.92H25.684V53.92V54.92H29.272V53.92ZM25.684 53.92H26.684V53.224H25.684H24.684V53.92H25.684ZM25.684 53.224V54.224H30.274V53.224V52.224H25.684V53.224ZM30.274 53.224H29.274V54.73H30.274H31.274V53.224H30.274ZM30.274 54.73V53.73H26.698V54.73V55.73H30.274V54.73ZM26.698 54.73H25.698V54.928H26.698H27.698V54.73H26.698ZM36.4775 51.436H37.4775V50.436H36.4775V51.436ZM36.4775 52.408V53.408H37.4775V52.408H36.4775ZM35.8775 52.408V51.408H34.8775V52.408H35.8775ZM35.8775 53.548V54.548H36.8775V53.548H35.8775ZM34.8635 53.548H33.8635V54.548H34.8635V53.548ZM34.8635 50.5V49.5H33.8635V50.5H34.8635ZM35.8775 50.5H36.8775V49.5H35.8775V50.5ZM35.8775 51.436H34.8775V52.436H35.8775V51.436ZM31.3895 54.598H30.3895V55.598H31.3895V54.598ZM31.3895 53.728V52.728H30.3895V53.728H31.3895ZM35.8775 53.728H36.8775V52.728H35.8775V53.728ZM35.8775 55.684V56.684H36.8775V55.684H35.8775ZM34.8455 55.684H33.8455V56.684H34.8455V55.684ZM34.8455 54.598H35.8455V53.598H34.8455V54.598ZM36.4775 51.436H35.4775V52.408H36.4775H37.4775V51.436H36.4775ZM36.4775 52.408V51.408H35.8775V52.408V53.408H36.4775V52.408ZM35.8775 52.408H34.8775V53.548H35.8775H36.8775V52.408H35.8775ZM35.8775 53.548V52.548H34.8635V53.548V54.548H35.8775V53.548ZM34.8635 53.548H35.8635V50.5H34.8635H33.8635V53.548H34.8635ZM34.8635 50.5V51.5H35.8775V50.5V49.5H34.8635V50.5ZM35.8775 50.5H34.8775V51.436H35.8775H36.8775V50.5H35.8775ZM35.8775 51.436V52.436H36.4775V51.436V50.436H35.8775V51.436ZM32.6555 53.446V52.446C32.3675 52.446 32.2057 52.3592 32.129 52.2904C32.0602 52.2288 32.0055 52.1364 32.0055 51.976H31.0055H30.0055C30.0055 52.6796 30.2837 53.3222 30.794 53.7796C31.2962 54.2298 31.9595 54.446 32.6555 54.446V53.446ZM31.0055 51.976H32.0055C32.0055 51.8201 32.0593 51.7265 32.13 51.6629C32.2081 51.5928 32.37 51.506 32.6555 51.506V50.506V49.506C31.9569 49.506 31.2939 49.7252 30.7929 50.1756C30.2847 50.6325 30.0055 51.2739 30.0055 51.976H31.0055ZM32.6555 50.506V51.506C32.9409 51.506 33.1029 51.5928 33.1809 51.6629C33.2517 51.7265 33.3055 51.8201 33.3055 51.976H34.3055H35.3055C35.3055 51.2739 35.0263 50.6325 34.518 50.1756C34.0171 49.7252 33.354 49.506 32.6555 49.506V50.506ZM34.3055 51.976H33.3055C33.3055 52.1364 33.2507 52.2288 33.182 52.2904C33.1052 52.3592 32.9435 52.446 32.6555 52.446V53.446V54.446C33.3515 54.446 34.0147 54.2298 34.517 53.7796C35.0272 53.3222 35.3055 52.6796 35.3055 51.976H34.3055ZM32.6555 51.34V50.34C32.2544 50.34 31.8261 50.4687 31.493 50.7929C31.1561 51.1208 31.0135 51.5546 31.0135 51.976H32.0135H33.0135C33.0135 52.0014 32.9998 52.1172 32.888 52.2261C32.7799 52.3313 32.6726 52.34 32.6555 52.34V51.34ZM32.0135 51.976H31.0135C31.0135 52.3974 31.1561 52.8312 31.493 53.1591C31.8261 53.4833 32.2544 53.612 32.6555 53.612V52.612V51.612C32.6726 51.612 32.7799 51.6207 32.888 51.7259C32.9998 51.8348 33.0135 51.9506 33.0135 51.976H32.0135ZM32.6555 52.612V53.612C33.0569 53.612 33.4824 53.4814 33.8133 53.1614C34.1491 52.8368 34.2975 52.404 34.2975 51.976H33.2975H32.2975C32.2975 51.944 32.3139 51.8292 32.4231 51.7236C32.5276 51.6226 32.6321 51.612 32.6555 51.612V52.612ZM33.2975 51.976H34.2975C34.2975 51.548 34.1491 51.1152 33.8133 50.7906C33.4824 50.4706 33.0569 50.34 32.6555 50.34V51.34V52.34C32.6321 52.34 32.5276 52.3294 32.4231 52.2284C32.3139 52.1228 32.2975 52.008 32.2975 51.976H33.2975ZM31.3895 54.598H32.3895V53.728H31.3895H30.3895V54.598H31.3895ZM31.3895 53.728V54.728H35.8775V53.728V52.728H31.3895V53.728ZM35.8775 53.728H34.8775V55.684H35.8775H36.8775V53.728H35.8775ZM35.8775 55.684V54.684H34.8455V55.684V56.684H35.8775V55.684ZM34.8455 55.684H35.8455V54.598H34.8455H33.8455V55.684H34.8455ZM34.8455 54.598V53.598H31.3895V54.598V55.598H34.8455V54.598ZM41.649 51.466H40.649V52.466H41.649V51.466ZM42.249 51.466H43.249V50.466H42.249V51.466ZM42.249 52.45V53.45H43.249V52.45H42.249ZM41.649 52.45V51.45H40.649V52.45H41.649ZM41.649 54.292V55.292H42.649V54.292H41.649ZM40.635 54.292H39.635V55.292H40.635V54.292ZM40.635 50.5V49.5H39.635V50.5H40.635ZM41.649 50.5H42.649V49.5H41.649V50.5ZM38.625 52.534L39.2446 51.7491L38.411 51.091L37.8042 51.9627L38.625 52.534ZM36.837 53.596H35.837V54.646L36.8857 54.5948L36.837 53.596ZM36.837 52.654L36.7193 51.6609L35.837 51.7655V52.654H36.837ZM38.199 50.524L38.2577 49.5257L37.2157 49.4644L37.1991 50.508L38.199 50.524ZM39.219 50.584H40.219V49.6411L39.2777 49.5857L39.219 50.584ZM39.027 51.73L38.0831 51.3996L37.8404 52.0931L38.4296 52.532L39.027 51.73ZM40.485 52.816L41.2447 53.4663L41.9405 52.6533L41.0823 52.014L40.485 52.816ZM39.879 53.524L39.2593 54.3089L40.0137 54.9044L40.6387 54.1743L39.879 53.524ZM38.157 53.83H39.157V52.83H38.157V53.83ZM38.157 54.712H37.157V55.712H38.157V54.712ZM41.721 54.712H42.721V53.712H41.721V54.712ZM41.721 55.624V56.624H42.721V55.624H41.721ZM37.125 55.624H36.125V56.624H37.125V55.624ZM37.125 53.83V52.83H36.125V53.83H37.125ZM41.649 51.466V52.466H42.249V51.466V50.466H41.649V51.466ZM42.249 51.466H41.249V52.45H42.249H43.249V51.466H42.249ZM42.249 52.45V51.45H41.649V52.45V53.45H42.249V52.45ZM41.649 52.45H40.649V54.292H41.649H42.649V52.45H41.649ZM41.649 54.292V53.292H40.635V54.292V55.292H41.649V54.292ZM40.635 54.292H41.635V50.5H40.635H39.635V54.292H40.635ZM40.635 50.5V51.5H41.649V50.5V49.5H40.635V50.5ZM41.649 50.5H40.649V51.466H41.649H42.649V50.5H41.649ZM38.625 52.534L37.8042 51.9627C37.5169 52.3755 37.155 52.5793 36.7882 52.5972L36.837 53.596L36.8857 54.5948C37.995 54.5407 38.881 53.9165 39.4457 53.1053L38.625 52.534ZM36.837 53.596H37.837V52.654H36.837H35.837V53.596H36.837ZM36.837 52.654L36.9547 53.647C37.7303 53.5551 38.3066 53.0766 38.6632 52.5057C39.0152 51.9419 39.1876 51.2468 39.1988 50.54L38.199 50.524L37.1991 50.508C37.1924 50.9292 37.0887 51.2511 36.9668 51.4463C36.8493 51.6344 36.7537 51.6569 36.7193 51.6609L36.837 52.654ZM38.199 50.524L38.1402 51.5223L39.1602 51.5823L39.219 50.584L39.2777 49.5857L38.2577 49.5257L38.199 50.524ZM39.219 50.584H38.219C38.219 50.8701 38.1711 51.1483 38.0831 51.3996L39.027 51.73L39.9708 52.0604C40.1348 51.5917 40.219 51.0899 40.219 50.584H39.219ZM39.027 51.73L38.4296 52.532L39.8876 53.618L40.485 52.816L41.0823 52.014L39.6243 50.928L39.027 51.73ZM40.485 52.816L39.7253 52.1657L39.1193 52.8737L39.879 53.524L40.6387 54.1743L41.2447 53.4663L40.485 52.816ZM39.879 53.524L40.4986 52.7391L39.2446 51.7491L38.625 52.534L38.0053 53.3189L39.2593 54.3089L39.879 53.524ZM38.157 53.83H37.157V54.712H38.157H39.157V53.83H38.157ZM38.157 54.712V55.712H41.721V54.712V53.712H38.157V54.712ZM41.721 54.712H40.721V55.624H41.721H42.721V54.712H41.721ZM41.721 55.624V54.624H37.125V55.624V56.624H41.721V55.624ZM37.125 55.624H38.125V53.83H37.125H36.125V55.624H37.125ZM37.125 53.83V54.83H38.157V53.83V52.83H37.125V53.83Z" fill="white" mask="url(#path-16-outside-1_11_567)"/>
<mask id="path-18-outside-2_11_567" maskUnits="userSpaceOnUse" x="17" y="44" width="34" height="7" fill="black">
<rect fill="white" x="17" y="44" width="34" height="7"/>
<path d="M21.792 47.384V47.764H21.312V49.416H20.916V46H21.312V47.384H21.792ZM19.696 46.1C19.692 46.632 19.648 47.108 19.56 47.52L20.636 48.976L20.316 49.204L19.436 47.984C19.192 48.728 18.78 49.172 18.248 49.212V48.812C18.932 48.704 19.288 47.52 19.292 46.084L19.696 46.1ZM24.9797 46H25.3517V49.416H24.9797V46ZM24.1397 46.856V46.02H24.5117V49.356H24.1397V48.3H23.3317C23.0877 48.872 22.6637 49.2 22.1437 49.204V48.832C22.7797 48.812 23.1717 48.12 23.1717 47.064V46.484H22.1437V46.124H23.5557V46.856H24.1397ZM23.4517 47.932H24.1397V47.224H23.5517C23.5397 47.48 23.5077 47.72 23.4517 47.932ZM28.0713 46.628H28.7353V46H29.1313V47.704H28.7353V46.964H28.0713V46.628ZM27.0953 47.064C26.8593 47.392 26.4673 47.62 25.9833 47.676V47.348C26.5353 47.272 26.8873 46.912 26.9433 46.416H26.0273V46.088H28.2073V46.416H27.3393C27.3273 46.544 27.2993 46.664 27.2513 46.776L28.3273 47.36L28.1473 47.644L27.0953 47.064ZM26.6153 49.064H29.2153V49.372H26.2233V48.484H28.7393V48.2H26.2153V47.892H29.1313V48.776H26.6153V49.064ZM32.567 49.416V46H32.963V49.416H32.567ZM30.935 48.224C30.319 48.224 29.879 47.784 29.879 47.148C29.879 46.512 30.319 46.072 30.935 46.072C31.547 46.072 31.991 46.512 31.991 47.148C31.991 47.784 31.547 48.224 30.935 48.224ZM30.935 47.864C31.339 47.864 31.603 47.556 31.603 47.148C31.603 46.74 31.339 46.428 30.935 46.428C30.527 46.428 30.267 46.74 30.267 47.148C30.267 47.556 30.527 47.864 30.935 47.864ZM29.763 49.212V48.84H31.159C31.627 48.84 32.047 48.788 32.279 48.68V49.048C32.051 49.152 31.627 49.212 31.135 49.212H29.763ZM38.3037 47.384V47.764H37.8237V49.416H37.4277V46H37.8237V47.384H38.3037ZM35.8597 46.08C36.4557 46.08 36.8757 46.584 36.8757 47.668C36.8757 48.752 36.4557 49.256 35.8597 49.256C35.2597 49.256 34.8397 48.752 34.8397 47.668C34.8397 46.584 35.2597 46.08 35.8597 46.08ZM35.8597 48.892C36.2117 48.892 36.4797 48.536 36.4797 47.668C36.4797 46.804 36.2117 46.444 35.8597 46.444C35.5037 46.444 35.2357 46.804 35.2357 47.668C35.2357 48.536 35.5037 48.892 35.8597 48.892ZM38.8274 47.452V46.604H41.3594V46.336H38.8274V46.04H41.7474V46.888H39.2154V47.156H41.7954V47.452H38.8274ZM38.5794 48.048V47.74H41.9914V48.048H38.5794ZM38.8154 49.376V48.336H41.7514V49.376H38.8154ZM39.2074 49.076H41.3594V48.636H39.2074V49.076ZM45.999 47.384V47.764H45.519V49.416H45.123V46H45.519V47.384H45.999ZM42.991 48.852H43.943C44.267 48.852 44.619 48.788 44.827 48.688V49.048C44.619 49.152 44.251 49.212 43.923 49.212H42.587V46.124H44.559V46.484H42.991V48.852ZM47.9787 47.296C47.1507 47.296 46.4707 47.104 46.4707 46.636C46.4707 46.172 47.1507 45.98 47.9787 45.98C48.8067 45.98 49.4867 46.172 49.4867 46.636C49.4867 47.104 48.8067 47.296 47.9787 47.296ZM47.9787 46.292C47.3827 46.292 46.8907 46.4 46.8907 46.636C46.8907 46.876 47.3827 46.98 47.9787 46.98C48.5747 46.98 49.0667 46.876 49.0667 46.636C49.0667 46.4 48.5747 46.292 47.9787 46.292ZM49.6867 47.864H48.1747V48.216H49.4467V49.376H46.5107V48.216H47.7827V47.864H46.2747V47.544H49.6867V47.864ZM49.0547 49.06V48.532H46.9067V49.06H49.0547Z"/>
</mask>
<path d="M21.792 47.384V47.764H21.312V49.416H20.916V46H21.312V47.384H21.792ZM19.696 46.1C19.692 46.632 19.648 47.108 19.56 47.52L20.636 48.976L20.316 49.204L19.436 47.984C19.192 48.728 18.78 49.172 18.248 49.212V48.812C18.932 48.704 19.288 47.52 19.292 46.084L19.696 46.1ZM24.9797 46H25.3517V49.416H24.9797V46ZM24.1397 46.856V46.02H24.5117V49.356H24.1397V48.3H23.3317C23.0877 48.872 22.6637 49.2 22.1437 49.204V48.832C22.7797 48.812 23.1717 48.12 23.1717 47.064V46.484H22.1437V46.124H23.5557V46.856H24.1397ZM23.4517 47.932H24.1397V47.224H23.5517C23.5397 47.48 23.5077 47.72 23.4517 47.932ZM28.0713 46.628H28.7353V46H29.1313V47.704H28.7353V46.964H28.0713V46.628ZM27.0953 47.064C26.8593 47.392 26.4673 47.62 25.9833 47.676V47.348C26.5353 47.272 26.8873 46.912 26.9433 46.416H26.0273V46.088H28.2073V46.416H27.3393C27.3273 46.544 27.2993 46.664 27.2513 46.776L28.3273 47.36L28.1473 47.644L27.0953 47.064ZM26.6153 49.064H29.2153V49.372H26.2233V48.484H28.7393V48.2H26.2153V47.892H29.1313V48.776H26.6153V49.064ZM32.567 49.416V46H32.963V49.416H32.567ZM30.935 48.224C30.319 48.224 29.879 47.784 29.879 47.148C29.879 46.512 30.319 46.072 30.935 46.072C31.547 46.072 31.991 46.512 31.991 47.148C31.991 47.784 31.547 48.224 30.935 48.224ZM30.935 47.864C31.339 47.864 31.603 47.556 31.603 47.148C31.603 46.74 31.339 46.428 30.935 46.428C30.527 46.428 30.267 46.74 30.267 47.148C30.267 47.556 30.527 47.864 30.935 47.864ZM29.763 49.212V48.84H31.159C31.627 48.84 32.047 48.788 32.279 48.68V49.048C32.051 49.152 31.627 49.212 31.135 49.212H29.763ZM38.3037 47.384V47.764H37.8237V49.416H37.4277V46H37.8237V47.384H38.3037ZM35.8597 46.08C36.4557 46.08 36.8757 46.584 36.8757 47.668C36.8757 48.752 36.4557 49.256 35.8597 49.256C35.2597 49.256 34.8397 48.752 34.8397 47.668C34.8397 46.584 35.2597 46.08 35.8597 46.08ZM35.8597 48.892C36.2117 48.892 36.4797 48.536 36.4797 47.668C36.4797 46.804 36.2117 46.444 35.8597 46.444C35.5037 46.444 35.2357 46.804 35.2357 47.668C35.2357 48.536 35.5037 48.892 35.8597 48.892ZM38.8274 47.452V46.604H41.3594V46.336H38.8274V46.04H41.7474V46.888H39.2154V47.156H41.7954V47.452H38.8274ZM38.5794 48.048V47.74H41.9914V48.048H38.5794ZM38.8154 49.376V48.336H41.7514V49.376H38.8154ZM39.2074 49.076H41.3594V48.636H39.2074V49.076ZM45.999 47.384V47.764H45.519V49.416H45.123V46H45.519V47.384H45.999ZM42.991 48.852H43.943C44.267 48.852 44.619 48.788 44.827 48.688V49.048C44.619 49.152 44.251 49.212 43.923 49.212H42.587V46.124H44.559V46.484H42.991V48.852ZM47.9787 47.296C47.1507 47.296 46.4707 47.104 46.4707 46.636C46.4707 46.172 47.1507 45.98 47.9787 45.98C48.8067 45.98 49.4867 46.172 49.4867 46.636C49.4867 47.104 48.8067 47.296 47.9787 47.296ZM47.9787 46.292C47.3827 46.292 46.8907 46.4 46.8907 46.636C46.8907 46.876 47.3827 46.98 47.9787 46.98C48.5747 46.98 49.0667 46.876 49.0667 46.636C49.0667 46.4 48.5747 46.292 47.9787 46.292ZM49.6867 47.864H48.1747V48.216H49.4467V49.376H46.5107V48.216H47.7827V47.864H46.2747V47.544H49.6867V47.864ZM49.0547 49.06V48.532H46.9067V49.06H49.0547Z" fill="#6E4B2A"/>
<path d="M21.792 47.384H22.792V46.384H21.792V47.384ZM21.792 47.764V48.764H22.792V47.764H21.792ZM21.312 47.764V46.764H20.312V47.764H21.312ZM21.312 49.416V50.416H22.312V49.416H21.312ZM20.916 49.416H19.916V50.416H20.916V49.416ZM20.916 46V45H19.916V46H20.916ZM21.312 46H22.312V45H21.312V46ZM21.312 47.384H20.312V48.384H21.312V47.384ZM19.696 46.1L20.696 46.1075L20.7033 45.1391L19.7356 45.1008L19.696 46.1ZM19.56 47.52L18.5821 47.3111L18.4879 47.7519L18.7558 48.1143L19.56 47.52ZM20.636 48.976L21.2163 49.7904L22.045 49.2L21.4402 48.3817L20.636 48.976ZM20.316 49.204L19.505 49.789L20.0866 50.5953L20.8963 50.0184L20.316 49.204ZM19.436 47.984L20.247 47.399L19.0979 45.8059L18.4858 47.6724L19.436 47.984ZM18.248 49.212H17.248V50.29L18.323 50.2092L18.248 49.212ZM18.248 48.812L18.092 47.8242L17.248 47.9575V48.812H18.248ZM19.292 46.084L19.3316 45.0848L18.2949 45.0437L18.292 46.0812L19.292 46.084ZM21.792 47.384H20.792V47.764H21.792H22.792V47.384H21.792ZM21.792 47.764V46.764H21.312V47.764V48.764H21.792V47.764ZM21.312 47.764H20.312V49.416H21.312H22.312V47.764H21.312ZM21.312 49.416V48.416H20.916V49.416V50.416H21.312V49.416ZM20.916 49.416H21.916V46H20.916H19.916V49.416H20.916ZM20.916 46V47H21.312V46V45H20.916V46ZM21.312 46H20.312V47.384H21.312H22.312V46H21.312ZM21.312 47.384V48.384H21.792V47.384V46.384H21.312V47.384ZM19.696 46.1L18.696 46.0925C18.6924 46.5773 18.6522 46.9828 18.5821 47.3111L19.56 47.52L20.5379 47.7289C20.6438 47.2332 20.6916 46.6867 20.696 46.1075L19.696 46.1ZM19.56 47.52L18.7558 48.1143L19.8318 49.5703L20.636 48.976L21.4402 48.3817L20.3642 46.9257L19.56 47.52ZM20.636 48.976L20.0557 48.1616L19.7357 48.3896L20.316 49.204L20.8963 50.0184L21.2163 49.7904L20.636 48.976ZM20.316 49.204L21.127 48.619L20.247 47.399L19.436 47.984L18.625 48.569L19.505 49.789L20.316 49.204ZM19.436 47.984L18.4858 47.6724C18.3944 47.9511 18.2938 48.1014 18.2275 48.1706C18.1969 48.2026 18.1784 48.2125 18.175 48.2142C18.1732 48.2151 18.1745 48.2147 18.173 48.2148L18.248 49.212L18.323 50.2092C19.462 50.1235 20.0949 49.1839 20.3862 48.2956L19.436 47.984ZM18.248 49.212H19.248V48.812H18.248H17.248V49.212H18.248ZM18.248 48.812L18.404 49.7998C19.3199 49.6551 19.7639 48.8491 19.9665 48.2829C20.1933 47.6494 20.2898 46.8708 20.292 46.0868L19.292 46.084L18.292 46.0812C18.2902 46.7332 18.2067 47.2646 18.0835 47.6091C17.9361 48.0209 17.8601 47.8609 18.092 47.8242L18.248 48.812ZM19.292 46.084L19.2524 47.0832L19.6564 47.0992L19.696 46.1L19.7356 45.1008L19.3316 45.0848L19.292 46.084ZM24.9797 46V45H23.9797V46H24.9797ZM25.3517 46H26.3517V45H25.3517V46ZM25.3517 49.416V50.416H26.3517V49.416H25.3517ZM24.9797 49.416H23.9797V50.416H24.9797V49.416ZM24.1397 46.856V47.856H25.1397V46.856H24.1397ZM24.1397 46.02V45.02H23.1397V46.02H24.1397ZM24.5117 46.02H25.5117V45.02H24.5117V46.02ZM24.5117 49.356V50.356H25.5117V49.356H24.5117ZM24.1397 49.356H23.1397V50.356H24.1397V49.356ZM24.1397 48.3H25.1397V47.3H24.1397V48.3ZM23.3317 48.3V47.3H22.671L22.4118 47.9076L23.3317 48.3ZM22.1437 49.204H21.1437V50.2117L22.1513 50.204L22.1437 49.204ZM22.1437 48.832L22.1122 47.8325L21.1437 47.863V48.832H22.1437ZM23.1717 46.484H24.1717V45.484H23.1717V46.484ZM22.1437 46.484H21.1437V47.484H22.1437V46.484ZM22.1437 46.124V45.124H21.1437V46.124H22.1437ZM23.5557 46.124H24.5557V45.124H23.5557V46.124ZM23.5557 46.856H22.5557V47.856H23.5557V46.856ZM23.4517 47.932L22.4848 47.6766L22.1532 48.932H23.4517V47.932ZM24.1397 47.932V48.932H25.1397V47.932H24.1397ZM24.1397 47.224H25.1397V46.224H24.1397V47.224ZM23.5517 47.224V46.224H22.5974L22.5528 47.1772L23.5517 47.224ZM24.9797 46V47H25.3517V46V45H24.9797V46ZM25.3517 46H24.3517V49.416H25.3517H26.3517V46H25.3517ZM25.3517 49.416V48.416H24.9797V49.416V50.416H25.3517V49.416ZM24.9797 49.416H25.9797V46H24.9797H23.9797V49.416H24.9797ZM24.1397 46.856H25.1397V46.02H24.1397H23.1397V46.856H24.1397ZM24.1397 46.02V47.02H24.5117V46.02V45.02H24.1397V46.02ZM24.5117 46.02H23.5117V49.356H24.5117H25.5117V46.02H24.5117ZM24.5117 49.356V48.356H24.1397V49.356V50.356H24.5117V49.356ZM24.1397 49.356H25.1397V48.3H24.1397H23.1397V49.356H24.1397ZM24.1397 48.3V47.3H23.3317V48.3V49.3H24.1397V48.3ZM23.3317 48.3L22.4118 47.9076C22.3437 48.0673 22.2727 48.1408 22.2339 48.1705C22.2024 48.1945 22.1763 48.2037 22.136 48.204L22.1437 49.204L22.1513 50.204C23.1675 50.1962 23.894 49.5305 24.2515 48.6924L23.3317 48.3ZM22.1437 49.204H23.1437V48.832H22.1437H21.1437V49.204H22.1437ZM22.1437 48.832L22.1751 49.8315C22.9104 49.8084 23.4507 49.3761 23.7622 48.8364C24.0568 48.326 24.1717 47.6975 24.1717 47.064H23.1717H22.1717C22.1717 47.4865 22.0905 47.732 22.0301 47.8366C22.0034 47.8828 21.9935 47.88 22.0176 47.864C22.0472 47.8442 22.0849 47.8334 22.1122 47.8325L22.1437 48.832ZM23.1717 47.064H24.1717V46.484H23.1717H22.1717V47.064H23.1717ZM23.1717 46.484V45.484H22.1437V46.484V47.484H23.1717V46.484ZM22.1437 46.484H23.1437V46.124H22.1437H21.1437V46.484H22.1437ZM22.1437 46.124V47.124H23.5557V46.124V45.124H22.1437V46.124ZM23.5557 46.124H22.5557V46.856H23.5557H24.5557V46.124H23.5557ZM23.5557 46.856V47.856H24.1397V46.856V45.856H23.5557V46.856ZM23.4517 47.932V48.932H24.1397V47.932V46.932H23.4517V47.932ZM24.1397 47.932H25.1397V47.224H24.1397H23.1397V47.932H24.1397ZM24.1397 47.224V46.224H23.5517V47.224V48.224H24.1397V47.224ZM23.5517 47.224L22.5528 47.1772C22.5431 47.383 22.5183 47.55 22.4848 47.6766L23.4517 47.932L24.4185 48.1874C24.497 47.89 24.5362 47.577 24.5506 47.2708L23.5517 47.224ZM28.0713 46.628V45.628H27.0713V46.628H28.0713ZM28.7353 46.628V47.628H29.7353V46.628H28.7353ZM28.7353 46V45H27.7353V46H28.7353ZM29.1313 46H30.1313V45H29.1313V46ZM29.1313 47.704V48.704H30.1313V47.704H29.1313ZM28.7353 47.704H27.7353V48.704H28.7353V47.704ZM28.7353 46.964H29.7353V45.964H28.7353V46.964ZM28.0713 46.964H27.0713V47.964H28.0713V46.964ZM27.0953 47.064L27.5781 46.1883L26.8015 45.7601L26.2836 46.48L27.0953 47.064ZM25.9833 47.676H24.9833V48.7984L26.0982 48.6694L25.9833 47.676ZM25.9833 47.348L25.8469 46.3573L24.9833 46.4762V47.348H25.9833ZM26.9433 46.416L27.937 46.5282L28.0626 45.416H26.9433V46.416ZM26.0273 46.416H25.0273V47.416H26.0273V46.416ZM26.0273 46.088V45.088H25.0273V46.088H26.0273ZM28.2073 46.088H29.2073V45.088H28.2073V46.088ZM28.2073 46.416V47.416H29.2073V46.416H28.2073ZM27.3393 46.416V45.416H26.4287L26.3437 46.3227L27.3393 46.416ZM27.2513 46.776L26.3322 46.3821L25.9731 47.22L26.7743 47.6549L27.2513 46.776ZM28.3273 47.36L29.172 47.8953L29.7448 46.9915L28.8043 46.4811L28.3273 47.36ZM28.1473 47.644L27.6645 48.5197L28.4883 48.9739L28.992 48.1793L28.1473 47.644ZM26.6153 49.064H25.6153V50.064H26.6153V49.064ZM29.2153 49.064H30.2153V48.064H29.2153V49.064ZM29.2153 49.372V50.372H30.2153V49.372H29.2153ZM26.2233 49.372H25.2233V50.372H26.2233V49.372ZM26.2233 48.484V47.484H25.2233V48.484H26.2233ZM28.7393 48.484V49.484H29.7393V48.484H28.7393ZM28.7393 48.2H29.7393V47.2H28.7393V48.2ZM26.2153 48.2H25.2153V49.2H26.2153V48.2ZM26.2153 47.892V46.892H25.2153V47.892H26.2153ZM29.1313 47.892H30.1313V46.892H29.1313V47.892ZM29.1313 48.776V49.776H30.1313V48.776H29.1313ZM26.6153 48.776V47.776H25.6153V48.776H26.6153ZM28.0713 46.628V47.628H28.7353V46.628V45.628H28.0713V46.628ZM28.7353 46.628H29.7353V46H28.7353H27.7353V46.628H28.7353ZM28.7353 46V47H29.1313V46V45H28.7353V46ZM29.1313 46H28.1313V47.704H29.1313H30.1313V46H29.1313ZM29.1313 47.704V46.704H28.7353V47.704V48.704H29.1313V47.704ZM28.7353 47.704H29.7353V46.964H28.7353H27.7353V47.704H28.7353ZM28.7353 46.964V45.964H28.0713V46.964V47.964H28.7353V46.964ZM28.0713 46.964H29.0713V46.628H28.0713H27.0713V46.964H28.0713ZM27.0953 47.064L26.2836 46.48C26.23 46.5544 26.1052 46.6552 25.8684 46.6826L25.9833 47.676L26.0982 48.6694C26.8294 48.5848 27.4886 48.2296 27.907 47.648L27.0953 47.064ZM25.9833 47.676H26.9833V47.348H25.9833H24.9833V47.676H25.9833ZM25.9833 47.348L26.1197 48.3387C27.091 48.2049 27.826 47.5115 27.937 46.5282L26.9433 46.416L25.9496 46.3038C25.9484 46.3144 25.9468 46.3217 25.9455 46.3261C25.9443 46.3305 25.9434 46.3325 25.9433 46.3327C25.9432 46.3329 25.9436 46.332 25.9446 46.3306C25.9457 46.3291 25.9468 46.3278 25.9477 46.327C25.95 46.3247 25.9474 46.3283 25.9344 46.3344C25.921 46.3406 25.8934 46.351 25.8469 46.3573L25.9833 47.348ZM26.9433 46.416V45.416H26.0273V46.416V47.416H26.9433V46.416ZM26.0273 46.416H27.0273V46.088H26.0273H25.0273V46.416H26.0273ZM26.0273 46.088V47.088H28.2073V46.088V45.088H26.0273V46.088ZM28.2073 46.088H27.2073V46.416H28.2073H29.2073V46.088H28.2073ZM28.2073 46.416V45.416H27.3393V46.416V47.416H28.2073V46.416ZM27.3393 46.416L26.3437 46.3227C26.3398 46.3639 26.333 46.3801 26.3322 46.3821L27.2513 46.776L28.1705 47.1699C28.2656 46.9479 28.3148 46.7241 28.3349 46.5093L27.3393 46.416ZM27.2513 46.776L26.7743 47.6549L27.8503 48.2389L28.3273 47.36L28.8043 46.4811L27.7283 45.8971L27.2513 46.776ZM28.3273 47.36L27.4827 46.8247L27.3027 47.1087L28.1473 47.644L28.992 48.1793L29.172 47.8953L28.3273 47.36ZM28.1473 47.644L28.6301 46.7683L27.5781 46.1883L27.0953 47.064L26.6125 47.9397L27.6645 48.5197L28.1473 47.644ZM26.6153 49.064V50.064H29.2153V49.064V48.064H26.6153V49.064ZM29.2153 49.064H28.2153V49.372H29.2153H30.2153V49.064H29.2153ZM29.2153 49.372V48.372H26.2233V49.372V50.372H29.2153V49.372ZM26.2233 49.372H27.2233V48.484H26.2233H25.2233V49.372H26.2233ZM26.2233 48.484V49.484H28.7393V48.484V47.484H26.2233V48.484ZM28.7393 48.484H29.7393V48.2H28.7393H27.7393V48.484H28.7393ZM28.7393 48.2V47.2H26.2153V48.2V49.2H28.7393V48.2ZM26.2153 48.2H27.2153V47.892H26.2153H25.2153V48.2H26.2153ZM26.2153 47.892V48.892H29.1313V47.892V46.892H26.2153V47.892ZM29.1313 47.892H28.1313V48.776H29.1313H30.1313V47.892H29.1313ZM29.1313 48.776V47.776H26.6153V48.776V49.776H29.1313V48.776ZM26.6153 48.776H25.6153V49.064H26.6153H27.6153V48.776H26.6153ZM32.567 49.416H31.567V50.416H32.567V49.416ZM32.567 46V45H31.567V46H32.567ZM32.963 46H33.963V45H32.963V46ZM32.963 49.416V50.416H33.963V49.416H32.963ZM29.763 49.212H28.763V50.212H29.763V49.212ZM29.763 48.84V47.84H28.763V48.84H29.763ZM32.279 48.68H33.279V47.1114L31.8569 47.7734L32.279 48.68ZM32.279 49.048L32.694 49.9578L33.279 49.691V49.048H32.279ZM32.567 49.416H33.567V46H32.567H31.567V49.416H32.567ZM32.567 46V47H32.963V46V45H32.567V46ZM32.963 46H31.963V49.416H32.963H33.963V46H32.963ZM32.963 49.416V48.416H32.567V49.416V50.416H32.963V49.416ZM30.935 48.224V47.224C30.9007 47.224 30.8845 47.2181 30.8817 47.2169C30.8792 47.2159 30.8829 47.2171 30.8878 47.2221C30.8926 47.227 30.892 47.2289 30.8892 47.2217C30.8863 47.2141 30.879 47.1912 30.879 47.148H29.879H28.879C28.879 47.7022 29.0746 48.2321 29.4642 48.6269C29.8543 49.0222 30.3819 49.224 30.935 49.224V48.224ZM29.879 47.148H30.879C30.879 47.1048 30.8863 47.0819 30.8892 47.0743C30.892 47.0671 30.8926 47.069 30.8878 47.0739C30.8829 47.0789 30.8792 47.0801 30.8817 47.0791C30.8845 47.0779 30.9007 47.072 30.935 47.072V46.072V45.072C30.3819 45.072 29.8543 45.2738 29.4642 45.6691C29.0746 46.0639 28.879 46.5938 28.879 47.148H29.879ZM30.935 46.072V47.072C30.9675 47.072 30.983 47.0777 30.9861 47.0789C30.9889 47.08 30.9859 47.0792 30.9816 47.0748C30.9774 47.0705 30.9781 47.0692 30.9809 47.0763C30.9838 47.0836 30.991 47.1059 30.991 47.148H31.991H32.991C32.991 46.5912 32.7927 46.0617 32.4033 45.6682C32.0139 45.2746 31.4873 45.072 30.935 45.072V46.072ZM31.991 47.148H30.991C30.991 47.1901 30.9838 47.2124 30.9809 47.2197C30.9781 47.2268 30.9774 47.2255 30.9816 47.2212C30.9859 47.2168 30.9889 47.216 30.9861 47.2171C30.983 47.2183 30.9675 47.224 30.935 47.224V48.224V49.224C31.4873 49.224 32.0139 49.0214 32.4033 48.6278C32.7927 48.2343 32.991 47.7048 32.991 47.148H31.991ZM30.935 47.864V48.864C31.4064 48.864 31.846 48.6771 32.16 48.3321C32.466 47.9959 32.603 47.5663 32.603 47.148H31.603H30.603C30.603 47.1377 30.6079 47.0661 30.6809 46.9859C30.762 46.8969 30.8676 46.864 30.935 46.864V47.864ZM31.603 47.148H32.603C32.603 46.7301 32.4664 46.3012 32.1626 45.9648C31.8504 45.619 31.4106 45.428 30.935 45.428V46.428V47.428C30.9056 47.428 30.8608 47.4219 30.8095 47.3995C30.7583 47.3772 30.7133 47.344 30.6783 47.3052C30.6075 47.2268 30.603 47.1579 30.603 47.148H31.603ZM30.935 46.428V45.428C30.4595 45.428 30.018 45.6176 29.7044 45.9664C29.4001 46.3047 29.267 46.7341 29.267 47.148H30.267H31.267C31.267 47.1539 31.2638 47.2233 31.1915 47.3036C31.1557 47.3435 31.1098 47.3773 31.058 47.3999C31.0062 47.4224 30.9621 47.428 30.935 47.428V46.428ZM30.267 47.148H29.267C29.267 47.5623 29.4005 47.9923 29.707 48.3305C30.0224 48.6786 30.4637 48.864 30.935 48.864V47.864V46.864C30.9603 46.864 31.0032 46.8692 31.0544 46.8912C31.1058 46.9134 31.1522 46.947 31.189 46.9875C31.2634 47.0697 31.267 47.1417 31.267 47.148H30.267ZM29.763 49.212H30.763V48.84H29.763H28.763V49.212H29.763ZM29.763 48.84V49.84H31.159V48.84V47.84H29.763V48.84ZM31.159 48.84V49.84C31.642 49.84 32.255 49.7942 32.701 49.5866L32.279 48.68L31.8569 47.7734C31.8724 47.7662 31.8227 47.789 31.6711 47.8098C31.5339 47.8287 31.3589 47.84 31.159 47.84V48.84ZM32.279 48.68H31.279V49.048H32.279H33.279V48.68H32.279ZM32.279 49.048L31.864 48.1382C31.875 48.1331 31.8192 48.157 31.6645 48.1791C31.5237 48.1992 31.3429 48.212 31.135 48.212V49.212V50.212C31.6556 50.212 32.2611 50.1553 32.694 49.9578L32.279 49.048ZM31.135 49.212V48.212H29.763V49.212V50.212H31.135V49.212ZM38.3037 47.384H39.3037V46.384H38.3037V47.384ZM38.3037 47.764V48.764H39.3037V47.764H38.3037ZM37.8237 47.764V46.764H36.8237V47.764H37.8237ZM37.8237 49.416V50.416H38.8237V49.416H37.8237ZM37.4277 49.416H36.4277V50.416H37.4277V49.416ZM37.4277 46V45H36.4277V46H37.4277ZM37.8237 46H38.8237V45H37.8237V46ZM37.8237 47.384H36.8237V48.384H37.8237V47.384ZM38.3037 47.384H37.3037V47.764H38.3037H39.3037V47.384H38.3037ZM38.3037 47.764V46.764H37.8237V47.764V48.764H38.3037V47.764ZM37.8237 47.764H36.8237V49.416H37.8237H38.8237V47.764H37.8237ZM37.8237 49.416V48.416H37.4277V49.416V50.416H37.8237V49.416ZM37.4277 49.416H38.4277V46H37.4277H36.4277V49.416H37.4277ZM37.4277 46V47H37.8237V46V45H37.4277V46ZM37.8237 46H36.8237V47.384H37.8237H38.8237V46H37.8237ZM37.8237 47.384V48.384H38.3037V47.384V46.384H37.8237V47.384ZM35.8597 46.08V47.08C35.865 47.08 35.8418 47.0802 35.8078 47.0625C35.7732 47.0445 35.7613 47.0255 35.7668 47.0334C35.7881 47.0645 35.8757 47.2335 35.8757 47.668H36.8757H37.8757C37.8757 47.0185 37.7533 46.3935 37.4157 45.9016C37.046 45.3631 36.4808 45.08 35.8597 45.08V46.08ZM36.8757 47.668H35.8757C35.8757 48.1025 35.7881 48.2715 35.7668 48.3026C35.7613 48.3105 35.7732 48.2915 35.8078 48.2735C35.8418 48.2558 35.865 48.256 35.8597 48.256V49.256V50.256C36.4808 50.256 37.046 49.9729 37.4157 49.4344C37.7533 48.9425 37.8757 48.3175 37.8757 47.668H36.8757ZM35.8597 49.256V48.256C35.8524 48.256 35.8743 48.2553 35.9077 48.2726C35.9418 48.2903 35.9537 48.3091 35.9484 48.3015C35.9274 48.2709 35.8397 48.1026 35.8397 47.668H34.8397H33.8397C33.8397 48.3174 33.962 48.9431 34.301 49.4355C34.6723 49.9749 35.2389 50.256 35.8597 50.256V49.256ZM34.8397 47.668H35.8397C35.8397 47.2334 35.9274 47.0651 35.9484 47.0345C35.9537 47.0269 35.9418 47.0457 35.9077 47.0634C35.8743 47.0807 35.8524 47.08 35.8597 47.08V46.08V45.08C35.2389 45.08 34.6723 45.3611 34.301 45.9005C33.962 46.3929 33.8397 47.0186 33.8397 47.668H34.8397ZM35.8597 48.892V49.892C36.4453 49.892 36.9103 49.5636 37.1735 49.0954C37.4052 48.6832 37.4797 48.179 37.4797 47.668H36.4797H35.4797C35.4797 47.8358 35.4666 47.9541 35.4512 48.0321C35.4355 48.1117 35.4211 48.1314 35.43 48.1156C35.4406 48.0966 35.4817 48.0335 35.5727 47.9763C35.6679 47.9165 35.7719 47.892 35.8597 47.892V48.892ZM36.4797 47.668H37.4797C37.4797 47.1581 37.4049 46.6548 37.174 46.243C36.9129 45.7773 36.4493 45.444 35.8597 45.444V46.444V47.444C35.7698 47.444 35.665 47.4187 35.5701 47.3586C35.4798 47.3015 35.4395 47.239 35.4294 47.221C35.421 47.206 35.4356 47.2263 35.4513 47.3058C35.4666 47.3837 35.4797 47.5015 35.4797 47.668H36.4797ZM35.8597 46.444V45.444C35.2724 45.444 34.8066 45.7731 34.5429 46.2413C34.3104 46.6541 34.2357 47.1584 34.2357 47.668H35.2357H36.2357C36.2357 47.5014 36.2488 47.3838 36.2642 47.3062C36.2798 47.2269 36.2943 47.2072 36.2856 47.2227C36.2751 47.2413 36.2343 47.3038 36.1441 47.3604C36.0496 47.4198 35.9465 47.444 35.8597 47.444V46.444ZM35.2357 47.668H34.2357C34.2357 48.1787 34.3102 48.684 34.5434 49.0971C34.8092 49.5679 35.2764 49.892 35.8597 49.892V48.892V47.892C35.9443 47.892 36.0468 47.9153 36.1416 47.9745C36.2324 48.0312 36.2739 48.0942 36.285 48.1139C36.2942 48.1302 36.2799 48.1111 36.2642 48.0317C36.2489 47.954 36.2357 47.8359 36.2357 47.668H35.2357ZM38.8274 47.452H37.8274V48.452H38.8274V47.452ZM38.8274 46.604V45.604H37.8274V46.604H38.8274ZM41.3594 46.604V47.604H42.3594V46.604H41.3594ZM41.3594 46.336H42.3594V45.336H41.3594V46.336ZM38.8274 46.336H37.8274V47.336H38.8274V46.336ZM38.8274 46.04V45.04H37.8274V46.04H38.8274ZM41.7474 46.04H42.7474V45.04H41.7474V46.04ZM41.7474 46.888V47.888H42.7474V46.888H41.7474ZM39.2154 46.888V45.888H38.2154V46.888H39.2154ZM39.2154 47.156H38.2154V48.156H39.2154V47.156ZM41.7954 47.156H42.7954V46.156H41.7954V47.156ZM41.7954 47.452V48.452H42.7954V47.452H41.7954ZM38.5794 48.048H37.5794V49.048H38.5794V48.048ZM38.5794 47.74V46.74H37.5794V47.74H38.5794ZM41.9914 47.74H42.9914V46.74H41.9914V47.74ZM41.9914 48.048V49.048H42.9914V48.048H41.9914ZM38.8154 49.376H37.8154V50.376H38.8154V49.376ZM38.8154 48.336V47.336H37.8154V48.336H38.8154ZM41.7514 48.336H42.7514V47.336H41.7514V48.336ZM41.7514 49.376V50.376H42.7514V49.376H41.7514ZM39.2074 49.076H38.2074V50.076H39.2074V49.076ZM41.3594 49.076V50.076H42.3594V49.076H41.3594ZM41.3594 48.636H42.3594V47.636H41.3594V48.636ZM39.2074 48.636V47.636H38.2074V48.636H39.2074ZM38.8274 47.452H39.8274V46.604H38.8274H37.8274V47.452H38.8274ZM38.8274 46.604V47.604H41.3594V46.604V45.604H38.8274V46.604ZM41.3594 46.604H42.3594V46.336H41.3594H40.3594V46.604H41.3594ZM41.3594 46.336V45.336H38.8274V46.336V47.336H41.3594V46.336ZM38.8274 46.336H39.8274V46.04H38.8274H37.8274V46.336H38.8274ZM38.8274 46.04V47.04H41.7474V46.04V45.04H38.8274V46.04ZM41.7474 46.04H40.7474V46.888H41.7474H42.7474V46.04H41.7474ZM41.7474 46.888V45.888H39.2154V46.888V47.888H41.7474V46.888ZM39.2154 46.888H38.2154V47.156H39.2154H40.2154V46.888H39.2154ZM39.2154 47.156V48.156H41.7954V47.156V46.156H39.2154V47.156ZM41.7954 47.156H40.7954V47.452H41.7954H42.7954V47.156H41.7954ZM41.7954 47.452V46.452H38.8274V47.452V48.452H41.7954V47.452ZM38.5794 48.048H39.5794V47.74H38.5794H37.5794V48.048H38.5794ZM38.5794 47.74V48.74H41.9914V47.74V46.74H38.5794V47.74ZM41.9914 47.74H40.9914V48.048H41.9914H42.9914V47.74H41.9914ZM41.9914 48.048V47.048H38.5794V48.048V49.048H41.9914V48.048ZM38.8154 49.376H39.8154V48.336H38.8154H37.8154V49.376H38.8154ZM38.8154 48.336V49.336H41.7514V48.336V47.336H38.8154V48.336ZM41.7514 48.336H40.7514V49.376H41.7514H42.7514V48.336H41.7514ZM41.7514 49.376V48.376H38.8154V49.376V50.376H41.7514V49.376ZM39.2074 49.076V50.076H41.3594V49.076V48.076H39.2074V49.076ZM41.3594 49.076H42.3594V48.636H41.3594H40.3594V49.076H41.3594ZM41.3594 48.636V47.636H39.2074V48.636V49.636H41.3594V48.636ZM39.2074 48.636H38.2074V49.076H39.2074H40.2074V48.636H39.2074ZM45.999 47.384H46.999V46.384H45.999V47.384ZM45.999 47.764V48.764H46.999V47.764H45.999ZM45.519 47.764V46.764H44.519V47.764H45.519ZM45.519 49.416V50.416H46.519V49.416H45.519ZM45.123 49.416H44.123V50.416H45.123V49.416ZM45.123 46V45H44.123V46H45.123ZM45.519 46H46.519V45H45.519V46ZM45.519 47.384H44.519V48.384H45.519V47.384ZM42.991 48.852H41.991V49.852H42.991V48.852ZM44.827 48.688H45.827V47.0977L44.3937 47.7867L44.827 48.688ZM44.827 49.048L45.2742 49.9424L45.827 49.666V49.048H44.827ZM42.587 49.212H41.587V50.212H42.587V49.212ZM42.587 46.124V45.124H41.587V46.124H42.587ZM44.559 46.124H45.559V45.124H44.559V46.124ZM44.559 46.484V47.484H45.559V46.484H44.559ZM42.991 46.484V45.484H41.991V46.484H42.991ZM45.999 47.384H44.999V47.764H45.999H46.999V47.384H45.999ZM45.999 47.764V46.764H45.519V47.764V48.764H45.999V47.764ZM45.519 47.764H44.519V49.416H45.519H46.519V47.764H45.519ZM45.519 49.416V48.416H45.123V49.416V50.416H45.519V49.416ZM45.123 49.416H46.123V46H45.123H44.123V49.416H45.123ZM45.123 46V47H45.519V46V45H45.123V46ZM45.519 46H44.519V47.384H45.519H46.519V46H45.519ZM45.519 47.384V48.384H45.999V47.384V46.384H45.519V47.384ZM42.991 48.852V49.852H43.943V48.852V47.852H42.991V48.852ZM43.943 48.852V49.852C44.3549 49.852 44.8705 49.7767 45.2603 49.5893L44.827 48.688L44.3937 47.7867C44.3978 47.7848 44.3515 47.8048 44.2471 47.8241C44.1512 47.8418 44.0429 47.852 43.943 47.852V48.852ZM44.827 48.688H43.827V49.048H44.827H45.827V48.688H44.827ZM44.827 49.048L44.3798 48.1536C44.395 48.146 44.3916 48.1494 44.3621 48.1581C44.3348 48.1661 44.296 48.1755 44.2466 48.1842C44.1461 48.2019 44.0301 48.212 43.923 48.212V49.212V50.212C44.3179 50.212 44.8655 50.1468 45.2742 49.9424L44.827 49.048ZM43.923 49.212V48.212H42.587V49.212V50.212H43.923V49.212ZM42.587 49.212H43.587V46.124H42.587H41.587V49.212H42.587ZM42.587 46.124V47.124H44.559V46.124V45.124H42.587V46.124ZM44.559 46.124H43.559V46.484H44.559H45.559V46.124H44.559ZM44.559 46.484V45.484H42.991V46.484V47.484H44.559V46.484ZM42.991 46.484H41.991V48.852H42.991H43.991V46.484H42.991ZM49.6867 47.864V48.864H50.6867V47.864H49.6867ZM48.1747 47.864V46.864H47.1747V47.864H48.1747ZM48.1747 48.216H47.1747V49.216H48.1747V48.216ZM49.4467 48.216H50.4467V47.216H49.4467V48.216ZM49.4467 49.376V50.376H50.4467V49.376H49.4467ZM46.5107 49.376H45.5107V50.376H46.5107V49.376ZM46.5107 48.216V47.216H45.5107V48.216H46.5107ZM47.7827 48.216V49.216H48.7827V48.216H47.7827ZM47.7827 47.864H48.7827V46.864H47.7827V47.864ZM46.2747 47.864H45.2747V48.864H46.2747V47.864ZM46.2747 47.544V46.544H45.2747V47.544H46.2747ZM49.6867 47.544H50.6867V46.544H49.6867V47.544ZM49.0547 49.06V50.06H50.0547V49.06H49.0547ZM49.0547 48.532H50.0547V47.532H49.0547V48.532ZM46.9067 48.532V47.532H45.9067V48.532H46.9067ZM46.9067 49.06H45.9067V50.06H46.9067V49.06ZM47.9787 47.296V46.296C47.8086 46.296 47.6583 46.286 47.5329 46.2684C47.4044 46.2504 47.3216 46.227 47.277 46.2097C47.227 46.1902 47.2665 46.1947 47.3276 46.2615C47.3614 46.2984 47.3998 46.3525 47.4287 46.4242C47.4582 46.497 47.4707 46.5704 47.4707 46.636H46.4707H45.4707C45.4707 47.4862 46.1276 47.9083 46.5513 48.0733C46.9916 48.2448 47.5107 48.296 47.9787 48.296V47.296ZM46.4707 46.636H47.4707C47.4707 46.7033 47.4577 46.7779 47.4277 46.8516C47.3982 46.9241 47.3593 46.9784 47.3254 47.0153C47.264 47.0819 47.2249 47.0861 47.2756 47.0664C47.3206 47.049 47.4038 47.0256 47.5325 47.0076C47.6582 46.99 47.8086 46.98 47.9787 46.98V45.98V44.98C47.5105 44.98 46.9922 45.0313 46.5528 45.2016C46.1331 45.3642 45.4707 45.7838 45.4707 46.636H46.4707ZM47.9787 45.98V46.98C48.1488 46.98 48.2992 46.99 48.4248 47.0076C48.5535 47.0256 48.6368 47.049 48.6818 47.0664C48.7325 47.0861 48.6933 47.0819 48.632 47.0153C48.5981 46.9784 48.5591 46.9241 48.5296 46.8516C48.4996 46.7779 48.4867 46.7033 48.4867 46.636H49.4867H50.4867C50.4867 45.7838 49.8242 45.3642 49.4046 45.2016C48.9651 45.0313 48.4468 44.98 47.9787 44.98V45.98ZM49.4867 46.636H48.4867C48.4867 46.5704 48.4992 46.497 48.5286 46.4242C48.5576 46.3525 48.596 46.2984 48.6297 46.2615C48.6909 46.1947 48.7303 46.1902 48.6803 46.2097C48.6358 46.227 48.553 46.2504 48.4245 46.2684C48.299 46.286 48.1488 46.296 47.9787 46.296V47.296V48.296C48.4466 48.296 48.9658 48.2448 49.406 48.0733C49.8298 47.9083 50.4867 47.4862 50.4867 46.636H49.4867ZM47.9787 46.292V45.292C47.638 45.292 47.2612 45.3211 46.9361 45.4141C46.7787 45.4591 46.5602 45.5392 46.3612 45.6947C46.1456 45.8631 45.8907 46.1779 45.8907 46.636H46.8907H47.8907C47.8907 46.7892 47.8486 46.932 47.7809 47.0502C47.717 47.1618 47.642 47.2321 47.5925 47.2707C47.5044 47.3396 47.4462 47.3484 47.4862 47.3369C47.5562 47.3169 47.7234 47.292 47.9787 47.292V46.292ZM46.8907 46.636H45.8907C45.8907 47.0898 46.1401 47.4055 46.3596 47.5777C46.5602 47.7351 46.7805 47.8153 46.9384 47.8601C47.2639 47.9524 47.6408 47.98 47.9787 47.98V46.98V45.98C47.7205 45.98 47.5535 45.9556 47.484 45.9359C47.4444 45.9247 47.5044 45.9339 47.5942 46.0043C47.6446 46.0439 47.7197 46.1149 47.7832 46.2269C47.8502 46.3453 47.8907 46.4865 47.8907 46.636H46.8907ZM47.9787 46.98V47.98C48.3165 47.98 48.6935 47.9524 49.019 47.8601C49.1769 47.8153 49.3972 47.7351 49.5978 47.5777C49.8173 47.4055 50.0667 47.0898 50.0667 46.636H49.0667H48.0667C48.0667 46.4865 48.1072 46.3453 48.1742 46.2269C48.2376 46.1149 48.3127 46.0439 48.3632 46.0043C48.4529 45.9339 48.513 45.9247 48.4734 45.9359C48.4039 45.9556 48.2368 45.98 47.9787 45.98V46.98ZM49.0667 46.636H50.0667C50.0667 46.1779 49.8118 45.8631 49.5962 45.6947C49.3971 45.5392 49.1787 45.4591 49.0212 45.4141C48.6962 45.3211 48.3194 45.292 47.9787 45.292V46.292V47.292C48.234 47.292 48.4012 47.3169 48.4711 47.3369C48.5112 47.3484 48.453 47.3396 48.3648 47.2707C48.3154 47.2321 48.2403 47.1618 48.1765 47.0502C48.1088 46.932 48.0667 46.7892 48.0667 46.636H49.0667ZM49.6867 47.864V46.864H48.1747V47.864V48.864H49.6867V47.864ZM48.1747 47.864H47.1747V48.216H48.1747H49.1747V47.864H48.1747ZM48.1747 48.216V49.216H49.4467V48.216V47.216H48.1747V48.216ZM49.4467 48.216H48.4467V49.376H49.4467H50.4467V48.216H49.4467ZM49.4467 49.376V48.376H46.5107V49.376V50.376H49.4467V49.376ZM46.5107 49.376H47.5107V48.216H46.5107H45.5107V49.376H46.5107ZM46.5107 48.216V49.216H47.7827V48.216V47.216H46.5107V48.216ZM47.7827 48.216H48.7827V47.864H47.7827H46.7827V48.216H47.7827ZM47.7827 47.864V46.864H46.2747V47.864V48.864H47.7827V47.864ZM46.2747 47.864H47.2747V47.544H46.2747H45.2747V47.864H46.2747ZM46.2747 47.544V48.544H49.6867V47.544V46.544H46.2747V47.544ZM49.6867 47.544H48.6867V47.864H49.6867H50.6867V47.544H49.6867ZM49.0547 49.06H50.0547V48.532H49.0547H48.0547V49.06H49.0547ZM49.0547 48.532V47.532H46.9067V48.532V49.532H49.0547V48.532ZM46.9067 48.532H45.9067V49.06H46.9067H47.9067V48.532H46.9067ZM46.9067 49.06V50.06H49.0547V49.06V48.06H46.9067V49.06Z" fill="white" mask="url(#path-18-outside-2_11_567)"/>
<path d="M46.1471 45.2879C46.1471 45.2879 45.357 38.7946 44.4927 34.6997C43.7483 31.1732 42.1765 25.7658 42.1765 25.7658C42.1765 25.7658 43.8317 25.9056 44.1618 25.1041C44.5584 24.1408 43.5124 22.7312 42.5074 22.4571C41.5023 22.183 40.5221 23.7805 40.5221 23.7805C40.5221 23.7805 36.3354 22.0729 33.5735 22.1262C31.065 22.1745 27.6177 23.7805 27.6177 23.7805C27.6177 23.7805 27.1058 22.4467 26.625 22.1262C25.7582 21.5483 24.1564 23.0851 23.9779 24.1115C23.8183 25.0295 25.6324 25.7658 25.6324 25.7658C25.6324 25.7658 24.1275 31.3904 23.3162 35.0306C22.4286 39.0129 21.3309 45.2879 21.3309 45.2879" stroke="#6E4B2A" stroke-width="0.5"/>
<circle cx="29.2721" cy="28.4129" r="0.992647" fill="#6E4B2A"/>
<circle cx="38.5368" cy="28.4129" r="0.992647" fill="#6E4B2A"/>
<circle cx="33.9044" cy="31.06" r="3.38971" stroke="#6E4B2A" stroke-width="0.5"/>
<path d="M32.273 29.2446C31.9139 29.4426 31.6282 29.7106 31.592 30.0673C31.4798 31.1732 33.9082 31.7217 33.9082 31.7217C33.9082 31.7217 36.3366 31.1732 36.2244 30.0673C36.1882 29.7106 35.9025 29.4426 35.5434 29.2446C34.5444 28.6937 33.2719 28.6937 32.273 29.2446Z" fill="#6E4B2A"/>
<path d="M33.9082 31.7217C33.9082 31.7217 36.3366 31.1732 36.2244 30.0673C36.1882 29.7106 35.9025 29.4426 35.5434 29.2446C34.5444 28.6937 33.2719 28.6937 32.273 29.2446C31.9139 29.4426 31.6282 29.7106 31.592 30.0673C31.4798 31.1732 33.9082 31.7217 33.9082 31.7217ZM33.9082 31.7217V32.7144" stroke="#6E4B2A" stroke-width="0.5"/>
<circle cx="39.0331" cy="28.2475" r="0.165441" fill="white"/>
<circle cx="29.7684" cy="28.2475" r="0.165441" fill="white"/>
<circle cx="44.6912" cy="33.3762" r="3.55882" fill="white" stroke="#6E4B2A" stroke-width="0.5"/>
<circle cx="44.4926" cy="34.3688" r="1.65441" fill="#6E4B2A"/>
<circle cx="42.8382" cy="32.0526" r="0.661765" fill="#6E4B2A"/>
<circle cx="45.0882" cy="31.3909" r="0.661765" fill="#6E4B2A"/>
<circle cx="46.8088" cy="32.7144" r="0.661765" fill="#6E4B2A"/>
<circle cx="3.30882" cy="3.30882" r="3.55882" transform="matrix(-1 0 0 1 26.6176 30.0674)" fill="white" stroke="#6E4B2A" stroke-width="0.5"/>
<circle cx="1.65441" cy="1.65441" r="1.65441" transform="matrix(-1 0 0 1 25.1618 32.7144)" fill="#6E4B2A"/>
<circle cx="0.661765" cy="0.661765" r="0.661765" transform="matrix(-1 0 0 1 25.8235 31.3909)" fill="#6E4B2A"/>
<circle cx="0.661765" cy="0.661765" r="0.661765" transform="matrix(-1 0 0 1 23.5735 30.7291)" fill="#6E4B2A"/>
<circle cx="0.661765" cy="0.661765" r="0.661765" transform="matrix(-1 0 0 1 21.8529 32.0526)" fill="#6E4B2A"/>
<path d="M28.6103 38.6703C28.8435 38.0678 29.1011 37.7537 29.6029 37.3468C31.0117 36.2045 32.4218 37.6991 34.2353 37.6777C35.7912 37.6592 36.9641 36.4091 38.2059 37.3468C38.7215 37.7361 38.953 38.0727 39.1985 38.6703C40.1671 41.0277 36.1181 42.1225 33.5735 41.9791C31.2477 41.8481 27.7694 40.8427 28.6103 38.6703Z" fill="#6E4B2A" stroke="#6E4B2A" stroke-width="0.5"/>
</g>
<defs>
<filter id="filter0_d_11_567" x="0" y="0" width="68" height="68" filterUnits="userSpaceOnUse" color-interpolation-filters="sRGB">
<feFlood flood-opacity="0" result="BackgroundImageFix"/>
<feColorMatrix in="SourceAlpha" type="matrix" values="0 0 0 0 0 0 0 0 0 0 0 0 0 0 0 0 0 0 127 0" result="hardAlpha"/>
<feOffset/>
<feGaussianBlur stdDeviation="2"/>
<feComposite in2="hardAlpha" operator="out"/>
<feColorMatrix type="matrix" values="0 0 0 0 0.229671 0 0 0 0 0.229671 0 0 0 0 0.229671 0 0 0 0.2 0"/>
<feBlend mode="normal" in2="BackgroundImageFix" result="effect1_dropShadow_11_567"/>
<feBlend mode="normal" in="SourceGraphic" in2="effect1_dropShadow_11_567" result="shape"/>
</filter>
</defs>
</svg>
