<svg width="350" height="438" viewBox="0 0 350 438" fill="none" xmlns="http://www.w3.org/2000/svg">
<g clip-path="url(#clip0_103_237)">
<rect width="350" height="438" rx="10" fill="#C8C8C8"/>
<g opacity="0.2">
<path d="M124.241 301.448C124.241 273.415 146.967 250.689 175 250.689C203.033 250.689 225.758 273.415 225.758 301.448V514H124.241V301.448Z" fill="#A4A4A4"/>
<path d="M57.6206 321.275C57.6206 302.441 72.8892 287.172 91.7241 287.172C110.559 287.172 125.828 302.441 125.828 321.275V513.999H57.6206V321.275Z" fill="#A4A4A4"/>
<path d="M224.172 321.275C224.172 302.441 239.441 287.172 258.276 287.172C277.111 287.172 292.379 302.441 292.379 321.275V513.999H224.172V321.275Z" fill="#A4A4A4"/>
<path d="M263.828 388.689C263.828 372.921 276.611 360.138 292.379 360.138C308.148 360.138 320.931 372.921 320.931 388.689V514H263.828V388.689Z" fill="white"/>
<path d="M29.0688 388.689C29.0688 372.921 41.8519 360.138 57.6206 360.138C73.3892 360.138 86.1723 372.921 86.1723 388.689V514H29.0688V388.689Z" fill="white"/>
<path d="M290.793 321.275C290.793 302.441 306.062 287.172 324.896 287.172C343.731 287.172 359 302.441 359 321.275V513.999H290.793V321.275Z" fill="#A4A4A4"/>
<path d="M-9 321.275C-9 302.441 6.26864 287.172 25.1035 287.172C43.9383 287.172 59.2069 302.441 59.2069 321.275V513.999H-9V321.275Z" fill="#A4A4A4"/>
</g>
<path d="M122 181.579H125.693V208.614H122V181.579ZM131.327 192.779C130.439 192.779 129.64 192.934 128.929 193.243C128.244 193.552 127.66 193.989 127.178 194.556C126.695 195.122 126.327 195.792 126.074 196.564C125.82 197.337 125.693 198.173 125.693 199.074V208.614H122V199.152C122 197.684 122.216 196.332 122.647 195.097C123.079 193.835 123.688 192.754 124.475 191.852C125.287 190.926 126.264 190.205 127.406 189.69C128.574 189.175 129.881 188.917 131.327 188.917C132.774 188.917 134.031 189.175 135.097 189.69C136.188 190.205 137.114 190.926 137.876 191.852C138.637 192.754 139.246 193.835 139.703 195.097C140.16 196.332 140.477 197.684 140.655 199.152L141.797 208.614H138.066L136.886 199.074C136.784 198.173 136.594 197.337 136.315 196.564C136.061 195.792 135.706 195.135 135.249 194.594C134.817 194.028 134.272 193.59 133.612 193.281C132.977 192.947 132.216 192.779 131.327 192.779Z" fill="white"/>
<path d="M145.284 189.303H148.977V208.614H145.284V189.303ZM144.865 183.317C144.865 182.622 145.068 182.069 145.474 181.657C145.906 181.219 146.464 181 147.149 181C147.809 181 148.342 181.219 148.748 181.657C149.18 182.069 149.396 182.622 149.396 183.317C149.396 184.012 149.18 184.579 148.748 185.017C148.342 185.429 147.809 185.634 147.149 185.634C146.464 185.634 145.906 185.429 145.474 185.017C145.068 184.579 144.865 184.012 144.865 183.317Z" fill="white"/>
<path d="M160.92 197.066C162.62 197.066 163.89 196.796 164.727 196.255C165.59 195.714 166.123 194.697 166.326 193.204L166.783 189.303H170.476L170.019 193.127C169.816 194.852 169.435 196.178 168.877 197.105C168.344 198.006 167.57 198.624 166.555 198.959C167.494 199.268 168.255 199.924 168.839 200.928C169.423 201.932 169.816 203.22 170.019 204.79L170.476 208.614H166.783L166.326 204.713C166.148 203.194 165.628 202.164 164.765 201.623C163.902 201.083 162.62 200.812 160.92 200.812H156.961V208.614H153.268V181.579H156.961V197.066H160.92Z" fill="white"/>
<path d="M187.085 194.903C186.552 194.234 185.879 193.719 185.067 193.359C184.28 192.972 183.404 192.779 182.44 192.779C180.866 192.779 179.559 193.23 178.518 194.131C177.478 195.032 176.818 196.217 176.539 197.684L187.085 194.903ZM172.732 199.152C172.732 197.684 172.96 196.332 173.417 195.097C173.899 193.835 174.559 192.754 175.397 191.852C176.26 190.926 177.288 190.205 178.48 189.69C179.673 189.175 180.993 188.917 182.44 188.917C183.658 188.917 184.788 189.11 185.828 189.497C186.869 189.857 187.795 190.372 188.607 191.041C189.42 191.685 190.092 192.47 190.625 193.397C191.184 194.324 191.59 195.341 191.843 196.448V197.568L176.805 201.392C177.211 202.55 177.897 203.464 178.861 204.134C179.851 204.803 181.044 205.138 182.44 205.138C183.76 205.138 184.902 204.803 185.866 204.134C186.831 203.464 187.529 202.576 187.96 201.469H191.843C191.59 202.576 191.184 203.593 190.625 204.52C190.092 205.447 189.42 206.245 188.607 206.914C187.795 207.558 186.869 208.073 185.828 208.459C184.788 208.82 183.658 209 182.44 209C180.993 209 179.673 208.755 178.48 208.266C177.288 207.777 176.26 207.108 175.397 206.258C174.559 205.383 173.899 204.34 173.417 203.13C172.96 201.92 172.732 200.594 172.732 199.152Z" fill="white"/>
<path d="M204.739 192.779C202.784 192.779 201.211 193.359 200.018 194.517C198.85 195.65 198.267 197.169 198.267 199.074V208.614H194.574V199.152C194.574 197.684 194.802 196.332 195.259 195.097C195.741 193.835 196.401 192.754 197.239 191.852C198.102 190.926 199.129 190.205 200.322 189.69C201.515 189.175 202.835 188.917 204.282 188.917C205.373 188.917 206.388 189.072 207.328 189.381V193.166C206.921 193.037 206.49 192.947 206.033 192.895C205.602 192.818 205.17 192.779 204.739 192.779Z" fill="white"/>
<path d="M218.901 209C215.855 209 213.469 208.356 211.744 207.069C210.043 205.756 209.104 203.889 208.926 201.469H212.81C212.936 202.731 213.495 203.67 214.485 204.288C215.5 204.88 217.061 205.177 219.167 205.177C220.792 205.177 222.048 204.996 222.937 204.636C223.825 204.25 224.269 203.683 224.269 202.937C224.269 201.469 222.289 200.722 218.33 200.697C215.157 200.671 212.797 200.233 211.249 199.383C209.7 198.534 208.926 197.195 208.926 195.367C208.926 194.389 209.142 193.5 209.573 192.702C210.03 191.904 210.652 191.222 211.439 190.655C212.251 190.089 213.228 189.664 214.37 189.381C215.513 189.072 216.782 188.917 218.178 188.917C221.147 188.917 223.47 189.574 225.145 190.887C226.845 192.2 227.797 194.054 228 196.448H224.079C223.952 195.212 223.393 194.298 222.404 193.706C221.439 193.088 219.992 192.779 218.063 192.779C216.363 192.779 215.03 193.011 214.066 193.474C213.101 193.912 212.619 194.543 212.619 195.367C212.619 196.088 213.051 196.603 213.914 196.912C214.777 197.195 216.236 197.362 218.292 197.414C221.744 197.465 224.218 197.903 225.716 198.727C227.239 199.525 228 200.825 228 202.628C228 204.662 227.188 206.232 225.563 207.339C223.939 208.446 221.718 209 218.901 209Z" fill="white"/>
</g>
<defs>
<clipPath id="clip0_103_237">
<rect width="350" height="438" rx="10" fill="white"/>
</clipPath>
</defs>
</svg>
