<svg width="351" height="179" viewBox="0 0 351 179" fill="none" xmlns="http://www.w3.org/2000/svg">
<rect width="351" height="179" rx="10" fill="#C8C8C8"/>
<path d="M123 69.5793H126.693V96.6138H123V69.5793ZM132.327 80.7793C131.439 80.7793 130.64 80.9338 129.929 81.2428C129.244 81.5517 128.66 81.9894 128.178 82.5559C127.695 83.1223 127.327 83.7917 127.074 84.5641C126.82 85.3366 126.693 86.1733 126.693 87.0745V96.6138H123V87.1517C123 85.6841 123.216 84.3324 123.647 83.0966C124.079 81.8349 124.688 80.7536 125.475 79.8524C126.287 78.9255 127.264 78.2046 128.406 77.6897C129.574 77.1747 130.881 76.9172 132.327 76.9172C133.774 76.9172 135.031 77.1747 136.097 77.6897C137.188 78.2046 138.114 78.9255 138.876 79.8524C139.637 80.7536 140.246 81.8349 140.703 83.0966C141.16 84.3324 141.477 85.6841 141.655 87.1517L142.797 96.6138H139.066L137.886 87.0745C137.784 86.1733 137.594 85.3366 137.315 84.5641C137.061 83.7917 136.706 83.1352 136.249 82.5945C135.817 82.028 135.272 81.5903 134.612 81.2814C133.977 80.9467 133.216 80.7793 132.327 80.7793Z" fill="white"/>
<path d="M146.284 77.3034H149.977V96.6138H146.284V77.3034ZM145.865 71.3172C145.865 70.6221 146.068 70.0685 146.474 69.6566C146.906 69.2189 147.464 69 148.149 69C148.809 69 149.342 69.2189 149.748 69.6566C150.18 70.0685 150.396 70.6221 150.396 71.3172C150.396 72.0124 150.18 72.5789 149.748 73.0166C149.342 73.4285 148.809 73.6345 148.149 73.6345C147.464 73.6345 146.906 73.4285 146.474 73.0166C146.068 72.5789 145.865 72.0124 145.865 71.3172Z" fill="white"/>
<path d="M161.92 85.0662C163.62 85.0662 164.89 84.7959 165.727 84.2552C166.59 83.7145 167.123 82.6975 167.326 81.2041L167.783 77.3034H171.476L171.019 81.1269C170.816 82.852 170.435 84.1779 169.877 85.1048C169.344 86.006 168.57 86.6239 167.555 86.9586C168.494 87.2676 169.255 87.9241 169.839 88.9283C170.423 89.9324 170.816 91.2198 171.019 92.7903L171.476 96.6138H167.783L167.326 92.7131C167.148 91.194 166.628 90.1641 165.765 89.6234C164.902 89.0828 163.62 88.8124 161.92 88.8124H157.961V96.6138H154.268V69.5793H157.961V85.0662H161.92Z" fill="white"/>
<path d="M188.085 82.9034C187.552 82.234 186.879 81.7191 186.067 81.3586C185.28 80.9724 184.404 80.7793 183.44 80.7793C181.866 80.7793 180.559 81.2299 179.518 82.131C178.478 83.0322 177.818 84.2166 177.539 85.6841L188.085 82.9034ZM173.732 87.1517C173.732 85.6841 173.96 84.3324 174.417 83.0966C174.899 81.8349 175.559 80.7536 176.397 79.8524C177.26 78.9255 178.288 78.2046 179.48 77.6897C180.673 77.1747 181.993 76.9172 183.44 76.9172C184.658 76.9172 185.788 77.1103 186.828 77.4966C187.869 77.857 188.795 78.372 189.607 79.0414C190.42 79.6851 191.092 80.4703 191.625 81.3972C192.184 82.3241 192.59 83.3411 192.843 84.4483V85.5683L177.805 89.3917C178.211 90.5503 178.897 91.4644 179.861 92.1338C180.851 92.8032 182.044 93.1379 183.44 93.1379C184.76 93.1379 185.902 92.8032 186.866 92.1338C187.831 91.4644 188.529 90.5761 188.96 89.469H192.843C192.59 90.5761 192.184 91.5931 191.625 92.52C191.092 93.4469 190.42 94.2451 189.607 94.9145C188.795 95.5582 187.869 96.0731 186.828 96.4593C185.788 96.8198 184.658 97 183.44 97C181.993 97 180.673 96.7554 179.48 96.2662C178.288 95.777 177.26 95.1076 176.397 94.2579C175.559 93.3825 174.899 92.3398 174.417 91.1297C173.96 89.9195 173.732 88.5936 173.732 87.1517Z" fill="white"/>
<path d="M205.739 80.7793C203.784 80.7793 202.211 81.3586 201.018 82.5172C199.85 83.6501 199.267 85.1692 199.267 87.0745V96.6138H195.574V87.1517C195.574 85.6841 195.802 84.3324 196.259 83.0966C196.741 81.8349 197.401 80.7536 198.239 79.8524C199.102 78.9255 200.129 78.2046 201.322 77.6897C202.515 77.1747 203.835 76.9172 205.282 76.9172C206.373 76.9172 207.388 77.0717 208.328 77.3807V81.1655C207.921 81.0368 207.49 80.9467 207.033 80.8952C206.602 80.8179 206.17 80.7793 205.739 80.7793Z" fill="white"/>
<path d="M219.901 97C216.855 97 214.469 96.3563 212.744 95.069C211.043 93.7559 210.104 91.8892 209.926 89.469H213.81C213.936 90.7306 214.495 91.6703 215.485 92.2883C216.5 92.8805 218.061 93.1766 220.167 93.1766C221.792 93.1766 223.048 92.9963 223.937 92.6359C224.825 92.2497 225.269 91.6832 225.269 90.9366C225.269 89.469 223.289 88.7223 219.33 88.6966C216.157 88.6708 213.797 88.2331 212.249 87.3834C210.7 86.5338 209.926 85.1949 209.926 83.3669C209.926 82.3885 210.142 81.5002 210.573 80.7021C211.03 79.9039 211.652 79.2216 212.439 78.6552C213.251 78.0887 214.228 77.6639 215.37 77.3807C216.513 77.0717 217.782 76.9172 219.178 76.9172C222.147 76.9172 224.47 77.5738 226.145 78.8869C227.845 80.2 228.797 82.0538 229 84.4483H225.079C224.952 83.2124 224.393 82.2984 223.403 81.7062C222.439 81.0883 220.992 80.7793 219.063 80.7793C217.363 80.7793 216.03 81.011 215.066 81.4745C214.101 81.9122 213.619 82.543 213.619 83.3669C213.619 84.0878 214.051 84.6028 214.914 84.9117C215.777 85.1949 217.236 85.3623 219.292 85.4138C222.744 85.4653 225.218 85.903 226.716 86.7269C228.239 87.5251 229 88.8253 229 90.6276C229 92.6616 228.188 94.2322 226.563 95.3393C224.939 96.4464 222.718 97 219.901 97Z" fill="white"/>
</svg>
