<svg width="60" height="61" viewBox="0 0 60 61" fill="none" xmlns="http://www.w3.org/2000/svg">
<rect y="0.5" width="60" height="60" rx="5" fill="#C8C8C8"/>
<path d="M11 25.7069H12.3239V35.3621H11V25.7069ZM14.3438 29.7069C14.0254 29.7069 13.7387 29.7621 13.484 29.8724C13.2383 29.9828 13.029 30.1391 12.8562 30.3414C12.6833 30.5437 12.5513 30.7828 12.4604 31.0586C12.3694 31.3345 12.3239 31.6333 12.3239 31.9552V35.3621H11V31.9828C11 31.4586 11.0773 30.9759 11.232 30.5345C11.3867 30.0839 11.6051 29.6977 11.8871 29.3759C12.1783 29.0448 12.5286 28.7874 12.938 28.6034C13.3566 28.4195 13.8252 28.3276 14.3438 28.3276C14.8625 28.3276 15.3128 28.4195 15.695 28.6034C16.0862 28.7874 16.4184 29.0448 16.6913 29.3759C16.9643 29.6977 17.1827 30.0839 17.3464 30.5345C17.5102 30.9759 17.6239 31.4586 17.6876 31.9828L18.0971 35.3621H16.7596L16.3365 31.9552C16.3001 31.6333 16.2318 31.3345 16.1317 31.0586C16.0407 30.7828 15.9134 30.5483 15.7496 30.3552C15.5949 30.1529 15.3993 29.9966 15.1627 29.8862C14.9352 29.7667 14.6623 29.7069 14.3438 29.7069Z" fill="white"/>
<path d="M19.3471 28.4655H20.6709V35.3621H19.3471V28.4655ZM19.1969 26.3276C19.1969 26.0793 19.2697 25.8816 19.4153 25.7345C19.57 25.5782 19.7702 25.5 20.0158 25.5C20.2524 25.5 20.4435 25.5782 20.5891 25.7345C20.7437 25.8816 20.8211 26.0793 20.8211 26.3276C20.8211 26.5759 20.7437 26.7782 20.5891 26.9345C20.4435 27.0816 20.2524 27.1552 20.0158 27.1552C19.7702 27.1552 19.57 27.0816 19.4153 26.9345C19.2697 26.7782 19.1969 26.5759 19.1969 26.3276Z" fill="white"/>
<path d="M24.9524 31.2379C25.5621 31.2379 26.017 31.1414 26.3173 30.9483C26.6266 30.7552 26.8177 30.392 26.8905 29.8586L27.0543 28.4655H28.3782L28.2144 29.831C28.1416 30.4471 28.0051 30.9207 27.8049 31.2517C27.6138 31.5736 27.3363 31.7943 26.9724 31.9138C27.309 32.0241 27.582 32.2586 27.7913 32.6172C28.0005 32.9759 28.1416 33.4356 28.2144 33.9966L28.3782 35.3621H27.0543L26.8905 33.969C26.8268 33.4264 26.6403 33.0586 26.3309 32.8655C26.0216 32.6724 25.5621 32.5759 24.9524 32.5759H23.533V35.3621H22.2091V25.7069H23.533V31.2379H24.9524Z" fill="white"/>
<path d="M34.3322 30.4655C34.1411 30.2264 33.9 30.0425 33.6088 29.9138C33.3268 29.7759 33.0129 29.7069 32.6671 29.7069C32.103 29.7069 31.6344 29.8678 31.2613 30.1897C30.8883 30.5115 30.6517 30.9345 30.5516 31.4586L34.3322 30.4655ZM29.1868 31.9828C29.1868 31.4586 29.2687 30.9759 29.4325 30.5345C29.6054 30.0839 29.8419 29.6977 30.1422 29.3759C30.4515 29.0448 30.82 28.7874 31.2477 28.6034C31.6753 28.4195 32.1485 28.3276 32.6671 28.3276C33.1039 28.3276 33.5088 28.3966 33.8818 28.5345C34.2549 28.6632 34.587 28.8471 34.8781 29.0862C35.1693 29.3161 35.4104 29.5966 35.6015 29.9276C35.8017 30.2586 35.9472 30.6218 36.0382 31.0172V31.4172L30.6472 32.7828C30.7928 33.1966 31.0384 33.523 31.3842 33.7621C31.739 34.0011 32.1667 34.1207 32.6671 34.1207C33.1402 34.1207 33.5497 34.0011 33.8955 33.7621C34.2412 33.523 34.4914 33.2057 34.6461 32.8103H36.0382C35.9472 33.2057 35.8017 33.569 35.6015 33.9C35.4104 34.231 35.1693 34.5161 34.8781 34.7552C34.587 34.9851 34.2549 35.169 33.8818 35.3069C33.5088 35.4356 33.1039 35.5 32.6671 35.5C32.1485 35.5 31.6753 35.4126 31.2477 35.2379C30.82 35.0632 30.4515 34.8241 30.1422 34.5207C29.8419 34.208 29.6054 33.8356 29.4325 33.4034C29.2687 32.9713 29.1868 32.4977 29.1868 31.9828Z" fill="white"/>
<path d="M40.661 29.7069C39.9604 29.7069 39.3963 29.9138 38.9687 30.3276C38.5501 30.7322 38.3408 31.2747 38.3408 31.9552V35.3621H37.017V31.9828C37.017 31.4586 37.0988 30.9759 37.2626 30.5345C37.4355 30.0839 37.6721 29.6977 37.9723 29.3759C38.2817 29.0448 38.6502 28.7874 39.0778 28.6034C39.5055 28.4195 39.9786 28.3276 40.4973 28.3276C40.8885 28.3276 41.2525 28.3828 41.5891 28.4931V29.8448C41.4435 29.7989 41.2889 29.7667 41.1251 29.7483C40.9704 29.7207 40.8157 29.7069 40.661 29.7069Z" fill="white"/>
<path d="M45.7381 35.5C44.6462 35.5 43.7909 35.2701 43.1722 34.8103C42.5626 34.3414 42.2259 33.6747 42.1622 32.8103H43.5544C43.5998 33.2609 43.8 33.5966 44.1549 33.8172C44.5188 34.0287 45.0784 34.1345 45.8336 34.1345C46.4159 34.1345 46.8663 34.0701 47.1848 33.9414C47.5032 33.8034 47.6625 33.6011 47.6625 33.3345C47.6625 32.8103 46.9528 32.5437 45.5333 32.5345C44.396 32.5253 43.5498 32.369 42.9948 32.0655C42.4397 31.7621 42.1622 31.2839 42.1622 30.631C42.1622 30.2816 42.2396 29.9644 42.3943 29.6793C42.558 29.3943 42.781 29.1506 43.063 28.9483C43.3542 28.746 43.7045 28.5943 44.1139 28.4931C44.5234 28.3828 44.9783 28.3276 45.4788 28.3276C46.5433 28.3276 47.3759 28.5621 47.9764 29.031C48.586 29.5 48.9272 30.1621 49 31.0172H47.5942C47.5487 30.5759 47.3486 30.2494 46.9937 30.0379C46.6479 29.8172 46.1293 29.7069 45.4378 29.7069C44.8282 29.7069 44.3505 29.7897 44.0047 29.9552C43.659 30.1115 43.4861 30.3368 43.4861 30.631C43.4861 30.8885 43.6408 31.0724 43.9502 31.1828C44.2595 31.2839 44.7827 31.3437 45.5197 31.3621C46.7571 31.3805 47.6443 31.5368 48.1811 31.831C48.727 32.1161 49 32.5805 49 33.2241C49 33.9506 48.7088 34.5115 48.1265 34.9069C47.5442 35.3023 46.748 35.5 45.7381 35.5Z" fill="white"/>
</svg>
